# Blender 5.0.1
# www.blender.org
mtllib derrick_0.mtl
o derrick_0
v -2.000000 -0.500000 5.000000
v -0.721324 6.336517 5.000000
v -0.148741 4.000000 -5.000000
v -1.148714 6.998609 -3.859416
v 5.000000 -0.500000 5.000000
v 3.721324 6.336517 5.000000
v 5.000000 -0.500000 -5.000000
v -0.920823 6.998609 -3.859416
v -0.721324 4.001886 5.000000
v -2.000000 4.000000 -5.000000
v -2.500000 2.500000 0.000000
v -2.500000 -0.500000 0.000000
v -5.893112 -0.500000 0.000000
v -6.500000 -0.500000 5.000000
v -6.500000 3.000000 5.000000
v -6.000000 2.500000 0.000000
v -2.000000 -0.500000 0.000000
v -2.000000 4.000000 0.000000
v -6.500000 -0.500000 0.000000
v -6.500000 3.000000 0.000000
v -2.669015 -0.000000 -1.727037
v -2.669015 2.330985 -1.727037
v -5.731168 0.000000 -1.727037
v -5.823604 2.330985 -1.727037
v -2.500000 -0.500000 -3.510869
v -5.893112 -0.500000 -3.510869
v -2.500000 -0.500000 -2.000000
v -5.893112 -0.500000 -2.000000
v -0.148741 -0.500000 -5.000000
v -2.500000 0.000000 -2.000000
v -2.500000 2.500000 -2.000000
v -5.893112 0.000000 -2.000000
v -6.000000 2.500000 -2.000000
v 0.242575 7.456353 1.294480
v 5.000000 -0.500000 0.000000
v 2.757425 7.456353 1.294480
v -1.148714 6.998609 -3.640584
v 5.000000 -0.500000 -2.500000
v -0.920823 6.998609 -3.640584
v 5.919106 7.812445 -2.500000
v 5.919106 7.812445 0.000000
v -1.080894 7.812445 0.000000
v 5.919106 -0.500000 0.000000
v -1.080894 7.812445 -2.500000
v 5.919106 -0.500000 -2.500000
v -2.000000 4.000000 5.000000
v 0.242575 7.456353 3.705520
v 2.757425 7.456353 3.705520
v 3.721324 4.003772 5.000000
v -0.721324 4.001886 4.595547
v -0.721324 6.336517 4.595547
v 3.721324 6.336517 4.595547
v 3.721324 4.003772 4.595547
v 5.000000 7.000000 0.000000
v 5.000000 7.000000 5.000000
v -2.000000 7.000000 5.000000
v -2.000000 7.000000 0.000000
v 2.386593 14.687684 1.650005
v 2.386593 14.687684 3.349996
v 0.613407 14.687684 3.349996
v 0.613407 14.687684 1.650005
v -2.000000 7.000000 -2.500000
v -2.000000 7.000000 -5.000000
v 5.000000 7.000000 -5.000000
v 5.000000 7.000000 -2.500000
v -1.148714 14.588646 -3.640584
v -1.148714 14.588646 -3.859416
v -0.920823 14.588646 -3.859416
v -0.920823 14.588646 -3.640584
vn -0.0000 -0.0000 1.0000
vn -0.9378 -0.0000 -0.3472
vn 1.0000 -0.0000 -0.0000
vn -0.0000 -1.0000 -0.0000
vn -0.0000 0.0491 -0.9988
vn -1.0000 -0.0000 -0.0000
vn -0.0000 -0.0000 -1.0000
vn -0.2169 0.9762 -0.0000
vn -0.0000 1.0000 -0.0000
vn -0.0000 0.9494 -0.3142
vn -0.9993 -0.0356 -0.0089
vn -0.8502 -0.0000 -0.5264
vn 0.8494 0.0363 -0.5264
vn -0.0000 -0.8502 -0.5264
vn -0.6623 0.7492 -0.0000
vn -0.0004 1.0000 -0.0000
vn 0.1994 0.9799 -0.0000
vn -0.0000 0.9431 0.3325
vn -0.1994 0.9799 -0.0000
vn -0.0000 0.9431 -0.3325
vn -0.0000 0.0491 0.9988
vn -0.9987 0.0512 -0.0000
vn 0.9987 0.0512 -0.0000
vn 0.0016 1.0000 -0.0000
vn -0.0000 1.0000 0.0012
vn -0.0002 1.0000 -0.0000
vn -0.0000 1.0000 -0.0012
vn -0.9991 -0.0427 -0.0000
vn 0.8595 0.0341 -0.5099
vt 0.660892 1.907313
vt 0.201940 1.317231
vt 0.660892 1.317231
vt 1.966353 1.766050
vt 1.378896 1.070017
vt 1.966353 1.070017
vt -0.321293 3.478469
vt 0.660530 2.824380
vt 0.660318 3.478788
vt -1.232444 3.478788
vt -1.203563 4.145782
vt -1.232444 4.175264
vt 1.731110 2.917779
vt 0.860612 3.380278
vt 0.814517 3.153431
vt 0.660892 0.661585
vt 1.378896 1.964421
vt 0.987257 1.964421
vt 0.987257 1.638056
vt 1.378896 1.311691
vt 2.031626 1.311691
vt 0.267504 0.596020
vt 0.201939 0.661585
vt -0.569223 1.765084
vt 0.070811 1.907313
vt 0.267504 0.137068
vt 0.660891 0.071504
vt 0.660891 0.137068
vt 0.070810 0.071503
vt 1.013979 0.086953
vt 0.030555 0.835549
vt 0.000881 0.086941
vt 1.827986 3.008795
vt 2.089083 3.465703
vt 1.827991 3.465705
vt 2.286312 2.617152
vt 2.228246 3.102953
vt 2.089075 2.682427
vt 2.286313 3.857675
vt 2.089074 3.857639
vt 2.089086 3.792366
vt 2.089074 2.617154
vt 1.827982 3.857592
vt 2.089078 3.008792
vt 1.827982 2.617156
vt 0.987257 1.311691
vt 0.987257 0.397869
vt 1.966353 0.397869
vt 3.033593 3.052833
vt 2.926090 3.340581
vt 2.889198 3.320693
vt 2.845348 2.686556
vt 2.546795 2.617151
vt 2.872099 2.646917
vt 2.542120 3.561437
vt 2.542678 3.520007
vt 3.080956 3.053299
vt 2.045550 1.025483
vt 2.151612 0.231646
vt 2.151612 1.145468
vt 2.597963 1.251530
vt 2.477977 2.230625
vt 2.477977 1.145468
vt 1.966353 0.071503
vt 0.554548 0.019351
vt 0.393032 0.949569
vt 0.393032 0.019351
vt 2.151612 2.230625
vt 2.694139 -0.003600
vt 1.659842 0.373635
vt 1.659842 -0.003600
vt 2.584039 1.025483
vt 2.477977 0.231646
vt 2.584039 0.111660
vt 2.031626 1.251530
vt 2.031626 2.230625
vt -0.235004 2.075113
vt 0.070816 2.074860
vt 0.070804 2.656852
vt -0.321293 2.824381
vt -0.234598 2.656948
vt -0.322054 1.907746
vt -0.015574 0.997844
vt 0.994842 0.493273
vt 0.994842 0.998252
vt -0.875576 4.154517
vt -0.844200 4.192063
vt -0.877959 3.516862
vt -0.849300 3.487747
vt -1.205719 3.507512
vt -0.615858 2.996112
vt -0.614966 3.305464
vt -0.938862 2.997128
vt -0.938008 3.306275
vt -1.232444 2.824513
vt -1.232444 3.477633
vt 0.660892 3.601091
vt 0.882820 3.832574
vt 0.660892 3.832574
vt 1.827981 3.880985
vt 0.882820 3.601091
vt 1.827981 3.552680
vt 1.796485 3.239509
vt 0.748783 2.941463
vt 1.637882 2.617152
vt 0.809791 1.200559
vt 0.660892 1.311691
vt 0.838359 1.170809
vt 0.838358 1.200559
vt 0.809791 1.170809
vt 0.660892 0.397869
vt 0.475501 0.981186
vt 0.241319 0.837940
vt 0.475501 0.837940
vt 0.871163 0.019351
vt 0.709645 0.949569
vt 0.709645 0.019351
vt 0.554548 0.949569
vt 0.237933 0.949569
vt 0.237933 0.019351
vt 1.378896 1.766050
vt 1.378895 2.617152
vt 0.987257 2.617151
vt 0.660892 0.582004
vt -0.438094 1.175002
vt 1.013982 0.835550
vt 2.425484 3.037678
vt 2.542120 2.658320
vt 2.045550 0.111660
vt 2.597962 2.230625
vt 0.987257 0.071503
vt 2.694139 0.373635
vt -0.015574 0.493273
vt 0.241319 0.981186
vt 0.871163 0.949569
s 0
usemtl concrete
f 1/1/1 15/2/1 14/3/1
f 17/4/2 3/5/2 29/6/2
f 54/7/3 5/8/3 35/9/3
f 2/10/4 52/11/4 6/12/4
f 36/13/5 61/14/5 58/15/5
f 15/2/6 19/16/6 14/3/6
f 18/17/6 57/18/6 62/19/6
f 10/20/4 3/5/4 18/21/4
f 16/22/7 19/16/7 20/23/7
f 18/24/8 15/2/8 46/25/8
f 11/26/7 17/27/7 12/28/7
f 16/22/7 18/29/7 11/26/7
f 11/33/9 33/34/9 16/35/9
f 25/36/10 32/37/10 30/38/10
f 26/39/6 28/40/6 32/41/6
f 30/38/3 27/42/3 25/36/3
f 16/35/11 32/41/11 13/43/11
f 11/33/3 30/38/3 31/44/3
f 32/41/6 28/40/6 13/43/6
f 30/38/3 12/45/3 27/42/3
f 3/5/7 63/46/7 64/47/7
f 3/5/7 7/48/7 29/6/7
f 22/49/12 30/50/12 21/51/12
f 24/52/13 32/53/13 33/54/13
f 21/51/9 32/55/9 23/56/9
f 24/52/14 31/57/14 22/49/14
f 64/47/3 38/64/3 7/48/3
f 2/77/1 46/25/1 9/78/1
f 49/79/1 55/80/1 6/81/1
f 9/78/1 5/8/1 49/79/1
f 6/81/1 56/82/1 2/77/1
f 9/78/1 46/25/1 1/1/1
f 6/12/6 53/86/6 49/87/6
f 49/87/16 50/88/16 9/89/16
f 9/89/3 51/90/3 2/10/3
f 48/91/17 54/7/17 36/92/17
f 47/93/18 55/80/18 48/91/18
f 34/94/19 56/95/19 47/93/19
f 36/92/20 57/96/20 34/94/20
f 61/97/9 59/98/9 58/99/9
f 48/100/21 60/101/21 47/102/21
f 47/102/22 61/14/22 34/103/22
f 36/13/23 59/104/23 48/105/23
f 37/106/24 63/46/24 62/107/24
f 8/108/25 63/46/25 4/109/25
f 39/110/26 64/47/26 8/108/26
f 39/110/27 62/107/27 65/111/27
f 1/1/1 46/25/1 15/2/1
f 17/4/2 18/121/2 3/5/2
f 54/7/3 55/80/3 5/8/3
f 2/10/4 51/90/4 52/11/4
f 36/13/5 34/103/5 61/14/5
f 15/2/6 20/23/6 19/16/6
f 63/46/6 10/20/6 18/17/6
f 18/17/6 46/122/6 56/123/6
f 18/17/6 56/123/6 57/18/6
f 62/19/6 63/46/6 18/17/6
f 16/22/7 13/124/7 19/16/7
f 18/24/8 20/125/8 15/2/8
f 11/26/7 18/29/7 17/27/7
f 16/22/7 20/23/7 18/29/7
f 11/33/9 31/44/9 33/34/9
f 25/36/10 26/127/10 32/37/10
f 16/35/28 33/34/28 32/41/28
f 11/33/3 12/45/3 30/38/3
f 3/5/7 10/20/7 63/46/7
f 3/5/7 64/47/7 7/48/7
f 22/49/12 31/57/12 30/50/12
f 24/52/29 23/128/29 32/53/29
f 21/51/9 30/50/9 32/55/9
f 24/52/14 33/54/14 31/57/14
f 64/47/3 65/131/3 38/64/3
f 2/77/1 56/82/1 46/25/1
f 49/79/1 5/8/1 55/80/1
f 9/78/1 1/1/1 5/8/1
f 6/81/1 55/80/1 56/82/1
f 6/12/6 52/11/6 53/86/6
f 49/87/16 53/86/16 50/88/16
f 9/89/3 50/88/3 51/90/3
f 48/91/17 55/80/17 54/7/17
f 47/93/18 56/95/18 55/80/18
f 34/94/19 57/96/19 56/95/19
f 36/92/20 54/7/20 57/96/20
f 61/97/9 60/101/9 59/98/9
f 48/100/21 59/98/21 60/101/21
f 47/102/22 60/101/22 61/14/22
f 36/13/23 58/15/23 59/104/23
f 37/106/24 4/109/24 63/46/24
f 8/108/25 64/47/25 63/46/25
f 39/110/26 65/111/26 64/47/26
f 39/110/27 37/106/27 62/107/27
usemtl garage_door
f 22/30/7 23/31/7 24/32/7
f 22/30/7 21/126/7 23/31/7
usemtl metal_wear_mid
f 65/58/7 44/59/7 40/60/7
f 54/61/1 43/62/1 41/63/1
f 44/59/9 41/63/9 40/60/9
f 40/60/3 43/62/3 45/68/3
f 54/72/1 42/73/1 57/74/1
f 65/75/7 45/68/7 38/76/7
f 65/58/7 62/129/7 44/59/7
f 54/61/1 35/130/1 43/62/1
f 44/59/9 42/73/9 41/63/9
f 40/60/3 41/63/3 43/62/3
f 54/72/1 41/63/1 42/73/1
f 65/75/7 40/60/7 45/68/7
usemtl vents
f 57/69/15 44/70/15 62/71/15
f 57/69/15 42/132/15 44/70/15
usemtl facade_windows
f 53/83/1 51/84/1 50/85/1
f 53/83/1 52/133/1 51/84/1
usemtl antenna
f 39/65/1 66/66/1 37/67/1
f 67/112/9 69/113/9 68/114/9
f 4/115/7 68/116/7 8/117/7
f 8/117/3 69/118/3 39/65/3
f 37/67/6 67/119/6 4/120/6
f 39/65/1 69/118/1 66/66/1
f 67/112/9 66/134/9 69/113/9
f 4/115/7 67/135/7 68/116/7
f 8/117/3 68/116/3 69/118/3
f 37/67/6 66/66/6 67/119/6
