# Blender 5.1.2
# www.blender.org
mtllib generic_building_1.mtl
o generic_building_1
v -10.000000 0.000000 9.000000
v -10.000000 4.000000 9.000000
v -10.000000 0.000000 3.000000
v -10.000000 4.000000 3.000000
v 10.000000 0.000000 10.000000
v 10.000000 5.000000 10.000000
v 10.000000 0.000000 -10.000000
v 10.000000 5.000000 -10.000000
v -11.000000 -0.500000 -11.000000
v -11.000000 -0.500000 11.000000
v 11.000000 -0.500000 -11.000000
v 11.000000 -0.500000 11.000000
v -11.000000 -2.000000 -11.000000
v -11.000000 -2.000000 11.000000
v 11.000000 -2.000000 -11.000000
v 11.000000 -2.000000 11.000000
v -10.000000 0.000000 -10.000000
v -10.000000 0.000000 10.000000
v -10.000000 5.000000 10.000000
v -10.000000 5.000000 -10.000000
v -10.000000 0.000000 -2.999999
v -10.000000 4.000000 -2.999999
v -10.000000 0.000000 -8.999999
v -10.000000 4.000000 -8.999999
v -9.750000 0.000000 9.000000
v -9.750000 0.000000 3.000000
v -9.750000 4.000000 9.000000
v -9.750000 4.000000 3.000000
v -9.750000 4.000000 -2.999999
v -9.750000 0.000000 -2.999999
v -9.750000 0.000000 -8.999999
v -9.750000 4.000000 -8.999999
v -8.887832 6.000000 8.887832
v -8.887832 6.000000 -8.887832
v 8.887832 6.000000 -8.887832
v 8.887832 6.000000 8.887832
v -10.000000 6.000000 10.000000
v -10.000000 6.000000 -10.000000
v 10.000000 6.000000 -10.000000
v 10.000000 6.000000 10.000000
v -8.887832 5.000000 8.887832
v -8.887832 5.000000 -8.887832
v 8.887832 5.000000 -8.887832
v 8.887832 5.000000 8.887832
v 9.991175 -2.000000 -2.962445
v 9.991175 2.565907 -2.962445
v 9.991175 -2.000000 -4.962445
v 9.991175 2.565907 -4.962445
v 11.006263 -2.000000 -2.962445
v 11.006263 2.565907 -2.962445
v 11.006263 -2.000000 -4.962445
v 11.006263 2.565907 -4.962445
v 9.991175 3.141083 -2.962445
v 9.991175 3.141083 -4.962445
v 9.991175 5.141083 -4.962445
v 9.991175 5.141083 -2.962445
vn -0.0000 1.0000 -0.0000
vn -0.0000 -0.0000 -1.0000
vn 1.0000 -0.0000 -0.0000
vn -0.0000 -0.0000 1.0000
vn -0.0000 0.8944 0.4472
vn -0.0000 0.8944 -0.4472
vn -0.4472 0.8944 -0.0000
vn 0.4472 0.8944 -0.0000
vn -1.0000 -0.0000 -0.0000
vn -0.0000 -1.0000 -0.0000
vn 0.9303 0.3667 -0.0000
vt -0.555622 0.909091
vt -0.521531 1.727273
vt -0.555622 1.727273
vt -0.555622 0.786035
vt 2.171651 0.104216
vt -0.555622 0.104216
vt 1.709629 0.786035
vt -1.017644 0.104216
vt 1.709629 0.104216
vt 2.171651 0.786035
vt -0.555622 -0.863636
vt 2.308014 -1.000000
vt 2.171651 -0.863636
vt -1.017644 0.922398
vt -1.017644 0.786035
vt -0.691986 0.036035
vt 2.308014 -0.168511
vt 2.308014 0.036035
vt 2.171651 1.863636
vt -0.691986 2.000000
vt -0.555622 1.863636
vt -0.691986 -1.000000
vt 2.308014 2.000000
vt -0.691986 -0.168511
vt -1.154007 0.036035
vt 1.845993 -0.168511
vt 1.845993 0.036035
vt -1.154007 -0.168511
vt -0.521531 0.649671
vt -0.555622 0.649671
vt -0.063098 0.649671
vt 0.755084 0.104216
vt -0.063098 0.104216
vt 0.755084 0.649671
vt -0.881280 0.649671
vt 1.573265 0.649671
vt 0.000000 1.000000
vt 1.000000 0.000000
vt 0.000000 0.000000
vt 0.000000 1.000000
vt 0.000000 0.000000
vt -0.521531 0.104216
vt -0.521531 0.909091
vt -0.555622 0.090909
vt -0.521531 -0.727273
vt -0.555622 -0.727273
vt -0.521531 0.090909
vt 2.019992 0.922398
vt -0.403963 0.786035
vt -0.403963 0.922398
vt 1.709629 0.922398
vt -0.555622 0.922398
vt 2.171651 0.922398
vt -0.403963 1.711977
vt -0.403963 -0.711977
vt 2.019992 1.711977
vt 2.019992 -0.711977
vt 2.019992 0.786035
vt 1.557970 0.922398
vt -0.865984 0.786035
vt -0.865984 0.922398
vt 1.557970 0.786035
vt 0.426151 -0.070827
vt 0.668454 0.568559
vt 0.668454 -0.070827
vt 0.640035 0.568559
vt 0.359965 -0.070827
vt 0.640035 -0.070827
vt 0.359965 0.929173
vt 0.359965 0.568559
vt 0.405395 0.649104
vt 0.426151 0.568559
vt 0.405395 0.929173
vt 1.573265 0.104216
vt -0.881280 0.104216
vt 1.000000 1.000000
vt 0.640035 0.929173
s 0
usemtl concrete_light
f 21/1/1 31/2/1 23/3/1
f 20/4/2 7/5/2 17/6/2
f 8/7/3 5/8/3 7/9/3
f 6/10/4 18/6/4 5/5/4
f 18/11/5 12/12/5 5/13/5
f 8/7/3 40/14/3 6/15/3
f 10/16/4 16/17/4 12/18/4
f 7/19/6 9/20/6 17/21/6
f 21/1/7 23/3/7 10/22/7
f 5/13/8 11/23/8 7/19/8
f 11/18/2 13/24/2 9/16/2
f 12/25/3 15/26/3 11/27/3
f 9/27/9 14/28/9 10/25/9
f 23/6/4 32/29/4 24/30/4
f 4/31/9 21/32/9 3/33/9
f 22/34/9 19/15/9 20/7/9
f 4/31/9 2/35/9 19/15/9
f 22/34/9 20/7/9 24/36/9
f 17/9/9 24/36/9 20/7/9
f 2/35/9 18/8/9 19/15/9
f 3/6/4 28/29/4 4/30/4
f 2/30/2 25/42/2 1/6/2
f 24/3/10 29/43/10 22/1/10
f 22/30/2 30/42/2 21/6/2
f 4/44/10 27/45/10 2/46/10
f 1/46/1 26/47/1 3/44/1
f 36/48/2 41/49/2 33/50/2
f 19/15/9 38/51/9 20/7/9
f 6/10/4 37/52/4 19/4/4
f 20/4/2 39/53/2 8/10/2
f 34/54/1 37/11/1 33/55/1
f 35/56/1 38/21/1 34/54/1
f 36/57/1 39/19/1 35/56/1
f 33/55/1 40/13/1 36/57/1
f 42/54/1 44/57/1 43/56/1
f 34/50/4 43/58/4 35/48/4
f 35/59/9 44/60/9 36/61/9
f 33/61/3 42/62/3 34/59/3
f 21/1/1 30/43/1 31/2/1
f 20/4/2 8/10/2 7/5/2
f 8/7/3 6/15/3 5/8/3
f 6/10/4 19/4/4 18/6/4
f 18/11/5 10/22/5 12/12/5
f 8/7/3 39/51/3 40/14/3
f 10/16/4 14/24/4 16/17/4
f 7/19/6 11/23/6 9/20/6
f 10/22/7 18/11/7 1/46/7
f 10/22/7 1/46/7 3/44/7
f 17/21/7 9/20/7 10/22/7
f 23/3/7 17/21/7 10/22/7
f 10/22/7 3/44/7 21/1/7
f 5/13/8 12/12/8 11/23/8
f 11/18/2 15/17/2 13/24/2
f 12/25/3 16/28/3 15/26/3
f 9/27/9 13/26/9 14/28/9
f 23/6/4 31/42/4 32/29/4
f 4/31/9 22/34/9 21/32/9
f 22/34/9 4/31/9 19/15/9
f 17/9/9 23/74/9 24/36/9
f 2/35/9 1/75/9 18/8/9
f 3/6/4 26/42/4 28/29/4
f 2/30/2 27/29/2 25/42/2
f 24/3/10 32/2/10 29/43/10
f 22/30/2 29/29/2 30/42/2
f 4/44/10 28/47/10 27/45/10
f 1/46/1 25/45/1 26/47/1
f 36/48/2 44/58/2 41/49/2
f 19/15/9 37/14/9 38/51/9
f 6/10/4 40/53/4 37/52/4
f 20/4/2 38/52/2 39/53/2
f 34/54/1 38/21/1 37/11/1
f 35/56/1 39/19/1 38/21/1
f 36/57/1 40/13/1 39/19/1
f 33/55/1 37/11/1 40/13/1
f 42/54/1 41/55/1 44/57/1
f 34/50/4 42/49/4 43/58/4
f 35/59/9 43/62/9 44/60/9
f 33/61/3 41/60/3 42/62/3
usemtl garage_door
f 27/37/9 26/38/9 25/39/9
f 29/40/9 31/38/9 30/41/9
f 27/37/9 28/76/9 26/38/9
f 29/40/9 32/76/9 31/38/9
usemtl metal_wear_mid
f 47/63/2 52/64/2 51/65/2
f 52/66/3 49/67/3 51/68/3
f 50/64/4 45/63/4 49/65/4
f 52/66/11 56/69/11 50/70/11
f 50/64/4 53/71/4 46/72/4
f 52/64/2 54/71/2 55/73/2
f 47/63/2 48/72/2 52/64/2
f 52/66/3 50/70/3 49/67/3
f 50/64/4 46/72/4 45/63/4
f 52/66/11 55/77/11 56/69/11
f 50/64/4 56/73/4 53/71/4
f 52/64/2 48/72/2 54/71/2
