# Blender 5.1.2
# www.blender.org
mtllib generic_building_0.mtl
o generic_building_0
v -7.000000 -2.000000 10.000000
v -7.000000 20.000000 10.000000
v -7.000000 -2.000000 -10.000000
v -7.000000 20.000000 -10.000000
v 7.000000 -2.000000 10.000000
v 7.000000 20.000000 10.000000
v 7.000000 -2.000000 -10.000000
v 7.000000 20.000000 -10.000000
v -7.000000 -0.455489 10.000000
v -7.000000 -0.455489 -10.000000
v 7.000000 -0.455489 -10.000000
v 7.000000 -0.455489 10.000000
v -7.000000 16.000000 10.000000
v -7.000000 16.000000 -10.000000
v 7.000000 16.000000 -10.000000
v 7.000000 16.000000 10.000000
v -7.000000 5.000000 -10.000000
v 7.000000 5.000000 -10.000000
v 7.000000 5.000000 10.000000
v -7.000000 5.000000 10.000000
v -7.000000 19.000000 10.000000
v -7.000000 19.000000 -10.000000
v 7.000000 19.000000 -10.000000
v 7.000000 19.000000 10.000000
v -6.456199 18.883471 -9.223142
v -6.456199 16.116529 -9.223142
v 6.456199 18.883471 -9.223142
v 6.456199 16.116529 -9.223142
v 6.456199 18.883471 9.223142
v 6.456199 16.116529 9.223142
v -6.456199 16.116529 9.223142
v -6.456199 18.883471 9.223142
v -6.058085 3.000000 1.152739
v -6.058085 1.000000 1.152739
v 6.058085 4.663602 -8.654408
v 6.058085 0.000000 -8.654408
v 6.058085 4.663602 8.654408
v 6.058085 0.000000 8.654408
v -6.058085 0.000000 8.000000
v -6.058085 4.000000 8.000000
v -6.058085 3.000000 -7.807147
v -6.058085 1.000000 -7.807147
v -6.058085 0.000000 8.654408
v -6.058085 4.663602 8.654408
v -5.548445 4.000000 2.000000
v -5.548445 0.000000 2.000000
v -5.548445 0.000000 8.000000
v -5.548445 4.000000 8.000000
v -6.058085 4.663602 -8.654408
v -6.058085 0.000000 -8.654408
v -6.058085 4.000000 2.000000
v -6.058085 0.000000 2.000000
v -0.172639 19.514990 8.969949
v -0.172639 29.288622 8.969949
v -0.172639 19.514990 8.624671
v -0.172639 29.288622 8.624671
v 0.172639 19.514990 8.969949
v 0.172639 29.288622 8.969949
v 0.172639 19.514990 8.624671
v 0.172639 29.288622 8.624671
v -6.058085 3.000000 -3.327202
v -6.058085 1.000000 -3.327202
v -6.456199 16.116529 0.000000
v -6.456199 18.883471 0.000000
v 6.456199 16.116529 0.000000
v 6.456199 18.883471 0.000000
vn -1.0000 -0.0000 -0.0000
vn -0.0000 -0.0000 -1.0000
vn 1.0000 -0.0000 -0.0000
vn -0.0000 -0.0000 1.0000
vn -0.0000 1.0000 -0.0000
vn -0.4353 0.9003 -0.0000
vn -0.3363 -0.9417 -0.0000
vn 0.3363 -0.9417 -0.0000
vn -0.0000 0.9472 0.3206
vn -0.2095 0.9778 -0.0000
vn -0.0000 -0.9889 0.1483
vn -0.0000 -0.9889 -0.1483
vn -0.0000 0.9889 0.1483
vn 0.2095 0.9778 -0.0000
vn -0.2095 -0.9778 -0.0000
vn 0.2095 -0.9778 -0.0000
vn -0.0000 0.9889 -0.1483
vn -0.0000 -1.0000 -0.0000
vn 0.4353 0.9003 -0.0000
vn -0.0000 -0.9701 0.2425
vn -0.0000 -0.9701 -0.2425
vn -0.0000 0.9472 -0.3206
vt 5.541030 3.288511
vt 5.616474 0.130795
vt 5.616474 3.379999
vt 5.541030 0.222284
vt 3.344708 0.160991
vt 3.420632 0.237298
vt 3.344708 3.349804
vt 3.420633 3.273497
vt 2.032847 9.988187
vt 2.256742 7.958724
vt 2.256742 9.988187
vt 2.032846 3.030029
vt 2.256741 0.130795
vt 2.256741 3.030029
vt 2.032846 5.059492
vt 2.256742 5.059492
vt 2.032847 7.958724
vt 0.031275 9.988188
vt 1.625852 7.958724
vt 1.625852 9.988188
vt 0.031273 3.030029
vt 1.625850 0.130795
vt 1.625851 3.030029
vt 0.031273 5.059492
vt 1.625852 5.059492
vt 0.031273 7.958724
vt 1.881178 5.254551
vt 1.770840 7.763665
vt 1.770839 2.834969
vt 1.826916 9.851646
vt 1.826916 8.095265
vt 7.586631 6.278868
vt 7.483113 4.830708
vt 7.461983 3.493874
vt 5.465538 3.412072
vt 3.513347 3.495105
vt 3.436326 3.379999
vt 3.436328 6.343374
vt 5.384917 6.198690
vt 5.465538 6.311306
vt 5.558180 6.343001
vt 7.504242 6.167542
vt 6.837198 0.968089
vt 5.426911 0.517730
vt 6.837198 0.517732
vt 2.001926 0.968089
vt 0.994578 0.517731
vt 2.001926 0.517731
vt 3.412214 0.968090
vt 3.412214 0.517731
vt 5.426911 0.968089
vt 4.419563 0.517731
vt 5.511348 3.379999
vt 5.569053 4.830708
vt 5.547927 6.167542
vt 5.384918 4.861689
vt 5.384919 3.524687
vt 3.344708 3.445592
vt 3.471097 4.891935
vt 3.513348 6.228267
vt 7.540814 3.379999
vt 5.590179 3.493874
vt 5.690351 2.450182
vt 5.616473 1.580412
vt 5.690351 1.580412
vt 3.344708 4.390971
vt 2.664120 6.146162
vt 2.668522 4.389295
vt 3.340377 6.147846
vt 2.657844 8.656164
vt 3.334973 0.130795
vt 2.666693 1.893407
vt 2.657843 0.134202
vt 1.881177 0.325855
vt 2.032845 0.130795
vt 1.826915 9.851645
vt 1.826914 4.922950
vt 1.826915 4.922950
vt 1.826915 3.166570
vt -0.012499 0.991858
vt 0.995115 0.520125
vt 0.995115 0.991858
vt 2.668987 1.987967
vt 3.247471 1.985124
vt 3.343824 1.890001
vt 3.250110 2.851385
vt 5.205029 -0.084622
vt 7.155937 1.215983
vt 5.205029 1.215983
vt 5.690351 1.000565
vt 5.616473 0.130795
vt 5.690351 0.130795
vt 5.616473 1.000565
vt 5.690351 3.030029
vt 5.616473 2.450182
vt 3.103789 4.268001
vt 2.814133 4.267296
vt 2.818278 2.974483
vt 3.106231 2.974162
vt 2.816205 3.620889
vt 2.674821 2.852887
vt 3.105010 3.621081
vt 0.136926 1.000000
vt 0.013008 0.000000
vt 0.136926 0.000000
vt 0.508680 1.000000
vt 0.384762 0.000000
vt 0.508680 0.000000
vt 0.384762 1.000000
vt 0.260844 0.000000
vt 0.260844 1.000000
vt 0.864431 0.883498
vt 0.674464 0.937655
vt 0.674464 0.883498
vt 2.002731 0.520125
vt 2.002731 0.991858
vt 4.419563 0.968090
vt 0.994578 0.968089
vt -0.012771 0.517731
vt 0.031272 0.130795
vt 1.881179 7.763666
vt 1.770840 5.254550
vt 1.770839 0.325854
vt 5.633373 6.226693
vt 5.465539 6.278868
vt 3.428846 3.555603
vt 3.334126 8.657854
vt 1.881178 2.834969
vt 1.826915 8.095265
vt 1.826913 3.166569
vt -0.012499 0.520124
vt 7.155937 -0.084622
vt 5.616474 3.030029
vt 0.013008 1.000000
vt 0.864431 0.937655
vt -0.012771 0.968089
s 0
usemtl concrete_light
f 2/1/1 22/2/1 21/3/1
f 4/4/2 23/5/2 22/2/2
f 8/6/3 24/7/3 23/5/3
f 6/8/4 21/3/4 24/7/4
f 4/4/5 6/8/5 8/6/5
f 12/9/4 1/10/4 5/11/4
f 11/12/3 5/13/3 7/14/3
f 10/15/2 7/14/2 3/16/2
f 9/17/1 3/16/1 1/10/1
f 16/18/4 20/19/4 19/20/4
f 15/21/3 19/22/3 18/23/3
f 14/24/2 18/23/2 17/25/2
f 13/26/1 17/25/1 20/19/1
f 9/17/6 50/27/6 10/15/6
f 17/25/7 44/28/7 20/19/7
f 19/22/8 35/29/8 18/23/8
f 9/17/9 38/30/9 43/31/9
f 13/32/10 63/33/10 26/34/10
f 21/35/11 29/36/11 24/37/11
f 23/38/12 25/39/12 22/40/12
f 16/41/13 31/42/13 13/32/13
f 15/53/14 65/54/14 30/55/14
f 22/40/15 64/56/15 32/57/15
f 24/58/16 66/59/16 27/60/16
f 14/61/17 28/62/17 15/53/17
f 51/63/18 48/64/18 40/65/18
f 49/66/2 36/67/2 50/68/2
f 35/69/3 38/70/3 36/67/3
f 37/71/4 43/72/4 38/73/4
f 11/12/19 38/74/19 12/75/19
f 20/19/20 37/76/20 19/20/20
f 18/23/21 49/77/21 17/25/21
f 11/12/22 50/78/22 36/79/22
f 39/83/5 50/68/5 43/72/5
f 40/84/1 43/72/1 44/85/1
f 51/86/1 44/85/1 49/66/1
f 39/90/5 46/91/5 52/92/5
f 40/65/2 47/93/2 39/90/2
f 52/94/4 45/95/4 51/63/4
f 41/96/1 50/68/1 42/97/1
f 34/98/1 51/86/1 33/99/1
f 62/100/1 50/68/1 52/101/1
f 61/102/1 51/86/1 49/66/1
f 2/1/1 4/4/1 22/2/1
f 4/4/2 8/6/2 23/5/2
f 8/6/3 6/8/3 24/7/3
f 6/8/4 2/1/4 21/3/4
f 4/4/5 2/1/5 6/8/5
f 12/9/4 9/17/4 1/10/4
f 11/12/3 12/75/3 5/13/3
f 10/15/2 11/12/2 7/14/2
f 9/17/1 10/15/1 3/16/1
f 16/18/4 13/26/4 20/19/4
f 15/21/3 16/120/3 19/22/3
f 14/24/2 15/21/2 18/23/2
f 13/26/1 14/24/1 17/25/1
f 9/17/6 43/121/6 50/27/6
f 17/25/7 49/122/7 44/28/7
f 19/22/8 37/123/8 35/29/8
f 9/17/9 12/9/9 38/30/9
f 26/34/10 14/61/10 13/32/10
f 13/32/10 31/42/10 63/33/10
f 21/35/11 32/57/11 29/36/11
f 23/38/12 27/60/12 25/39/12
f 16/41/13 30/124/13 31/42/13
f 30/55/14 16/125/14 15/53/14
f 15/53/14 28/62/14 65/54/14
f 32/57/15 21/35/15 22/40/15
f 22/40/15 25/39/15 64/56/15
f 27/60/16 23/38/16 24/58/16
f 24/58/16 29/126/16 66/59/16
f 14/61/17 26/34/17 28/62/17
f 51/63/18 45/95/18 48/64/18
f 49/66/2 35/69/2 36/67/2
f 35/69/3 37/127/3 38/70/3
f 37/71/4 44/85/4 43/72/4
f 11/12/19 36/128/19 38/74/19
f 20/19/20 44/129/20 37/76/20
f 18/23/21 35/130/21 49/77/21
f 11/12/22 10/15/22 50/78/22
f 39/83/5 52/101/5 50/68/5
f 40/84/1 39/83/1 43/72/1
f 51/86/1 40/84/1 44/85/1
f 39/90/5 47/93/5 46/91/5
f 40/65/2 48/64/2 47/93/2
f 52/94/4 46/133/4 45/95/4
f 41/96/1 49/66/1 50/68/1
f 34/98/1 52/101/1 51/86/1
f 52/101/1 34/98/1 62/100/1
f 62/100/1 42/97/1 50/68/1
f 49/66/1 41/96/1 61/102/1
f 61/102/1 33/99/1 51/86/1
usemtl garage_door
f 48/87/1 46/88/1 47/89/1
f 48/87/1 45/132/1 46/88/1
usemtl facade_windows
f 29/43/4 31/44/4 30/45/4
f 27/46/3 65/47/3 28/48/3
f 25/49/2 28/48/2 26/50/2
f 32/51/1 63/52/1 31/44/1
f 34/80/1 61/81/1 62/82/1
f 62/82/1 41/115/1 42/116/1
f 64/117/1 26/50/1 63/52/1
f 66/118/3 30/119/3 65/47/3
f 29/43/4 32/51/4 31/44/4
f 27/46/3 66/118/3 65/47/3
f 25/49/2 27/46/2 28/48/2
f 32/51/1 64/117/1 63/52/1
f 34/80/1 33/131/1 61/81/1
f 62/82/1 61/81/1 41/115/1
f 64/117/1 25/49/1 26/50/1
f 66/118/3 29/136/3 30/119/3
usemtl antenna
f 54/103/1 55/104/1 53/105/1
f 56/106/2 59/107/2 55/108/2
f 60/109/3 57/110/3 59/107/3
f 58/111/4 53/105/4 57/110/4
f 56/112/5 58/113/5 60/114/5
f 54/103/1 56/134/1 55/104/1
f 56/106/2 60/109/2 59/107/2
f 60/109/3 58/111/3 57/110/3
f 58/111/4 54/103/4 53/105/4
f 56/112/5 54/135/5 58/113/5
