# Blender 5.0.1
# www.blender.org
mtllib habitation_0.mtl
o habitation_0
v -2.652148 -0.500000 7.335104
v -2.652148 3.739111 7.335104
v -2.652148 -0.500000 -7.335104
v -1.940665 3.292499 -7.068628
v 2.652148 -0.500000 7.335104
v 2.652148 3.739111 7.335104
v 2.652148 -0.500000 -7.335104
v 1.940665 3.292499 -7.068628
v -3.111965 3.311444 3.077606
v 3.000000 -0.500000 3.766442
v 3.000000 4.000000 3.766442
v -3.000000 -0.500000 3.766442
v 3.000000 4.000000 0.000000
v 3.000000 -0.500000 0.000000
v -3.111965 3.311444 0.688836
v -3.000000 -0.500000 0.000000
v -3.000000 4.000000 -3.750000
v 3.000000 -0.500000 -3.750000
v 3.000000 4.000000 -3.750000
v -3.000000 -0.500000 -3.750000
v -3.000000 -0.500000 5.633221
v 3.000000 4.000000 5.633221
v -3.000000 4.000000 5.633221
v 3.000000 -0.500000 5.633221
v -3.000000 4.000000 -5.625000
v 3.000000 -0.500000 -5.625000
v 3.000000 4.000000 -5.625000
v -3.000000 -0.500000 -5.625000
v -3.722378 4.568767 3.766442
v -3.722378 -0.500000 3.766442
v -3.722378 4.568767 5.633221
v 3.722378 -0.500000 5.633221
v 3.722378 -0.500000 3.766442
v 3.722378 4.568767 3.766442
v 3.722378 4.568767 -5.625000
v 3.722378 4.568767 -3.750000
v -3.722378 -0.500000 -5.625000
v -3.722378 -0.500000 -3.750000
v 3.722378 -0.500000 -3.750000
v -3.722378 4.568767 -3.750000
v -3.722378 -0.500000 5.633221
v 3.722378 4.568767 5.633221
v -3.722378 4.568767 -5.625000
v 3.722378 -0.500000 -5.625000
v -3.000000 4.000000 3.766442
v -3.111965 -0.500000 0.688836
v -3.111965 -0.500000 3.077606
v -3.000000 4.000000 0.000000
v -3.774740 -0.500000 0.688836
v -3.774740 -0.500000 3.077606
v -3.774740 3.121618 3.077606
v -3.774740 3.121618 0.688836
v -6.615848 0.000000 0.981323
v -6.615848 0.000000 2.785120
v -6.615848 2.829131 2.785120
v -6.615848 2.829131 0.981323
v -6.839973 0.000000 0.688836
v -6.839973 0.000000 3.077606
v -6.839973 3.121618 3.077606
v -6.839973 3.121618 0.688836
v -7.936234 -0.500000 3.077606
v -7.936234 -0.500000 0.688836
v -2.652148 3.739111 -7.335104
v 1.940665 0.476354 -7.068628
v -1.940665 0.476354 -7.068628
v 2.652148 3.739111 -7.335104
v -0.102472 3.515095 6.227178
v -0.102472 9.897640 6.227178
v -0.102472 3.515095 6.022234
v -0.102472 9.897640 6.022234
v 0.102472 3.515095 6.227178
v 0.102472 9.897640 6.227178
v 0.102472 3.515095 6.022234
v 0.102472 9.897640 6.022234
vn -0.9799 -0.0000 -0.1993
vn -0.0000 -0.0000 -1.0000
vn 0.9797 -0.0000 0.2003
vn -0.0000 -0.0000 1.0000
vn -0.0000 1.0000 -0.0000
vn -0.0000 0.9885 0.1515
vn 1.0000 -0.0000 -0.0000
vn -0.2753 0.9613 -0.0000
vn -1.0000 -0.0000 -0.0000
vn -0.9797 -0.0000 0.2003
vn -0.0000 0.9886 -0.1508
vn 0.9799 -0.0000 -0.1993
vn -0.9870 -0.0000 0.1604
vn -0.9870 -0.0000 -0.1604
vn -0.9870 0.1605 -0.0000
vn -0.7938 -0.0000 -0.6082
vn -0.7938 -0.0000 0.6082
vn -0.7938 -0.6082 -0.0000
vn -0.4150 0.9098 -0.0000
vn 0.3507 -0.0000 -0.9365
vn -0.0000 0.2633 -0.9647
vn -0.0000 -0.5124 -0.8588
vn -0.3507 -0.0000 -0.9365
vt 2.866081 5.124245
vt 3.232081 4.449380
vt 3.232081 5.169528
vt 0.241748 0.490494
vt 0.753887 1.006843
vt 0.241749 1.006843
vt 4.560114 5.069902
vt 4.924366 4.162638
vt 4.924366 5.069902
vt 0.100725 4.462521
vt 1.007990 3.327282
vt 1.007990 4.462521
vt 1.381717 0.125241
vt 0.100725 0.927833
vt 0.100725 0.125248
vt 1.372235 4.608274
vt 1.007990 3.405450
vt 1.372235 3.327282
vt 2.466547 2.524691
vt 3.429650 1.718587
vt 3.429650 2.524691
vt 1.381717 0.927826
vt 0.100725 1.733936
vt 1.503446 1.563982
vt 1.503446 0.279846
vt 5.071367 3.308035
vt 4.560114 3.452377
vt 4.560117 3.308034
vt 1.503446 3.157328
vt 2.466547 3.311933
vt 1.381717 3.311933
vt 2.466547 3.327275
vt 3.429649 3.327275
vt 0.222454 3.172677
vt 0.100725 1.733936
vt 0.222454 1.888541
vt 3.429650 2.521172
vt 4.194118 1.718587
vt 4.194118 2.521172
vt 3.393292 4.501708
vt 3.757534 5.176574
vt 3.393292 5.221856
vt 2.588277 1.563982
vt 2.466547 0.125241
vt 2.588277 0.279846
vt 1.503446 1.873192
vt 2.466547 1.718587
vt 2.466547 1.873192
vt 4.560114 4.518667
vt 4.194118 3.308035
vt 4.560114 3.386207
vt 4.595409 1.774423
vt 4.961399 2.681689
vt 4.595409 2.681689
vt 1.185555 3.327282
vt 0.100725 3.327281
vt 2.466547 4.359777
vt 2.866081 5.220868
vt 2.466547 5.220868
vt 3.792825 3.327276
vt 4.194118 4.412106
vt 3.792825 4.412106
vt 4.595409 3.308035
vt 4.194118 1.718587
vt 4.595409 1.718589
vt 4.766646 1.714689
vt 4.367114 0.125241
vt 4.766646 0.125243
vt 3.393292 3.327276
vt 3.393292 4.412106
vt 4.766646 0.125241
vt 5.167938 0.986333
vt 4.766646 0.986333
vt 3.551378 1.718587
vt 1.185555 1.733936
vt 1.185555 1.888541
vt 2.466547 0.279847
vt 1.381717 1.718587
vt 3.551378 0.125241
vt 3.551378 0.279846
vt 3.532048 3.179849
vt 4.194118 3.327275
vt 3.429650 3.327275
vt 3.532048 2.668598
vt 4.179543 2.668598
vt 3.241656 4.217928
vt 3.282283 4.359777
vt 4.326486 0.267090
vt 3.551378 0.267090
vt 3.658389 0.923119
vt 3.613977 1.236608
vt 4.000030 1.717226
vt 3.613977 1.717226
vt 2.573559 3.561900
vt 3.241656 3.561900
vt 5.071364 3.452378
vt 4.560117 4.106801
vt 3.551378 1.688050
vt 3.551378 1.157744
vt 4.000030 1.236608
vt 4.062628 1.688050
vt 4.062628 1.157744
vt 2.466547 4.217929
vt 3.551378 1.157743
vt 4.110479 1.157744
vt 4.352012 1.669001
vt 4.110479 1.668994
vt 4.062628 1.606396
vt 4.062628 1.220343
vt 2.080020 4.294898
vt 1.381717 4.447171
vt 1.477302 4.294898
vt 2.080020 3.464206
vt 2.288982 4.447171
vt 1.477302 3.464206
vt 2.288982 3.311933
vt 0.513761 1.000000
vt 0.385321 -0.000000
vt 0.513761 -0.000000
vt 0.385321 1.000000
vt 0.256880 -0.000000
vt 0.256880 1.000000
vt 0.128440 -0.000000
vt 0.128440 1.000000
vt 0.000000 -0.000000
vt 0.333120 0.864530
vt 0.745005 0.967501
vt 0.333120 0.967501
vt 2.866081 4.359777
vt 0.753887 0.490494
vt 4.560114 4.106801
vt 0.100725 3.327282
vt 1.007990 4.537910
vt 2.466548 1.718587
vt 1.381717 1.733930
vt 2.466547 3.157328
vt 3.757534 4.412106
vt 4.194118 4.589027
vt 4.961399 1.718587
vt 1.185555 3.172677
vt 4.194118 3.327276
vt 4.194118 3.308033
vt 4.367114 1.714687
vt 5.167938 0.125241
vt 3.551378 1.563982
vt 2.466547 1.563982
vt 4.179543 3.179849
vt 4.326486 0.923119
vt 5.071367 4.106801
vt 4.352012 1.157750
vt 0.000000 1.000000
vt 0.745005 0.864530
s 0
usemtl concrete
f 28/1/1 63/2/1 3/3/1
f 24/7/3 6/8/3 5/9/3
f 6/10/4 1/11/4 5/12/4
f 17/13/5 13/14/5 19/15/5
f 23/16/6 6/17/6 22/18/6
f 13/19/7 10/20/7 14/21/7
f 48/22/5 11/23/5 13/14/5
f 45/24/2 34/13/2 11/25/2
f 15/26/8 51/27/8 9/28/8
f 25/29/2 37/30/2 43/31/2
f 19/32/7 14/21/7 18/33/7
f 19/34/4 40/35/4 17/36/4
f 48/37/9 20/38/9 16/39/9
f 2/40/10 21/41/10 1/42/10
f 22/43/4 31/44/4 23/45/4
f 27/46/2 44/47/2 26/48/2
f 63/49/11 27/50/11 66/51/11
f 66/52/12 26/53/12 7/54/12
f 19/34/4 39/55/4 36/56/4
f 31/57/9 30/58/9 41/59/9
f 35/60/7 39/61/7 44/62/7
f 43/63/5 36/64/5 35/65/5
f 29/66/5 42/67/5 34/68/5
f 34/69/7 32/62/7 33/70/7
f 40/71/9 37/72/9 38/73/9
f 22/43/4 32/74/4 42/47/4
f 17/36/4 38/75/4 20/76/4
f 11/25/2 33/44/2 10/77/2
f 45/24/2 30/47/2 29/78/2
f 25/29/2 35/78/2 27/46/2
f 23/45/4 41/79/4 21/80/4
f 9/81/13 12/82/13 45/83/13
f 15/84/14 16/39/14 46/85/14
f 9/81/15 48/37/15 15/84/15
f 46/57/2 52/86/2 15/87/2
f 47/79/4 51/88/4 50/89/4
f 51/88/4 58/90/4 50/89/4
f 52/86/2 57/94/2 60/95/2
f 52/96/5 59/97/5 51/27/5
f 55/91/16 58/98/16 59/99/16
f 56/100/17 57/101/17 53/92/17
f 55/91/18 60/102/18 56/100/18
f 57/94/2 49/103/2 62/32/2
f 58/90/4 61/104/4 50/89/4
f 57/105/19 61/106/19 58/107/19
f 57/105/5 54/108/5 53/109/5
f 65/110/20 63/111/20 4/112/20
f 64/113/21 3/114/21 65/110/21
f 4/112/22 66/31/22 8/115/22
f 64/113/23 66/31/23 7/116/23
f 28/1/1 25/129/1 63/2/1
f 24/7/3 22/131/3 6/8/3
f 6/10/4 2/132/4 1/11/4
f 17/13/5 48/22/5 13/14/5
f 23/16/6 2/133/6 6/17/6
f 13/19/7 11/134/7 10/20/7
f 48/22/5 45/135/5 11/23/5
f 45/24/2 29/78/2 34/13/2
f 15/26/8 52/96/8 51/27/8
f 25/29/2 28/136/2 37/30/2
f 19/32/7 13/19/7 14/21/7
f 19/34/4 36/56/4 40/35/4
f 48/37/9 17/20/9 20/38/9
f 2/40/10 23/137/10 21/41/10
f 22/43/4 42/47/4 31/44/4
f 27/46/2 35/78/2 44/47/2
f 63/49/11 25/138/11 27/50/11
f 66/52/12 27/139/12 26/53/12
f 19/34/4 18/140/4 39/55/4
f 31/57/9 29/129/9 30/58/9
f 35/60/7 36/141/7 39/61/7
f 43/63/5 40/142/5 36/64/5
f 29/66/5 31/143/5 42/67/5
f 34/69/7 42/60/7 32/62/7
f 40/71/9 43/144/9 37/72/9
f 22/43/4 24/145/4 32/74/4
f 17/36/4 40/35/4 38/75/4
f 11/25/2 34/13/2 33/44/2
f 45/24/2 12/146/2 30/47/2
f 25/29/2 43/31/2 35/78/2
f 23/45/4 31/44/4 41/79/4
f 9/81/13 47/147/13 12/82/13
f 15/84/14 48/37/14 16/39/14
f 9/81/15 45/83/15 48/37/15
f 46/57/2 49/103/2 52/86/2
f 47/79/4 9/67/4 51/88/4
f 51/88/4 59/148/4 58/90/4
f 52/86/2 49/103/2 57/94/2
f 52/96/5 60/149/5 59/97/5
f 55/91/16 54/93/16 58/98/16
f 56/100/17 60/102/17 57/101/17
f 55/91/18 59/99/18 60/102/18
f 57/105/19 62/150/19 61/106/19
f 57/105/5 58/107/5 54/108/5
f 65/110/20 3/114/20 63/111/20
f 64/113/21 7/116/21 3/114/21
f 4/112/22 63/111/22 66/31/22
f 64/113/23 8/115/23 66/31/23
usemtl garage_door
f 55/91/9 53/92/9 54/93/9
f 55/91/9 56/100/9 53/92/9
usemtl facade_windows
f 4/4/2 64/5/2 65/6/2
f 4/4/2 8/130/2 64/5/2
usemtl antenna
f 68/117/9 69/118/9 67/119/9
f 70/120/2 73/121/2 69/118/2
f 74/122/7 71/123/7 73/121/7
f 72/124/4 67/125/4 71/123/4
f 70/126/5 72/127/5 74/128/5
f 68/117/9 70/120/9 69/118/9
f 70/120/2 74/122/2 73/121/2
f 74/122/7 72/124/7 71/123/7
f 72/124/4 68/151/4 67/125/4
f 70/126/5 68/152/5 72/127/5
