# Blender 5.0.1
# www.blender.org
mtllib landing_pad_0.mtl
o landing_pad_0
v -10.000000 -1.000000 10.000000
v -7.660607 1.000000 7.660607
v -10.000000 -1.000000 -10.000000
v -7.660607 1.000000 -7.660607
v 10.000000 -1.000000 10.000000
v 7.660607 1.000000 7.660607
v 10.000000 -1.000000 -10.000000
v 7.660607 1.000000 -7.660607
v 11.200000 4.000000 -11.200000
v 11.200000 -1.000000 -11.200000
v 11.200000 4.000000 -10.800000
v 11.200000 -1.000000 -10.800000
v 10.800000 4.000000 -11.200000
v 10.800000 -1.000000 -11.200000
v 10.800000 4.000000 -10.800000
v 10.800000 -1.000000 -10.800000
v -10.000000 1.000000 10.000000
v -10.000000 1.000000 -10.000000
v 10.000000 1.000000 -10.000000
v 10.000000 1.000000 10.000000
v 11.200000 4.000000 10.800000
v 11.200000 -1.000000 10.800000
v 11.200000 4.000000 11.200000
v 11.200000 -1.000000 11.200000
v 10.800000 4.000000 10.800000
v 10.800000 -1.000000 10.800000
v 10.800000 4.000000 11.200000
v 10.800000 -1.000000 11.200000
v -10.800000 4.000000 10.800000
v -10.800000 -1.000000 10.800000
v -10.800000 4.000000 11.200000
v -10.800000 -1.000000 11.200000
v -11.200000 4.000000 10.800000
v -11.200000 -1.000000 10.800000
v -11.200000 4.000000 11.200000
v -11.200000 -1.000000 11.200000
v -10.800000 4.000000 -11.200000
v -10.800000 -1.000000 -11.200000
v -10.800000 4.000000 -10.800000
v -10.800000 -1.000000 -10.800000
v -11.200000 4.000000 -11.200000
v -11.200000 -1.000000 -11.200000
v -11.200000 4.000000 -10.800000
v -11.200000 -1.000000 -10.800000
vn -1.0000 -0.0000 -0.0000
vn -0.0000 -0.0000 -1.0000
vn 1.0000 -0.0000 -0.0000
vn -0.0000 -0.0000 1.0000
vn -0.0000 1.0000 -0.0000
vt 0.442731 0.791360
vt 0.270556 1.591338
vt 0.270556 0.791360
vt 0.442731 1.591338
vt 0.270556 2.391316
vt 0.442731 2.391316
vt 0.270556 3.191295
vt 0.442731 -0.008619
vt 0.270556 -0.008619
vt 0.425390 0.878906
vt 0.345390 0.958906
vt 0.345390 0.878906
vt 0.097044 0.936159
vt 0.883693 0.149510
vt 0.883693 0.936159
vt 0.160000 1.000000
vt 0.080000 0.000000
vt 0.160000 0.000000
vt 0.240000 1.000000
vt 0.240000 0.000000
vt 0.320000 1.000000
vt 0.320000 0.000000
vt 0.080000 1.000000
vt 0.000000 0.000000
vt 0.184384 -0.001566
vt 0.900003 0.093228
vt 0.089591 0.093228
vt 0.199100 0.002682
vt 0.914719 0.097476
vt 0.104306 0.097476
vt 0.154953 0.002341
vt 0.870572 0.097134
vt 0.060159 0.097134
vt 0.188797 -0.001224
vt 0.904416 0.093570
vt 0.094003 0.093569
vt 0.442731 3.191295
vt 0.425390 0.958906
vt 0.097044 0.149510
vt 0.000000 1.000000
vt 0.805209 -0.001566
vt 0.819925 0.002682
vt 0.775778 0.002341
vt 0.809622 -0.001224
s 0
usemtl concrete
f 17/1/1 3/2/1 1/3/1
f 18/4/2 7/5/2 3/2/2
f 19/6/3 5/7/3 7/5/3
f 20/8/4 1/3/4 5/9/4
f 17/1/1 18/4/1 3/2/1
f 18/4/2 19/6/2 7/5/2
f 19/6/3 20/37/3 5/7/3
f 20/8/4 17/1/4 1/3/4
usemtl asphalt
f 4/13/5 6/14/5 8/15/5
f 2/25/5 18/26/5 17/27/5
f 4/28/5 19/29/5 18/30/5
f 8/31/5 20/32/5 19/33/5
f 6/34/5 17/35/5 20/36/5
f 4/13/5 2/39/5 6/14/5
f 2/25/5 4/41/5 18/26/5
f 4/28/5 8/42/5 19/29/5
f 8/31/5 6/43/5 20/32/5
f 6/34/5 2/44/5 17/35/5
usemtl antenna
f 13/10/5 11/11/5 9/12/5
f 11/16/4 16/17/4 12/18/4
f 9/19/3 12/18/3 10/20/3
f 13/21/2 10/20/2 14/22/2
f 15/23/1 14/24/1 16/17/1
f 23/16/4 28/17/4 24/18/4
f 21/19/3 24/18/3 22/20/3
f 25/21/2 22/20/2 26/22/2
f 27/23/1 26/24/1 28/17/1
f 31/16/4 36/17/4 32/18/4
f 29/19/3 32/18/3 30/20/3
f 33/21/2 30/20/2 34/22/2
f 35/23/1 34/24/1 36/17/1
f 39/16/4 44/17/4 40/18/4
f 37/19/3 40/18/3 38/20/3
f 41/21/2 38/20/2 42/22/2
f 43/23/1 42/24/1 44/17/1
f 13/10/5 15/38/5 11/11/5
f 11/16/4 15/23/4 16/17/4
f 9/19/3 11/16/3 12/18/3
f 13/21/2 9/19/2 10/20/2
f 15/23/1 13/40/1 14/24/1
f 23/16/4 27/23/4 28/17/4
f 21/19/3 23/16/3 24/18/3
f 25/21/2 21/19/2 22/20/2
f 27/23/1 25/40/1 26/24/1
f 31/16/4 35/23/4 36/17/4
f 29/19/3 31/16/3 32/18/3
f 33/21/2 29/19/2 30/20/2
f 35/23/1 33/40/1 34/24/1
f 39/16/4 43/23/4 44/17/4
f 37/19/3 39/16/3 40/18/3
f 41/21/2 37/19/2 38/20/2
f 43/23/1 41/40/1 42/24/1
