# Blender 5.1.2
# www.blender.org
mtllib launch_tower_0.mtl
o launch_tower_0
v -6.000000 0.000000 6.000000
v 4.119053 1.000000 0.702866
v -6.000000 0.000000 -6.000000
v 4.119053 1.000000 -0.702866
v 6.000000 0.000000 6.000000
v 5.761424 1.000000 0.702866
v 6.000000 0.000000 -6.000000
v 5.761424 1.000000 -0.702866
v -6.600000 -2.000000 -6.600000
v -6.600000 -2.000000 6.600000
v 6.600000 -2.000000 -6.600000
v 6.600000 -2.000000 6.600000
v -6.000000 1.000000 6.000000
v -6.000000 1.000000 -6.000000
v 6.000000 1.000000 -6.000000
v 6.000000 1.000000 6.000000
v 4.448837 8.000000 0.493092
v 4.448837 8.000000 -0.493092
v 5.431659 8.000000 -0.493092
v 5.431659 8.000000 0.493092
v 4.448837 16.000000 0.493092
v 4.448837 16.000000 -0.493092
v 5.431659 16.000000 -0.493092
v 5.431659 16.000000 0.493092
v 4.448837 27.247921 0.191925
v 4.448837 27.247921 -0.191925
v 5.431659 24.000000 -0.493092
v 5.431659 24.000000 0.493092
v 4.448837 28.752079 0.191925
v 4.448837 28.752079 -0.191925
v 5.431659 32.000000 -0.493092
v 5.431659 32.000000 0.493092
v 4.681252 40.000000 0.260678
v 4.681252 40.000000 -0.260678
v 5.199244 40.000000 -0.260678
v 5.199244 40.000000 0.260678
v 3.227668 13.450697 0.493092
v 3.227668 13.450697 -0.493092
v 3.227668 15.208912 0.493092
v 3.227668 15.208912 -0.493092
v 4.448837 24.000000 0.493092
v 4.448837 24.000000 -0.493092
v 4.448837 32.000000 0.493092
v 4.448837 32.000000 -0.493092
v 3.431975 27.525236 0.191925
v 3.431975 27.525236 -0.191925
v 3.431975 28.474764 0.191925
v 3.431975 28.474764 -0.191925
v 4.448837 40.000000 0.493092
v 4.448837 40.000000 -0.493092
v 5.431659 40.000000 -0.493092
v 5.431659 40.000000 0.493092
v 4.811999 46.107750 0.129080
v 4.811999 46.107750 -0.129080
v 5.068495 46.107750 -0.129080
v 5.068495 46.107750 0.129080
vn -1.0000 -0.0000 -0.0000
vn -0.0000 -0.0000 -1.0000
vn 1.0000 -0.0000 -0.0000
vn -0.0000 -0.0000 1.0000
vn -0.0000 0.2873 0.9578
vn -0.0000 0.0300 0.9996
vn -0.0000 0.2873 -0.9578
vn -0.9578 0.2873 -0.0000
vn 0.9578 0.2873 -0.0000
vn -0.0000 1.0000 -0.0000
vn -0.0000 0.0300 -0.9996
vn 0.9989 0.0471 -0.0000
vn -0.9989 0.0471 -0.0000
vn -0.9758 -0.2186 -0.0000
vn -0.0000 0.0215 0.9998
vn -0.5437 0.8393 -0.0000
vn -0.2631 -0.9648 -0.0000
vn -0.2631 0.9648 -0.0000
vn -0.0000 0.0215 -0.9998
vn 0.9998 0.0214 -0.0000
vn -0.9998 0.0214 -0.0000
vt 0.045455 0.575758
vt 0.954545 0.500000
vt 0.045455 0.500000
vt -0.012124 0.575758
vt 0.896967 0.500000
vt -0.012124 0.500000
vt 0.954545 0.575758
vt 0.896967 0.575758
vt -0.057579 0.348485
vt 0.942421 0.348485
vt 0.602129 -1.573354
vt 0.467504 -0.855406
vt 0.433680 -1.573354
vt 1.000000 0.348485
vt 0.000000 0.348485
vt 0.754471 0.446753
vt -0.012124 0.954545
vt -0.012124 0.045455
vt 0.754471 0.553247
vt 0.896967 0.954545
vt 0.878893 0.446753
vt 0.878893 0.553247
vt 0.896967 0.045455
vt 0.532550 -0.855406
vt 0.431403 -0.034893
vt 0.431403 -0.855406
vt 0.568306 -0.855406
vt 0.554065 -1.573354
vt 0.409887 -1.573354
vt 0.532550 0.785620
vt 0.532550 -0.034893
vt 0.487357 0.106133
vt 0.512643 0.245894
vt 0.512643 0.106133
vt 0.467504 -0.034893
vt 0.568306 -0.034893
vt 0.568306 0.785620
vt 0.467504 1.606133
vt 0.467504 0.785620
vt 0.431403 0.785620
vt 0.532550 1.606133
vt 0.431403 2.426646
vt 0.431403 1.606133
vt 0.568306 1.606133
vt 0.496382 0.638237
vt 0.470309 0.606780
vt 0.496382 0.599669
vt 0.644063 0.014448
vt 0.399229 0.979846
vt 0.316565 0.014448
vt 0.532550 2.426646
vt 0.467504 2.426646
vt 0.568306 2.426646
vt 0.487357 0.245894
vt 0.512643 0.290977
vt 0.496382 0.311261
vt 0.465070 0.245894
vt 0.496382 0.106133
vt 0.496382 0.512643
vt 0.465070 0.487357
vt 0.496382 0.487357
vt 0.465070 0.290977
vt 0.504921 0.599669
vt 0.487357 0.516389
vt 0.495079 0.599669
vt 0.495079 0.638237
vt 0.512643 0.721517
vt 0.504921 0.638237
vt 0.487357 0.721517
vt 0.512643 0.516389
vt 0.495079 0.606780
vt 0.504921 0.631127
vt 0.504921 0.606780
vt 0.496382 0.495079
vt 0.470309 0.504921
vt 0.496382 0.504921
vt 0.470309 0.631127
vt 0.470309 0.495079
vt 0.502341 0.506684
vt 0.502341 0.493316
vt 0.515623 0.506684
vt 0.515623 0.493316
vt 0.521583 0.512643
vt 0.521583 0.487357
vt 0.399229 0.614090
vt 0.561397 0.573285
vt 0.561397 0.614090
vt 0.561397 0.979846
vt 0.645126 0.014448
vt 0.398703 0.979846
vt 0.315502 0.014448
vt 0.561924 0.979846
vt 0.487357 0.290977
vt 0.465070 0.512643
vt 0.495079 0.631127
vt 0.399229 0.573285
s 0
usemtl concrete_light
f 13/1/1 3/2/1 1/3/1
f 14/4/2 7/5/2 3/6/2
f 15/7/3 5/3/3 7/2/3
f 16/8/4 1/6/4 5/5/4
f 5/5/5 10/9/5 12/10/5
f 3/6/7 11/10/7 9/9/7
f 1/3/8 9/14/8 10/15/8
f 7/2/9 12/15/9 11/14/9
f 2/16/10 14/17/10 13/18/10
f 4/19/10 15/20/10 14/17/10
f 6/21/10 15/20/10 8/22/10
f 2/16/10 16/23/10 6/21/10
f 13/1/1 14/7/1 3/2/1
f 14/4/2 15/8/2 7/5/2
f 15/7/3 16/1/3 5/3/3
f 16/8/4 13/4/4 1/6/4
f 5/5/5 1/6/5 10/9/5
f 3/6/7 7/5/7 11/10/7
f 1/3/8 3/2/8 9/14/8
f 7/2/9 5/3/9 12/15/9
f 2/16/10 4/19/10 14/17/10
f 4/19/10 8/22/10 15/20/10
f 6/21/10 16/23/10 15/20/10
f 2/16/10 13/18/10 16/23/10
usemtl metal_wear_mid
f 6/11/6 17/12/6 2/13/6
f 19/24/3 24/25/3 20/26/3
f 8/11/11 18/12/11 19/27/11
f 8/28/12 20/26/12 6/29/12
f 2/29/13 18/24/13 4/28/13
f 21/25/1 42/30/1 22/31/1
f 17/32/14 38/33/14 18/34/14
f 20/27/4 21/35/4 17/12/4
f 18/12/2 23/36/2 19/27/2
f 28/37/4 43/38/4 41/39/4
f 24/36/4 41/39/4 21/35/4
f 22/35/2 27/37/2 23/36/2
f 23/31/3 28/40/3 24/25/3
f 31/41/3 52/42/3 32/43/3
f 42/39/2 31/44/2 27/37/2
f 27/30/3 32/43/3 28/40/3
f 29/45/4 45/46/4 25/47/4
f 43/43/1 50/51/1 44/41/1
f 32/44/4 49/52/4 43/38/4
f 44/38/2 51/53/2 31/44/2
f 37/54/1 40/55/1 38/33/1
f 21/56/4 37/57/4 17/58/4
f 22/59/16 39/60/16 21/61/16
f 22/56/2 38/57/2 40/62/2
f 26/63/1 41/64/1 25/65/1
f 29/66/1 44/67/1 30/68/1
f 25/65/1 43/69/1 29/66/1
f 30/68/1 42/70/1 26/63/1
f 45/71/1 48/72/1 46/73/1
f 25/74/17 46/75/17 26/76/17
f 26/47/2 48/77/2 30/45/2
f 30/76/18 47/78/18 29/74/18
f 34/79/10 49/61/10 33/80/10
f 35/81/10 50/59/10 34/79/10
f 36/82/10 51/83/10 35/81/10
f 33/80/10 52/84/10 36/82/10
f 6/11/6 20/27/6 17/12/6
f 19/24/3 23/31/3 24/25/3
f 8/11/11 4/13/11 18/12/11
f 8/28/12 19/24/12 20/26/12
f 2/29/13 17/26/13 18/24/13
f 21/25/1 41/40/1 42/30/1
f 17/32/14 37/54/14 38/33/14
f 20/27/4 24/36/4 21/35/4
f 18/12/2 22/35/2 23/36/2
f 28/37/4 32/44/4 43/38/4
f 24/36/4 28/37/4 41/39/4
f 22/35/2 42/39/2 27/37/2
f 23/31/3 27/30/3 28/40/3
f 31/41/3 51/51/3 52/42/3
f 42/39/2 44/38/2 31/44/2
f 27/30/3 31/41/3 32/43/3
f 29/45/4 47/77/4 45/46/4
f 43/43/1 49/42/1 50/51/1
f 32/44/4 52/53/4 49/52/4
f 44/38/2 50/52/2 51/53/2
f 37/54/1 39/93/1 40/55/1
f 21/56/4 39/62/4 37/57/4
f 22/59/16 40/94/16 39/60/16
f 22/56/2 18/58/2 38/57/2
f 26/63/1 42/70/1 41/64/1
f 29/66/1 43/69/1 44/67/1
f 25/65/1 41/64/1 43/69/1
f 30/68/1 44/67/1 42/70/1
f 45/71/1 47/95/1 48/72/1
f 25/74/17 45/78/17 46/75/17
f 26/47/2 46/46/2 48/77/2
f 30/76/18 48/75/18 47/78/18
f 34/79/10 50/59/10 49/61/10
f 35/81/10 51/83/10 50/59/10
f 36/82/10 52/84/10 51/83/10
f 33/80/10 49/61/10 52/84/10
usemtl antenna
f 36/48/15 53/49/15 33/50/15
f 54/85/10 56/86/10 55/87/10
f 34/50/19 55/88/19 35/48/19
f 35/89/20 56/90/20 36/91/20
f 33/91/21 54/92/21 34/89/21
f 36/48/15 56/88/15 53/49/15
f 54/85/10 53/96/10 56/86/10
f 34/50/19 54/49/19 55/88/19
f 35/89/20 55/92/20 56/90/20
f 33/91/21 53/90/21 54/92/21
