# Blender 5.0.1
# www.blender.org
mtllib megabuilding_0.mtl
o megabuilding_0
v -25.000000 16.381107 25.000000
v -25.000000 166.381104 25.000000
v -25.000000 16.381107 -25.000000
v -25.000000 166.381104 -25.000000
v 25.000000 16.381107 25.000000
v 25.000000 166.381104 25.000000
v 25.000000 16.381107 -25.000000
v 25.000000 166.381104 -25.000000
v 0.000000 16.381107 -25.000000
v 0.000000 166.381104 -25.000000
v 0.000000 16.381107 25.000000
v 0.000000 166.381104 25.000000
v -25.000000 16.381107 0.000000
v -25.000000 166.381104 0.000000
v 25.000000 16.381107 0.000000
v 25.000000 166.381104 0.000000
v -25.000000 16.381107 12.500000
v 25.000000 166.381104 12.500000
v -25.000000 166.381104 12.500000
v 25.000000 16.381107 12.500000
v -25.000000 166.381104 -12.500000
v 25.000000 16.381107 -12.500000
v -25.000000 16.381107 -12.500000
v 25.000000 166.381104 -12.500000
v -12.500000 16.381107 -25.000000
v -12.500000 166.381104 25.000000
v -12.500000 166.381104 -25.000000
v -12.500000 16.381107 25.000000
v 12.500000 166.381104 -25.000000
v 12.500000 16.381107 25.000000
v 12.500000 16.381107 -25.000000
v 12.500000 166.381104 25.000000
v 18.750000 166.381104 -25.000000
v 18.750000 16.381107 25.000000
v 18.750000 16.381107 -25.000000
v 18.750000 166.381104 25.000000
v -18.750000 16.381107 -25.000000
v -18.750000 166.381104 25.000000
v -18.750000 166.381104 -25.000000
v -18.750000 16.381107 25.000000
v -25.000000 16.381107 18.750000
v 25.000000 166.381104 18.750000
v -25.000000 166.381104 18.750000
v 25.000000 16.381107 18.750000
v -25.000000 166.381104 -18.750000
v 25.000000 16.381107 -18.750000
v -25.000000 16.381107 -18.750000
v 25.000000 166.381104 -18.750000
v 25.000000 166.381104 -25.000000
v -25.000000 166.381104 -25.000000
v 25.000000 166.381104 25.000000
v -25.000000 166.381104 25.000000
v -18.750000 158.866928 -30.000002
v -12.500000 158.866928 -30.000002
v -18.750000 55.189575 30.000002
v -12.500000 55.189575 30.000002
v -12.500000 55.189575 -30.000002
v -12.500000 158.866928 30.000002
v 18.750000 55.189575 -30.000002
v 12.500000 55.189575 -30.000002
v 18.750000 158.866928 30.000002
v 12.500000 158.866928 30.000002
v 12.500000 55.189575 30.000002
v 12.500000 158.866928 -30.000002
v 18.750000 158.866928 -30.000002
v 18.750000 55.189575 30.000002
v -18.750000 55.189575 -30.000002
v -18.750000 158.866928 30.000002
v -30.000002 158.866928 18.750000
v -30.000002 158.866928 12.500000
v 30.000002 55.189575 18.750000
v 30.000002 55.189575 12.500000
v -30.000002 55.189575 12.500000
v 30.000002 158.866928 12.500000
v -30.000002 55.189575 -18.750000
v -30.000002 55.189575 -12.500000
v 30.000002 158.866928 -18.750000
v 30.000002 158.866928 -12.500000
v 30.000002 55.189575 -12.500000
v -30.000002 158.866928 -12.500000
v -30.000002 55.189575 18.750000
v 30.000002 158.866928 18.750000
v -30.000002 158.866928 -18.750000
v 30.000002 55.189575 -18.750000
v -25.000000 16.381107 25.000000
v 25.000000 16.381107 25.000000
v -25.000000 16.381107 -25.000000
v 25.000000 16.381107 -25.000000
v -12.000000 12.410319 -17.669582
v -12.000000 12.410319 17.669582
v 12.000000 12.410319 17.669582
v 12.000000 12.410319 -17.669582
v -12.000000 2.000000 -17.669582
v -12.000000 2.000000 17.669582
v 12.000000 2.000000 17.669582
v 12.000000 2.000000 -17.669582
v -22.508047 -9.120392 -22.508047
v -22.508047 -9.120392 22.508047
v 22.508047 -9.120392 22.508047
v 22.508047 -9.120392 -22.508047
v 22.284891 12.246731 -13.535205
v -22.284891 12.246731 -13.535205
v 22.284891 4.134377 -13.535205
v -22.284891 4.134377 -13.535205
v -22.284891 12.246731 13.535205
v 22.284891 12.246731 13.535205
v -22.284891 4.134377 13.535205
v 22.284891 4.134377 13.535205
v -17.669582 -4.000000 34.650864
v 17.669582 -4.000000 34.650864
v 17.669582 -4.000000 -34.650864
v -17.669582 -4.000000 -34.650864
v 12.000000 -2.000000 -34.650864
v -12.000000 -2.000000 -34.650864
v -12.000000 -2.000000 34.650864
v 12.000000 -2.000000 34.650864
v -12.000000 12.410319 -19.519899
v -12.000000 12.410319 19.519899
v 12.000000 12.410319 19.519899
v 12.000000 12.410319 -19.519899
v -12.000000 1.257151 -19.519899
v -12.000000 1.257151 19.519899
v 12.000000 1.257151 19.519899
v 12.000000 1.257151 -19.519899
v -10.314179 11.297575 -19.418390
v -10.314179 11.297575 19.418390
v 10.314179 11.297575 19.418390
v 10.314179 11.297575 -19.418390
v -10.314179 1.189049 -19.418390
v -10.314179 1.189049 19.418390
v 10.314179 1.189049 19.418390
v 10.314179 1.189049 -19.418390
v -10.314179 11.297575 -17.831894
v -10.314179 11.297575 17.831894
v 10.314179 11.297575 17.831894
v 10.314179 11.297575 -17.831894
v -10.314179 1.995083 -17.654968
v -10.314179 1.995083 17.654968
v 10.314179 1.995083 17.654968
v 10.314179 1.995083 -17.654968
v -17.669582 16.381107 -17.669582
v -17.669582 16.381107 17.669582
v 17.669582 16.381107 17.669582
v 17.669582 16.381107 -17.669582
v -17.669582 0.000000 -17.669582
v -17.669582 0.000000 17.669582
v 17.669582 0.000000 17.669582
v 17.669582 0.000000 -17.669582
v 23.272543 168.897537 -23.272543
v -23.272543 168.897537 -23.272543
v 23.272543 168.897537 23.272543
v -23.272543 168.897537 23.272543
v 25.000000 168.897537 -25.000000
v -25.000000 168.897537 -25.000000
v 25.000000 168.897537 25.000000
v -25.000000 168.897537 25.000000
v 23.272543 166.880493 -23.272543
v -23.272543 166.880493 -23.272543
v 23.272543 166.880493 23.272543
v -23.272543 166.880493 23.272543
v 17.325823 166.884109 7.940550
v 17.325823 170.961197 7.940550
v 17.325823 166.884109 -2.038528
v 17.325823 170.961197 -2.038528
v 21.402880 166.884109 7.940550
v 21.402880 170.961197 7.940550
v 21.402880 166.884109 -2.038528
v 21.402880 170.961197 -2.038528
vn -1.0000 -0.0000 -0.0000
vn -0.0000 -0.0000 -1.0000
vn 1.0000 -0.0000 -0.0000
vn -0.0000 -0.0000 1.0000
vn -0.9918 -0.1278 -0.0000
vn 0.8325 0.5540 -0.0000
vn 0.9918 -0.1278 -0.0000
vn -0.0000 -0.1278 -0.9918
vn -0.0000 0.5540 0.8325
vn -0.0000 0.5540 -0.8325
vn -0.0000 -0.1278 0.9918
vn -0.8325 0.5540 -0.0000
vn -0.0000 -1.0000 -0.0000
vn 0.8359 -0.5489 -0.0000
vn 0.8834 0.4686 -0.0000
vn -0.8834 0.4686 -0.0000
vn -0.3248 0.9206 0.2169
vn -0.3248 0.9206 -0.2169
vn -0.0000 0.9734 0.2293
vn 0.3248 0.9206 -0.2169
vn 0.3248 0.9206 0.2169
vn -0.0000 0.9734 -0.2293
vn -0.8488 0.5146 0.1212
vn -0.8488 0.5146 -0.1212
vn 0.8488 0.5146 -0.1212
vn 0.8488 0.5146 0.1212
vn -0.0000 1.0000 -0.0000
vn -0.0000 -0.0909 0.9959
vn -0.0601 -0.0000 -0.9982
vn -0.0601 -0.0000 0.9982
vn 0.0601 -0.0000 -0.9982
vn -0.0000 -0.0909 -0.9959
vn 0.0601 -0.0000 0.9982
vn -0.6672 -0.7448 -0.0000
vn 0.6672 -0.7448 -0.0000
vn 0.6672 -0.0000 0.7448
vn 0.6672 -0.0000 -0.7448
vn -0.6672 -0.0000 -0.7448
vn -0.6672 -0.0000 0.7448
vn -0.8359 -0.5489 -0.0000
vn 0.3929 -0.8314 0.3929
vn 0.3929 -0.8314 -0.3929
vn -0.3929 -0.8314 -0.3929
vn -0.3929 -0.8314 0.3929
vn -0.0000 -0.0908 0.9959
vn -0.0000 -0.0908 -0.9959
vt 0.625000 0.218750
vt 0.375000 0.250000
vt 0.375000 0.218750
vt 0.625000 0.468750
vt 0.375000 0.500000
vt 0.375000 0.468750
vt 0.625000 0.718750
vt 0.375000 0.750000
vt 0.375000 0.718750
vt 0.625000 0.968750
vt 0.375000 1.000000
vt 0.375000 0.968750
vt 0.625000 0.812500
vt 0.375000 0.875000
vt 0.375000 0.812500
vt 0.625000 0.312500
vt 0.375000 0.375000
vt 0.375000 0.312500
vt 0.625000 0.562500
vt 0.375000 0.625000
vt 0.375000 0.562500
vt 0.625000 0.062500
vt 0.375000 0.125000
vt 0.375000 0.062500
vt 0.125000 0.718750
vt 0.125000 0.687500
vt 0.625000 0.625000
vt 0.375000 0.687500
vt 0.625000 0.531250
vt 0.625000 0.125000
vt 0.375000 0.187500
vt 0.625000 0.875000
vt 0.375000 0.937500
vt 0.625000 0.375000
vt 0.375000 0.437500
vt 0.625000 0.750000
vt 0.375000 0.781250
vt 0.625000 0.281250
vt 0.375000 0.281250
vt 0.625000 0.250000
vt 0.625000 0.937500
vt 0.625000 0.000000
vt 0.375000 0.031250
vt 0.375000 0.000000
vt 0.625000 0.031250
vt 0.625000 0.500000
vt 0.375000 0.531250
vt 0.625000 0.781250
vt 0.625000 0.437500
vt 0.312500 0.500000
vt 0.343750 0.500000
vt 0.687500 0.750000
vt 0.656250 0.750000
vt 0.156250 0.500000
vt 0.187500 0.500000
vt 0.843750 0.750000
vt 0.812500 0.750000
vt 0.812500 0.500000
vt 0.843750 0.500000
vt 0.187500 0.750000
vt 0.156250 0.750000
vt 0.656250 0.500000
vt 0.687500 0.500000
vt 0.343750 0.750000
vt 0.312500 0.750000
vt 0.625000 0.687500
vt 0.625000 0.187500
vt 0.875000 0.687500
vt 0.875000 0.718750
vt 0.875000 0.531250
vt 0.875000 0.562500
vt 0.125000 0.562500
vt 0.125000 0.531250
vt 0.853392 0.229296
vt 0.853392 0.770704
vt 0.853392 0.770704
vt 0.853392 0.146608
vt 0.000000 0.000000
vt 0.146608 0.146608
vt 0.146608 0.853392
vt 1.000000 1.000000
vt 0.853392 0.853392
vt 0.146608 0.770704
vt 0.146608 0.229296
vt 0.209674 0.853392
vt 0.790326 0.853392
vt 0.210387 0.146608
vt 0.790326 0.853392
vt 0.789613 0.146608
vt 0.210387 0.146608
vt 0.209674 0.853392
vt 0.146608 0.770704
vt 0.853392 0.229296
vt 1.000000 0.000000
vt 0.034549 0.034549
vt 0.034549 0.965451
vt 0.000000 1.000000
vt 0.965451 0.965451
vt 0.965451 0.034549
vt 0.875000 0.500000
vt 0.625000 1.000000
vt 0.875000 0.750000
s 0
f 45/1/1 3/2/1 47/3/1
f 33/4/2 7/5/2 35/6/2
f 42/7/3 5/8/3 44/9/3
f 38/10/4 1/11/4 40/12/4
f 32/13/4 11/14/4 30/15/4
f 27/16/2 9/17/2 25/18/2
f 24/19/3 15/20/3 22/21/3
f 19/22/1 13/23/1 17/24/1
f 41/25/5 73/26/5 17/26/5
f 16/27/3 20/28/3 15/20/3
f 24/19/6 77/29/6 48/29/6
f 14/30/1 23/31/1 13/23/1
f 32/13/1 63/15/1 62/13/1
f 12/32/4 28/33/4 11/14/4
f 38/10/1 55/12/1 68/10/1
f 10/34/2 31/35/2 9/17/2
f 6/36/4 34/37/4 5/8/4
f 39/38/1 67/39/1 37/39/1
f 4/40/2 37/39/2 3/2/2
f 26/41/3 56/33/3 28/33/3
f 2/42/1 41/43/1 1/44/1
f 43/45/4 81/43/4 41/43/4
f 8/46/3 46/47/3 7/5/3
f 46/47/7 79/21/7 22/21/7
f 53/38/2 57/18/2 67/39/2
f 61/48/4 63/15/4 66/37/4
f 64/49/2 59/6/2 60/35/2
f 58/41/4 55/12/4 56/33/4
f 36/48/3 66/37/3 34/37/3
f 33/4/3 59/6/3 65/4/3
f 31/50/8 59/51/8 35/51/8
f 32/52/9 61/53/9 36/53/9
f 37/54/8 57/55/8 25/55/8
f 27/16/3 57/18/3 54/16/3
f 38/56/9 58/57/9 26/57/9
f 27/58/10 53/59/10 39/59/10
f 29/49/1 60/35/1 31/35/1
f 28/60/11 55/61/11 40/61/11
f 33/62/10 64/63/10 29/63/10
f 34/64/11 63/65/11 30/65/11
f 69/45/1 73/24/1 81/43/1
f 77/29/3 79/21/3 84/47/3
f 74/66/3 71/9/3 72/28/3
f 80/67/1 75/3/1 76/31/1
f 21/67/4 76/31/4 23/31/4
f 42/7/6 74/66/6 18/66/6
f 48/29/2 84/47/2 46/47/2
f 24/19/4 79/21/4 78/19/4
f 45/1/2 75/3/2 83/1/2
f 18/66/2 72/28/2 20/28/2
f 19/68/12 69/69/12 43/69/12
f 20/28/7 71/9/7 44/9/7
f 42/7/4 71/9/4 82/7/4
f 19/22/2 73/24/2 70/22/2
f 45/70/12 80/71/12 21/71/12
f 23/72/5 75/73/5 47/73/5
f 106/74/3 103/75/3 101/76/3
f 143/77/13 85/78/13 142/79/13
f 101/76/14 86/78/14 106/74/14
f 141/80/13 88/81/13 144/82/13
f 102/83/1 107/84/1 105/84/1
f 147/77/15 100/82/15 148/82/15
f 145/80/16 98/79/16 146/79/16
f 89/85/2 144/82/2 92/86/2
f 146/79/17 115/87/17 94/87/17
f 92/86/2 148/82/2 96/88/2
f 89/85/2 145/80/2 141/80/2
f 91/89/4 142/79/4 90/90/4
f 145/80/18 114/91/18 112/80/18
f 91/89/4 147/77/4 143/77/4
f 90/90/4 146/79/4 94/87/4
f 94/87/19 116/89/19 95/89/19
f 148/82/20 113/88/20 96/88/20
f 147/77/21 116/89/21 110/77/21
f 96/88/22 114/91/22 93/91/22
f 146/79/23 98/79/23 109/79/23
f 145/80/24 112/80/24 97/80/24
f 148/82/25 100/82/25 111/82/25
f 99/77/26 147/77/26 110/77/26
f 119/89/3 95/89/3 91/89/3
f 118/90/27 91/89/27 90/90/27
f 96/88/3 120/86/3 92/86/3
f 94/87/1 118/90/1 90/90/1
f 120/86/27 89/85/27 92/86/27
f 117/85/1 93/91/1 89/85/1
f 126/90/28 119/89/28 118/90/28
f 124/88/29 128/86/29 120/86/29
f 127/89/30 123/89/30 119/89/30
f 125/85/31 121/91/31 117/85/31
f 128/86/32 117/85/32 120/86/32
f 122/87/33 126/90/33 118/90/33
f 136/86/13 125/85/13 128/86/13
f 138/87/3 126/90/3 130/87/3
f 134/90/13 127/89/13 126/90/13
f 140/88/1 128/86/1 132/88/1
f 127/89/1 139/89/1 131/89/1
f 125/85/3 137/91/3 129/91/3
f 134/90/3 137/91/3 133/85/3
f 135/89/13 133/85/13 136/86/13
f 139/89/1 136/86/1 140/88/1
f 139/89/27 137/91/27 138/87/27
f 104/92/34 146/79/34 107/84/34
f 108/93/35 148/82/35 103/75/35
f 106/74/36 147/77/36 108/93/36
f 103/75/37 144/82/37 101/76/37
f 102/83/38 145/80/38 104/92/38
f 107/84/39 142/79/39 105/84/39
f 87/78/40 105/84/40 85/78/40
f 142/79/41 85/78/41 105/84/41
f 141/80/42 102/83/42 87/78/42
f 144/82/43 88/78/43 101/76/43
f 86/94/44 143/77/44 106/74/44
f 152/95/3 158/96/3 150/96/3
f 51/94/4 156/78/4 52/78/4
f 50/97/2 153/81/2 49/81/2
f 52/78/1 154/97/1 50/97/1
f 49/81/3 155/94/3 51/94/3
f 149/98/27 154/97/27 150/96/27
f 151/99/27 153/81/27 149/98/27
f 152/95/27 155/94/27 151/99/27
f 150/96/27 156/78/27 152/95/27
f 159/99/27 158/96/27 160/95/27
f 149/98/1 159/99/1 151/99/1
f 151/99/2 160/95/2 152/95/2
f 150/96/4 157/98/4 149/98/4
f 162/42/1 163/2/1 161/44/1
f 164/40/2 167/5/2 163/2/2
f 168/46/3 165/8/3 167/5/3
f 166/36/4 161/11/4 165/8/4
f 164/100/27 166/36/27 168/46/27
f 45/1/1 4/40/1 3/2/1
f 33/4/2 8/46/2 7/5/2
f 42/7/3 6/36/3 5/8/3
f 38/10/4 2/101/4 1/11/4
f 32/13/4 12/32/4 11/14/4
f 27/16/2 10/34/2 9/17/2
f 24/19/3 16/27/3 15/20/3
f 19/22/1 14/30/1 13/23/1
f 41/25/5 81/25/5 73/26/5
f 16/27/3 18/66/3 20/28/3
f 24/19/6 78/19/6 77/29/6
f 14/30/1 21/67/1 23/31/1
f 32/13/1 30/15/1 63/15/1
f 12/32/4 26/41/4 28/33/4
f 38/10/1 40/12/1 55/12/1
f 10/34/2 29/49/2 31/35/2
f 6/36/4 36/48/4 34/37/4
f 39/38/1 53/38/1 67/39/1
f 4/40/2 39/38/2 37/39/2
f 26/41/3 58/41/3 56/33/3
f 2/42/1 43/45/1 41/43/1
f 43/45/4 69/45/4 81/43/4
f 8/46/3 48/29/3 46/47/3
f 46/47/7 84/47/7 79/21/7
f 53/38/2 54/16/2 57/18/2
f 61/48/4 62/13/4 63/15/4
f 64/49/2 65/4/2 59/6/2
f 58/41/4 68/10/4 55/12/4
f 36/48/3 61/48/3 66/37/3
f 33/4/3 35/6/3 59/6/3
f 31/50/8 60/50/8 59/51/8
f 32/52/9 62/52/9 61/53/9
f 37/54/8 67/54/8 57/55/8
f 27/16/3 25/18/3 57/18/3
f 38/56/9 68/56/9 58/57/9
f 27/58/10 54/58/10 53/59/10
f 29/49/1 64/49/1 60/35/1
f 28/60/11 56/60/11 55/61/11
f 33/62/10 65/62/10 64/63/10
f 34/64/11 66/64/11 63/65/11
f 69/45/1 70/22/1 73/24/1
f 77/29/3 78/19/3 79/21/3
f 74/66/3 82/7/3 71/9/3
f 80/67/1 83/1/1 75/3/1
f 21/67/4 80/67/4 76/31/4
f 42/7/6 82/7/6 74/66/6
f 48/29/2 77/29/2 84/47/2
f 24/19/4 22/21/4 79/21/4
f 45/1/2 47/3/2 75/3/2
f 18/66/2 74/66/2 72/28/2
f 19/68/12 70/68/12 69/69/12
f 20/28/7 72/28/7 71/9/7
f 42/7/4 44/9/4 71/9/4
f 19/22/2 17/24/2 73/24/2
f 45/70/12 83/70/12 80/71/12
f 23/72/5 76/72/5 75/73/5
f 106/74/3 108/93/3 103/75/3
f 143/77/13 86/94/13 85/78/13
f 101/76/14 88/78/14 86/78/14
f 141/80/13 87/97/13 88/81/13
f 102/83/1 104/92/1 107/84/1
f 147/77/15 99/77/15 100/82/15
f 145/80/16 97/80/16 98/79/16
f 89/85/2 141/80/2 144/82/2
f 146/79/17 109/79/17 115/87/17
f 92/86/2 144/82/2 148/82/2
f 89/85/2 93/91/2 145/80/2
f 91/89/4 143/77/4 142/79/4
f 145/80/18 93/91/18 114/91/18
f 91/89/4 95/89/4 147/77/4
f 90/90/4 142/79/4 146/79/4
f 94/87/19 115/87/19 116/89/19
f 148/82/20 111/82/20 113/88/20
f 147/77/21 95/89/21 116/89/21
f 96/88/22 113/88/22 114/91/22
f 119/89/3 123/89/3 95/89/3
f 118/90/27 119/89/27 91/89/27
f 96/88/3 124/88/3 120/86/3
f 94/87/1 122/87/1 118/90/1
f 120/86/27 117/85/27 89/85/27
f 117/85/1 121/91/1 93/91/1
f 126/90/45 127/89/45 119/89/45
f 124/88/29 132/88/29 128/86/29
f 127/89/30 131/89/30 123/89/30
f 125/85/31 129/91/31 121/91/31
f 128/86/46 125/85/46 117/85/46
f 122/87/33 130/87/33 126/90/33
f 136/86/13 133/85/13 125/85/13
f 138/87/3 134/90/3 126/90/3
f 134/90/13 135/89/13 127/89/13
f 140/88/1 136/86/1 128/86/1
f 127/89/1 135/89/1 139/89/1
f 125/85/3 133/85/3 137/91/3
f 134/90/3 138/87/3 137/91/3
f 135/89/13 134/90/13 133/85/13
f 139/89/1 135/89/1 136/86/1
f 139/89/27 140/88/27 137/91/27
f 104/92/34 145/80/34 146/79/34
f 108/93/35 147/77/35 148/82/35
f 106/74/36 143/77/36 147/77/36
f 103/75/37 148/82/37 144/82/37
f 102/83/38 141/80/38 145/80/38
f 107/84/39 146/79/39 142/79/39
f 87/78/40 102/83/40 105/84/40
f 152/95/3 160/95/3 158/96/3
f 51/94/4 155/94/4 156/78/4
f 50/97/2 154/97/2 153/81/2
f 52/78/1 156/78/1 154/97/1
f 49/81/3 153/81/3 155/94/3
f 149/98/27 153/81/27 154/97/27
f 151/99/27 155/94/27 153/81/27
f 152/95/27 156/78/27 155/94/27
f 150/96/27 154/97/27 156/78/27
f 159/99/27 157/98/27 158/96/27
f 149/98/1 157/98/1 159/99/1
f 151/99/2 159/99/2 160/95/2
f 150/96/4 158/96/4 157/98/4
f 162/42/1 164/40/1 163/2/1
f 164/40/2 168/46/2 167/5/2
f 168/46/3 166/36/3 165/8/3
f 166/36/4 162/101/4 161/11/4
f 164/100/27 162/102/27 166/36/27
