# Blender 5.0.1
# www.blender.org
mtllib pebble_group_3.mtl
o pebble_group_3
v 3.672799 0.000000 4.618204
v 3.065080 0.000000 4.784084
v 3.876281 0.000000 5.104138
v 3.378955 0.000000 4.972050
v 3.498869 0.078860 4.944111
v 5.034390 0.000000 10.708513
v 4.558299 0.000000 10.889730
v 5.193799 0.000000 11.239374
v 4.804190 0.000000 11.095075
v 4.898132 0.122159 11.064552
v -3.886575 0.000000 6.934819
v -4.360714 0.000000 6.873207
v -3.727818 0.000000 7.143379
v -4.157974 0.000000 7.143379
v -4.022274 0.170735 7.008293
v 2.528641 0.000000 -1.233072
v 2.217659 0.000000 -1.233072
v 2.528641 0.000000 -1.100068
v 2.217659 0.000000 -1.100068
v 2.373150 0.151040 -1.166570
v 8.588384 0.000000 5.220729
v 8.450326 0.000000 5.220729
v 8.588384 0.000000 5.423068
v 8.450326 0.000000 5.423068
v 8.519355 0.074745 5.321898
v 8.297688 0.000000 -1.492733
v 7.865652 0.000000 -1.322516
v 8.085072 0.000000 -1.146852
v 7.653036 0.000000 -0.976635
v 7.975362 0.168963 -1.234684
v 10.152935 0.000000 -6.400053
v 9.797728 0.000000 -6.249550
v 9.978128 0.000000 -6.094231
v 9.622921 0.000000 -5.943727
v 9.887928 0.099207 -6.171890
v 2.152598 0.000000 11.852741
v 1.551799 0.000000 12.028111
v 2.353764 0.000000 12.366477
v 1.862100 0.000000 12.226831
v 1.980649 0.076401 12.197294
v 7.693859 0.000000 -3.492919
v 7.153988 0.000000 -3.336575
v 7.874623 0.000000 -3.034920
v 7.432820 0.000000 -3.159415
v 7.539347 0.072379 -3.185748
v -2.812801 0.000000 6.872442
v -3.117636 0.000000 6.872442
v -2.812801 0.000000 7.165174
v -3.117635 0.000000 7.165175
v -2.965218 0.177827 7.018808
v 3.169478 0.000000 0.365001
v 2.972009 0.000000 0.605589
v 3.072299 0.000000 0.853876
v 2.874830 0.000000 1.094464
v 3.022154 0.166215 0.729733
v 7.114391 0.000000 1.248787
v 6.777217 0.000000 1.489129
v 6.948459 0.000000 1.737162
v 6.611285 0.000000 1.977505
v 6.862838 0.092210 1.613146
v -3.940659 0.000000 12.225794
v -4.392929 0.000000 12.160517
v -3.789225 0.000000 12.446760
v -4.199539 0.000000 12.446760
v -4.070099 0.084479 12.303638
v -9.043365 0.000000 10.963661
v -9.431550 0.000000 11.110435
v -8.913389 0.000000 11.393622
v -9.231060 0.000000 11.276750
v -9.154464 0.062587 11.252028
v 11.727711 0.000000 -7.744170
v 11.407927 0.000000 -7.744170
v 11.727711 0.000000 -7.439095
v 11.407927 0.000000 -7.439095
v 11.567819 0.101800 -7.591633
v 1.214460 0.000000 7.983124
v 0.790375 0.000000 8.066149
v 1.356457 0.000000 8.226339
v 1.009407 0.000000 8.160228
v 1.093086 0.117051 8.146244
v -1.401114 0.000000 -0.420754
v -1.980404 0.000000 -0.467855
v -1.207151 0.000000 -0.261314
v -1.732701 0.000000 -0.261314
v -1.566908 0.094819 -0.364585
v -9.434731 0.000000 3.067743
v -9.726418 0.000000 3.067743
v -9.434731 0.000000 3.204280
v -9.726418 0.000000 3.204280
v -9.580575 0.150038 3.136011
v -8.328938 0.000000 -12.095811
v -8.563713 0.000000 -11.919484
v -8.250328 0.000000 -11.579274
v -8.442456 0.000000 -11.719681
v -8.396131 0.065901 -11.749379
v 0.566736 0.000000 -4.361261
v 0.139726 0.000000 -4.151137
v 0.356593 0.000000 -3.934288
v -0.070417 0.000000 -3.724163
v 0.248159 0.145830 -4.042712
v 7.916853 0.000000 -10.930623
v 7.678956 0.000000 -10.998315
v 7.996508 0.000000 -10.701484
v 7.780680 0.000000 -10.701484
v 7.848766 0.169577 -10.849899
v -1.143818 0.000000 -10.380002
v -1.289829 0.000000 -10.380002
v -1.143818 0.000000 -10.211947
v -1.289829 0.000000 -10.211947
v -1.216824 0.143896 -10.295975
v 1.884299 0.000000 -3.330127
v 1.554726 0.000000 -3.392538
v 1.994650 0.000000 -3.118860
v 1.695651 0.000000 -3.118860
v 1.789975 0.126362 -3.255699
v -1.686071 0.000000 -0.952689
v -2.246707 0.000000 -0.761897
v -1.498354 0.000000 -0.393777
v -1.957150 0.000000 -0.545702
v -1.846526 0.116555 -0.577837
v -4.737200 0.000000 3.554621
v -5.083762 0.000000 3.752470
v -4.907752 0.000000 3.956651
v -5.254314 0.000000 4.154500
v -4.995757 0.094364 3.854561
v -2.075952 0.000000 -1.901122
v -2.703471 0.000000 -1.933896
v -1.865840 0.000000 -1.790178
v -2.435146 0.000000 -1.790178
v -2.255549 0.185290 -1.862037
v -11.552634 0.000000 -9.609753
v -11.828074 0.000000 -9.433672
v -11.688186 0.000000 -9.251957
v -11.963626 0.000000 -9.075876
v -11.758130 0.101110 -9.342814
v -0.285005 0.000000 -9.726924
v -0.741792 0.000000 -9.808578
v -0.132059 0.000000 -9.450518
v -0.546471 0.000000 -9.450518
v -0.415738 0.069280 -9.629548
v -2.902415 0.000000 -3.722104
v -3.273775 0.000000 -3.576289
v -2.778073 0.000000 -3.294949
v -3.081975 0.000000 -3.411059
v -3.008699 0.060196 -3.435619
v -11.155156 0.000000 1.551892
v -11.718245 0.000000 1.646618
v -10.966617 0.000000 1.829386
v -11.427421 0.000000 1.753957
v -11.316313 0.135734 1.738002
v -2.872969 0.000000 -9.888947
v -3.224080 0.000000 -9.964375
v -2.755406 0.000000 -9.633616
v -3.073946 0.000000 -9.633616
v -2.973457 0.172933 -9.798996
v 9.585642 0.000000 -9.894066
v 9.103279 0.000000 -9.797596
v 9.747151 0.000000 -9.611464
v 9.352409 0.000000 -9.688281
v 9.447589 0.114801 -9.704530
vn -0.0742 0.9595 -0.2718
vn 0.2449 0.9641 -0.1026
vn -0.2071 0.5911 0.7796
vn -0.3482 0.7354 0.5814
vn -0.1404 0.9188 -0.3690
vn 0.4449 0.8856 -0.1336
vn -0.3105 0.4482 0.8383
vn -0.5289 0.5650 0.6333
vn 0.1139 0.4677 -0.8765
vn 0.5935 0.6661 -0.4518
vn -0.0000 0.6205 0.7842
vn -0.5352 0.7431 0.4016
vn -0.0000 0.4030 -0.9152
vn 0.6968 0.7173 -0.0000
vn -0.0000 0.4030 0.9152
vn -0.6968 0.7173 -0.0000
vn -0.0000 0.8043 -0.5942
vn 0.7346 0.6785 -0.0000
vn -0.0000 0.8043 0.5942
vn -0.7346 0.6785 -0.0000
vn -0.2972 0.5852 -0.7545
vn 0.6570 0.6366 0.4039
vn 0.2972 0.5852 0.7545
vn -0.6570 0.6366 -0.4039
vn -0.2657 0.7323 -0.6270
vn 0.5619 0.7623 0.3212
vn 0.2657 0.7323 0.6270
vn -0.5619 0.7623 -0.3212
vn -0.0731 0.9653 -0.2506
vn 0.2405 0.9661 -0.0942
vn -0.2138 0.6227 0.7527
vn -0.3517 0.7581 0.5492
vn -0.0768 0.9612 -0.2651
vn 0.2526 0.9624 -0.0997
vn -0.2170 0.5997 0.7702
vn -0.3614 0.7388 0.5688
vn -0.0000 0.6355 -0.7721
vn 0.7593 0.6508 -0.0000
vn -0.0000 0.6355 0.7721
vn -0.7593 0.6508 -0.0000
vn -0.6311 0.5773 -0.5180
vn 0.8972 0.4039 0.1784
vn 0.6311 0.5773 0.5180
vn -0.8972 0.4039 -0.1784
vn -0.3030 0.8530 -0.4250
vn 0.5740 0.7953 0.1950
vn 0.3030 0.8530 0.4250
vn -0.5740 0.7953 -0.1950
vn 0.0946 0.7491 -0.6556
vn 0.4032 0.8724 -0.2763
vn -0.0000 0.8612 0.5083
vn -0.3406 0.9116 0.2301
vn -0.0927 0.9650 -0.2452
vn 0.2998 0.9497 -0.0906
vn -0.2705 0.6215 0.7353
vn -0.4326 0.7354 0.5215
vn -0.0000 0.8318 -0.5551
vn 0.5371 0.8435 -0.0000
vn -0.0000 0.8318 0.5551
vn -0.5371 0.8435 -0.0000
vn -0.1249 0.7597 -0.6381
vn 0.4581 0.8477 -0.2674
vn -0.1815 0.2436 0.9528
vn -0.3674 0.3649 0.8555
vn 0.0654 0.5907 -0.8042
vn 0.3415 0.8431 -0.4154
vn -0.0000 0.7366 0.6763
vn -0.2915 0.8904 0.3496
vn -0.0000 0.4142 -0.9102
vn 0.7171 0.6970 -0.0000
vn -0.0000 0.4142 0.9102
vn -0.7171 0.6970 -0.0000
vn -0.1611 0.9633 -0.2145
vn 0.4803 0.8740 -0.0731
vn -0.4655 0.6144 0.6370
vn -0.6563 0.6408 0.3983
vn -0.3129 0.7055 -0.6359
vn 0.6359 0.7055 0.3130
vn 0.3129 0.7055 0.6359
vn -0.6359 0.7055 -0.3130
vn 0.2380 0.4937 -0.8364
vn 0.8327 0.4721 -0.2895
vn -0.0000 0.6586 0.7525
vn -0.7882 0.5529 0.2701
vn -0.0000 0.5043 -0.8635
vn 0.8918 0.4524 -0.0000
vn -0.0000 0.5043 0.8635
vn -0.8918 0.4524 -0.0000
vn 0.1512 0.5830 -0.7983
vn 0.6477 0.6827 -0.3383
vn -0.0000 0.7347 0.6784
vn -0.5807 0.7572 0.2990
vn -0.1156 0.9334 -0.3397
vn 0.3740 0.9189 -0.1256
vn -0.2743 0.4887 0.8282
vn -0.4697 0.6193 0.6291
vn -0.2879 0.8141 -0.5043
vn 0.5665 0.7883 0.2403
vn 0.2879 0.8141 0.5043
vn -0.5665 0.7883 -0.2403
vn 0.0505 0.2527 -0.9662
vn 0.3934 0.5385 -0.7451
vn -0.0000 0.3616 0.9323
vn -0.3688 0.6245 0.6885
vn -0.3570 0.7488 -0.5585
vn 0.6728 0.6945 0.2549
vn 0.3570 0.7488 0.5585
vn -0.6728 0.6945 -0.2549
vn 0.0886 0.8640 -0.4957
vn 0.3449 0.9190 -0.1908
vn -0.0000 0.9326 0.3609
vn -0.2867 0.9452 0.1564
vn -0.0934 0.9668 -0.2378
vn 0.3013 0.9495 -0.0877
vn -0.2766 0.6320 0.7239
vn -0.4383 0.7410 0.5087
vn -0.1086 0.7561 -0.6454
vn 0.4099 0.8686 -0.2785
vn -0.1568 0.2409 0.9578
vn -0.3222 0.3663 0.8729
vn 0.1777 0.5334 -0.8270
vn 0.7283 0.5976 -0.3353
vn -0.0000 0.6911 0.7227
vn -0.6687 0.6788 0.3035
vn -0.1149 0.8104 -0.5745
vn 0.4106 0.8811 -0.2346
vn -0.1831 0.2850 0.9409
vn -0.3647 0.4199 0.8311
vt 0.000000 0.000000
s 0
usemtl 
f 2/1/1 5/1/1 1/1/1
f 1/1/2 5/1/2 3/1/2
f 3/1/3 5/1/3 4/1/3
f 4/1/4 5/1/4 2/1/4
f 7/1/5 10/1/5 6/1/5
f 6/1/6 10/1/6 8/1/6
f 8/1/7 10/1/7 9/1/7
f 9/1/8 10/1/8 7/1/8
f 12/1/9 15/1/9 11/1/9
f 11/1/10 15/1/10 13/1/10
f 13/1/11 15/1/11 14/1/11
f 14/1/12 15/1/12 12/1/12
f 17/1/13 20/1/13 16/1/13
f 16/1/14 20/1/14 18/1/14
f 18/1/15 20/1/15 19/1/15
f 19/1/16 20/1/16 17/1/16
f 22/1/17 25/1/17 21/1/17
f 21/1/18 25/1/18 23/1/18
f 23/1/19 25/1/19 24/1/19
f 24/1/20 25/1/20 22/1/20
f 27/1/21 30/1/21 26/1/21
f 26/1/22 30/1/22 28/1/22
f 28/1/23 30/1/23 29/1/23
f 29/1/24 30/1/24 27/1/24
f 32/1/25 35/1/25 31/1/25
f 31/1/26 35/1/26 33/1/26
f 33/1/27 35/1/27 34/1/27
f 34/1/28 35/1/28 32/1/28
f 37/1/29 40/1/29 36/1/29
f 36/1/30 40/1/30 38/1/30
f 38/1/31 40/1/31 39/1/31
f 39/1/32 40/1/32 37/1/32
f 42/1/33 45/1/33 41/1/33
f 41/1/34 45/1/34 43/1/34
f 43/1/35 45/1/35 44/1/35
f 44/1/36 45/1/36 42/1/36
f 47/1/37 50/1/37 46/1/37
f 46/1/38 50/1/38 48/1/38
f 48/1/39 50/1/39 49/1/39
f 49/1/40 50/1/40 47/1/40
f 52/1/41 55/1/41 51/1/41
f 51/1/42 55/1/42 53/1/42
f 53/1/43 55/1/43 54/1/43
f 54/1/44 55/1/44 52/1/44
f 57/1/45 60/1/45 56/1/45
f 56/1/46 60/1/46 58/1/46
f 58/1/47 60/1/47 59/1/47
f 59/1/48 60/1/48 57/1/48
f 62/1/49 65/1/49 61/1/49
f 61/1/50 65/1/50 63/1/50
f 63/1/51 65/1/51 64/1/51
f 64/1/52 65/1/52 62/1/52
f 67/1/53 70/1/53 66/1/53
f 66/1/54 70/1/54 68/1/54
f 68/1/55 70/1/55 69/1/55
f 69/1/56 70/1/56 67/1/56
f 72/1/57 75/1/57 71/1/57
f 71/1/58 75/1/58 73/1/58
f 73/1/59 75/1/59 74/1/59
f 74/1/60 75/1/60 72/1/60
f 77/1/61 80/1/61 76/1/61
f 76/1/62 80/1/62 78/1/62
f 78/1/63 80/1/63 79/1/63
f 79/1/64 80/1/64 77/1/64
f 82/1/65 85/1/65 81/1/65
f 81/1/66 85/1/66 83/1/66
f 83/1/67 85/1/67 84/1/67
f 84/1/68 85/1/68 82/1/68
f 87/1/69 90/1/69 86/1/69
f 86/1/70 90/1/70 88/1/70
f 88/1/71 90/1/71 89/1/71
f 89/1/72 90/1/72 87/1/72
f 92/1/73 95/1/73 91/1/73
f 91/1/74 95/1/74 93/1/74
f 93/1/75 95/1/75 94/1/75
f 94/1/76 95/1/76 92/1/76
f 97/1/77 100/1/77 96/1/77
f 96/1/78 100/1/78 98/1/78
f 98/1/79 100/1/79 99/1/79
f 99/1/80 100/1/80 97/1/80
f 102/1/81 105/1/81 101/1/81
f 101/1/82 105/1/82 103/1/82
f 103/1/83 105/1/83 104/1/83
f 104/1/84 105/1/84 102/1/84
f 107/1/85 110/1/85 106/1/85
f 106/1/86 110/1/86 108/1/86
f 108/1/87 110/1/87 109/1/87
f 109/1/88 110/1/88 107/1/88
f 112/1/89 115/1/89 111/1/89
f 111/1/90 115/1/90 113/1/90
f 113/1/91 115/1/91 114/1/91
f 114/1/92 115/1/92 112/1/92
f 117/1/93 120/1/93 116/1/93
f 116/1/94 120/1/94 118/1/94
f 118/1/95 120/1/95 119/1/95
f 119/1/96 120/1/96 117/1/96
f 122/1/97 125/1/97 121/1/97
f 121/1/98 125/1/98 123/1/98
f 123/1/99 125/1/99 124/1/99
f 124/1/100 125/1/100 122/1/100
f 127/1/101 130/1/101 126/1/101
f 126/1/102 130/1/102 128/1/102
f 128/1/103 130/1/103 129/1/103
f 129/1/104 130/1/104 127/1/104
f 132/1/105 135/1/105 131/1/105
f 131/1/106 135/1/106 133/1/106
f 133/1/107 135/1/107 134/1/107
f 134/1/108 135/1/108 132/1/108
f 137/1/109 140/1/109 136/1/109
f 136/1/110 140/1/110 138/1/110
f 138/1/111 140/1/111 139/1/111
f 139/1/112 140/1/112 137/1/112
f 142/1/113 145/1/113 141/1/113
f 141/1/114 145/1/114 143/1/114
f 143/1/115 145/1/115 144/1/115
f 144/1/116 145/1/116 142/1/116
f 147/1/117 150/1/117 146/1/117
f 146/1/118 150/1/118 148/1/118
f 148/1/119 150/1/119 149/1/119
f 149/1/120 150/1/120 147/1/120
f 152/1/121 155/1/121 151/1/121
f 151/1/122 155/1/122 153/1/122
f 153/1/123 155/1/123 154/1/123
f 154/1/124 155/1/124 152/1/124
f 157/1/125 160/1/125 156/1/125
f 156/1/126 160/1/126 158/1/126
f 158/1/127 160/1/127 159/1/127
f 159/1/128 160/1/128 157/1/128
