# Blender 5.1.2
# www.blender.org
mtllib pebble_group_0.mtl
o pebble_group_0
v -3.796556 0.000000 4.300700
v -4.096903 0.000000 4.300700
v -3.796556 0.000000 4.527450
v -4.096903 0.000000 4.527450
v -3.946730 0.100938 4.414075
v 5.157037 0.000000 -3.019351
v 4.574537 0.000000 -2.834496
v 5.352076 0.000000 -2.477832
v 4.875387 0.000000 -2.625029
v 4.990325 0.052315 -2.656164
v 3.756252 0.000000 0.717991
v 3.565542 0.000000 0.717991
v 3.756252 0.000000 1.004301
v 3.565542 0.000000 1.004301
v 3.660897 0.099702 0.861146
v 4.667315 0.000000 -0.281249
v 4.181151 0.000000 -0.137401
v 4.830098 0.000000 0.140143
v 4.432245 0.000000 0.025600
v 4.528174 0.127079 0.001371
v 0.063915 0.000000 3.197114
v -0.380278 0.000000 3.312301
v -0.154684 0.000000 3.431175
v -0.598876 0.000000 3.546363
v -0.267481 0.085437 3.371738
v 2.179799 0.000000 -2.828238
v 1.873909 0.000000 -2.647501
v 2.029263 0.000000 -2.460980
v 1.723372 0.000000 -2.280242
v 1.951586 0.123466 -2.554240
v -2.627318 0.000000 -2.451177
v -2.836543 0.000000 -2.451177
v -2.627318 0.000000 -2.077897
v -2.836543 0.000000 -2.077897
v -2.731930 0.090422 -2.264537
v -2.241894 0.000000 -2.915120
v -2.554439 0.000000 -2.808302
v -2.395705 0.000000 -2.698066
v -2.708251 0.000000 -2.591248
v -2.475072 0.151332 -2.753184
v -0.899072 0.000000 -1.234379
v -1.139874 0.000000 -0.993970
v -1.017577 0.000000 -0.745867
v -1.258379 0.000000 -0.505458
v -1.078725 0.135820 -0.869918
v -0.217617 0.000000 -0.359889
v -0.467090 0.000000 -0.389764
v -0.134086 0.000000 -0.258758
v -0.360416 0.000000 -0.258758
v -0.289016 0.174257 -0.324261
vn -0.0000 0.7469 -0.6649
vn 0.5578 0.8299 -0.0000
vn -0.0000 0.7469 0.6650
vn -0.5578 0.8299 -0.0000
vn -0.0527 0.9847 -0.1660
vn 0.1728 0.9830 -0.0623
vn -0.1873 0.7726 0.6066
vn -0.2843 0.8675 0.4083
vn -0.0000 0.8206 -0.5715
vn 0.7227 0.6912 -0.0000
vn -0.0000 0.8206 0.5715
vn -0.7227 0.6912 -0.0000
vn -0.1365 0.8766 -0.4614
vn 0.4487 0.8767 -0.1733
vn -0.2576 0.3650 0.8947
vn -0.4729 0.4958 0.7284
vn -0.1771 0.7088 -0.6828
vn 0.4169 0.8213 0.3894
vn 0.1771 0.7088 0.6828
vn -0.4169 0.8213 -0.3894
vn -0.3651 0.6964 -0.6179
vn 0.6986 0.6558 0.2863
vn 0.3651 0.6964 0.6179
vn -0.6986 0.6558 -0.2863
vn -0.0000 0.8999 -0.4360
vn 0.6539 0.7566 -0.0000
vn -0.0000 0.8999 0.4360
vn -0.6539 0.7566 -0.0000
vn -0.2876 0.4573 -0.8415
vn 0.6877 0.5382 0.4873
vn 0.2876 0.4573 0.8415
vn -0.6877 0.5382 -0.4873
vn -0.5085 0.6942 -0.5094
vn 0.8138 0.5467 0.1974
vn 0.5085 0.6942 0.5094
vn -0.8138 0.5467 -0.1974
vn 0.1153 0.2441 -0.9629
vn 0.7041 0.4074 -0.5816
vn -0.0000 0.3519 0.9361
vn -0.6780 0.4853 0.5521
vt 0.000000 0.000000
s 0
usemtl 
f 2/1/1 5/1/1 1/1/1
f 1/1/2 5/1/2 3/1/2
f 3/1/3 5/1/3 4/1/3
f 4/1/4 5/1/4 2/1/4
f 7/1/5 10/1/5 6/1/5
f 6/1/6 10/1/6 8/1/6
f 8/1/7 10/1/7 9/1/7
f 9/1/8 10/1/8 7/1/8
f 12/1/9 15/1/9 11/1/9
f 11/1/10 15/1/10 13/1/10
f 13/1/11 15/1/11 14/1/11
f 14/1/12 15/1/12 12/1/12
f 17/1/13 20/1/13 16/1/13
f 16/1/14 20/1/14 18/1/14
f 18/1/15 20/1/15 19/1/15
f 19/1/16 20/1/16 17/1/16
f 22/1/17 25/1/17 21/1/17
f 21/1/18 25/1/18 23/1/18
f 23/1/19 25/1/19 24/1/19
f 24/1/20 25/1/20 22/1/20
f 27/1/21 30/1/21 26/1/21
f 26/1/22 30/1/22 28/1/22
f 28/1/23 30/1/23 29/1/23
f 29/1/24 30/1/24 27/1/24
f 32/1/25 35/1/25 31/1/25
f 31/1/26 35/1/26 33/1/26
f 33/1/27 35/1/27 34/1/27
f 34/1/28 35/1/28 32/1/28
f 37/1/29 40/1/29 36/1/29
f 36/1/30 40/1/30 38/1/30
f 38/1/31 40/1/31 39/1/31
f 39/1/32 40/1/32 37/1/32
f 42/1/33 45/1/33 41/1/33
f 41/1/34 45/1/34 43/1/34
f 43/1/35 45/1/35 44/1/35
f 44/1/36 45/1/36 42/1/36
f 47/1/37 50/1/37 46/1/37
f 46/1/38 50/1/38 48/1/38
f 48/1/39 50/1/39 49/1/39
f 49/1/40 50/1/40 47/1/40
