# Blender 5.0.1
# www.blender.org
mtllib pebble_group_1.mtl
o pebble_group_1
v 1.502973 0.000000 2.827161
v 1.133238 0.000000 2.827161
v 1.502973 0.000000 3.132418
v 1.133238 0.000000 3.132418
v 1.318105 0.118845 2.979789
v -0.978889 0.000000 2.488961
v -1.200698 0.000000 2.488962
v -0.978889 0.000000 2.730779
v -1.200698 0.000000 2.730779
v -1.089793 0.156514 2.609870
v 0.980620 0.000000 1.339147
v 0.574718 0.000000 1.465462
v 0.780865 0.000000 1.595819
v 0.374964 0.000000 1.722133
v 0.677792 0.076258 1.530640
v 0.156387 0.000000 1.249868
v -0.431647 0.000000 1.218951
v 0.353279 0.000000 1.354522
v -0.180206 0.000000 1.354522
v -0.011909 0.102106 1.286737
v 2.226290 0.000000 3.976720
v 2.028558 0.000000 4.185679
v 2.128981 0.000000 4.401325
v 1.931248 0.000000 4.610285
v 2.078769 0.165039 4.293502
v -4.799657 0.000000 3.467992
v -5.045759 0.000000 3.398618
v -4.717255 0.000000 3.702826
v -4.940526 0.000000 3.702826
v -4.870091 0.085369 3.550722
v 0.233970 0.000000 -2.971734
v 0.103507 0.000000 -2.971734
v 0.233970 0.000000 -2.819376
v 0.103507 0.000000 -2.819376
v 0.168738 0.182347 -2.895555
v -4.264419 0.000000 1.784776
v -4.652663 0.000000 1.747580
v -4.134424 0.000000 1.910687
v -4.486651 0.000000 1.910687
v -4.375535 0.071765 1.829134
v -0.344766 0.000000 -1.554234
v -0.905735 0.000000 -1.638548
v -0.156937 0.000000 -1.268826
v -0.665867 0.000000 -1.268826
v -0.505316 0.071932 -1.453687
v -3.096072 0.000000 -3.778712
v -3.679259 0.000000 -3.628018
v -2.900804 0.000000 -3.337265
v -3.378055 0.000000 -3.457260
v -3.262981 0.064281 -3.482641
vn -0.0000 0.7890 -0.6144
vn 0.5408 0.8412 -0.0000
vn -0.0000 0.7890 0.6144
vn -0.5408 0.8412 -0.0000
vn -0.0000 0.6113 -0.7914
vn 0.8159 0.5782 -0.0000
vn -0.0000 0.6113 0.7914
vn -0.8159 0.5782 -0.0000
vn -0.1886 0.7728 -0.6060
vn 0.4198 0.8467 0.3267
vn 0.1886 0.7728 0.6060
vn -0.4198 0.8467 -0.3267
vn 0.0479 0.4082 -0.9116
vn 0.3169 0.7376 -0.5962
vn -0.0000 0.5531 0.8331
vn -0.2803 0.8070 0.5198
vn -0.6034 0.5566 -0.5710
vn 0.8914 0.4047 0.2043
vn 0.6034 0.5566 0.5710
vn -0.8914 0.4046 -0.2043
vn 0.1775 0.7565 -0.6295
vn 0.6349 0.7398 -0.2228
vn -0.0000 0.8720 0.4894
vn -0.5593 0.8061 0.1935
vn -0.0000 0.3855 -0.9227
vn 0.9416 0.3368 -0.0000
vn -0.0000 0.3855 0.9227
vn -0.9416 0.3368 -0.0000
vn 0.0758 0.6066 -0.7914
vn 0.3822 0.8356 -0.3946
vn -0.0000 0.7507 0.6606
vn -0.3270 0.8845 0.3328
vn 0.0749 0.8637 -0.4983
vn 0.2966 0.9348 -0.1952
vn -0.0000 0.9319 0.3626
vn -0.2453 0.9563 0.1591
vn -0.0635 0.9672 -0.2458
vn 0.2100 0.9733 -0.0929
vn -0.1886 0.6338 0.7501
vn -0.3117 0.7750 0.5498
vt 0.000000 0.000000
s 0
usemtl 
f 2/1/1 5/1/1 1/1/1
f 1/1/2 5/1/2 3/1/2
f 3/1/3 5/1/3 4/1/3
f 4/1/4 5/1/4 2/1/4
f 7/1/5 10/1/5 6/1/5
f 6/1/6 10/1/6 8/1/6
f 8/1/7 10/1/7 9/1/7
f 9/1/8 10/1/8 7/1/8
f 12/1/9 15/1/9 11/1/9
f 11/1/10 15/1/10 13/1/10
f 13/1/11 15/1/11 14/1/11
f 14/1/12 15/1/12 12/1/12
f 17/1/13 20/1/13 16/1/13
f 16/1/14 20/1/14 18/1/14
f 18/1/15 20/1/15 19/1/15
f 19/1/16 20/1/16 17/1/16
f 22/1/17 25/1/17 21/1/17
f 21/1/18 25/1/18 23/1/18
f 23/1/19 25/1/19 24/1/19
f 24/1/20 25/1/20 22/1/20
f 27/1/21 30/1/21 26/1/21
f 26/1/22 30/1/22 28/1/22
f 28/1/23 30/1/23 29/1/23
f 29/1/24 30/1/24 27/1/24
f 32/1/25 35/1/25 31/1/25
f 31/1/26 35/1/26 33/1/26
f 33/1/27 35/1/27 34/1/27
f 34/1/28 35/1/28 32/1/28
f 37/1/29 40/1/29 36/1/29
f 36/1/30 40/1/30 38/1/30
f 38/1/31 40/1/31 39/1/31
f 39/1/32 40/1/32 37/1/32
f 42/1/33 45/1/33 41/1/33
f 41/1/34 45/1/34 43/1/34
f 43/1/35 45/1/35 44/1/35
f 44/1/36 45/1/36 42/1/36
f 47/1/37 50/1/37 46/1/37
f 46/1/38 50/1/38 48/1/38
f 48/1/39 50/1/39 49/1/39
f 49/1/40 50/1/40 47/1/40
