# Blender 5.1.2
# www.blender.org
mtllib pebble_group_2.mtl
o pebble_group_2
v 1.025781 0.000000 0.877808
v 0.418062 0.000000 1.043688
v 1.229263 0.000000 1.363742
v 0.731936 0.000000 1.231654
v 0.851851 0.078860 1.203715
v 1.328780 0.000000 2.337787
v 0.852688 0.000000 2.519004
v 1.488189 0.000000 2.868648
v 1.098580 0.000000 2.724348
v 1.192522 0.122159 2.693826
v -0.843581 0.000000 1.632797
v -1.317721 0.000000 1.571185
v -0.684825 0.000000 1.841357
v -1.114980 0.000000 1.841357
v -0.979281 0.170735 1.706271
v 0.733268 0.000000 -0.350520
v 0.422287 0.000000 -0.350520
v 0.733268 0.000000 -0.217517
v 0.422287 0.000000 -0.217517
v 0.577778 0.151040 -0.284018
v 2.143190 0.000000 1.194524
v 2.005131 0.000000 1.194524
v 2.143190 0.000000 1.396862
v 2.005131 0.000000 1.396863
v 2.074161 0.074745 1.295693
v 2.264044 0.000000 -0.558651
v 1.832008 0.000000 -0.388434
v 2.051428 0.000000 -0.212770
v 1.619391 0.000000 -0.042553
v 1.941718 0.168963 -0.300602
v 2.672367 0.000000 -1.730799
v 2.317159 0.000000 -1.580296
v 2.497560 0.000000 -1.424977
v 2.142353 0.000000 -1.274474
v 2.407360 0.099207 -1.502636
v 0.654167 0.000000 2.625055
v 0.053368 0.000000 2.800426
v 0.855333 0.000000 3.138791
v 0.363669 0.000000 2.999146
v 0.482218 0.076401 2.969609
v 1.990075 0.000000 -1.082788
v 1.450205 0.000000 -0.926444
v 2.170840 0.000000 -0.624789
v 1.729037 0.000000 -0.749284
v 1.835563 0.072379 -0.775617
v -0.215693 0.000000 -0.144933
v -0.794982 0.000000 -0.192034
v -0.021730 0.000000 0.014507
v -0.547280 0.000000 0.014507
v -0.381486 0.094819 -0.088763
v -2.186687 0.000000 0.695239
v -2.478373 0.000000 0.695239
v -2.186687 0.000000 0.831776
v -2.478373 0.000000 0.831776
v -2.332530 0.150038 0.763507
v -1.976967 0.000000 -3.206988
v -2.211742 0.000000 -3.030662
v -1.898357 0.000000 -2.690452
v -2.090486 0.000000 -2.830858
v -2.044160 0.065901 -2.860557
v 0.378994 0.000000 -1.302806
v -0.048016 0.000000 -1.092681
v 0.168852 0.000000 -0.875833
v -0.258159 0.000000 -0.665708
v 0.060418 0.145830 -0.984257
v 1.978982 0.000000 -2.722290
v 1.741085 0.000000 -2.789981
v 2.058638 0.000000 -2.493150
v 1.842809 0.000000 -2.493150
v 1.910896 0.169577 -2.641565
v -0.223248 0.000000 -2.590732
v -0.369259 0.000000 -2.590732
v -0.223248 0.000000 -2.422678
v -0.369259 0.000000 -2.422678
v -0.296253 0.143896 -2.506705
v 0.530120 0.000000 -0.867075
v 0.200546 0.000000 -0.929486
v 0.640471 0.000000 -0.655808
v 0.341471 0.000000 -0.655808
v 0.435795 0.126362 -0.792647
v -0.289109 0.000000 -0.515535
v -0.849745 0.000000 -0.324743
v -0.101391 0.000000 0.043377
v -0.560188 0.000000 -0.108548
v -0.449564 0.116555 -0.140683
v -0.957733 0.000000 0.638509
v -1.304294 0.000000 0.836358
v -1.128285 0.000000 1.040539
v -1.474846 0.000000 1.238388
v -1.216290 0.094364 0.938449
vn -0.0742 0.9595 -0.2718
vn 0.2449 0.9641 -0.1026
vn -0.2071 0.5911 0.7796
vn -0.3482 0.7354 0.5814
vn -0.1404 0.9188 -0.3690
vn 0.4449 0.8856 -0.1336
vn -0.3105 0.4482 0.8383
vn -0.5289 0.5650 0.6333
vn 0.1139 0.4677 -0.8765
vn 0.5935 0.6661 -0.4518
vn -0.0000 0.6205 0.7842
vn -0.5352 0.7431 0.4016
vn -0.0000 0.4030 -0.9152
vn 0.6968 0.7173 -0.0000
vn -0.0000 0.4030 0.9152
vn -0.6968 0.7173 -0.0000
vn -0.0000 0.8043 -0.5942
vn 0.7346 0.6785 -0.0000
vn -0.0000 0.8043 0.5942
vn -0.7346 0.6785 -0.0000
vn -0.2972 0.5852 -0.7545
vn 0.6570 0.6366 0.4039
vn 0.2972 0.5852 0.7545
vn -0.6570 0.6366 -0.4039
vn -0.2657 0.7323 -0.6270
vn 0.5619 0.7623 0.3212
vn 0.2657 0.7323 0.6270
vn -0.5619 0.7623 -0.3212
vn -0.0731 0.9653 -0.2506
vn 0.2405 0.9661 -0.0942
vn -0.2138 0.6227 0.7527
vn -0.3517 0.7581 0.5492
vn -0.0768 0.9612 -0.2651
vn 0.2526 0.9624 -0.0997
vn -0.2170 0.5997 0.7702
vn -0.3614 0.7388 0.5688
vn 0.0654 0.5907 -0.8042
vn 0.3415 0.8431 -0.4154
vn -0.0000 0.7366 0.6763
vn -0.2915 0.8904 0.3496
vn -0.0000 0.4142 -0.9102
vn 0.7171 0.6970 -0.0000
vn -0.0000 0.4142 0.9102
vn -0.7171 0.6970 -0.0000
vn -0.1611 0.9633 -0.2145
vn 0.4803 0.8740 -0.0731
vn -0.4656 0.6144 0.6370
vn -0.6563 0.6408 0.3983
vn -0.3129 0.7055 -0.6359
vn 0.6359 0.7055 0.3130
vn 0.3129 0.7055 0.6359
vn -0.6359 0.7055 -0.3130
vn 0.2380 0.4937 -0.8364
vn 0.8327 0.4721 -0.2895
vn -0.0000 0.6586 0.7525
vn -0.7882 0.5529 0.2701
vn -0.0000 0.5043 -0.8635
vn 0.8918 0.4525 -0.0000
vn -0.0000 0.5043 0.8635
vn -0.8918 0.4525 -0.0000
vn 0.1512 0.5830 -0.7983
vn 0.6477 0.6827 -0.3383
vn -0.0000 0.7347 0.6784
vn -0.5807 0.7572 0.2990
vn -0.1156 0.9334 -0.3397
vn 0.3740 0.9189 -0.1256
vn -0.2743 0.4887 0.8282
vn -0.4697 0.6193 0.6291
vn -0.2879 0.8141 -0.5043
vn 0.5665 0.7883 0.2403
vn 0.2879 0.8141 0.5043
vn -0.5665 0.7883 -0.2403
vt 0.000000 0.000000
s 0
usemtl 
f 2/1/1 5/1/1 1/1/1
f 1/1/2 5/1/2 3/1/2
f 3/1/3 5/1/3 4/1/3
f 4/1/4 5/1/4 2/1/4
f 7/1/5 10/1/5 6/1/5
f 6/1/6 10/1/6 8/1/6
f 8/1/7 10/1/7 9/1/7
f 9/1/8 10/1/8 7/1/8
f 12/1/9 15/1/9 11/1/9
f 11/1/10 15/1/10 13/1/10
f 13/1/11 15/1/11 14/1/11
f 14/1/12 15/1/12 12/1/12
f 17/1/13 20/1/13 16/1/13
f 16/1/14 20/1/14 18/1/14
f 18/1/15 20/1/15 19/1/15
f 19/1/16 20/1/16 17/1/16
f 22/1/17 25/1/17 21/1/17
f 21/1/18 25/1/18 23/1/18
f 23/1/19 25/1/19 24/1/19
f 24/1/20 25/1/20 22/1/20
f 27/1/21 30/1/21 26/1/21
f 26/1/22 30/1/22 28/1/22
f 28/1/23 30/1/23 29/1/23
f 29/1/24 30/1/24 27/1/24
f 32/1/25 35/1/25 31/1/25
f 31/1/26 35/1/26 33/1/26
f 33/1/27 35/1/27 34/1/27
f 34/1/28 35/1/28 32/1/28
f 37/1/29 40/1/29 36/1/29
f 36/1/30 40/1/30 38/1/30
f 38/1/31 40/1/31 39/1/31
f 39/1/32 40/1/32 37/1/32
f 42/1/33 45/1/33 41/1/33
f 41/1/34 45/1/34 43/1/34
f 43/1/35 45/1/35 44/1/35
f 44/1/36 45/1/36 42/1/36
f 47/1/37 50/1/37 46/1/37
f 46/1/38 50/1/38 48/1/38
f 48/1/39 50/1/39 49/1/39
f 49/1/40 50/1/40 47/1/40
f 52/1/41 55/1/41 51/1/41
f 51/1/42 55/1/42 53/1/42
f 53/1/43 55/1/43 54/1/43
f 54/1/44 55/1/44 52/1/44
f 57/1/45 60/1/45 56/1/45
f 56/1/46 60/1/46 58/1/46
f 58/1/47 60/1/47 59/1/47
f 59/1/48 60/1/48 57/1/48
f 62/1/49 65/1/49 61/1/49
f 61/1/50 65/1/50 63/1/50
f 63/1/51 65/1/51 64/1/51
f 64/1/52 65/1/52 62/1/52
f 67/1/53 70/1/53 66/1/53
f 66/1/54 70/1/54 68/1/54
f 68/1/55 70/1/55 69/1/55
f 69/1/56 70/1/56 67/1/56
f 72/1/57 75/1/57 71/1/57
f 71/1/58 75/1/58 73/1/58
f 73/1/59 75/1/59 74/1/59
f 74/1/60 75/1/60 72/1/60
f 77/1/61 80/1/61 76/1/61
f 76/1/62 80/1/62 78/1/62
f 78/1/63 80/1/63 79/1/63
f 79/1/64 80/1/64 77/1/64
f 82/1/65 85/1/65 81/1/65
f 81/1/66 85/1/66 83/1/66
f 83/1/67 85/1/67 84/1/67
f 84/1/68 85/1/68 82/1/68
f 87/1/69 90/1/69 86/1/69
f 86/1/70 90/1/70 88/1/70
f 88/1/71 90/1/71 89/1/71
f 89/1/72 90/1/72 87/1/72
