# Blender 5.0.1
# www.blender.org
mtllib pipe_angle.mtl
o pipe_angle
v -0.500000 0.998512 8.000000
v -0.500000 1.998512 8.000000
v 0.500000 0.998512 8.000000
v 0.500000 1.998512 8.000000
v -0.750000 1.502976 8.000000
v 0.750000 1.502976 8.000000
v 0.000000 0.747620 8.000000
v 0.000000 2.247619 8.000000
v 1.500000 0.998512 8.000000
v 1.500000 1.998512 8.000000
v 2.500000 0.998512 8.000000
v 2.500000 1.998512 8.000000
v 1.250000 1.502976 8.000000
v 2.750000 1.502976 8.000000
v 2.000000 0.747620 8.000000
v 2.000000 2.247619 8.000000
v -1.000000 -0.500000 10.000000
v -1.000000 2.300000 10.000000
v -1.000000 -0.500000 8.000000
v -1.000000 2.300000 8.000000
v 3.000000 -0.500000 10.000000
v 3.000000 2.300000 10.000000
v 3.000000 -0.500000 8.000000
v 3.000000 2.300000 8.000000
v -0.500000 0.998512 10.000000
v -0.500000 1.998512 10.000000
v 0.500000 0.998512 10.000000
v 0.500000 1.998512 10.000000
v -0.750000 1.502976 10.000000
v 0.750000 1.502976 10.000000
v 0.000000 0.747620 10.000000
v 0.000000 2.247619 10.000000
v 1.500000 0.998512 10.000000
v 1.500000 1.998512 10.000000
v 2.500000 0.998512 10.000000
v 2.500000 1.998512 10.000000
v 1.250000 1.502976 10.000000
v 2.750000 1.502976 10.000000
v 2.000000 0.747620 10.000000
v 2.000000 2.247619 10.000000
v -0.272432 2.828520 9.636216
v -0.272432 2.828520 8.363784
v 2.272432 2.828520 8.363784
v 2.272432 2.828520 9.636216
v -1.223142 0.998512 4.364505
v -1.223142 1.998512 4.364505
v -0.299263 0.998512 3.981822
v -0.299263 1.998512 3.981822
v -1.454112 1.502976 4.460176
v -0.068293 1.502976 3.886151
v -0.761202 0.747620 4.173163
v -0.761202 2.247619 4.173163
v 0.624617 0.998512 3.599138
v 0.624617 1.998512 3.599138
v 1.548496 0.998512 3.216455
v 1.548496 1.998512 3.216455
v 0.393647 1.502976 3.694809
v 1.779467 1.502976 3.120784
v 1.086556 0.747620 3.407796
v 1.086556 2.247619 3.407796
v -3.282482 0.998512 1.282481
v -3.282482 1.998512 1.282481
v -2.575375 0.998512 0.575374
v -2.575375 1.998512 0.575374
v -3.459259 1.502976 1.459257
v -2.398598 1.502976 0.398597
v -2.928929 0.747620 0.928927
v -2.928929 2.247619 0.928927
v -1.868269 0.998512 -0.131733
v -1.868269 1.998512 -0.131733
v -1.161162 0.998512 -0.838840
v -1.161162 1.998512 -0.838840
v -2.045045 1.502976 0.045043
v -0.984385 1.502976 -1.015617
v -1.514715 0.747620 -0.485287
v -1.514715 2.247619 -0.485287
v -6.364504 0.998512 -0.776864
v -6.364504 1.998512 -0.776864
v -5.981820 0.998512 -1.700743
v -5.981820 1.998512 -1.700743
v -6.460175 1.502976 -0.545894
v -5.886149 1.502976 -1.931713
v -6.173162 0.747620 -1.238804
v -6.173162 2.247619 -1.238804
v -5.599137 0.998512 -2.624622
v -5.599137 1.998512 -2.624622
v -5.216454 0.998512 -3.548502
v -5.216454 1.998512 -3.548502
v -5.694808 1.502976 -2.393653
v -5.120783 1.502976 -3.779472
v -5.407796 0.747620 -3.086563
v -5.407796 2.247619 -3.086563
v -9.999997 0.998512 -1.500011
v -9.999997 1.998512 -1.500011
v -9.999998 0.998512 -2.500011
v -9.999998 1.998512 -2.500011
v -9.999997 1.502976 -1.250011
v -9.999997 1.502976 -2.750011
v -9.999998 0.747620 -2.000011
v -9.999998 2.247619 -2.000011
v -9.999998 0.998512 -3.500010
v -9.999998 1.998512 -3.500010
v -9.999998 0.998512 -4.500010
v -9.999998 1.998512 -4.500010
v -9.999998 1.502976 -3.250010
v -9.999998 1.502976 -4.750010
v -9.999998 0.747620 -4.000010
v -9.999998 2.247619 -4.000010
vn -0.0000 -0.0000 -1.0000
vn -1.0000 -0.0000 -0.0000
vn 1.0000 -0.0000 -0.0000
vn -0.0000 0.5670 0.8237
vn -0.0000 -0.0000 1.0000
vn -0.0000 1.0000 -0.0000
vn -0.0000 0.5670 -0.8237
vn 0.5877 0.8091 -0.0000
vn -0.5877 0.8091 -0.0000
vn 0.8821 -0.4372 -0.1755
vn 0.4467 -0.8903 -0.0889
vn -0.4442 0.8916 0.0884
vn -0.8821 -0.4372 0.1755
vn -0.8821 -0.4371 0.1755
vn 0.8791 0.4435 -0.1749
vn -0.4467 -0.8903 0.0889
vn 0.4442 0.8916 -0.0884
vn -0.8791 0.4435 0.1749
vn 0.7478 -0.4372 -0.4997
vn 0.3787 -0.8903 -0.2530
vn -0.3766 0.8916 0.2516
vn -0.7478 -0.4372 0.4997
vn 0.7452 0.4435 -0.4979
vn -0.3787 -0.8903 0.2530
vn 0.3766 0.8916 -0.2516
vn -0.7452 0.4435 0.4979
vn -0.2530 -0.8903 0.3787
vn 0.2516 0.8916 -0.3766
vn -0.4979 0.4435 0.7452
vn 0.4997 -0.4372 -0.7478
vn 0.2530 -0.8903 -0.3787
vn -0.2516 0.8916 0.3766
vn -0.4997 -0.4372 0.7478
vn -0.4997 -0.4371 0.7478
vn 0.4979 0.4435 -0.7452
vn -0.0884 0.8916 0.4442
vn -0.1755 -0.4372 0.8821
vn 0.1749 0.4435 -0.8791
vn -0.0889 -0.8903 0.4467
vn 0.0884 0.8916 -0.4442
vn -0.1749 0.4435 0.8791
vn 0.1755 -0.4371 -0.8821
vn 0.1755 -0.4372 -0.8821
vn 0.0889 -0.8903 -0.4467
vn -0.7478 -0.4371 0.4997
vt 2.965070 2.442082
vt 2.676654 2.532548
vt 2.785753 2.351616
vt 1.104936 0.361363
vt 0.091717 1.085091
vt 0.091717 0.361363
vt 2.676658 1.085091
vt 3.689877 0.361363
vt 3.689877 1.085091
vt 2.614524 0.260825
vt 1.430349 0.493004
vt 1.167069 0.260826
vt 2.965071 1.175557
vt 2.785755 1.266022
vt 3.238408 1.446955
vt 3.147619 1.266023
vt 3.238407 2.170684
vt 3.689876 2.532548
vt 3.147618 2.351616
vt 2.965070 1.718352
vt 3.147618 1.989751
vt 2.965070 1.899285
vt 2.785754 1.627886
vt 2.785753 1.989751
vt 2.695610 2.170683
vt 2.695612 1.446954
vt 2.965073 -0.995626
vt 2.785757 -0.905160
vt 2.676660 -1.086091
vt 2.676658 0.361363
vt 2.785755 0.180431
vt 2.965072 0.270897
vt 3.147619 0.180431
vt 3.238409 -0.000501
vt 3.238409 -0.724228
vt 3.147620 -0.905160
vt 3.689877 -1.086092
vt 3.147620 -0.543297
vt 2.965072 -0.271899
vt 2.965073 -0.452831
vt 2.785756 -0.181433
vt 2.785756 -0.543297
vt 2.695614 -0.724230
vt 2.695612 -0.000501
vt 1.430349 0.953451
vt 2.351244 0.493003
vt 2.351244 0.953451
vt 1.167069 1.185629
vt 2.614525 1.185629
vt 1.104936 1.085091
vt 0.141179 4.207501
vt 0.283275 3.147675
vt 0.265240 4.221192
vt 1.029473 3.490146
vt 1.174598 2.630117
vt 1.150442 3.515462
vt 0.019678 4.182741
vt 0.165470 3.146560
vt 1.518799 3.502724
vt 1.649650 2.634014
vt 1.641553 3.483727
vt 0.510661 4.193825
vt 0.642936 3.150140
vt 0.633561 4.174608
vt 1.765621 3.476811
vt 1.913589 2.636020
vt 1.892110 3.494041
vt 0.883730 4.183226
vt 0.772199 3.150772
vt 0.903784 3.151743
vt 1.273990 3.529575
vt 1.406099 2.632609
vt 1.396500 3.521777
vt 0.399419 3.148705
vt 0.388095 4.213074
vt 2.040204 2.637160
vt 2.016831 3.523400
vt 1.007980 4.211096
vt 1.029472 3.152410
vt 1.524781 2.633421
vt 1.780358 2.634728
vt 0.518592 3.149525
vt 0.757553 4.167145
vt 1.291125 2.631500
vt 1.292254 1.778070
vt 0.284573 2.123005
vt 1.058974 1.778701
vt 1.176576 1.778413
vt 0.046414 3.145254
vt 0.167715 2.123368
vt 1.647980 1.777146
vt 0.641289 2.122115
vt 1.909132 1.776252
vt 0.899451 2.121156
vt 1.406334 1.777756
vt 0.399791 2.122660
vt 2.033355 1.775496
vt 1.023097 2.120371
vt 1.524078 1.777348
vt 1.777595 1.776765
vt 0.517984 2.122389
vt 0.769407 2.121720
vt 1.905278 0.921554
vt 2.029977 0.920325
vt 0.895084 1.094686
vt 1.019407 1.093788
vt 1.518605 0.921708
vt 1.773464 0.922201
vt 0.391802 1.095719
vt 0.511222 1.095456
vt 0.764462 1.095346
vt 1.284217 0.922410
vt 0.275285 1.096392
vt 1.047765 0.924664
vt 1.167006 0.923305
vt 0.049537 2.123822
vt 0.157011 1.097237
vt 1.643378 0.922109
vt 0.635577 1.095478
vt 1.399657 0.921857
vt 0.638991 0.072795
vt 1.897034 0.076365
vt 0.887424 0.073960
vt 1.278184 0.012277
vt 1.402767 0.025315
vt 0.392741 0.024847
vt 2.019188 0.053162
vt 1.009894 0.051118
vt 1.526098 0.049972
vt 1.772269 0.087556
vt 0.516038 0.048784
vt 0.762434 0.085093
vt 0.268377 0.012277
vt 1.152529 0.025324
vt 0.037342 1.098397
vt 0.142777 0.024988
vt 1.648952 0.074761
vt 3.147618 1.627887
vt 3.147620 -0.181433
vt 1.056242 2.628177
vt 1.029472 0.049778
vt 0.019678 0.048930
s 0
usemtl concrete_dark
f 5/1/1 20/2/1 2/3/1
f 18/4/2 19/5/2 17/6/2
f 24/7/3 21/8/3 23/9/3
f 22/10/4 41/11/4 18/12/4
f 24/7/1 14/13/1 12/14/1
f 23/9/1 15/15/1 11/16/1
f 7/17/1 19/18/1 1/19/1
f 19/18/1 5/1/1 1/19/1
f 13/20/1 3/21/1 6/22/1
f 10/23/1 6/22/1 4/24/1
f 8/25/1 10/23/1 4/24/1
f 3/21/1 15/15/1 7/17/1
f 19/18/1 15/15/1 23/9/1
f 16/26/1 20/2/1 24/7/1
f 14/13/1 23/9/1 11/16/1
f 12/14/1 16/26/1 24/7/1
f 8/25/1 2/3/1 20/2/1
f 29/27/5 26/28/5 18/29/5
f 22/30/5 36/31/5 38/32/5
f 21/8/5 35/33/5 39/34/5
f 31/35/5 25/36/5 17/37/5
f 29/27/5 17/37/5 25/36/5
f 27/38/5 37/39/5 30/40/5
f 30/40/5 34/41/5 28/42/5
f 34/41/5 32/43/5 28/42/5
f 39/34/5 27/38/5 31/35/5
f 39/34/5 17/37/5 21/8/5
f 18/29/5 40/44/5 22/30/5
f 21/8/5 38/32/5 35/33/5
f 36/31/5 22/30/5 40/44/5
f 32/43/5 18/29/5 26/28/5
f 42/45/6 44/46/6 43/47/6
f 20/48/7 43/47/7 24/49/7
f 24/7/8 44/46/8 22/30/8
f 18/4/9 42/45/9 20/50/9
f 18/4/2 20/50/2 19/5/2
f 24/7/3 22/30/3 21/8/3
f 22/10/4 44/46/4 41/11/4
f 19/18/1 20/2/1 5/1/1
f 13/20/1 9/138/1 3/21/1
f 10/23/1 13/20/1 6/22/1
f 8/25/1 16/26/1 10/23/1
f 3/21/1 9/138/1 15/15/1
f 19/18/1 7/17/1 15/15/1
f 16/26/1 8/25/1 20/2/1
f 14/13/1 24/7/1 23/9/1
f 29/27/5 18/29/5 17/37/5
f 27/38/5 33/139/5 37/39/5
f 30/40/5 37/39/5 34/41/5
f 34/41/5 40/44/5 32/43/5
f 39/34/5 33/139/5 27/38/5
f 39/34/5 31/35/5 17/37/5
f 18/29/5 32/43/5 40/44/5
f 21/8/5 22/30/5 38/32/5
f 42/45/6 41/11/6 44/46/6
f 20/48/7 42/45/7 43/47/7
f 24/7/8 43/47/8 44/46/8
f 18/4/9 41/11/9 42/45/9
usemtl metal_wear_mid
f 11/51/10 58/52/10 14/53/10
f 7/54/11 47/55/11 3/56/11
f 15/57/11 55/58/11 11/51/11
f 8/59/12 46/60/12 2/61/12
f 16/62/12 54/63/12 10/64/12
f 5/65/13 45/66/13 1/67/13
f 9/68/14 57/69/14 53/70/14
f 6/71/15 48/72/15 4/73/15
f 14/53/15 56/74/15 12/75/15
f 1/67/16 51/76/16 7/77/16
f 15/78/16 53/70/16 59/79/16
f 4/73/17 52/80/17 8/59/17
f 2/61/18 49/81/18 5/65/18
f 12/75/17 60/82/17 16/62/17
f 10/64/18 57/69/18 13/83/18
f 3/56/10 50/84/10 6/71/10
f 47/55/19 66/85/19 50/84/19
f 55/58/19 74/86/19 58/52/19
f 47/55/20 67/87/20 63/88/20
f 59/89/20 71/90/20 55/58/20
f 52/80/21 62/91/21 46/60/21
f 60/82/21 70/92/21 54/63/21
f 49/81/22 61/93/22 45/66/22
f 57/69/22 69/94/22 53/70/22
f 50/84/23 64/95/23 48/72/23
f 58/52/23 72/96/23 56/74/23
f 51/76/24 61/93/24 67/97/24
f 53/70/24 75/98/24 59/79/24
f 48/72/25 68/99/25 52/80/25
f 46/60/26 65/100/26 49/81/26
f 56/74/25 76/101/25 60/82/25
f 57/69/26 70/92/26 73/102/26
f 67/97/27 77/103/27 83/104/27
f 75/98/27 85/105/27 91/106/27
f 64/95/28 84/107/28 68/99/28
f 62/91/29 81/108/29 65/100/29
f 76/101/28 88/109/28 92/110/28
f 70/92/29 89/111/29 73/102/29
f 63/88/30 82/112/30 66/85/30
f 71/90/30 90/113/30 74/86/30
f 63/88/31 83/114/31 79/115/31
f 75/116/31 87/117/31 71/90/31
f 68/99/32 78/118/32 62/91/32
f 76/101/32 86/119/32 70/92/32
f 65/100/33 77/103/33 61/93/33
f 73/102/34 85/105/34 69/94/34
f 66/85/35 80/120/35 64/95/35
f 74/86/35 88/109/35 72/96/35
f 92/110/36 102/121/36 86/119/36
f 81/108/37 93/122/37 77/103/37
f 89/111/37 101/123/37 85/105/37
f 80/120/38 98/124/38 96/125/38
f 90/113/38 104/126/38 88/109/38
f 83/104/39 93/122/39 99/127/39
f 85/105/39 107/128/39 91/106/39
f 80/120/40 100/129/40 84/107/40
f 78/118/41 97/130/41 81/108/41
f 88/109/40 108/131/40 92/110/40
f 86/119/41 105/132/41 89/111/41
f 79/115/42 98/124/42 82/112/42
f 87/117/43 106/133/43 90/113/43
f 83/114/44 95/134/44 79/115/44
f 91/135/44 103/136/44 87/117/44
f 84/107/36 94/137/36 78/118/36
f 11/51/10 55/58/10 58/52/10
f 7/54/11 51/140/11 47/55/11
f 15/57/11 59/89/11 55/58/11
f 8/59/12 52/80/12 46/60/12
f 16/62/12 60/82/12 54/63/12
f 5/65/13 49/81/13 45/66/13
f 9/68/13 13/83/13 57/69/13
f 6/71/15 50/84/15 48/72/15
f 14/53/15 58/52/15 56/74/15
f 1/67/16 45/66/16 51/76/16
f 15/78/16 9/68/16 53/70/16
f 4/73/17 48/72/17 52/80/17
f 2/61/18 46/60/18 49/81/18
f 12/75/17 56/74/17 60/82/17
f 10/64/18 54/63/18 57/69/18
f 3/56/10 47/55/10 50/84/10
f 47/55/19 63/88/19 66/85/19
f 55/58/19 71/90/19 74/86/19
f 47/55/20 51/140/20 67/87/20
f 59/89/20 75/116/20 71/90/20
f 52/80/21 68/99/21 62/91/21
f 60/82/21 76/101/21 70/92/21
f 49/81/22 65/100/22 61/93/22
f 57/69/45 73/102/45 69/94/45
f 50/84/23 66/85/23 64/95/23
f 58/52/23 74/86/23 72/96/23
f 51/76/24 45/66/24 61/93/24
f 53/70/24 69/94/24 75/98/24
f 48/72/25 64/95/25 68/99/25
f 46/60/26 62/91/26 65/100/26
f 56/74/25 72/96/25 76/101/25
f 57/69/26 54/63/26 70/92/26
f 67/97/27 61/93/27 77/103/27
f 75/98/27 69/94/27 85/105/27
f 64/95/28 80/120/28 84/107/28
f 62/91/29 78/118/29 81/108/29
f 76/101/28 72/96/28 88/109/28
f 70/92/29 86/119/29 89/111/29
f 63/88/30 79/115/30 82/112/30
f 71/90/30 87/117/30 90/113/30
f 63/88/31 67/87/31 83/114/31
f 75/116/31 91/135/31 87/117/31
f 68/99/32 84/107/32 78/118/32
f 76/101/32 92/110/32 86/119/32
f 65/100/33 81/108/33 77/103/33
f 73/102/34 89/111/34 85/105/34
f 66/85/35 82/112/35 80/120/35
f 74/86/35 90/113/35 88/109/35
f 92/110/36 108/131/36 102/121/36
f 81/108/37 97/130/37 93/122/37
f 89/111/37 105/132/37 101/123/37
f 80/120/38 82/112/38 98/124/38
f 90/113/38 106/133/38 104/126/38
f 83/104/39 77/103/39 93/122/39
f 85/105/39 101/123/39 107/128/39
f 80/120/40 96/125/40 100/129/40
f 78/118/41 94/137/41 97/130/41
f 88/109/40 104/126/40 108/131/40
f 86/119/41 102/121/41 105/132/41
f 79/115/43 95/134/43 98/124/43
f 87/117/42 103/136/42 106/133/42
f 83/114/44 99/141/44 95/134/44
f 91/135/44 107/142/44 103/136/44
f 84/107/36 100/129/36 94/137/36
