# Blender 5.0.1
# www.blender.org
mtllib pipe_0.mtl
o pipe_0
v -0.500000 0.998512 8.000000
v -0.500000 1.998512 8.000000
v -0.500000 0.998512 -8.000000
v -0.500000 1.998512 -8.000000
v 0.500000 0.998512 8.000000
v 0.500000 1.998512 8.000000
v 0.500000 0.998512 -8.000000
v 0.500000 1.998512 -8.000000
v -0.750000 1.502976 8.000000
v -0.750000 1.502976 -8.000000
v 0.750000 1.502976 -8.000000
v 0.750000 1.502976 8.000000
v 0.000000 0.747620 -8.000000
v 0.000000 2.247619 -8.000000
v 0.000000 0.747620 8.000000
v 0.000000 2.247619 8.000000
v 1.500000 0.998512 8.000000
v 1.500000 1.998512 8.000000
v 1.500000 0.998512 -8.000000
v 1.500000 1.998512 -8.000000
v 2.500000 0.998512 8.000000
v 2.500000 1.998512 8.000000
v 2.500000 0.998512 -8.000000
v 2.500000 1.998512 -8.000000
v 1.250000 1.502976 8.000000
v 1.250000 1.502976 -8.000000
v 2.750000 1.502976 -8.000000
v 2.750000 1.502976 8.000000
v 2.000000 0.747620 -8.000000
v 2.000000 2.247619 -8.000000
v 2.000000 0.747620 8.000000
v 2.000000 2.247619 8.000000
v -1.000000 -0.500000 10.000000
v -1.000000 2.300000 10.000000
v -1.000000 -0.500000 8.000000
v -1.000000 2.300000 8.000000
v 3.000000 -0.500000 10.000000
v 3.000000 2.300000 10.000000
v 3.000000 -0.500000 8.000000
v 3.000000 2.300000 8.000000
v -0.500000 0.998512 10.000000
v -0.500000 1.998512 10.000000
v 0.500000 0.998512 10.000000
v 0.500000 1.998512 10.000000
v -0.750000 1.502976 10.000000
v 0.750000 1.502976 10.000000
v 0.000000 0.747620 10.000000
v 0.000000 2.247619 10.000000
v 1.500000 0.998512 10.000000
v 1.500000 1.998512 10.000000
v 2.500000 0.998512 10.000000
v 2.500000 1.998512 10.000000
v 1.250000 1.502976 10.000000
v 2.750000 1.502976 10.000000
v 2.000000 0.747620 10.000000
v 2.000000 2.247619 10.000000
v -0.272432 2.828520 9.636216
v -0.272432 2.828520 8.363784
v 2.272432 2.828520 8.363784
v 2.272432 2.828520 9.636216
vn -0.8928 0.4504 -0.0000
vn 0.8928 0.4504 -0.0000
vn 0.4485 -0.8938 -0.0000
vn -0.4459 0.8951 -0.0000
vn 0.8960 -0.4440 -0.0000
vn -0.8960 -0.4440 -0.0000
vn -0.0000 -0.0000 -1.0000
vn 0.4459 0.8951 -0.0000
vn -0.4485 -0.8938 -0.0000
vn -1.0000 -0.0000 -0.0000
vn 1.0000 -0.0000 -0.0000
vn -0.0000 0.5670 0.8237
vn -0.0000 -0.0000 1.0000
vn -0.0000 1.0000 -0.0000
vn -0.0000 0.5670 -0.8237
vn 0.5877 0.8091 -0.0000
vn -0.5877 0.8091 -0.0000
vt 0.530576 2.867778
vt 0.628451 0.046284
vt 0.628451 2.867778
vt 0.333558 0.046284
vt 0.235683 2.867778
vt 0.235683 0.046284
vt 0.136399 0.046284
vt 0.037750 2.867778
vt 0.037750 0.046284
vt 0.530576 0.046284
vt 0.432067 2.867778
vt 0.432067 0.046284
vt 0.136399 2.867778
vt 0.727735 0.046284
vt 0.727735 2.867778
vt 2.965070 2.442082
vt 2.676654 2.532548
vt 2.785753 2.351616
vt 0.333559 2.867778
vt 0.826384 0.046284
vt 1.319211 2.867778
vt 1.417086 0.046284
vt 1.417086 2.867778
vt 1.122193 0.046284
vt 1.024318 2.867778
vt 1.024318 0.046284
vt 0.925034 0.046284
vt 0.826385 2.867778
vt 0.826385 0.046284
vt 1.319211 0.046284
vt 1.220702 2.867778
vt 1.220702 0.046284
vt 0.925034 2.867778
vt 1.516370 0.046284
vt 1.516370 2.867778
vt 1.104936 0.361363
vt 0.091717 1.085091
vt 0.091717 0.361363
vt 1.122193 2.867778
vt 1.615019 0.046284
vt 2.676658 1.085091
vt 3.689877 0.361363
vt 3.689877 1.085091
vt 2.614524 0.260825
vt 1.430349 0.493004
vt 1.167069 0.260826
vt 2.965071 1.175557
vt 2.785755 1.266022
vt 3.238408 1.446955
vt 3.147619 1.266023
vt 3.238407 2.170684
vt 3.689876 2.532548
vt 3.147618 2.351616
vt 2.965070 1.718352
vt 3.147618 1.989751
vt 2.965070 1.899285
vt 2.785754 1.627886
vt 2.785753 1.989751
vt 2.695610 2.170683
vt 2.695612 1.446954
vt 2.965073 -0.995626
vt 2.785757 -0.905160
vt 2.676660 -1.086091
vt 2.676658 0.361363
vt 2.785755 0.180431
vt 2.965072 0.270897
vt 3.147619 0.180431
vt 3.238409 -0.000501
vt 3.238409 -0.724228
vt 3.147620 -0.905160
vt 3.689877 -1.086092
vt 3.147620 -0.543297
vt 2.965072 -0.271899
vt 2.965073 -0.452831
vt 2.785756 -0.181433
vt 2.785756 -0.543297
vt 2.695614 -0.724230
vt 2.695612 -0.000501
vt 1.430349 0.953451
vt 2.351244 0.493003
vt 2.351244 0.953451
vt 1.167069 1.185629
vt 2.614525 1.185629
vt 1.104936 1.085091
vt 0.826385 2.867778
vt 1.615019 2.867778
vt 3.147618 1.627887
vt 3.147620 -0.181433
s 0
usemtl concrete_dark
f 9/16/7 36/17/7 2/18/7
f 34/36/10 35/37/10 33/38/10
f 40/41/11 37/42/11 39/43/11
f 38/44/12 57/45/12 34/46/12
f 40/41/7 28/47/7 22/48/7
f 39/43/7 31/49/7 21/50/7
f 15/51/7 35/52/7 1/53/7
f 35/52/7 9/16/7 1/53/7
f 25/54/7 5/55/7 12/56/7
f 18/57/7 12/56/7 6/58/7
f 16/59/7 18/57/7 6/58/7
f 5/55/7 31/49/7 15/51/7
f 35/52/7 31/49/7 39/43/7
f 32/60/7 36/17/7 40/41/7
f 28/47/7 39/43/7 21/50/7
f 22/48/7 32/60/7 40/41/7
f 16/59/7 2/18/7 36/17/7
f 45/61/13 42/62/13 34/63/13
f 38/64/13 52/65/13 54/66/13
f 37/42/13 51/67/13 55/68/13
f 47/69/13 41/70/13 33/71/13
f 45/61/13 33/71/13 41/70/13
f 43/72/13 53/73/13 46/74/13
f 46/74/13 50/75/13 44/76/13
f 50/75/13 48/77/13 44/76/13
f 55/68/13 43/72/13 47/69/13
f 55/68/13 33/71/13 37/42/13
f 34/63/13 56/78/13 38/64/13
f 37/42/13 54/66/13 51/67/13
f 52/65/13 38/64/13 56/78/13
f 48/77/13 34/63/13 42/62/13
f 58/79/14 60/80/14 59/81/14
f 36/82/15 59/81/15 40/83/15
f 40/41/16 60/80/16 38/64/16
f 34/36/17 58/79/17 36/84/17
f 34/36/10 36/84/10 35/37/10
f 40/41/11 38/64/11 37/42/11
f 38/44/12 60/80/12 57/45/12
f 35/52/7 36/17/7 9/16/7
f 25/54/7 17/87/7 5/55/7
f 18/57/7 25/54/7 12/56/7
f 16/59/7 32/60/7 18/57/7
f 5/55/7 17/87/7 31/49/7
f 35/52/7 15/51/7 31/49/7
f 32/60/7 16/59/7 36/17/7
f 28/47/7 40/41/7 39/43/7
f 45/61/13 34/63/13 33/71/13
f 43/72/13 49/88/13 53/73/13
f 46/74/13 53/73/13 50/75/13
f 50/75/13 56/78/13 48/77/13
f 55/68/13 49/88/13 43/72/13
f 55/68/13 47/69/13 33/71/13
f 34/63/13 48/77/13 56/78/13
f 37/42/13 38/64/13 54/66/13
f 58/79/14 57/45/14 60/80/14
f 36/82/15 58/79/15 59/81/15
f 40/41/16 59/81/16 60/80/16
f 34/36/17 57/45/17 58/79/17
usemtl metal_wear_mid
f 2/1/1 10/2/1 9/3/1
f 8/4/2 12/5/2 11/6/2
f 7/7/3 15/8/3 13/9/3
f 4/10/4 16/11/4 14/12/4
f 11/6/5 5/13/5 7/7/5
f 9/3/6 3/14/6 1/15/6
f 14/12/8 6/19/8 8/4/8
f 13/20/9 1/15/9 3/14/9
f 18/21/1 26/22/1 25/23/1
f 24/24/2 28/25/2 27/26/2
f 23/27/3 31/28/3 29/29/3
f 20/30/4 32/31/4 30/32/4
f 27/26/5 21/33/5 23/27/5
f 25/23/6 19/34/6 17/35/6
f 30/32/8 22/39/8 24/24/8
f 29/40/9 17/35/9 19/34/9
f 2/1/1 4/10/1 10/2/1
f 8/4/2 6/19/2 12/5/2
f 7/7/3 5/13/3 15/8/3
f 4/10/4 2/1/4 16/11/4
f 11/6/5 12/5/5 5/13/5
f 9/3/6 10/2/6 3/14/6
f 14/12/8 16/11/8 6/19/8
f 13/20/9 15/85/9 1/15/9
f 18/21/1 20/30/1 26/22/1
f 24/24/2 22/39/2 28/25/2
f 23/27/3 21/33/3 31/28/3
f 20/30/4 18/21/4 32/31/4
f 27/26/5 28/25/5 21/33/5
f 25/23/6 26/22/6 19/34/6
f 30/32/8 32/31/8 22/39/8
f 29/40/9 31/86/9 17/35/9
