# Blender 5.0.1
# www.blender.org
mtllib pipe_2.mtl
o pipe_2
v -0.500000 0.998512 8.000000
v -0.500000 1.998512 8.000000
v 0.500000 0.998512 8.000000
v 0.500000 1.998512 8.000000
v -0.750000 1.502976 8.000000
v 0.750000 1.502976 8.000000
v 0.000000 0.747620 8.000000
v 0.000000 2.247619 8.000000
v 1.500000 0.998512 8.000000
v 1.500000 1.998512 8.000000
v 2.500000 0.998512 8.000000
v 2.500000 1.998512 8.000000
v 1.250000 1.502976 8.000000
v 2.750000 1.502976 8.000000
v 2.000000 0.747620 8.000000
v 2.000000 2.247619 8.000000
v -1.000000 -0.500000 10.000000
v -1.000000 2.300000 10.000000
v -1.000000 -0.500000 8.000000
v -1.000000 2.300000 8.000000
v 3.000000 -0.500000 10.000000
v 3.000000 2.300000 10.000000
v 3.000000 -0.500000 8.000000
v 3.000000 2.300000 8.000000
v -0.500000 0.998512 10.000000
v -0.500000 1.998512 10.000000
v 0.500000 0.998512 10.000000
v 0.500000 1.998512 10.000000
v -0.750000 1.502976 10.000000
v 0.750000 1.502976 10.000000
v 0.000000 0.747620 10.000000
v 0.000000 2.247619 10.000000
v 1.500000 0.998512 10.000000
v 1.500000 1.998512 10.000000
v 2.500000 0.998512 10.000000
v 2.500000 1.998512 10.000000
v 1.250000 1.502976 10.000000
v 2.750000 1.502976 10.000000
v 2.000000 0.747620 10.000000
v 2.000000 2.247619 10.000000
v -0.272432 2.828520 9.636216
v -0.272432 2.828520 8.363784
v 2.272432 2.828520 8.363784
v 2.272432 2.828520 9.636216
v -0.500000 0.730763 7.000743
v -0.500000 1.596788 6.500743
v 0.500000 0.730763 7.000743
v 0.500000 1.596788 6.500743
v -0.750000 1.167642 6.748511
v 0.750000 1.167642 6.748511
v 0.000000 0.513484 7.126190
v 0.000000 1.812521 6.376190
v 1.500000 0.730763 7.000743
v 1.500000 1.596788 6.500743
v 2.500000 0.730763 7.000743
v 2.500000 1.596788 6.500743
v 1.250000 1.167642 6.748511
v 2.750000 1.167642 6.748511
v 2.000000 0.513484 7.126190
v 2.000000 1.812521 6.376190
v -0.500000 -0.000743 6.269237
v -0.500000 0.499257 5.403211
v 0.500000 -0.000743 6.269237
v 0.500000 0.499257 5.403211
v -0.750000 0.251489 5.832358
v 0.750000 0.251489 5.832358
v 0.000000 -0.126189 6.486516
v 0.000000 0.623810 5.187478
v 1.500000 -0.000743 6.269237
v 1.500000 0.499257 5.403211
v 2.500000 -0.000743 6.269237
v 2.500000 0.499257 5.403211
v 1.250000 0.251489 5.832358
v 2.750000 0.251489 5.832358
v 2.000000 -0.126189 6.486516
v 2.000000 0.623810 5.187478
v -0.500000 -0.999999 6.001486
v -0.500000 -0.999999 5.001486
v 0.500000 -0.999999 6.001486
v 0.500000 -0.999999 5.001486
v -0.750000 -1.000000 5.497022
v 0.750000 -1.000000 5.497022
v 0.000000 -0.999999 6.252378
v 0.000000 -1.000000 4.752379
v 1.500000 -0.999999 6.001486
v 1.500000 -0.999999 5.001486
v 2.500000 -0.999999 6.001486
v 2.500000 -0.999999 5.001486
v 1.250000 -1.000000 5.497022
v 2.750000 -1.000000 5.497022
v 2.000000 -0.999999 6.252378
v 2.000000 -1.000000 4.752379
vn -0.0000 -0.0000 -1.0000
vn -1.0000 -0.0000 -0.0000
vn 1.0000 -0.0000 -0.0000
vn -0.0000 0.5670 0.8237
vn -0.0000 -0.0000 1.0000
vn -0.0000 1.0000 -0.0000
vn -0.0000 0.5670 -0.8237
vn 0.5877 0.8091 -0.0000
vn -0.5877 0.8091 -0.0000
vn 0.4362 -0.8692 0.2329
vn -0.4336 0.8704 -0.2332
vn -0.8897 -0.4409 0.1181
vn 0.8864 0.4472 -0.1198
vn -0.4362 -0.8692 0.2329
vn 0.4336 0.8704 -0.2332
vn -0.8864 0.4472 -0.1198
vn 0.8897 -0.4409 0.1181
vn 0.8897 -0.3228 0.3228
vn 0.4362 -0.6363 0.6363
vn -0.4336 0.6372 -0.6372
vn -0.8897 -0.3228 0.3228
vn 0.8864 0.3274 -0.3274
vn -0.4362 -0.6363 0.6363
vn 0.4336 0.6372 -0.6372
vn -0.8864 0.3274 -0.3274
vn -0.4362 -0.2329 0.8692
vn 0.4336 0.2332 -0.8704
vn -0.8864 0.1198 -0.4472
vn 0.8897 -0.1181 0.4409
vn 0.4362 -0.2329 0.8692
vn -0.4336 0.2332 -0.8704
vn -0.8897 -0.1181 0.4409
vn 0.8864 0.1198 -0.4472
vt 2.965070 2.442082
vt 2.676654 2.532548
vt 2.785753 2.351616
vt 1.104936 0.361363
vt 0.091717 1.085091
vt 0.091717 0.361363
vt 2.676658 1.085091
vt 3.689877 0.361363
vt 3.689877 1.085091
vt 2.614524 0.260825
vt 1.430349 0.493004
vt 1.167069 0.260826
vt 2.965071 1.175557
vt 2.785755 1.266022
vt 3.238408 1.446955
vt 3.147619 1.266023
vt 3.238407 2.170684
vt 3.689876 2.532548
vt 3.147618 2.351616
vt 2.965070 1.718352
vt 3.147618 1.989751
vt 2.965070 1.899285
vt 2.785754 1.627886
vt 2.785753 1.989751
vt 2.695610 2.170683
vt 2.695612 1.446954
vt 2.965073 -0.995626
vt 2.785757 -0.905160
vt 2.676660 -1.086091
vt 2.676658 0.361363
vt 2.785755 0.180431
vt 2.965072 0.270897
vt 3.147619 0.180431
vt 3.238409 -0.000501
vt 3.238409 -0.724228
vt 3.147620 -0.905160
vt 3.689877 -1.086092
vt 3.147620 -0.543297
vt 2.965072 -0.271899
vt 2.965073 -0.452831
vt 2.785756 -0.181433
vt 2.785756 -0.543297
vt 2.695614 -0.724230
vt 2.695612 -0.000501
vt 1.430349 0.953451
vt 2.351244 0.493003
vt 2.351244 0.953451
vt 1.167069 1.185629
vt 2.614525 1.185629
vt 1.104936 1.085091
vt 1.412111 0.835998
vt 1.201777 0.920627
vt 1.209587 0.808212
vt 0.698337 0.437991
vt 0.458375 0.545703
vt 0.455193 0.468996
vt 1.475677 0.534290
vt 1.211667 0.469050
vt 1.455562 0.438079
vt 0.661357 0.346623
vt 0.439733 0.294040
vt 0.619298 0.256027
vt 1.418407 0.346479
vt 1.196311 0.293882
vt 1.376184 0.255714
vt 0.710902 0.634341
vt 0.456568 0.708088
vt 0.459114 0.623218
vt 1.443120 0.732689
vt 1.216257 0.623028
vt 1.468148 0.633883
vt 0.429539 0.194086
vt 0.587736 0.161285
vt 1.344479 0.160836
vt 1.186137 0.193948
vt 0.718533 0.534870
vt 0.448496 0.387329
vt 1.215072 0.545451
vt 1.205034 0.387266
vt 0.654831 0.836207
vt 0.685827 0.733021
vt 1.213772 0.707855
vt 0.633035 0.950055
vt 0.452314 0.808488
vt 1.007212 0.809207
vt 0.996297 0.709984
vt 0.260292 0.919463
vt 0.250122 0.809254
vt 0.235993 0.469021
vt 0.992852 0.469108
vt 0.253017 0.293172
vt 1.009646 0.292865
vt 0.235008 0.624807
vt 0.992130 0.624571
vt 0.264722 0.191967
vt 1.021456 0.191914
vt 0.233739 0.546576
vt 0.241846 0.386867
vt 0.990571 0.546454
vt 0.998104 0.386397
vt 0.239199 0.710148
vt 0.859508 0.154870
vt -0.024147 0.642014
vt -0.038522 0.536979
vt 0.022749 0.344559
vt 0.732848 0.641657
vt 0.718533 0.536571
vt 0.780483 0.343427
vt 0.051889 0.843876
vt 0.010238 0.743523
vt 0.808801 0.843674
vt 0.767189 0.743240
vt 0.083438 0.950055
vt 0.840267 0.949929
vt -0.016416 0.437527
vt 0.740781 0.437115
vt 0.067541 0.252117
vt 0.825181 0.251613
vt 0.101943 0.154870
vt 3.147618 1.627887
vt 3.147620 -0.181433
vt 1.390203 0.949929
vt 0.444764 0.920980
vt 1.017219 0.919485
s 0
usemtl concrete_dark
f 5/1/1 20/2/1 2/3/1
f 18/4/2 19/5/2 17/6/2
f 24/7/3 21/8/3 23/9/3
f 22/10/4 41/11/4 18/12/4
f 24/7/1 14/13/1 12/14/1
f 23/9/1 15/15/1 11/16/1
f 7/17/1 19/18/1 1/19/1
f 19/18/1 5/1/1 1/19/1
f 13/20/1 3/21/1 6/22/1
f 10/23/1 6/22/1 4/24/1
f 8/25/1 10/23/1 4/24/1
f 3/21/1 15/15/1 7/17/1
f 19/18/1 15/15/1 23/9/1
f 16/26/1 20/2/1 24/7/1
f 14/13/1 23/9/1 11/16/1
f 12/14/1 16/26/1 24/7/1
f 8/25/1 2/3/1 20/2/1
f 29/27/5 26/28/5 18/29/5
f 22/30/5 36/31/5 38/32/5
f 21/8/5 35/33/5 39/34/5
f 31/35/5 25/36/5 17/37/5
f 29/27/5 17/37/5 25/36/5
f 27/38/5 37/39/5 30/40/5
f 30/40/5 34/41/5 28/42/5
f 34/41/5 32/43/5 28/42/5
f 39/34/5 27/38/5 31/35/5
f 39/34/5 17/37/5 21/8/5
f 18/29/5 40/44/5 22/30/5
f 21/8/5 38/32/5 35/33/5
f 36/31/5 22/30/5 40/44/5
f 32/43/5 18/29/5 26/28/5
f 42/45/6 44/46/6 43/47/6
f 20/48/7 43/47/7 24/49/7
f 24/7/8 44/46/8 22/30/8
f 18/4/9 42/45/9 20/50/9
f 18/4/2 20/50/2 19/5/2
f 24/7/3 22/30/3 21/8/3
f 22/10/4 44/46/4 41/11/4
f 19/18/1 20/2/1 5/1/1
f 13/20/1 9/120/1 3/21/1
f 10/23/1 13/20/1 6/22/1
f 8/25/1 16/26/1 10/23/1
f 3/21/1 9/120/1 15/15/1
f 19/18/1 7/17/1 15/15/1
f 16/26/1 8/25/1 20/2/1
f 14/13/1 24/7/1 23/9/1
f 29/27/5 18/29/5 17/37/5
f 27/38/5 33/121/5 37/39/5
f 30/40/5 37/39/5 34/41/5
f 34/41/5 40/44/5 32/43/5
f 39/34/5 33/121/5 27/38/5
f 39/34/5 31/35/5 17/37/5
f 18/29/5 32/43/5 40/44/5
f 21/8/5 22/30/5 38/32/5
f 42/45/6 41/11/6 44/46/6
f 20/48/7 42/45/7 43/47/7
f 24/7/8 43/47/8 44/46/8
f 18/4/9 41/11/9 42/45/9
usemtl metal_wear_mid
f 11/51/10 59/52/10 55/53/10
f 2/54/11 52/55/11 46/56/11
f 16/57/11 54/58/11 10/59/11
f 5/60/12 45/61/12 1/62/12
f 13/63/12 53/64/12 9/65/12
f 4/66/13 50/67/13 48/68/13
f 14/69/13 56/70/13 12/71/13
f 1/62/14 51/72/14 7/73/14
f 15/74/14 53/64/14 59/75/14
f 4/66/15 52/55/15 8/76/15
f 2/54/16 49/77/16 5/60/16
f 16/57/15 56/70/15 60/78/15
f 10/59/16 57/79/16 13/63/16
f 3/80/17 50/67/17 6/81/17
f 14/69/17 55/53/17 58/82/17
f 7/83/10 47/84/10 3/80/10
f 58/82/18 71/85/18 74/86/18
f 47/84/19 67/87/19 63/88/19
f 59/52/19 71/85/19 55/53/19
f 52/55/20 62/89/20 46/56/20
f 60/78/20 70/90/20 54/58/20
f 49/77/21 61/91/21 45/61/21
f 57/79/21 69/92/21 53/64/21
f 50/67/22 64/93/22 48/68/22
f 58/82/22 72/94/22 56/70/22
f 45/61/23 67/95/23 51/72/23
f 53/64/23 75/96/23 59/75/23
f 52/55/24 64/93/24 68/97/24
f 49/77/25 62/89/25 65/98/25
f 60/78/24 72/94/24 76/99/24
f 54/58/25 73/100/25 57/79/25
f 47/84/18 66/101/18 50/67/18
f 69/92/26 91/102/26 75/96/26
f 68/97/27 80/103/27 84/104/27
f 62/89/28 81/105/28 65/98/28
f 76/99/27 88/106/27 92/107/27
f 70/90/28 89/108/28 73/100/28
f 66/101/29 79/109/29 82/110/29
f 74/86/29 87/111/29 90/112/29
f 63/88/30 83/113/30 79/109/30
f 71/85/30 91/114/30 87/111/30
f 68/97/31 78/115/31 62/89/31
f 76/99/31 86/116/31 70/90/31
f 65/98/32 77/117/32 61/91/32
f 73/100/32 85/118/32 69/92/32
f 66/101/33 80/103/33 64/93/33
f 74/86/33 88/106/33 72/94/33
f 61/91/26 83/119/26 67/95/26
f 11/51/10 15/122/10 59/52/10
f 2/54/11 8/76/11 52/55/11
f 16/57/11 60/78/11 54/58/11
f 5/60/12 49/77/12 45/61/12
f 13/63/12 57/79/12 53/64/12
f 4/66/13 6/81/13 50/67/13
f 14/69/13 58/82/13 56/70/13
f 1/62/14 45/61/14 51/72/14
f 15/74/14 9/65/14 53/64/14
f 4/66/15 48/68/15 52/55/15
f 2/54/16 46/56/16 49/77/16
f 16/57/15 12/71/15 56/70/15
f 10/59/16 54/58/16 57/79/16
f 3/80/17 47/84/17 50/67/17
f 14/69/17 11/51/17 55/53/17
f 7/83/10 51/123/10 47/84/10
f 58/82/18 55/53/18 71/85/18
f 47/84/19 51/123/19 67/87/19
f 59/52/19 75/124/19 71/85/19
f 52/55/20 68/97/20 62/89/20
f 60/78/20 76/99/20 70/90/20
f 49/77/21 65/98/21 61/91/21
f 57/79/21 73/100/21 69/92/21
f 50/67/22 66/101/22 64/93/22
f 58/82/22 74/86/22 72/94/22
f 45/61/23 61/91/23 67/95/23
f 53/64/23 69/92/23 75/96/23
f 52/55/24 48/68/24 64/93/24
f 49/77/25 46/56/25 62/89/25
f 60/78/24 56/70/24 72/94/24
f 54/58/25 70/90/25 73/100/25
f 47/84/18 63/88/18 66/101/18
f 69/92/26 85/118/26 91/102/26
f 68/97/27 64/93/27 80/103/27
f 62/89/28 78/115/28 81/105/28
f 76/99/27 72/94/27 88/106/27
f 70/90/28 86/116/28 89/108/28
f 66/101/29 63/88/29 79/109/29
f 74/86/29 71/85/29 87/111/29
f 63/88/30 67/87/30 83/113/30
f 71/85/30 75/124/30 91/114/30
f 68/97/31 84/104/31 78/115/31
f 76/99/31 92/107/31 86/116/31
f 65/98/32 81/105/32 77/117/32
f 73/100/32 89/108/32 85/118/32
f 66/101/33 82/110/33 80/103/33
f 74/86/33 90/112/33 88/106/33
f 61/91/26 77/117/26 83/119/26
