# Blender 5.1.2
# www.blender.org
mtllib plantation_0.mtl
o plantation_0
v -4.000000 -0.500000 10.000000
v -1.000000 -0.500000 -9.997948
v -4.000000 1.000000 10.000000
v -4.000000 -0.500000 -10.000000
v -1.000000 -0.500000 -11.564207
v -4.000000 1.000000 -10.000000
v 4.000000 -0.500000 10.000000
v 4.000000 1.000000 10.000000
v 1.000000 -0.500000 -11.564207
v 4.000000 -0.500000 -10.000000
v 4.000000 1.000000 -10.000000
v -2.485428 4.000000 9.386117
v -2.485428 4.000000 -9.386117
v 2.485428 4.000000 -9.386117
v 2.485428 4.000000 9.386117
v -1.194386 -0.500000 10.004622
v 1.194385 -0.500000 10.004622
v 1.194385 3.121617 9.564214
v -1.194386 3.121617 9.564214
v -0.901898 0.000000 11.879025
v 0.901899 0.000000 11.879025
v 0.901899 2.829131 11.879025
v -0.901898 2.829131 11.879025
v -1.194385 0.000000 12.103150
v 1.194385 0.000000 12.103150
v 1.194385 3.121617 12.103150
v -1.194385 3.121617 12.103150
v 1.194385 -0.500000 13.199410
v -1.194385 -0.500000 13.199410
v -1.000000 2.124486 -9.771655
v -1.000000 2.139220 -11.564207
v -1.000000 1.001025 -9.991594
v 1.000000 2.139220 -11.564207
v 1.000000 -0.500000 -9.997948
v 1.000000 1.001025 -9.991594
v 1.000000 2.124486 -9.771655
vn -1.0000 -0.0000 -0.0000
vn 0.0007 -0.0000 -1.0000
vn -0.0028 0.0042 -1.0000
vn 1.0000 -0.0000 -0.0000
vn 0.0009 0.2000 0.9798
vn -0.0000 0.2014 -0.9795
vn -0.0000 1.0000 -0.0000
vn 0.8927 0.4507 -0.0000
vn -0.8927 0.4507 -0.0000
vn -0.0000 0.1987 0.9801
vn -0.0000 -0.0000 1.0000
vn -0.6082 -0.0000 0.7938
vn 0.6082 -0.0000 0.7938
vn -0.0000 -0.6082 0.7938
vn -0.0000 0.9098 0.4150
vn -0.0009 0.2000 0.9798
vn -0.0628 0.1205 0.9907
vn 0.0628 0.1205 0.9907
vn -0.0016 -0.0000 1.0000
vn 0.0016 -0.0000 1.0000
vn -0.0000 -0.0000 -1.0000
vn -0.0000 1.0000 0.0082
vn 0.0028 0.0042 -1.0000
vn -0.0007 -0.0000 -1.0000
vn 0.0027 0.1921 -0.9814
vn -0.0000 0.2005 -0.9797
vn -0.0027 0.1992 -0.9800
vn 0.0121 0.1921 -0.9813
vn -0.0030 0.2067 -0.9784
vt 0.413044 2.263153
vt 0.573014 0.070592
vt 0.573014 2.263153
vt 1.970321 0.947616
vt 2.133926 0.618732
vt 2.133926 0.947616
vt 1.970321 0.070591
vt 2.133926 0.399476
vt 1.970320 0.399476
vt 0.931414 2.263153
vt 1.091384 0.070591
vt 1.091384 2.263153
vt 1.073381 1.913953
vt 0.841756 2.636245
vt 0.753560 1.736941
vt 1.636329 0.236631
vt 1.846771 0.399476
vt 1.846771 0.618732
vt 1.091384 2.128555
vt 1.636329 0.070591
vt 1.636329 2.128555
vt 0.573014 0.137890
vt 0.931414 0.070591
vt 0.054644 0.137890
vt 0.413044 0.070591
vt 0.763649 1.143312
vt 4.326486 0.267090
vt 3.658389 0.923119
vt 3.551378 0.267090
vt 3.613977 1.236608
vt 4.000030 1.717226
vt 3.613977 1.717226
vt 3.241656 4.217928
vt 2.573559 3.561900
vt 3.241656 3.561900
vt 5.071364 3.452378
vt 4.560117 4.106801
vt 4.560114 3.452377
vt 3.551378 1.688050
vt 3.551378 1.157744
vt 4.000030 1.236608
vt 4.062628 1.688050
vt 4.062628 1.157744
vt 2.466547 4.217929
vt 2.466547 3.327275
vt 3.551378 1.157743
vt 4.110479 1.668994
vt 4.352012 1.157750
vt 4.352012 1.669001
vt 4.062628 1.220343
vt 4.062628 1.606396
vt 0.838773 0.243788
vt 1.091773 0.962550
vt 0.086756 0.426994
vt 0.086756 2.479444
vt 0.636713 2.929367
vt 0.618251 -0.041228
vt 0.193129 1.038048
vt 0.186257 0.451844
vt 1.018861 0.007024
vt -0.017841 0.013586
vt 1.039917 0.992041
vt -0.024587 0.990581
vt 0.762336 0.438035
vt 0.007115 1.020469
vt 0.000486 0.010641
vt 0.896306 -0.000000
vt 0.000000 1.000000
vt -0.000000 0.000000
vt 1.970320 0.618732
vt 2.133926 0.070591
vt 1.636329 0.781576
vt 1.091384 0.070591
vt 0.573014 2.195854
vt 0.054644 2.195854
vt 4.326486 0.923119
vt 5.071367 4.106801
vt 4.110479 1.157744
vt 1.032376 1.037559
vt 0.069432 0.011506
vt 1.032661 0.011692
vt 0.861834 0.007240
vt 0.768254 1.010459
vt 0.896306 1.000000
s 0
usemtl concrete
f 3/1/1 4/2/1 1/3/1
f 6/4/2 2/5/2 4/6/2
f 11/7/3 34/8/3 35/9/3
f 11/10/4 7/11/4 10/12/4
f 12/13/5 3/14/5 19/15/5
f 14/16/6 36/17/6 30/18/6
f 13/19/7 15/20/7 14/21/7
f 11/10/8 15/22/8 8/23/8
f 3/1/9 13/24/9 6/25/9
f 18/26/10 12/13/10 19/15/10
f 18/27/4 25/28/4 17/29/4
f 19/33/1 24/34/1 27/35/1
f 19/36/7 26/37/7 18/38/7
f 22/30/12 25/39/12 26/40/12
f 23/41/13 24/42/13 20/31/13
f 23/41/14 26/40/14 27/43/14
f 24/34/1 16/44/1 29/45/1
f 25/28/4 28/46/4 17/29/4
f 25/47/15 29/48/15 28/49/15
f 20/50/7 25/47/7 21/51/7
f 18/26/16 8/52/16 15/53/16
f 17/54/17 8/52/17 18/26/17
f 16/55/18 19/15/18 3/14/18
f 3/14/19 1/56/19 16/55/19
f 8/52/20 17/54/20 7/57/20
f 3/1/1 6/25/1 4/2/1
f 6/4/23 32/70/23 2/5/23
f 11/7/24 10/71/24 34/8/24
f 11/10/4 8/23/4 7/11/4
f 30/18/25 32/70/25 6/4/25
f 6/4/26 13/72/26 14/16/26
f 14/16/27 11/7/27 35/9/27
f 14/16/28 35/9/28 36/17/28
f 30/18/29 6/4/29 14/16/29
f 13/19/7 12/73/7 15/20/7
f 11/10/8 14/74/8 15/22/8
f 3/1/9 12/75/9 13/24/9
f 18/26/10 15/53/10 12/13/10
f 18/27/4 26/76/4 25/28/4
f 19/33/1 16/44/1 24/34/1
f 19/36/7 27/77/7 26/37/7
f 22/30/12 21/32/12 25/39/12
f 23/41/13 27/43/13 24/42/13
f 23/41/14 22/30/14 26/40/14
f 25/47/15 24/78/15 29/48/15
f 20/50/7 24/78/7 25/47/7
usemtl garage_door
f 22/30/11 20/31/11 21/32/11
f 22/30/11 23/41/11 20/31/11
usemtl vents
f 2/58/1 32/59/1 31/60/1
f 31/61/21 9/62/21 5/63/21
f 35/64/4 9/65/4 33/66/4
f 31/60/1 5/79/1 2/58/1
f 32/59/1 30/80/1 31/60/1
f 31/61/21 33/81/21 9/62/21
f 33/66/4 36/82/4 35/64/4
f 35/64/4 34/83/4 9/65/4
usemtl vent_fan_color
f 30/67/22 33/68/22 31/69/22
f 30/67/22 36/84/22 33/68/22
