# Blender 5.1.2
# www.blender.org
mtllib plantation_1.mtl
o plantation_1
v -4.000000 -0.500000 10.000000
v -4.000000 -0.500000 -10.000000
v 4.000000 -0.500000 10.000000
v 4.000433 0.997884 10.000000
v 4.000000 -0.500000 -10.000000
v 2.485697 3.997884 -9.386117
v 2.485697 3.997884 9.386117
v -1.194386 -0.500000 10.005329
v 1.194385 -0.500000 10.005329
v 1.194385 3.121617 9.574977
v -1.194386 3.121617 9.574977
v -0.901898 0.000000 11.879025
v 0.901899 0.000000 11.879025
v 0.901899 2.829131 11.879025
v -0.901898 2.829131 11.879025
v -1.194385 0.000000 12.103150
v 1.194385 0.000000 12.103150
v 1.194385 3.121617 12.103150
v -1.194385 3.121617 12.103150
v 1.194385 -0.500000 13.199410
v -1.194385 -0.500000 13.199410
v -1.000000 -0.500000 -9.995080
v -1.000000 2.139220 -9.746192
v -1.000000 -0.500000 -11.564207
v -1.000000 2.139220 -11.564207
v 1.000000 -0.500000 -9.995080
v 1.000000 2.139220 -9.746192
v 1.000000 -0.500000 -11.564207
v 1.000000 2.139220 -11.564207
v -4.000433 0.997884 5.000000
v 2.485697 3.997884 7.039588
v 4.000433 0.997884 -2.500000
v 2.485697 3.997884 -2.346529
v 4.000433 0.997884 2.500000
v 4.000433 0.997884 -7.500000
v 4.000433 0.997884 8.750000
v 2.485697 3.997884 8.212852
v 4.000433 0.997884 3.750000
v 4.000433 0.997884 -6.250000
v 2.485697 3.997884 -5.866323
v 2.485697 3.997884 5.866323
v 2.485697 3.997884 -3.519794
v -3.987348 -0.500000 -8.750000
v 3.987348 -0.500000 8.750000
v -1.988343 3.549343 -8.212852
v 1.988343 3.549343 8.212852
v -3.987348 -0.500000 2.500000
v 3.987348 -0.500000 -2.500000
v -1.988343 3.549343 2.346529
v 1.988343 3.549343 -2.346529
v -3.987348 -0.500000 -3.750000
v -3.987348 -0.500000 -5.000000
v 3.987348 -0.500000 3.750000
v 3.987348 -0.500000 5.000000
v -1.988343 3.549343 -3.519794
v -1.988343 3.549343 -4.693058
v 1.988343 3.549343 3.519794
v 1.988343 3.549343 4.693058
v 1.988343 3.549343 -4.693058
v -3.987348 -0.500000 5.000000
v -1.988343 3.549343 4.693058
v 3.987348 -0.500000 -5.000000
v -3.987348 -0.500000 -6.250000
v -3.987348 -0.500000 -7.500000
v 3.987348 -0.500000 6.250000
v 3.987348 -0.500000 7.500000
v -1.988343 3.549343 -5.866323
v -1.988343 3.549343 -7.039588
v 1.988343 3.549343 5.866323
v 1.988343 3.549343 7.039588
v -3.987348 -0.500000 -2.500000
v 3.987348 -0.500000 2.500000
v -1.988343 3.549343 -2.346529
v 1.988343 3.549343 2.346529
v 1.988343 3.549343 -7.039588
v -3.987348 -0.500000 7.500000
v -1.988343 3.549343 7.039588
v 3.987348 -0.500000 -7.500000
v -3.987348 -0.500000 6.250000
v 3.987348 -0.500000 -6.250000
v -1.988343 3.549343 5.866323
v 1.988343 3.549343 -5.866323
v -3.987348 -0.500000 3.750000
v 3.987348 -0.500000 -3.750000
v -1.988343 3.549343 3.519794
v 1.988343 3.549343 -3.519794
v -3.987348 -0.500000 8.750000
v 3.987348 -0.500000 -8.750000
v -1.988343 3.549343 8.212852
v 1.988343 3.549343 -8.212852
v -4.000433 0.997884 -8.750000
v -4.000433 0.997884 -10.000000
v -2.485697 3.997884 -8.212852
v -2.485697 3.997884 -9.386117
v -2.485697 3.997884 9.386117
v 4.000433 0.997884 -10.000000
v -4.000433 0.997884 10.000000
v -4.000433 0.997884 2.500000
v -4.000433 0.997884 0.000000
v 4.000433 0.997884 0.000000
v -2.485697 3.997884 2.346529
v -2.485966 3.995768 0.000000
v 2.485966 3.995768 0.000000
v -4.000433 0.997884 -3.750000
v -4.000433 0.997884 -5.000000
v 4.000433 0.997884 5.000000
v -2.485697 3.997884 -3.519794
v -2.485697 3.997884 -4.693058
v 2.485697 3.997884 3.519794
v 2.485697 3.997884 4.693058
v 2.485697 3.997884 -4.693058
v -2.485697 3.997884 4.693058
v 4.000433 0.997884 -5.000000
v -4.000433 0.997884 -6.250000
v -4.000433 0.997884 -7.500000
v 4.000433 0.997884 6.250000
v 4.000433 0.997884 7.500000
v -2.485697 3.997884 -5.866323
v -2.485697 3.997884 -7.039588
v -4.000433 0.997884 -2.500000
v -2.485697 3.997884 -2.346529
v 2.485697 3.997884 2.346529
v 2.485697 3.997884 -7.039588
v -4.000433 0.997884 7.500000
v -2.485697 3.997884 7.039588
v -4.000433 0.997884 6.250000
v -2.485697 3.997884 5.866323
v -4.000433 0.997884 3.750000
v 4.000433 0.997884 -3.750000
v -2.485697 3.997884 3.519794
v -4.000433 0.997884 8.750000
v 4.000433 0.997884 -8.750000
v -2.485697 3.997884 8.212852
v 2.485697 3.997884 -8.212852
v 0.500000 0.643286 9.454661
v 2.500000 0.643286 9.454661
v 0.500000 0.643286 -9.454661
v 2.500000 0.643286 -9.454661
v -2.500000 0.643286 9.454661
v -0.500000 0.643286 9.454661
v -2.500000 0.643286 -9.454661
v -0.500000 0.643286 -9.454661
v -3.724262 0.143286 9.310656
v 3.724262 0.143286 9.310656
v -3.724262 0.143286 -9.310656
v 3.724262 0.143286 -9.310656
v 0.500000 0.160071 -9.454661
v 0.500000 0.160071 9.454661
v 2.500000 0.160071 9.454661
v 2.500000 0.160071 -9.454661
v -2.500000 0.160071 9.454661
v -2.500000 0.160071 -9.454661
v -0.500000 0.160071 9.454661
v -0.500000 0.160071 -9.454661
v -1.000000 1.006131 -9.993392
v 1.000000 1.006131 -9.993392
vn -1.0000 -0.0003 -0.0000
vn 0.0022 0.0011 -1.0000
vn 1.0000 -0.0003 -0.0000
vn -0.0000 0.2107 0.9776
vn 0.2207 0.0019 -0.9753
vn 1.0000 -0.0000 -0.0000
vn -0.0000 -0.0000 1.0000
vn -1.0000 -0.0000 -0.0000
vn -0.0000 1.0000 -0.0000
vn -0.6082 -0.0000 0.7938
vn 0.6082 -0.0000 0.7938
vn -0.0000 -0.6082 0.7938
vn -0.0000 0.9098 0.4150
vn -0.0000 -0.0000 -1.0000
vn 0.0317 0.0351 0.9989
vn -0.0317 0.0351 -0.9989
vn 0.2553 -0.0022 0.9669
vn -0.2553 -0.0022 -0.9669
vn 0.0787 -0.0873 -0.9931
vn -0.0787 -0.0873 0.9931
vn -0.2207 0.0019 0.9753
vn 0.1853 -0.0016 0.9827
vn -0.1853 -0.0016 -0.9827
vn -0.0474 -0.0526 0.9975
vn -0.0752 0.0007 0.9972
vn 0.0474 -0.0526 -0.9975
vn 0.0752 0.0007 -0.9972
vn 0.0942 0.1044 0.9901
vn -0.1492 0.0013 0.9888
vn -0.0942 0.1044 -0.9901
vn 0.1492 0.0013 -0.9888
vn 0.1095 -0.1214 -0.9866
vn 0.0631 0.0700 0.9955
vn -0.1095 -0.1214 0.9866
vn -0.0631 0.0700 -0.9955
vn 0.1124 -0.0010 0.9937
vn -0.1124 -0.0010 -0.9937
vn 0.8927 0.4507 -0.0000
vn -0.8927 0.4507 -0.0000
vn -0.0000 1.0000 0.0009
vn -0.0000 1.0000 -0.0009
vn 0.8926 0.4509 0.0003
vn -0.8926 0.4509 -0.0003
vn -0.0610 0.1178 0.9912
vn -0.0054 0.2031 0.9791
vn -0.0019 -0.0000 1.0000
vn 0.0019 -0.0000 1.0000
vn 0.0082 0.1965 -0.9805
vn -0.0016 -0.0000 -1.0000
vn -0.0082 0.1965 -0.9805
vn -0.0000 0.1902 -0.9817
vn 0.0016 -0.0000 -1.0000
vn 0.0942 0.1044 -0.9901
vn 0.0752 0.0007 0.9972
vn -0.0752 0.0007 -0.9972
vn 0.1095 -0.1214 0.9866
vn -0.1095 -0.1214 -0.9866
vn 0.1853 -0.0016 -0.9827
vn -0.1853 -0.0016 0.9827
vn -0.0942 0.1044 0.9901
vn 0.0787 -0.0873 0.9931
vn -0.0787 -0.0873 -0.9931
vn -0.1124 -0.0010 0.9937
vn -0.0317 0.0351 0.9989
vn 0.1124 -0.0010 -0.9937
vn 0.0317 0.0351 -0.9989
vn 0.2207 0.0019 0.9753
vn -0.0631 0.0700 0.9955
vn -0.2207 0.0019 -0.9753
vn 0.0631 0.0700 -0.9955
vn 0.2553 -0.0022 -0.9669
vn 0.1492 0.0013 0.9888
vn -0.2553 -0.0022 0.9669
vn -0.1492 0.0013 -0.9888
vn 0.0474 -0.0526 0.9975
vn -0.0474 -0.0526 -0.9975
vn -0.8926 0.4509 0.0003
vn 0.8926 0.4509 -0.0003
vn 0.0054 0.2031 0.9791
vn 0.0610 0.1178 0.9912
vn 0.0016 0.2132 -0.9770
vn -0.0022 0.0011 -1.0000
vn -0.0016 0.2132 -0.9770
vt 0.413044 1.440942
vt 0.413044 1.166872
vt 0.573014 0.070592
vt 1.088070 1.963849
vt 0.430475 2.250148
vt 0.825713 1.721367
vt 0.931414 1.440942
vt 0.931414 1.166872
vt 1.091384 0.070591
vt 1.126642 2.137559
vt 0.791343 1.303389
vt 1.146532 1.107674
vt 0.000000 0.000000
vt 4.326486 0.267090
vt 3.658389 0.923119
vt 3.551378 0.267090
vt 3.613977 1.236608
vt 4.000030 1.717226
vt 3.613977 1.717226
vt 3.241656 4.217928
vt 2.573559 3.561900
vt 3.241656 3.561900
vt 4.560114 3.452377
vt 5.071367 4.106801
vt 4.560117 4.106801
vt 3.551378 1.688050
vt 3.551378 1.157744
vt 4.000030 1.236608
vt 4.062628 1.688050
vt 4.062628 1.157744
vt 2.466547 4.217929
vt 2.466547 3.327275
vt 3.551378 1.157743
vt 4.110479 1.668994
vt 4.352012 1.157750
vt 4.352012 1.669001
vt 4.062628 1.220343
vt 4.062628 1.606396
vt 0.162530 0.437352
vt 1.012686 0.004265
vt 1.012686 1.013024
vt -0.003897 0.003445
vt 1.358904 1.028684
vt -0.003897 1.028684
vt 0.013667 0.002715
vt 0.863824 0.435802
vt 0.862910 1.011474
vt 0.987902 0.015770
vt 0.010328 0.993345
vt 0.010328 0.015770
vt 1.091384 0.199214
vt 1.636329 0.070591
vt 1.636329 0.199214
vt 0.931414 2.126118
vt 0.573014 2.195854
vt 0.573014 2.067231
vt 0.413044 2.126118
vt 0.054644 2.195854
vt 0.054644 2.067231
vt 0.054644 0.909627
vt 0.413044 0.892802
vt 0.573014 0.909627
vt 0.931414 0.892802
vt 1.091384 1.356819
vt 1.636329 1.099573
vt 1.636329 1.356819
vt 0.413044 1.577977
vt 0.054644 1.681363
vt 0.054644 1.552740
vt 0.931414 1.577977
vt 0.573014 1.681363
vt 0.573014 1.552740
vt 1.091384 0.713705
vt 1.636329 0.585082
vt 1.636329 0.713705
vt 1.091384 1.099573
vt 1.636329 0.842328
vt 0.573014 1.424118
vt 0.573014 1.166872
vt 0.054644 1.424118
vt 0.054644 1.166872
vt 0.413044 1.852048
vt 0.054644 1.938608
vt 0.054644 1.809986
vt 0.931414 1.852048
vt 0.573014 1.938608
vt 0.573014 1.809986
vt 1.091384 0.456460
vt 1.636329 0.327837
vt 1.636329 0.456460
vt 0.413044 0.755767
vt 0.054644 0.652381
vt 0.413044 0.618732
vt 0.931414 0.755767
vt 0.573014 0.652381
vt 0.931414 0.618732
vt 1.091384 1.614064
vt 1.636329 1.485442
vt 1.636329 1.614064
vt 1.091384 2.128555
vt 1.636329 1.999933
vt 1.636329 2.128555
vt 0.931414 0.207627
vt 0.573014 0.137890
vt 0.931414 0.070591
vt 0.413044 0.207627
vt 0.054644 0.137890
vt 0.413044 0.070591
vt 0.413044 0.481697
vt 0.054644 0.395136
vt 0.413044 0.344662
vt 0.931414 0.481697
vt 0.573014 0.395136
vt 0.931414 0.344662
vt 1.091384 1.871310
vt 1.636329 1.742687
vt 1.636329 1.871310
vt 1.000000 0.000000
vt 0.000000 1.000000
vt 0.013725 4.396019
vt 1.744627 0.068763
vt 1.744627 4.396019
vt 0.305015 4.842963
vt 0.428055 0.028130
vt 0.428055 4.842963
vt 0.181975 0.028130
vt 0.058935 4.842963
vt 0.058935 0.028130
vt 0.428055 4.842963
vt 0.551095 0.028130
vt 0.551095 4.842963
vt 0.305015 0.028130
vt 0.181975 4.842963
vt 0.181975 0.028130
vt 0.872649 0.329704
vt 0.058982 0.528315
vt 0.875881 2.919350
vt 0.780439 1.945903
vt 0.654258 3.236153
vt 0.058982 2.749290
vt 0.634303 0.021659
vt 0.598372 1.525164
vt 0.075325 1.712791
vt 1.088070 0.519296
vt 0.427205 0.270268
vt 0.629101 0.027608
vt 0.605501 0.992024
vt 0.112876 0.811658
vt 0.573014 2.263153
vt 0.413044 2.263153
vt 0.413044 1.989083
vt 0.413044 1.715013
vt 0.653804 2.479183
vt 1.091384 2.263153
vt 0.931414 2.263153
vt 0.931414 1.989083
vt 0.931414 1.715013
vt 4.326486 0.923119
vt 5.071364 3.452378
vt 4.110479 1.157744
vt 0.163444 1.013024
vt 0.028741 0.004265
vt 1.358903 0.003445
vt 0.013667 1.011474
vt 0.997613 0.002715
vt 0.987902 0.993345
vt 1.091384 0.070591
vt 1.091384 0.585082
vt 1.091384 0.842328
vt 1.091384 0.327837
vt 0.054644 0.781004
vt 0.573014 0.781004
vt 1.091384 1.485442
vt 1.091384 1.999933
vt 0.573014 0.266513
vt 0.054644 0.266513
vt 0.054644 0.523758
vt 0.573014 0.523758
vt 1.091384 1.742687
vt 1.000000 1.000000
vt 0.013725 0.068764
vt 0.305015 0.028130
vt 0.181975 4.842963
vt 0.428055 0.028130
vt 0.305015 4.842963
vt 0.834613 0.780439
s 0
usemtl concrete
f 98/1/1 99/2/1 2/3/1
f 22/4/2 92/5/2 155/6/2
f 32/7/3 100/8/3 3/9/3
f 95/10/4 10/11/4 7/12/4
f 115/13/5 68/13/5 64/13/5
f 10/14/6 17/15/6 9/16/6
f 11/20/8 16/21/8 19/22/8
f 10/23/9 19/24/9 18/25/9
f 14/17/10 17/26/10 18/27/10
f 15/28/11 16/29/11 12/18/11
f 15/28/12 18/27/12 19/30/12
f 16/21/8 8/31/8 21/32/8
f 17/15/6 20/33/6 9/16/6
f 17/34/13 21/35/13 20/36/13
f 12/37/9 17/34/9 13/38/9
f 98/13/15 49/13/15 101/13/15
f 32/13/16 50/13/16 33/13/16
f 101/13/7 74/13/7 122/13/7
f 37/13/14 89/13/14 133/13/14
f 132/13/17 90/13/17 88/13/17
f 131/13/18 89/13/18 87/13/18
f 118/13/7 82/13/7 40/13/7
f 116/13/19 69/13/19 41/13/19
f 114/13/20 67/13/20 118/13/20
f 41/13/14 81/13/14 127/13/14
f 117/13/21 70/13/21 66/13/21
f 39/13/22 82/13/22 80/13/22
f 123/13/14 68/13/14 119/13/14
f 126/13/23 81/13/23 79/13/23
f 33/13/14 73/13/14 121/13/14
f 104/13/24 55/13/24 107/13/24
f 34/13/25 74/13/25 72/13/25
f 38/13/26 57/13/26 109/13/26
f 120/13/27 73/13/27 71/13/27
f 111/13/14 56/13/14 108/13/14
f 107/13/7 86/13/7 42/13/7
f 124/13/28 77/13/28 125/13/28
f 106/13/29 58/13/29 54/13/29
f 93/13/7 90/13/7 134/13/7
f 35/13/30 75/13/30 123/13/30
f 105/13/31 56/13/31 52/13/31
f 36/13/32 46/13/32 37/13/32
f 125/13/7 70/13/7 31/13/7
f 30/13/33 61/13/33 112/13/33
f 91/13/34 45/13/34 93/13/34
f 113/13/35 59/13/35 111/13/35
f 109/13/14 85/13/14 130/13/14
f 112/13/7 58/13/7 110/13/7
f 129/13/36 86/13/36 84/13/36
f 128/13/37 85/13/37 83/13/37
f 133/51/9 7/52/9 37/53/9
f 132/54/38 6/55/38 134/56/38
f 131/57/39 95/58/39 133/59/39
f 99/2/39 121/60/39 120/61/39
f 100/8/38 122/62/38 34/63/38
f 121/64/40 103/65/40 33/66/40
f 128/67/39 112/68/39 130/69/39
f 129/70/38 111/71/38 42/72/38
f 130/73/9 110/74/9 109/75/9
f 102/76/41 122/77/41 103/65/41
f 100/8/42 33/78/42 103/79/42
f 99/2/43 101/80/43 102/81/43
f 126/82/39 125/83/39 127/84/39
f 39/85/38 123/86/38 40/87/38
f 127/88/9 31/89/9 41/90/9
f 104/91/39 108/92/39 105/93/39
f 38/94/38 110/95/38 106/96/38
f 108/97/9 42/98/9 111/99/9
f 94/100/9 134/101/9 6/102/9
f 36/103/38 7/104/38 4/105/38
f 91/106/39 94/107/39 92/108/39
f 114/109/39 119/110/39 115/111/39
f 116/112/38 31/113/38 117/114/38
f 119/115/9 40/116/9 123/117/9
f 144/120/9 145/121/9 143/122/9
f 153/123/6 142/124/6 140/125/6
f 152/126/8 139/127/8 141/128/8
f 149/129/6 138/130/6 136/131/6
f 147/132/8 135/133/8 137/134/8
f 4/135/44 10/11/44 9/136/44
f 97/137/45 11/138/45 95/10/45
f 97/137/46 1/139/46 8/140/46
f 3/141/47 4/135/47 9/136/47
f 23/142/48 92/5/48 94/143/48
f 26/144/49 96/145/49 5/146/49
f 96/145/50 27/147/50 6/148/50
f 23/142/51 6/148/51 27/147/51
f 2/3/1 1/149/1 97/150/1
f 2/3/1 97/150/1 131/57/1
f 91/106/1 92/108/1 2/3/1
f 115/111/1 91/106/1 2/3/1
f 2/3/1 131/57/1 124/151/1
f 2/3/1 124/151/1 126/82/1
f 114/109/1 115/111/1 2/3/1
f 105/93/1 114/109/1 2/3/1
f 2/3/1 126/82/1 30/152/1
f 2/3/1 30/152/1 128/67/1
f 104/91/1 105/93/1 2/3/1
f 120/61/1 104/91/1 2/3/1
f 2/3/1 128/67/1 98/1/1
f 99/2/1 120/61/1 2/3/1
f 22/4/52 2/153/52 92/5/52
f 3/9/3 5/154/3 96/155/3
f 3/9/3 96/155/3 132/54/3
f 36/103/3 4/105/3 3/9/3
f 117/114/3 36/103/3 3/9/3
f 3/9/3 132/54/3 35/156/3
f 3/9/3 35/156/3 39/85/3
f 116/112/3 117/114/3 3/9/3
f 106/96/3 116/112/3 3/9/3
f 3/9/3 39/85/3 113/157/3
f 3/9/3 113/157/3 129/70/3
f 38/94/3 106/96/3 3/9/3
f 34/63/3 38/94/3 3/9/3
f 3/9/3 129/70/3 32/7/3
f 100/8/3 34/63/3 3/9/3
f 95/10/4 11/138/4 10/11/4
f 115/13/53 119/13/53 68/13/53
f 10/14/6 18/158/6 17/15/6
f 11/20/8 8/31/8 16/21/8
f 10/23/9 11/159/9 19/24/9
f 14/17/10 13/19/10 17/26/10
f 15/28/11 19/30/11 16/29/11
f 15/28/12 14/17/12 18/27/12
f 17/34/13 16/160/13 21/35/13
f 12/37/9 16/160/9 17/34/9
f 98/13/54 47/13/54 49/13/54
f 32/13/55 48/13/55 50/13/55
f 101/13/7 49/13/7 74/13/7
f 37/13/14 46/13/14 89/13/14
f 132/13/56 134/13/56 90/13/56
f 131/13/57 133/13/57 89/13/57
f 118/13/7 67/13/7 82/13/7
f 116/13/58 65/13/58 69/13/58
f 114/13/59 63/13/59 67/13/59
f 41/13/14 69/13/14 81/13/14
f 117/13/60 31/13/60 70/13/60
f 39/13/61 40/13/61 82/13/61
f 123/13/14 75/13/14 68/13/14
f 126/13/62 127/13/62 81/13/62
f 33/13/14 50/13/14 73/13/14
f 104/13/63 51/13/63 55/13/63
f 34/13/64 122/13/64 74/13/64
f 38/13/65 53/13/65 57/13/65
f 120/13/66 121/13/66 73/13/66
f 111/13/14 59/13/14 56/13/14
f 107/13/7 55/13/7 86/13/7
f 124/13/67 76/13/67 77/13/67
f 106/13/68 110/13/68 58/13/68
f 93/13/7 45/13/7 90/13/7
f 35/13/69 78/13/69 75/13/69
f 105/13/70 108/13/70 56/13/70
f 36/13/71 44/13/71 46/13/71
f 125/13/7 77/13/7 70/13/7
f 30/13/72 60/13/72 61/13/72
f 91/13/73 43/13/73 45/13/73
f 113/13/74 62/13/74 59/13/74
f 109/13/14 57/13/14 85/13/14
f 112/13/7 61/13/7 58/13/7
f 129/13/75 42/13/75 86/13/75
f 128/13/76 130/13/76 85/13/76
f 133/51/9 95/167/9 7/52/9
f 132/54/38 96/155/38 6/55/38
f 131/57/39 97/150/39 95/58/39
f 99/2/77 102/81/77 121/60/77
f 100/8/78 103/79/78 122/62/78
f 121/64/40 102/76/40 103/65/40
f 128/67/39 30/152/39 112/68/39
f 129/70/38 113/157/38 111/71/38
f 130/73/9 112/168/9 110/74/9
f 102/76/41 101/169/41 122/77/41
f 100/8/38 32/7/38 33/78/38
f 99/2/39 98/1/39 101/80/39
f 126/82/39 124/151/39 125/83/39
f 39/85/38 35/156/38 123/86/38
f 127/88/9 125/170/9 31/89/9
f 104/91/39 107/171/39 108/92/39
f 38/94/38 109/172/38 110/95/38
f 108/97/9 107/173/9 42/98/9
f 94/100/9 93/174/9 134/101/9
f 36/103/38 37/175/38 7/104/38
f 91/106/39 93/176/39 94/107/39
f 114/109/39 118/177/39 119/110/39
f 116/112/38 41/178/38 31/113/38
f 119/115/9 118/179/9 40/116/9
f 144/120/9 146/181/9 145/121/9
f 153/123/6 154/182/6 142/124/6
f 152/126/8 151/183/8 139/127/8
f 149/129/6 150/184/6 138/130/6
f 147/132/8 148/185/8 135/133/8
f 4/135/79 7/12/79 10/11/79
f 97/137/80 8/140/80 11/138/80
f 23/142/81 155/6/81 92/5/81
f 26/144/82 156/186/82 96/145/82
f 96/145/83 156/186/83 27/147/83
f 23/142/51 94/143/51 6/148/51
usemtl garage_door
f 14/17/7 12/18/7 13/19/7
f 14/17/7 15/28/7 12/18/7
usemtl vents
f 155/39/8 25/40/8 24/41/8
f 25/42/14 28/43/14 24/44/14
f 29/45/6 156/46/6 26/47/6
f 24/41/8 22/161/8 155/39/8
f 155/39/8 23/162/8 25/40/8
f 25/42/14 29/163/14 28/43/14
f 26/47/6 28/164/6 29/45/6
f 29/45/6 27/165/6 156/46/6
usemtl vent_fan_color
f 25/48/9 27/49/9 29/50/9
f 25/48/9 23/166/9 27/49/9
usemtl no_texture
f 136/118/9 137/119/9 135/13/9
f 140/118/9 141/119/9 139/13/9
f 136/118/9 138/180/9 137/119/9
f 140/118/9 142/180/9 141/119/9
