# Blender 5.1.2
# www.blender.org
mtllib rail_1.mtl
o rail_1
v -3.500000 9.000000 25.000000
v -4.000000 9.500000 25.000000
v -1.500000 9.000000 25.000000
v -1.000000 9.500000 25.000000
v -4.000000 10.000000 25.000000
v -1.000000 10.000000 25.000000
v -2.500000 9.345138 25.000000
v -1.750000 10.000000 25.000000
v -3.250000 10.000000 25.000000
v 1.500000 9.000000 25.000000
v 1.000000 9.500000 25.000000
v 3.500000 9.000000 25.000000
v 4.000000 9.500000 25.000000
v 1.000000 10.000000 25.000000
v 4.000000 10.000000 25.000000
v 2.500000 9.345138 25.000000
v 3.250000 10.000000 25.000000
v 1.750000 10.000000 25.000000
v -5.136592 9.000000 16.772308
v -5.598532 9.500000 16.963650
v -3.288834 9.000000 16.006943
v -2.826894 9.500000 15.815599
v -5.598532 10.000000 16.963650
v -2.826894 10.000000 15.815599
v -4.212713 9.345138 16.389626
v -3.519803 10.000000 16.102613
v -4.905622 10.000000 16.676638
v -0.517195 9.000000 14.858891
v -0.979135 9.500000 15.050234
v 1.330564 9.000000 14.093525
v 1.792503 9.500000 13.902184
v -0.979135 10.000000 15.050234
v 1.792503 10.000000 13.902184
v 0.406685 9.345138 14.476208
v 1.099594 10.000000 14.189196
v -0.286225 10.000000 14.763220
v -9.797209 9.000000 9.797211
v -10.150761 9.500000 10.150764
v -8.382994 9.000000 8.382999
v -8.029442 9.500000 8.029444
v -10.150761 10.000000 10.150764
v -8.029442 10.000000 8.029444
v -9.090101 9.345138 9.090105
v -8.559771 10.000000 8.559774
v -9.620432 10.000000 9.620434
v -6.261674 9.000000 6.261676
v -6.615227 9.500000 6.615232
v -4.847460 9.000000 4.847464
v -4.493908 9.500000 4.493911
v -6.615227 10.000000 6.615232
v -4.493908 10.000000 4.493911
v -5.554567 9.345138 5.554569
v -5.024238 10.000000 5.024240
v -6.084898 10.000000 6.084899
v -16.772310 9.000000 5.136601
v -16.963650 9.500000 5.598541
v -16.006941 9.000000 3.288844
v -15.815601 9.500000 2.826903
v -16.963650 10.000000 5.598541
v -15.815601 10.000000 2.826903
v -16.389626 9.345138 4.212723
v -16.102612 10.000000 3.519813
v -16.676640 10.000000 4.905632
v -14.858893 9.000000 0.517203
v -15.050234 9.500000 0.979145
v -14.093526 9.000000 -1.330555
v -13.902184 9.500000 -1.792494
v -15.050234 10.000000 0.979145
v -13.902184 10.000000 -1.792494
v -14.476210 9.345138 -0.406676
v -14.189198 10.000000 -1.099585
v -14.763223 10.000000 0.286233
v -25.000002 9.000000 3.500016
v -25.000000 9.500000 4.000015
v -25.000000 9.000000 1.500017
v -25.000000 9.500000 1.000017
v -25.000000 10.000000 4.000015
v -25.000000 10.000000 1.000017
v -25.000000 9.345138 2.500016
v -25.000000 10.000000 1.750015
v -25.000002 10.000000 3.250017
v -25.000002 9.000000 -1.499984
v -25.000000 9.500000 -0.999982
v -25.000000 9.000000 -3.499983
v -25.000002 9.500000 -3.999982
v -25.000000 10.000000 -0.999982
v -25.000002 10.000000 -3.999982
v -25.000002 9.345138 -2.499984
v -25.000002 10.000000 -3.249983
v -25.000004 10.000000 -1.749984
v -9.164135 -0.500000 10.578349
v -9.164135 8.000000 10.578349
v -10.578349 -0.500000 9.164135
v -10.578349 8.000000 9.164135
v -8.603667 3.259375 9.419722
v -8.603667 4.240624 9.419722
v -9.419722 3.259375 8.603667
v -9.419722 4.240624 8.603667
v -5.220574 3.259375 6.036629
v -5.220574 4.240624 6.036629
v -6.036629 3.259375 5.220574
v -6.036629 4.240624 5.220574
v -4.061947 -0.500000 5.476161
v -4.061947 8.000000 5.476161
v -5.476161 -0.500000 4.061947
v -5.476161 8.000000 4.061947
v -8.633805 8.000000 11.108679
v -11.108679 8.000000 8.633805
v -7.774257 8.000000 10.249131
v -10.249131 8.000000 7.774257
v -4.391165 8.000000 6.866039
v -6.866039 8.000000 4.391165
v -3.531617 8.000000 6.006491
v -6.006491 8.000000 3.531617
v -5.022051 9.000000 2.547178
v -2.547178 9.000000 5.022051
v -12.093119 9.000000 9.618245
v -9.618245 9.000000 12.093119
v -9.207014 8.000000 11.681887
v -11.681887 8.000000 9.207014
v -2.958409 8.000000 5.433282
v -5.433282 8.000000 2.958409
v -9.718801 8.000000 8.304587
v -9.718801 -0.500000 8.304587
v -8.304587 -0.500000 9.718801
v -8.304587 8.000000 9.718801
v -6.335709 -0.500000 4.921495
v -4.921495 -0.500000 6.335709
v -4.921495 8.000000 6.335709
v -6.335709 8.000000 4.921495
v -3.794820 9.000000 6.269694
v -6.303438 9.000000 3.828565
v -4.694771 9.000000 4.838745
v -7.818377 9.000000 5.343503
v -5.353077 9.000000 7.827950
v -6.379781 9.000000 6.485950
v -7.331866 9.000000 9.806740
v -9.806107 9.000000 7.331233
v -8.259670 9.000000 8.369246
v -11.347347 9.000000 8.872473
v -8.851255 9.000000 11.326129
v -9.834129 9.000000 9.924818
vn -0.9808 -0.0000 0.1951
vn -0.6522 0.7469 0.1297
vn 0.9808 -0.0000 -0.1951
vn -0.0000 1.0000 -0.0000
vn -0.7002 -0.7002 0.1393
vn 0.6522 0.7469 -0.1297
vn 0.7002 -0.7002 -0.1393
vn -0.0000 -1.0000 -0.0000
vn 0.5936 -0.7002 -0.3966
vn -0.8315 -0.0000 0.5556
vn 0.8315 -0.0000 -0.5556
vn -0.5529 0.7469 0.3694
vn -0.5936 -0.7002 0.3966
vn 0.5529 0.7469 -0.3694
vn -0.5556 -0.0000 0.8315
vn 0.5556 -0.0000 -0.8315
vn -0.3694 0.7469 0.5529
vn -0.3966 -0.7002 0.5936
vn 0.3694 0.7469 -0.5529
vn 0.3966 -0.7002 -0.5936
vn 0.1951 -0.0000 -0.9808
vn -0.1951 -0.0000 0.9808
vn -0.1297 0.7469 0.6522
vn -0.1393 -0.7002 0.7002
vn 0.1297 0.7469 -0.6522
vn 0.1393 -0.7002 -0.7002
vn -0.7071 -0.0000 0.7071
vn -0.7071 -0.0000 -0.7071
vn 0.7071 -0.0000 0.7071
vn 0.7071 -0.0000 -0.7071
vn 0.6113 -0.5027 -0.6113
vn -0.6113 -0.5027 0.6113
vt 0.799416 1.574564
vt 0.718200 0.134902
vt 0.655505 0.139581
vt 2.193516 3.704916
vt 2.141885 4.917722
vt 2.275008 4.933247
vt 0.257849 1.610215
vt 0.188191 0.087447
vt 0.120538 0.093749
vt 2.375255 4.951230
vt 1.851990 4.890718
vt 1.628427 3.737258
vt 1.764469 4.912333
vt 0.289224 0.102539
vt 0.554016 1.590473
vt 0.423504 0.114530
vt 2.059319 3.712016
vt 2.009685 4.903084
vt 2.443337 4.951609
vt 2.447030 3.690868
vt 2.355145 3.695863
vt 0.322990 1.605912
vt 0.875121 1.569267
vt 0.807320 0.112395
vt 1.351067 3.760293
vt 1.506246 4.998208
vt 0.692254 1.581588
vt 0.557150 0.125922
vt 0.165587 1.616276
vt 0.027243 0.115624
vt 1.920152 3.719301
vt 1.913032 4.887242
vt 1.256476 1.538690
vt 1.067528 0.025988
vt 1.734375 3.729920
vt 0.233607 3.056914
vt 1.767754 2.510015
vt 1.811496 3.725162
vt 0.979595 1.561540
vt 1.309523 3.053819
vt 1.692581 2.510237
vt 0.856154 3.055321
vt 2.301764 2.508093
vt 2.290396 3.699388
vt 2.143770 2.508941
vt 0.324110 3.056648
vt 2.238281 2.508391
vt 1.587933 2.510479
vt 0.483083 3.056120
vt 0.420060 1.599217
vt 2.012028 2.509341
vt 2.391579 2.507695
vt 0.929765 3.055151
vt 1.309523 2.512084
vt 0.614685 3.055834
vt 1.032595 3.054983
vt 1.260809 4.568239
vt 1.729692 1.293684
vt 0.750912 3.055587
vt 0.804831 4.532885
vt 2.343025 1.329925
vt 2.183874 1.320611
vt 0.267633 4.496202
vt 0.388115 3.056445
vt 2.279246 1.326272
vt 1.624352 1.286006
vt 0.428320 4.507297
vt 2.051363 1.312903
vt 1.874710 2.509662
vt 2.433494 1.335161
vt 0.332200 4.500565
vt 0.880054 4.538312
vt 1.347123 1.264192
vt 0.561170 4.516386
vt 0.176184 4.490026
vt 1.806103 1.298692
vt 0.698422 4.525693
vt 0.650469 5.962959
vt 2.445953 0.106021
vt 2.281283 0.111283
vt 0.119018 5.990359
vt 2.379846 0.100299
vt 1.859083 0.136916
vt 1.771584 0.114302
vt 0.285351 5.987542
vt 2.149389 0.119395
vt 1.913662 1.304887
vt 2.537140 0.126791
vt 0.185641 5.997128
vt 0.713219 5.968210
vt 0.984100 4.546279
vt 1.514242 0.025988
vt 0.418612 5.981338
vt 0.027244 5.968015
vt 1.920328 0.141215
vt 1.061609 6.079510
vt 2.151282 1.688731
vt 1.760806 0.029207
vt 2.151283 0.029207
vt 3.016415 1.688730
vt 2.779087 0.029207
vt 3.016415 0.029207
vt 2.388611 1.688731
vt 2.388611 0.029207
vt 0.540569 1.698302
vt 0.686997 1.935630
vt 0.540569 1.935630
vt 1.998135 3.348254
vt 1.760806 1.688731
vt 1.998135 1.688731
vt 3.016415 3.348254
vt 2.625939 1.688731
vt 3.016415 1.688731
vt 2.625939 3.348254
vt 0.150092 1.698302
vt 0.003664 1.935631
vt 0.003664 1.698302
vt 0.540568 0.764202
vt 0.686997 0.526874
vt 0.686997 0.764202
vt 0.150092 0.764202
vt 0.003664 0.526874
vt 0.150092 0.526874
vt 0.686997 1.698302
vt 0.686997 2.093898
vt 0.150093 1.935631
vt 0.003664 0.368606
vt 0.540568 0.526874
vt 1.565568 0.029207
vt 0.882235 0.255062
vt 0.882235 0.029207
vt 0.882235 2.433296
vt 1.565568 2.207442
vt 1.565568 2.433296
vt 0.882235 2.207442
vt 1.211382 1.937903
vt 1.565568 2.001528
vt 0.882235 1.576154
vt 0.882235 1.995670
vt 1.565568 1.027150
vt 1.565568 0.608863
vt 1.760806 0.526873
vt 2.471189 0.954757
vt 0.837457 2.433296
vt 0.612137 3.367396
vt 0.612137 2.433296
vt 0.420560 2.433296
vt 0.195241 3.367396
vt 0.195241 2.433296
vt 2.080713 2.422704
vt 2.306032 2.422704
vt 2.306032 2.614281
vt 2.388611 3.348254
vt 2.080713 2.614281
vt 2.779087 1.688730
vt 0.003664 3.367396
vt 0.003664 2.433296
vt 2.696509 0.954757
vt 2.696509 0.763180
vt 1.204025 0.526240
vt 1.565568 0.255062
vt 1.208774 1.505789
vt 0.882235 1.029794
vt 2.537140 4.931528
vt 0.552028 5.975698
vt 2.017270 0.126718
vt 0.802257 5.991420
vt 1.760806 1.688731
vt 1.760806 3.348254
vt 0.003664 0.764202
vt 0.003664 2.093898
vt 0.686997 0.368606
vt 0.882235 0.599546
vt 1.760806 1.935630
vt 1.760806 2.093897
vt 1.760806 1.698301
vt 1.565568 1.575979
vt 1.760806 0.764201
vt 1.760806 0.368606
vt 2.471189 0.763180
vt 0.837457 3.367396
vt 0.420560 3.367396
vt 1.209244 0.986266
s 0
usemtl concrete_light
f 32/1/1 11/2/1 14/3/1
f 31/7/3 15/8/3 13/9/3
f 6/10/4 26/4/4 8/6/4
f 2/11/5 19/12/5 1/13/5
f 4/19/7 21/20/7 22/21/7
f 33/22/4 17/14/4 15/8/4
f 29/23/5 10/24/5 11/2/5
f 1/13/8 21/25/8 3/26/8
f 30/29/7 13/9/7 12/30/7
f 27/31/4 5/32/4 9/18/4
f 10/24/8 30/33/8 12/34/8
f 5/32/1 20/35/1 2/11/1
f 36/27/4 14/3/4 18/28/4
f 22/21/3 6/10/3 4/19/3
f 48/36/9 31/7/9 30/29/9
f 27/31/4 41/37/4 23/38/4
f 28/39/8 48/40/8 30/33/8
f 23/38/10 38/41/10 20/35/10
f 36/27/4 50/42/4 32/1/4
f 40/43/11 24/44/11 22/21/11
f 50/42/10 29/23/10 32/1/10
f 49/46/11 33/22/11 31/7/11
f 42/47/4 26/4/4 24/44/4
f 20/35/13 37/48/13 19/12/13
f 22/21/9 39/52/9 40/43/9
f 33/22/4 53/49/4 35/50/4
f 47/53/13 28/39/13 29/23/13
f 19/12/8 39/54/8 21/25/8
f 46/56/8 66/57/8 48/40/8
f 41/37/15 56/58/15 38/41/15
f 54/59/4 68/60/4 50/42/4
f 58/61/16 42/47/16 40/43/16
f 68/60/15 47/53/15 50/42/15
f 67/63/16 51/64/16 49/46/16
f 60/65/4 44/45/4 42/47/4
f 37/48/18 56/58/18 55/66/18
f 40/43/20 57/70/20 58/61/20
f 69/71/4 53/49/4 51/64/4
f 65/72/18 46/56/18 47/53/18
f 37/48/8 57/73/8 39/54/8
f 66/75/20 49/46/20 48/36/20
f 45/69/4 59/76/4 41/37/4
f 72/77/4 86/78/4 68/60/4
f 76/79/21 60/65/21 58/61/21
f 86/78/22 65/72/22 68/60/22
f 85/81/21 69/71/21 67/63/21
f 78/82/4 62/62/4 60/65/4
f 55/66/24 74/83/24 73/84/24
f 58/61/26 75/88/26 76/79/26
f 87/89/4 71/67/4 69/71/4
f 83/90/24 64/91/24 65/72/24
f 55/66/8 75/92/8 57/73/8
f 84/94/26 67/63/26 66/75/26
f 63/87/4 77/95/4 59/76/4
f 64/91/8 84/96/8 66/57/8
f 59/76/22 74/83/22 56/58/22
f 32/1/1 29/23/1 11/2/1
f 31/7/3 33/22/3 15/8/3
f 6/10/4 24/44/4 26/4/4
f 2/11/5 20/35/5 19/12/5
f 4/19/7 3/164/7 21/20/7
f 33/22/4 35/50/4 17/14/4
f 29/23/5 28/39/5 10/24/5
f 1/13/8 19/12/8 21/25/8
f 30/29/7 31/7/7 13/9/7
f 27/31/4 23/38/4 5/32/4
f 10/24/8 28/39/8 30/33/8
f 5/32/1 23/38/1 20/35/1
f 36/27/4 32/1/4 14/3/4
f 22/21/3 24/44/3 6/10/3
f 48/36/9 49/46/9 31/7/9
f 27/31/4 45/69/4 41/37/4
f 28/39/8 46/56/8 48/40/8
f 23/38/10 41/37/10 38/41/10
f 36/27/4 54/59/4 50/42/4
f 40/43/11 42/47/11 24/44/11
f 50/42/10 47/53/10 29/23/10
f 49/46/11 51/64/11 33/22/11
f 42/47/4 44/45/4 26/4/4
f 20/35/13 38/41/13 37/48/13
f 22/21/9 21/20/9 39/52/9
f 33/22/4 51/64/4 53/49/4
f 47/53/13 46/56/13 28/39/13
f 19/12/8 37/48/8 39/54/8
f 46/56/8 64/91/8 66/57/8
f 41/37/15 59/76/15 56/58/15
f 54/59/4 72/77/4 68/60/4
f 58/61/16 60/65/16 42/47/16
f 68/60/15 65/72/15 47/53/15
f 67/63/16 69/71/16 51/64/16
f 60/65/4 62/62/4 44/45/4
f 37/48/18 38/41/18 56/58/18
f 40/43/20 39/52/20 57/70/20
f 69/71/4 71/67/4 53/49/4
f 65/72/18 64/91/18 46/56/18
f 37/48/8 55/66/8 57/73/8
f 66/75/20 67/63/20 49/46/20
f 45/69/4 63/87/4 59/76/4
f 72/77/4 90/165/4 86/78/4
f 76/79/21 78/82/21 60/65/21
f 86/78/22 83/90/22 65/72/22
f 85/81/21 87/89/21 69/71/21
f 78/82/4 80/80/4 62/62/4
f 55/66/24 56/58/24 74/83/24
f 58/61/26 57/70/26 75/88/26
f 87/89/4 89/85/4 71/67/4
f 83/90/24 82/167/24 64/91/24
f 55/66/8 73/84/8 75/92/8
f 84/94/26 85/81/26 67/63/26
f 63/87/4 81/166/4 77/95/4
f 64/91/8 82/167/8 84/96/8
f 59/76/22 77/95/22 74/83/22
usemtl concrete
f 92/97/27 93/98/27 91/99/27
f 94/100/28 124/101/28 93/102/28
f 126/103/29 91/99/29 125/104/29
f 126/105/8 107/106/8 92/107/8
f 130/108/28 105/109/28 127/110/28
f 106/111/30 103/112/30 105/113/30
f 104/114/29 128/103/29 103/112/29
f 123/115/8 108/116/8 110/117/8
f 129/118/8 113/119/8 111/120/8
f 130/121/8 114/122/8 106/123/8
f 110/117/8 129/118/8 109/124/8
f 119/125/8 108/116/8 94/126/8
f 122/127/8 113/119/8 104/128/8
f 122/129/31 116/130/31 121/131/31
f 119/132/32 117/133/32 120/134/32
f 118/135/4 142/136/4 140/137/4
f 137/138/29 141/139/29 107/106/29
f 134/140/28 132/141/28 114/142/28
f 125/104/30 96/143/30 126/103/30
f 99/144/8 97/145/8 101/146/8
f 102/147/4 96/148/4 100/149/4
f 97/145/28 102/147/28 101/146/28
f 101/150/27 128/103/27 99/151/27
f 100/152/27 128/103/27 129/153/27
f 100/152/27 130/108/27 102/154/27
f 101/150/27 130/108/27 127/110/27
f 96/143/30 123/155/30 126/103/30
f 100/149/29 95/156/29 99/157/29
f 124/101/30 98/158/30 97/159/30
f 97/159/30 125/104/30 124/101/30
f 133/160/4 116/130/4 115/161/4
f 139/162/4 135/163/4 134/140/4
f 92/97/27 94/168/27 93/98/27
f 94/100/28 123/155/28 124/101/28
f 126/103/29 92/97/29 91/99/29
f 126/105/8 109/124/8 107/106/8
f 130/108/28 106/169/28 105/109/28
f 106/111/30 104/114/30 103/112/30
f 104/114/29 129/153/29 128/103/29
f 123/115/8 94/126/8 108/116/8
f 129/118/8 104/128/8 113/119/8
f 130/121/8 112/170/8 114/122/8
f 126/105/4 123/115/4 110/117/4
f 110/117/8 112/170/8 130/121/8
f 129/118/8 111/120/8 109/124/8
f 110/117/8 130/121/8 129/118/8
f 109/124/8 126/105/8 110/117/8
f 92/107/8 107/106/8 119/125/8
f 119/125/8 120/171/8 108/116/8
f 94/126/8 92/107/8 119/125/8
f 106/123/8 114/122/8 122/127/8
f 122/127/8 121/172/8 113/119/8
f 104/128/8 106/123/8 122/127/8
f 122/129/31 115/161/31 116/130/31
f 119/132/32 118/135/32 117/133/32
f 140/137/4 117/133/4 118/135/4
f 118/135/4 141/139/4 142/136/4
f 113/119/29 121/172/29 116/130/29
f 113/119/29 116/130/29 131/173/29
f 111/120/29 113/119/29 131/173/29
f 111/120/29 131/173/29 135/163/29
f 109/124/29 111/120/29 135/163/29
f 109/124/29 135/163/29 137/138/29
f 118/135/29 119/125/29 107/106/29
f 107/106/29 109/124/29 137/138/29
f 141/139/29 118/135/29 107/106/29
f 108/174/28 120/175/28 117/133/28
f 108/174/28 117/133/28 140/137/28
f 110/176/28 108/174/28 140/137/28
f 110/176/28 140/137/28 138/177/28
f 112/178/28 110/176/28 138/177/28
f 112/178/28 138/177/28 134/140/28
f 115/161/28 122/179/28 114/142/28
f 114/142/28 112/178/28 134/140/28
f 132/141/28 115/161/28 114/142/28
f 125/104/30 95/180/30 96/143/30
f 99/144/8 95/181/8 97/145/8
f 102/147/4 98/182/4 96/148/4
f 97/145/28 98/182/28 102/147/28
f 101/150/27 127/110/27 128/103/27
f 100/152/27 99/151/27 128/103/27
f 100/152/27 129/153/27 130/108/27
f 101/150/27 102/154/27 130/108/27
f 96/143/30 98/158/30 123/155/30
f 100/149/29 96/148/29 95/156/29
f 124/101/30 123/155/30 98/158/30
f 97/159/30 95/180/30 125/104/30
f 115/161/4 132/141/4 133/160/4
f 133/160/4 131/173/4 116/130/4
f 134/140/4 138/177/4 139/162/4
f 139/162/4 137/138/4 135/163/4
f 135/163/4 136/183/4 134/140/4
usemtl vent_fan_color
f 26/4/2 7/5/2 8/6/2
f 17/14/2 34/15/2 16/16/2
f 25/17/6 9/18/6 7/5/6
f 16/16/6 36/27/6 18/28/6
f 44/45/12 25/17/12 26/4/12
f 53/49/12 34/15/12 35/50/12
f 43/51/14 27/31/14 25/17/14
f 52/55/14 36/27/14 34/15/14
f 62/62/17 43/51/17 44/45/17
f 71/67/17 52/55/17 53/49/17
f 61/68/19 45/69/19 43/51/19
f 70/74/19 54/59/19 52/55/19
f 80/80/23 61/68/23 62/62/23
f 89/85/23 70/74/23 71/67/23
f 79/86/25 63/87/25 61/68/25
f 88/93/25 72/77/25 70/74/25
f 26/4/2 25/17/2 7/5/2
f 17/14/2 35/50/2 34/15/2
f 25/17/6 27/31/6 9/18/6
f 16/16/6 34/15/6 36/27/6
f 44/45/12 43/51/12 25/17/12
f 53/49/12 52/55/12 34/15/12
f 43/51/14 45/69/14 27/31/14
f 52/55/14 54/59/14 36/27/14
f 62/62/17 61/68/17 43/51/17
f 71/67/17 70/74/17 52/55/17
f 61/68/19 63/87/19 45/69/19
f 70/74/19 72/77/19 54/59/19
f 80/80/23 79/86/23 61/68/23
f 89/85/23 88/93/23 70/74/23
f 79/86/25 81/166/25 63/87/25
f 88/93/25 90/165/25 72/77/25
