# Blender 5.0.1
# www.blender.org
mtllib rail_0.mtl
o rail_0
v -3.607792 -0.500000 1.000000
v -3.607792 8.000000 1.000000
v -3.607792 -0.500000 -1.000000
v -3.607792 8.000000 -1.000000
v -2.392208 3.259375 0.577038
v -2.392208 4.240624 0.577038
v -2.392208 3.259375 -0.577038
v -2.392208 4.240624 -0.577038
v 2.392208 3.259375 0.577038
v 2.392208 4.240624 0.577038
v 2.392208 3.259375 -0.577038
v 2.392208 4.240624 -0.577038
v 3.607792 -0.500000 1.000000
v 3.607792 8.000000 1.000000
v 3.607792 -0.500000 -1.000000
v 3.607792 8.000000 -1.000000
v -3.607792 8.000000 1.750000
v -3.607792 8.000000 -1.750000
v -2.392208 8.000000 1.750000
v -2.392208 8.000000 -1.750000
v 2.392208 8.000000 1.750000
v 2.392208 8.000000 -1.750000
v 3.607792 8.000000 1.750000
v 3.607792 8.000000 -1.750000
v 5.000000 9.000000 -1.750000
v 5.000000 9.000000 1.750000
v -5.000000 9.000000 -1.750000
v -5.000000 9.000000 1.750000
v -4.418431 8.000000 1.750000
v -4.418431 8.000000 -1.750000
v 4.418431 8.000000 1.750000
v 4.418431 8.000000 -1.750000
v -2.392208 8.000000 -1.000000
v -2.392208 -0.500000 -1.000000
v -2.392208 -0.500000 1.000000
v -2.392208 8.000000 1.000000
v 2.392208 -0.500000 -1.000000
v 2.392208 -0.500000 1.000000
v 2.392208 8.000000 1.000000
v 2.392208 8.000000 -1.000000
v -3.500000 9.000000 25.000000
v -4.000000 9.500000 25.000000
v -3.500000 9.000000 -25.000000
v -4.000000 9.500000 -25.000000
v -1.500000 9.000000 25.000000
v -1.000000 9.500000 25.000000
v -1.500000 9.000000 -25.000000
v -1.000000 9.500000 -25.000000
v -4.000000 10.000000 25.000000
v -4.000000 10.000000 -25.000000
v -1.000000 10.000000 -25.000000
v -1.000000 10.000000 25.000000
v -3.500000 9.000000 0.000000
v -4.000000 9.500000 0.000000
v -1.500000 9.000000 0.000000
v -1.000000 9.500000 0.000000
v -4.000000 10.000000 0.000000
v -1.000000 10.000000 0.000000
v -2.500000 9.345138 -25.000000
v -2.500000 9.345138 25.000000
v -2.500000 9.345138 0.000000
v -1.750000 10.000000 -25.000000
v -1.750000 10.000000 0.000000
v -1.750000 10.000000 25.000000
v -3.250000 10.000000 25.000000
v -3.250000 10.000000 -25.000000
v -3.250000 10.000000 0.000000
v 1.500000 9.000000 25.000000
v 1.000000 9.500000 25.000000
v 1.500000 9.000000 -25.000000
v 1.000000 9.500000 -25.000000
v 3.500000 9.000000 25.000000
v 4.000000 9.500000 25.000000
v 3.500000 9.000000 -25.000000
v 4.000000 9.500000 -25.000000
v 1.000000 10.000000 25.000000
v 1.000000 10.000000 -25.000000
v 4.000000 10.000000 -25.000000
v 4.000000 10.000000 25.000000
v 1.500000 9.000000 0.000000
v 1.000000 9.500000 0.000000
v 3.500000 9.000000 0.000000
v 4.000000 9.500000 0.000000
v 1.000000 10.000000 0.000000
v 4.000000 10.000000 0.000000
v 2.500000 9.345138 -25.000000
v 2.500000 9.345138 25.000000
v 2.500000 9.345138 0.000000
v 3.250000 10.000000 -25.000000
v 3.250000 10.000000 0.000000
v 3.250000 10.000000 25.000000
v 1.750000 10.000000 25.000000
v 1.750000 10.000000 -25.000000
v 1.750000 10.000000 0.000000
v 3.658234 9.000000 1.750000
v 3.613785 9.000000 -1.750000
v -3.624710 9.000000 -1.750000
v -3.615120 9.000000 1.750000
v -1.363663 9.000000 -1.750000
v -1.317986 9.000000 1.750000
v 1.321731 9.000000 -1.750000
v 1.241776 9.000000 1.750000
vn -1.0000 -0.0000 -0.0000
vn -0.0000 -0.0000 -1.0000
vn -0.0000 -0.0000 1.0000
vn -0.0000 -1.0000 -0.0000
vn 1.0000 -0.0000 -0.0000
vn -0.7071 -0.7071 -0.0000
vn 0.8644 -0.5027 -0.0000
vn -0.8644 -0.5027 -0.0000
vn -0.0000 1.0000 -0.0000
vn 0.7071 -0.7071 -0.0000
vn -0.6577 0.7533 -0.0000
vn 0.6577 0.7533 -0.0000
vt 2.151282 1.688731
vt 1.760806 0.029207
vt 2.151283 0.029207
vt 3.016415 1.688730
vt 2.779087 0.029207
vt 3.016415 0.029207
vt 2.388611 1.688731
vt 2.388611 0.029207
vt 0.540569 1.698302
vt 0.686997 1.935630
vt 0.540569 1.935630
vt 1.998135 3.348254
vt 1.760806 1.688731
vt 1.998135 1.688731
vt 3.016415 3.348254
vt 2.625939 1.688731
vt 3.016415 1.688731
vt 2.625939 3.348254
vt 0.672511 3.598126
vt 0.773716 0.020016
vt 0.773716 3.598126
vt 0.150093 1.935631
vt 0.003664 1.698302
vt 0.150092 1.698302
vt 0.540568 0.526874
vt 0.686997 0.764202
vt 0.540568 0.764202
vt 0.150092 0.764202
vt 0.003664 0.526874
vt 0.150092 0.526874
vt 0.686997 2.093898
vt 0.003664 1.935631
vt 0.003664 0.368606
vt 0.686997 0.526874
vt 1.565568 0.029207
vt 0.882235 0.255062
vt 0.882235 0.029207
vt 0.882235 2.433296
vt 1.565568 2.207442
vt 1.565568 2.433296
vt 0.882235 2.207442
vt 1.565568 1.938933
vt 0.882235 1.488572
vt 0.882235 1.937061
vt 1.565568 0.973199
vt 1.565568 0.525704
vt 1.760806 0.526873
vt 2.471189 0.763180
vt 0.837457 2.433296
vt 0.612137 3.367396
vt 0.612137 2.433296
vt 0.420560 2.433296
vt 0.195241 3.367396
vt 0.195241 2.433296
vt 2.080713 2.422704
vt 2.306032 2.422704
vt 2.388611 3.348254
vt 2.306032 2.614281
vt 2.080713 2.614281
vt 2.471189 0.954757
vt 2.779087 1.688730
vt 0.003664 3.367396
vt 0.003664 2.433296
vt 2.696509 0.763180
vt 0.100014 3.598126
vt -0.001190 7.176236
vt -0.001190 3.598126
vt 0.600949 3.598126
vt 0.493606 7.176236
vt 0.493606 3.598126
vt 0.672512 7.176236
vt 0.100014 0.020016
vt 0.171576 3.598126
vt 1.059964 3.598126
vt 0.773716 7.176236
vt 1.059964 0.020016
vt 0.171576 7.176236
vt 0.100014 7.176236
vt 0.600949 0.020016
vt 0.672511 0.020016
vt 0.493606 0.020016
vt -0.001191 0.020016
vt 0.386262 0.020016
vt 0.278919 3.598126
vt 0.278919 0.020016
vt 0.386263 3.598126
vt 0.278919 7.176236
vt 0.171576 0.020016
vt 0.386263 7.176236
vt 0.882235 0.517025
vt 1.565568 0.255062
vt 1.565568 1.497491
vt 0.882235 0.988810
vt 1.760806 1.688731
vt 0.686997 1.698302
vt 1.760806 3.348254
vt 0.003664 0.764202
vt 0.003664 2.093898
vt 0.686997 0.368606
vt 1.760806 1.935630
vt 1.760806 2.093897
vt 1.760806 1.698301
vt 1.760806 0.764201
vt 1.760806 0.368606
vt 0.837457 3.367396
vt 0.420560 3.367396
vt 2.696509 0.954757
vt 0.600949 7.176236
vt 1.059965 7.176236
s 0
usemtl concrete_light
f 54/19/6 43/20/6 53/21/6
f 56/65/10 45/66/10 55/67/10
f 57/68/9 65/69/9 67/70/9
f 42/71/1 57/68/1 54/19/1
f 48/72/5 58/73/5 56/65/5
f 55/74/4 41/75/4 53/21/4
f 47/76/4 53/21/4 43/20/4
f 56/65/5 52/77/5 46/78/5
f 54/19/1 50/79/1 44/80/1
f 50/79/9 67/70/9 66/81/9
f 48/72/10 55/67/10 47/82/10
f 42/71/6 53/21/6 41/75/6
f 63/84/9 52/77/9 58/73/9
f 62/85/9 58/73/9 51/88/9
f 81/19/6 70/20/6 80/21/6
f 83/65/10 72/66/10 82/67/10
f 84/68/9 92/69/9 94/70/9
f 69/71/1 84/68/1 81/19/1
f 75/72/5 85/73/5 83/65/5
f 82/74/4 68/75/4 80/21/4
f 74/76/4 80/21/4 70/20/4
f 83/65/5 79/77/5 73/78/5
f 81/19/1 77/79/1 71/80/1
f 77/79/9 94/70/9 93/81/9
f 75/72/10 82/67/10 74/82/10
f 69/71/6 80/21/6 68/75/6
f 90/84/9 79/77/9 85/73/9
f 89/85/9 85/73/9 78/88/9
f 54/19/6 44/80/6 43/20/6
f 56/65/10 46/78/10 45/66/10
f 57/68/9 49/108/9 65/69/9
f 42/71/1 49/108/1 57/68/1
f 48/72/5 51/88/5 58/73/5
f 55/74/4 45/109/4 41/75/4
f 47/76/4 55/74/4 53/21/4
f 56/65/5 58/73/5 52/77/5
f 54/19/1 57/68/1 50/79/1
f 50/79/9 57/68/9 67/70/9
f 48/72/10 56/65/10 55/67/10
f 42/71/6 54/19/6 53/21/6
f 63/84/9 64/87/9 52/77/9
f 62/85/9 63/84/9 58/73/9
f 81/19/6 71/80/6 70/20/6
f 83/65/10 73/78/10 72/66/10
f 84/68/9 76/108/9 92/69/9
f 69/71/1 76/108/1 84/68/1
f 75/72/5 78/88/5 85/73/5
f 82/74/4 72/109/4 68/75/4
f 74/76/4 82/74/4 80/21/4
f 83/65/5 85/73/5 79/77/5
f 81/19/1 84/68/1 77/79/1
f 77/79/9 84/68/9 94/70/9
f 75/72/10 83/65/10 82/67/10
f 69/71/6 81/19/6 80/21/6
f 90/84/9 91/87/9 79/77/9
f 89/85/9 90/84/9 85/73/9
usemtl concrete
f 2/1/1 3/2/1 1/3/1
f 4/4/2 34/5/2 3/6/2
f 36/7/3 1/3/3 35/8/3
f 36/9/4 17/10/4 2/11/4
f 40/12/2 15/13/2 37/14/2
f 16/15/5 13/16/5 15/17/5
f 14/18/3 38/7/3 13/16/3
f 4/22/4 20/23/4 33/24/4
f 14/25/4 21/26/4 39/27/4
f 40/28/4 24/29/4 16/30/4
f 40/28/4 39/27/4 36/9/4
f 29/31/4 18/32/4 4/22/4
f 32/33/4 23/34/4 14/25/4
f 32/35/7 26/36/7 31/37/7
f 29/38/8 27/39/8 30/40/8
f 28/41/9 97/42/9 27/39/9
f 100/43/3 98/44/3 17/10/3
f 101/45/2 96/46/2 24/47/2
f 5/48/5 36/7/5 35/8/5
f 9/49/4 7/50/4 11/51/4
f 12/52/9 6/53/9 10/54/9
f 7/50/2 12/52/2 11/51/2
f 11/55/1 38/7/1 9/56/1
f 9/56/1 39/57/1 10/58/1
f 10/58/1 40/12/1 12/59/1
f 12/59/1 37/14/1 11/55/1
f 6/60/5 33/61/5 36/7/5
f 10/54/3 5/62/3 9/63/3
f 33/61/5 7/64/5 34/5/5
f 7/64/5 35/8/5 34/5/5
f 95/90/9 25/91/9 96/46/9
f 99/92/9 102/93/9 101/45/9
f 2/1/1 4/94/1 3/2/1
f 4/4/2 33/61/2 34/5/2
f 36/7/3 2/1/3 1/3/3
f 36/9/4 19/95/4 17/10/4
f 40/12/2 16/96/2 15/13/2
f 16/15/5 14/18/5 13/16/5
f 14/18/3 39/57/3 38/7/3
f 4/22/4 18/32/4 20/23/4
f 14/25/4 23/34/4 21/26/4
f 40/28/4 22/97/4 24/29/4
f 33/24/4 20/23/4 22/97/4
f 33/24/4 22/97/4 40/28/4
f 21/26/4 19/95/4 36/9/4
f 36/9/4 33/24/4 40/28/4
f 39/27/4 21/26/4 36/9/4
f 2/11/4 17/10/4 29/31/4
f 29/31/4 30/98/4 18/32/4
f 4/22/4 2/11/4 29/31/4
f 16/30/4 24/29/4 32/33/4
f 32/33/4 31/99/4 23/34/4
f 14/25/4 16/30/4 32/33/4
f 32/35/7 25/91/7 26/36/7
f 29/38/8 28/41/8 27/39/8
f 28/41/9 98/44/9 97/42/9
f 23/34/3 31/99/3 26/36/3
f 23/34/3 26/36/3 95/90/3
f 21/26/3 23/34/3 95/90/3
f 21/26/3 95/90/3 102/93/3
f 19/95/3 21/26/3 102/93/3
f 19/95/3 102/93/3 100/43/3
f 28/41/3 29/31/3 17/10/3
f 17/10/3 19/95/3 100/43/3
f 98/44/3 28/41/3 17/10/3
f 18/100/2 30/101/2 27/39/2
f 18/100/2 27/39/2 97/42/2
f 20/102/2 18/100/2 97/42/2
f 20/102/2 97/42/2 99/92/2
f 22/103/2 20/102/2 99/92/2
f 22/103/2 99/92/2 101/45/2
f 25/91/2 32/104/2 24/47/2
f 24/47/2 22/103/2 101/45/2
f 96/46/2 25/91/2 24/47/2
f 5/48/5 6/60/5 36/7/5
f 9/49/4 5/105/4 7/50/4
f 12/52/9 8/106/9 6/53/9
f 7/50/2 8/106/2 12/52/2
f 11/55/1 37/14/1 38/7/1
f 9/56/1 38/7/1 39/57/1
f 10/58/1 39/57/1 40/12/1
f 12/59/1 40/12/1 37/14/1
f 6/60/5 8/107/5 33/61/5
f 10/54/3 6/53/3 5/62/3
f 33/61/5 8/107/5 7/64/5
f 7/64/5 5/48/5 35/8/5
f 95/90/9 26/36/9 25/91/9
f 99/92/9 100/43/9 102/93/9
usemtl vent_fan_color
f 59/83/11 63/84/11 62/85/11
f 61/86/11 64/87/11 63/84/11
f 66/81/12 61/86/12 59/83/12
f 67/70/12 60/89/12 61/86/12
f 86/83/11 90/84/11 89/85/11
f 88/86/11 91/87/11 90/84/11
f 93/81/12 88/86/12 86/83/12
f 94/70/12 87/89/12 88/86/12
f 59/83/11 61/86/11 63/84/11
f 61/86/11 60/89/11 64/87/11
f 66/81/12 67/70/12 61/86/12
f 67/70/12 65/69/12 60/89/12
f 86/83/11 88/86/11 90/84/11
f 88/86/11 87/89/11 91/87/11
f 93/81/12 94/70/12 88/86/12
f 94/70/12 92/69/12 87/89/12
