# Blender 5.0.1
# www.blender.org
mtllib rock_7.mtl
o rock_7
v 1.028043 -0.492945 -0.366109
v 0.946473 0.046855 -0.418477
v -0.832935 -0.373604 -0.208530
v -0.735688 -0.169848 0.207035
v -0.768268 0.255599 0.134360
v -0.910648 0.363257 -0.063695
v -0.934588 0.241355 -0.258639
v -0.284611 -0.114138 -0.313292
v 0.047374 0.288252 -0.617316
v 0.882102 0.429080 -0.463611
v 1.292606 -0.254768 -0.416110
v 1.443953 -0.566743 -0.174378
v 1.113783 0.359385 0.469951
v 1.270669 -0.483110 0.227919
v -0.098910 -0.197524 0.018669
v 0.032859 -0.257639 0.325034
v 0.800898 -0.400319 0.423008
v 0.071133 0.628011 0.516997
v -0.371908 0.090692 0.173964
v -1.753115 -0.401807 0.067766
v -1.892984 0.028619 0.238227
v -2.366441 0.073221 -0.058896
v -1.780350 0.020546 -0.333450
v 1.117806 0.021694 0.053811
v 0.969534 -0.028726 0.609271
v 0.069585 0.157987 0.606992
v -0.136866 -0.225400 -0.181871
v 0.694540 -0.549863 -0.050930
v 0.067734 0.851091 -0.265199
v 1.018231 0.660792 0.117498
vn -0.1909 -0.6825 -0.7055
vn 0.0282 0.2970 0.9545
vn -0.1764 0.8925 0.4151
vn -0.1685 0.8372 -0.5203
vn 0.0320 0.2087 -0.9775
vn 0.1671 -0.6518 -0.7397
vn 0.1254 -0.9384 0.3220
vn -0.2959 -0.4083 -0.8636
vn 0.1940 -0.0828 -0.9775
vn 0.2901 -0.4943 -0.8195
vn 0.6452 0.7388 -0.1947
vn 0.9573 0.2290 -0.1766
vn 0.8787 0.3701 0.3015
vn -0.2042 -0.5372 0.8184
vn -0.6764 -0.7212 0.1494
vn 0.7561 -0.0467 0.6527
vn 0.0632 0.3163 0.9466
vn 0.2645 -0.2511 0.9311
vn -0.2662 -0.8623 -0.4308
vn -0.0613 -0.9689 -0.2399
vn -0.0393 -0.9504 0.3087
vn -0.3717 -0.9260 0.0656
vn 0.2037 -0.9742 0.0969
vn 0.3366 0.8449 -0.4157
vn -0.3891 0.8854 0.2542
vn -0.3163 0.5113 -0.7991
vn 0.2253 0.7698 0.5972
vn 0.9640 0.1353 -0.2291
vn -0.5038 -0.4546 0.7345
vn -0.3687 -0.6526 -0.6619
vn 0.1195 -0.8410 0.5276
vn -0.0401 -0.3791 0.9245
vn 0.0392 0.0718 0.9966
vn -0.1186 0.8341 0.5387
vn -0.1756 0.8442 -0.5064
vn -0.0181 -0.3413 -0.9398
vn 0.0119 -0.6090 -0.7931
vn -0.0729 -0.0914 -0.9931
vn -0.0755 -0.1238 -0.9894
vn 0.8767 0.3776 -0.2979
vn 0.8819 0.4685 0.0524
vn -0.0882 -0.4141 0.9060
vn -0.6065 -0.4090 0.6819
vn 0.2472 -0.5215 0.8166
vn 0.0923 0.1870 0.9780
vn -0.7042 0.1358 0.6969
vn -0.2664 -0.8591 -0.4371
vn 0.0123 -0.9779 0.2086
vn -0.2134 -0.9169 0.3372
vn -0.7906 -0.5680 0.2286
vn -0.4725 0.7722 -0.4248
vn 0.0820 0.9585 0.2730
vn -0.5344 0.5196 0.6666
vn 0.0670 0.5274 -0.8470
vn -0.2439 -0.3710 0.8961
vn 0.9707 0.0285 -0.2388
vt 0.437500 0.097338
vt 0.528833 0.187500
vt 0.395522 0.167370
vt 0.613407 0.000000
vt 0.625000 0.062500
vt 0.529137 0.062500
vt 0.625000 0.125000
vt 0.533174 0.125000
vt 0.625000 0.191690
vt 0.479345 0.301251
vt 0.375000 0.311537
vt 0.375000 0.048389
vt 0.597380 0.375000
vt 0.625000 0.437500
vt 0.572820 0.476532
vt 0.358652 0.513919
vt 0.443727 0.504617
vt 0.375000 0.594902
vt 0.551852 0.669283
vt 0.653676 0.745046
vt 0.379533 0.733520
vt 0.419359 0.812500
vt 0.557608 0.875000
vt 0.444191 0.875000
vt 0.597651 0.967114
vt 0.391550 0.952950
vt 0.516871 0.812500
vt 0.612035 0.786687
vt 0.479400 1.000000
vt 0.192400 0.528467
vt 0.250000 0.500000
vt 0.312500 0.628618
vt 0.312500 0.750000
vt 0.250000 0.750000
vt 0.172050 0.720346
vt 0.125000 0.592471
vt 0.750000 0.592467
vt 0.687500 0.660182
vt 0.687500 0.524808
vt 0.846634 0.625000
vt 0.750000 0.730862
vt 0.750000 0.500000
vt 0.872290 0.559876
vt 0.479400 0.000000
vt 0.625000 0.875000
vt 0.856089 0.687500
vt 0.871071 0.750000
s 0
f 20/1/1 23/2/1 3/3/1
f 19/4/2 5/5/2 21/6/2
f 21/6/3 6/7/3 22/8/3
f 6/7/4 23/2/4 22/8/4
f 23/2/5 7/9/5 8/10/5
f 3/3/6 8/10/6 27/11/6
f 20/1/7 3/3/7 15/12/7
f 7/9/8 9/13/8 8/10/8
f 9/13/9 10/14/9 2/15/9
f 1/16/10 11/17/10 12/18/10
f 2/15/11 24/19/11 11/17/11
f 24/19/12 13/20/12 14/21/12
f 24/19/13 14/21/13 12/18/13
f 17/22/14 26/23/14 16/24/14
f 16/24/15 19/25/15 15/26/15
f 13/20/16 25/27/16 14/21/16
f 13/28/17 26/23/17 25/27/17
f 19/25/18 4/29/18 15/26/18
f 1/16/19 27/30/19 8/31/19
f 12/18/20 28/32/20 1/16/20
f 28/32/21 14/21/21 17/33/21
f 28/32/22 16/34/22 27/30/22
f 27/30/23 15/35/23 3/36/23
f 29/37/24 30/38/24 10/39/24
f 6/40/25 18/41/25 29/37/25
f 9/42/26 7/43/26 29/37/26
f 30/38/27 18/41/27 13/20/27
f 10/39/28 13/20/28 2/15/28
f 21/6/29 22/8/29 20/1/29
f 20/1/30 22/8/30 23/2/30
f 4/44/31 20/1/31 15/12/31
f 4/44/32 21/6/32 20/1/32
f 4/44/33 19/4/33 21/6/33
f 21/6/34 5/5/34 6/7/34
f 6/7/35 7/9/35 23/2/35
f 3/3/36 23/2/36 8/10/36
f 9/13/37 2/15/37 8/10/37
f 8/10/38 2/15/38 11/17/38
f 8/10/39 11/17/39 1/16/39
f 24/19/40 2/15/40 13/20/40
f 11/17/41 24/19/41 12/18/41
f 17/22/42 25/27/42 26/23/42
f 16/24/43 26/23/43 19/25/43
f 14/21/44 25/27/44 17/22/44
f 13/28/45 18/45/45 26/23/45
f 26/23/46 18/45/46 19/25/46
f 1/16/47 28/32/47 27/30/47
f 28/32/48 12/18/48 14/21/48
f 28/32/49 17/33/49 16/34/49
f 15/35/50 27/30/50 16/34/50
f 29/37/51 7/43/51 6/40/51
f 29/37/52 18/41/52 30/38/52
f 6/40/53 5/46/53 18/41/53
f 9/42/54 29/37/54 10/39/54
f 5/46/55 19/47/55 18/41/55
f 10/39/56 30/38/56 13/20/56
