# Blender 5.0.1
# www.blender.org
mtllib rock_3.mtl
o rock_3
v -0.327074 -0.242176 0.460308
v -0.520367 0.496374 0.123747
v -0.359953 -0.509350 -0.367365
v -0.418963 -0.431355 0.124441
v -0.434110 0.216002 0.438002
v -0.338173 0.213849 -0.506952
v -0.486018 -0.316226 -0.516980
v 0.104280 -0.202112 -0.137104
v -0.154845 -0.417488 -0.468919
v 0.143902 0.327482 -0.528449
v 0.155706 -0.213368 -0.220729
v 0.259377 -0.238497 -0.187049
v 0.437243 0.478848 -0.351301
v 0.600391 0.405612 0.064159
v 0.649336 0.167347 0.303838
v 0.374162 -0.152584 0.641516
v 0.400382 -0.396447 0.252268
v 0.267331 -0.432864 0.438146
v 0.084312 0.194457 0.185981
v -0.623352 0.044897 0.270671
v -0.555570 0.185053 -0.152300
v -0.218853 0.027954 -0.622375
v 0.756214 0.169030 -0.121552
v 0.238535 0.122976 0.603333
v 0.002348 -0.138246 0.714231
v -0.055521 -0.397471 -0.024863
v 0.210692 -0.525886 0.051644
v -0.156136 0.508822 -0.339752
v 0.193827 0.452278 -0.077953
v -0.229104 0.603092 -0.048645
vn -0.7510 -0.4660 0.4679
vn -0.6051 -0.1029 0.7895
vn -0.7776 0.3478 0.5238
vn -0.9769 0.1927 -0.0927
vn 0.6759 -0.1514 -0.7213
vn 0.0394 -0.3204 -0.9465
vn -0.5396 0.1661 -0.8254
vn -0.1459 0.4526 -0.8797
vn 0.6048 -0.6676 -0.4342
vn 0.4137 -0.4434 -0.7952
vn 0.8854 0.4073 0.2241
vn 0.8579 -0.4075 0.3131
vn 0.1953 0.2283 0.9538
vn -0.2232 -0.7659 0.6030
vn 0.7186 -0.5666 0.4033
vn 0.3731 0.6950 0.6147
vn 0.1043 0.9860 0.1303
vn -0.5879 -0.0983 0.8029
vn -0.2981 -0.9449 0.1356
vn 0.7285 -0.6721 -0.1326
vn -0.7701 -0.4907 -0.4076
vn 0.4468 -0.8825 0.1469
vn 0.2541 -0.8708 0.4209
vn 0.1618 -0.9714 0.1735
vn 0.0527 0.9883 0.1430
vn 0.2745 0.6284 0.7278
vn 0.0243 0.7398 -0.6724
vn -0.1687 0.5628 -0.8092
vn -0.6790 0.6314 -0.3746
vn 0.2262 0.6097 0.7597
vn 0.0608 0.9868 0.1501
vn -0.9150 -0.3156 -0.2512
vn -0.9801 -0.1862 0.0690
vn -0.7687 0.4708 -0.4330
vn -0.8358 0.2424 -0.4926
vn -0.8330 -0.5532 -0.0122
vn 0.5308 -0.4103 -0.7415
vn -0.0870 -0.6450 -0.7592
vn 0.3275 -0.8886 0.3210
vn 0.8846 -0.4108 0.2206
vn 0.2663 -0.1723 -0.9484
vn 0.5404 -0.0656 -0.8388
vn 0.7494 0.6365 -0.1821
vn 0.1286 -0.6141 0.7787
vn -0.1427 0.4933 0.8581
vn 0.5227 0.3641 0.7709
vn -0.3092 0.9117 0.2704
vn 0.3143 0.7496 0.5825
vn 0.0064 -0.5021 -0.8648
vn 0.3894 -0.9199 -0.0456
vn 0.0900 -0.6453 -0.7586
vn 0.7709 -0.4792 -0.4197
vn -0.4803 -0.8341 0.2711
vn 0.3140 0.9235 -0.2203
vn -0.5351 0.7025 -0.4693
vn -0.1459 0.7373 0.6596
vt 0.457209 0.000000
vt 0.535586 0.062500
vt 0.409656 0.067109
vt 0.562500 0.000000
vt 0.625000 0.086366
vt 0.559466 0.151993
vt 0.527292 0.311336
vt 0.435494 0.457630
vt 0.400568 0.312565
vt 0.455705 0.237212
vt 0.601764 0.268055
vt 0.621503 0.406367
vt 0.562937 0.613297
vt 0.406879 0.715947
vt 0.434471 0.547978
vt 0.716774 0.500000
vt 0.625000 0.656969
vt 0.562500 0.708512
vt 0.500000 0.802274
vt 0.562500 0.829397
vt 0.500000 0.883787
vt 0.410980 0.833359
vt 0.457697 0.993217
vt 0.625000 0.858584
vt 0.562500 0.995504
vt 0.375000 0.937500
vt 0.295516 0.583075
vt 0.205254 0.647320
vt 0.187500 0.500000
vt 0.311741 0.662150
vt 0.291641 0.750000
vt 0.125000 0.750000
vt 0.125000 0.687500
vt 0.125000 0.524665
vt 0.795449 0.562500
vt 0.711817 0.625000
vt 0.658212 0.562500
vt 0.812500 0.627202
vt 0.733584 0.722339
vt 0.832980 0.513280
vt 0.875000 0.663634
vt 0.375000 0.225335
vt 0.375000 0.434610
vt 0.625000 1.000000
s 0
f 1/1/1 20/2/1 4/3/1
f 5/4/2 20/2/2 1/1/2
f 2/5/3 20/2/3 5/4/3
f 2/5/4 21/6/4 20/2/4
f 22/7/5 11/8/5 9/9/5
f 7/10/6 22/7/6 9/9/6
f 6/11/7 22/7/7 7/10/7
f 6/11/8 10/12/8 22/7/8
f 23/13/9 17/14/9 12/15/9
f 10/16/10 23/13/10 11/8/10
f 23/13/11 14/17/11 15/18/11
f 17/14/12 15/18/12 16/19/12
f 24/20/13 25/21/13 16/19/13
f 18/22/14 25/21/14 1/23/14
f 16/19/15 18/22/15 17/14/15
f 14/17/16 24/20/16 15/18/16
f 24/20/17 19/24/17 5/25/17
f 5/25/18 1/23/18 25/21/18
f 18/22/19 1/23/19 26/26/19
f 8/27/20 26/28/20 9/29/20
f 11/8/21 27/30/21 8/27/21
f 27/30/22 17/14/22 18/31/22
f 26/28/23 1/32/23 4/33/23
f 26/28/24 4/33/24 3/34/24
f 28/35/25 29/36/25 13/37/25
f 29/36/26 30/38/26 19/39/26
f 10/16/27 28/35/27 13/37/27
f 6/40/28 28/35/28 10/16/28
f 6/40/29 30/38/29 28/35/29
f 30/38/30 2/41/30 19/39/30
f 13/37/31 29/36/31 14/17/31
f 4/3/32 20/2/32 21/6/32
f 4/3/33 21/6/33 7/10/33
f 21/6/34 2/5/34 6/11/34
f 7/10/35 21/6/35 6/11/35
f 4/3/36 7/10/36 3/42/36
f 22/7/37 10/12/37 11/8/37
f 3/42/38 7/10/38 9/9/38
f 8/43/39 9/9/39 11/8/39
f 23/13/40 15/18/40 17/14/40
f 11/8/41 23/13/41 12/15/41
f 10/16/42 13/37/42 23/13/42
f 13/37/43 14/17/43 23/13/43
f 18/22/44 16/19/44 25/21/44
f 24/20/45 5/25/45 25/21/45
f 16/19/46 15/18/46 24/20/46
f 14/17/47 19/24/47 24/20/47
f 5/25/48 19/24/48 2/44/48
f 8/27/49 27/30/49 26/28/49
f 9/29/50 26/28/50 3/34/50
f 11/8/51 12/15/51 27/30/51
f 27/30/52 12/15/52 17/14/52
f 27/30/53 18/31/53 26/28/53
f 28/35/54 30/38/54 29/36/54
f 6/40/55 2/41/55 30/38/55
f 29/36/56 19/39/56 14/17/56
