# Blender 5.0.1
# www.blender.org
mtllib rock_6.mtl
o rock_6
v 1.851488 0.355170 -0.926039
v -1.418104 -0.559578 -0.222296
v -1.416097 -0.535141 0.570408
v -0.416905 -0.281700 0.884760
v -1.646582 0.502628 0.642708
v -0.954782 0.535093 0.043921
v -0.558597 0.171358 -0.344219
v -0.522029 -0.033818 -0.755772
v 1.101593 -0.519220 -1.005593
v 0.105356 -0.209536 -0.769124
v 0.021974 0.350601 -0.987772
v 1.112996 0.500749 -1.373456
v 1.722457 -0.475560 -0.889484
v 0.925339 -0.207893 0.385755
v 0.254602 -0.253385 0.189310
v 0.638636 0.216285 0.440415
v 0.041792 0.491865 0.680769
v -0.658922 0.620718 0.715692
v -2.028532 -0.096617 0.594807
v -1.885323 0.022645 -0.034336
v 1.172812 0.025143 0.042531
v 0.859816 -0.085550 0.732199
v 0.422497 0.037031 1.122178
v -0.538502 0.158322 1.195788
v -0.795673 -0.459744 -0.614055
v 1.031275 -0.662862 -0.353103
v -0.577287 -0.593780 0.129298
v 0.880535 -0.304223 0.308360
v 1.326643 0.711413 -0.611891
v 0.049727 0.579587 -0.074137
vn -0.7906 -0.5431 -0.2829
vn -0.8368 0.5404 -0.0880
vn -0.2385 0.1197 -0.9637
vn -0.1734 0.0319 0.9843
vn -0.4081 0.8065 -0.4278
vn -0.2645 -0.9547 0.1360
vn -0.3161 -0.1207 -0.9410
vn -0.0932 -0.2599 -0.9611
vn 0.4980 -0.1152 -0.8595
vn 0.1959 -0.3346 -0.9218
vn 0.8168 -0.3626 0.4488
vn 0.6370 0.3415 0.6911
vn 0.8097 -0.5471 0.2123
vn -0.0319 -0.9443 0.3275
vn 0.8252 0.5633 -0.0428
vn 0.5076 0.7800 0.3660
vn 0.1441 0.7486 0.6472
vn -0.5001 -0.5877 0.6360
vn 0.3812 -0.8838 -0.2713
vn -0.4501 -0.8925 0.0293
vn 0.1064 -0.9734 -0.2028
vn -0.1987 -0.5560 0.8071
vn 0.3435 -0.8915 0.2954
vn -0.0535 -0.9981 0.0309
vn 0.0388 -0.9813 -0.1884
vn 0.1137 0.8683 0.4829
vn -0.0305 0.9929 0.1151
vn -0.1884 0.9588 -0.2124
vn 0.6267 0.4899 0.6060
vn -0.2040 -0.3361 0.9195
vn -0.2470 0.5684 -0.7848
vn -0.8453 0.4444 -0.2966
vn -0.5186 0.4934 -0.6983
vn -0.5813 -0.8133 0.0265
vn -0.2385 -0.3271 -0.9144
vn -0.6365 0.6662 -0.3887
vn 0.8073 -0.0998 0.5817
vn 0.1890 -0.8561 0.4810
vn 0.5416 0.7547 0.3702
vn -0.0107 -0.5791 0.8152
vn 0.1674 0.7307 0.6618
vn -0.1353 0.6965 0.7047
vn 0.1647 -0.9791 0.1191
vn 0.2533 -0.9638 -0.0835
vn -0.1560 -0.8828 0.4431
vn -0.3392 -0.9104 -0.2370
vn 0.5609 -0.6675 0.4897
vn 0.1228 -0.9262 0.3565
vn -0.1163 0.6627 -0.7398
vn 0.4522 0.8854 0.1076
vn 0.1678 0.9659 -0.1970
vn 0.3778 0.8597 -0.3438
vn -0.2125 0.9494 -0.2315
vn -0.4837 0.8523 -0.1989
vn -0.1128 0.9907 -0.0766
vn 0.6582 0.4172 0.6266
vt 0.484663 0.062500
vt 0.509089 0.125000
vt 0.378344 0.125000
vt 0.616063 0.058230
vt 0.579121 0.194218
vt 0.440676 0.000000
vt 0.625000 0.125000
vt 0.488619 0.275706
vt 0.370614 0.437500
vt 0.418372 0.362894
vt 0.597313 0.355586
vt 0.605079 0.437500
vt 0.375000 0.218333
vt 0.604681 0.512747
vt 0.386788 0.506955
vt 0.536846 0.674415
vt 0.325181 0.674819
vt 0.578163 0.774957
vt 0.422166 0.753251
vt 0.479120 0.812500
vt 0.375000 0.823728
vt 0.625000 0.875000
vt 0.514474 0.875000
vt 0.542698 0.937500
vt 0.628593 1.000000
vt 0.425634 0.934978
vt 0.139138 0.538642
vt 0.246480 0.682500
vt 0.187500 0.640780
vt 0.237894 0.504598
vt 0.312500 0.583609
vt 0.312500 0.500000
vt 0.187500 0.750000
vt 0.125000 0.689284
vt 0.125000 0.625000
vt 0.750000 0.617741
vt 0.687500 0.729181
vt 0.687500 0.571070
vt 0.849457 0.625000
vt 0.750000 0.719765
vt 0.687500 0.500000
vt 0.375000 0.060716
vt 0.625000 0.937500
vt 0.824869 0.559384
vt 0.812500 0.704246
vt 0.755453 0.500000
vt 0.875000 0.691770
s 0
f 19/1/1 20/2/1 2/3/1
f 5/4/2 20/2/2 19/1/2
f 20/2/3 7/5/3 2/3/3
f 5/4/4 19/1/4 4/6/4
f 5/4/5 6/7/5 20/2/5
f 8/8/6 9/9/6 10/10/6
f 11/11/7 12/12/7 8/8/7
f 8/8/8 10/10/8 25/13/8
f 12/12/9 1/14/9 13/15/9
f 12/12/10 13/15/10 9/9/10
f 1/14/11 21/16/11 28/17/11
f 21/16/12 16/18/12 14/19/12
f 21/16/13 14/19/13 28/17/13
f 14/19/14 22/20/14 15/21/14
f 16/18/15 22/20/15 14/19/15
f 16/18/16 17/22/16 23/23/16
f 17/22/17 24/24/17 23/23/17
f 24/24/18 5/25/18 4/26/18
f 25/27/19 15/28/19 27/29/19
f 10/30/20 26/31/20 15/28/20
f 13/15/21 26/31/21 9/32/21
f 28/17/22 14/19/22 15/28/22
f 27/29/23 15/28/23 4/33/23
f 27/29/24 3/34/24 2/35/24
f 25/27/25 27/29/25 2/35/25
f 30/36/26 16/37/26 29/38/26
f 6/39/27 17/40/27 30/36/27
f 12/41/28 30/36/28 29/38/28
f 1/14/29 16/37/29 21/16/29
f 3/42/30 4/6/30 19/1/30
f 20/2/31 6/7/31 7/5/31
f 7/5/32 8/8/32 25/13/32
f 2/3/33 7/5/33 25/13/33
f 3/42/34 19/1/34 2/3/34
f 8/8/35 12/12/35 9/9/35
f 7/5/36 11/11/36 8/8/36
f 13/15/37 1/14/37 28/17/37
f 22/20/38 23/23/38 4/26/38
f 22/20/39 16/18/39 23/23/39
f 23/23/40 24/24/40 4/26/40
f 17/22/41 18/43/41 24/24/41
f 24/24/42 18/43/42 5/25/42
f 22/20/43 4/26/43 15/21/43
f 25/27/44 10/30/44 15/28/44
f 15/28/45 26/31/45 28/17/45
f 10/30/46 9/32/46 26/31/46
f 13/15/47 28/17/47 26/31/47
f 27/29/48 4/33/48 3/34/48
f 7/44/49 6/39/49 30/36/49
f 30/36/50 17/40/50 16/37/50
f 6/39/51 18/45/51 17/40/51
f 1/14/52 12/41/52 29/38/52
f 12/41/53 11/46/53 30/36/53
f 11/46/54 7/44/54 30/36/54
f 6/39/55 5/47/55 18/45/55
f 1/14/56 29/38/56 16/37/56
