# Blender 5.1.2
# www.blender.org
mtllib rocket_0.mtl
o rocket_0
v -0.000002 12.296413 -1.799998
v -0.000002 33.213562 -1.800001
v 0.351149 12.296413 -1.765412
v 0.351149 33.213562 -1.765414
v 0.688841 12.296413 -1.662978
v 0.688841 33.213562 -1.662981
v 1.000029 12.296413 -1.496645
v 1.000029 33.213562 -1.496648
v 1.272792 12.296413 -1.272792
v 1.272792 33.213562 -1.272794
v 1.496638 12.296413 -1.000022
v 1.496638 33.213562 -1.000024
v 1.662971 12.296413 -0.688828
v 1.662971 33.213562 -0.688830
v 1.765419 12.296413 -0.351162
v 1.765419 33.213562 -0.351165
v 1.799998 12.296413 0.000002
v 1.799998 33.213562 -0.000001
v 1.765419 12.296413 0.351166
v 1.765419 33.213562 0.351164
v 1.662971 12.296413 0.688830
v 1.662971 33.213562 0.688829
v 1.496638 12.296413 1.000026
v 1.496638 33.213562 1.000024
v 1.272792 12.296413 1.272796
v 1.272792 33.213562 1.272794
v 1.000029 12.296413 1.496649
v 1.000029 33.213562 1.496647
v 0.688841 12.296413 1.662981
v 0.688841 33.213562 1.662980
v 0.351149 12.296413 1.765415
v 0.351149 33.213562 1.765413
v -0.000002 12.296413 1.800001
v -0.000002 33.213562 1.800000
v -0.351152 12.296413 1.765415
v -0.351152 33.213562 1.765413
v -0.688844 12.296413 1.662981
v -0.688844 33.213562 1.662980
v -1.000032 12.296413 1.496649
v -1.000032 33.213562 1.496647
v -1.272795 12.296413 1.272796
v -1.272795 33.213562 1.272794
v -1.496642 12.296413 1.000026
v -1.496642 33.213562 1.000024
v -1.662974 12.296413 0.688830
v -1.662974 33.213562 0.688829
v -1.765422 12.296413 0.351166
v -1.765422 33.213562 0.351164
v -1.800002 12.296413 0.000002
v -1.800002 33.213562 -0.000001
v -1.765422 12.296413 -0.351162
v -1.765422 33.213562 -0.351165
v -1.662974 12.296413 -0.688828
v -1.662974 33.213562 -0.688830
v -1.496642 12.296413 -1.000022
v -1.496642 33.213562 -1.000024
v -1.272795 12.296413 -1.272792
v -1.272795 33.213562 -1.272794
v -1.000032 12.296413 -1.496645
v -1.000032 33.213562 -1.496648
v -0.688844 12.296413 -1.662978
v -0.688844 33.213562 -1.662981
v -0.351152 12.296413 -1.765412
v -0.351152 33.213562 -1.765414
v 0.221696 35.384083 -1.114568
v 0.000003 35.384083 -1.136403
v 0.434893 35.384083 -1.049898
v 0.631357 35.384083 -0.944886
v 0.803561 35.384083 -0.803559
v 0.944883 35.384083 -0.631350
v 1.049895 35.384083 -0.434882
v 1.114574 35.384083 -0.221703
v 1.136405 35.384083 -0.000001
v 1.114574 35.384083 0.221702
v 1.049895 35.384083 0.434882
v 0.944883 35.384083 0.631349
v 0.803561 35.384083 0.803558
v 0.631357 35.384083 0.944884
v 0.434893 35.384083 1.049897
v 0.221696 35.384083 1.114567
v 0.000003 35.384083 1.136403
v -0.221691 35.384083 1.114567
v -0.434887 35.384083 1.049897
v -0.631351 35.384083 0.944884
v -0.803556 35.384083 0.803558
v -0.944878 35.384083 0.631349
v -1.049890 35.384083 0.434882
v -1.114568 35.384083 0.221702
v -1.136399 35.384083 -0.000001
v -1.114568 35.384083 -0.221703
v -1.049890 35.384083 -0.434882
v -0.944878 35.384083 -0.631350
v -0.803556 35.384083 -0.803559
v -0.631351 35.384083 -0.944886
v -0.434887 35.384083 -1.049898
v -0.221691 35.384083 -1.114568
v 0.095957 36.353027 -0.482391
v 0.000008 36.353027 -0.491842
v 0.188229 36.353027 -0.454401
v 0.273259 36.353027 -0.408952
v 0.347790 36.353027 -0.347786
v 0.408954 36.353027 -0.273253
v 0.454403 36.353027 -0.188222
v 0.482396 36.353027 -0.095958
v 0.491845 36.353027 -0.000004
v 0.482396 36.353027 0.095948
v 0.454403 36.353027 0.188213
v 0.408954 36.353027 0.273246
v 0.347790 36.353027 0.347778
v 0.273259 36.353027 0.408944
v 0.188229 36.353027 0.454393
v 0.095957 36.353027 0.482382
v 0.000008 36.353027 0.491832
v -0.095941 36.353027 0.482382
v -0.188213 36.353027 0.454393
v -0.273243 36.353027 0.408944
v -0.347773 36.353027 0.347778
v -0.408938 36.353027 0.273246
v -0.454387 36.353027 0.188213
v -0.482380 36.353027 0.095948
v -0.491829 36.353027 -0.000004
v -0.482380 36.353027 -0.095958
v -0.454387 36.353027 -0.188222
v -0.408938 36.353027 -0.273253
v -0.347773 36.353027 -0.347786
v -0.273243 36.353027 -0.408952
v -0.188213 36.353027 -0.454401
v -0.095941 36.353027 -0.482391
v -0.000003 5.092067 -2.003711
v 0.390888 5.092067 -1.965210
v 0.766798 5.092067 -1.851183
v 1.113204 5.092067 -1.666026
v 1.416837 5.092067 -1.416839
v 1.666017 5.092067 -1.113198
v 1.851174 5.092067 -0.766785
v 1.965216 5.092067 -0.390905
v 2.003709 5.092067 0.000002
v 1.965216 5.092067 0.390908
v 1.851174 5.092067 0.766788
v 1.666017 5.092067 1.113202
v 1.416837 5.092067 1.416842
v 1.113204 5.092067 1.666029
v 0.766798 5.092067 1.851187
v 0.390888 5.092067 1.965213
v -0.000003 5.092067 2.003714
v -0.390895 5.092067 1.965213
v -0.766805 5.092067 1.851187
v -1.113211 5.092067 1.666029
v -1.416843 5.092067 1.416842
v -1.666023 5.092067 1.113202
v -1.851181 5.092067 0.766788
v -1.965222 5.092067 0.390908
v -2.003715 5.092067 0.000002
v -1.965222 5.092067 -0.390905
v -1.851181 5.092067 -0.766785
v -1.666023 5.092067 -1.113198
v -1.416843 5.092067 -1.416839
v -1.113211 5.092067 -1.666026
v -0.766805 5.092067 -1.851183
v -0.390895 5.092067 -1.965210
v 0.000002 36.779346 -0.000004
v -0.000002 22.684313 -1.799999
v 0.351149 22.684313 -1.765413
v 0.688841 22.684313 -1.662979
v 1.000029 22.684313 -1.496646
v 1.272792 22.684313 -1.272793
v 1.496638 22.684313 -1.000023
v 1.662971 22.684313 -0.688829
v 1.765419 22.684313 -0.351164
v 1.799998 22.684313 0.000000
v 1.765419 22.684313 0.351165
v 1.662971 22.684313 0.688830
v 1.496638 22.684313 1.000025
v 1.272792 22.684313 1.272795
v 1.000029 22.684313 1.496648
v 0.688841 22.684313 1.662981
v 0.351149 22.684313 1.765414
v -0.000002 22.684313 1.800001
v -0.351152 22.684313 1.765414
v -0.688844 22.684313 1.662981
v -1.000032 22.684313 1.496648
v -1.272795 22.684313 1.272795
v -1.496642 22.684313 1.000025
v -1.662974 22.684313 0.688830
v -1.765422 22.684313 0.351165
v -1.800002 22.684313 0.000000
v -1.765422 22.684313 -0.351164
v -1.662974 22.684313 -0.688829
v -1.496642 22.684313 -1.000023
v -1.272795 22.684313 -1.272793
v -1.000032 22.684313 -1.496646
v -0.688844 22.684313 -1.662979
v -0.351152 22.684313 -1.765413
v -0.000000 23.745899 -1.979999
v 0.386265 23.745899 -1.941954
v 0.757727 23.745899 -1.829277
v 1.100033 23.745899 -1.646311
v 1.400073 23.745899 -1.400072
v 1.646304 23.745899 -1.100025
v 1.829270 23.745899 -0.757711
v 1.941962 23.745899 -0.386280
v 1.980000 23.745899 0.000001
v 1.941962 23.745899 0.386282
v 1.829270 23.745899 0.757713
v 1.646304 23.745899 1.100028
v 1.400073 23.745899 1.400074
v 1.100033 23.745899 1.646313
v 0.757727 23.745899 1.829279
v 0.386265 23.745899 1.941956
v -0.000000 23.745899 1.980001
v -0.386266 23.745899 1.941956
v -0.757727 23.745899 1.829279
v -1.100034 23.745899 1.646313
v -1.400073 23.745899 1.400074
v -1.646304 23.745899 1.100028
v -1.829270 23.745899 0.757713
v -1.941963 23.745899 0.386282
v -1.980000 23.745899 0.000001
v -1.941963 23.745899 -0.386280
v -1.829270 23.745899 -0.757711
v -1.646304 23.745899 -1.100025
v -1.400073 23.745899 -1.400072
v -1.100034 23.745899 -1.646311
v -0.757727 23.745899 -1.829277
v -0.386266 23.745899 -1.941954
v -0.000000 32.209160 -1.980000
v 0.386265 32.209160 -1.941955
v 0.757727 32.209160 -1.829278
v 1.100033 32.209160 -1.646312
v 1.400073 32.209160 -1.400073
v 1.646304 32.209160 -1.100026
v 1.829270 32.209160 -0.757712
v 1.941962 32.209160 -0.386281
v 1.980000 32.209160 0.000000
v 1.941962 32.209160 0.386281
v 1.829270 32.209160 0.757713
v 1.646304 32.209160 1.100027
v 1.400073 32.209160 1.400074
v 1.100033 32.209160 1.646313
v 0.757727 32.209160 1.829279
v 0.386265 32.209160 1.941956
v -0.000000 32.209160 1.980001
v -0.386266 32.209160 1.941956
v -0.757727 32.209160 1.829279
v -1.100034 32.209160 1.646313
v -1.400073 32.209160 1.400074
v -1.646304 32.209160 1.100027
v -1.829270 32.209160 0.757713
v -1.941963 32.209160 0.386281
v -1.980000 32.209160 0.000000
v -1.941963 32.209160 -0.386281
v -1.829270 32.209160 -0.757712
v -1.646304 32.209160 -1.100026
v -1.400073 32.209160 -1.400073
v -1.100034 32.209160 -1.646312
v -0.757727 32.209160 -1.829278
v -0.386266 32.209160 -1.941955
v 0.000000 3.431978 -1.316715
v 0.000000 4.061912 -1.000000
v 0.773944 3.431978 -1.065245
v 0.587784 4.061912 -0.809017
v 1.252262 3.431978 -0.406888
v 0.951050 4.061912 -0.309017
v 1.252262 3.431978 0.406888
v 0.951050 4.061912 0.309017
v 0.773944 3.431978 1.065245
v 0.587784 4.061912 0.809017
v 0.000000 3.431978 1.316715
v 0.000000 4.061912 1.000000
v -0.773944 3.431978 1.065245
v -0.587784 4.061912 0.809017
v -1.252262 3.431978 0.406888
v -0.951050 4.061912 0.309017
v -1.252262 3.431978 -0.406888
v -0.951050 4.061912 -0.309017
v -0.773944 3.431978 -1.065245
v -0.587784 4.061912 -0.809017
v 0.000000 1.464654 -1.942449
v 1.141740 1.464654 -1.571474
v 1.847366 1.464654 -0.600250
v 1.847366 1.464654 0.600250
v 1.141740 1.464654 1.571474
v 0.000000 1.464654 1.942449
v -1.141740 1.464654 1.571474
v -1.847365 1.464654 0.600250
v -1.847365 1.464654 -0.600250
v -1.141740 1.464654 -1.571474
v 0.000002 0.000000 -2.148009
v 1.262566 0.000000 -1.737776
v 2.042865 0.000000 -0.663772
v 2.042865 0.000000 0.663772
v 1.262566 0.000000 1.737776
v 0.000002 0.000000 2.148009
v -1.262563 0.000000 1.737776
v -2.042861 0.000000 0.663772
v -2.042861 0.000000 -0.663772
v -1.262563 0.000000 -1.737776
v 3.030058 4.076661 -1.125256
v 2.708369 12.192852 -1.111624
v 3.686444 4.102327 -0.916455
v 3.364755 12.218517 -0.902822
v 4.094859 4.117582 -0.361421
v 3.773169 12.233773 -0.347789
v 4.099308 4.116601 0.327840
v 3.777618 12.232791 0.341472
v 3.698094 4.099757 0.888054
v 3.376405 12.215949 0.901687
v 3.044458 4.073485 1.105239
v 2.722769 12.189676 1.118871
v 2.388072 4.047820 0.896437
v 2.066383 12.164010 0.910070
v 1.979659 4.032565 0.341404
v 1.885278 12.157767 0.353582
v 1.975209 4.033546 -0.347857
v 1.880829 12.158748 -0.335679
v 2.376423 4.050389 -0.908071
v 2.054733 12.166580 -0.894439
v 3.050442 14.139855 -0.567598
v 2.634454 14.123590 -0.699927
v 3.309277 14.149524 -0.215842
v 3.312097 14.148902 0.220981
v 3.057825 14.138227 0.576021
v 2.643579 14.121576 0.713663
v 2.227591 14.105311 0.581334
v 1.807915 14.089267 0.230607
v 1.805095 14.089889 -0.206217
v 2.220208 14.106940 -0.562285
v 2.421086 15.700835 -0.312019
v 2.186450 15.691661 -0.386658
v 2.567081 15.706290 -0.113613
v 2.568672 15.705938 0.132776
v 2.425250 15.699918 0.333034
v 2.191597 15.690526 0.410671
v 1.956961 15.681352 0.336031
v 1.744523 15.673264 0.138050
v 1.742932 15.673614 -0.108339
v 1.952796 15.682270 -0.309022
v 3.087017 2.600146 -1.372471
v 3.887443 2.631444 -1.117849
v 4.385481 2.650047 -0.441017
v 4.390907 2.648850 0.399498
v 3.901649 2.628310 1.082648
v 3.104577 2.596274 1.347492
v 2.304152 2.564976 1.092871
v 1.806114 2.546373 0.416039
v 1.800688 2.547570 -0.424477
v 2.289945 2.568108 -1.107626
v -3.030005 4.076661 -1.125256
v -2.708315 12.192852 -1.111624
v -3.686390 4.102327 -0.916455
v -3.364701 12.218517 -0.902822
v -4.094805 4.117582 -0.361421
v -3.773115 12.233773 -0.347789
v -4.099255 4.116601 0.327840
v -3.777565 12.232791 0.341472
v -3.698040 4.099757 0.888054
v -3.376351 12.215949 0.901687
v -3.044404 4.073485 1.105239
v -2.722715 12.189676 1.118871
v -2.388019 4.047820 0.896437
v -2.066329 12.164010 0.910070
v -1.979605 4.032565 0.341404
v -1.885224 12.157767 0.353582
v -1.975155 4.033546 -0.347857
v -1.880775 12.158748 -0.335679
v -2.376369 4.050389 -0.908071
v -2.054679 12.166580 -0.894439
v -3.050388 14.139855 -0.567598
v -2.634400 14.123590 -0.699927
v -3.309223 14.149524 -0.215842
v -3.312043 14.148902 0.220981
v -3.057771 14.138227 0.576021
v -2.643525 14.121576 0.713663
v -2.227537 14.105311 0.581334
v -1.807861 14.089267 0.230607
v -1.805041 14.089889 -0.206217
v -2.220154 14.106940 -0.562285
v -2.421032 15.700835 -0.312019
v -2.186396 15.691661 -0.386658
v -2.567028 15.706290 -0.113613
v -2.568618 15.705938 0.132776
v -2.425196 15.699918 0.333034
v -2.191543 15.690526 0.410671
v -1.956907 15.681352 0.336031
v -1.744469 15.673264 0.138050
v -1.742878 15.673614 -0.108339
v -1.952743 15.682270 -0.309022
v -3.086963 2.600145 -1.372471
v -3.887389 2.631444 -1.117849
v -4.385427 2.650046 -0.441017
v -4.390853 2.648850 0.399498
v -3.901595 2.628310 1.082648
v -3.104523 2.596273 1.347492
v -2.304098 2.564976 1.092871
v -1.806060 2.546372 0.416039
v -1.800634 2.547569 -0.424477
v -2.289891 2.568109 -1.107626
vn 0.0965 0.1756 -0.9797
vn 0.2858 0.1756 -0.9421
vn 0.4641 0.1756 -0.8682
vn 0.6245 0.1756 -0.7610
vn 0.7610 0.1756 -0.6245
vn 0.8682 0.1756 -0.4641
vn 0.9421 0.1756 -0.2858
vn 0.9797 0.1756 -0.0965
vn 0.9797 0.1756 0.0965
vn 0.9421 0.1756 0.2858
vn 0.8682 0.1756 0.4641
vn 0.7610 0.1756 0.6245
vn 0.6245 0.1756 0.7610
vn 0.4641 0.1756 0.8682
vn 0.2858 0.1756 0.9421
vn 0.0965 0.1756 0.9797
vn -0.0965 0.1756 0.9797
vn -0.2858 0.1756 0.9421
vn -0.4641 0.1756 0.8682
vn -0.6245 0.1756 0.7610
vn -0.7610 0.1756 0.6245
vn -0.8682 0.1756 0.4641
vn -0.9421 0.1756 0.2858
vn -0.9797 0.1756 0.0965
vn -0.9797 0.1756 -0.0965
vn -0.9421 0.1756 -0.2858
vn -0.8682 0.1756 -0.4641
vn -0.7610 0.1756 -0.6245
vn -0.6245 0.1756 -0.7610
vn -0.4641 0.1756 -0.8682
vn 0.9521 0.2911 -0.0938
vn -0.2858 0.1756 -0.9421
vn -0.0965 0.1756 -0.9797
vn 0.7727 0.0281 -0.6341
vn -0.8298 0.5520 -0.0817
vn -0.0938 0.2911 0.9521
vn -0.9155 0.2911 -0.2778
vn 0.6069 0.2911 -0.7395
vn 0.6069 0.2911 0.7395
vn -0.8437 0.2911 0.4510
vn -0.2777 0.2911 -0.9155
vn 0.9521 0.2911 0.0938
vn -0.2777 0.2911 0.9155
vn -0.8437 0.2911 -0.4510
vn 0.7396 0.2911 -0.6069
vn 0.4510 0.2911 0.8437
vn -0.9155 0.2911 0.2778
vn 0.0938 0.2911 -0.9521
vn -0.0938 0.2911 -0.9521
vn 0.9155 0.2911 0.2778
vn -0.4510 0.2911 0.8437
vn -0.7396 0.2911 -0.6069
vn 0.8437 0.2911 -0.4510
vn 0.2777 0.2911 0.9155
vn -0.9521 0.2911 0.0938
vn 0.2777 0.2911 -0.9155
vn 0.8437 0.2911 0.4510
vn -0.6069 0.2911 0.7395
vn -0.6069 0.2911 -0.7395
vn 0.9155 0.2911 -0.2778
vn 0.0938 0.2911 0.9521
vn -0.9521 0.2911 -0.0938
vn 0.4510 0.2911 -0.8437
vn 0.7396 0.2911 0.6069
vn -0.7395 0.2911 0.6069
vn -0.4510 0.2911 -0.8437
vn 0.1906 0.7541 -0.6285
vn 0.6446 0.5520 0.5290
vn -0.7979 0.5520 -0.2421
vn 0.5290 0.5520 0.6446
vn -0.7354 0.5520 -0.3931
vn 0.3931 0.5520 0.7354
vn 0.0817 0.5520 -0.8298
vn -0.6446 0.5520 -0.5290
vn 0.2420 0.5520 0.7979
vn 0.2421 0.5520 -0.7979
vn -0.5290 0.5520 -0.6445
vn 0.0817 0.5520 0.8298
vn 0.3931 0.5520 -0.7354
vn -0.3931 0.5520 -0.7354
vn -0.0817 0.5520 0.8298
vn 0.5290 0.5520 -0.6446
vn -0.2421 0.5520 -0.7979
vn -0.2420 0.5520 0.7979
vn 0.6446 0.5520 -0.5290
vn -0.0817 0.5520 -0.8298
vn -0.3931 0.5520 0.7354
vn 0.7354 0.5520 -0.3931
vn -0.5290 0.5520 0.6446
vn 0.7979 0.5520 -0.2421
vn -0.6446 0.5520 0.5290
vn 0.8298 0.5520 -0.0817
vn -0.7354 0.5520 0.3931
vn 0.8298 0.5520 0.0817
vn -0.7979 0.5520 0.2421
vn 0.7979 0.5520 0.2421
vn -0.8298 0.5520 0.0817
vn 0.7354 0.5520 0.3931
vn 0.4712 0.0281 0.8816
vn -0.9565 0.0281 0.2902
vn 0.0980 0.0281 -0.9948
vn -0.0980 0.0281 -0.9948
vn 0.9565 0.0281 0.2902
vn -0.4712 0.0281 0.8816
vn -0.7727 0.0281 -0.6341
vn 0.8816 0.0281 -0.4712
vn 0.2902 0.0281 0.9566
vn -0.9948 0.0281 0.0980
vn 0.2902 0.0281 -0.9566
vn 0.8816 0.0281 0.4712
vn -0.6341 0.0281 0.7727
vn -0.6341 0.0281 -0.7727
vn 0.9565 0.0281 -0.2902
vn 0.0980 0.0281 0.9948
vn -0.9948 0.0281 -0.0980
vn 0.4712 0.0281 -0.8816
vn 0.7727 0.0281 0.6341
vn -0.7727 0.0281 0.6341
vn -0.4712 0.0281 -0.8816
vn 0.9948 0.0281 -0.0980
vn -0.0980 0.0281 0.9948
vn -0.9565 0.0281 -0.2902
vn 0.6341 0.0281 -0.7727
vn 0.6341 0.0281 0.7727
vn -0.8816 0.0281 0.4712
vn -0.2902 0.0281 -0.9566
vn 0.9948 0.0281 0.0980
vn -0.2902 0.0281 0.9566
vn -0.8816 0.0281 -0.4712
vn -0.4167 0.7541 -0.5077
vn 0.0644 0.7541 0.6536
vn 0.3096 0.7541 -0.5792
vn -0.3096 0.7541 -0.5792
vn -0.0644 0.7541 0.6536
vn 0.4166 0.7541 -0.5077
vn -0.1906 0.7541 -0.6285
vn -0.1906 0.7541 0.6285
vn 0.5077 0.7541 -0.4166
vn -0.0644 0.7541 -0.6536
vn -0.3096 0.7541 0.5792
vn 0.5792 0.7541 -0.3096
vn -0.4167 0.7541 0.5077
vn 0.6285 0.7541 -0.1907
vn -0.5077 0.7541 0.4167
vn 0.6536 0.7541 -0.0644
vn -0.5792 0.7541 0.3096
vn 0.6536 0.7541 0.0644
vn -0.6285 0.7541 0.1907
vn 0.6285 0.7541 0.1907
vn -0.6536 0.7541 0.0644
vn 0.5792 0.7541 0.3096
vn -0.6536 0.7541 -0.0644
vn 0.5077 0.7541 0.4167
vn -0.6285 0.7541 -0.1907
vn 0.4167 0.7541 0.5077
vn -0.5792 0.7541 -0.3096
vn 0.3096 0.7541 0.5792
vn 0.0644 0.7541 -0.6536
vn -0.5077 0.7541 -0.4167
vn 0.1906 0.7541 0.6285
vn -0.0980 -0.0000 -0.9952
vn -0.2903 -0.0000 -0.9569
vn -0.4714 -0.0000 -0.8819
vn -0.6344 -0.0000 -0.7730
vn -0.7730 -0.0000 -0.6344
vn -0.8819 -0.0000 -0.4714
vn -0.9569 -0.0000 -0.2903
vn -0.9952 -0.0000 -0.0980
vn -0.9952 -0.0000 0.0980
vn -0.9569 -0.0000 0.2903
vn -0.8819 -0.0000 0.4714
vn -0.7730 -0.0000 0.6344
vn -0.6344 -0.0000 0.7730
vn -0.4714 -0.0000 0.8819
vn -0.2903 -0.0000 0.9569
vn -0.0980 -0.0000 0.9952
vn 0.0980 -0.0000 0.9952
vn 0.2903 -0.0000 0.9569
vn 0.4714 -0.0000 0.8819
vn 0.6344 -0.0000 0.7730
vn 0.7730 -0.0000 0.6344
vn 0.8819 -0.0000 0.4714
vn 0.9569 -0.0000 0.2903
vn 0.9952 -0.0000 0.0980
vn 0.9952 -0.0000 -0.0980
vn 0.9569 -0.0000 -0.2903
vn 0.8819 -0.0000 -0.4714
vn 0.7730 -0.0000 -0.6344
vn 0.6344 -0.0000 -0.7730
vn 0.4714 -0.0000 -0.8819
vn 0.2903 -0.0000 -0.9569
vn 0.0980 -0.0000 -0.9952
vn -0.0967 -0.1664 -0.9813
vn -0.2862 -0.1664 -0.9436
vn -0.4648 -0.1664 -0.8696
vn -0.6256 -0.1664 -0.7622
vn -0.7622 -0.1664 -0.6255
vn -0.8696 -0.1664 -0.4648
vn -0.9436 -0.1664 -0.2863
vn -0.9813 -0.1664 -0.0966
vn -0.9813 -0.1664 0.0966
vn -0.9436 -0.1664 0.2863
vn -0.8696 -0.1664 0.4648
vn -0.7622 -0.1664 0.6255
vn -0.6256 -0.1664 0.7622
vn -0.4648 -0.1664 0.8696
vn -0.2862 -0.1664 0.9436
vn -0.0967 -0.1664 0.9813
vn 0.0967 -0.1664 0.9813
vn 0.2862 -0.1664 0.9436
vn 0.4648 -0.1664 0.8696
vn 0.6256 -0.1664 0.7622
vn 0.7622 -0.1664 0.6255
vn 0.8696 -0.1664 0.4648
vn 0.9436 -0.1664 0.2863
vn 0.9813 -0.1664 0.0966
vn 0.9813 -0.1664 -0.0966
vn 0.9436 -0.1664 -0.2863
vn 0.8696 -0.1664 -0.4648
vn 0.7622 -0.1664 -0.6255
vn 0.6256 -0.1664 -0.7622
vn 0.4648 -0.1664 -0.8696
vn 0.2862 -0.1664 -0.9436
vn 0.0967 -0.1664 -0.9813
vn 0.2788 0.4314 -0.8580
vn 0.7299 0.4314 -0.5303
vn 0.9022 0.4314 -0.0000
vn 0.7299 0.4314 0.5303
vn 0.2788 0.4314 0.8580
vn -0.2788 0.4314 0.8580
vn -0.7299 0.4314 0.5303
vn -0.9022 0.4314 -0.0000
vn 0.6994 -0.7147 -0.0000
vn -0.7299 0.4314 -0.5303
vn -0.2788 0.4314 -0.8580
vn 0.7744 0.2895 -0.5626
vn 0.2046 -0.7095 0.6744
vn -0.2168 -0.7126 0.6672
vn 0.2168 -0.7126 -0.6672
vn -0.2046 -0.7095 -0.6744
vn -0.6994 -0.7147 -0.0000
vn 0.0704 -0.6961 0.7145
vn 0.0704 -0.6961 -0.7145
vn -0.3377 -0.6978 0.6317
vn -0.6885 -0.6945 0.2089
vn -0.5476 -0.7058 0.4494
vn -0.4561 -0.6950 0.5558
vn -0.6299 -0.7000 0.3367
vn -0.5663 -0.7142 -0.4114
vn -0.6885 -0.6945 -0.2089
vn -0.3377 -0.6978 -0.6317
vn -0.4561 -0.6950 -0.5558
vn -0.6299 -0.7000 -0.3367
vn 0.5476 -0.7058 -0.4494
vn 0.3377 -0.6978 -0.6317
vn 0.6885 -0.6945 -0.2089
vn 0.6299 -0.7000 -0.3367
vn 0.4561 -0.6950 -0.5558
vn 0.6885 -0.6945 0.2089
vn 0.3377 -0.6978 0.6317
vn 0.5663 -0.7142 0.4114
vn 0.6299 -0.7000 0.3367
vn 0.4561 -0.6950 0.5558
vn -0.9912 0.1323 -0.0000
vn -0.2958 0.2895 -0.9103
vn -0.7744 0.2895 -0.5626
vn -0.9572 0.2895 -0.0000
vn -0.7744 0.2895 0.5626
vn -0.2958 0.2895 0.9103
vn 0.2958 0.2895 0.9103
vn 0.7744 0.2895 0.5626
vn 0.2958 0.2895 -0.9103
vn 0.9572 0.2895 -0.0000
vn -0.0000 -1.0000 -0.0000
vn 0.3063 0.1323 0.9427
vn 0.8019 0.1323 -0.5826
vn -0.8019 0.1323 -0.5826
vn -0.3063 0.1323 0.9427
vn 0.9912 0.1323 -0.0000
vn -0.3063 0.1323 -0.9427
vn -0.8019 0.1323 0.5826
vn 0.8019 0.1323 0.5826
vn 0.3063 0.1323 -0.9427
vn 0.3026 0.0136 -0.9530
vn 0.8046 0.0329 -0.5929
vn 0.9992 0.0396 -0.0064
vn 0.8122 0.0312 0.5826
vn 0.3149 0.0109 0.9491
vn -0.3026 -0.0136 0.9530
vn -0.8053 -0.0102 0.5928
vn -0.9999 -0.0116 0.0064
vn -0.6416 0.0231 0.7667
vn -0.8129 -0.0086 -0.5824
vn -0.3149 -0.0109 -0.9491
vn 0.7961 0.1863 0.5758
vn -0.9992 -0.0396 0.0064
vn -0.3045 0.1836 0.9347
vn 0.3009 0.2076 0.9308
vn 0.7884 0.2275 0.5715
vn 0.2889 0.2102 -0.9340
vn 0.9718 0.2357 -0.0059
vn 0.7810 0.2291 -0.5810
vn -0.3165 0.1862 -0.9301
vn -0.9471 0.1309 -0.2929
vn -0.0396 0.9992 0.0017
vn 0.2948 0.2624 0.9188
vn 0.7373 0.3878 -0.5532
vn -0.6513 0.0114 -0.7587
vn -0.3051 0.0951 0.9475
vn 0.9025 0.4306 -0.0052
vn -0.3173 0.0978 -0.9433
vn -0.6820 0.0154 0.7312
vn 0.7444 0.3863 0.5447
vn 0.2829 0.2650 -0.9218
vn 0.0396 -0.9992 -0.0017
vn 0.2928 0.1689 -0.9411
vn 0.9809 0.1946 -0.0061
vn 0.7886 0.1879 -0.5855
vn -0.3172 0.1447 -0.9372
vn -0.8084 0.1246 -0.5752
vn -0.9932 0.1163 0.0066
vn -0.8009 0.1230 0.5860
vn -0.3051 0.1420 0.9417
vn 0.3049 0.1662 0.9378
vn -0.3026 0.0136 -0.9530
vn -0.8046 0.0329 -0.5929
vn -0.9992 0.0396 -0.0064
vn -0.8122 0.0312 0.5826
vn -0.3149 0.0109 0.9491
vn 0.3026 -0.0136 0.9530
vn 0.9501 -0.0382 0.3096
vn 0.9999 -0.0116 0.0064
vn 0.9433 0.1301 0.3055
vn 0.8129 -0.0086 -0.5824
vn 0.3149 -0.0109 -0.9491
vn -0.7961 0.1863 0.5758
vn 0.9992 -0.0396 0.0064
vn 0.3045 0.1836 0.9347
vn -0.3009 0.2076 0.9308
vn -0.7884 0.2275 0.5715
vn -0.2889 0.2102 -0.9340
vn -0.9718 0.2357 -0.0059
vn -0.7810 0.2291 -0.5810
vn 0.3165 0.1862 -0.9301
vn 0.9471 0.1309 -0.2929
vn 0.0396 0.9992 0.0017
vn -0.2948 0.2624 0.9188
vn -0.7373 0.3878 -0.5532
vn 0.6513 0.0114 -0.7587
vn 0.3051 0.0951 0.9475
vn -0.9025 0.4306 -0.0052
vn 0.3173 0.0978 -0.9433
vn 0.6414 0.0093 0.7671
vn -0.7444 0.3863 0.5447
vn -0.2829 0.2650 -0.9218
vn -0.0396 -0.9992 -0.0017
vn -0.2928 0.1689 -0.9411
vn -0.9809 0.1946 -0.0061
vn -0.7886 0.1879 -0.5855
vn 0.3172 0.1447 -0.9372
vn 0.8084 0.1246 -0.5752
vn 0.9932 0.1163 0.0066
vn 0.8009 0.1230 0.5860
vn 0.3051 0.1420 0.9417
vn -0.3049 0.1662 0.9378
vn 0.7395 0.2911 0.6069
vn 0.2420 0.5520 -0.7979
vn -0.5290 0.5520 -0.6446
vn -0.0818 0.5520 0.8298
vn -0.2420 0.5520 -0.7979
vn 0.7081 -0.7027 -0.0697
vn 0.7081 -0.7027 0.0697
vn 0.2168 -0.7126 0.6672
vn -0.2046 -0.7095 0.6744
vn 0.2046 -0.7095 -0.6744
vn -0.2168 -0.7126 -0.6672
vn -0.7081 -0.7027 0.0697
vn -0.7081 -0.7027 -0.0697
vn -0.0704 -0.6961 0.7145
vn -0.0704 -0.6961 -0.7145
vn -0.5663 -0.7142 0.4114
vn -0.5476 -0.7058 -0.4494
vn 0.5663 -0.7142 -0.4114
vn 0.5476 -0.7058 0.4494
vn -0.9501 -0.0382 0.3096
vn -0.9433 0.1301 0.3055
vn -0.9540 -0.0373 -0.2974
vn -0.6515 0.0253 -0.7583
vn -0.6914 0.0175 -0.7223
vn -0.6414 0.0093 0.7671
vn 0.8053 -0.0102 0.5928
vn 0.6416 0.0231 0.7667
vn 0.9540 -0.0373 -0.2974
vn 0.6515 0.0253 -0.7583
vn 0.6914 0.0175 -0.7223
vn 0.6820 0.0154 0.7312
vt 0.500000 0.860342
vt 0.510502 0.833034
vt 0.500000 0.833034
vt 0.518729 0.860342
vt 0.520602 0.833034
vt 0.527190 0.860342
vt 0.529909 0.833034
vt 0.534606 0.860342
vt 0.538067 0.833034
vt 0.534606 0.860342
vt 0.529909 0.833034
vt 0.538067 0.833034
vt 0.527190 0.860342
vt 0.520602 0.833034
vt 0.509548 0.860342
vt 0.510503 0.833034
vt 0.500000 0.833034
vt 0.490452 0.860342
vt 0.489498 0.833034
vt 0.479399 0.833034
vt 0.472810 0.860342
vt 0.470091 0.833034
vt 0.465394 0.860342
vt 0.461933 0.833034
vt 0.509547 0.860342
vt 0.489498 0.833034
vt 0.481271 0.860342
vt 0.479398 0.833034
vt 0.470091 0.833034
vt 0.472810 0.860342
vt 0.461933 0.833034
vt 0.500000 0.860342
vt 0.506028 0.919357
vt 0.500000 0.919357
vt 0.534606 0.291622
vt 0.530267 0.095742
vt 0.538523 0.095742
vt 0.502609 0.945702
vt 0.493972 0.919357
vt 0.490452 0.860342
vt 0.518729 0.860342
vt 0.511824 0.919357
vt 0.517166 0.919357
vt 0.521848 0.919357
vt 0.481272 0.860342
vt 0.482834 0.919357
vt 0.488176 0.919357
vt 0.488176 0.919357
vt 0.493972 0.919357
vt 0.517166 0.919357
vt 0.521848 0.919357
vt 0.511824 0.919357
vt 0.500000 0.919357
vt 0.506028 0.919357
vt 0.482834 0.919357
vt 0.478152 0.919357
vt 0.465394 0.860342
vt 0.478152 0.919357
vt 0.505118 0.512355
vt 0.502609 0.513116
vt 0.500000 0.500000
vt 0.490544 0.945702
vt 0.505118 0.945702
vt 0.509456 0.945702
vt 0.507430 0.945702
vt 0.507430 0.945702
vt 0.505118 0.945702
vt 0.500000 0.945702
vt 0.502609 0.945702
vt 0.509456 0.945702
vt 0.490544 0.945702
vt 0.492571 0.945702
vt 0.494882 0.945702
vt 0.497391 0.945702
vt 0.492571 0.945702
vt 0.500000 0.945702
vt 0.494883 0.945702
vt 0.497391 0.945702
vt 0.518729 0.291622
vt 0.530267 0.095742
vt 0.527190 0.291622
vt 0.490452 0.291622
vt 0.479152 0.095742
vt 0.481271 0.291622
vt 0.509547 0.291622
vt 0.500000 0.095742
vt 0.500000 0.291622
vt 0.489372 0.095742
vt 0.490452 0.291622
vt 0.472810 0.291622
vt 0.479151 0.095742
vt 0.481271 0.291622
vt 0.527190 0.291622
vt 0.520848 0.095742
vt 0.500000 0.291622
vt 0.510628 0.095742
vt 0.472810 0.291622
vt 0.465394 0.291622
vt 0.469733 0.095742
vt 0.461477 0.095742
vt 0.509548 0.291622
vt 0.500000 0.095742
vt 0.465394 0.291622
vt 0.469733 0.095742
vt 0.461477 0.095742
vt 0.510629 0.095742
vt 0.534606 0.291622
vt 0.538522 0.095742
vt 0.492571 0.511119
vt 0.490544 0.509456
vt 0.500000 0.486628
vt 0.502609 0.486885
vt 0.507430 0.511119
vt 0.494882 0.512355
vt 0.497391 0.486885
vt 0.509456 0.509456
vt 0.497391 0.513116
vt 0.494882 0.487646
vt 0.511119 0.507430
vt 0.500000 0.513373
vt 0.492571 0.488881
vt 0.512355 0.505118
vt 0.490544 0.490544
vt 0.513116 0.502609
vt 0.488881 0.492571
vt 0.513373 0.500000
vt 0.487645 0.494883
vt 0.513116 0.497391
vt 0.486884 0.497391
vt 0.512355 0.494883
vt 0.486627 0.500000
vt 0.511119 0.492571
vt 0.486884 0.502609
vt 0.509456 0.490544
vt 0.487645 0.505118
vt 0.507430 0.488881
vt 0.488881 0.507430
vt 0.505118 0.487646
vt 0.490452 0.574061
vt 0.481271 0.574061
vt 0.472810 0.574061
vt 0.465394 0.574061
vt 0.527190 0.574061
vt 0.518729 0.574061
vt 0.509548 0.574061
vt 0.500000 0.574061
vt 0.490452 0.574061
vt 0.481272 0.574061
vt 0.472810 0.574061
vt 0.465394 0.574061
vt 0.500000 0.574061
vt 0.509547 0.574061
vt 0.518729 0.574061
vt 0.527190 0.574061
vt 0.534606 0.574061
vt 0.534606 0.574061
vt 0.489498 0.602924
vt 0.470091 0.602924
vt 0.461933 0.602924
vt 0.529909 0.602924
vt 0.520602 0.602924
vt 0.500000 0.602924
vt 0.479399 0.602924
vt 0.470091 0.602924
vt 0.510502 0.602924
vt 0.520602 0.602924
vt 0.538067 0.602924
vt 0.529909 0.602924
vt 0.500000 0.602924
vt 0.479398 0.602924
vt 0.538067 0.602924
vt 0.510503 0.602924
vt 0.489498 0.602924
vt 0.461933 0.602924
vt 0.500000 0.067733
vt 0.521043 0.050606
vt 0.500000 0.050606
vt 0.521997 0.067733
vt 0.511063 0.050606
vt 0.528963 0.050606
vt 0.508402 0.067733
vt 0.488937 0.050606
vt 0.478004 0.067733
vt 0.471037 0.050606
vt 0.478957 0.050606
vt 0.491598 0.067733
vt 0.554479 0.500000
vt 0.525858 0.491598
vt 0.525858 0.508402
vt 0.516321 -0.002884
vt 0.542727 -0.002884
vt 0.500000 0.472811
vt 0.520848 0.449668
vt 0.510628 0.446568
vt 0.479151 0.449668
vt 0.484018 0.478004
vt 0.500000 0.527189
vt 0.520848 0.550332
vt 0.515981 0.521997
vt 0.479151 0.550332
vt 0.489372 0.553433
vt 0.445520 0.500000
vt 0.474142 0.508402
vt 0.474142 0.491598
vt 0.469733 0.454702
vt 0.446567 0.489372
vt 0.449668 0.479152
vt 0.454702 0.469733
vt 0.461477 0.461477
vt 0.454702 0.530267
vt 0.484018 0.521997
vt 0.449668 0.520848
vt 0.446567 0.510629
vt 0.469733 0.545298
vt 0.461477 0.538523
vt 0.545297 0.530267
vt 0.538522 0.538523
vt 0.530267 0.545298
vt 0.553432 0.510629
vt 0.550332 0.520848
vt 0.550332 0.479152
vt 0.553432 0.489372
vt 0.515981 0.478004
vt 0.530267 0.454702
vt 0.545297 0.469733
vt 0.538522 0.461477
vt 0.481953 -0.042707
vt 0.483680 -0.002884
vt 0.468957 -0.002884
vt 0.457273 -0.002884
vt 0.500000 -0.002884
vt 0.531043 -0.002884
vt 0.555544 0.481953
vt 0.444456 0.481953
vt 0.465672 0.547249
vt 0.500000 -0.042707
vt 0.534328 -0.042707
vt 0.518048 -0.042707
vt 0.547249 -0.042707
vt 0.465672 -0.042707
vt 0.452752 -0.042707
vt 0.573638 0.288807
vt 0.600231 0.068832
vt 0.582385 0.068134
vt 0.524547 0.289505
vt 0.509827 0.069247
vt 0.524918 0.068832
vt 0.509456 0.289919
vt 0.491087 0.069220
vt 0.490716 0.289893
vt 0.475855 0.068762
vt 0.591801 0.289435
vt 0.582776 0.068048
vt 0.600548 0.068762
vt 0.556183 0.288023
vt 0.564930 0.067350
vt 0.475627 0.067350
vt 0.490387 0.287853
vt 0.490718 0.066935
vt 0.509458 0.066962
vt 0.484194 0.340805
vt 0.493730 0.340369
vt 0.509127 0.287879
vt 0.524690 0.067420
vt 0.564613 0.067420
vt 0.489138 0.029313
vt 0.502946 0.383446
vt 0.505607 0.340386
vt 0.571877 0.341247
vt 0.560566 0.340805
vt 0.574030 0.288720
vt 0.583140 0.341700
vt 0.475484 0.289435
vt 0.493992 0.341990
vt 0.484339 0.341700
vt 0.582939 0.341744
vt 0.591485 0.289505
vt 0.515433 0.341744
vt 0.505869 0.342007
vt 0.555866 0.288092
vt 0.571628 0.341302
vt 0.515288 0.340849
vt 0.524319 0.288092
vt 0.547389 0.502946
vt 0.565940 0.490945
vt 0.569797 0.503089
vt 0.565940 0.384161
vt 0.559588 0.383906
vt 0.503089 0.384334
vt 0.549079 0.340386
vt 0.553095 0.383681
vt 0.560365 0.340849
vt 0.553208 0.383656
vt 0.496390 0.384325
vt 0.559448 0.383936
vt 0.549156 0.340369
vt 0.547432 0.383436
vt 0.490945 0.384161
vt 0.565827 0.384186
vt 0.619385 0.489138
vt 0.549107 0.488688
vt 0.562262 0.530116
vt 0.583933 0.027989
vt 0.511991 0.029346
vt 0.530394 0.028840
vt 0.562262 0.027118
vt 0.511541 0.026559
vt 0.488688 0.026527
vt 0.470286 0.027033
vt 0.562648 0.027033
vt 0.584411 0.027884
vt 0.606082 0.028755
vt 0.399770 0.068832
vt 0.426363 0.288807
vt 0.417617 0.068134
vt 0.417225 0.068048
vt 0.408200 0.289435
vt 0.399453 0.068762
vt 0.435072 0.067350
vt 0.425971 0.288720
vt 0.475256 0.288023
vt 0.444135 0.288092
vt 0.435388 0.067420
vt 0.443818 0.288023
vt 0.428125 0.341247
vt 0.416862 0.341700
vt 0.417062 0.341744
vt 0.408516 0.289505
vt 0.428373 0.341302
vt 0.434061 0.490945
vt 0.452612 0.502946
vt 0.440554 0.510513
vt 0.434061 0.384161
vt 0.446906 0.383681
vt 0.450922 0.340386
vt 0.439636 0.340849
vt 0.439435 0.340805
vt 0.440414 0.383906
vt 0.440554 0.383936
vt 0.450846 0.340369
vt 0.446793 0.383656
vt 0.434174 0.384186
vt 0.450895 0.488688
vt 0.380616 0.489138
vt 0.394305 0.530394
vt 0.416068 0.027989
vt 0.437740 0.027118
vt 0.488688 0.026527
vt 0.437353 0.027033
vt 0.415590 0.027884
vt 0.515981 0.067733
vt 0.484018 0.067733
vt 0.489372 0.446568
vt 0.510628 0.553433
vt 0.500000 0.558403
vt 0.534328 0.547249
vt 0.555544 0.518048
vt 0.534328 0.452752
vt 0.500000 0.441598
vt 0.465672 0.452752
vt 0.444456 0.518048
vt 0.470564 0.028755
vt 0.496247 0.383436
vt 0.565827 0.508484
vt 0.559448 0.510513
vt 0.553095 0.508402
vt 0.547432 0.496247
vt 0.553208 0.490864
vt 0.559588 0.488834
vt 0.569840 0.496390
vt 0.508484 0.384186
vt 0.547389 0.383446
vt 0.583933 0.537317
vt 0.605696 0.530394
vt 0.619237 0.511991
vt 0.606082 0.470564
vt 0.584411 0.463363
vt 0.562648 0.470286
vt 0.548959 0.511541
vt 0.605696 0.028840
vt 0.530116 0.027118
vt 0.434174 0.508484
vt 0.430204 0.503089
vt 0.430161 0.496390
vt 0.440414 0.488834
vt 0.446793 0.490864
vt 0.452569 0.496247
vt 0.446906 0.508402
vt 0.452612 0.383446
vt 0.452569 0.383436
vt 0.416068 0.537317
vt 0.437740 0.530116
vt 0.451042 0.511541
vt 0.437353 0.470286
vt 0.415590 0.463363
vt 0.393919 0.470564
vt 0.380764 0.511991
vt 0.394305 0.028840
vt 0.393919 0.028755
s 0
usemtl no_texture
f 18/32/31 72/33/31 73/34/31
f 9/35/34 134/36/34 133/37/34
f 89/34/35 122/38/35 90/33/35
f 34/1/36 82/39/36 36/40/36
f 54/41/37 90/33/37 91/42/37
f 10/8/38 68/43/38 69/44/38
f 26/8/39 78/43/39 28/6/39
f 46/45/40 86/46/40 87/47/40
f 64/40/41 95/48/41 96/39/41
f 18/32/42 74/49/42 20/18/42
f 36/40/43 83/48/43 38/27/43
f 54/41/44 92/50/44 56/13/44
f 12/13/45 69/51/45 70/50/45
f 28/6/46 79/52/46 30/4/46
f 46/45/47 88/49/47 48/18/47
f 4/25/48 66/53/48 65/54/48
f 64/40/49 66/53/49 2/1/49
f 22/45/50 74/49/50 75/47/50
f 38/27/51 84/55/51 40/30/51
f 56/13/52 93/51/52 58/10/52
f 14/41/53 70/50/53 71/42/53
f 32/25/54 79/52/54 80/54/54
f 50/32/55 88/49/55 89/34/55
f 4/25/56 67/52/56 6/4/56
f 22/45/57 76/46/57 24/21/57
f 40/30/58 85/56/58 42/57/58
f 58/57/59 94/55/59 60/30/59
f 14/41/60 72/33/60 16/15/60
f 32/25/61 81/53/61 34/1/61
f 50/32/62 90/33/62 52/15/62
f 6/4/63 68/43/63 8/6/63
f 24/21/64 77/58/64 26/23/64
f 44/21/65 85/58/65 86/46/65
f 62/27/66 94/55/66 95/48/66
f 99/59/67 97/60/67 161/61/67
f 76/46/68 109/62/68 77/58/68
f 91/42/69 122/38/69 123/63/69
f 78/43/70 109/64/70 110/65/70
f 92/50/71 123/63/71 124/66/71
f 78/43/72 111/67/72 79/52/72
f 65/54/73 98/68/73 97/69/73
f 92/50/74 125/70/74 93/51/74
f 80/54/75 111/67/75 112/69/75
f 67/52/76 97/69/76 99/67/76
f 94/55/77 125/71/77 126/72/77
f 80/54/78 113/68/78 81/53/78
f 67/52/79 100/65/79 68/43/79
f 95/48/80 126/72/80 127/73/80
f 81/53/81 114/74/81 82/39/81
f 68/43/82 101/64/82 69/44/82
f 96/39/83 127/73/83 128/74/83
f 82/39/84 115/73/84 83/48/84
f 70/50/85 101/70/85 102/66/85
f 66/53/86 128/74/86 98/68/86
f 83/48/87 116/72/87 84/55/87
f 71/42/88 102/66/88 103/63/88
f 84/55/89 117/71/89 85/56/89
f 71/42/90 104/38/90 72/33/90
f 86/46/91 117/62/91 118/75/91
f 73/34/92 104/38/92 105/76/92
f 87/47/93 118/75/93 119/77/93
f 73/34/94 106/78/94 74/49/94
f 87/47/95 120/78/95 88/49/95
f 75/47/96 106/78/96 107/77/96
f 89/34/97 120/78/97 121/76/97
f 75/47/98 108/75/98 76/46/98
f 29/79/99 142/80/99 27/81/99
f 47/82/100 151/83/100 45/84/100
f 3/85/101 129/86/101 1/87/101
f 1/87/102 160/88/102 63/89/102
f 21/84/103 138/88/103 19/82/103
f 39/90/104 147/91/104 37/92/104
f 57/35/105 156/36/105 55/93/105
f 13/79/106 134/36/106 11/93/106
f 31/85/107 143/94/107 29/79/107
f 49/95/108 152/88/108 47/82/108
f 5/79/109 130/96/109 3/85/109
f 23/97/110 139/83/110 21/84/110
f 41/98/111 148/99/111 39/90/111
f 59/90/112 157/100/112 57/98/112
f 15/101/113 135/94/113 13/79/113
f 33/87/114 144/96/114 31/85/114
f 51/101/115 153/102/115 49/95/115
f 7/81/116 131/94/116 5/79/116
f 25/103/117 140/104/117 23/97/117
f 41/103/118 150/104/118 149/105/118
f 61/92/119 158/99/119 59/90/119
f 17/95/120 136/106/120 15/101/120
f 35/89/121 145/86/121 33/87/121
f 53/79/122 154/106/122 51/101/122
f 9/107/123 132/80/123 7/81/123
f 27/81/124 141/108/124 25/107/124
f 43/97/125 151/83/125 150/104/125
f 63/89/126 159/91/126 61/92/126
f 19/82/127 137/102/127 17/95/127
f 37/92/128 146/88/128 35/89/128
f 55/93/129 155/94/129 53/79/129
f 126/109/130 125/110/130 161/61/130
f 113/111/131 112/112/131 161/61/131
f 100/113/132 99/59/132 161/61/132
f 127/114/133 126/109/133 161/61/133
f 114/115/134 113/111/134 161/61/134
f 101/116/135 100/113/135 161/61/135
f 128/117/136 127/114/136 161/61/136
f 115/118/137 114/115/137 161/61/137
f 102/119/138 101/116/138 161/61/138
f 98/120/139 128/117/139 161/61/139
f 116/121/140 115/118/140 161/61/140
f 103/122/141 102/119/141 161/61/141
f 117/123/142 116/121/142 161/61/142
f 104/124/143 103/122/143 161/61/143
f 118/125/144 117/123/144 161/61/144
f 105/126/145 104/124/145 161/61/145
f 119/127/146 118/125/146 161/61/146
f 106/128/147 105/126/147 161/61/147
f 120/129/148 119/127/148 161/61/148
f 107/130/149 106/128/149 161/61/149
f 121/131/150 120/129/150 161/61/150
f 108/132/151 107/130/151 161/61/151
f 122/133/152 121/131/152 161/61/152
f 109/134/153 108/132/153 161/61/153
f 123/135/154 122/133/154 161/61/154
f 110/136/155 109/134/155 161/61/155
f 124/137/156 123/135/156 161/61/156
f 111/138/157 110/136/157 161/61/157
f 97/60/158 98/120/158 161/61/158
f 125/110/159 124/137/159 161/61/159
f 112/112/160 111/138/160 161/61/160
f 193/139/161 1/87/161 63/89/161
f 192/140/162 63/89/162 61/92/162
f 191/141/163 61/92/163 59/90/163
f 190/142/164 59/90/164 57/98/164
f 189/143/165 57/35/165 55/93/165
f 188/144/166 55/93/166 53/79/166
f 187/145/167 53/79/167 51/101/167
f 186/146/168 51/101/168 49/95/168
f 185/147/169 49/95/169 47/82/169
f 184/148/170 47/82/170 45/84/170
f 183/149/171 45/84/171 43/97/171
f 182/150/172 43/97/172 41/103/172
f 181/141/173 41/98/173 39/90/173
f 180/140/174 39/90/174 37/92/174
f 179/139/175 37/92/175 35/89/175
f 178/151/176 35/89/176 33/87/176
f 177/152/177 33/87/177 31/85/177
f 176/153/178 31/85/178 29/79/178
f 175/154/179 29/79/179 27/81/179
f 174/155/180 27/81/180 25/107/180
f 173/149/181 25/103/181 23/97/181
f 172/148/182 23/97/182 21/84/182
f 171/147/183 21/84/183 19/82/183
f 170/146/184 19/82/184 17/95/184
f 169/145/185 17/95/185 15/101/185
f 168/144/186 15/101/186 13/79/186
f 167/143/187 13/79/187 11/93/187
f 166/156/188 11/93/188 9/35/188
f 165/154/189 9/107/189 7/81/189
f 164/153/190 7/81/190 5/79/190
f 163/152/191 5/79/191 3/85/191
f 162/151/192 3/85/192 1/87/192
f 225/157/193 162/151/193 193/139/193
f 192/140/194 225/157/194 193/139/194
f 223/158/195 192/140/195 191/141/195
f 222/159/196 191/141/196 190/142/196
f 221/160/197 190/156/197 189/143/197
f 220/161/198 189/143/198 188/144/198
f 187/145/199 220/161/199 188/144/199
f 218/162/200 187/145/200 186/146/200
f 185/147/201 218/162/201 186/146/201
f 216/163/202 185/147/202 184/148/202
f 183/149/203 216/163/203 184/148/203
f 182/150/204 215/164/204 183/149/204
f 181/141/205 214/159/205 182/142/205
f 180/140/206 213/158/206 181/141/206
f 211/157/207 180/140/207 179/139/207
f 178/151/208 211/157/208 179/139/208
f 209/165/209 178/151/209 177/152/209
f 176/153/210 209/165/210 177/152/210
f 175/154/211 208/166/211 176/153/211
f 206/167/212 175/154/212 174/155/212
f 205/164/213 174/150/213 173/149/213
f 204/163/214 173/149/214 172/148/214
f 171/147/215 204/163/215 172/148/215
f 202/162/216 171/147/216 170/146/216
f 169/145/217 202/162/217 170/146/217
f 200/161/218 169/145/218 168/144/218
f 167/143/219 200/161/219 168/144/219
f 166/156/220 199/160/220 167/143/220
f 197/168/221 166/155/221 165/154/221
f 196/166/222 165/154/222 164/153/222
f 195/165/223 164/153/223 163/152/223
f 194/169/224 163/152/224 162/151/224
f 257/26/161 194/169/161 225/157/161
f 256/28/162 225/157/162 224/170/162
f 255/29/163 224/170/163 223/158/163
f 254/31/164 223/158/164 222/159/164
f 253/11/165 222/171/165 221/160/165
f 252/14/166 221/160/166 220/161/166
f 251/16/167 220/161/167 219/172/167
f 250/17/168 219/172/168 218/162/168
f 217/173/169 250/17/169 218/162/169
f 248/20/170 217/173/170 216/163/170
f 247/22/171 216/163/171 215/164/171
f 246/24/172 215/164/172 214/174/172
f 245/29/173 214/159/173 213/158/173
f 244/28/174 213/158/174 212/170/174
f 243/26/175 212/170/175 211/157/175
f 210/169/176 243/26/176 211/157/176
f 241/2/177 210/169/177 209/165/177
f 240/5/178 209/165/178 208/166/178
f 239/7/179 208/166/179 207/168/179
f 238/9/180 207/168/180 206/167/180
f 237/22/181 206/174/181 205/164/181
f 236/20/182 205/164/182 204/163/182
f 235/19/183 204/163/183 203/173/183
f 202/162/184 235/19/184 203/173/184
f 233/16/185 202/162/185 201/172/185
f 232/14/186 201/172/186 200/161/186
f 231/11/187 200/161/187 199/160/187
f 230/12/188 199/160/188 198/171/188
f 229/7/189 198/167/189 197/168/189
f 228/5/190 197/168/190 196/166/190
f 227/2/191 196/166/191 195/165/191
f 226/3/192 195/165/192 194/169/192
f 259/175/225 260/176/225 258/177/225
f 261/178/226 262/179/226 260/180/226
f 263/181/227 264/182/227 262/179/227
f 264/182/228 267/183/228 266/184/228
f 266/176/229 269/175/229 268/177/229
f 269/175/230 270/185/230 268/177/230
f 271/183/231 272/182/231 270/184/231
f 273/186/232 274/179/232 272/182/232
f 137/187/233 265/188/233 263/189/233
f 274/179/234 277/178/234 276/180/234
f 276/185/235 259/175/235 258/177/235
f 260/180/236 280/190/236 279/191/236
f 269/192/237 143/193/237 144/194/237
f 269/192/238 147/195/238 271/196/238
f 259/197/239 131/198/239 261/199/239
f 259/197/240 159/200/240 160/201/240
f 153/202/241 275/203/241 273/204/241
f 145/86/242 269/175/242 144/96/242
f 259/175/243 129/86/243 130/96/243
f 148/205/244 271/196/244 147/195/244
f 152/206/245 273/204/245 151/207/245
f 150/208/246 271/196/246 149/209/246
f 149/209/247 271/196/247 148/205/247
f 151/207/248 273/204/248 150/208/248
f 156/210/249 277/211/249 275/203/249
f 155/212/250 275/203/250 154/213/250
f 159/200/251 277/211/251 158/214/251
f 158/214/252 277/211/252 157/215/252
f 156/210/253 275/203/253 155/212/253
f 134/216/254 261/199/254 133/217/254
f 132/218/255 261/199/255 131/198/255
f 136/219/256 263/189/256 135/220/256
f 135/220/257 263/189/257 134/216/257
f 133/217/258 261/199/258 132/218/258
f 139/221/259 265/188/259 138/222/259
f 143/193/260 267/223/260 142/224/260
f 140/225/261 267/223/261 265/188/261
f 140/225/262 265/188/262 139/221/262
f 142/224/263 267/223/263 141/226/263
f 286/190/264 295/227/264 285/228/264
f 258/177/265 287/229/265 276/185/265
f 276/180/266 286/190/266 274/179/266
f 274/179/267 285/228/267 272/182/267
f 270/184/268 285/228/268 284/230/268
f 268/177/269 284/229/269 283/231/269
f 268/177/270 282/232/270 266/176/270
f 266/184/271 281/228/271 264/182/271
f 260/176/272 278/231/272 258/177/272
f 264/182/273 280/190/273 262/179/273
f 291/233/274 295/234/274 297/235/274
f 282/232/275 293/236/275 292/237/275
f 279/191/276 290/238/276 289/239/276
f 287/191/277 296/238/277 286/190/277
f 283/231/278 294/240/278 293/236/278
f 281/228/279 290/238/279 280/190/279
f 278/231/280 297/240/280 287/229/280
f 284/230/281 295/227/281 294/241/281
f 282/230/282 291/227/282 281/228/282
f 279/232/283 288/236/283 278/231/283
f 299/242/284 300/243/284 298/244/284
f 301/245/285 302/246/285 300/247/285
f 303/248/286 304/249/286 302/246/286
f 305/250/287 306/251/287 304/249/287
f 307/252/288 308/253/288 306/254/288
f 308/253/289 311/255/289 310/256/289
f 310/257/290 313/258/290 312/259/290
f 313/258/291 314/260/291 312/259/291
f 315/263/293 316/264/293 314/260/293
f 316/265/294 299/242/294 298/244/294
f 306/251/295 341/266/295 304/249/295
f 325/262/296 336/267/296 326/268/296
f 336/284/305 332/285/305 330/286/305
f 323/269/306 332/287/306 333/288/306
f 318/278/307 330/289/307 320/279/307
f 326/290/308 337/291/308 327/292/308
f 324/270/309 333/288/309 334/293/309
f 320/279/310 331/294/310 321/274/310
f 327/292/311 329/295/311 319/281/311
f 325/296/312 334/293/312 335/297/312
f 322/275/313 331/294/313 332/298/313
f 319/281/314 328/299/314 318/276/314
f 341/300/315 345/301/315 347/302/315
f 300/243/316 338/303/316 298/244/316
f 302/246/317 341/266/317 340/304/317
f 302/246/318 339/305/318 300/247/318
f 298/244/319 347/306/319 316/265/319
f 316/264/320 346/307/320 314/260/320
f 314/260/321 345/308/321 312/259/321
f 310/257/322 345/308/322 344/309/322
f 308/253/323 344/310/323 343/311/323
f 306/254/324 343/311/324 342/312/324
f 350/313/325 349/314/325 348/315/325
f 352/246/326 351/245/326 350/247/326
f 354/249/327 353/248/327 352/246/327
f 356/251/328 355/250/328 354/249/328
f 358/316/329 357/317/329 356/318/329
f 360/319/330 359/320/330 358/316/330
f 360/257/331 363/258/331 361/321/331
f 362/259/332 365/263/332 363/258/332
f 366/264/334 365/263/334 364/260/334
f 348/315/335 367/322/335 366/323/335
f 391/266/336 356/251/336 354/249/336
f 386/267/337 375/262/337 376/268/337
f 382/330/346 386/331/346 379/332/346
f 373/325/347 382/333/347 372/326/347
f 380/289/348 368/278/348 370/279/348
f 387/334/349 376/335/349 377/336/349
f 374/337/350 383/338/350 373/325/350
f 381/294/351 370/279/351 371/274/351
f 379/339/352 377/336/352 369/329/352
f 375/340/353 384/341/353 374/337/353
f 372/275/354 381/294/354 371/274/354
f 378/342/355 369/329/355 368/327/355
f 395/343/356 391/344/356 389/345/356
f 388/346/357 350/313/357 348/315/357
f 352/246/358 391/266/358 354/249/358
f 389/305/359 352/246/359 350/247/359
f 397/347/360 348/315/360 366/323/360
f 396/307/361 366/264/361 364/260/361
f 362/259/362 396/307/362 364/260/362
f 360/257/363 395/348/363 362/259/363
f 358/316/364 394/349/364 360/319/364
f 356/318/365 393/350/365 358/316/365
f 18/32/31 16/15/31 72/33/31
f 9/35/34 11/93/34 134/36/34
f 89/34/35 121/76/35 122/38/35
f 34/1/36 81/53/36 82/39/36
f 54/41/37 52/15/37 90/33/37
f 10/8/38 8/6/38 68/43/38
f 26/8/39 77/44/39 78/43/39
f 46/45/40 44/21/40 86/46/40
f 64/40/41 62/27/41 95/48/41
f 18/32/42 73/34/42 74/49/42
f 36/40/43 82/39/43 83/48/43
f 54/41/44 91/42/44 92/50/44
f 12/13/45 10/10/45 69/51/45
f 28/6/46 78/43/46 79/52/46
f 46/45/47 87/47/47 88/49/47
f 4/25/48 2/1/48 66/53/48
f 64/40/49 96/39/49 66/53/49
f 22/45/50 20/18/50 74/49/50
f 38/27/51 83/48/51 84/55/51
f 56/13/52 92/50/52 93/51/52
f 14/41/53 12/13/53 70/50/53
f 32/25/54 30/4/54 79/52/54
f 50/32/55 48/18/55 88/49/55
f 4/25/56 65/54/56 67/52/56
f 22/45/57 75/47/57 76/46/57
f 40/30/58 84/55/58 85/56/58
f 58/57/59 93/56/59 94/55/59
f 14/41/60 71/42/60 72/33/60
f 32/25/61 80/54/61 81/53/61
f 50/32/62 89/34/62 90/33/62
f 6/4/63 67/52/63 68/43/63
f 24/21/366 76/46/366 77/58/366
f 44/21/65 42/23/65 85/58/65
f 62/27/66 60/30/66 94/55/66
f 76/46/68 108/75/68 109/62/68
f 91/42/69 90/33/69 122/38/69
f 78/43/70 77/44/70 109/64/70
f 92/50/71 91/42/71 123/63/71
f 78/43/72 110/65/72 111/67/72
f 65/54/73 66/53/73 98/68/73
f 92/50/74 124/66/74 125/70/74
f 80/54/75 79/52/75 111/67/75
f 67/52/367 65/54/367 97/69/367
f 94/55/368 93/56/368 125/71/368
f 80/54/78 112/69/78 113/68/78
f 67/52/79 99/67/79 100/65/79
f 95/48/80 94/55/80 126/72/80
f 81/53/369 113/68/369 114/74/369
f 68/43/82 100/65/82 101/64/82
f 96/39/370 95/48/370 127/73/370
f 82/39/84 114/74/84 115/73/84
f 70/50/85 69/51/85 101/70/85
f 66/53/86 96/39/86 128/74/86
f 83/48/87 115/73/87 116/72/87
f 71/42/88 70/50/88 102/66/88
f 84/55/89 116/72/89 117/71/89
f 71/42/90 103/63/90 104/38/90
f 86/46/91 85/58/91 117/62/91
f 73/34/92 72/33/92 104/38/92
f 87/47/93 86/46/93 118/75/93
f 73/34/94 105/76/94 106/78/94
f 87/47/95 119/77/95 120/78/95
f 75/47/96 74/49/96 106/78/96
f 89/34/97 88/49/97 120/78/97
f 75/47/98 107/77/98 108/75/98
f 29/79/99 143/94/99 142/80/99
f 47/82/100 152/88/100 151/83/100
f 3/85/101 130/96/101 129/86/101
f 1/87/102 129/86/102 160/88/102
f 21/84/103 139/83/103 138/88/103
f 39/90/104 148/99/104 147/91/104
f 57/35/105 157/37/105 156/36/105
f 13/79/106 135/94/106 134/36/106
f 31/85/107 144/96/107 143/94/107
f 49/95/108 153/102/108 152/88/108
f 5/79/109 131/94/109 130/96/109
f 23/97/110 140/104/110 139/83/110
f 41/98/111 149/100/111 148/99/111
f 59/90/112 158/99/112 157/100/112
f 15/101/113 136/106/113 135/94/113
f 33/87/114 145/86/114 144/96/114
f 51/101/115 154/106/115 153/102/115
f 7/81/116 132/80/116 131/94/116
f 25/103/117 141/105/117 140/104/117
f 41/103/118 43/97/118 150/104/118
f 61/92/119 159/91/119 158/99/119
f 17/95/120 137/102/120 136/106/120
f 35/89/121 146/88/121 145/86/121
f 53/79/122 155/94/122 154/106/122
f 9/107/123 133/108/123 132/80/123
f 27/81/124 142/80/124 141/108/124
f 43/97/125 45/84/125 151/83/125
f 63/89/126 160/88/126 159/91/126
f 19/82/127 138/88/127 137/102/127
f 37/92/128 147/91/128 146/88/128
f 55/93/129 156/36/129 155/94/129
f 193/139/161 162/151/161 1/87/161
f 192/140/162 193/139/162 63/89/162
f 191/141/163 192/140/163 61/92/163
f 190/142/164 191/141/164 59/90/164
f 189/143/165 190/156/165 57/35/165
f 188/144/166 189/143/166 55/93/166
f 187/145/167 188/144/167 53/79/167
f 186/146/168 187/145/168 51/101/168
f 185/147/169 186/146/169 49/95/169
f 184/148/170 185/147/170 47/82/170
f 183/149/171 184/148/171 45/84/171
f 182/150/172 183/149/172 43/97/172
f 181/141/173 182/142/173 41/98/173
f 180/140/174 181/141/174 39/90/174
f 179/139/175 180/140/175 37/92/175
f 178/151/176 179/139/176 35/89/176
f 177/152/177 178/151/177 33/87/177
f 176/153/178 177/152/178 31/85/178
f 175/154/179 176/153/179 29/79/179
f 174/155/180 175/154/180 27/81/180
f 173/149/181 174/150/181 25/103/181
f 172/148/182 173/149/182 23/97/182
f 171/147/183 172/148/183 21/84/183
f 170/146/184 171/147/184 19/82/184
f 169/145/185 170/146/185 17/95/185
f 168/144/186 169/145/186 15/101/186
f 167/143/187 168/144/187 13/79/187
f 166/156/188 167/143/188 11/93/188
f 165/154/189 166/155/189 9/107/189
f 164/153/190 165/154/190 7/81/190
f 163/152/191 164/153/191 5/79/191
f 162/151/192 163/152/192 3/85/192
f 225/157/193 194/169/193 162/151/193
f 192/140/194 224/170/194 225/157/194
f 223/158/195 224/170/195 192/140/195
f 222/159/196 223/158/196 191/141/196
f 221/160/197 222/171/197 190/156/197
f 220/161/198 221/160/198 189/143/198
f 187/145/199 219/172/199 220/161/199
f 218/162/200 219/172/200 187/145/200
f 185/147/201 217/173/201 218/162/201
f 216/163/202 217/173/202 185/147/202
f 183/149/203 215/164/203 216/163/203
f 182/150/204 214/174/204 215/164/204
f 181/141/205 213/158/205 214/159/205
f 180/140/206 212/170/206 213/158/206
f 211/157/207 212/170/207 180/140/207
f 178/151/208 210/169/208 211/157/208
f 209/165/209 210/169/209 178/151/209
f 176/153/210 208/166/210 209/165/210
f 175/154/211 207/168/211 208/166/211
f 206/167/212 207/168/212 175/154/212
f 205/164/213 206/174/213 174/150/213
f 204/163/214 205/164/214 173/149/214
f 171/147/215 203/173/215 204/163/215
f 202/162/216 203/173/216 171/147/216
f 169/145/217 201/172/217 202/162/217
f 200/161/218 201/172/218 169/145/218
f 167/143/219 199/160/219 200/161/219
f 166/156/220 198/171/220 199/160/220
f 197/168/221 198/167/221 166/155/221
f 196/166/222 197/168/222 165/154/222
f 195/165/223 196/166/223 164/153/223
f 194/169/224 195/165/224 163/152/224
f 257/26/161 226/3/161 194/169/161
f 256/28/162 257/26/162 225/157/162
f 255/29/163 256/28/163 224/170/163
f 254/31/164 255/29/164 223/158/164
f 253/11/165 254/12/165 222/171/165
f 252/14/166 253/11/166 221/160/166
f 251/16/167 252/14/167 220/161/167
f 250/17/168 251/16/168 219/172/168
f 217/173/169 249/19/169 250/17/169
f 248/20/170 249/19/170 217/173/170
f 247/22/171 248/20/171 216/163/171
f 246/24/172 247/22/172 215/164/172
f 245/29/173 246/31/173 214/159/173
f 244/28/174 245/29/174 213/158/174
f 243/26/175 244/28/175 212/170/175
f 210/169/176 242/3/176 243/26/176
f 241/2/177 242/3/177 210/169/177
f 240/5/178 241/2/178 209/165/178
f 239/7/179 240/5/179 208/166/179
f 238/9/180 239/7/180 207/168/180
f 237/22/181 238/24/181 206/174/181
f 236/20/182 237/22/182 205/164/182
f 235/19/183 236/20/183 204/163/183
f 202/162/184 234/17/184 235/19/184
f 233/16/185 234/17/185 202/162/185
f 232/14/186 233/16/186 201/172/186
f 231/11/187 232/14/187 200/161/187
f 230/12/188 231/11/188 199/160/188
f 229/7/189 230/9/189 198/167/189
f 228/5/190 229/7/190 197/168/190
f 227/2/191 228/5/191 196/166/191
f 226/3/192 227/2/192 195/165/192
f 259/175/225 261/351/225 260/176/225
f 261/178/226 263/181/226 262/179/226
f 263/181/227 265/186/227 264/182/227
f 264/182/228 265/186/228 267/183/228
f 266/176/229 267/351/229 269/175/229
f 269/175/230 271/352/230 270/185/230
f 271/183/231 273/186/231 272/182/231
f 273/186/232 275/181/232 274/179/232
f 263/189/371 136/219/371 137/187/371
f 137/187/372 138/222/372 265/188/372
f 274/179/234 275/181/234 277/178/234
f 276/185/235 277/352/235 259/175/235
f 260/180/236 262/179/236 280/190/236
f 269/192/373 267/223/373 143/193/373
f 269/192/374 146/353/374 147/195/374
f 259/197/375 130/354/375 131/198/375
f 259/197/376 277/211/376 159/200/376
f 273/204/377 152/206/377 153/202/377
f 153/202/378 154/213/378 275/203/378
f 145/86/379 146/88/379 269/175/379
f 259/175/380 160/88/380 129/86/380
f 150/208/381 273/204/381 271/196/381
f 156/210/382 157/215/382 277/211/382
f 134/216/383 263/189/383 261/199/383
f 140/225/384 141/226/384 267/223/384
f 286/190/264 296/238/264 295/227/264
f 258/177/265 278/231/265 287/229/265
f 276/180/266 287/191/266 286/190/266
f 274/179/267 286/190/267 285/228/267
f 270/184/268 272/182/268 285/228/268
f 268/177/269 270/185/269 284/229/269
f 268/177/270 283/231/270 282/232/270
f 266/184/271 282/230/271 281/228/271
f 260/176/272 279/232/272 278/231/272
f 264/182/273 281/228/273 280/190/273
f 297/235/274 288/355/274 289/356/274
f 289/356/274 290/357/274 291/233/274
f 291/233/274 292/358/274 293/359/274
f 293/359/274 294/360/274 295/234/274
f 295/234/274 296/361/274 297/235/274
f 297/235/274 289/356/274 291/233/274
f 291/233/274 293/359/274 295/234/274
f 282/232/275 283/231/275 293/236/275
f 279/191/276 280/190/276 290/238/276
f 287/191/277 297/239/277 296/238/277
f 283/231/278 284/229/278 294/240/278
f 281/228/279 291/227/279 290/238/279
f 278/231/280 288/236/280 297/240/280
f 284/230/281 285/228/281 295/227/281
f 282/230/282 292/241/282 291/227/282
f 279/232/283 289/237/283 288/236/283
f 299/242/284 301/277/284 300/243/284
f 301/245/285 303/248/285 302/246/285
f 303/248/286 305/250/286 304/249/286
f 305/250/287 307/273/287 306/251/287
f 307/252/288 309/271/288 308/253/288
f 308/253/289 309/271/289 311/255/289
f 310/257/385 311/321/385 313/258/385
f 313/258/291 315/263/291 314/260/291
f 315/263/387 317/283/387 316/264/387
f 316/265/294 317/280/294 299/242/294
f 306/251/295 342/362/295 341/266/295
f 325/262/296 335/363/296 336/267/296
f 330/286/305 328/364/305 329/365/305
f 329/365/305 337/366/305 336/284/305
f 336/284/305 335/367/305 334/368/305
f 334/368/305 333/369/305 332/285/305
f 332/285/305 331/370/305 330/286/305
f 330/286/305 329/365/305 336/284/305
f 336/284/305 334/368/305 332/285/305
f 323/269/306 322/272/306 332/287/306
f 318/278/307 328/371/307 330/289/307
f 326/290/389 336/372/389 337/291/389
f 324/270/309 323/269/309 333/288/309
f 320/279/310 330/289/310 331/294/310
f 327/292/311 337/291/311 329/295/311
f 325/296/390 324/270/390 334/293/390
f 322/275/313 321/274/313 331/294/313
f 319/281/314 329/295/314 328/299/314
f 347/302/315 338/373/315 339/374/315
f 339/374/315 340/375/315 341/300/315
f 341/300/315 342/376/315 343/377/315
f 343/377/315 344/378/315 345/301/315
f 345/301/315 346/379/315 347/302/315
f 347/302/315 339/374/315 341/300/315
f 341/300/315 343/377/315 345/301/315
f 300/243/316 339/380/316 338/303/316
f 302/246/317 304/249/317 341/266/317
f 302/246/318 340/304/318 339/305/318
f 298/244/319 338/303/319 347/306/319
f 316/264/320 347/381/320 346/307/320
f 314/260/321 346/307/321 345/308/321
f 310/257/322 312/259/322 345/308/322
f 308/253/323 310/256/323 344/310/323
f 306/254/324 308/253/324 343/311/324
f 350/313/325 351/328/325 349/314/325
f 352/246/326 353/248/326 351/245/326
f 354/249/327 355/250/327 353/248/327
f 356/251/328 357/273/328 355/250/328
f 358/316/329 359/320/329 357/317/329
f 360/319/330 361/324/330 359/320/330
f 360/257/391 362/259/391 363/258/391
f 362/259/332 364/260/332 365/263/332
f 366/264/393 367/283/393 365/263/393
f 348/315/335 349/314/335 367/322/335
f 391/266/336 392/362/336 356/251/336
f 386/267/337 385/363/337 375/262/337
f 379/332/346 378/382/346 380/383/346
f 380/383/346 381/384/346 382/330/346
f 382/330/346 383/385/346 384/386/346
f 384/386/346 385/387/346 386/331/346
f 386/331/346 387/388/346 379/332/346
f 379/332/346 380/383/346 382/330/346
f 382/330/346 384/386/346 386/331/346
f 373/325/347 383/338/347 382/333/347
f 380/289/348 378/371/348 368/278/348
f 387/334/395 386/389/395 376/335/395
f 374/337/350 384/341/350 383/338/350
f 381/294/351 380/289/351 370/279/351
f 379/339/352 387/334/352 377/336/352
f 375/340/396 385/390/396 384/341/396
f 372/275/354 382/298/354 381/294/354
f 378/342/355 379/339/355 369/329/355
f 389/345/356 388/391/356 397/392/356
f 397/392/356 396/393/356 395/343/356
f 395/343/356 394/394/356 393/395/356
f 393/395/356 392/396/356 391/344/356
f 391/344/356 390/397/356 389/345/356
f 389/345/356 397/392/356 395/343/356
f 395/343/356 393/395/356 391/344/356
f 388/346/357 389/398/357 350/313/357
f 352/246/358 390/304/358 391/266/358
f 389/305/359 390/304/359 352/246/359
f 397/347/360 388/346/360 348/315/360
f 396/307/361 397/381/361 366/264/361
f 362/259/362 395/348/362 396/307/362
f 360/257/363 394/309/363 395/348/363
f 358/316/364 393/350/364 394/349/364
f 356/318/365 392/399/365 393/350/365
usemtl metal_wear_mid
f 2/1/1 227/2/1 226/3/1
f 227/2/2 6/4/2 228/5/2
f 228/5/3 8/6/3 229/7/3
f 229/7/4 10/8/4 230/9/4
f 10/10/5 231/11/5 230/12/5
f 12/13/6 232/14/6 231/11/6
f 232/14/7 16/15/7 233/16/7
f 16/15/8 234/17/8 233/16/8
f 234/17/9 20/18/9 235/19/9
f 20/18/10 236/20/10 235/19/10
f 236/20/11 24/21/11 237/22/11
f 237/22/12 26/23/12 238/24/12
f 238/9/13 28/6/13 239/7/13
f 28/6/14 240/5/14 239/7/14
f 30/4/15 241/2/15 240/5/15
f 32/25/16 242/3/16 241/2/16
f 34/1/17 243/26/17 242/3/17
f 243/26/18 38/27/18 244/28/18
f 38/27/19 245/29/19 244/28/19
f 40/30/20 246/31/20 245/29/20
f 42/23/21 247/22/21 246/24/21
f 44/21/22 248/20/22 247/22/22
f 248/20/23 48/18/23 249/19/23
f 48/18/24 250/17/24 249/19/24
f 250/17/25 52/15/25 251/16/25
f 52/15/26 252/14/26 251/16/26
f 252/14/27 56/13/27 253/11/27
f 253/11/28 58/10/28 254/12/28
f 254/31/29 60/30/29 255/29/29
f 60/30/30 256/28/30 255/29/30
f 62/27/32 257/26/32 256/28/32
f 257/26/33 2/1/33 226/3/33
f 313/258/292 324/261/292 325/262/292
f 311/255/297 323/269/297 324/270/297
f 309/271/298 322/272/298 323/269/298
f 307/273/299 321/274/299 322/275/299
f 299/242/300 318/276/300 301/277/300
f 303/248/301 321/274/301 305/250/301
f 303/248/302 318/278/302 320/279/302
f 317/280/303 319/281/303 299/242/303
f 315/263/304 327/282/304 317/283/304
f 313/258/296 326/268/296 315/263/296
f 363/258/333 374/261/333 361/321/333
f 361/324/338 373/325/338 359/320/338
f 359/320/339 372/326/339 357/317/339
f 372/275/340 355/250/340 357/273/340
f 368/327/341 349/314/341 351/328/341
f 371/274/342 353/248/342 355/250/342
f 353/248/343 368/278/343 351/245/343
f 369/329/344 367/322/344 349/314/344
f 377/282/345 365/263/345 367/283/345
f 376/268/337 363/258/337 365/263/337
f 2/1/1 4/25/1 227/2/1
f 227/2/2 4/25/2 6/4/2
f 228/5/3 6/4/3 8/6/3
f 229/7/4 8/6/4 10/8/4
f 10/10/5 12/13/5 231/11/5
f 12/13/6 14/41/6 232/14/6
f 232/14/7 14/41/7 16/15/7
f 16/15/8 18/32/8 234/17/8
f 234/17/9 18/32/9 20/18/9
f 20/18/10 22/45/10 236/20/10
f 236/20/11 22/45/11 24/21/11
f 237/22/12 24/21/12 26/23/12
f 238/9/13 26/8/13 28/6/13
f 28/6/14 30/4/14 240/5/14
f 30/4/15 32/25/15 241/2/15
f 32/25/16 34/1/16 242/3/16
f 34/1/17 36/40/17 243/26/17
f 243/26/18 36/40/18 38/27/18
f 38/27/19 40/30/19 245/29/19
f 40/30/20 42/57/20 246/31/20
f 42/23/21 44/21/21 247/22/21
f 44/21/22 46/45/22 248/20/22
f 248/20/23 46/45/23 48/18/23
f 48/18/24 50/32/24 250/17/24
f 250/17/25 50/32/25 52/15/25
f 52/15/26 54/41/26 252/14/26
f 252/14/27 54/41/27 56/13/27
f 253/11/28 56/13/28 58/10/28
f 254/31/29 58/57/29 60/30/29
f 60/30/30 62/27/30 256/28/30
f 62/27/32 64/40/32 257/26/32
f 257/26/33 64/40/33 2/1/33
f 313/258/386 311/321/386 324/261/386
f 311/255/297 309/271/297 323/269/297
f 309/271/298 307/252/298 322/272/298
f 307/273/299 305/250/299 321/274/299
f 299/242/300 319/281/300 318/276/300
f 303/248/301 320/279/301 321/274/301
f 303/248/302 301/245/302 318/278/302
f 317/280/303 327/292/303 319/281/303
f 315/263/388 326/268/388 327/282/388
f 313/258/296 325/262/296 326/268/296
f 363/258/392 375/262/392 374/261/392
f 361/324/338 374/337/338 373/325/338
f 359/320/339 373/325/339 372/326/339
f 372/275/340 371/274/340 355/250/340
f 368/327/341 369/329/341 349/314/341
f 371/274/342 370/279/342 353/248/342
f 353/248/343 370/279/343 368/278/343
f 369/329/344 377/336/344 367/322/344
f 377/282/394 376/268/394 365/263/394
f 376/268/337 375/262/337 363/258/337
