# Blender 5.0.1
# www.blender.org
mtllib rock_0.mtl
o rock_0
v -0.149460 0.149008 -0.503783
v 0.291560 0.234064 0.479327
v -0.077871 -0.429085 -0.212509
v -0.198609 -0.412715 0.165846
v -0.314082 -0.095991 0.422247
v -0.580536 0.389077 0.096974
v -0.409904 0.406133 -0.318036
v -0.350356 -0.170021 -0.393309
v -0.251977 -0.390631 -0.262514
v 0.389306 0.088930 -0.430364
v 0.228159 -0.507963 -0.234078
v 0.358209 -0.518047 0.039339
v 0.331254 -0.519919 -0.126252
v 0.473762 0.322145 -0.325472
v 0.597905 0.317076 0.086424
v 0.528827 -0.054206 0.296461
v 0.195372 -0.615254 0.151374
v -0.326265 0.262714 0.463319
v -0.524356 -0.234872 0.083050
v -0.638992 0.062215 0.099467
v -0.519055 -0.131099 -0.296023
v 0.614376 0.012950 -0.124409
v 0.240708 -0.494432 0.256161
v 0.182492 -0.026197 0.486767
v 0.060905 -0.563828 -0.122477
v 0.047983 0.522851 -0.354088
v 0.214591 0.670336 -0.023952
v -0.314417 0.622870 -0.029795
v 0.188428 0.558881 0.324156
v -0.287960 0.545009 0.306149
vn -0.4821 -0.8760 0.0149
vn -0.7257 -0.1025 0.6803
vn -0.9164 0.1714 -0.3617
vn -0.4973 0.0128 -0.8675
vn -0.1799 -0.4603 -0.8693
vn 0.1608 -0.4281 -0.8893
vn 0.8749 -0.4644 -0.1372
vn 0.6435 -0.3903 -0.6585
vn 0.9794 -0.0765 0.1869
vn 0.7275 -0.5174 0.4506
vn -0.2659 -0.5727 0.7754
vn -0.0533 -0.4465 0.8932
vn 0.4277 -0.3560 0.8308
vn 0.4640 -0.1696 0.8694
vn -0.1404 0.0870 0.9863
vn -0.6286 -0.7595 -0.1677
vn -0.2266 -0.6916 -0.6858
vn 0.1536 -0.9552 -0.2528
vn 0.3899 0.7513 -0.5324
vn -0.2578 0.9239 -0.2827
vn -0.0392 0.9525 0.3020
vn 0.1649 0.3543 -0.9205
vn -0.7044 0.6595 -0.2625
vn -0.5795 0.7827 0.2270
vn -0.0034 0.4302 0.9027
vn 0.6355 0.4877 0.5985
vn -0.6688 -0.7147 -0.2050
vn -0.9294 -0.3526 -0.1095
vn -0.4998 -0.6477 0.5750
vn -0.7416 -0.3188 0.5903
vn -0.7885 0.1456 0.5975
vn -0.9151 0.1608 -0.3697
vn -0.5302 0.0731 -0.8447
vn -0.5000 -0.5957 -0.6287
vn -0.2089 -0.9776 -0.0244
vn 0.0907 -0.3331 -0.9385
vn 0.2016 -0.4314 -0.8793
vn 0.9081 -0.4009 0.1206
vn 0.7018 -0.3708 -0.6083
vn 0.8026 -0.0226 -0.5960
vn 0.9297 0.2425 -0.2772
vn 0.7472 0.2164 0.6283
vn -0.2671 -0.6633 0.6991
vn -0.0310 -0.1147 0.9929
vn 0.1502 -0.9557 -0.2532
vn -0.4548 -0.8888 0.0564
vn 0.4767 -0.8765 -0.0677
vn 0.6615 -0.6174 0.4257
vn -0.0660 0.8079 -0.5856
vn -0.0895 0.9687 0.2316
vn 0.1930 0.2752 -0.9418
vn -0.1829 0.4472 -0.8755
vn -0.6654 0.4300 0.6102
vn -0.0472 0.4908 0.8700
vn 0.6044 0.7445 0.2838
vn 0.6945 0.6909 -0.2008
vt 0.500000 0.096695
vt 0.437846 0.225341
vt 0.415309 0.041846
vt 0.625000 0.000000
vt 0.562500 0.097652
vt 0.535191 0.000000
vt 0.625000 0.187500
vt 0.526293 0.187500
vt 0.620242 0.308401
vt 0.524318 0.249967
vt 0.378842 0.473767
vt 0.382093 0.323723
vt 0.562500 0.601565
vt 0.399120 0.665916
vt 0.379580 0.589747
vt 0.606215 0.484180
vt 0.625000 0.650722
vt 0.553745 0.718496
vt 0.363925 0.762942
vt 0.395183 0.794975
vt 0.423961 0.976432
vt 0.383330 0.875000
vt 0.562500 0.837801
vt 0.535191 0.982318
vt 0.682601 0.750000
vt 0.625000 0.807601
vt 0.250000 0.587964
vt 0.130607 0.724898
vt 0.188475 0.527712
vt 0.339549 0.523378
vt 0.289333 0.681368
vt 0.750000 0.562500
vt 0.722170 0.625000
vt 0.647972 0.562500
vt 0.847215 0.562500
vt 0.812500 0.687500
vt 0.723674 0.687500
vt 0.816170 0.500000
vt 0.619174 0.497139
vt 0.875000 0.649961
vt 0.812500 0.625000
vt 0.845090 0.750000
vt 0.625000 0.100039
vt 0.375000 0.160378
vt 0.625000 0.970090
s 0
f 19/1/1 9/2/1 4/3/1
f 18/4/2 20/5/2 5/6/2
f 20/5/3 7/7/3 21/8/3
f 21/8/4 1/9/4 8/10/4
f 1/9/5 11/11/5 3/12/5
f 9/2/6 1/9/6 3/12/6
f 22/13/7 12/14/7 13/15/7
f 10/16/8 13/15/8 11/11/8
f 22/13/9 15/17/9 16/18/9
f 16/18/10 23/19/10 12/14/10
f 23/20/11 4/21/11 17/22/11
f 24/23/12 5/24/12 23/20/12
f 16/18/13 24/23/13 23/20/13
f 2/25/14 24/23/14 16/18/14
f 2/26/15 5/24/15 24/23/15
f 25/27/16 4/28/16 3/29/16
f 11/30/17 25/27/17 3/29/17
f 13/15/18 17/31/18 11/30/18
f 26/32/19 27/33/19 14/34/19
f 7/35/20 27/33/20 26/32/20
f 27/33/21 30/36/21 29/37/21
f 1/38/22 14/34/22 10/39/22
f 7/35/23 6/40/23 28/41/23
f 28/41/24 6/40/24 30/36/24
f 29/37/25 18/42/25 2/25/25
f 29/37/26 2/25/26 15/17/26
f 19/1/27 21/8/27 9/2/27
f 19/1/28 20/5/28 21/8/28
f 5/6/29 19/1/29 4/3/29
f 5/6/30 20/5/30 19/1/30
f 18/4/31 6/43/31 20/5/31
f 20/5/32 6/43/32 7/7/32
f 21/8/33 7/7/33 1/9/33
f 9/2/34 21/8/34 8/10/34
f 4/3/35 9/2/35 3/44/35
f 1/9/36 10/16/36 11/11/36
f 9/2/37 8/10/37 1/9/37
f 12/14/38 22/13/38 16/18/38
f 10/16/39 22/13/39 13/15/39
f 10/39/40 14/34/40 22/13/40
f 14/34/41 15/17/41 22/13/41
f 16/18/42 15/17/42 2/25/42
f 23/20/43 5/24/43 4/21/43
f 2/26/44 18/45/44 5/24/44
f 11/30/45 17/31/45 25/27/45
f 25/27/46 17/31/46 4/28/46
f 17/31/47 13/15/47 12/14/47
f 17/31/48 12/14/48 23/19/48
f 7/35/49 28/41/49 27/33/49
f 27/33/50 28/41/50 30/36/50
f 1/38/51 26/32/51 14/34/51
f 1/38/52 7/35/52 26/32/52
f 30/36/53 6/40/53 18/42/53
f 29/37/54 30/36/54 18/42/54
f 27/33/55 29/37/55 15/17/55
f 14/34/56 27/33/56 15/17/56
