# Blender 5.0.1
# www.blender.org
mtllib rock_5.mtl
o rock_5
v -0.527676 -0.057925 1.089619
v 0.975213 0.101785 1.382919
v 1.519062 0.384607 -1.164453
v -1.682631 -0.705567 -0.236496
v -1.658866 -0.422373 1.175044
v -1.343591 0.426260 1.047418
v -1.671531 0.492647 -0.736100
v -1.868416 0.149140 -1.443262
v -1.682820 -0.556019 -1.212738
v -0.083374 0.076401 -0.101152
v 0.864108 0.358528 -1.264837
v 1.654469 -0.276189 -1.302351
v 1.441833 -0.428921 0.349150
v 1.196448 -0.549121 -0.929108
v 1.534473 0.337669 -0.473168
v 0.655651 0.705520 1.419421
v -0.188117 -0.220939 0.658257
v -0.370481 0.260947 1.377709
v -1.886815 -0.367299 -0.089412
v -1.924080 0.475720 -0.170646
v -0.225035 -0.204266 -1.057093
v 0.755863 -0.270730 -1.771679
v 2.100175 0.019972 0.442367
v 1.853237 -0.025951 1.215273
v 0.037536 -0.110119 1.163736
v -0.045724 -0.409006 -0.571776
v 0.404003 -0.391142 1.032713
v 0.813468 0.393651 -0.123698
v -0.597336 0.299486 -0.126960
v -0.049074 0.513234 0.421303
vn -0.9128 0.3663 0.1805
vn 0.0304 0.1376 0.9900
vn -0.5643 0.7934 -0.2283
vn -0.8678 -0.4912 -0.0751
vn -0.8246 -0.5519 0.1246
vn -0.4402 0.6080 -0.6608
vn 0.2545 -0.8538 -0.4542
vn 0.1657 -0.2668 -0.9494
vn 0.3986 0.7764 -0.4881
vn 0.3938 0.5346 -0.7478
vn -0.1963 -0.9273 -0.3187
vn 0.2900 0.9454 0.1488
vn 0.0585 -0.6223 0.7806
vn 0.1896 -0.9216 0.3387
vn -0.1230 -0.9565 0.2646
vn -0.1581 -0.6179 0.7702
vn -0.4713 -0.7938 0.3844
vn 0.1465 -0.9778 -0.1498
vn -0.3352 -0.9364 0.1044
vn 0.2957 -0.7931 0.5325
vn 0.1983 -0.9616 0.1896
vn 0.3394 0.7106 -0.6164
vn 0.0115 0.9803 -0.1970
vn -0.1180 0.9872 -0.1069
vn -0.0502 0.9964 0.0688
vn -0.3341 0.9415 -0.0438
vn 0.3807 0.8298 -0.4081
vn -0.2230 0.4327 0.8735
vn -0.0117 -0.0665 0.9977
vn -0.0209 0.9795 -0.2001
vn -0.9027 0.0016 0.4303
vn -0.3521 -0.5259 0.7742
vn -0.9984 -0.0472 -0.0316
vn -0.9490 -0.2902 -0.1236
vn -0.4785 0.8591 -0.1813
vn 0.2686 0.9127 -0.3078
vn 0.1385 0.2294 -0.9634
vn 0.2044 -0.8926 -0.4018
vn -0.2134 -0.9554 -0.2041
vn 0.5225 -0.6522 -0.5492
vn 0.5467 -0.8279 0.1255
vn 0.5027 -0.8643 -0.0152
vn 0.9914 0.0190 0.1294
vn 0.9793 0.2024 -0.0081
vn 0.5296 0.8443 0.0818
vn 0.1934 0.0431 0.9802
vn -0.0849 -0.5098 0.8561
vn -0.0687 -0.5540 0.8297
vn -0.1008 -0.9941 0.0393
vn 0.0226 -0.9957 0.0893
vn 0.2095 -0.9627 0.1714
vn -0.2790 0.7456 -0.6051
vn 0.1314 0.8721 -0.4714
vn -0.0385 0.9975 0.0589
vn 0.0639 0.9976 -0.0279
vn 0.1284 0.9879 0.0869
vt 0.624757 0.062500
vt 0.448725 0.155518
vt 0.414601 0.062500
vt 0.421094 0.000000
vt 0.606723 0.145773
vt 0.625000 0.212206
vt 0.546150 0.250000
vt 0.389487 0.250000
vt 0.375000 0.171004
vt 0.465274 0.361721
vt 0.597787 0.437500
vt 0.460730 0.437500
vt 0.375000 0.366313
vt 0.598891 0.360972
vt 0.457598 0.500000
vt 0.375000 0.499427
vt 0.599117 0.575792
vt 0.515064 0.687500
vt 0.521003 0.625000
vt 0.561696 0.766276
vt 0.326834 0.709329
vt 0.415934 0.617828
vt 0.494842 0.842269
vt 0.506692 0.945899
vt 0.433904 0.936821
vt 0.615563 0.911086
vt 0.378695 0.796035
vt 0.125000 0.500000
vt 0.235829 0.506370
vt 0.125000 0.578996
vt 0.223111 0.679872
vt 0.125000 0.750000
vt 0.125000 0.687500
vt 0.812500 0.562500
vt 0.750000 0.625000
vt 0.786683 0.506712
vt 0.704747 0.687500
vt 0.687500 0.581318
vt 0.859085 0.687500
vt 0.687500 0.500000
vt 0.612149 0.500000
vt 0.875000 0.537794
vt 0.779597 0.750000
vt 0.633750 0.750000
vt 0.598845 0.000000
vt 0.369049 0.505378
vt 0.876132 0.625000
s 0
f 6/1/1 19/2/1 5/3/1
f 1/4/2 6/1/2 5/3/2
f 20/5/3 7/6/3 8/7/3
f 19/2/4 9/8/4 4/9/4
f 5/3/5 19/2/5 4/9/5
f 21/10/6 11/11/6 22/12/6
f 9/8/7 21/10/7 26/13/7
f 8/7/8 21/10/8 9/8/8
f 7/6/9 10/14/9 8/7/9
f 11/11/10 12/15/10 22/12/10
f 21/10/11 14/16/11 26/13/11
f 15/17/12 24/18/12 23/19/12
f 24/18/13 2/20/13 27/21/13
f 13/22/14 24/18/14 27/21/14
f 25/23/15 1/24/15 17/25/15
f 25/23/16 18/26/16 1/24/16
f 25/23/17 17/25/17 27/27/17
f 9/28/18 26/29/18 4/30/18
f 26/29/19 27/21/19 17/31/19
f 17/31/20 1/32/20 5/33/20
f 17/31/21 5/33/21 4/30/21
f 29/34/22 30/35/22 10/36/22
f 30/35/23 16/37/23 28/38/23
f 30/35/24 6/39/24 16/37/24
f 11/40/25 15/17/25 3/41/25
f 10/36/26 28/38/26 11/40/26
f 7/42/27 29/34/27 10/36/27
f 6/39/28 18/43/28 16/37/28
f 16/37/29 18/43/29 2/44/29
f 28/38/30 16/37/30 15/17/30
f 6/1/31 20/5/31 19/2/31
f 1/4/32 18/45/32 6/1/32
f 19/2/33 20/5/33 8/7/33
f 19/2/34 8/7/34 9/8/34
f 21/10/35 10/14/35 11/11/35
f 8/7/36 10/14/36 21/10/36
f 11/11/37 3/41/37 12/15/37
f 22/12/38 12/15/38 14/16/38
f 21/10/39 22/12/39 14/16/39
f 15/17/40 23/19/40 13/22/40
f 13/22/41 23/19/41 24/18/41
f 14/16/42 12/15/42 13/22/42
f 12/15/43 15/17/43 13/22/43
f 12/15/44 3/41/44 15/17/44
f 15/17/45 16/37/45 24/18/45
f 24/18/46 16/37/46 2/44/46
f 27/21/47 2/20/47 25/23/47
f 2/20/48 18/26/48 25/23/48
f 26/29/49 14/46/49 27/21/49
f 27/21/50 14/16/50 13/22/50
f 26/29/51 17/31/51 4/30/51
f 28/38/52 10/36/52 30/35/52
f 29/34/53 20/47/53 30/35/53
f 30/35/54 20/47/54 6/39/54
f 11/40/55 28/38/55 15/17/55
f 29/34/56 7/42/56 20/47/56
