# Blender 5.0.1
# www.blender.org
mtllib rock_8.mtl
o rock_8
v -0.098555 1.392117 -0.300161
v -0.494867 -2.141403 -0.206429
v -0.333055 -1.649517 0.191879
v -0.330715 -0.535989 -0.050691
v -0.386148 0.167280 0.626900
v -0.045078 0.751386 0.136943
v -0.291729 2.762295 -0.074381
v -0.229824 2.226718 -0.222703
v -0.367017 1.137411 -0.536084
v -0.198189 -0.419638 -0.235833
v 0.143409 1.169694 -0.255856
v 0.367972 1.241715 -0.498074
v 0.155230 0.150231 -0.290948
v 0.238157 -1.533945 -0.466102
v 0.661581 -2.154605 0.136437
v 0.571608 0.163046 0.449721
v 0.203956 -2.256108 0.488287
v 0.432773 -2.370785 0.471184
v 0.117257 0.668521 0.062083
v -0.584767 0.126466 0.169422
v -0.332497 1.112195 -0.000462
v -0.460757 0.825985 -0.348357
v 0.652141 -1.096751 -0.169624
v 0.370901 0.933876 -0.148068
v 0.219158 0.171676 0.755533
v 0.020261 -0.775536 0.534750
v -0.253461 -1.794904 -0.451463
v 0.223593 -2.750499 -0.048078
v -0.112682 2.970626 0.198384
v 0.141343 1.508442 0.081791
vn -0.7266 -0.2122 -0.6535
vn -0.9546 0.2671 0.1322
vn -0.7246 0.6392 0.2576
vn -0.9607 0.1367 0.2417
vn -0.7906 0.4727 0.3893
vn -0.7899 0.1259 -0.6002
vn -0.9508 0.0679 0.3024
vn 0.0790 -0.2007 -0.9765
vn -0.0653 0.7143 -0.6968
vn 0.9971 0.0292 0.0702
vn 0.0107 0.6145 0.7888
vn 0.5221 0.0813 -0.8490
vn 0.4243 0.6817 0.5960
vn 0.6980 -0.1933 -0.6896
vn -0.5148 -0.0906 0.8525
vn -0.1559 0.6866 0.7101
vn 0.4359 0.7607 0.4810
vn -0.8490 -0.3998 0.3454
vn -0.5615 -0.0955 0.8219
vn 0.6970 0.2670 -0.6655
vn 0.9672 0.1821 -0.1768
vn -0.8504 0.0445 0.5242
vn -0.4702 -0.0387 0.8817
vn 0.4046 -0.0330 0.9139
vn -0.1898 0.2137 0.9583
vn -0.8712 -0.1828 -0.4556
vn -0.8088 -0.4399 0.3904
vn -0.9166 0.0047 -0.3997
vn -0.0096 0.0909 -0.9958
vn -0.6920 -0.2083 -0.6911
vn -0.8442 0.1366 -0.5184
vn 0.1288 -0.1743 -0.9762
vn 0.4664 0.6309 0.6200
vn -0.0821 0.0991 -0.9917
vn -0.3955 0.1578 -0.9048
vn 0.9789 0.1372 -0.1518
vn 0.2332 0.1119 -0.9660
vn 0.9525 -0.2247 -0.2056
vn 0.1463 0.5245 0.8388
vn 0.8371 -0.0412 0.5455
vn -0.2031 -0.1816 0.9622
vn 0.5595 0.7105 0.4268
vn 0.0767 0.0042 0.9970
vn 0.6517 -0.0870 0.7535
vn -0.8288 0.1207 0.5463
vn -0.8932 -0.4496 -0.0089
vn 0.1437 -0.3231 -0.9354
vn 0.6483 -0.2543 -0.7176
vn 0.7779 -0.6137 0.1354
vn -0.3059 -0.7056 0.6392
vn -0.7723 -0.4809 0.4150
vn 0.8656 -0.4547 0.2098
vn 0.7011 0.2644 -0.6622
vn 0.2967 0.1344 -0.9455
vn 0.3414 -0.0156 0.9398
vn 0.9989 -0.0295 0.0357
vt 0.437500 0.120723
vt 0.537004 0.187500
vt 0.437500 0.252112
vt 0.579058 0.108442
vt 0.500000 0.076689
vt 0.500000 0.000000
vt 0.588589 0.037593
vt 0.625000 0.187500
vt 0.625000 0.324127
vt 0.559441 0.265472
vt 0.375000 0.278018
vt 0.375000 0.162986
vt 0.375000 0.017539
vt 0.562500 0.480315
vt 0.497181 0.454567
vt 0.437500 0.600041
vt 0.500475 0.735077
vt 0.394624 0.670282
vt 0.523474 0.580969
vt 0.580378 0.777383
vt 0.381774 0.461861
vt 0.659910 0.521485
vt 0.351736 0.491899
vt 0.403552 0.846448
vt 0.500000 0.834626
vt 0.437500 0.868698
vt 0.592590 0.943845
vt 0.500000 0.956877
vt 0.437500 1.000000
vt 0.375000 0.995234
vt 0.824498 0.562500
vt 0.781967 0.687172
vt 0.687500 0.687500
vt 0.826674 0.625000
vt 0.875000 0.687500
vt 0.832077 0.750000
vt 0.672898 0.735011
vt 0.625000 0.125000
vt 0.625000 0.481327
vt 0.355434 0.750000
vt 0.163931 0.511014
vt 0.299539 0.630725
vt 0.138328 0.723789
vt 0.250000 0.750000
vt 0.125000 0.587015
vt 0.800873 0.500000
s 0
f 4/1/1 22/2/1 10/3/1
f 21/4/2 22/2/2 20/5/2
f 5/6/3 6/7/3 20/5/3
f 21/4/4 8/8/4 22/2/4
f 22/2/5 1/9/5 9/10/5
f 10/3/6 27/11/6 2/12/6
f 3/13/7 4/1/7 2/12/7
f 9/10/8 12/14/8 13/15/8
f 1/9/9 12/14/9 9/10/9
f 23/16/10 16/17/10 15/18/10
f 24/19/11 19/20/11 16/17/11
f 14/21/12 24/19/12 23/16/12
f 11/22/13 24/19/13 12/14/13
f 23/16/14 15/18/14 14/23/14
f 17/24/15 25/25/15 26/26/15
f 25/25/16 6/27/16 5/28/16
f 19/20/17 25/25/17 16/17/17
f 26/26/18 5/28/18 4/29/18
f 26/26/19 3/30/19 17/24/19
f 8/31/20 29/32/20 11/22/20
f 29/32/21 30/33/21 11/22/21
f 7/34/22 21/35/22 29/32/22
f 21/35/23 6/36/23 29/32/23
f 30/33/24 6/36/24 19/37/24
f 20/5/25 6/7/25 21/4/25
f 4/1/26 20/5/26 22/2/26
f 4/1/27 5/6/27 20/5/27
f 21/4/28 7/38/28 8/8/28
f 22/2/29 8/8/29 1/9/29
f 10/3/30 22/2/30 9/10/30
f 4/1/31 10/3/31 2/12/31
f 10/3/32 9/10/32 13/15/32
f 1/9/33 11/39/33 12/14/33
f 27/11/34 13/15/34 14/21/34
f 27/11/35 10/3/35 13/15/35
f 23/16/36 24/19/36 16/17/36
f 14/21/37 13/15/37 24/19/37
f 13/15/38 12/14/38 24/19/38
f 11/22/39 19/20/39 24/19/39
f 15/18/40 16/17/40 18/40/40
f 26/26/41 25/25/41 5/28/41
f 25/25/42 19/20/42 6/27/42
f 18/40/43 16/17/43 17/24/43
f 16/17/44 25/25/44 17/24/44
f 26/26/45 4/29/45 3/30/45
f 27/41/46 28/42/46 3/43/46
f 14/23/47 28/42/47 27/41/47
f 14/23/48 15/18/48 28/42/48
f 28/42/49 15/18/49 18/40/49
f 28/42/50 18/40/50 17/44/50
f 28/42/51 17/44/51 3/43/51
f 27/41/52 3/43/52 2/45/52
f 8/31/53 7/34/53 29/32/53
f 1/46/54 8/31/54 11/22/54
f 30/33/55 29/32/55 6/36/55
f 19/20/56 11/22/56 30/33/56
