# Blender 5.1.2
# www.blender.org
mtllib rock_1.mtl
o rock_1
v 0.243275 0.579337 0.515571
v -0.323845 -0.398495 0.046169
v -0.183432 -0.141779 0.293894
v -0.273043 0.329072 0.077970
v -0.341916 0.239950 -0.341601
v -0.443742 -0.020193 -0.460720
v -0.425884 -0.313173 -0.454669
v -0.237503 -0.341354 -0.573672
v -0.046511 0.239733 -0.449769
v 0.130362 0.081210 -0.129922
v 0.193095 -0.056279 -0.120609
v 0.371897 -0.582227 0.188728
v 0.156841 -0.183723 -0.113803
v 0.342026 0.281879 0.079368
v 0.716253 -0.007695 0.334110
v -0.150636 -0.478528 0.421829
v 0.396680 -0.410650 0.477637
v -0.373697 0.401099 0.456376
v -0.051177 -0.002732 0.006100
v -0.245912 0.076812 -0.643712
v 0.204937 -0.137547 -0.375671
v 0.509439 0.008380 -0.024644
v 0.308949 0.230105 0.688066
v -0.135470 0.321405 0.667975
v -0.226438 -0.500972 -0.133949
v -0.070816 -0.560796 -0.124746
v -0.161465 -0.657717 0.260705
v 0.294702 0.602324 -0.129252
v 0.062021 0.773465 -0.193754
v -0.238998 0.629091 -0.244004
vn -0.7654 0.0050 0.6435
vn -0.7522 -0.3875 -0.5329
vn -0.7790 -0.5750 0.2500
vn -0.9802 -0.0558 0.1902
vn -0.5440 -0.1492 -0.8257
vn 0.9085 0.4086 -0.0880
vn 0.1763 0.4424 -0.8793
vn 0.7144 0.5839 -0.3856
vn 0.7007 0.6532 -0.2868
vn 0.7998 -0.5437 0.2543
vn 0.4210 -0.3933 -0.8174
vn -0.4219 -0.3345 0.8427
vn -0.1604 -0.6101 0.7759
vn 0.7228 0.4105 0.5559
vn 0.0522 0.4501 0.8914
vn -0.8992 0.0761 0.4308
vn -0.3265 -0.8957 -0.3020
vn 0.1078 -0.9699 -0.2185
vn -0.2206 -0.9680 -0.1200
vn 0.5077 -0.8056 -0.3052
vn 0.8534 -0.5171 0.0655
vn 0.1915 -0.6626 0.7241
vn 0.5773 0.8131 0.0750
vn 0.7902 -0.2485 -0.5602
vn 0.5507 0.2673 -0.7907
vn -0.8327 0.3315 -0.4436
vn -0.9634 -0.1376 -0.2301
vn -0.2912 0.9012 0.3210
vn -0.8237 0.5564 -0.1097
vn -0.9419 -0.2705 -0.1990
vn -0.6660 0.5136 0.5409
vn 0.4568 -0.1380 -0.8788
vn 0.5757 0.2296 -0.7848
vn 0.8325 0.5145 -0.2054
vn -0.6631 -0.0558 -0.7465
vn -0.7066 0.5040 -0.4967
vn 0.9556 -0.2650 0.1288
vn 0.5789 0.2108 -0.7876
vn 0.8014 -0.3594 -0.4781
vn 0.3134 -0.1393 -0.9393
vn 0.5831 -0.1803 0.7921
vn -0.2753 0.7555 0.5945
vn -0.6774 -0.4185 0.6050
vn -0.1370 0.3401 0.9303
vn 0.5407 -0.3037 -0.7844
vn -0.8431 -0.5120 -0.1646
vn -0.1196 -0.4475 -0.8863
vn 0.0551 -0.8606 0.5063
vn -0.8957 -0.2662 0.3563
vn -0.8035 -0.5867 -0.1007
vn -0.4505 0.8708 0.1968
vn 0.7899 -0.2484 -0.5607
vn 0.4574 0.3073 -0.8345
vn -0.1451 0.5813 -0.8007
vn -0.9674 0.2282 0.1103
vn 0.9762 0.1995 0.0850
vt 0.499721 0.081266
vt 0.583136 0.225165
vt 0.495751 0.245751
vt 0.438502 0.000000
vt 0.621480 0.092805
vt 0.413630 0.250000
vt 0.375000 0.110963
vt 0.518434 0.312500
vt 0.418334 0.312500
vt 0.562473 0.512572
vt 0.449452 0.534232
vt 0.452305 0.404500
vt 0.613320 0.651385
vt 0.495813 0.625000
vt 0.500465 0.699865
vt 0.702211 0.746750
vt 0.374463 0.759428
vt 0.323151 0.675606
vt 0.318283 0.555567
vt 0.539746 0.811877
vt 0.440503 0.970848
vt 0.562500 0.910433
vt 0.625000 0.827211
vt 0.375000 1.000000
vt 0.375000 0.919459
vt 0.250000 0.600519
vt 0.207601 0.687500
vt 0.187500 0.588498
vt 0.187500 0.500000
vt 0.125000 0.639037
vt 0.125000 0.500000
vt 0.250000 0.500000
vt 0.205541 0.750000
vt 0.750000 0.587623
vt 0.687500 0.598992
vt 0.750000 0.500000
vt 0.582359 0.437422
vt 0.812500 0.500000
vt 0.875000 0.519276
vt 0.812500 0.572058
vt 0.875000 0.657195
vt 0.843141 0.747745
vt 0.588469 0.000000
vt 0.582891 0.375000
vt 0.375000 0.437500
vt 0.607091 0.968141
s 0
f 19/1/1 5/2/1 6/3/1
f 3/4/2 4/5/2 19/1/2
f 4/5/3 5/2/3 19/1/3
f 6/3/4 7/6/4 2/7/4
f 7/6/5 20/8/5 8/9/5
f 10/10/6 11/11/6 21/12/6
f 11/11/7 14/13/7 22/14/7
f 22/14/8 14/13/8 15/15/8
f 14/13/9 1/16/9 15/15/9
f 15/15/10 17/17/10 12/18/10
f 22/14/11 12/18/11 13/19/11
f 17/17/12 23/20/12 3/21/12
f 23/20/13 24/22/13 3/21/13
f 1/16/14 23/20/14 15/15/14
f 1/23/15 24/22/15 23/20/15
f 3/21/16 2/24/16 16/25/16
f 26/26/17 27/27/17 25/28/17
f 26/26/18 12/18/18 27/27/18
f 8/29/19 2/30/19 7/31/19
f 21/32/20 25/28/20 8/29/20
f 13/19/21 26/26/21 21/32/21
f 12/18/22 16/33/22 27/27/22
f 29/34/23 1/16/23 28/35/23
f 9/36/24 28/35/24 10/37/24
f 20/38/25 29/34/25 9/36/25
f 5/39/26 30/40/26 20/38/26
f 30/40/27 4/41/27 18/42/27
f 29/34/28 18/42/28 1/16/28
f 3/4/29 19/1/29 2/7/29
f 3/4/30 18/43/30 4/5/30
f 2/7/31 19/1/31 6/3/31
f 8/9/32 20/8/32 21/12/32
f 20/8/33 9/44/33 21/12/33
f 9/44/34 10/10/34 21/12/34
f 7/6/35 6/3/35 20/8/35
f 6/3/36 5/2/36 20/8/36
f 13/45/37 21/12/37 11/11/37
f 11/11/38 10/10/38 14/13/38
f 22/14/39 15/15/39 12/18/39
f 11/11/40 22/14/40 13/19/40
f 17/17/41 15/15/41 23/20/41
f 24/22/42 1/23/42 18/46/42
f 3/21/43 24/22/43 18/46/43
f 17/17/44 3/21/44 16/25/44
f 26/26/45 13/19/45 12/18/45
f 8/29/46 25/28/46 2/30/46
f 21/32/47 26/26/47 25/28/47
f 12/18/48 17/17/48 16/33/48
f 2/30/49 27/27/49 16/33/49
f 25/28/50 27/27/50 2/30/50
f 29/34/51 30/40/51 18/42/51
f 10/37/52 28/35/52 14/13/52
f 9/36/53 29/34/53 28/35/53
f 20/38/54 30/40/54 29/34/54
f 5/39/55 4/41/55 30/40/55
f 28/35/56 1/16/56 14/13/56
