# Blender 5.1.2
# www.blender.org
mtllib rock_4.mtl
o rock_4
v 0.341979 -0.321455 0.349889
v 0.288167 0.148416 0.279439
v -0.537037 -0.428160 -0.265829
v -0.584145 -0.568413 0.017541
v -0.447664 -0.439946 0.445951
v -0.516009 0.055950 0.330368
v -0.479890 0.031718 -0.349570
v -0.309252 -0.137015 -0.337138
v 0.468073 0.590993 -0.510322
v 0.513640 0.357607 -0.642941
v 0.317893 -0.118085 -0.276520
v 0.391749 -0.344187 -0.104492
v 0.599658 0.627115 -0.053101
v 0.441735 0.333376 0.257239
v 0.429739 -0.195082 0.418622
v 0.008470 -0.292034 0.338515
v 0.012675 0.079203 0.062796
v -0.108401 0.146115 0.120328
v -0.678718 -0.272832 0.319671
v -0.391079 0.254221 0.076506
v -0.870107 -0.068134 0.020944
v -0.102507 0.170886 -0.268448
v 0.584417 -0.168801 -0.179657
v 0.752852 0.353928 -0.159476
v 0.006208 -0.075687 0.339614
v -0.208838 -0.466927 -0.136748
v 0.026871 -0.103154 -0.076622
v 0.243870 0.516434 0.005710
v -0.081753 0.144198 -0.066419
v -0.112602 0.189753 0.044148
vn -0.5535 0.7663 0.3261
vn -0.5045 0.8040 -0.3147
vn -0.3821 0.1595 0.9102
vn 0.2195 0.9742 -0.0517
vn -0.0937 -0.1671 -0.9815
vn -0.6706 -0.6243 0.4008
vn 0.6096 -0.2408 -0.7552
vn 0.1512 -0.6415 -0.7520
vn 0.8258 0.3917 -0.4056
vn 0.7850 -0.6085 0.1164
vn -0.5122 0.7546 0.4102
vn -0.0346 -0.0054 0.9994
vn -0.0765 0.3472 0.9347
vn 0.1740 0.7363 0.6538
vn 0.0413 0.2322 0.9718
vn 0.2853 -0.4327 -0.8552
vn 0.6067 -0.2695 -0.7478
vn -0.5521 -0.8336 -0.0188
vn 0.3236 -0.9297 0.1757
vn 0.0646 -0.8986 -0.4340
vn -0.6289 0.7601 -0.1634
vn 0.5793 0.7207 0.3809
vn -0.4194 0.4433 0.7922
vn -0.1269 0.7518 0.6470
vn -0.6846 0.3175 0.6561
vn -0.6812 -0.0484 -0.7305
vn -0.2365 0.8806 -0.4106
vn 0.1776 0.7313 0.6585
vn 0.2505 0.8459 0.4708
vn 0.8186 0.5743 -0.0082
vn -0.8101 -0.4606 -0.3627
vn -0.8482 -0.4862 0.2102
vn -0.4550 -0.6448 -0.6142
vn -0.3451 -0.4795 -0.8068
vn 0.1728 0.1025 -0.9796
vn -0.5611 0.3234 -0.7619
vn 0.9661 0.0551 0.2522
vn 0.7774 -0.2724 0.5670
vn 0.1889 -0.5548 -0.8103
vn 0.8642 -0.2619 -0.4296
vn 0.7907 0.5489 -0.2709
vn 0.7791 0.2064 0.5919
vn -0.2141 0.2897 0.9328
vn 0.6968 -0.7015 0.1493
vn 0.5823 0.7036 0.4073
vn -0.2594 -0.3162 0.9125
vn 0.2300 -0.0025 0.9732
vn 0.8375 -0.5104 -0.1951
vn -0.0658 -0.9071 -0.4157
vn -0.4624 -0.6276 -0.6263
vn 0.3420 -0.9218 0.1828
vn -0.6322 0.6382 -0.4393
vn -0.2956 0.9553 0.0096
vn -0.7581 0.6319 0.1613
vn -0.4901 -0.4273 0.7598
vn -0.4201 0.5439 0.7264
vt 0.500000 0.041455
vt 0.562500 0.102812
vt 0.483041 0.125000
vt 0.500000 0.225541
vt 0.382038 0.021786
vt 0.437500 0.062500
vt 0.625000 0.125000
vt 0.550998 0.315774
vt 0.421537 0.259881
vt 0.390535 0.187500
vt 0.375000 0.125000
vt 0.409067 0.387070
vt 0.562091 0.489061
vt 0.449921 0.577716
vt 0.423349 0.499781
vt 0.640060 0.500000
vt 0.562500 0.588366
vt 0.375000 0.589303
vt 0.437500 0.747536
vt 0.373530 0.747767
vt 0.572450 0.872794
vt 0.466211 0.878413
vt 0.536405 0.757606
vt 0.375000 0.882826
vt 0.619134 0.994159
vt 0.500000 1.000000
vt 0.385803 1.000000
vt 0.134881 0.500000
vt 0.187500 0.582586
vt 0.125000 0.562500
vt 0.256222 0.545975
vt 0.125000 0.728214
vt 0.125000 0.625000
vt 0.750000 0.500000
vt 0.687500 0.621372
vt 0.847967 0.631424
vt 0.865928 0.694763
vt 0.747794 0.750000
vt 0.592167 0.687500
vt 0.625000 0.609865
vt 0.619134 0.052646
vt 0.625000 0.279785
vt 0.625000 0.484940
vt 0.242174 0.747446
vt 0.829032 0.555836
s 0
f 6/1/1 20/2/1 21/3/1
f 20/2/2 7/4/2 21/3/2
f 5/5/3 6/1/3 19/6/3
f 30/7/4 22/8/4 20/2/4
f 7/4/5 8/9/5 3/10/5
f 19/6/6 4/11/6 5/5/6
f 8/9/7 22/8/7 27/12/7
f 10/13/8 23/14/8 11/15/8
f 9/16/9 24/17/9 10/13/9
f 12/18/10 15/19/10 1/20/10
f 17/21/11 25/22/11 2/23/11
f 1/20/12 25/22/12 16/24/12
f 2/23/13 25/22/13 15/19/13
f 25/22/14 18/25/14 6/26/14
f 25/22/15 6/26/15 5/27/15
f 8/28/16 26/29/16 3/30/16
f 8/28/17 27/31/17 26/29/17
f 12/18/18 1/20/18 27/31/18
f 26/29/19 5/32/19 4/33/19
f 3/30/20 26/29/20 4/33/20
f 22/34/21 28/35/21 9/16/21
f 30/36/22 18/37/22 17/38/22
f 30/36/23 2/23/23 14/39/23
f 28/35/24 14/39/24 13/40/24
f 19/6/25 6/1/25 21/3/25
f 21/3/26 7/4/26 3/10/26
f 20/2/27 22/8/27 7/4/27
f 6/1/28 18/41/28 20/2/28
f 20/2/29 18/41/29 30/7/29
f 30/7/30 29/42/30 22/8/30
f 4/11/31 21/3/31 3/10/31
f 19/6/32 21/3/32 4/11/32
f 22/8/33 11/15/33 27/12/33
f 22/8/34 10/13/34 11/15/34
f 8/9/35 7/4/35 22/8/35
f 22/8/36 9/43/36 10/13/36
f 23/14/37 14/39/37 15/19/37
f 23/14/38 24/17/38 14/39/38
f 11/15/39 23/14/39 12/18/39
f 10/13/40 24/17/40 23/14/40
f 9/16/41 13/40/41 24/17/41
f 24/17/42 13/40/42 14/39/42
f 14/39/43 2/23/43 15/19/43
f 12/18/44 23/14/44 15/19/44
f 25/22/45 17/21/45 18/25/45
f 1/20/46 15/19/46 25/22/46
f 16/24/47 25/22/47 5/27/47
f 26/29/48 27/31/48 16/44/48
f 27/31/49 1/20/49 16/44/49
f 11/15/50 12/18/50 27/31/50
f 26/29/51 16/44/51 5/32/51
f 29/45/52 30/36/52 28/35/52
f 9/16/53 28/35/53 13/40/53
f 22/34/54 29/45/54 28/35/54
f 30/36/55 17/38/55 2/23/55
f 28/35/56 30/36/56 14/39/56
