# Blender 5.0.1
# www.blender.org
mtllib rock_2.mtl
o rock_2
v -0.280679 0.087354 -0.401923
v -0.375279 -0.412091 -0.112473
v -0.289163 -0.447133 0.413311
v -0.387218 0.456806 0.478054
v -0.370763 0.559279 -0.217564
v 0.145324 -0.175975 -0.539210
v 0.034452 -0.083040 -0.111882
v 0.011562 0.115588 -0.150148
v 0.336765 0.288776 -0.352648
v 0.339896 -0.086700 -0.629849
v 0.591451 -0.466030 -0.129317
v 0.387457 0.371660 -0.072062
v 0.248298 -0.057563 0.201703
v 0.138872 -0.387810 0.456898
v 0.416669 -0.352850 0.186257
v 0.124574 0.333348 0.253699
v -0.515601 -0.237343 0.070444
v -0.221061 -0.085247 0.562343
v -0.623855 0.345143 -0.037426
v -0.586604 -0.117228 -0.355662
v -0.633953 0.243794 -0.316061
v -0.092873 -0.089838 -0.350420
v 0.811033 -0.272705 -0.096486
v 0.536550 -0.169814 0.184031
v 0.344599 0.247124 0.241089
v -0.117927 0.340375 0.621196
v 0.084925 -0.326605 -0.026131
v 0.016857 -0.588979 0.286008
v 0.087341 0.353037 -0.126949
v -0.161653 0.614667 0.071177
vn -0.8428 -0.4952 0.2107
vn -0.9821 -0.1424 0.1235
vn -0.7156 0.6643 -0.2157
vn -0.0714 0.3511 -0.9336
vn -0.2015 0.0806 -0.9762
vn 0.0244 -0.2551 -0.9666
vn -0.7371 -0.6715 0.0760
vn -0.4649 0.5233 -0.7141
vn 0.0668 -0.7788 -0.6237
vn 0.7553 0.6544 0.0359
vn 0.7525 0.3952 -0.5269
vn 0.9084 -0.4162 -0.0412
vn 0.0097 -0.1312 0.9913
vn 0.7013 -0.4526 0.5507
vn 0.9528 -0.3032 0.0161
vn 0.1432 -0.1695 0.9751
vn 0.3667 0.9028 0.2247
vn 0.2272 -0.2812 -0.9324
vn -0.2822 -0.3701 -0.8851
vn 0.3063 -0.7605 -0.5725
vn 0.5980 -0.7441 -0.2980
vn 0.5341 -0.7116 0.4563
vn -0.4178 -0.9085 0.0079
vn -0.0080 0.9594 -0.2820
vn -0.0725 0.9956 0.0586
vn 0.7113 0.7021 -0.0333
vn 0.5790 0.3902 -0.7159
vn -0.8679 0.1634 0.4691
vn -0.8487 -0.0568 0.5258
vn -0.8737 -0.1987 0.4441
vn -0.5988 0.7943 0.1028
vn 0.0426 -0.6173 -0.7855
vn -0.7976 -0.6020 -0.0368
vn -0.5161 0.3169 -0.7957
vn -0.6100 0.6900 -0.3896
vn 0.5749 0.4023 -0.7125
vn -0.2291 -0.9618 0.1497
vn 0.7363 0.2531 0.6276
vn 0.5484 -0.5104 -0.6624
vn 0.0525 -0.0223 0.9984
vn 0.4410 -0.6124 0.6561
vn 0.6404 0.0529 0.7662
vn 0.5392 0.7700 0.3411
vn 0.1553 0.8889 0.4310
vn -0.4719 -0.0076 0.8816
vn -0.0426 -0.3736 0.9266
vn 0.6379 0.3273 0.6971
vn 0.2531 -0.7670 -0.5896
vn -0.2167 -0.9509 0.2210
vn -0.5656 -0.8240 0.0325
vn 0.0132 -0.6520 0.7581
vn 0.4383 0.7692 -0.4650
vn -0.6079 0.2671 -0.7478
vn 0.2068 0.0296 -0.9779
vn -0.4098 0.9038 0.1234
vn 0.3556 0.8508 0.3870
vt 0.562500 0.127378
vt 0.553652 0.178652
vt 0.477652 0.001488
vt 0.465479 0.187500
vt 0.437500 0.100522
vt 0.625000 0.172312
vt 0.519094 0.250000
vt 0.446943 0.301215
vt 0.375000 0.150940
vt 0.375000 0.015200
vt 0.583483 0.482384
vt 0.463476 0.445596
vt 0.374660 0.589940
vt 0.433890 0.378611
vt 0.586056 0.748889
vt 0.439068 0.617700
vt 0.631272 0.625000
vt 0.459027 0.799018
vt 0.437500 0.687500
vt 0.364586 0.705028
vt 0.395246 0.875000
vt 0.562500 0.922178
vt 0.476921 0.951723
vt 0.625000 0.846444
vt 0.215640 0.557299
vt 0.250000 0.625000
vt 0.131773 0.605833
vt 0.234409 0.687500
vt 0.125000 0.500000
vt 0.366648 0.707089
vt 0.250000 0.750000
vt 0.151745 0.734801
vt 0.750000 0.584351
vt 0.642427 0.520810
vt 0.725008 0.740948
vt 0.812500 0.649769
vt 0.875000 0.500000
vt 0.871275 0.577689
vt 0.756905 0.500000
vt 0.596617 0.012485
vt 0.570183 0.332065
vt 0.375000 0.316586
vt 0.625000 0.937500
vt 0.596617 1.000000
vt 0.375000 0.964660
vt 0.312500 0.500000
vt 0.875000 0.727128
s 0
f 19/1/1 21/2/1 18/3/1
f 21/2/2 20/4/2 17/5/2
f 19/1/3 5/6/3 21/2/3
f 5/6/4 1/7/4 21/2/4
f 21/2/5 1/7/5 20/4/5
f 20/4/6 1/7/6 22/8/6
f 17/5/7 2/9/7 3/10/7
f 22/8/8 9/11/8 10/12/8
f 10/12/9 11/13/9 6/14/9
f 9/11/10 25/15/10 23/16/10
f 10/12/11 9/11/11 23/16/11
f 9/11/12 12/17/12 25/15/12
f 25/15/13 13/18/13 24/19/13
f 11/13/14 24/19/14 15/20/14
f 25/15/15 14/21/15 13/18/15
f 26/22/16 18/23/16 14/21/16
f 25/15/17 16/24/17 26/22/17
f 7/25/18 27/26/18 2/27/18
f 11/13/19 27/26/19 7/25/19
f 27/26/20 15/20/20 28/28/20
f 22/29/21 7/25/21 2/27/21
f 28/28/22 15/30/22 14/31/22
f 2/27/23 28/28/23 3/32/23
f 29/33/24 12/17/24 9/34/24
f 29/33/25 16/35/25 12/17/25
f 30/36/26 16/35/26 29/33/26
f 1/37/27 5/38/27 8/39/27
f 17/5/28 18/3/28 21/2/28
f 3/10/29 18/3/29 17/5/29
f 18/3/30 4/40/30 19/1/30
f 4/40/31 5/6/31 19/1/31
f 2/9/32 20/4/32 22/8/32
f 2/9/33 17/5/33 20/4/33
f 6/14/34 22/8/34 10/12/34
f 22/8/35 8/41/35 9/11/35
f 1/7/36 8/41/36 22/8/36
f 22/8/37 6/14/37 7/42/37
f 23/16/38 25/15/38 24/19/38
f 11/13/39 10/12/39 23/16/39
f 24/19/40 13/18/40 15/20/40
f 11/13/41 23/16/41 24/19/41
f 25/15/42 26/22/42 14/21/42
f 26/22/43 16/24/43 30/43/43
f 26/22/44 30/43/44 4/44/44
f 18/23/45 26/22/45 4/44/45
f 14/21/46 18/23/46 3/45/46
f 15/20/47 13/18/47 14/21/47
f 2/27/48 27/26/48 28/28/48
f 27/26/49 11/13/49 15/20/49
f 7/25/50 6/46/50 11/13/50
f 28/28/51 14/31/51 3/32/51
f 5/38/52 30/36/52 29/33/52
f 9/34/53 8/39/53 29/33/53
f 8/39/54 5/38/54 29/33/54
f 30/36/55 5/38/55 4/47/55
f 12/17/56 16/35/56 25/15/56
