# Blender 5.0.1
# www.blender.org
mtllib solar_tower_0.mtl
o solar_tower_0
v -0.500000 -1.000000 0.500000
v -0.500000 1.000000 0.500000
v -0.500000 -1.000000 -0.500000
v -0.500000 1.000000 -0.500000
v 0.500000 -1.000000 0.500000
v 0.500000 1.000000 0.500000
v 0.500000 -1.000000 -0.500000
v 0.500000 1.000000 -0.500000
v -0.255783 1.500000 0.255783
v -0.255783 1.500000 -0.255783
v 0.255783 1.500000 -0.255783
v 0.255783 1.500000 0.255783
v -0.255783 20.000000 0.255783
v -0.255783 20.000000 -0.255783
v 0.255783 20.000000 -0.255783
v 0.255783 20.000000 0.255783
v 0.000000 19.666088 -0.354750
v 0.000000 1.666088 -0.354750
v 0.000000 19.666088 -4.354750
v 0.000000 1.666088 -4.354750
v 0.000000 19.666088 4.354750
v 0.000000 1.666088 4.354750
v 0.000000 19.666088 0.354750
v 0.000000 1.666088 0.354750
v 0.000000 19.666088 -0.354750
v 0.000000 1.666088 -0.354750
v 0.000000 19.666088 -4.354750
v 0.000000 1.666088 -4.354750
v 0.000000 19.666088 4.354750
v 0.000000 1.666088 4.354750
v 0.000000 19.666088 0.354750
v 0.000000 1.666088 0.354750
v 0.000000 10.666088 4.354750
v 0.000000 10.666088 0.354750
v 0.000000 10.666088 -0.354750
v 0.000000 10.666088 -4.354750
v 0.000000 10.675463 4.354750
v 0.000000 10.675463 0.354750
v 0.000000 10.666088 -0.354750
v 0.000000 10.666088 -4.354750
vn -1.0000 -0.0000 -0.0000
vn -0.0000 -0.0000 -1.0000
vn 1.0000 -0.0000 -0.0000
vn -0.0000 -0.0000 1.0000
vn 0.8985 0.4389 -0.0000
vn -0.8985 0.4389 -0.0000
vn -0.0000 0.4389 0.8985
vn -0.0000 0.4389 -0.8985
vn -0.0000 1.0000 -0.0000
vt 0.816711 0.550394
vt 0.584886 0.086744
vt 0.816711 0.086744
vt 0.584886 0.550394
vt 0.353062 0.086744
vt 0.353062 0.550394
vt 0.121237 0.086744
vt 1.048536 0.550394
vt 1.048536 0.086744
vt 0.679098 0.952033
vt 0.896603 0.957588
vt 0.862212 1.094203
vt 0.991920 0.679394
vt 0.873327 4.968151
vt 0.873327 0.679394
vt 0.793040 0.766678
vt 0.659769 0.721015
vt 0.802929 0.884859
vt 0.873327 5.086744
vt 0.991921 4.968150
vt 0.991921 5.086744
vt 0.754733 0.679394
vt 0.636139 4.968151
vt 0.636139 0.679394
vt 0.517545 4.968150
vt 0.517545 0.679394
vt 0.754733 4.968150
vt 16.500000 -3.500000
vt 0.500000 4.500000
vt 0.500000 -3.500000
vt 0.483334 4.500000
vt 0.483334 -3.500000
vt -15.500000 4.500000
vt -15.500000 -3.500000
vt 0.121237 0.550394
vt 16.500000 4.500000
s 0
usemtl solar_panel
f 18/28/3 36/29/3 35/30/3
f 22/28/3 34/29/3 33/30/3
f 40/29/1 26/28/1 39/30/1
f 38/31/1 30/28/1 37/32/1
f 33/30/3 23/33/3 21/34/3
f 35/30/3 19/33/3 17/34/3
f 31/33/1 37/32/1 29/34/1
f 27/33/1 39/30/1 25/34/1
f 18/28/3 20/36/3 36/29/3
f 22/28/3 24/36/3 34/29/3
f 40/29/1 28/36/1 26/28/1
f 38/31/1 32/36/1 30/28/1
f 33/30/3 34/29/3 23/33/3
f 35/30/3 36/29/3 19/33/3
f 31/33/1 38/31/1 37/32/1
f 27/33/1 40/29/1 39/30/1
usemtl no_texture
f 2/1/1 3/2/1 1/3/1
f 4/4/2 7/5/2 3/2/2
f 8/6/3 5/7/3 7/5/3
f 6/8/4 1/3/4 5/9/4
f 8/10/5 12/11/5 6/12/5
f 12/13/4 13/14/4 9/15/4
f 2/1/6 10/16/6 4/17/6
f 6/8/7 9/15/7 2/1/7
f 4/17/8 11/18/8 8/10/8
f 14/19/9 16/20/9 15/21/9
f 10/22/2 15/23/2 11/24/2
f 11/24/3 16/25/3 12/26/3
f 9/15/1 14/27/1 10/22/1
f 2/1/1 4/4/1 3/2/1
f 4/4/2 8/6/2 7/5/2
f 8/6/3 6/35/3 5/7/3
f 6/8/4 2/1/4 1/3/4
f 8/10/5 11/18/5 12/11/5
f 12/13/4 16/20/4 13/14/4
f 2/1/6 9/15/6 10/16/6
f 6/8/7 12/13/7 9/15/7
f 4/17/8 10/16/8 11/18/8
f 14/19/9 13/14/9 16/20/9
f 10/22/2 14/27/2 15/23/2
f 11/24/3 15/23/3 16/25/3
f 9/15/1 13/14/1 14/27/1
