# Blender 5.0.1
# www.blender.org
mtllib storage_0.mtl
o storage_0
v -10.000000 -1.000000 10.000000
v -8.794510 6.000000 10.000000
v -10.000000 -1.000000 -15.000000
v -8.794510 6.000000 -15.000000
v 10.000000 -1.000000 10.000000
v 8.794510 6.000000 10.000000
v 10.000000 -1.000000 -15.000000
v 8.794510 6.000000 -15.000000
v -7.497498 9.000000 9.000000
v -7.497498 9.000000 -14.000000
v 7.497498 9.000000 -14.000000
v 7.497498 9.000000 9.000000
v -4.536913 10.000000 8.000000
v -4.536913 10.000000 -13.000000
v 4.536913 10.000000 -13.000000
v 4.536913 10.000000 8.000000
v -10.000000 7.000000 10.000000
v -8.794510 0.000000 10.000000
v -10.000000 7.000000 -15.000000
v 8.794510 0.000000 -15.000000
v -8.794510 0.000000 -15.000000
v 10.000000 7.000000 -15.000000
v 10.000000 7.000000 10.000000
v 8.794510 0.000000 -14.388346
v 8.794510 0.000000 10.000000
v -8.794510 0.000000 -14.388346
v -8.794510 0.000000 9.388346
v 8.794510 0.000000 9.388346
v -8.794510 6.000000 9.388346
v -8.794510 6.000000 -14.388346
v 8.794510 6.000000 -14.388346
v 8.794510 6.000000 9.388346
v 0.000000 0.000000 9.388346
v 0.000000 0.000000 -14.388346
v 0.000000 6.000000 -14.388346
v 0.000000 6.000000 9.388346
v -8.794510 -1.000000 15.109621
v 8.794510 -1.000000 -20.109621
v -8.794510 -1.000000 -20.109621
v 8.794510 -1.000000 15.109621
vn -1.0000 -0.0000 -0.0000
vn -0.0000 1.0000 -0.0000
vn 1.0000 -0.0000 -0.0000
vn 0.6243 0.7812 -0.0000
vn -0.3200 0.9474 -0.0000
vn -0.6243 0.7812 -0.0000
vn -0.0000 0.4472 0.8944
vn -0.0000 0.4472 -0.8944
vn -0.0000 0.7071 0.7071
vn -0.0000 0.7071 -0.7071
vn 0.3200 0.9474 -0.0000
vn -0.0000 -0.0000 1.0000
vn -0.0000 -0.0000 -1.0000
vn -0.0000 -1.0000 -0.0000
vn -0.0000 0.9814 0.1921
vn -0.0000 0.9814 -0.1921
vn -0.6313 0.7611 -0.1489
vn 0.6313 0.7611 -0.1489
vn -0.6313 0.7611 0.1489
vn 0.6313 0.7611 0.1489
vt 0.030590 1.795326
vt 0.592840 0.038281
vt 0.592844 1.795325
vt 0.616231 3.350355
vt 1.253897 3.295324
vt 1.918285 3.313169
vt 0.030589 4.958015
vt 0.592846 3.200966
vt 0.592845 4.958015
vt 0.596404 2.810952
vt 0.615891 3.270381
vt 0.592846 3.295324
vt 0.592846 0.483055
vt 2.279612 0.257906
vt 2.349894 0.483055
vt 0.663128 0.702680
vt 2.209330 0.483055
vt 2.279612 0.702680
vt 0.592846 0.927829
vt 2.349894 0.927829
vt 0.592846 2.553958
vt 1.822603 2.396802
vt 1.998484 2.553957
vt 0.592846 2.810507
vt 1.822603 2.653351
vt 1.998484 2.810507
vt 2.068766 1.565555
vt 0.592846 0.927829
vt 2.068766 0.927829
vt 0.768727 2.396803
vt 1.614528 2.297409
vt 0.768727 2.653351
vt 1.614528 2.553958
vt 0.663128 0.257906
vt 2.209330 0.038281
vt 0.100872 1.880050
vt 0.522562 1.880049
vt 0.522561 6.278935
vt 0.030585 6.363659
vt 0.100868 6.278934
vt 1.764706 2.409321
vt 0.003024 1.207425
vt 1.764706 1.207425
vt 0.100871 5.042740
vt 0.522563 5.042740
vt 0.522564 3.116241
vt 0.030590 3.200966
vt 0.100872 3.116241
vt 1.764706 1.207425
vt 0.003024 0.005528
vt 1.764706 0.005528
vt 1.262967 3.264082
vt 1.908459 3.270401
vt 1.934678 3.295324
vt 1.904975 2.835702
vt 1.927885 2.810507
vt 1.894899 3.767025
vt 1.257234 3.822056
vt 0.592846 3.804210
vt 0.618399 3.782032
vt 0.592846 3.329309
vt 1.892732 3.335348
vt 1.918285 3.788071
vt 1.262142 2.842018
vt 0.619303 2.835986
vt 3.526388 1.207424
vt 3.526388 0.005528
vt 3.526387 2.409321
vt 3.526387 1.207425
vt 0.702096 1.931482
vt 1.938285 1.565555
vt 1.938285 1.931482
vt 0.702096 2.297409
vt 0.702096 1.931482
vt 0.592846 1.944981
vt 2.047535 1.944981
vt 1.938285 2.297409
vt 0.592846 1.917983
vt 0.702095 1.565555
vt 2.047535 1.917983
vt 0.030585 0.038283
vt 0.733410 0.483055
vt 0.592846 1.565555
vt 0.976802 2.297409
vt 0.976802 2.553958
vt 0.733410 0.038281
vt 0.592843 6.363660
vt 0.003024 2.409321
vt 0.003024 1.207425
s 0
usemtl concrete_light
f 17/1/1 3/2/1 1/3/1
f 21/4/2 34/5/2 24/6/2
f 22/7/3 5/8/3 7/9/3
f 18/10/3 29/11/3 2/12/3
f 22/13/4 12/14/4 23/15/4
f 9/16/5 14/17/5 10/18/5
f 17/19/6 10/18/6 19/20/6
f 23/21/7 9/22/7 17/23/7
f 19/24/8 11/25/8 22/26/8
f 14/27/2 16/28/2 15/29/2
f 12/30/9 13/31/9 9/22/9
f 10/32/10 15/33/10 11/25/10
f 11/34/11 16/35/11 12/14/11
f 2/36/12 1/3/12 18/37/12
f 21/38/13 19/39/13 4/40/13
f 4/40/13 22/7/13 8/44/13
f 8/44/13 7/9/13 20/45/13
f 25/46/12 23/47/12 6/48/12
f 6/48/12 17/1/12 2/36/12
f 2/12/14 36/52/14 32/53/14
f 6/54/1 28/55/1 25/56/1
f 8/57/14 35/58/14 30/59/14
f 4/60/3 26/61/3 21/4/3
f 20/62/1 31/63/1 8/57/1
f 25/56/2 33/64/2 27/65/2
f 18/70/15 40/71/15 25/72/15
f 20/72/16 39/73/16 21/74/16
f 21/74/17 39/73/17 3/75/17
f 7/76/18 38/77/18 20/72/18
f 18/70/19 1/78/19 37/79/19
f 25/72/20 40/71/20 5/80/20
f 17/1/1 19/81/1 3/2/1
f 24/6/2 20/62/2 21/4/2
f 21/4/2 26/61/2 34/5/2
f 22/7/3 23/47/3 5/8/3
f 18/10/3 27/65/3 29/11/3
f 22/13/4 11/34/4 12/14/4
f 9/16/5 13/82/5 14/17/5
f 17/19/6 9/16/6 10/18/6
f 23/21/7 12/30/7 9/22/7
f 19/24/8 10/32/8 11/25/8
f 14/27/2 13/83/2 16/28/2
f 12/30/9 16/84/9 13/31/9
f 10/32/10 14/85/10 15/33/10
f 11/34/11 15/86/11 16/35/11
f 2/36/12 17/1/12 1/3/12
f 21/38/13 3/87/13 19/39/13
f 4/40/13 19/39/13 22/7/13
f 8/44/13 22/7/13 7/9/13
f 25/46/12 5/8/12 23/47/12
f 6/48/12 23/47/12 17/1/12
f 32/53/14 6/54/14 2/12/14
f 2/12/14 29/11/14 36/52/14
f 6/54/1 32/53/1 28/55/1
f 30/59/14 4/60/14 8/57/14
f 8/57/14 31/63/14 35/58/14
f 4/60/3 30/59/3 26/61/3
f 20/62/1 24/6/1 31/63/1
f 27/65/2 18/10/2 25/56/2
f 25/56/2 28/55/2 33/64/2
f 18/70/15 37/79/15 40/71/15
f 20/72/16 38/77/16 39/73/16
usemtl garage_door
f 36/41/12 27/42/12 33/43/12
f 35/49/13 24/50/13 34/51/13
f 30/66/13 34/51/13 26/67/13
f 32/68/12 33/43/12 28/69/12
f 36/41/12 29/88/12 27/42/12
f 35/49/13 31/89/13 24/50/13
f 30/66/13 35/49/13 34/51/13
f 32/68/12 36/41/12 33/43/12
