# Blender 5.0.1
# www.blender.org
mtllib tank_0.mtl
o tank_0
v -1.000000 1.760780 1.000000
v -1.000000 10.760780 1.000000
v -1.000000 1.760780 -1.000000
v -1.000000 10.760780 -1.000000
v 1.000000 1.760780 1.000000
v 1.000000 10.760780 1.000000
v 1.000000 1.760780 -1.000000
v 1.000000 10.760780 -1.000000
v -1.500000 1.760780 0.000000
v -1.500000 10.760780 0.000000
v 0.000000 1.760780 -1.500000
v 0.000000 10.760780 -1.500000
v 1.500000 1.760780 0.000000
v 1.500000 10.760780 0.000000
v 0.000000 1.760780 1.500000
v 0.000000 10.760780 1.500000
v -0.916601 0.930305 -0.000000
v -0.611068 0.930305 0.611066
v -0.916601 11.591257 -0.000000
v -0.611068 11.591257 -0.611067
v -0.000002 0.930305 -0.916600
v -0.611068 0.930305 -0.611067
v -0.000002 11.591257 -0.916600
v 0.611065 11.591257 -0.611067
v 0.916598 0.930305 -0.000000
v 0.611065 0.930305 -0.611067
v 0.916598 11.591257 -0.000000
v 0.611065 11.591257 0.611066
v -0.000002 0.930305 0.916599
v 0.611065 0.930305 0.611066
v -0.000002 11.591257 0.916599
v -0.611068 11.591257 0.611066
v -0.395276 -0.500000 1.465415
v -0.429385 4.646653 1.591866
v -0.395276 -0.500000 -1.465415
v -0.429385 4.646653 -1.591866
v 0.395265 -0.500000 1.465415
v 0.429373 4.646653 1.591866
v 1.465410 -0.500000 -0.395271
v 1.591861 4.646653 -0.429379
v -1.465421 -0.500000 -0.395271
v -1.465421 -0.500000 0.395271
v -1.591873 4.646653 0.429379
v -1.591873 4.646653 -0.429379
v 0.395265 -0.500000 -1.465415
v 0.429373 4.646653 -1.591866
v 1.465410 -0.500000 0.395271
v 1.591861 4.646653 0.429379
v -2.376191 -0.500000 -0.395271
v -2.376191 -0.500000 0.395271
v -2.376191 2.296119 0.395271
v -2.376191 2.296119 -0.395271
v 0.395265 -0.500000 -2.376186
v -0.395276 -0.500000 -2.376186
v -0.395276 2.296119 -2.376186
v 0.395265 2.296119 -2.376186
v 2.376180 -0.500000 0.395271
v 2.376180 -0.500000 -0.395271
v 2.376180 2.296119 -0.395271
v 2.376180 2.296119 0.395271
v -0.395276 -0.500000 2.376186
v 0.395265 -0.500000 2.376186
v 0.395265 2.296119 2.376186
v -0.395276 2.296119 2.376186
vn -0.8944 -0.0000 -0.4472
vn 0.4472 -0.0000 -0.8944
vn 0.8944 -0.0000 0.4472
vn -0.4472 -0.0000 0.8944
vn -0.3787 0.5320 0.7573
vn 0.7573 -0.5320 0.3787
vn -0.8944 -0.0000 0.4472
vn -0.4472 -0.0000 -0.8944
vn 0.8944 -0.0000 -0.4472
vn 0.4472 -0.0000 0.8944
vn -0.0000 -1.0000 -0.0000
vn -0.0000 1.0000 -0.0000
vn -0.3787 -0.5320 -0.7573
vn 0.7573 0.5320 -0.3787
vn -0.7573 -0.5320 -0.3787
vn 0.3787 0.5320 -0.7573
vn -0.7573 0.5320 0.3787
vn -0.3787 -0.5320 0.7573
vn 0.7573 -0.5320 -0.3787
vn 0.3787 0.5320 0.7573
vn -0.7573 -0.5320 0.3787
vn 0.3787 -0.5320 -0.7573
vn 0.7573 0.5320 0.3787
vn -0.3787 0.5320 -0.7573
vn -0.7573 0.5320 -0.3787
vn 0.3787 -0.5320 0.7573
vn -1.0000 -0.0000 -0.0000
vn -0.0000 -0.0000 -1.0000
vn 1.0000 -0.0000 -0.0000
vn -0.0000 -0.0000 1.0000
vn -0.0000 0.3165 -0.9486
vn -0.9997 -0.0072 0.0220
vn 0.9997 -0.0072 -0.0220
vn 0.9486 0.3165 -0.0000
vn 0.0220 -0.0072 0.9997
vn -0.9486 0.3165 -0.0000
vn -0.0220 -0.0072 -0.9997
vn -0.0000 0.3165 0.9486
vn 0.0220 -0.0072 -0.9997
vn 0.9997 -0.0072 0.0220
vn -0.0220 -0.0072 0.9997
vn -0.9997 -0.0072 -0.0220
vt 0.625000 0.125000
vt 0.375000 0.250000
vt 0.375000 0.125000
vt 0.625000 0.375000
vt 0.375000 0.500000
vt 0.375000 0.375000
vt 0.625000 0.625000
vt 0.375000 0.750000
vt 0.375000 0.625000
vt 0.625000 0.875000
vt 0.375000 1.000000
vt 0.375000 0.875000
vt 0.625000 1.000000
vt 0.625000 0.000000
vt 0.375000 0.000000
vt 0.625000 0.250000
vt 0.625000 0.500000
vt 0.625000 0.750000
vt 0.250000 0.750000
vt 0.125000 0.625000
vt 0.875000 0.625000
vt 0.750000 0.750000
vt 1.827982 0.670760
vt 2.002234 1.408756
vt 1.827982 1.408756
vt 2.206559 0.670760
vt 2.380811 1.408756
vt 2.206559 1.408756
vt 2.017271 0.670760
vt 2.191523 1.408756
vt 2.017271 1.408756
vt 1.638695 0.670760
vt 1.812946 1.408757
vt 1.638695 1.408757
vt 2.388329 0.039036
vt 2.199040 0.039036
vt 0.828293 1.397216
vt 0.642727 0.655255
vt 0.828293 0.039036
vt 1.229713 1.397216
vt 1.044148 0.655255
vt 1.229713 0.039036
vt 0.828292 1.397216
vt 1.013858 0.655255
vt 1.029003 1.393097
vt 0.025450 1.397216
vt 0.211016 0.655255
vt 0.226161 1.393096
vt 2.199041 0.039036
vt 2.009753 0.039036
vt 0.226161 1.397216
vt 0.411726 0.655255
vt 0.426871 1.393097
vt 0.627582 1.397217
vt 0.442017 0.655255
vt 0.627582 0.039036
vt 1.820464 0.039036
vt 1.631176 1.397216
vt 1.445611 0.655255
vt 1.631176 0.039036
vt 1.631176 0.039036
vt 1.812946 0.670760
vt 1.229713 1.396930
vt 1.430466 0.658934
vt 1.430466 1.396930
vt 0.125000 0.500000
vt 0.250000 0.500000
vt 0.125000 0.750000
vt 0.750000 0.500000
vt 0.875000 0.500000
vt 0.875000 0.750000
vt 2.002234 0.670760
vt 2.380811 0.670760
vt 2.191523 0.670760
vt 0.627582 1.393096
vt 1.029003 1.393096
vt 0.828292 0.039036
vt 0.025450 0.039036
vt 0.226161 0.039036
vt 0.426871 1.393097
vt 1.430466 1.393096
vt 1.257586 0.039036
s 0
usemtl metal_wear_mid
f 51/23/27 49/24/27 50/25/27
f 55/26/28 53/27/28 54/28/28
f 59/29/29 57/30/29 58/31/29
f 63/32/30 61/33/30 62/34/30
f 46/35/31 55/26/31 36/36/31
f 33/37/32 64/38/32 34/39/32
f 45/40/33 56/41/33 46/42/33
f 39/43/28 59/44/28 58/45/28
f 37/46/29 63/47/29 62/48/29
f 48/49/34 59/29/34 40/50/34
f 42/51/30 51/52/30 50/53/30
f 47/54/35 60/55/35 48/56/35
f 44/50/36 51/23/36 43/57/36
f 41/58/37 52/59/37 44/60/37
f 38/61/38 64/62/38 63/32/38
f 35/63/27 55/64/27 54/65/27
f 51/23/27 52/72/27 49/24/27
f 55/26/28 56/73/28 53/27/28
f 59/29/29 60/74/29 57/30/29
f 63/32/30 64/62/30 61/33/30
f 46/35/31 56/73/31 55/26/31
f 33/37/27 61/75/27 64/38/27
f 45/40/29 53/76/29 56/41/29
f 39/43/39 40/77/39 59/44/39
f 37/46/40 38/78/40 63/47/40
f 48/49/34 60/74/34 59/29/34
f 42/51/41 43/79/41 51/52/41
f 47/54/30 57/80/30 60/55/30
f 44/50/36 52/72/36 51/23/36
f 41/58/28 49/81/28 52/59/28
f 38/61/38 34/57/38 64/62/38
f 35/63/42 36/82/42 55/64/42
usemtl no_texture
f 10/1/1 3/2/1 9/3/1
f 12/4/2 7/5/2 11/6/2
f 14/7/3 5/8/3 13/9/3
f 16/10/4 1/11/4 15/12/4
f 2/13/5 31/10/5 32/13/5
f 5/8/6 25/9/6 13/9/6
f 2/14/7 9/3/7 1/15/7
f 4/16/8 11/6/8 3/2/8
f 8/17/9 13/9/9 7/5/9
f 6/18/10 15/12/10 5/8/10
f 25/9/11 29/19/11 17/20/11
f 19/21/12 31/22/12 27/7/12
f 3/2/13 21/6/13 22/2/13
f 8/17/14 27/7/14 14/7/14
f 3/2/15 17/3/15 9/3/15
f 8/17/16 23/4/16 24/17/16
f 2/14/17 19/1/17 10/1/17
f 1/11/18 29/12/18 15/12/18
f 7/5/19 25/9/19 26/5/19
f 6/18/20 31/10/20 16/10/20
f 1/15/21 17/3/21 18/15/21
f 7/5/22 21/6/22 11/6/22
f 6/18/23 27/7/23 28/18/23
f 4/16/24 23/4/24 12/4/24
f 4/16/25 19/1/25 20/16/25
f 5/8/26 29/12/26 30/8/26
f 10/1/1 4/16/1 3/2/1
f 12/4/2 8/17/2 7/5/2
f 14/7/3 6/18/3 5/8/3
f 16/10/4 2/13/4 1/11/4
f 2/13/5 16/10/5 31/10/5
f 5/8/6 30/8/6 25/9/6
f 2/14/7 10/1/7 9/3/7
f 4/16/8 12/4/8 11/6/8
f 8/17/9 14/7/9 13/9/9
f 6/18/10 16/10/10 15/12/10
f 17/20/11 22/66/11 21/67/11
f 21/67/11 26/5/11 25/9/11
f 25/9/11 30/8/11 29/19/11
f 29/19/11 18/68/11 17/20/11
f 17/20/11 21/67/11 25/9/11
f 27/7/12 24/17/12 23/69/12
f 23/69/12 20/70/12 19/21/12
f 19/21/12 32/71/12 31/22/12
f 31/22/12 28/18/12 27/7/12
f 27/7/12 23/69/12 19/21/12
f 3/2/13 11/6/13 21/6/13
f 8/17/14 24/17/14 27/7/14
f 3/2/15 22/2/15 17/3/15
f 8/17/16 12/4/16 23/4/16
f 2/14/17 32/14/17 19/1/17
f 1/11/18 18/11/18 29/12/18
f 7/5/19 13/9/19 25/9/19
f 6/18/20 28/18/20 31/10/20
f 1/15/21 9/3/21 17/3/21
f 7/5/22 26/5/22 21/6/22
f 6/18/23 14/7/23 27/7/23
f 4/16/24 20/16/24 23/4/24
f 4/16/25 10/1/25 19/1/25
f 5/8/26 15/12/26 29/12/26
