# Blender 5.1.2
# www.blender.org
mtllib tank_1.mtl
o tank_1
v -1.226627 0.773378 -3.235403
v -1.226627 0.773377 3.235417
v -1.226627 3.226622 -3.235403
v -1.226627 3.226622 3.235417
v 1.226617 0.773378 -3.235403
v 1.226617 0.773377 3.235417
v 1.226617 3.226622 -3.235403
v 1.226617 3.226622 3.235417
v -1.839937 2.000000 -3.235403
v -1.839937 2.000000 3.235417
v -0.000005 3.839933 -3.235403
v -0.000005 3.839932 3.235417
v 1.839928 2.000000 -3.235403
v 1.839928 2.000000 3.235417
v -0.000005 0.160067 -3.235403
v -0.000005 0.160066 3.235417
v -1.124328 2.000000 -3.832498
v -0.749554 1.250453 -3.832498
v -1.124328 2.000000 3.832513
v -0.749554 2.749547 3.832513
v -0.000007 3.124321 -3.832498
v -0.749554 2.749548 -3.832498
v -0.000007 3.124321 3.832513
v 0.749540 2.749547 3.832513
v 1.124314 2.000000 -3.832498
v 0.749540 2.749548 -3.832498
v 1.124314 2.000000 3.832513
v 0.749540 1.250453 3.832513
v -0.000007 0.875679 -3.832498
v 0.749540 1.250453 -3.832498
v -0.000007 0.875679 3.832513
v -0.749554 1.250453 3.832513
v -1.540367 -0.500000 3.238825
v -1.540367 -0.500000 -3.238825
v 1.540367 -0.500000 3.238825
v 0.000000 -0.500000 -1.544571
v 1.540367 -0.500000 -3.238825
v -1.226627 0.773378 -1.545928
v 1.540367 -0.500000 -1.544571
v -1.540367 -0.500000 -1.544571
v 1.226617 0.773378 -1.553059
v -1.540367 -0.500000 1.544571
v 1.226617 0.773377 1.553074
v -1.226627 0.773377 1.545943
v 1.540367 -0.500000 1.544571
v -0.000005 0.160066 1.549508
v 0.000000 -0.500000 -3.238825
v -0.000005 0.160067 -1.549494
v 0.000000 -0.500000 1.544571
v 0.000000 -0.500000 3.238825
vn -0.8944 0.4472 -0.0000
vn 0.4472 0.8944 -0.0000
vn -0.8944 -0.4472 -0.0000
vn -0.3051 -0.6101 0.7312
vn 0.6101 -0.3051 -0.7312
vn 0.8944 -0.4472 -0.0000
vn -0.4472 0.8944 -0.0000
vn 0.8944 0.4472 -0.0000
vn -0.0000 -0.0000 -1.0000
vn -0.0000 -0.0000 1.0000
vn -0.3051 0.6101 -0.7312
vn 0.6101 0.3051 0.7312
vn -0.6101 0.3051 -0.7312
vn 0.3051 0.6101 0.7312
vn -0.6101 -0.3051 0.7312
vn -0.3051 -0.6101 -0.7312
vn 0.6101 0.3051 -0.7312
vn 0.3051 -0.6101 0.7312
vn -0.6101 -0.3051 -0.7312
vn 0.3051 0.6101 -0.7312
vn 0.6101 -0.3051 0.7312
vn -0.3051 0.6101 0.7312
vn -0.6101 0.3051 0.7312
vn 0.3051 -0.6101 -0.7312
vn -0.9710 0.2392 -0.0000
vn -0.0000 0.0052 -1.0000
vn 0.9710 0.2392 -0.0000
vn -0.0000 0.0052 1.0000
vn -0.0000 0.0075 1.0000
vn -0.0000 0.0075 -1.0000
vn 0.4472 -0.8944 -0.0000
vn -0.4472 -0.8944 -0.0000
vn -1.0000 -0.0000 -0.0000
vn -0.0012 0.0024 -1.0000
vn 0.0012 0.0024 1.0000
vn 0.0031 0.0003 1.0000
vn -0.0004 0.0066 -1.0000
vn -0.0004 0.0066 1.0000
vn 0.0012 0.0024 -1.0000
vn 0.0031 0.0003 -1.0000
vn -0.0012 0.0024 1.0000
vt 0.625000 0.125000
vt 0.375000 0.250000
vt 0.375000 0.125000
vt 0.625000 0.375000
vt 0.375000 0.500000
vt 0.375000 0.375000
vt 1.219635 1.878811
vt 1.822622 2.499716
vt 0.625000 1.000000
vt 0.625000 0.875000
vt 0.375000 0.750000
vt 0.375000 0.625000
vt 0.625000 0.625000
vt 0.625000 0.250000
vt 0.625000 0.500000
vt 0.250000 0.750000
vt 0.125000 0.625000
vt 0.875000 0.625000
vt 0.750000 0.750000
vt 0.625000 0.000000
vt 0.375000 1.000000
vt 0.375000 0.875000
vt 0.625000 0.750000
vt 0.375000 0.000000
vt 1.822623 1.878811
vt 1.219635 1.257906
vt 1.822623 1.257906
vt 1.255469 0.638691
vt 1.858457 0.019476
vt 1.858457 0.638691
vt 2.425611 1.257906
vt 2.425611 1.878811
vt 1.858457 0.638691
vt 2.461445 0.019476
vt 2.461445 0.638691
vt 1.219634 1.878811
vt 1.822623 1.878811
vt 2.425610 1.878811
vt 2.425610 2.499716
vt 0.013659 1.877121
vt 0.616647 1.257906
vt 0.616647 1.877121
vt 0.616647 1.877121
vt 1.219635 1.257906
vt 1.219635 1.877121
vt 0.616646 2.496336
vt 1.858457 1.257906
vt 1.219635 2.496336
vt 2.461445 1.257906
vt 1.219634 2.499716
vt 0.125000 0.500000
vt 0.250000 0.500000
vt 0.125000 0.750000
vt 0.750000 0.500000
vt 0.875000 0.500000
vt 0.875000 0.750000
vt 1.255469 0.019476
vt 1.858457 0.019476
vt 0.013659 1.257906
vt 0.616647 1.257906
vt 0.013659 2.496336
vt 1.255469 1.257906
vt 0.616647 2.496336
s 0
usemtl metal_wear_mid
f 40/25/25 1/26/25 34/27/25
f 15/28/26 37/29/26 47/30/26
f 43/25/27 35/31/27 45/32/27
f 16/33/28 33/34/28 50/35/28
f 37/8/27 41/36/27 39/37/27
f 2/8/25 42/38/25 33/39/25
f 48/40/29 40/41/29 36/42/29
f 46/43/30 45/44/30 49/45/30
f 39/46/29 48/40/29 36/42/29
f 34/47/26 15/28/26 47/30/26
f 42/48/30 46/43/30 49/45/30
f 35/49/28 16/33/28 50/35/28
f 40/25/25 38/7/25 1/26/25
f 15/28/34 5/57/34 37/29/34
f 43/25/27 6/27/27 35/31/27
f 16/33/35 2/58/35 33/34/35
f 37/8/27 5/50/27 41/36/27
f 2/8/25 44/25/25 42/38/25
f 48/40/36 38/59/36 40/41/36
f 46/43/37 43/60/37 45/44/37
f 39/46/38 41/61/38 48/40/38
f 34/47/39 1/62/39 15/28/39
f 42/48/40 44/63/40 46/43/40
f 35/49/41 6/47/41 16/33/41
usemtl no_texture
f 10/1/1 3/2/1 9/3/1
f 12/4/2 7/5/2 11/6/2
f 38/7/3 2/8/3 9/3/3
f 2/9/4 31/10/4 32/9/4
f 5/11/5 25/12/5 13/12/5
f 41/11/6 13/12/6 14/13/6
f 4/14/7 11/6/7 3/2/7
f 8/15/8 13/12/8 7/5/8
f 25/12/9 29/16/9 17/17/9
f 19/18/10 31/19/10 27/13/10
f 3/2/11 21/6/11 22/2/11
f 8/15/12 27/13/12 14/13/12
f 3/2/13 17/3/13 9/3/13
f 8/15/14 23/4/14 24/15/14
f 2/20/15 19/1/15 10/1/15
f 1/21/16 29/22/16 15/22/16
f 7/5/17 25/12/17 26/5/17
f 6/23/18 31/10/18 16/10/18
f 1/24/19 17/3/19 18/24/19
f 7/5/20 21/6/20 11/6/20
f 6/23/21 27/13/21 28/23/21
f 4/14/22 23/4/22 12/4/22
f 4/14/23 19/1/23 20/14/23
f 5/11/24 29/22/24 30/11/24
f 43/23/31 48/22/31 41/11/31
f 46/10/32 38/21/32 48/22/32
f 10/1/1 4/14/1 3/2/1
f 12/4/2 8/15/2 7/5/2
f 9/3/3 1/26/3 38/7/3
f 38/7/33 44/9/33 2/8/33
f 2/8/3 10/1/3 9/3/3
f 2/9/4 16/10/4 31/10/4
f 5/11/5 30/11/5 25/12/5
f 14/13/6 6/27/6 43/25/6
f 41/11/6 5/50/6 13/12/6
f 14/13/6 43/25/6 41/11/6
f 4/14/7 12/4/7 11/6/7
f 8/15/8 14/13/8 13/12/8
f 17/17/9 22/51/9 21/52/9
f 21/52/9 26/5/9 25/12/9
f 25/12/9 30/11/9 29/16/9
f 29/16/9 18/53/9 17/17/9
f 17/17/9 21/52/9 25/12/9
f 27/13/10 24/15/10 23/54/10
f 23/54/10 20/55/10 19/18/10
f 19/18/10 32/56/10 31/19/10
f 31/19/10 28/23/10 27/13/10
f 27/13/10 23/54/10 19/18/10
f 3/2/11 11/6/11 21/6/11
f 8/15/12 24/15/12 27/13/12
f 3/2/13 22/2/13 17/3/13
f 8/15/14 12/4/14 23/4/14
f 2/20/15 32/20/15 19/1/15
f 1/21/16 18/21/16 29/22/16
f 7/5/17 13/12/17 25/12/17
f 6/23/18 28/23/18 31/10/18
f 1/24/19 9/3/19 17/3/19
f 7/5/20 26/5/20 21/6/20
f 6/23/21 14/13/21 27/13/21
f 4/14/22 20/14/22 23/4/22
f 4/14/23 10/1/23 19/1/23
f 5/11/24 15/22/24 29/22/24
f 43/23/31 46/10/31 48/22/31
f 46/10/32 44/9/32 38/21/32
