# Blender 5.1.2
# www.blender.org
mtllib thing_0.mtl
o thing_0
v -2.000000 -1.000000 2.000000
v -2.000000 1.897047 0.897047
v -2.000000 -1.000000 -4.000000
v -2.000000 1.897047 -2.897048
v 2.000000 -1.000000 2.000000
v 2.000000 2.481365 1.456192
v 2.000000 -1.000000 -4.000000
v 2.000000 2.481365 -0.828733
v 2.000000 3.000000 -4.000000
v 2.000000 -0.481366 1.456192
v 2.000000 -0.481366 -0.828733
v 2.000000 3.000000 2.000000
v 2.776868 -0.481366 1.456192
v 2.776868 -0.481366 -0.828733
v 2.776868 2.481365 -0.828733
v 2.776868 2.481365 1.456192
v -2.000000 0.102953 -2.897048
v -2.000000 0.102953 0.897047
v -2.000000 3.000000 2.000000
v -2.000000 3.000000 -4.000000
vn -1.0000 -0.0000 -0.0000
vn -0.0000 -0.0000 -1.0000
vn -0.0000 1.0000 -0.0000
vn -0.0000 -0.0000 1.0000
vn 1.0000 -0.0000 -0.0000
vn -0.0000 -1.0000 -0.0000
vt 0.333657 1.000419
vt 0.667868 0.011245
vt 0.667868 1.000419
vt -0.014612 2.555560
vt 0.985604 1.555344
vt 0.985604 2.555560
vt 0.218776 0.961387
vt 0.656917 0.812420
vt 0.656917 0.961387
vt -0.019518 0.958218
vt 0.943399 -0.004699
vt 0.943399 0.958218
vt -1.514935 4.055884
vt -0.014611 5.056100
vt -1.514935 5.056100
vt 0.855918 0.762356
vt -0.014612 1.555344
vt 0.115075 0.762356
vt 0.985604 0.055020
vt -0.014612 0.055021
vt 0.115075 0.191002
vt 0.855917 0.191002
vt 0.218776 0.244308
vt 0.656917 0.244308
vt 0.805884 0.812420
vt 0.805884 0.244308
vt 0.069809 0.244308
vt 0.218776 0.812420
vt 0.069809 0.812420
vt 0.656917 0.095341
vt 0.218776 0.095341
vt 0.709807 3.780087
vt 0.985605 4.055884
vt -0.014611 4.055884
vt 0.261186 3.780087
vt 0.261186 2.831358
vt 0.709807 2.831357
vt 0.333657 0.011245
vt -0.019518 -0.004699
s 0
usemtl vents
f 2/1/1 17/2/1 18/3/1
f 2/1/1 4/38/1 17/2/1
usemtl fan
f 12/10/4 1/11/4 5/12/4
f 12/10/4 19/39/4 1/11/4
usemtl metal_wear_light
f 6/7/3 15/8/3 8/9/3
f 15/8/5 13/23/5 14/24/5
f 8/25/2 14/24/2 11/26/2
f 10/27/4 16/28/4 6/29/4
f 11/30/6 13/23/6 10/31/6
f 6/7/3 16/28/3 15/8/3
f 15/8/5 16/28/5 13/23/5
f 8/25/2 15/8/2 14/24/2
f 10/27/4 13/23/4 16/28/4
f 11/30/6 14/24/6 13/23/6
usemtl vent_fan_color
f 20/4/2 7/5/2 3/6/2
f 20/13/3 12/14/3 9/15/3
f 11/16/5 9/17/5 8/18/5
f 11/16/5 5/19/5 7/5/5
f 8/18/5 12/20/5 6/21/5
f 6/21/5 5/19/5 10/22/5
f 18/32/1 3/6/1 1/33/1
f 18/32/1 19/34/1 2/35/1
f 4/36/1 19/34/1 20/4/1
f 4/36/1 3/6/1 17/37/1
f 20/4/2 9/17/2 7/5/2
f 20/13/3 19/34/3 12/14/3
f 11/16/5 7/5/5 9/17/5
f 11/16/5 10/22/5 5/19/5
f 8/18/5 9/17/5 12/20/5
f 6/21/5 12/20/5 5/19/5
f 18/32/1 17/37/1 3/6/1
f 18/32/1 1/33/1 19/34/1
f 4/36/1 2/35/1 19/34/1
f 4/36/1 20/4/1 3/6/1
