# Blender 5.1.2
# www.blender.org
mtllib tower_0.mtl
o tower_0
v -1.314152 -1.000000 1.314152
v -1.000000 25.000000 1.000000
v -1.314152 -1.000000 -1.314152
v -1.000000 25.000000 -1.000000
v 1.314152 -1.000000 1.314152
v 1.000000 25.000000 1.000000
v 1.314152 -1.000000 -1.314152
v 1.000000 25.000000 -1.000000
v -1.971228 -1.000000 0.000000
v -1.500000 25.000000 0.000000
v 1.971228 -1.000000 0.000000
v 1.500000 25.000000 0.000000
v -0.200000 26.118429 -0.200000
v 0.200000 26.118429 -0.200000
v 0.200000 26.118429 0.200000
v -0.200000 26.118429 0.200000
v -1.000000 12.000000 1.000000
v -1.000000 12.000000 -1.000000
v 1.000000 12.000000 -1.000000
v 1.000000 12.000000 1.000000
v -1.500000 12.000000 0.000000
v 1.500000 12.000000 0.000000
v -0.736661 26.118429 0.000000
v -0.491108 26.118429 -0.491108
v 0.736661 26.118429 0.000000
v 0.491108 26.118429 0.491108
v -0.491108 26.118429 0.491108
v 0.491108 26.118429 -0.491108
v -0.200000 35.000000 0.200000
v -0.200000 35.000000 -0.200000
v 0.200000 35.000000 0.200000
v 0.200000 35.000000 -0.200000
vn -0.8944 -0.0000 -0.4472
vn -0.0000 0.0242 -0.9997
vn 0.7634 0.5210 -0.3817
vn 0.8944 -0.0000 0.4472
vn -0.0000 0.4142 0.9102
vn -0.8944 -0.0000 0.4472
vn 0.8944 -0.0000 -0.4472
vn 1.0000 -0.0000 -0.0000
vn -0.7634 0.5210 -0.3817
vn -0.0000 0.0242 0.9997
vn -0.7634 0.5210 0.3817
vn 0.7634 0.5210 0.3817
vn -0.0000 0.4142 -0.9102
vn -0.0000 -0.0000 1.0000
vn 0.8940 0.0324 -0.4470
vn -0.8940 0.0324 0.4470
vn 0.8940 0.0324 0.4470
vn -0.0000 -0.0000 -1.0000
vn -0.8940 0.0324 -0.4470
vn -0.0000 1.0000 -0.0000
vn -1.0000 -0.0000 -0.0000
vt 0.720303 2.473183
vt 0.630748 1.260449
vt 0.734938 1.261707
vt 0.553183 0.061508
vt 0.629115 1.290123
vt 0.443939 1.268847
vt 0.357219 2.616180
vt 0.215441 2.608993
vt 0.308697 2.523970
vt 0.325542 2.468415
vt 0.235987 1.255680
vt 0.340177 1.256938
vt 0.221351 2.467156
vt 0.081011 2.579986
vt 0.034971 2.464904
vt 0.824493 2.474442
vt 0.839129 1.262966
vt 0.429732 2.469673
vt 0.444367 1.258197
vt 0.717885 0.020818
vt 0.582581 0.946810
vt 0.582581 0.020818
vt 0.342283 2.801976
vt 0.201177 2.786421
vt 0.231935 2.745524
vt 0.034970 0.041245
vt 0.049606 1.253428
vt 0.184354 2.927382
vt 0.279654 2.885251
vt 0.172544 2.581092
vt 0.239270 2.654279
vt 0.340070 1.260579
vt 0.416683 0.050642
vt 1.066617 0.134592
vt 0.732153 1.305627
vt 0.931940 0.109841
vt 0.279903 0.044204
vt 0.616113 2.471925
vt 0.796533 0.089467
vt 1.131026 0.956277
vt 1.112387 1.006292
vt 1.093747 0.956277
vt 1.066617 0.891868
vt 1.093747 0.918998
vt 1.131026 0.918998
vt 1.158157 0.983407
vt 1.066617 0.983407
vt 1.158157 0.891868
vt 1.112387 0.868983
vt 0.267589 0.976107
vt 0.132284 0.934403
vt 0.267589 0.934403
vt 0.447276 0.020818
vt 0.311972 0.946810
vt 0.311972 0.020818
vt 0.853190 0.020818
vt 0.717885 0.946810
vt 0.447276 0.946810
vt 0.154374 2.807112
vt 0.834634 1.324460
vt 0.132284 0.976107
vt 0.853190 0.946810
s 0
usemtl concrete_dark
f 10/1/1 18/2/1 21/3/1
f 7/4/2 18/5/2 19/6/2
f 8/7/3 25/8/3 12/9/3
f 12/10/4 20/11/4 22/12/4
f 6/13/5 27/14/5 2/15/5
f 2/16/6 21/3/6 17/17/6
f 8/18/7 22/12/7 19/19/7
f 4/23/9 23/24/9 24/25/9
f 1/26/10 20/11/10 17/27/10
f 2/28/11 23/24/11 10/29/11
f 6/13/12 25/8/12 26/30/12
f 4/23/13 28/31/13 8/7/13
f 17/27/14 6/13/14 2/15/14
f 7/4/15 22/32/15 11/33/15
f 1/34/16 21/35/16 9/36/16
f 22/32/17 5/37/17 11/33/17
f 19/19/18 4/38/18 8/18/18
f 21/35/19 3/39/19 9/36/19
f 13/40/20 23/41/20 16/42/20
f 16/42/20 26/43/20 15/44/20
f 14/45/20 24/46/20 13/40/20
f 27/47/20 16/42/20 23/41/20
f 23/41/20 13/40/20 24/46/20
f 28/48/20 14/45/20 25/49/20
f 26/43/20 25/49/20 15/44/20
f 15/44/20 25/49/20 14/45/20
f 10/1/1 4/38/1 18/2/1
f 7/4/2 3/39/2 18/5/2
f 8/7/3 28/31/3 25/8/3
f 12/10/4 6/13/4 20/11/4
f 6/13/5 26/30/5 27/14/5
f 2/16/6 10/1/6 21/3/6
f 8/18/7 12/10/7 22/12/7
f 4/23/9 10/29/9 23/24/9
f 1/26/10 5/37/10 20/11/10
f 2/28/11 27/59/11 23/24/11
f 6/13/12 12/9/12 25/8/12
f 4/23/13 24/25/13 28/31/13
f 17/27/14 20/11/14 6/13/14
f 7/4/15 19/6/15 22/32/15
f 1/34/16 17/60/16 21/35/16
f 22/32/17 20/11/17 5/37/17
f 19/19/18 18/2/18 4/38/18
f 21/35/19 18/5/19 3/39/19
f 16/42/20 27/47/20 26/43/20
f 14/45/20 28/48/20 24/46/20
usemtl antenna
f 14/20/8 31/21/8 15/22/8
f 29/50/20 32/51/20 30/52/20
f 16/53/21 30/54/21 13/55/21
f 13/56/18 32/57/18 14/20/18
f 15/22/14 29/58/14 16/53/14
f 14/20/8 32/57/8 31/21/8
f 29/50/20 31/61/20 32/51/20
f 16/53/21 29/58/21 30/54/21
f 13/56/18 30/62/18 32/57/18
f 15/22/14 31/21/14 29/58/14
