# Blender 5.1.2
# www.blender.org
mtllib tower_2.mtl
o tower_2
v -1.000000 -1.000000 1.000000
v -0.599277 1.000000 0.599277
v -1.000000 -1.000000 -1.000000
v -0.599277 1.000000 -0.599277
v 1.000000 -1.000000 1.000000
v 0.599277 1.000000 0.599277
v 1.000000 -1.000000 -1.000000
v 0.599277 1.000000 -0.599277
v -0.304949 15.000000 0.304949
v -0.304949 15.000000 -0.304949
v 0.304949 15.000000 -0.304949
v 0.304949 15.000000 0.304949
vn -0.9805 0.1965 -0.0000
vn -0.0000 0.1965 -0.9805
vn 0.9805 0.1965 -0.0000
vn -0.0000 0.1965 0.9805
vn -0.9998 0.0210 -0.0000
vn -0.0000 1.0000 -0.0000
vn -0.0000 0.0210 0.9998
vn -0.0000 0.0210 -0.9998
vn 0.9998 0.0210 -0.0000
vt 0.622141 1.450348
vt -0.344014 1.748980
vt -0.065367 1.020128
vt 1.834275 0.894897
vt 1.177673 0.125800
vt 1.957295 0.093260
vt 1.367066 0.914397
vt 0.468305 0.450862
vt 0.941958 1.109199
vt 0.437166 1.012172
vt 1.001828 6.457665
vt -0.023882 1.090274
vt 1.947372 6.358245
vt 1.719551 6.605913
vt 1.709628 6.368169
vt 0.901088 0.953512
vt 1.236438 6.417923
vt 1.472510 6.388072
vt 0.455154 1.887132
vt 1.957295 6.595990
s 0
usemtl concrete
f 2/1/1 3/2/1 1/3/1
f 4/4/2 7/5/2 3/6/2
f 8/7/3 5/8/3 7/5/3
f 6/9/4 1/3/4 5/8/4
f 2/10/5 10/11/5 4/12/5
f 10/13/6 12/14/6 11/15/6
f 6/16/7 9/17/7 2/10/7
f 4/4/8 11/15/8 8/7/8
f 8/7/9 12/18/9 6/16/9
f 2/1/1 4/19/1 3/2/1
f 4/4/2 8/7/2 7/5/2
f 8/7/3 6/9/3 5/8/3
f 6/9/4 2/1/4 1/3/4
f 2/10/5 9/17/5 10/11/5
f 10/13/6 9/20/6 12/14/6
f 6/16/7 12/18/7 9/17/7
f 4/4/8 10/13/8 11/15/8
f 8/7/9 11/15/9 12/18/9
