# Blender 5.1.2
# www.blender.org
mtllib tree_0.mtl
o tree_0
v 0.084506 -0.038832 0.310796
v -0.270077 -0.038832 -0.054496
v 0.189680 -0.038903 -0.261595
v -0.243984 1.666517 0.145649
v -0.244021 1.666517 -0.143649
v 0.045278 1.666517 0.145649
v 0.045314 1.666517 -0.143649
v -0.303918 1.666517 0.001024
v 0.105212 1.666517 0.001024
v -0.099353 1.666517 -0.203583
v -0.099353 1.666517 0.205546
v -0.285811 1.666517 -0.083161
v 0.087105 1.666517 -0.083161
v 0.087214 1.666517 0.084884
v -0.285920 1.666517 0.084884
v -0.183204 1.666517 0.187571
v -0.183236 1.666517 -0.185594
v -0.015470 1.666517 -0.185594
v -0.015502 1.666517 0.187571
v -0.768226 2.787040 0.130597
v -0.768254 2.787040 -0.090596
v -0.547062 2.787040 0.130597
v -0.547034 2.787040 -0.090596
v -0.814051 2.787040 0.020019
v -0.501237 2.787040 0.020019
v -0.657644 2.787040 -0.136420
v -0.657644 2.787040 0.176393
v -0.800207 2.787040 -0.044347
v -0.515081 2.787040 -0.044347
v -0.514998 2.787040 0.084137
v -0.800290 2.787040 0.084137
v -0.721755 2.787040 0.162650
v -0.721779 2.787040 -0.122666
v -0.593508 2.787040 -0.122666
v -0.593533 2.787040 0.162650
v 0.497716 2.821669 0.088695
v 0.497694 2.821669 -0.086725
v 0.673114 2.821669 0.088695
v 0.673136 2.821669 -0.086725
v 0.461374 2.821669 0.000999
v 0.709456 2.821669 0.000999
v 0.585415 2.821669 -0.123067
v 0.585415 2.821669 0.125014
v 0.472353 2.821669 -0.050048
v 0.698477 2.821669 -0.050048
v 0.698542 2.821669 0.051849
v 0.472288 2.821669 0.051849
v 0.534571 2.821669 0.114115
v 0.534552 2.821669 -0.112159
v 0.636279 2.821669 -0.112159
v 0.636259 2.821669 0.114115
v 1.353677 3.683698 -0.006977
v 1.278909 3.676080 -0.004831
v 1.298739 3.684248 0.044270
v 0.134525 3.552320 0.299512
v 0.224528 3.550656 0.283285
v 0.192705 3.548117 0.236155
v -0.678947 3.570905 0.456124
v -0.633357 3.569794 0.450772
v -0.651644 3.572656 0.524076
v -1.223536 3.631334 -0.663516
v -1.162636 3.624610 -0.609397
v -1.207457 3.631181 -0.577122
v -0.963386 3.100679 -0.252938
v -0.363082 2.672049 -0.095026
v -0.695966 3.219031 -0.948283
v -0.095663 2.790401 -0.790370
v -0.963386 3.100679 -0.252938
v -0.363082 2.672049 -0.095026
v -0.695966 3.219031 -0.948283
v -0.095663 2.790401 -0.790370
v -0.639490 3.133850 -0.090887
v -1.294544 3.309470 -0.421170
v -0.938797 3.287281 0.584316
v -1.593851 3.462901 0.254033
v -0.639490 3.133850 -0.090888
v -1.294544 3.309470 -0.421170
v -0.938797 3.287280 0.584316
v -1.593851 3.462901 0.254033
v -1.152284 3.624734 -0.276051
v -1.305067 3.589629 -1.013919
v -1.624221 4.209037 -0.206130
v -1.777005 4.173933 -0.943998
v -1.152284 3.624733 -0.276051
v -1.305067 3.589629 -1.013919
v -1.624222 4.209037 -0.206130
v -1.777005 4.173933 -0.943998
v -1.224909 3.254131 -0.142431
v -0.781169 3.344607 -0.745700
v -1.834923 3.321707 -0.580998
v -1.391183 3.412184 -1.184267
v -1.224909 3.254130 -0.142431
v -0.781169 3.344607 -0.745700
v -1.834923 3.321707 -0.580998
v -1.391183 3.412184 -1.184267
v -0.401786 3.254131 0.058465
v -0.845526 3.344607 0.661734
v 0.208228 3.321707 0.497032
v -0.235512 3.412184 1.100301
v -0.401787 3.254130 0.058465
v -0.845526 3.344607 0.661734
v 0.208228 3.321707 0.497032
v -0.235512 3.412184 1.100301
v -0.416662 3.461555 0.220998
v -0.936015 3.597967 0.750797
v 0.007819 4.022879 0.492581
v -0.511535 4.159291 1.022381
v -0.416662 3.461555 0.220998
v -0.936015 3.597967 0.750797
v 0.007819 4.022879 0.492581
v -0.511535 4.159291 1.022381
v -0.301585 3.594087 0.618552
v -0.916734 3.260698 0.336652
v -0.701215 3.827909 1.214075
v -1.316364 3.494520 0.932175
v -0.301585 3.594086 0.618552
v -0.916734 3.260698 0.336652
v -0.701215 3.827909 1.214075
v -1.316364 3.494520 0.932175
v -0.916094 3.231002 0.084516
v -0.297664 3.416777 0.474460
v -0.689875 3.671830 -0.484272
v -0.071445 3.857606 -0.094328
v -0.916093 3.231001 0.084516
v -0.297664 3.416777 0.474460
v -0.689875 3.671830 -0.484272
v -0.071445 3.857606 -0.094328
v 0.255999 3.178255 -0.169565
v 0.502966 3.418980 0.501318
v 0.804605 3.567343 -0.511130
v 1.051571 3.808069 0.159753
v 0.256000 3.178254 -0.169565
v 0.502966 3.418980 0.501318
v 0.804605 3.567343 -0.511130
v 1.051571 3.808069 0.159753
v 0.099923 3.311245 0.487265
v 0.473970 3.300273 -0.167710
v -0.465818 3.686051 0.157899
v -0.091771 3.675079 -0.497076
v 0.099923 3.311244 0.487265
v 0.473970 3.300273 -0.167710
v -0.465818 3.686051 0.157899
v -0.091771 3.675079 -0.497076
v 0.136042 3.567524 0.618594
v 0.480926 3.418259 -0.035470
v -0.071896 4.242952 0.354808
v 0.272987 4.093688 -0.299256
v 0.136042 3.567524 0.618593
v 0.480926 3.418259 -0.035470
v -0.071897 4.242953 0.354808
v 0.272987 4.093688 -0.299256
v 1.180895 3.629749 0.332114
v 1.359187 3.530094 -0.394045
v 1.902313 3.785734 0.487835
v 2.080606 3.686079 -0.238323
v 1.180894 3.629750 0.332113
v 1.359187 3.530094 -0.394045
v 1.902313 3.785734 0.487835
v 2.080606 3.686079 -0.238323
v 1.296917 3.216173 0.140680
v 0.691982 3.404536 -0.268707
v 1.648899 2.985752 -0.485451
v 1.043964 3.174114 -0.894838
v 1.296917 3.216174 0.140680
v 0.691982 3.404536 -0.268707
v 1.648899 2.985752 -0.485451
v 1.043964 3.174114 -0.894838
v 0.907194 3.450471 -0.272644
v 1.178167 3.330140 0.420983
v 0.614999 4.107439 -0.044523
v 0.885971 3.987109 0.649104
v 0.907195 3.450471 -0.272644
v 1.178167 3.330140 0.420983
v 0.614998 4.107440 -0.044523
v 0.885971 3.987109 0.649104
v 0.234092 2.810622 -0.017754
v 0.968789 2.823219 0.152794
v 0.063353 2.907182 0.710634
v 0.798050 2.919778 0.881183
v 0.234092 2.810623 -0.017754
v 0.968789 2.823219 0.152794
v 0.063353 2.907182 0.710634
v 0.798050 2.919778 0.881183
v 0.158205 3.062643 -0.102841
v 0.713999 2.874861 0.371348
v -0.229687 3.362378 0.470503
v 0.326107 3.174595 0.944693
v 0.158206 3.062644 -0.102841
v 0.713999 2.874861 0.371348
v -0.229687 3.362378 0.470503
v 0.326107 3.174595 0.944693
v -0.661478 2.178231 0.111600
v 0.067219 2.286815 0.273571
v -0.854705 2.496020 0.767875
v -0.126008 2.604604 0.929847
v -0.661477 2.178231 0.111599
v 0.067219 2.286815 0.273571
v -0.854706 2.496020 0.767875
v -0.126008 2.604604 0.929847
v -0.092509 2.458229 0.085230
v -0.629843 2.133260 -0.332731
v 0.279859 2.649579 -0.542266
v -0.257475 2.324609 -0.960228
v -0.092510 2.458230 0.085231
v -0.629843 2.133260 -0.332731
v 0.279859 2.649578 -0.542266
v -0.257475 2.324609 -0.960228
v 0.591147 2.560449 0.253987
v 0.288110 2.171376 -0.316816
v 1.185952 2.730454 -0.177673
v 0.882916 2.341381 -0.748476
v 0.591146 2.560449 0.253987
v 0.288110 2.171376 -0.316816
v 1.185953 2.730454 -0.177673
v 0.882916 2.341381 -0.748476
v -0.019245 2.211045 0.188574
v 0.706545 2.156039 -0.009487
v 0.184028 2.295031 0.910136
v 0.909818 2.240024 0.712076
v -0.019245 2.211046 0.188574
v 0.706545 2.156039 -0.009487
v 0.184028 2.295030 0.910137
v 0.909818 2.240024 0.712076
v -0.527175 1.892634 -0.272426
v -0.247812 1.972070 0.423757
v -1.211372 2.085262 -0.019852
v -0.932010 2.164698 0.676332
v -0.527174 1.892635 -0.272426
v -0.247812 1.972070 0.423757
v -1.211372 2.085262 -0.019852
v -0.932010 2.164698 0.676332
v 0.581981 3.069535 0.387747
v 0.862577 2.726607 -0.222737
v 1.276622 3.288625 0.583955
v 1.557220 2.945697 -0.026530
v 0.581980 3.069535 0.387746
v 0.862577 2.726607 -0.222737
v 1.276623 3.288625 0.583955
v 1.557220 2.945697 -0.026530
v 0.184904 2.764108 0.016888
v 0.781710 2.319876 0.141408
v 0.194769 2.979945 0.739620
v 0.791575 2.535714 0.864141
v 0.184904 2.764108 0.016887
v 0.781710 2.319876 0.141408
v 0.194768 2.979945 0.739620
v 0.791575 2.535714 0.864141
v -0.084554 2.267977 -0.209274
v -0.635694 1.826775 0.056451
v -0.494289 2.407758 -0.827015
v -1.045429 1.966556 -0.561291
v -0.084554 2.267977 -0.209274
v -0.635694 1.826775 0.056451
v -0.494288 2.407758 -0.827016
v -1.045429 1.966556 -0.561291
v -0.260474 2.590647 -0.031084
v -0.957292 2.319669 0.069122
v -0.479619 2.915890 -0.675458
v -1.176437 2.644913 -0.575253
v -0.260475 2.590647 -0.031084
v -0.957292 2.319669 0.069122
v -0.479619 2.915890 -0.675458
v -1.176437 2.644913 -0.575253
v -0.910827 2.465271 0.016389
v -0.326554 2.776623 0.377927
v -1.377251 2.958380 0.345507
v -0.792978 3.269732 0.707046
v -0.910827 2.465271 0.016388
v -0.326554 2.776623 0.377927
v -1.377251 2.958380 0.345507
v -0.792978 3.269732 0.707046
v -1.047633 3.752246 -0.261221
v -1.203768 3.282597 -0.830499
v -0.557929 4.121634 -0.700275
v -0.714064 3.651985 -1.269553
v -1.047633 3.752246 -0.261221
v -1.203768 3.282597 -0.830499
v -0.557928 4.121634 -0.700275
v -0.714064 3.651985 -1.269553
v -0.491586 3.132427 0.249496
v -0.647721 2.662777 -0.319781
v -0.001882 3.501814 -0.189558
v -0.158017 3.032166 -0.758835
v -0.491586 3.132427 0.249496
v -0.647721 2.662777 -0.319781
v -0.001881 3.501814 -0.189557
v -0.158017 3.032166 -0.758835
v 0.841368 3.004035 -0.188501
v 0.196822 2.796341 0.143838
v 0.449501 3.353985 -0.729796
v -0.195045 3.146292 -0.397458
v 0.841368 3.004035 -0.188500
v 0.196822 2.796341 0.143838
v 0.449502 3.353985 -0.729796
v -0.195045 3.146292 -0.397458
v -1.241339 2.990092 -0.004175
v -0.221120 2.261632 0.264198
v -0.786858 3.191232 -1.185917
v 0.233361 2.462772 -0.917544
v -1.241339 2.990092 -0.004175
v -0.221120 2.261632 0.264198
v -0.786859 3.191232 -1.185918
v 0.233361 2.462772 -0.917544
v -0.280164 2.799656 -0.150730
v -1.393433 3.098124 -0.712047
v -0.788838 3.060412 0.996782
v -1.902107 3.358879 0.435465
v -0.280165 2.799655 -0.150730
v -1.393433 3.098124 -0.712047
v -0.788838 3.060411 0.996782
v -1.902107 3.358879 0.435465
v -0.908250 3.213542 0.018361
v -1.167907 3.153881 -1.235651
v -1.710311 4.206569 0.137192
v -1.969968 4.146909 -1.116820
v -0.908251 3.213541 0.018360
v -1.167907 3.153882 -1.235651
v -1.710312 4.206569 0.137192
v -1.969968 4.146909 -1.116820
v -1.141219 2.979744 0.282749
v -0.387080 3.133509 -0.742510
v -2.177942 3.094590 -0.462598
v -1.423803 3.248355 -1.487858
v -1.141218 2.979743 0.282749
v -0.387080 3.133509 -0.742510
v -2.177942 3.094589 -0.462598
v -1.423803 3.248355 -1.487858
v -0.434406 2.979744 -0.245126
v -1.188545 3.133509 0.780134
v 0.602317 3.094590 0.500221
v -0.151822 3.248355 1.525481
v -0.434407 2.979743 -0.245126
v -1.188545 3.133509 0.780134
v 0.602317 3.094589 0.500221
v -0.151822 3.248355 1.525481
v -0.357944 2.998413 0.001506
v -1.240589 3.230246 0.901904
v 0.363463 3.952385 0.463063
v -0.519183 4.184218 1.363461
v -0.357944 2.998412 0.001507
v -1.240589 3.230246 0.901904
v 0.363463 3.952385 0.463063
v -0.519183 4.184218 1.363461
v 0.078873 3.409803 0.569656
v -0.966578 2.843207 0.090565
v -0.600301 3.807185 1.581751
v -1.645752 3.240588 1.102660
v 0.078873 3.409802 0.569656
v -0.966578 2.843207 0.090564
v -0.600301 3.807184 1.581751
v -1.645752 3.240589 1.102660
v -1.185978 2.792737 0.207861
v -0.134952 3.108464 0.870574
v -0.801517 3.541928 -0.758797
v 0.249509 3.857655 -0.096084
v -1.185977 2.792736 0.207862
v -0.134952 3.108464 0.870574
v -0.801516 3.541928 -0.758797
v 0.249509 3.857655 -0.096084
v 0.003281 2.738868 -0.223950
v 0.423002 3.147981 0.916219
v 0.935639 3.400126 -0.804442
v 1.355360 3.809240 0.335727
v 0.003281 2.738866 -0.223950
v 0.423002 3.147981 0.916219
v 0.935639 3.400126 -0.804442
v 1.355360 3.809241 0.335727
v 0.192504 2.964885 0.892337
v 0.828199 2.946238 -0.220798
v -0.768977 3.601870 0.332577
v -0.133282 3.583223 -0.780559
v 0.192504 2.964884 0.892336
v 0.828199 2.946238 -0.220798
v -0.768977 3.601870 0.332577
v -0.133281 3.583223 -0.780559
v 0.113679 3.164389 1.000409
v 0.699812 2.910712 -0.111177
v -0.239712 4.312284 0.552104
v 0.346420 4.058608 -0.559482
v 0.113679 3.164388 1.000409
v 0.699812 2.910712 -0.111177
v -0.239713 4.312284 0.552104
v 0.346420 4.058608 -0.559482
v 0.891753 3.390939 0.592420
v 1.194762 3.221575 -0.641690
v 2.117808 3.656036 0.857069
v 2.420817 3.486672 -0.377041
v 0.891753 3.390940 0.592420
v 1.194762 3.221575 -0.641690
v 2.117808 3.656036 0.857070
v 2.420817 3.486672 -0.377041
v 1.410923 3.011776 0.563650
v 0.382832 3.331899 -0.132106
v 2.009119 2.620174 -0.500462
v 0.981028 2.940296 -1.196219
v 1.410923 3.011777 0.563650
v 0.382832 3.331899 -0.132106
v 2.009120 2.620173 -0.500463
v 0.981028 2.940296 -1.196219
v 0.940151 3.043673 -0.534234
v 1.400672 2.839170 0.644590
v 0.443564 4.160194 -0.146541
v 0.904084 3.955692 1.032284
v 0.940153 3.043673 -0.534234
v 1.400672 2.839170 0.644590
v 0.443563 4.160195 -0.146541
v 0.904084 3.955692 1.032284
v 0.062381 2.553336 -0.271365
v 1.311003 2.574745 0.018483
v -0.227791 2.717440 0.966534
v 1.020831 2.738848 1.256384
v 0.062381 2.553337 -0.271366
v 1.311003 2.574744 0.018483
v -0.227791 2.717440 0.966535
v 1.020831 2.738848 1.256384
v 0.125016 2.804380 -0.408424
v 1.069592 2.485242 0.397463
v -0.534209 3.313781 0.565977
v 0.410366 2.994642 1.371866
v 0.125017 2.804381 -0.408425
v 1.069592 2.485242 0.397463
v -0.534210 3.313780 0.565978
v 0.410366 2.994642 1.371866
v -0.823225 1.809997 -0.113790
v 0.415200 1.994537 0.161481
v -1.151617 2.350082 1.001554
v 0.086809 2.534622 1.276827
v -0.823224 1.809998 -0.113791
v 0.415200 1.994537 0.161481
v -1.151617 2.350082 1.001554
v 0.086809 2.534622 1.276827
v -0.009277 2.285855 0.511677
v -0.922480 1.733567 -0.198650
v 0.623565 2.611055 -0.554757
v -0.289637 2.058767 -1.265086
v -0.009278 2.285856 0.511678
v -0.922480 1.733567 -0.198650
v 0.623566 2.611054 -0.554757
v -0.289637 2.058767 -1.265086
v 0.514635 2.417961 0.665396
v -0.000378 1.756729 -0.304687
v 1.525510 2.706886 -0.068212
v 1.010498 2.045653 -1.038296
v 0.514634 2.417961 0.665396
v -0.000378 1.756729 -0.304687
v 1.525511 2.706885 -0.068212
v 1.010498 2.045653 -1.038296
v -0.318653 1.981802 0.066273
v 0.914832 1.888318 -0.270334
v 0.026811 2.124536 1.292571
v 1.260296 2.031052 0.955967
v -0.318653 1.981803 0.066272
v 0.914832 1.888318 -0.270334
v 0.026811 2.124535 1.292572
v 1.260296 2.031052 0.955967
v -0.360048 1.578372 -0.543463
v 0.114732 1.713373 0.639705
v -1.522845 1.905743 -0.114211
v -1.048067 2.040745 1.068958
v -0.360047 1.578372 -0.543463
v 0.114732 1.713373 0.639705
v -1.522846 1.905743 -0.114211
v -1.048067 2.040745 1.068958
v 0.266423 2.893740 0.593436
v 0.743298 2.310931 -0.444086
v 1.446971 3.266084 0.926892
v 1.923848 2.683277 -0.110630
v 0.266422 2.893740 0.593435
v 0.743298 2.310932 -0.444086
v 1.446972 3.266084 0.926893
v 1.923848 2.683277 -0.110630
v -0.001746 2.624882 -0.218647
v 1.012530 1.869907 -0.007024
v 0.015019 2.991699 1.009641
v 1.029296 2.236725 1.221266
v -0.001745 2.624882 -0.218648
v 1.012530 1.869907 -0.007024
v 0.015019 2.991699 1.009642
v 1.029296 2.236725 1.221266
v 0.277051 2.154293 -0.025361
v -0.659615 1.404466 0.426241
v -0.419297 2.391851 -1.075215
v -1.355964 1.642025 -0.623615
v 0.277050 2.154293 -0.025360
v -0.659615 1.404466 0.426241
v -0.419296 2.391850 -1.075216
v -1.355964 1.642025 -0.623615
v 0.085422 2.352559 0.220035
v -1.098825 1.892031 0.390335
v -0.287017 2.905313 -0.875082
v -1.471263 2.444785 -0.704783
v 0.085421 2.352560 0.220036
v -1.098825 1.892031 0.390335
v -0.287016 2.905312 -0.875083
v -1.471263 2.444785 -0.704784
v -0.926511 1.964801 -0.164376
v 0.066465 2.493945 0.450061
v -1.719200 2.802842 0.394962
v -0.726225 3.331987 1.009400
v -0.926510 1.964801 -0.164377
v 0.066465 2.493945 0.450061
v -1.719201 2.802842 0.394962
v -0.726225 3.331987 1.009400
v -1.138764 3.568205 0.152240
v -1.404117 2.770033 -0.815250
v -0.306510 4.195982 -0.593935
v -0.571862 3.397810 -1.561426
v -1.138765 3.568205 0.152240
v -1.404118 2.770033 -0.815250
v -0.306509 4.195982 -0.593934
v -0.571862 3.397810 -1.561426
v -0.582717 2.948386 0.662958
v -0.848070 2.150214 -0.304532
v 0.249537 3.576162 -0.083217
v -0.015815 2.777992 -1.050708
v -0.582718 2.948386 0.662958
v -0.848070 2.150214 -0.304532
v 0.249538 3.576162 -0.083216
v -0.015815 2.777992 -1.050708
v 1.229393 2.735172 -0.054623
v 0.133982 2.382195 0.510189
v 0.563412 3.329915 -0.974557
v -0.531999 2.976939 -0.409747
v 1.229392 2.735172 -0.054622
v 0.133982 2.382195 0.510189
v 0.563412 3.329914 -0.974558
v -0.531999 2.976939 -0.409747
v -1.263159 3.154879 -0.237071
v -0.242939 2.426420 0.031302
v -0.808678 3.356019 -1.418814
v 0.211542 2.627559 -1.150441
v -1.263159 3.154879 -0.237071
v -0.242939 2.426420 0.031302
v -0.808678 3.356019 -1.418814
v 0.211542 2.627560 -1.150441
v -0.301984 2.964443 -0.383626
v -1.415252 3.262911 -0.944943
v -0.810657 3.225199 0.763885
v -1.923926 3.523666 0.202569
v -0.301984 2.964443 -0.383627
v -1.415252 3.262911 -0.944943
v -0.810657 3.225199 0.763886
v -1.923926 3.523667 0.202569
v -0.930070 3.378329 -0.214536
v -1.189726 3.318669 -1.468548
v -1.732131 4.371356 -0.095705
v -1.991788 4.311696 -1.349717
v -0.930070 3.378329 -0.214536
v -1.189726 3.318669 -1.468548
v -1.732131 4.371356 -0.095704
v -1.991788 4.311697 -1.349717
v -1.163038 3.144531 0.049853
v -0.408900 3.298296 -0.975406
v -2.199761 3.259377 -0.695494
v -1.445622 3.413142 -1.720754
v -1.163038 3.144530 0.049853
v -0.408900 3.298296 -0.975406
v -2.199761 3.259377 -0.695494
v -1.445622 3.413142 -1.720754
v -0.456225 3.144531 -0.478022
v -1.210364 3.298296 0.547237
v 0.580497 3.259377 0.267325
v -0.173642 3.413142 1.292585
v -0.456226 3.144530 -0.478022
v -1.210364 3.298296 0.547237
v 0.580498 3.259377 0.267325
v -0.173642 3.413142 1.292585
v -0.379763 3.163200 -0.231390
v -1.262409 3.395033 0.669008
v 0.341643 4.117172 0.230167
v -0.541002 4.349006 1.130565
v -0.379764 3.163199 -0.231390
v -1.262409 3.395033 0.669008
v 0.341644 4.117172 0.230167
v -0.541002 4.349006 1.130565
v 0.057053 3.574590 0.336759
v -0.988397 3.007994 -0.142332
v -0.622120 3.971972 1.348854
v -1.667571 3.405375 0.869764
v 0.057053 3.574589 0.336759
v -0.988397 3.007994 -0.142332
v -0.622120 3.971972 1.348855
v -1.667571 3.405376 0.869763
v -1.207797 2.957525 -0.025035
v -0.156772 3.273251 0.637678
v -0.823336 3.706715 -0.991693
v 0.227690 4.022442 -0.328981
v -1.207796 2.957524 -0.025035
v -0.156772 3.273251 0.637678
v -0.823336 3.706715 -0.991694
v 0.227690 4.022442 -0.328981
v -0.018539 2.903655 -0.456847
v 0.401182 3.312768 0.683323
v 0.913819 3.564913 -1.037339
v 1.333541 3.974027 0.102831
v -0.018538 2.903654 -0.456846
v 0.401182 3.312768 0.683323
v 0.913820 3.564914 -1.037339
v 1.333541 3.974028 0.102831
v 0.170684 3.129673 0.659440
v 0.806380 3.111025 -0.453695
v -0.790796 3.766658 0.099680
v -0.155101 3.748010 -1.013455
v 0.170685 3.129672 0.659440
v 0.806380 3.111025 -0.453694
v -0.790797 3.766658 0.099680
v -0.155101 3.748010 -1.013455
v 0.091860 3.329176 0.767513
v 0.677992 3.075499 -0.344073
v -0.261532 4.477071 0.319208
v 0.324600 4.223395 -0.792379
v 0.091860 3.329175 0.767512
v 0.677993 3.075499 -0.344073
v -0.261532 4.477072 0.319207
v 0.324600 4.223395 -0.792379
v 0.869934 3.555727 0.359524
v 1.172942 3.386363 -0.874586
v 2.095988 3.820824 0.624173
v 2.398998 3.651459 -0.609937
v 0.869933 3.555728 0.359523
v 1.172942 3.386363 -0.874586
v 2.095989 3.820824 0.624173
v 2.398998 3.651459 -0.609937
v 1.389104 3.176563 0.330753
v 0.361013 3.496686 -0.365002
v 1.987300 2.784961 -0.733359
v 0.959208 3.105083 -1.429115
v 1.389104 3.176564 0.330754
v 0.361013 3.496686 -0.365002
v 1.987300 2.784961 -0.733360
v 0.959208 3.105083 -1.429115
v 0.918332 3.208460 -0.767130
v 1.378853 3.003957 0.411693
v 0.421744 4.324981 -0.379437
v 0.882264 4.120479 0.799387
v 0.918333 3.208460 -0.767130
v 1.378853 3.003957 0.411693
v 0.421744 4.324982 -0.379437
v 0.882264 4.120479 0.799387
v 0.040562 2.718123 -0.504261
v 1.289183 2.739532 -0.214414
v -0.249610 2.882227 0.733638
v 0.999011 2.903636 1.023488
v 0.040562 2.718125 -0.504262
v 1.289183 2.739532 -0.214414
v -0.249611 2.882227 0.733639
v 0.999011 2.903635 1.023488
v 0.103197 2.969167 -0.641320
v 1.047772 2.650029 0.164566
v -0.556029 3.478568 0.333081
v 0.388546 3.159430 1.138970
v 0.103198 2.969168 -0.641321
v 1.047772 2.650029 0.164566
v -0.556029 3.478568 0.333081
v 0.388546 3.159430 1.138970
v -0.845044 1.974784 -0.346686
v 0.393381 2.159324 -0.071416
v -1.173436 2.514869 0.768657
v 0.064989 2.699409 1.043931
v -0.845044 1.974785 -0.346687
v 0.393381 2.159324 -0.071415
v -1.173436 2.514869 0.768658
v 0.064989 2.699409 1.043931
v -0.031097 2.450643 0.278781
v -0.944299 1.898355 -0.431547
v 0.601746 2.775842 -0.787653
v -0.311456 2.223554 -1.497983
v -0.031098 2.450643 0.278781
v -0.944299 1.898355 -0.431547
v 0.601746 2.775842 -0.787653
v -0.311456 2.223554 -1.497983
v 0.492816 2.582748 0.432499
v -0.022197 1.921516 -0.537583
v 1.503691 2.871673 -0.301108
v 0.988679 2.210440 -1.271192
v 0.492814 2.582749 0.432499
v -0.022197 1.921516 -0.537583
v 1.503692 2.871672 -0.301109
v 0.988679 2.210440 -1.271192
v -0.340472 2.146589 -0.166623
v 0.893012 2.053105 -0.503230
v 0.004992 2.289323 1.059675
v 1.238477 2.195839 0.723070
v -0.340472 2.146590 -0.166624
v 0.893012 2.053105 -0.503230
v 0.004992 2.289322 1.059676
v 1.238477 2.195839 0.723070
v -0.381867 1.743159 -0.776359
v 0.092912 1.878160 0.406808
v -1.544664 2.070530 -0.347107
v -1.069886 2.205533 0.836061
v -0.381866 1.743159 -0.776359
v 0.092912 1.878160 0.406808
v -1.544665 2.070530 -0.347107
v -1.069886 2.205533 0.836061
v 0.244604 3.058527 0.360540
v 0.721479 2.475719 -0.676982
v 1.425152 3.430872 0.693996
v 1.902029 2.848064 -0.343526
v 0.244603 3.058527 0.360539
v 0.721479 2.475719 -0.676982
v 1.425152 3.430871 0.693996
v 1.902029 2.848064 -0.343526
v -0.023566 2.789669 -0.451543
v 0.990710 2.034694 -0.239920
v -0.006800 3.156486 0.776745
v 1.007476 2.401512 0.988369
v -0.023565 2.789669 -0.451544
v 0.990710 2.034694 -0.239920
v -0.006801 3.156486 0.776745
v 1.007476 2.401512 0.988369
v 0.255231 2.319080 -0.258257
v -0.681435 1.569253 0.193345
v -0.441116 2.556638 -1.308112
v -1.377783 1.806812 -0.856511
v 0.255231 2.319080 -0.258256
v -0.681435 1.569253 0.193345
v -0.441116 2.556638 -1.308113
v -1.377783 1.806812 -0.856511
v 0.063602 2.517346 -0.012861
v -1.120644 2.056818 0.157439
v -0.308836 3.070100 -1.107978
v -1.493083 2.609572 -0.937680
v 0.063602 2.517347 -0.012860
v -1.120644 2.056818 0.157439
v -0.308836 3.070099 -1.107979
v -1.493083 2.609572 -0.937680
v -0.948330 2.129588 -0.397272
v 0.044646 2.658732 0.217165
v -1.741019 2.967629 0.162065
v -0.748045 3.496774 0.776504
v -0.948330 2.129588 -0.397273
v 0.044646 2.658732 0.217165
v -1.741020 2.967629 0.162066
v -0.748045 3.496775 0.776503
v -1.160584 3.732992 -0.080656
v -1.425937 2.934820 -1.048146
v -0.328329 4.360769 -0.826831
v -0.593681 3.562598 -1.794322
v -1.160584 3.732992 -0.080656
v -1.425937 2.934820 -1.048146
v -0.328328 4.360769 -0.826830
v -0.593681 3.562598 -1.794322
v -0.604537 3.113173 0.430062
v -0.869890 2.315001 -0.537428
v 0.227718 3.740950 -0.316113
v -0.037634 2.942779 -1.283604
v -0.604537 3.113173 0.430062
v -0.869890 2.315001 -0.537429
v 0.227719 3.740950 -0.316113
v -0.037634 2.942779 -1.283605
v 1.207573 2.899959 -0.287519
v 0.112163 2.546982 0.277292
v 0.541592 3.494703 -1.207453
v -0.553818 3.141727 -0.642643
v 1.207573 2.899959 -0.287519
v 0.112163 2.546982 0.277292
v 0.541593 3.494702 -1.207454
v -0.553819 3.141727 -0.642643
v -0.883857 2.334349 -0.471995
v -0.388450 1.980618 -0.341676
v -0.663166 2.432020 -1.045835
v -0.167760 2.078289 -0.915517
v -0.883857 2.334349 -0.471995
v -0.388450 1.980618 -0.341676
v -0.663167 2.432020 -1.045836
v -0.167760 2.078289 -0.915517
v -0.719157 2.423378 -0.232853
v -1.259747 2.568310 -0.505422
v -0.966163 2.549998 0.324365
v -1.506753 2.694930 0.051796
v -0.989452 2.495843 -0.369138
v -0.966163 2.549998 0.324365
v -1.506753 2.694931 0.051796
v -1.203150 2.933496 -0.506511
v -1.329236 2.904526 -1.115444
v -1.592621 3.415698 -0.448808
v -1.718708 3.386728 -1.057742
v -1.203150 2.933496 -0.506511
v -1.329236 2.904526 -1.115444
v -1.592621 3.415699 -0.448808
v -1.718708 3.386729 -1.057741
v -1.235721 2.528719 -0.405557
v -0.869520 2.603385 -0.903411
v -1.739141 2.584487 -0.767489
v -1.372940 2.659153 -1.265344
v -1.052620 2.566050 -0.654485
v -1.739141 2.584486 -0.767489
v -1.372940 2.659153 -1.265344
v -0.383543 2.528719 -0.022612
v -0.749744 2.603385 0.475242
v 0.119877 2.584487 0.339320
v -0.246324 2.659153 0.837174
v -0.566644 2.566049 0.226316
v 0.119877 2.584486 0.339320
v -0.246324 2.659153 0.837174
v -0.421235 2.783295 0.118912
v -0.849837 2.895871 0.556135
v -0.070928 3.246533 0.343039
v -0.499531 3.359109 0.780262
v -0.421235 2.783295 0.118913
v -0.849837 2.895871 0.556135
v -0.070928 3.246533 0.343039
v -0.499531 3.359109 0.780262
v -0.386530 2.846167 0.473851
v -0.894189 2.571034 0.241210
v -0.716329 3.039131 0.965313
v -1.223988 2.763998 0.732672
v -0.386530 2.846166 0.473851
v -0.894189 2.571034 0.241210
v -0.716329 3.039130 0.965313
v -1.223988 2.763998 0.732672
v -0.838582 2.546527 -0.103212
v -0.328216 2.699840 0.218594
v -0.651892 2.910325 -0.572610
v -0.141526 3.063639 -0.250804
v -0.583397 2.623181 0.057690
v -0.651892 2.910325 -0.572610
v -0.141526 3.063639 -0.250804
v 0.329224 2.494060 -0.312894
v 0.533036 2.692721 0.240759
v 0.781966 2.815160 -0.594774
v 0.985778 3.013821 -0.041121
v 0.431130 2.593390 -0.036067
v 0.781967 2.815160 -0.594774
v 0.985778 3.013821 -0.041121
v 0.086891 2.603812 0.229162
v 0.395577 2.594757 -0.311363
v -0.379993 2.913125 -0.042651
v -0.071307 2.904070 -0.583177
v 0.086891 2.603811 0.229162
v 0.395577 2.594757 -0.311363
v -0.379993 2.913124 -0.042651
v -0.071307 2.904069 -0.583177
v 0.065921 3.152976 0.257454
v 0.436341 2.751091 -0.173474
v 0.264738 3.308496 -0.391166
v 0.151722 2.874274 0.366299
v 0.436341 2.751091 -0.173474
v -0.019881 3.431679 0.148608
v 0.264738 3.308496 -0.391166
v 1.263218 2.895449 0.110173
v 1.410355 2.813208 -0.489097
v 1.858576 3.024177 0.238684
v 2.005714 2.941936 -0.360586
v 1.263218 2.895450 0.110173
v 1.410355 2.813208 -0.489097
v 1.858576 3.024177 0.238684
v 2.005714 2.941936 -0.360586
v 1.278532 2.473278 -0.121895
v 0.779303 2.628726 -0.459746
v 1.569009 2.283120 -0.638615
v 1.069780 2.438568 -0.976467
v 1.278532 2.473278 -0.121895
v 0.779303 2.628726 -0.459746
v 1.569010 2.283120 -0.638616
v 1.069780 2.438568 -0.976467
v 0.788486 3.029221 -0.270084
v 1.132679 2.658832 0.208210
v 0.891541 3.201002 0.396470
v 1.020869 2.708485 -0.078002
v 0.667918 3.300306 -0.175954
v 0.891541 3.201002 0.396470
v 0.287081 2.080937 -0.111316
v 0.893397 2.091333 0.029431
v 0.146176 2.160625 0.489794
v 0.752493 2.171020 0.630542
v 0.287081 2.080938 -0.111316
v 0.893397 2.091333 0.029431
v 0.146176 2.160625 0.489794
v 0.752493 2.171020 0.630542
v 0.016532 2.456879 0.053160
v 0.635265 2.178234 0.207909
v 0.315153 2.425593 0.681068
v 0.405930 2.255723 0.012244
v -0.143522 2.580562 0.289738
v 0.315153 2.425593 0.681069
v -0.690710 1.607387 0.281789
v -0.009613 1.565872 0.144656
v -0.169076 1.828131 0.686256
v -0.610978 1.476262 0.010987
v -0.009613 1.565872 0.144656
v -0.770442 1.738521 0.552586
v -0.169076 1.828131 0.686255
v -0.103207 1.707334 -0.178213
v -0.546647 1.439149 -0.523139
v 0.204094 1.865247 -0.696061
v -0.239346 1.597062 -1.040988
v -0.103207 1.707334 -0.178212
v -0.546647 1.439149 -0.523139
v 0.204094 1.865247 -0.696061
v -0.239346 1.597062 -1.040988
v 0.620354 1.802088 -0.005700
v 0.370270 1.481001 -0.476761
v 1.111224 1.942386 -0.361931
v 0.861140 1.621300 -0.832993
v 0.620354 1.802088 -0.005700
v 0.370270 1.481001 -0.476761
v 1.111224 1.942386 -0.361931
v 0.861140 1.621300 -0.832993
v 0.065643 1.474356 0.062211
v 0.664608 1.428961 -0.101242
v 0.233396 1.543666 0.657687
v 0.832362 1.498271 0.494236
v 0.065643 1.474356 0.062210
v 0.664608 1.428961 -0.101242
v 0.233396 1.543665 0.657688
v 0.832362 1.498271 0.494236
v -0.558830 1.177183 -0.361635
v -0.328282 1.242739 0.212897
v -1.123470 1.336151 -0.153196
v -0.892924 1.401707 0.421337
v -0.558829 1.177184 -0.361635
v -0.328282 1.242739 0.212897
v -1.123471 1.336151 -0.153195
v -0.892924 1.401707 0.421337
v 0.670903 2.319494 0.179450
v 0.902468 2.036489 -0.324359
v 1.244163 2.500300 0.341372
v 1.475729 2.217296 -0.162436
v 0.670902 2.319494 0.179450
v 0.902468 2.036489 -0.324359
v 1.244164 2.500300 0.341373
v 1.475729 2.217296 -0.162436
v 0.241624 2.004932 -0.081190
v 0.734145 1.638325 0.021572
v 0.249765 2.183054 0.515253
v 0.742286 1.816447 0.618015
v 0.241625 2.004932 -0.081190
v 0.734145 1.638325 0.021572
v 0.249765 2.183054 0.515253
v 0.742286 1.816447 0.618015
v -0.164789 1.502421 -0.412132
v -0.619623 1.138314 -0.192839
v -0.502927 1.617777 -0.921929
v -0.957762 1.253670 -0.702637
v -0.164789 1.502421 -0.412131
v -0.619623 1.138314 -0.192839
v -0.502927 1.617776 -0.921929
v -0.957762 1.253670 -0.702637
v -0.336786 1.856167 -0.250730
v -0.911842 1.632540 -0.168034
v -0.517638 2.124578 -0.782506
v -1.092694 1.900951 -0.699811
v -0.336786 1.856167 -0.250729
v -0.911842 1.632540 -0.168034
v -0.517638 2.124577 -0.782506
v -1.092694 1.900951 -0.699811
v -0.896815 1.796336 -0.095371
v -0.414638 2.053282 0.202993
v -1.281736 2.203279 0.176237
v -0.799559 2.460226 0.474602
v -0.896815 1.796336 -0.095371
v -0.414638 2.053282 0.202993
v -1.281736 2.203279 0.176238
v -0.799559 2.460226 0.474601
v -1.014773 3.004265 -0.521421
v -1.143626 2.616682 -0.991223
v -0.610640 3.309106 -0.883755
v -0.739492 2.921524 -1.353557
v -1.014773 3.004265 -0.521421
v -1.143626 2.616682 -0.991223
v -0.610640 3.309106 -0.883754
v -0.739492 2.921524 -1.353557
v -0.458726 2.384446 -0.010703
v -0.587579 1.996863 -0.480505
v -0.054593 2.689287 -0.373037
v -0.183445 2.301705 -0.842839
v -0.458726 2.384446 -0.010703
v -0.587579 1.996863 -0.480505
v -0.054592 2.689287 -0.373037
v -0.183445 2.301705 -0.842839
v 0.754533 2.277242 -0.378859
v 0.222614 2.105841 -0.104593
v 0.431140 2.566043 -0.825568
v -0.100778 2.394642 -0.551303
v 0.754533 2.277242 -0.378859
v 0.222614 2.105841 -0.104593
v 0.431141 2.566042 -0.825569
v -0.100778 2.394642 -0.551303
vn -0.5675 -0.0296 0.8228
vn -0.9774 -0.0262 0.2098
vn 0.2089 0.0827 0.9744
vn -0.2095 0.0377 0.9771
vn 0.5654 0.0924 0.8197
vn 0.8208 0.0737 0.5665
vn -0.4102 -0.0491 -0.9107
vn 0.9774 0.0262 0.2098
vn -0.8218 -0.0540 0.5672
vn 0.2070 0.1610 -0.9650
vn 0.2079 0.1288 0.9696
vn -0.7746 -0.3371 -0.5352
vn 0.5421 0.2971 0.7860
vn -0.8944 -0.4039 -0.1924
vn 0.5379 0.3212 -0.7794
vn 0.7469 0.4193 -0.5160
vn 0.7526 0.4048 0.5194
vn 0.8655 0.4653 0.1857
vn -0.5502 -0.2467 0.7977
vn -0.7700 -0.3531 0.5314
vn -0.8921 -0.4094 0.1915
vn -0.2090 -0.0788 0.9747
vn 0.8629 0.4701 -0.1856
vn -0.5539 -0.2211 -0.8027
vn -0.2095 -0.0458 -0.9767
vn 0.5264 -0.3756 0.7628
vn 0.2059 -0.1890 0.9601
vn -0.2094 0.0561 0.9762
vn -0.2093 0.0560 -0.9763
vn 0.7190 -0.4861 0.4967
vn -0.5484 0.2589 -0.7951
vn 0.8206 -0.5436 0.1765
vn -0.5486 0.2590 0.7950
vn -0.7588 0.3866 0.5242
vn -0.7590 0.3867 -0.5238
vn -0.8705 0.4553 -0.1868
vn 0.5262 -0.3755 -0.7629
vn 0.7192 -0.4862 -0.4963
vn 0.8206 -0.5437 -0.1761
vn 0.2058 -0.1890 -0.9602
vn -0.8704 0.4553 0.1872
vn -0.7064 0.5126 0.4881
vn 0.7166 -0.6746 -0.1772
vn -0.7887 0.5910 0.1696
vn 0.4874 -0.5134 0.7063
vn 0.2005 -0.2922 0.9351
vn -0.2094 0.0551 0.9763
vn 0.6403 -0.6279 0.4424
vn -0.6186 0.4143 -0.6676
vn 0.7145 -0.6826 0.1537
vn -0.5323 0.3489 0.7714
vn 0.6441 0.6222 -0.4450
vn -0.8664 -0.4635 0.1859
vn -0.5634 0.1264 -0.8165
vn -0.1966 0.3471 -0.9170
vn 0.1801 0.5125 -0.8396
vn 0.1738 -0.1260 0.9767
vn -0.8179 -0.1078 -0.5651
vn -0.9223 -0.3316 -0.1984
vn 0.4562 0.5956 -0.6612
vn -0.8124 -0.1603 0.5607
vn -0.9764 0.0517 0.2096
vn -0.1925 -0.3959 0.8979
vn -0.4786 0.5383 -0.6936
vn -0.1686 0.5948 -0.7860
vn -0.7388 0.4402 -0.5104
vn -0.9401 0.2745 -0.2022
vn 0.9700 0.0340 0.2407
vn -0.5395 -0.3117 0.7822
vn 0.8221 -0.0479 -0.5673
vn 0.9346 0.2937 -0.2006
vn 0.1688 -0.5929 -0.7874
vn -0.1475 -0.7104 -0.6882
vn 0.6333 0.6384 0.4375
vn -0.3736 -0.7531 -0.5416
vn 0.8218 0.5417 0.1767
vn -0.6657 -0.0274 0.7457
vn 0.5281 -0.3671 -0.7657
vn 0.4909 0.8078 0.3263
vn -0.4909 -0.8078 -0.3263
vn 0.2974 0.9510 -0.0843
vn -0.2974 -0.9510 0.0843
vn 0.7534 0.6307 -0.1860
vn -0.7534 -0.6307 0.1860
vn 0.0019 0.9887 0.1497
vn -0.0019 -0.9887 -0.1497
vn -0.0019 0.9887 -0.1497
vn 0.0019 -0.9887 0.1497
vn -0.4575 0.6431 -0.6141
vn 0.4575 -0.6431 0.6141
vn -0.2331 0.8418 -0.4869
vn 0.2331 -0.8418 0.4869
vn -0.4878 0.7732 0.4052
vn 0.4878 -0.7732 -0.4052
vn -0.6032 0.7951 -0.0632
vn 0.6032 -0.7951 0.0632
vn 0.4378 0.8677 0.2355
vn -0.4378 -0.8677 -0.2355
vn 0.8456 0.3989 0.3548
vn -0.8456 -0.3989 -0.3548
vn 0.1718 -0.9694 0.1752
vn -0.1718 0.9694 -0.1752
vn -0.3730 -0.9189 0.1284
vn 0.3730 0.9189 -0.1284
vn -0.8491 -0.4648 0.2511
vn 0.8491 0.4648 -0.2511
vn -0.0128 -0.9916 0.1285
vn 0.0128 0.9916 -0.1285
vn -0.4390 -0.8833 0.1648
vn 0.4390 0.8833 -0.1648
vn 0.0348 -0.8954 0.4438
vn -0.0348 0.8954 -0.4438
vn 0.4989 -0.8661 0.0320
vn -0.4989 0.8661 -0.0320
vn 0.4657 -0.8265 0.3162
vn -0.4657 0.8265 -0.3162
vn -0.0405 -0.9911 0.1268
vn 0.0405 0.9911 -0.1268
vn -0.2004 -0.9611 0.1901
vn 0.2004 0.9611 -0.1901
vn 0.1168 -0.8420 0.5267
vn -0.1168 0.8420 -0.5267
vn -0.6115 -0.7559 0.2341
vn 0.6115 0.7559 -0.2341
vn 0.4137 -0.7897 -0.4531
vn -0.4137 0.7897 0.4531
vn 0.2496 -0.8277 -0.5026
vn -0.2496 0.8277 0.5026
vn -0.1332 -0.6343 0.7615
vn 0.1332 0.6343 -0.7615
vn 0.7319 -0.6104 0.3028
vn -0.7319 0.6104 -0.3028
vn -0.0068 -0.8420 -0.5394
vn 0.0068 0.8420 0.5394
vn -0.2097 -0.0023 -0.9778
vn 0.8179 0.1083 -0.5651
vn 0.2092 0.0686 -0.9755
vn 0.5649 0.1044 -0.8186
vn 0.9745 0.0805 -0.2096
vn -0.5676 -0.0343 -0.8226
vn 0.9833 0.0209 0.1807
vn -0.9776 -0.0126 -0.2103
vn -0.8226 -0.0171 -0.5683
vn -0.7158 -0.0706 0.6948
vn -0.8943 -0.4039 -0.1924
vn -0.7099 0.5061 -0.4899
vn -0.7902 0.5890 -0.1696
vn 0.4933 -0.4950 -0.7153
vn 0.6381 -0.6316 -0.4404
vn 0.7135 -0.6837 -0.1531
vn 0.2026 -0.2560 -0.9452
vn 0.0459 -0.1734 0.9838
vn -0.2089 0.0815 -0.9745
vn -0.5326 0.3465 -0.7722
vn 0.6324 0.6229 -0.4605
vn 0.7756 0.3344 0.5353
vn 0.8497 0.4946 0.1824
vn -0.5038 -0.4612 0.7304
vn -0.7141 -0.4972 0.4928
vn -0.1970 -0.3411 0.9191
vn 0.7890 0.5905 -0.1697
vn -0.7368 -0.0089 -0.6760
vn 0.2084 -0.1079 0.9721
vn 0.5631 0.1286 0.8163
vn -0.9271 -0.0337 0.3734
vn 0.9413 0.2703 -0.2024
vn -0.0794 0.5949 -0.7998
vn 0.1696 0.5880 -0.7909
vn 0.1923 -0.3984 0.8968
vn 0.5381 -0.3191 0.7801
vn 0.4801 0.5342 -0.6958
vn 0.7406 0.4356 -0.5117
vn 0.8107 -0.1723 0.5595
vn 0.9765 0.0495 0.2096
vn 0.9339 0.3127 -0.1733
vn -0.8331 -0.5232 0.1792
vn 0.4296 0.6541 0.6226
vn 0.1677 0.6005 0.7818
vn -0.1898 0.4253 0.8849
vn -0.4550 -0.7507 -0.4790
vn -0.5649 0.1029 0.8187
vn -0.7977 -0.2449 0.5511
vn -0.5518 -0.7420 -0.3808
vn -0.7160 -0.6809 -0.1537
vn 0.4878 -0.7732 -0.4053
vt 0.326893 0.500000
vt 0.079620 1.000000
vt 0.005802 1.000000
vt 0.278306 0.500000
vt 0.128924 1.000000
vt 0.230773 1.000000
vt 0.283297 1.000000
vt 0.181458 1.000000
vt 0.357115 1.000000
vt 0.072522 0.500000
vt 0.055123 1.000000
vt 0.082589 0.500000
vt 0.079581 1.000000
vt 0.367987 0.500000
vt 0.294872 0.500000
vt 0.240646 1.000000
vt 0.406262 0.500000
vt 0.240614 1.000000
vt 0.155479 1.000000
vt 0.349508 0.500000
vt 0.359380 1.000000
vt 0.429832 0.500000
vt 0.406220 0.500000
vt 0.302324 1.000000
vt 0.237716 0.500000
vt 0.297966 1.000000
vt 0.302361 1.000000
vt 0.486980 0.500000
vt 0.045665 0.500000
vt 0.127348 1.000000
vt 0.065653 1.000000
vt 0.126356 0.500000
vt 0.212492 1.000000
vt 0.102812 0.500000
vt 0.070344 1.000000
vt 0.008634 1.000000
vt 0.183524 0.500000
vt 0.102764 0.500000
vt 0.070312 1.000000
vt 0.183481 0.500000
vt 0.055026 0.500000
vt 0.157737 1.000000
vt 0.002406 0.500000
vt 0.127643 0.500000
vt 0.189644 1.000000
vt 0.200259 0.500000
vt 0.233676 1.000000
vt 0.200232 0.500000
vt 0.277692 1.000000
vt 0.473270 0.500000
vt 0.392240 1.000000
vt 0.420906 0.500000
vt 0.252848 0.500000
vt 0.309596 1.000000
vt 0.348049 1.000000
vt 0.348028 0.500000
vt 0.252880 0.500000
vt 0.277708 1.000000
vt 0.423991 1.000000
vt 0.275431 0.500000
vt 0.272132 1.000000
vt 0.304029 1.000000
vt 0.055054 0.500000
vt 0.157756 1.000000
vt 0.189661 1.000000
vt 0.222828 0.500000
vt 0.409637 0.500000
vt 0.254599 1.000000
vt 0.455039 0.500000
vt 0.237894 0.500000
vt 0.238247 1.000000
vt 0.196841 1.000000
vt 0.316005 0.500000
vt 0.321563 1.000000
vt 0.360979 0.500000
vt 0.106825 0.500000
vt 0.239999 1.000000
vt 0.061200 0.500000
vt 0.169787 0.500000
vt 0.232748 0.500000
vt 0.296394 1.000000
vt 0.278345 0.500000
vt 0.257173 1.000000
vt 0.304909 1.000000
vt 0.346448 0.500000
vt 0.278373 0.500000
vt 0.418934 1.000000
vt 0.283504 0.500000
vt 0.388862 1.000000
vt 0.087183 1.000000
vt 0.099370 1.000000
vt 0.032331 1.000000
vt 0.035081 0.500000
vt 0.051448 1.000000
vt 0.074049 0.500000
vt 0.091529 1.000000
vt 0.127829 0.500000
vt 0.278372 0.500000
vt 0.299231 1.000000
vt 0.224598 0.500000
vt 0.185597 0.500000
vt 0.282127 1.000000
vt 0.224578 0.500000
vt 0.308565 1.000000
vt 0.181817 0.500000
vt 0.220608 0.500000
vt 0.092929 1.000000
vt 0.051364 1.000000
vt 0.185620 0.500000
vt 0.220670 1.000000
vt 0.155468 1.000000
vt 0.278372 0.500000
vt 0.332146 0.500000
vt 0.185597 0.500000
vt 0.139815 1.000000
vt 0.158796 0.500000
vt 0.187047 1.000000
vt 0.371124 0.500000
vt 0.253029 1.000000
vt 0.231078 1.000000
vt 0.266722 1.000000
vt 1.000000 0.500000
vt 0.500000 1.000000
vt 0.500000 0.500000
vt 1.000000 1.000000
vt 0.355741 0.500000
vt 0.406481 1.000000
vt 0.333017 1.000000
vt 0.283336 1.000000
vt 0.357160 1.000000
vt 0.005757 1.000000
vt 0.033176 0.500000
vt 0.486931 0.500000
vt 0.008597 1.000000
vt 0.233656 1.000000
vt 0.002438 0.500000
vt 0.218562 1.000000
vt 0.106849 0.500000
vt 0.061228 0.500000
vt 0.232724 0.500000
vt 0.448625 1.000000
vt 0.381928 1.000000
vt 0.271206 0.500000
vt 0.068043 1.000000
vt 0.025172 1.000000
vt 0.332166 0.500000
vt 0.332146 0.500000
vt 0.371124 0.500000
vt 0.371147 0.500000
vt 0.224578 0.500000
vt 0.398017 0.500000
vt 0.750000 0.500000
vt 0.500000 0.750000
vt 0.500000 0.750000
vt 0.500000 0.750000
s 0
usemtl tree
f 1/1/1 16/2/1 4/3/1
f 2/4/2 15/5/2 8/6/2
f 1/1/3 19/7/3 11/8/3
f 1/1/4 11/8/4 16/2/4
f 1/1/5 6/9/5 19/7/5
f 1/10/6 14/5/6 6/11/6
f 2/12/7 17/13/7 3/14/7
f 1/10/8 9/6/8 14/5/8
f 2/4/9 4/11/9 15/5/9
f 10/15/10 34/16/10 18/17/10
f 11/15/11 35/18/11 27/19/11
f 12/20/12 21/21/12 5/22/12
f 19/23/13 22/24/13 35/18/13
f 8/25/14 28/26/14 12/20/14
f 18/17/15 23/27/15 7/28/15
f 7/22/16 29/26/16 13/20/16
f 6/29/17 30/30/17 22/31/17
f 14/32/18 25/33/18 30/30/18
f 4/34/19 32/35/19 20/36/19
f 15/32/20 20/31/20 31/30/20
f 8/25/21 31/30/21 24/33/21
f 16/37/22 27/19/22 32/35/22
f 13/20/23 25/33/23 9/25/23
f 5/38/24 33/39/24 17/40/24
f 17/40/25 26/19/25 10/15/25
f 17/41/26 37/42/26 5/43/26
f 10/44/27 49/45/27 17/41/27
f 18/46/28 42/47/28 10/44/28
f 19/48/29 43/47/29 51/49/29
f 5/50/30 44/51/30 12/52/30
f 6/53/31 51/49/31 38/54/31
f 12/52/32 40/55/32 8/56/32
f 7/57/33 50/58/33 18/46/33
f 13/52/34 39/59/34 7/50/34
f 14/60/35 38/61/35 46/62/35
f 9/56/36 46/62/36 41/55/36
f 16/63/37 36/64/37 48/65/37
f 4/66/38 47/62/38 36/61/38
f 15/60/39 40/55/39 47/62/39
f 11/44/40 48/65/40 43/47/40
f 9/56/41 45/51/41 13/52/41
f 45/67/42 52/68/42 39/69/42
f 36/70/43 53/71/43 54/72/43
f 41/73/44 52/74/44 45/75/44
f 49/76/45 53/77/45 37/78/45
f 42/79/46 53/77/46 49/76/46
f 50/80/47 52/81/47 42/79/47
f 37/69/48 53/71/48 44/67/48
f 38/82/49 54/83/49 52/84/49
f 44/67/50 53/71/50 40/85/50
f 39/86/51 52/81/51 50/80/51
f 39/69/52 56/87/52 45/67/52
f 47/88/53 55/89/53 40/85/53
f 37/78/54 57/90/54 49/76/54
f 49/76/55 57/90/55 42/79/55
f 42/79/56 57/90/56 50/80/56
f 43/79/57 56/91/57 55/92/57
f 44/67/58 55/89/58 37/69/58
f 40/85/59 55/89/59 44/67/59
f 50/80/60 57/90/60 39/86/60
f 20/93/61 60/94/61 31/95/61
f 31/95/62 58/96/62 24/97/62
f 27/98/63 60/99/63 32/100/63
f 21/101/64 58/102/64 33/103/64
f 33/103/65 59/104/65 26/98/65
f 28/105/66 58/96/66 21/106/66
f 24/97/67 58/96/67 28/105/67
f 30/95/68 59/107/68 60/108/68
f 32/100/69 60/99/69 20/109/69
f 31/95/70 63/110/70 20/93/70
f 24/97/71 63/110/71 31/95/71
f 32/100/72 63/111/72 27/98/72
f 27/112/73 63/111/73 35/113/73
f 21/114/74 61/115/74 28/116/74
f 35/113/75 62/117/75 22/118/75
f 28/105/76 61/119/76 24/97/76
f 23/106/77 62/120/77 61/121/77
f 20/109/78 63/111/78 32/100/78
f 65/122/79 66/123/79 64/124/79
f 70/123/80 69/122/80 68/124/80
f 73/122/81 74/123/81 72/124/81
f 78/123/82 77/122/82 76/124/82
f 81/122/83 82/123/83 80/124/83
f 86/123/84 85/122/84 84/124/84
f 89/122/85 90/123/85 88/124/85
f 94/123/86 93/122/86 92/124/86
f 97/122/87 98/123/87 96/124/87
f 102/123/88 101/122/88 100/124/88
f 105/122/89 106/123/89 104/124/89
f 110/123/90 109/122/90 108/124/90
f 113/122/91 114/123/91 112/124/91
f 118/123/92 117/122/92 116/124/92
f 121/122/93 122/123/93 120/124/93
f 126/123/94 125/122/94 124/124/94
f 129/122/95 130/123/95 128/124/95
f 134/123/96 133/122/96 132/124/96
f 137/122/97 138/123/97 136/124/97
f 142/123/98 141/122/98 140/124/98
f 145/122/99 146/123/99 144/124/99
f 150/123/100 149/122/100 148/124/100
f 153/122/101 154/123/101 152/124/101
f 158/123/102 157/122/102 156/124/102
f 161/122/103 162/123/103 160/124/103
f 166/123/104 165/122/104 164/124/104
f 169/122/105 170/123/105 168/124/105
f 174/123/106 173/122/106 172/124/106
f 177/122/107 178/123/107 176/124/107
f 182/123/108 181/122/108 180/124/108
f 185/122/109 186/123/109 184/124/109
f 190/123/110 189/122/110 188/124/110
f 193/122/111 194/123/111 192/124/111
f 198/123/112 197/122/112 196/124/112
f 201/122/113 202/123/113 200/124/113
f 206/123/114 205/122/114 204/124/114
f 209/122/115 210/123/115 208/124/115
f 214/123/116 213/122/116 212/124/116
f 217/122/117 218/123/117 216/124/117
f 222/123/118 221/122/118 220/124/118
f 225/122/119 226/123/119 224/124/119
f 230/123/120 229/122/120 228/124/120
f 233/122/121 234/123/121 232/124/121
f 238/123/122 237/122/122 236/124/122
f 241/122/123 242/123/123 240/124/123
f 246/123/124 245/122/124 244/124/124
f 249/122/125 250/123/125 248/124/125
f 254/123/126 253/122/126 252/124/126
f 257/122/127 258/123/127 256/124/127
f 262/123/128 261/122/128 260/124/128
f 265/122/129 266/123/129 264/124/129
f 270/123/130 269/122/130 268/124/130
f 273/122/131 274/123/131 272/124/131
f 278/123/132 277/122/132 276/124/132
f 281/122/131 282/123/131 280/124/131
f 286/123/132 285/122/132 284/124/132
f 289/122/133 290/123/133 288/124/133
f 294/123/134 293/122/134 292/124/134
f 297/122/79 298/123/79 296/124/79
f 302/123/80 301/122/80 300/124/80
f 305/122/81 306/123/81 304/124/81
f 310/123/82 309/122/82 308/124/82
f 313/122/83 314/123/83 312/124/83
f 318/123/84 317/122/84 316/124/84
f 321/122/85 322/123/85 320/124/85
f 326/123/86 325/122/86 324/124/86
f 329/122/87 330/123/87 328/124/87
f 334/123/88 333/122/88 332/124/88
f 337/122/89 338/123/89 336/124/89
f 342/123/90 341/122/90 340/124/90
f 345/122/91 346/123/91 344/124/91
f 350/123/92 349/122/92 348/124/92
f 353/122/93 354/123/93 352/124/93
f 358/123/94 357/122/94 356/124/94
f 361/122/95 362/123/95 360/124/95
f 366/123/96 365/122/96 364/124/96
f 369/122/97 370/123/97 368/124/97
f 374/123/98 373/122/98 372/124/98
f 377/122/99 378/123/99 376/124/99
f 382/123/100 381/122/100 380/124/100
f 385/122/101 386/123/101 384/124/101
f 390/123/102 389/122/102 388/124/102
f 393/122/103 394/123/103 392/124/103
f 398/123/104 397/122/104 396/124/104
f 401/122/105 402/123/105 400/124/105
f 406/123/106 405/122/106 404/124/106
f 409/122/107 410/123/107 408/124/107
f 414/123/108 413/122/108 412/124/108
f 417/122/109 418/123/109 416/124/109
f 422/123/110 421/122/110 420/124/110
f 425/122/111 426/123/111 424/124/111
f 430/123/112 429/122/112 428/124/112
f 433/122/113 434/123/113 432/124/113
f 438/123/114 437/122/114 436/124/114
f 441/122/115 442/123/115 440/124/115
f 446/123/116 445/122/116 444/124/116
f 449/122/117 450/123/117 448/124/117
f 454/123/118 453/122/118 452/124/118
f 457/122/119 458/123/119 456/124/119
f 462/123/120 461/122/120 460/124/120
f 465/122/121 466/123/121 464/124/121
f 470/123/122 469/122/122 468/124/122
f 473/122/123 474/123/123 472/124/123
f 478/123/124 477/122/124 476/124/124
f 481/122/125 482/123/125 480/124/125
f 486/123/126 485/122/126 484/124/126
f 489/122/127 490/123/127 488/124/127
f 494/123/128 493/122/128 492/124/128
f 497/122/129 498/123/129 496/124/129
f 502/123/130 501/122/130 500/124/130
f 505/122/131 506/123/131 504/124/131
f 510/123/132 509/122/132 508/124/132
f 513/122/131 514/123/131 512/124/131
f 518/123/132 517/122/132 516/124/132
f 521/122/133 522/123/133 520/124/133
f 526/123/134 525/122/134 524/124/134
f 529/122/79 530/123/79 528/124/79
f 534/123/80 533/122/80 532/124/80
f 537/122/81 538/123/81 536/124/81
f 540/124/82 543/125/82 541/122/82
f 545/122/83 546/123/83 544/124/83
f 550/123/84 549/122/84 548/124/84
f 553/122/85 554/123/85 552/124/85
f 558/123/86 557/122/86 556/124/86
f 561/122/87 562/123/87 560/124/87
f 566/123/88 565/122/88 564/124/88
f 569/122/89 570/123/89 568/124/89
f 574/123/90 573/122/90 572/124/90
f 577/122/91 578/123/91 576/124/91
f 582/123/92 581/122/92 580/124/92
f 585/122/93 586/123/93 584/124/93
f 590/123/94 589/122/94 588/124/94
f 593/122/95 594/123/95 592/124/95
f 598/123/96 597/122/96 596/124/96
f 601/122/97 602/123/97 600/124/97
f 606/123/98 605/122/98 604/124/98
f 609/122/99 610/123/99 608/124/99
f 614/123/100 613/122/100 612/124/100
f 617/122/101 618/123/101 616/124/101
f 622/123/102 621/122/102 620/124/102
f 625/122/103 626/123/103 624/124/103
f 630/123/104 629/122/104 628/124/104
f 633/122/105 634/123/105 632/124/105
f 638/123/106 637/122/106 636/124/106
f 641/122/107 642/123/107 640/124/107
f 646/123/108 645/122/108 644/124/108
f 649/122/109 650/123/109 648/124/109
f 654/123/110 653/122/110 652/124/110
f 657/122/111 658/123/111 656/124/111
f 662/123/112 661/122/112 660/124/112
f 665/122/113 666/123/113 664/124/113
f 670/123/114 669/122/114 668/124/114
f 673/122/115 674/123/115 672/124/115
f 678/123/116 677/122/116 676/124/116
f 681/122/117 682/123/117 680/124/117
f 686/123/118 685/122/118 684/124/118
f 689/122/119 690/123/119 688/124/119
f 694/123/120 693/122/120 692/124/120
f 697/122/121 698/123/121 696/124/121
f 702/123/122 701/122/122 700/124/122
f 705/122/123 706/123/123 704/124/123
f 710/123/124 709/122/124 708/124/124
f 713/122/125 714/123/125 712/124/125
f 718/123/126 717/122/126 716/124/126
f 721/122/127 722/123/127 720/124/127
f 726/123/128 725/122/128 724/124/128
f 729/122/129 730/123/129 728/124/129
f 734/123/130 733/122/130 732/124/130
f 737/122/131 738/123/131 736/124/131
f 742/123/132 741/122/132 740/124/132
f 745/122/131 746/123/131 744/124/131
f 750/123/132 749/122/132 748/124/132
f 753/122/133 754/123/133 752/124/133
f 758/123/134 757/122/134 756/124/134
f 761/122/79 762/123/79 760/124/79
f 766/123/80 765/122/80 764/124/80
f 769/122/81 770/123/81 768/124/81
f 776/122/83 777/123/83 775/124/83
f 781/123/84 780/122/84 779/124/84
f 784/122/85 785/123/85 783/124/85
f 791/122/87 792/123/87 790/124/87
f 798/122/89 799/123/89 797/124/89
f 803/123/90 802/122/90 801/124/90
f 806/122/91 807/123/91 805/124/91
f 811/123/92 810/122/92 809/124/92
f 814/122/93 815/123/93 813/124/93
f 821/122/95 822/123/95 820/124/95
f 828/122/97 829/123/97 827/124/97
f 833/123/98 832/122/98 831/124/98
f 840/123/100 839/122/100 838/124/100
f 843/122/101 844/123/101 842/124/101
f 848/123/102 847/122/102 846/124/102
f 851/122/103 852/123/103 850/124/103
f 856/123/104 855/122/104 854/124/104
f 865/122/107 866/123/107 864/124/107
f 870/123/108 869/122/108 868/124/108
f 883/123/112 882/122/112 881/124/112
f 886/122/113 887/123/113 885/124/113
f 891/123/114 890/122/114 889/124/114
f 894/122/115 895/123/115 893/124/115
f 899/123/116 898/122/116 897/124/116
f 902/122/117 903/123/117 901/124/117
f 907/123/118 906/122/118 905/124/118
f 910/122/119 911/123/119 909/124/119
f 915/123/120 914/122/120 913/124/120
f 918/122/121 919/123/121 917/124/121
f 923/123/122 922/122/122 921/124/122
f 926/122/123 927/123/123 925/124/123
f 931/123/124 930/122/124 929/124/124
f 934/122/125 935/123/125 933/124/125
f 939/123/126 938/122/126 937/124/126
f 942/122/127 943/123/127 941/124/127
f 947/123/128 946/122/128 945/124/128
f 950/122/129 951/123/129 949/124/129
f 955/123/130 954/122/130 953/124/130
f 958/122/131 959/123/131 957/124/131
f 963/123/132 962/122/132 961/124/132
f 966/122/131 967/123/131 965/124/131
f 971/123/132 970/122/132 969/124/132
f 974/122/133 975/123/133 973/124/133
f 979/123/134 978/122/134 977/124/134
f 3/14/135 17/13/135 10/8/135
f 3/126/136 7/127/136 13/128/136
f 3/14/137 10/8/137 18/129/137
f 3/14/138 18/129/138 7/130/138
f 3/126/139 13/128/139 9/6/139
f 2/12/140 5/131/140 17/13/140
f 1/10/141 3/126/141 9/6/141
f 2/4/142 8/6/142 12/128/142
f 2/4/143 12/128/143 5/127/143
f 2/4/144 1/132/144 4/11/144
f 10/15/10 26/19/10 34/16/10
f 11/15/11 19/23/11 35/18/11
f 12/20/12 28/26/12 21/21/12
f 19/23/13 6/133/13 22/24/13
f 8/25/145 24/33/145 28/26/145
f 18/17/15 34/16/15 23/27/15
f 7/22/16 23/21/16 29/26/16
f 6/29/17 14/32/17 30/30/17
f 14/32/18 9/25/18 25/33/18
f 4/34/19 16/37/19 32/35/19
f 15/32/20 4/29/20 20/31/20
f 8/25/21 15/32/21 31/30/21
f 16/37/22 11/15/22 27/19/22
f 13/20/23 29/26/23 25/33/23
f 5/38/24 21/134/24 33/39/24
f 17/40/25 33/39/25 26/19/25
f 17/41/26 49/45/26 37/42/26
f 10/44/27 42/47/27 49/45/27
f 18/46/28 50/58/28 42/47/28
f 19/48/29 11/44/29 43/47/29
f 5/50/30 37/59/30 44/51/30
f 6/53/31 19/48/31 51/49/31
f 12/52/32 44/51/32 40/55/32
f 7/57/33 39/135/33 50/58/33
f 13/52/34 45/51/34 39/59/34
f 14/60/35 6/66/35 38/61/35
f 9/56/36 14/60/36 46/62/36
f 16/63/37 4/136/37 36/64/37
f 4/66/38 15/60/38 47/62/38
f 15/60/39 8/56/39 40/55/39
f 11/44/40 16/63/40 48/65/40
f 9/56/41 41/55/41 45/51/41
f 46/88/146 38/70/146 52/137/146
f 41/85/147 46/88/147 52/137/147
f 48/138/148 36/139/148 54/83/148
f 36/70/149 47/88/149 53/71/149
f 47/88/150 40/85/150 53/71/150
f 43/79/151 48/138/151 54/83/151
f 42/79/152 52/81/152 53/77/152
f 51/140/153 43/79/153 54/83/153
f 38/82/154 51/140/154 54/83/154
f 39/69/155 57/141/155 56/87/155
f 38/70/156 46/88/156 56/142/156
f 46/143/157 41/73/157 56/144/157
f 36/139/158 48/138/158 55/92/158
f 47/88/159 36/70/159 55/89/159
f 48/138/160 43/79/160 55/92/160
f 41/85/161 45/67/161 56/87/161
f 37/78/162 55/145/162 57/90/162
f 43/79/163 51/140/163 56/91/163
f 51/140/164 38/82/164 56/91/164
f 31/95/165 60/94/165 58/96/165
f 25/97/166 29/105/166 59/107/166
f 33/103/167 58/102/167 59/104/167
f 34/146/168 26/98/168 59/104/168
f 27/98/169 35/147/169 60/99/169
f 35/147/170 22/148/170 60/99/170
f 23/149/171 34/146/171 59/104/171
f 29/105/172 23/106/172 59/107/172
f 22/93/173 30/95/173 60/108/173
f 30/95/174 25/97/174 59/107/174
f 24/97/175 61/119/175 63/110/175
f 29/105/176 25/97/176 62/120/176
f 21/114/177 33/150/177 61/115/177
f 33/103/178 26/98/178 61/115/178
f 26/98/179 34/146/179 61/115/179
f 35/113/180 63/111/180 62/117/180
f 34/146/181 23/149/181 61/115/181
f 23/106/182 29/105/182 62/120/182
f 30/151/183 22/118/183 62/117/183
f 25/97/184 30/95/184 62/120/184
f 65/122/79 67/125/79 66/123/79
f 70/123/80 71/125/80 69/122/80
f 73/122/81 75/125/81 74/123/81
f 78/123/82 79/125/82 77/122/82
f 81/122/83 83/125/83 82/123/83
f 86/123/84 87/125/84 85/122/84
f 89/122/85 91/125/85 90/123/85
f 94/123/86 95/125/86 93/122/86
f 97/122/87 99/125/87 98/123/87
f 102/123/88 103/125/88 101/122/88
f 105/122/89 107/125/89 106/123/89
f 110/123/90 111/125/90 109/122/90
f 113/122/91 115/125/91 114/123/91
f 118/123/92 119/125/92 117/122/92
f 121/122/93 123/125/93 122/123/93
f 126/123/94 127/125/94 125/122/94
f 129/122/95 131/125/95 130/123/95
f 134/123/96 135/125/96 133/122/96
f 137/122/97 139/125/97 138/123/97
f 142/123/98 143/125/98 141/122/98
f 145/122/99 147/125/99 146/123/99
f 150/123/100 151/125/100 149/122/100
f 153/122/101 155/125/101 154/123/101
f 158/123/102 159/125/102 157/122/102
f 161/122/103 163/125/103 162/123/103
f 166/123/104 167/125/104 165/122/104
f 169/122/105 171/125/105 170/123/105
f 174/123/106 175/125/106 173/122/106
f 177/122/107 179/125/107 178/123/107
f 182/123/108 183/125/108 181/122/108
f 185/122/109 187/125/109 186/123/109
f 190/123/110 191/125/110 189/122/110
f 193/122/111 195/125/111 194/123/111
f 198/123/112 199/125/112 197/122/112
f 201/122/113 203/125/113 202/123/113
f 206/123/114 207/125/114 205/122/114
f 209/122/115 211/125/115 210/123/115
f 214/123/116 215/125/116 213/122/116
f 217/122/117 219/125/117 218/123/117
f 222/123/118 223/125/118 221/122/118
f 225/122/119 227/125/119 226/123/119
f 230/123/120 231/125/120 229/122/120
f 233/122/121 235/125/121 234/123/121
f 238/123/122 239/125/122 237/122/122
f 241/122/123 243/125/123 242/123/123
f 246/123/124 247/125/124 245/122/124
f 249/122/125 251/125/125 250/123/125
f 254/123/126 255/125/126 253/122/126
f 257/122/127 259/125/127 258/123/127
f 262/123/128 263/125/128 261/122/128
f 265/122/129 267/125/129 266/123/129
f 270/123/130 271/125/130 269/122/130
f 273/122/131 275/125/131 274/123/131
f 278/123/132 279/125/132 277/122/132
f 281/122/131 283/125/131 282/123/131
f 286/123/132 287/125/132 285/122/132
f 289/122/133 291/125/133 290/123/133
f 294/123/134 295/125/134 293/122/134
f 297/122/79 299/125/79 298/123/79
f 302/123/80 303/125/80 301/122/80
f 305/122/81 307/125/81 306/123/81
f 310/123/82 311/125/82 309/122/82
f 313/122/83 315/125/83 314/123/83
f 318/123/84 319/125/84 317/122/84
f 321/122/85 323/125/85 322/123/85
f 326/123/86 327/125/86 325/122/86
f 329/122/87 331/125/87 330/123/87
f 334/123/88 335/125/88 333/122/88
f 337/122/89 339/125/89 338/123/89
f 342/123/90 343/125/90 341/122/90
f 345/122/91 347/125/91 346/123/91
f 350/123/92 351/125/92 349/122/92
f 353/122/93 355/125/93 354/123/93
f 358/123/94 359/125/94 357/122/94
f 361/122/95 363/125/95 362/123/95
f 366/123/96 367/125/96 365/122/96
f 369/122/97 371/125/97 370/123/97
f 374/123/98 375/125/98 373/122/98
f 377/122/99 379/125/99 378/123/99
f 382/123/100 383/125/100 381/122/100
f 385/122/101 387/125/101 386/123/101
f 390/123/102 391/125/102 389/122/102
f 393/122/103 395/125/103 394/123/103
f 398/123/104 399/125/104 397/122/104
f 401/122/105 403/125/105 402/123/105
f 406/123/106 407/125/106 405/122/106
f 409/122/107 411/125/107 410/123/107
f 414/123/108 415/125/108 413/122/108
f 417/122/109 419/125/109 418/123/109
f 422/123/110 423/125/110 421/122/110
f 425/122/111 427/125/111 426/123/111
f 430/123/112 431/125/112 429/122/112
f 433/122/113 435/125/113 434/123/113
f 438/123/114 439/125/114 437/122/114
f 441/122/115 443/125/115 442/123/115
f 446/123/116 447/125/116 445/122/116
f 449/122/117 451/125/117 450/123/117
f 454/123/118 455/125/118 453/122/118
f 457/122/119 459/125/119 458/123/119
f 462/123/120 463/125/120 461/122/120
f 465/122/121 467/125/121 466/123/121
f 470/123/122 471/125/122 469/122/122
f 473/122/123 475/125/123 474/123/123
f 478/123/124 479/125/124 477/122/124
f 481/122/125 483/125/125 482/123/125
f 486/123/126 487/125/126 485/122/126
f 489/122/127 491/125/127 490/123/127
f 494/123/128 495/125/128 493/122/128
f 497/122/129 499/125/129 498/123/129
f 502/123/130 503/125/130 501/122/130
f 505/122/131 507/125/131 506/123/131
f 510/123/132 511/125/132 509/122/132
f 513/122/131 515/125/131 514/123/131
f 518/123/132 519/125/132 517/122/132
f 521/122/133 523/125/133 522/123/133
f 526/123/134 527/125/134 525/122/134
f 529/122/79 531/125/79 530/123/79
f 534/123/80 535/125/80 533/122/80
f 537/122/81 539/125/81 538/123/81
f 540/124/82 542/123/82 543/125/82
f 545/122/83 547/125/83 546/123/83
f 550/123/84 551/125/84 549/122/84
f 553/122/85 555/125/85 554/123/85
f 558/123/86 559/125/86 557/122/86
f 561/122/87 563/125/87 562/123/87
f 566/123/88 567/125/88 565/122/88
f 569/122/89 571/125/89 570/123/89
f 574/123/90 575/125/90 573/122/90
f 577/122/91 579/125/91 578/123/91
f 582/123/92 583/125/92 581/122/92
f 585/122/93 587/125/93 586/123/93
f 590/123/94 591/125/94 589/122/94
f 593/122/95 595/125/95 594/123/95
f 598/123/96 599/125/96 597/122/96
f 601/122/97 603/125/97 602/123/97
f 606/123/98 607/125/98 605/122/98
f 609/122/99 611/125/99 610/123/99
f 614/123/100 615/125/100 613/122/100
f 617/122/101 619/125/101 618/123/101
f 622/123/102 623/125/102 621/122/102
f 625/122/103 627/125/103 626/123/103
f 630/123/104 631/125/104 629/122/104
f 633/122/105 635/125/105 634/123/105
f 638/123/106 639/125/106 637/122/106
f 641/122/107 643/125/107 642/123/107
f 646/123/108 647/125/108 645/122/108
f 649/122/109 651/125/109 650/123/109
f 654/123/110 655/125/110 653/122/110
f 657/122/111 659/125/111 658/123/111
f 662/123/112 663/125/112 661/122/112
f 665/122/113 667/125/113 666/123/113
f 670/123/114 671/125/114 669/122/114
f 673/122/115 675/125/115 674/123/115
f 678/123/116 679/125/116 677/122/116
f 681/122/117 683/125/117 682/123/117
f 686/123/118 687/125/118 685/122/118
f 689/122/119 691/125/119 690/123/119
f 694/123/120 695/125/120 693/122/120
f 697/122/121 699/125/121 698/123/121
f 702/123/122 703/125/122 701/122/122
f 705/122/123 707/125/123 706/123/123
f 710/123/124 711/125/124 709/122/124
f 713/122/125 715/125/125 714/123/125
f 718/123/126 719/125/126 717/122/126
f 721/122/127 723/125/127 722/123/127
f 726/123/128 727/125/128 725/122/128
f 729/122/129 731/125/129 730/123/129
f 734/123/130 735/125/130 733/122/130
f 737/122/131 739/125/131 738/123/131
f 742/123/132 743/125/132 741/122/132
f 745/122/131 747/125/131 746/123/131
f 750/123/132 751/125/132 749/122/132
f 753/122/133 755/125/133 754/123/133
f 758/123/134 759/125/134 757/122/134
f 761/122/79 763/125/79 762/123/79
f 766/123/80 767/125/80 765/122/80
f 769/122/81 771/125/81 770/123/81
f 773/123/82 774/125/82 772/152/82
f 776/122/83 778/125/83 777/123/83
f 781/123/84 782/125/84 780/122/84
f 784/122/85 786/125/85 785/123/85
f 788/123/86 789/125/86 787/152/86
f 791/122/87 793/125/87 792/123/87
f 795/123/88 796/125/88 794/152/88
f 798/122/89 800/125/89 799/123/89
f 803/123/90 804/125/90 802/122/90
f 806/122/91 808/125/91 807/123/91
f 811/123/92 812/125/92 810/122/92
f 814/122/93 816/125/93 815/123/93
f 818/123/185 819/125/185 817/152/185
f 821/122/95 823/125/95 822/123/95
f 825/123/96 826/125/96 824/152/96
f 828/122/97 830/125/97 829/123/97
f 833/123/98 834/125/98 832/122/98
f 836/122/99 837/125/99 835/153/99
f 840/123/100 841/125/100 839/122/100
f 843/122/101 845/125/101 844/123/101
f 848/123/102 849/125/102 847/122/102
f 851/122/103 853/125/103 852/123/103
f 856/123/104 857/125/104 855/122/104
f 859/122/105 860/125/105 858/154/105
f 862/123/106 863/125/106 861/152/106
f 865/122/107 867/125/107 866/123/107
f 870/123/108 871/125/108 869/122/108
f 873/122/109 874/125/109 872/155/109
f 876/123/110 877/125/110 875/152/110
f 879/122/111 880/125/111 878/155/111
f 883/123/112 884/125/112 882/122/112
f 886/122/113 888/125/113 887/123/113
f 891/123/114 892/125/114 890/122/114
f 894/122/115 896/125/115 895/123/115
f 899/123/116 900/125/116 898/122/116
f 902/122/117 904/125/117 903/123/117
f 907/123/118 908/125/118 906/122/118
f 910/122/119 912/125/119 911/123/119
f 915/123/120 916/125/120 914/122/120
f 918/122/121 920/125/121 919/123/121
f 923/123/122 924/125/122 922/122/122
f 926/122/123 928/125/123 927/123/123
f 931/123/124 932/125/124 930/122/124
f 934/122/125 936/125/125 935/123/125
f 939/123/126 940/125/126 938/122/126
f 942/122/127 944/125/127 943/123/127
f 947/123/128 948/125/128 946/122/128
f 950/122/129 952/125/129 951/123/129
f 955/123/130 956/125/130 954/122/130
f 958/122/131 960/125/131 959/123/131
f 963/123/132 964/125/132 962/122/132
f 966/122/131 968/125/131 967/123/131
f 971/123/132 972/125/132 970/122/132
f 974/122/133 976/125/133 975/123/133
f 979/123/134 980/125/134 978/122/134
