# Blender 5.0.1
# www.blender.org
mtllib wall_angle_1.mtl
o wall_angle_1
v -3.035110 -0.500000 3.060985
v -3.035110 4.000000 3.060985
v -3.742217 -0.500000 2.353878
v -3.742217 4.000000 2.353878
v 4.000000 -0.500000 0.500000
v 4.000000 4.000000 0.500000
v 4.000000 -0.500000 -0.500000
v 4.000000 4.000000 -0.500000
v -0.496759 -0.500000 -0.489522
v 0.496759 2.815572 -1.270399
v -0.496759 3.528668 -0.489522
v 0.496759 -0.500000 -1.270399
v 0.496759 -0.500000 -0.489522
v -0.496759 2.815572 -1.270399
v 0.496759 3.528668 -0.489522
v -0.496759 -0.500000 -1.270399
v -2.665033 4.701077 2.690908
v -3.372139 4.701077 1.983801
v 3.476632 4.701077 -0.500000
v 3.476632 4.701077 0.500000
v -0.751577 -0.500000 -0.582939
v -0.751577 4.000000 -0.582939
v -0.368893 -0.500000 0.469661
v -0.368893 4.000000 0.469661
v -0.751577 4.701077 -0.582939
v -0.368893 4.701077 0.469661
vn -0.7071 -0.0000 0.7071
vn 0.0175 -0.0000 -0.9998
vn 1.0000 -0.0000 -0.0000
vn 0.6970 -0.0000 0.7171
vn 0.8013 0.5982 -0.0000
vn -0.0000 0.7384 -0.6743
vn -0.0000 -0.0000 -1.0000
vn -1.0000 -0.0000 -0.0000
vn -0.0000 1.0000 -0.0000
vn -0.5666 0.5982 0.5666
vn -0.0079 -0.0000 1.0000
vn -0.6997 -0.0000 -0.7144
vn 0.0175 0.0130 -0.9998
vn 0.6969 0.0106 0.7171
vn -0.0069 -0.0000 1.0000
vn -0.7007 -0.0000 -0.7135
vn -0.0069 -0.0052 1.0000
vn -0.7006 -0.0068 -0.7135
vn 0.0196 -0.0000 -0.9998
vn 0.6953 -0.0000 0.7187
vt 0.051432 0.276641
vt 0.339213 1.427764
vt 0.051433 1.427764
vt 1.490336 0.276641
vt 2.641459 1.427764
vt 1.490336 1.427764
vt 2.641459 0.276641
vt 2.929240 1.427764
vt 4.080362 0.276641
vt 5.231485 1.427764
vt 4.080362 1.427764
vt 2.929240 0.024866
vt 2.929240 0.276641
vt 0.898063 1.543307
vt 1.289335 0.211026
vt 0.898063 0.211026
vt 0.675422 0.344338
vt 0.374715 0.664406
vt 0.675422 0.664406
vt 0.400245 1.543307
vt 0.400245 0.211026
vt 0.008973 0.211026
vt 1.896141 0.339142
vt 0.983313 0.582694
vt 0.983313 0.339142
vt 0.339213 0.024866
vt 0.339213 0.276640
vt 3.079855 0.074884
vt 4.080363 0.074884
vt 0.489828 0.074884
vt 1.490336 0.074884
vt 2.490844 0.074884
vt 5.080871 0.074884
vt 5.231485 0.276641
vt 0.070485 0.339142
vt 0.070485 0.582694
vt 2.641459 0.024866
vt 1.289335 1.832346
vt 0.374715 0.344338
vt 0.008974 1.832346
vt 1.896141 0.582694
vt 0.051432 0.024866
s 0
usemtl concrete
f 2/1/1 3/2/1 1/3/1
f 22/4/2 7/5/2 21/6/2
f 8/7/3 5/8/3 7/5/3
f 24/9/4 1/10/4 23/11/4
f 8/7/5 20/12/5 6/13/5
f 10/14/3 13/15/3 12/16/3
f 11/17/6 10/18/6 14/19/6
f 14/20/7 12/16/7 16/21/7
f 9/22/8 14/20/8 16/21/8
f 18/23/9 26/24/9 25/25/9
f 2/1/10 18/26/10 4/27/10
f 24/9/11 20/28/11 26/29/11
f 22/4/12 18/30/12 25/31/12
f 22/4/13 19/32/13 8/7/13
f 24/9/14 17/33/14 2/34/14
f 19/35/9 26/24/9 20/36/9
f 6/13/15 23/11/15 5/8/15
f 4/27/16 21/6/16 3/2/16
f 2/1/1 4/27/1 3/2/1
f 22/4/2 8/7/2 7/5/2
f 8/7/3 6/13/3 5/8/3
f 24/9/4 2/34/4 1/10/4
f 8/7/5 19/37/5 20/12/5
f 10/14/3 15/38/3 13/15/3
f 11/17/6 15/39/6 10/18/6
f 14/20/7 10/14/7 12/16/7
f 9/22/8 11/40/8 14/20/8
f 18/23/9 17/41/9 26/24/9
f 2/1/10 17/42/10 18/26/10
f 24/9/17 6/13/17 20/28/17
f 22/4/18 4/27/18 18/30/18
f 22/4/19 25/31/19 19/32/19
f 24/9/20 26/29/20 17/33/20
f 19/35/9 25/25/9 26/24/9
f 6/13/15 24/9/15 23/11/15
f 4/27/16 22/4/16 21/6/16
