# Blender 5.1.2
# www.blender.org
mtllib wall_0.mtl
o wall_0
v -4.000000 -0.500000 0.500000
v -4.000000 4.000000 0.500000
v -4.000000 -0.500000 -0.500000
v -4.000000 4.000000 -0.500000
v 4.000000 -0.500000 0.500000
v 4.000000 4.000000 0.500000
v 4.000000 -0.500000 -0.500000
v 4.000000 4.000000 -0.500000
v -0.496759 -0.500000 -0.489522
v 0.496759 2.815572 -1.270399
v -0.496759 3.528668 -0.489522
v 0.496759 -0.500000 -1.270399
v 0.496759 -0.500000 -0.489522
v -0.496759 2.815572 -1.270399
v 0.496759 3.528668 -0.489522
v -0.496759 -0.500000 -1.270399
vn -1.0000 -0.0000 -0.0000
vn -0.0000 -0.0000 -1.0000
vn 1.0000 -0.0000 -0.0000
vn -0.0000 -0.0000 1.0000
vn -0.0000 1.0000 -0.0000
vn -0.0000 0.7384 -0.6743
vt 0.001963 0.026532
vt 0.331709 1.345514
vt 0.001963 1.345514
vt 0.331709 0.026532
vt 2.969673 1.345515
vt 2.969673 0.026532
vt 3.299418 1.345515
vt 3.299418 0.026532
vt 5.937383 1.345515
vt 1.896141 0.339142
vt 0.070485 0.582694
vt 0.070485 0.339142
vt 0.898063 1.543307
vt 1.289335 0.211026
vt 0.898063 0.211026
vt 0.675422 0.344338
vt 0.374715 0.664406
vt 0.675422 0.664406
vt 0.400245 1.543307
vt 0.400245 0.211026
vt 0.008973 0.211026
vt 5.937383 0.026533
vt 1.896141 0.582694
vt 1.289335 1.832346
vt 0.374715 0.344338
vt 0.008974 1.832346
s 0
usemtl concrete
f 2/1/1 3/2/1 1/3/1
f 4/4/2 7/5/2 3/2/2
f 8/6/3 5/7/3 7/5/3
f 6/8/4 1/9/4 5/7/4
f 4/10/5 6/11/5 8/12/5
f 10/13/3 13/14/3 12/15/3
f 11/16/6 10/17/6 14/18/6
f 14/19/2 12/15/2 16/20/2
f 9/21/1 14/19/1 16/20/1
f 2/1/1 4/4/1 3/2/1
f 4/4/2 8/6/2 7/5/2
f 8/6/3 6/8/3 5/7/3
f 6/8/4 2/22/4 1/9/4
f 4/10/5 2/23/5 6/11/5
f 10/13/3 15/24/3 13/14/3
f 11/16/6 15/25/6 10/17/6
f 14/19/2 10/13/2 12/15/2
f 9/21/1 11/26/1 14/19/1
