# Blender 5.0.1
# www.blender.org
mtllib wall_angle_0.mtl
o wall_angle_0
v -3.060660 -0.500000 3.078938
v -3.060660 4.000000 3.078938
v -3.767767 -0.500000 2.371832
v -3.767767 4.000000 2.371832
v 4.000000 -0.500000 0.500000
v 4.000000 4.000000 0.500000
v 4.000000 -0.500000 -0.500000
v 4.000000 4.000000 -0.500000
v -0.496759 -0.500000 -0.489522
v 0.496759 2.815572 -1.270399
v -0.496759 3.528668 -0.489522
v 0.496759 -0.500000 -1.270399
v 0.496759 -0.500000 -0.489522
v -0.496759 2.815572 -1.270399
v 0.496759 3.528668 -0.489522
v -0.496759 -0.500000 -1.270399
v -0.777128 -0.500000 -0.472202
v -0.777128 4.000000 -0.472202
v -0.362389 -0.500000 0.531122
v -0.362389 4.000000 0.531122
vn -0.7071 -0.0000 0.7071
vn -0.0058 -0.0000 -1.0000
vn 1.0000 -0.0000 -0.0000
vn 0.6865 -0.0000 0.7271
vn -0.0000 1.0000 -0.0000
vn -0.0000 0.7384 -0.6743
vn -0.0000 -0.0000 -1.0000
vn -1.0000 -0.0000 -0.0000
vn 0.0071 -0.0000 1.0000
vn -0.6891 -0.0000 -0.7246
vt 0.001963 0.026532
vt 0.331709 1.345514
vt 0.001963 1.345514
vt 1.650691 0.026532
vt 2.969673 1.345515
vt 1.650691 1.345514
vt 2.969673 0.026532
vt 3.299418 1.345515
vt 4.618401 0.026533
vt 5.937383 1.345515
vt 4.618401 1.345515
vt 1.896141 0.339142
vt 0.983313 0.582694
vt 0.983313 0.339142
vt 0.898063 1.543307
vt 1.289335 0.211026
vt 0.898063 0.211026
vt 0.675422 0.344338
vt 0.374715 0.664406
vt 0.675422 0.664406
vt 0.400245 1.543307
vt 0.400245 0.211026
vt 0.008973 0.211026
vt 0.070485 0.339142
vt 0.070485 0.582694
vt 3.299418 0.026532
vt 0.331709 0.026532
vt 5.937383 0.026533
vt 1.896141 0.582694
vt 1.289335 1.832346
vt 0.374715 0.344338
vt 0.008974 1.832346
s 0
usemtl concrete
f 2/1/1 3/2/1 1/3/1
f 18/4/2 7/5/2 17/6/2
f 8/7/3 5/8/3 7/5/3
f 20/9/4 1/10/4 19/11/4
f 4/12/5 20/13/5 18/14/5
f 10/15/3 13/16/3 12/17/3
f 11/18/6 10/19/6 14/20/6
f 14/21/7 12/17/7 16/22/7
f 9/23/8 14/21/8 16/22/8
f 8/24/5 20/13/5 6/25/5
f 6/26/9 19/11/9 5/8/9
f 4/27/10 17/6/10 3/2/10
f 2/1/1 4/27/1 3/2/1
f 18/4/2 8/7/2 7/5/2
f 8/7/3 6/26/3 5/8/3
f 20/9/4 2/28/4 1/10/4
f 4/12/5 2/29/5 20/13/5
f 10/15/3 15/30/3 13/16/3
f 11/18/6 15/31/6 10/19/6
f 14/21/7 10/15/7 12/17/7
f 9/23/8 11/32/8 14/21/8
f 8/24/5 18/14/5 20/13/5
f 6/26/9 20/9/9 19/11/9
f 4/27/10 18/4/10 17/6/10
