# Blender 5.0.1
# www.blender.org
mtllib wall_1.mtl
o wall_1
v -4.000000 -0.500000 0.500000
v -4.000000 4.000000 0.500000
v -4.000000 -0.500000 -0.500000
v -4.000000 4.000000 -0.500000
v 4.000000 -0.500000 0.500000
v 4.000000 4.000000 0.500000
v 4.000000 -0.500000 -0.500000
v 4.000000 4.000000 -0.500000
v -0.496759 -0.500000 -0.489522
v 0.496759 2.815572 -1.270399
v -0.496759 3.528668 -0.489522
v 0.496759 -0.500000 -1.270399
v 0.496759 -0.500000 -0.489522
v -0.496759 2.815572 -1.270399
v 0.496759 3.528668 -0.489522
v -0.496759 -0.500000 -1.270399
v -3.476632 4.701077 0.500000
v -3.476632 4.701077 -0.500000
v 3.476632 4.701077 -0.500000
v 3.476632 4.701077 0.500000
vn -1.0000 -0.0000 -0.0000
vn -0.0000 -0.0000 -1.0000
vn 1.0000 -0.0000 -0.0000
vn -0.0000 -0.0000 1.0000
vn 0.8013 0.5982 -0.0000
vn -0.0000 0.7384 -0.6743
vn -0.0000 1.0000 -0.0000
vn -0.8013 0.5982 -0.0000
vt 0.051432 0.276641
vt 0.339213 1.427764
vt 0.051433 1.427764
vt 0.339213 0.276640
vt 2.641459 1.427764
vt 2.641459 0.276641
vt 2.929240 1.427764
vt 2.929240 0.276641
vt 5.231485 1.427764
vt 2.929240 0.024866
vt 0.898063 1.543307
vt 1.289335 0.211026
vt 0.898063 0.211026
vt 0.675422 0.344338
vt 0.374715 0.664406
vt 0.675422 0.664406
vt 0.400245 1.543307
vt 0.400245 0.211026
vt 0.008973 0.211026
vt 1.896141 0.339142
vt 0.070485 0.582694
vt 0.070485 0.339142
vt 0.339213 0.024866
vt 5.080871 0.074884
vt 5.231485 0.276641
vt 2.490844 0.074884
vt 2.641459 0.024866
vt 1.289335 1.832346
vt 0.374715 0.344338
vt 0.008974 1.832346
vt 1.896141 0.582694
vt 0.051432 0.024866
vt 3.079855 0.074884
vt 0.489828 0.074884
s 0
usemtl concrete
f 2/1/1 3/2/1 1/3/1
f 4/4/2 7/5/2 3/2/2
f 8/6/3 5/7/3 7/5/3
f 6/8/4 1/9/4 5/7/4
f 8/6/5 20/10/5 6/8/5
f 10/11/3 13/12/3 12/13/3
f 11/14/6 10/15/6 14/16/6
f 14/17/2 12/13/2 16/18/2
f 9/19/1 14/17/1 16/18/1
f 18/20/7 20/21/7 19/22/7
f 2/1/8 18/23/8 4/4/8
f 6/8/4 17/24/4 2/25/4
f 4/4/2 19/26/2 8/6/2
f 2/1/1 4/4/1 3/2/1
f 4/4/2 8/6/2 7/5/2
f 8/6/3 6/8/3 5/7/3
f 6/8/4 2/25/4 1/9/4
f 8/6/5 19/27/5 20/10/5
f 10/11/3 15/28/3 13/12/3
f 11/14/6 15/29/6 10/15/6
f 14/17/2 10/11/2 12/13/2
f 9/19/1 11/30/1 14/17/1
f 18/20/7 17/31/7 20/21/7
f 2/1/8 17/32/8 18/23/8
f 6/8/4 20/33/4 17/24/4
f 4/4/2 18/34/2 19/26/2
