# Blender 5.1.2
# www.blender.org
mtllib wire_1.mtl
o wire_1
v 0.000001 0.200000 -0.003475
v 0.000001 -0.200000 -0.003475
v 0.000001 0.238956 4.464336
v 0.000001 -0.160983 4.471317
v 0.000001 0.355819 8.927301
v 0.000001 -0.043937 8.941261
v 0.000001 0.550554 13.387547
v 0.000001 0.151102 13.408482
v 0.000001 0.823101 17.843716
v 0.000001 0.424076 17.871618
v 0.000001 1.173378 22.294449
v 0.000001 0.774900 22.329311
v 0.000001 1.601277 26.738390
v 0.000001 1.203468 26.780203
v 0.000001 2.106669 31.174187
v 0.000001 1.709650 31.222937
v 0.000001 2.689399 35.600487
v 0.000001 2.293292 35.656158
v 0.000000 0.238956 -4.471287
v 0.000000 -0.160983 -4.478268
v 0.000000 0.355819 -8.934252
v 0.000000 -0.043937 -8.948212
v -0.000000 0.550554 -13.394497
v -0.000000 0.151102 -13.415432
v -0.000001 0.823101 -17.850666
v -0.000001 0.424076 -17.878569
v -0.000001 1.173378 -22.301399
v -0.000001 0.774900 -22.336262
v -0.000002 1.601277 -26.745340
v -0.000002 1.203468 -26.787153
v -0.000002 2.106669 -31.181137
v -0.000002 1.709650 -31.229887
v -0.000002 2.689399 -35.607437
v -0.000002 2.293292 -35.663109
v 0.000001 0.200000 -0.003475
v 0.000001 -0.200000 -0.003475
v 0.000001 0.238956 4.464336
v 0.000001 -0.160983 4.471317
v 0.000001 0.355819 8.927301
v 0.000001 -0.043937 8.941261
v 0.000001 0.550554 13.387547
v 0.000001 0.151102 13.408482
v 0.000001 0.823101 17.843716
v 0.000001 0.424076 17.871618
v 0.000001 1.173378 22.294449
v 0.000001 0.774900 22.329311
v 0.000001 1.601277 26.738390
v 0.000001 1.203468 26.780203
v 0.000001 2.106669 31.174187
v 0.000001 1.709650 31.222937
v 0.000001 2.689399 35.600487
v 0.000001 2.293292 35.656158
v 0.000000 0.238956 -4.471287
v 0.000000 -0.160983 -4.478268
v 0.000000 0.355819 -8.934252
v 0.000000 -0.043937 -8.948212
v -0.000000 0.550554 -13.394497
v -0.000000 0.151102 -13.415432
v -0.000001 0.823101 -17.850666
v -0.000001 0.424076 -17.878569
v -0.000001 1.173378 -22.301399
v -0.000001 0.774900 -22.336262
v -0.000002 1.601277 -26.745340
v -0.000002 1.203468 -26.787153
v -0.000002 2.106669 -31.181137
v -0.000002 1.709650 -31.229887
v -0.000002 2.689399 -35.607437
v -0.000002 2.293292 -35.663109
vn -1.0000 -0.0000 -0.0000
vn 1.0000 -0.0000 -0.0000
vt 0.051433 0.496092
vt 0.297870 3.291596
vt 0.301370 0.496092
vt 0.047820 3.291002
vt 0.288627 6.084820
vt 0.038581 6.083799
vt 0.275094 8.878002
vt 0.025048 8.876607
vt 0.257549 11.671096
vt 0.007487 11.669461
vt 0.242943 14.463145
vt -0.007257 14.463465
vt 0.299439 17.248507
vt 0.049364 17.264282
vt 0.670192 20.001572
vt 0.426100 20.057785
vt 1.510119 22.653023
vt 0.297870 -2.299409
vt 0.047821 -2.298815
vt 0.288628 -5.092635
vt 0.038581 -5.091613
vt 0.275094 -7.885815
vt 0.025049 -7.884419
vt 0.257550 -10.678912
vt 0.007488 -10.677276
vt 0.242945 -13.470958
vt -0.007257 -13.471277
vt 0.299440 -16.256321
vt 0.049365 -16.272097
vt 0.670192 -19.009386
vt 0.426100 -19.065599
vt 1.510119 -21.660835
vt 1.275302 22.737234
vt 1.275303 -21.745047
s 0
usemtl cable
f 2/1/1 3/2/1 1/3/1
f 4/4/1 5/5/1 3/2/1
f 6/6/1 7/7/1 5/5/1
f 8/8/1 9/9/1 7/7/1
f 10/10/1 11/11/1 9/9/1
f 12/12/1 13/13/1 11/11/1
f 14/14/1 15/15/1 13/13/1
f 16/16/1 17/17/1 15/15/1
f 2/1/2 19/18/2 1/3/2
f 20/19/2 21/20/2 19/18/2
f 22/21/2 23/22/2 21/20/2
f 24/23/2 25/24/2 23/22/2
f 26/25/2 27/26/2 25/24/2
f 28/27/2 29/28/2 27/26/2
f 30/29/2 31/30/2 29/28/2
f 32/31/2 33/32/2 31/30/2
f 37/2/2 36/1/2 35/3/2
f 39/5/2 38/4/2 37/2/2
f 41/7/2 40/6/2 39/5/2
f 43/9/2 42/8/2 41/7/2
f 45/11/2 44/10/2 43/9/2
f 47/13/2 46/12/2 45/11/2
f 49/15/2 48/14/2 47/13/2
f 51/17/2 50/16/2 49/15/2
f 53/18/1 36/1/1 35/3/1
f 55/20/1 54/19/1 53/18/1
f 57/22/1 56/21/1 55/20/1
f 59/24/1 58/23/1 57/22/1
f 61/26/1 60/25/1 59/24/1
f 63/28/1 62/27/1 61/26/1
f 65/30/1 64/29/1 63/28/1
f 67/32/1 66/31/1 65/30/1
f 2/1/1 4/4/1 3/2/1
f 4/4/1 6/6/1 5/5/1
f 6/6/1 8/8/1 7/7/1
f 8/8/1 10/10/1 9/9/1
f 10/10/1 12/12/1 11/11/1
f 12/12/1 14/14/1 13/13/1
f 14/14/1 16/16/1 15/15/1
f 16/16/1 18/33/1 17/17/1
f 2/1/2 20/19/2 19/18/2
f 20/19/2 22/21/2 21/20/2
f 22/21/2 24/23/2 23/22/2
f 24/23/2 26/25/2 25/24/2
f 26/25/2 28/27/2 27/26/2
f 28/27/2 30/29/2 29/28/2
f 30/29/2 32/31/2 31/30/2
f 32/31/2 34/34/2 33/32/2
f 37/2/2 38/4/2 36/1/2
f 39/5/2 40/6/2 38/4/2
f 41/7/2 42/8/2 40/6/2
f 43/9/2 44/10/2 42/8/2
f 45/11/2 46/12/2 44/10/2
f 47/13/2 48/14/2 46/12/2
f 49/15/2 50/16/2 48/14/2
f 51/17/2 52/33/2 50/16/2
f 53/18/1 54/19/1 36/1/1
f 55/20/1 56/21/1 54/19/1
f 57/22/1 58/23/1 56/21/1
f 59/24/1 60/25/1 58/23/1
f 61/26/1 62/27/1 60/25/1
f 63/28/1 64/29/1 62/27/1
f 65/30/1 66/31/1 64/29/1
f 67/32/1 68/34/1 66/31/1
