# Blender 5.1.2
# www.blender.org
mtllib wire_0.mtl
o wire_0
v 0.000001 0.200000 0.000011
v 0.000000 0.217109 2.091029
v 0.000000 -0.182838 2.097574
v 0.000000 0.268428 4.181499
v 0.000000 -0.131358 4.194586
v 0.000000 0.353944 6.270849
v 0.000000 -0.045574 6.290475
v 0.000000 0.473635 8.358520
v 0.000000 0.074491 8.384681
v 0.000000 0.627467 10.443953
v 0.000000 0.228805 10.476641
v 0.000000 0.815400 12.526590
v 0.000000 0.417326 12.565796
v 0.000000 1.037383 14.605875
v 0.000000 0.640004 14.651587
v 0.000000 1.293357 16.681248
v 0.000000 0.896779 16.733456
v 0.000000 1.583254 18.752153
v 0.000000 1.187583 18.810844
v 0.000000 1.906995 20.818039
v 0.000000 1.512337 20.883198
v 0.000000 2.264494 22.878351
v 0.000000 1.870956 22.949959
v 0.000000 2.655656 24.932539
v 0.000000 2.263342 25.010574
v 0.000000 3.080375 26.980051
v 0.000000 2.689391 27.064495
v 0.000000 3.538539 29.020340
v 0.000000 3.148989 29.111170
v 0.000000 4.030024 31.052858
v 0.000000 3.642012 31.150051
v 0.000000 4.554699 33.077065
v 0.000000 4.168329 33.180595
v 0.000001 -0.200000 0.000011
v 0.000001 0.217109 -2.091007
v 0.000001 -0.182838 -2.097551
v 0.000001 0.268428 -4.181477
v 0.000001 -0.131358 -4.194563
v 0.000001 0.353945 -6.270826
v 0.000001 -0.045574 -6.290453
v 0.000001 0.473635 -8.358498
v 0.000001 0.074491 -8.384659
v 0.000001 0.627467 -10.443930
v 0.000001 0.228805 -10.476618
v 0.000000 0.815400 -12.526567
v 0.000000 0.417326 -12.565773
v 0.000000 1.037383 -14.605852
v 0.000000 0.640004 -14.651564
v -0.000000 1.293357 -16.681225
v -0.000000 0.896779 -16.733433
v -0.000000 1.583254 -18.752131
v -0.000000 1.187583 -18.810822
v -0.000000 1.906995 -20.818016
v -0.000000 1.512337 -20.883175
v -0.000001 2.264494 -22.878328
v -0.000001 1.870956 -22.949936
v -0.000001 2.655656 -24.932516
v -0.000001 2.263342 -25.010551
v -0.000001 3.080375 -26.980028
v -0.000001 2.689391 -27.064472
v -0.000001 3.538539 -29.020317
v -0.000001 3.148989 -29.111147
v -0.000001 4.030024 -31.052835
v -0.000001 3.642012 -31.150028
v -0.000001 4.554699 -33.077042
v -0.000001 4.168329 -33.180573
v 0.000001 0.200000 0.000011
v 0.000000 0.217109 2.091029
v 0.000000 -0.182838 2.097574
v 0.000000 0.268428 4.181499
v 0.000000 -0.131358 4.194586
v 0.000000 0.353944 6.270849
v 0.000000 -0.045574 6.290475
v 0.000000 0.473635 8.358520
v 0.000000 0.074491 8.384681
v 0.000000 0.627467 10.443953
v 0.000000 0.228805 10.476641
v 0.000000 0.815400 12.526590
v 0.000000 0.417326 12.565796
v 0.000000 1.037383 14.605875
v 0.000000 0.640004 14.651587
v 0.000000 1.293357 16.681248
v 0.000000 0.896779 16.733456
v 0.000000 1.583254 18.752153
v 0.000000 1.187583 18.810844
v 0.000000 1.906995 20.818039
v 0.000000 1.512337 20.883198
v 0.000000 2.264494 22.878351
v 0.000000 1.870956 22.949959
v 0.000000 2.655656 24.932539
v 0.000000 2.263342 25.010574
v 0.000000 3.080375 26.980051
v 0.000000 2.689391 27.064495
v 0.000000 3.538539 29.020340
v 0.000000 3.148989 29.111170
v 0.000000 4.030024 31.052858
v 0.000000 3.642012 31.150051
v 0.000000 4.554699 33.077065
v 0.000000 4.168329 33.180595
v 0.000001 -0.200000 0.000011
v 0.000001 0.217109 -2.091007
v 0.000001 -0.182838 -2.097551
v 0.000001 0.268428 -4.181477
v 0.000001 -0.131358 -4.194563
v 0.000001 0.353945 -6.270826
v 0.000001 -0.045574 -6.290453
v 0.000001 0.473635 -8.358498
v 0.000001 0.074491 -8.384659
v 0.000001 0.627467 -10.443930
v 0.000001 0.228805 -10.476618
v 0.000000 0.815400 -12.526567
v 0.000000 0.417326 -12.565773
v 0.000000 1.037383 -14.605852
v 0.000000 0.640004 -14.651564
v -0.000000 1.293357 -16.681225
v -0.000000 0.896779 -16.733433
v -0.000000 1.583254 -18.752131
v -0.000000 1.187583 -18.810822
v -0.000000 1.906995 -20.818016
v -0.000000 1.512337 -20.883175
v -0.000001 2.264494 -22.878328
v -0.000001 1.870956 -22.949936
v -0.000001 2.655656 -24.932516
v -0.000001 2.263342 -25.010551
v -0.000001 3.080375 -26.980028
v -0.000001 2.689391 -27.064472
v -0.000001 3.538539 -29.020317
v -0.000001 3.148989 -29.111147
v -0.000001 4.030024 -31.052835
v -0.000001 3.642012 -31.150028
v -0.000001 4.554699 -33.077042
v -0.000001 4.168329 -33.180573
vn -1.0000 -0.0000 -0.0000
vn 1.0000 -0.0000 -0.0000
vt 0.577057 0.675781
vt 0.388880 1.665996
vt 0.577975 1.665671
vt 0.391064 2.656113
vt 0.580156 2.655668
vt 0.393383 3.646155
vt 0.582473 3.645738
vt 0.395426 4.636180
vt 0.584516 4.635827
vt 0.397101 5.626198
vt 0.586191 5.625924
vt 0.398299 6.616202
vt 0.587390 6.616037
vt 0.398762 7.606165
vt 0.587855 7.606192
vt 0.397884 8.596070
vt 0.586969 8.596404
vt 0.395531 9.586067
vt 0.584614 9.586521
vt 0.393501 10.576077
vt 0.582399 10.576616
vt 0.576487 11.567695
vt 0.362563 12.552417
vt 0.551526 12.559995
vt 0.307736 13.538925
vt 0.495937 13.550722
vt 0.265463 14.538075
vt 0.453753 14.531127
vt 0.458529 15.550770
vt 0.638760 15.480876
vt 1.129142 16.321278
vt 0.388879 -0.314433
vt 0.577975 -0.314109
vt 0.391063 -1.304549
vt 0.580156 -1.304106
vt 0.393383 -2.294593
vt 0.582472 -2.294175
vt 0.395426 -3.284618
vt 0.584515 -3.284264
vt 0.397101 -4.274635
vt 0.586191 -4.274360
vt 0.398299 -5.264638
vt 0.587390 -5.264473
vt 0.398761 -6.254602
vt 0.587854 -6.254628
vt 0.397884 -7.244508
vt 0.586969 -7.244842
vt 0.395531 -8.234505
vt 0.584613 -8.234958
vt 0.393500 -9.224515
vt 0.582399 -9.225053
vt 0.576487 -10.216132
vt 0.362562 -11.200853
vt 0.551525 -11.208431
vt 0.307736 -12.187362
vt 0.495936 -12.199159
vt 0.265462 -13.186512
vt 0.453753 -13.179564
vt 0.458528 -14.199207
vt 0.638760 -14.129313
vt 1.129142 -14.969713
vt 0.387837 0.675781
vt 0.387099 11.565092
vt 0.387098 -10.213530
vt 0.974695 16.426537
vt 0.974694 -15.074972
s 0
usemtl cable
f 1/1/1 3/2/1 2/3/1
f 2/3/1 5/4/1 4/5/1
f 4/5/1 7/6/1 6/7/1
f 6/7/1 9/8/1 8/9/1
f 8/9/1 11/10/1 10/11/1
f 10/11/1 13/12/1 12/13/1
f 12/13/1 15/14/1 14/15/1
f 14/15/1 17/16/1 16/17/1
f 16/17/1 19/18/1 18/19/1
f 18/19/1 21/20/1 20/21/1
f 21/20/1 22/22/1 20/21/1
f 22/22/1 25/23/1 24/24/1
f 24/24/1 27/25/1 26/26/1
f 26/26/1 29/27/1 28/28/1
f 28/28/1 31/29/1 30/30/1
f 31/29/1 32/31/1 30/30/1
f 1/1/2 36/32/2 35/33/2
f 35/33/2 38/34/2 37/35/2
f 37/35/2 40/36/2 39/37/2
f 39/37/2 42/38/2 41/39/2
f 41/39/2 44/40/2 43/41/2
f 43/41/2 46/42/2 45/43/2
f 45/43/2 48/44/2 47/45/2
f 47/45/2 50/46/2 49/47/2
f 49/47/2 52/48/2 51/49/2
f 51/49/2 54/50/2 53/51/2
f 54/50/2 55/52/2 53/51/2
f 55/52/2 58/53/2 57/54/2
f 57/54/2 60/55/2 59/56/2
f 59/56/2 62/57/2 61/58/2
f 61/58/2 64/59/2 63/60/2
f 64/59/2 65/61/2 63/60/2
f 67/1/2 69/2/2 100/62/2
f 68/3/2 71/4/2 69/2/2
f 70/5/2 73/6/2 71/4/2
f 72/7/2 75/8/2 73/6/2
f 74/9/2 77/10/2 75/8/2
f 76/11/2 79/12/2 77/10/2
f 78/13/2 81/14/2 79/12/2
f 80/15/2 83/16/2 81/14/2
f 82/17/2 85/18/2 83/16/2
f 84/19/2 87/20/2 85/18/2
f 88/22/2 87/20/2 86/21/2
f 88/22/2 91/23/2 89/63/2
f 90/24/2 93/25/2 91/23/2
f 92/26/2 95/27/2 93/25/2
f 94/28/2 97/29/2 95/27/2
f 98/31/2 97/29/2 96/30/2
f 67/1/1 102/32/1 100/62/1
f 101/33/1 104/34/1 102/32/1
f 103/35/1 106/36/1 104/34/1
f 105/37/1 108/38/1 106/36/1
f 107/39/1 110/40/1 108/38/1
f 109/41/1 112/42/1 110/40/1
f 111/43/1 114/44/1 112/42/1
f 113/45/1 116/46/1 114/44/1
f 115/47/1 118/48/1 116/46/1
f 117/49/1 120/50/1 118/48/1
f 121/52/1 120/50/1 119/51/1
f 121/52/1 124/53/1 122/64/1
f 123/54/1 126/55/1 124/53/1
f 125/56/1 128/57/1 126/55/1
f 127/58/1 130/59/1 128/57/1
f 131/61/1 130/59/1 129/60/1
f 1/1/1 34/62/1 3/2/1
f 2/3/1 3/2/1 5/4/1
f 4/5/1 5/4/1 7/6/1
f 6/7/1 7/6/1 9/8/1
f 8/9/1 9/8/1 11/10/1
f 10/11/1 11/10/1 13/12/1
f 12/13/1 13/12/1 15/14/1
f 14/15/1 15/14/1 17/16/1
f 16/17/1 17/16/1 19/18/1
f 18/19/1 19/18/1 21/20/1
f 21/20/1 23/63/1 22/22/1
f 22/22/1 23/63/1 25/23/1
f 24/24/1 25/23/1 27/25/1
f 26/26/1 27/25/1 29/27/1
f 28/28/1 29/27/1 31/29/1
f 31/29/1 33/65/1 32/31/1
f 1/1/2 34/62/2 36/32/2
f 35/33/2 36/32/2 38/34/2
f 37/35/2 38/34/2 40/36/2
f 39/37/2 40/36/2 42/38/2
f 41/39/2 42/38/2 44/40/2
f 43/41/2 44/40/2 46/42/2
f 45/43/2 46/42/2 48/44/2
f 47/45/2 48/44/2 50/46/2
f 49/47/2 50/46/2 52/48/2
f 51/49/2 52/48/2 54/50/2
f 54/50/2 56/64/2 55/52/2
f 55/52/2 56/64/2 58/53/2
f 57/54/2 58/53/2 60/55/2
f 59/56/2 60/55/2 62/57/2
f 61/58/2 62/57/2 64/59/2
f 64/59/2 66/66/2 65/61/2
f 67/1/2 68/3/2 69/2/2
f 68/3/2 70/5/2 71/4/2
f 70/5/2 72/7/2 73/6/2
f 72/7/2 74/9/2 75/8/2
f 74/9/2 76/11/2 77/10/2
f 76/11/2 78/13/2 79/12/2
f 78/13/2 80/15/2 81/14/2
f 80/15/2 82/17/2 83/16/2
f 82/17/2 84/19/2 85/18/2
f 84/19/2 86/21/2 87/20/2
f 88/22/2 89/63/2 87/20/2
f 88/22/2 90/24/2 91/23/2
f 90/24/2 92/26/2 93/25/2
f 92/26/2 94/28/2 95/27/2
f 94/28/2 96/30/2 97/29/2
f 98/31/2 99/65/2 97/29/2
f 67/1/1 101/33/1 102/32/1
f 101/33/1 103/35/1 104/34/1
f 103/35/1 105/37/1 106/36/1
f 105/37/1 107/39/1 108/38/1
f 107/39/1 109/41/1 110/40/1
f 109/41/1 111/43/1 112/42/1
f 111/43/1 113/45/1 114/44/1
f 113/45/1 115/47/1 116/46/1
f 115/47/1 117/49/1 118/48/1
f 117/49/1 119/51/1 120/50/1
f 121/52/1 122/64/1 120/50/1
f 121/52/1 123/54/1 124/53/1
f 123/54/1 125/56/1 126/55/1
f 125/56/1 127/58/1 128/57/1
f 127/58/1 129/60/1 130/59/1
f 131/61/1 132/66/1 130/59/1
