# Blender 5.1.1
# www.blender.org
mtllib bookshelf.mtl
o bookshelf
v -0.200000 0.000000 0.600000
v -0.200000 2.000000 0.600000
v -0.200000 0.000000 -0.600000
v -0.200000 2.000000 -0.600000
v 0.200000 0.068062 0.531938
v 0.200000 1.931938 0.531938
v 0.200000 0.068062 -0.531938
v 0.200000 1.931938 -0.531938
v 0.200000 2.000000 -0.600000
v 0.200000 0.000000 -0.600000
v 0.200000 0.000000 0.600000
v 0.200000 2.000000 0.600000
v -0.087075 1.931938 -0.531938
v -0.087075 0.068062 -0.531938
v -0.087075 0.068062 0.531938
v -0.087075 1.931938 0.531938
v -0.200000 0.234090 0.600000
v -0.200000 0.387936 0.600000
v -0.200000 0.541782 0.600000
v -0.200000 0.695629 0.600000
v -0.200000 0.849475 0.600000
v -0.200000 1.003321 0.600000
v -0.200000 1.157167 0.600000
v -0.200000 1.311013 0.600000
v -0.200000 1.464859 0.600000
v -0.200000 1.618706 0.600000
v -0.200000 1.772552 0.600000
v -0.200000 1.926398 0.600000
v -0.200000 1.926398 -0.600000
v -0.200000 1.772552 -0.600000
v -0.200000 1.618706 -0.600000
v -0.200000 1.464859 -0.600000
v -0.200000 1.311013 -0.600000
v -0.200000 1.157167 -0.600000
v -0.200000 1.003321 -0.600000
v -0.200000 0.849475 -0.600000
v -0.200000 0.695629 -0.600000
v -0.200000 0.541782 -0.600000
v -0.200000 0.387936 -0.600000
v -0.200000 0.234090 -0.600000
v 0.200000 1.926398 -0.600000
v 0.200000 1.772552 -0.600000
v 0.200000 1.618706 -0.600000
v 0.200000 1.464859 -0.600000
v 0.200000 1.311013 -0.600000
v 0.200000 1.157167 -0.600000
v 0.200000 1.003321 -0.600000
v 0.200000 0.849475 -0.600000
v 0.200000 0.695629 -0.600000
v 0.200000 0.541782 -0.600000
v 0.200000 0.387936 -0.600000
v 0.200000 0.234090 -0.600000
v 0.200000 1.926398 0.600000
v 0.200000 1.772552 0.600000
v 0.200000 1.618706 0.600000
v 0.200000 1.464859 0.600000
v 0.200000 1.311013 0.600000
v 0.200000 1.157167 0.600000
v 0.200000 1.003321 0.600000
v 0.200000 0.849475 0.600000
v 0.200000 0.695629 0.600000
v 0.200000 0.541782 0.600000
v 0.200000 0.387936 0.600000
v 0.200000 0.234090 0.600000
v 0.200000 1.809580 -0.531938
v 0.200000 1.773736 -0.531938
v 0.200000 1.522830 -0.531938
v 0.200000 1.486986 -0.531938
v 0.200000 1.236079 -0.531938
v 0.200000 1.200236 -0.531938
v 0.200000 0.949329 -0.531938
v 0.200000 0.913485 -0.531938
v 0.200000 0.662579 -0.531938
v 0.200000 0.626735 -0.531938
v 0.200000 0.375829 -0.531938
v 0.200000 0.339985 -0.531938
v 0.200000 1.809580 0.531938
v 0.200000 1.773736 0.531938
v 0.200000 1.522830 0.531938
v 0.200000 1.486986 0.531938
v 0.200000 1.236079 0.531938
v 0.200000 1.200236 0.531938
v 0.200000 0.949329 0.531938
v 0.200000 0.913485 0.531938
v 0.200000 0.662579 0.531938
v 0.200000 0.626735 0.531938
v 0.200000 0.375829 0.531938
v 0.200000 0.339985 0.531938
v -0.087075 1.746854 -0.531938
v -0.087075 1.711010 -0.531938
v -0.087075 1.460104 -0.531938
v -0.087075 1.424260 -0.531938
v -0.087075 1.173354 -0.531938
v -0.087075 1.137510 -0.531938
v -0.087075 0.886603 -0.531938
v -0.087075 0.850760 -0.531938
v -0.087075 0.599853 -0.531938
v -0.087075 0.564009 -0.531938
v -0.087075 0.313103 -0.531938
v -0.087075 0.277259 -0.531938
v -0.087075 1.746854 0.531938
v -0.087075 1.711010 0.531938
v -0.087075 1.460104 0.531938
v -0.087075 1.424260 0.531938
v -0.087075 1.173354 0.531938
v -0.087075 1.137510 0.531938
v -0.087075 0.886603 0.531938
v -0.087075 0.850760 0.531938
v -0.087075 0.599853 0.531938
v -0.087075 0.564009 0.531938
v -0.087075 0.313103 0.531938
v -0.087075 0.277259 0.531938
v 0.177040 1.746854 -0.531938
v 0.177040 1.711010 -0.531938
v 0.177040 1.460104 -0.531938
v 0.177040 1.424260 -0.531938
v 0.177040 1.173354 -0.531938
v 0.177040 1.137510 -0.531938
v 0.177040 0.886603 -0.531938
v 0.177040 0.850760 -0.531938
v 0.177040 0.599853 -0.531938
v 0.177040 0.564009 -0.531938
v 0.177040 0.313103 -0.531938
v 0.177040 0.277259 -0.531938
v 0.177040 1.746854 0.531938
v 0.177040 1.711010 0.531938
v 0.177040 1.460104 0.531938
v 0.177040 1.424260 0.531938
v 0.177040 1.173354 0.531938
v 0.177040 1.137510 0.531938
v 0.177040 0.886603 0.531938
v 0.177040 0.850760 0.531938
v 0.177040 0.599853 0.531938
v 0.177040 0.564009 0.531938
v 0.177040 0.313103 0.531938
v 0.177040 0.277259 0.531938
vn -0.0000 -1.0000 -0.0000
vn -0.0000 1.0000 -0.0000
vn 1.0000 -0.0000 -0.0000
vn -0.0000 -0.0000 1.0000
vn -0.0000 -0.0000 -1.0000
vn -1.0000 -0.0000 -0.0000
vt 0.805674 -0.023461
vt 0.231525 1.040415
vt 0.805674 1.040415
vt 0.805674 1.108477
vt 0.005674 -0.091523
vt 0.005674 1.108477
vt 0.805674 -0.091523
vt -0.563876 -0.440415
vt 1.700000 -0.508477
vt 1.563876 -0.440415
vt 1.563876 1.423461
vt -0.700000 1.491523
vt -0.563876 1.423461
vt -0.563876 1.238377
vt 1.563876 1.238377
vt 0.231525 -0.023461
vt 1.700000 1.264075
vt 1.700000 1.417921
vt 1.563876 1.301103
vt 1.563876 -0.231218
vt 0.231525 0.629033
vt 0.759754 0.664877
vt 0.231525 0.664877
vt 1.563876 0.055532
vt -0.563876 -0.195374
vt 1.563876 -0.195374
vt 0.759754 -0.023461
vt 1.563876 0.342283
vt -0.563876 0.091376
vt 1.563876 0.091376
vt 0.231525 0.091376
vt 0.759754 0.055532
vt 0.231525 0.055532
vt 1.563876 0.629033
vt -0.563876 0.378126
vt 1.563876 0.378126
vt 0.759754 1.040415
vt 1.563876 0.915783
vt -0.563876 0.664877
vt 1.563876 0.664877
vt 0.231525 1.238377
vt 0.759754 1.202533
vt 0.231525 1.202533
vt 1.563876 1.202533
vt -0.563876 0.951627
vt 1.563876 0.951627
vt 0.231525 -0.231218
vt 0.759754 -0.195374
vt 0.231525 -0.195374
vt 0.805674 -0.120541
vt 0.805674 -0.274387
vt 0.005674 -0.274387
vt -0.700000 -0.120541
vt -0.700000 -0.274387
vt -0.563876 -0.168492
vt 1.700000 -0.120541
vt 1.700000 -0.274387
vt -0.700000 -0.274387
vt 0.005674 -0.120541
vt 0.005674 -0.274387
vt -0.563876 -0.231218
vt -0.563876 0.055532
vt -0.563876 0.342283
vt -0.563876 0.629033
vt -0.563876 0.915783
vt -0.563876 1.202533
vt 0.231525 0.951627
vt 0.759754 0.915783
vt 0.231525 0.915783
vt 0.759754 -0.231218
vt 0.231525 0.342283
vt 0.759754 0.378126
vt 0.231525 0.378126
vt 0.759754 0.629033
vt 0.759754 1.238377
vt 0.759754 0.091376
vt 0.759754 0.342283
vt 0.759754 0.951627
vt 0.805674 -0.168492
vt 0.805674 1.301103
vt -0.700000 -0.508477
vt 1.700000 1.491523
vt 1.563876 -0.168492
vt 1.563876 -0.132648
vt 1.563876 0.118258
vt 1.700000 0.033306
vt 1.563876 0.154102
vt 1.700000 0.187152
vt 1.563876 0.405008
vt 1.700000 0.340998
vt 1.563876 0.440852
vt 1.700000 0.494844
vt 1.563876 0.691759
vt 1.700000 0.648690
vt 1.563876 0.727602
vt 1.700000 0.802536
vt 1.563876 0.978509
vt 1.700000 0.956382
vt 1.563876 1.014353
vt 1.700000 1.110229
vt 1.563876 1.265259
vt 0.005674 1.417921
vt 0.005674 1.491523
vt 0.805674 1.491523
vt 0.805674 1.417921
vt 0.005674 1.264075
vt 0.805674 1.264075
vt 0.005674 1.110229
vt 0.805674 1.110229
vt 0.005674 0.956382
vt 0.805674 0.956382
vt 0.005674 0.802536
vt 0.805674 0.802536
vt 0.005674 0.648690
vt 0.805674 0.648690
vt 0.005674 0.494844
vt 0.805674 0.494844
vt 0.005674 0.340998
vt 0.805674 0.340998
vt 0.005674 0.187152
vt 0.805674 0.187152
vt 0.005674 0.033306
vt 0.805674 0.033306
vt 0.005674 -0.120541
vt 0.805674 -0.508477
vt 0.005674 -0.508477
vt -0.563876 1.301103
vt -0.700000 1.417921
vt -0.563876 1.265259
vt -0.700000 1.264075
vt -0.563876 1.014353
vt -0.700000 1.110229
vt -0.563876 0.978509
vt -0.700000 0.956382
vt -0.563876 0.727602
vt -0.700000 0.802536
vt -0.563876 0.691759
vt -0.700000 0.648690
vt -0.563876 0.440852
vt -0.700000 0.494844
vt -0.563876 0.405008
vt -0.700000 0.340998
vt -0.563876 0.154102
vt -0.700000 0.187152
vt -0.563876 0.118258
vt -0.700000 0.033306
vt -0.563876 -0.132648
vt -0.700000 0.340998
vt -0.700000 0.187152
vt -0.700000 0.033305
vt -0.700000 -0.120541
vt 0.005674 0.340998
vt 0.005674 0.187152
vt 0.005674 0.033305
vt 0.805674 1.423461
vt 0.231525 1.423461
vt 0.805674 1.265259
vt 0.805674 1.014353
vt 0.805674 0.978509
vt 0.805674 0.727602
vt 0.805674 0.691759
vt 0.805674 0.440852
vt 0.805674 0.405008
vt 0.805674 0.154102
vt 0.805674 0.118258
vt 0.805674 -0.132648
vt 0.231525 -0.440415
vt 0.805674 -0.440415
s 0
usemtl oak
f 6/1/1 13/2/1 8/3/1
f 10/4/1 1/5/1 3/6/1
f 4/6/2 12/7/2 9/4/2
f 5/8/3 10/9/3 7/10/3
f 8/11/3 12/12/3 6/13/3
f 13/11/3 101/14/3 89/15/3
f 7/3/2 15/16/2 5/1/2
f 42/17/3 41/18/3 65/19/3
f 100/20/3 15/8/3 14/10/3
f 106/21/4 129/22/4 105/23/4
f 98/24/3 111/25/3 99/26/3
f 96/28/3 109/29/3 97/30/3
f 97/31/5 122/32/5 98/33/5
f 94/34/3 107/35/3 95/36/3
f 92/38/3 105/39/3 93/40/3
f 89/41/5 114/42/5 90/43/5
f 90/44/3 103/45/3 91/46/3
f 112/47/4 135/48/4 111/49/4
f 51/50/5 52/51/5 40/52/5
f 63/53/3 64/54/3 88/55/3
f 39/56/6 40/57/6 17/58/6
f 18/59/4 17/60/4 64/51/4
f 91/67/5 116/68/5 92/69/5
f 99/49/5 124/70/5 100/47/5
f 108/71/4 131/72/4 107/73/4
f 93/23/5 118/74/5 94/21/5
f 102/43/4 125/75/4 101/41/4
f 110/33/4 133/76/4 109/31/4
f 95/73/5 120/77/5 96/71/5
f 104/69/4 127/78/4 103/67/4
f 99/49/4 100/47/4 76/79/4
f 102/43/5 101/41/5 77/80/5
f 6/1/1 16/16/1 13/2/1
f 10/4/1 11/7/1 1/5/1
f 4/6/2 2/5/2 12/7/2
f 5/8/3 11/81/3 10/9/3
f 8/11/3 9/82/3 12/12/3
f 13/11/3 16/13/3 101/14/3
f 7/3/2 14/2/2 15/16/2
f 76/83/3 7/10/3 10/9/3
f 76/83/3 10/9/3 52/57/3
f 75/84/3 76/83/3 52/57/3
f 75/84/3 52/57/3 51/56/3
f 74/85/3 75/84/3 51/56/3
f 74/85/3 51/56/3 50/86/3
f 73/87/3 74/85/3 50/86/3
f 73/87/3 50/86/3 49/88/3
f 72/89/3 73/87/3 49/88/3
f 72/89/3 49/88/3 48/90/3
f 71/91/3 72/89/3 48/90/3
f 71/91/3 48/90/3 47/92/3
f 70/93/3 71/91/3 47/92/3
f 70/93/3 47/92/3 46/94/3
f 69/95/3 70/93/3 46/94/3
f 69/95/3 46/94/3 45/96/3
f 68/97/3 69/95/3 45/96/3
f 68/97/3 45/96/3 44/98/3
f 67/99/3 68/97/3 44/98/3
f 67/99/3 44/98/3 43/100/3
f 66/101/3 67/99/3 43/100/3
f 66/101/3 43/100/3 42/17/3
f 9/82/3 8/11/3 65/19/3
f 65/19/3 66/101/3 42/17/3
f 41/18/3 9/82/3 65/19/3
f 100/20/3 112/61/3 15/8/3
f 106/21/4 130/74/4 129/22/4
f 98/24/3 110/62/3 111/25/3
f 96/28/3 108/63/3 109/29/3
f 97/31/5 121/76/5 122/32/5
f 94/34/3 106/64/3 107/35/3
f 92/38/3 104/65/3 105/39/3
f 89/41/5 113/75/5 114/42/5
f 90/44/3 102/66/3 103/45/3
f 112/47/4 136/70/4 135/48/4
f 29/102/5 4/103/5 9/104/5
f 29/102/5 9/104/5 41/105/5
f 30/106/5 29/102/5 41/105/5
f 30/106/5 41/105/5 42/107/5
f 31/108/5 30/106/5 42/107/5
f 31/108/5 42/107/5 43/109/5
f 32/110/5 31/108/5 43/109/5
f 32/110/5 43/109/5 44/111/5
f 33/112/5 32/110/5 44/111/5
f 33/112/5 44/111/5 45/113/5
f 34/114/5 33/112/5 45/113/5
f 34/114/5 45/113/5 46/115/5
f 35/116/5 34/114/5 46/115/5
f 35/116/5 46/115/5 47/117/5
f 36/118/5 35/116/5 47/117/5
f 36/118/5 47/117/5 48/119/5
f 37/120/5 36/118/5 48/119/5
f 37/120/5 48/119/5 49/121/5
f 38/122/5 37/120/5 49/121/5
f 38/122/5 49/121/5 50/123/5
f 39/124/5 38/122/5 50/123/5
f 39/124/5 50/123/5 51/50/5
f 10/125/5 3/126/5 40/52/5
f 40/52/5 39/124/5 51/50/5
f 52/51/5 10/125/5 40/52/5
f 77/127/3 6/13/3 12/12/3
f 77/127/3 12/12/3 53/128/3
f 78/129/3 77/127/3 53/128/3
f 78/129/3 53/128/3 54/130/3
f 79/131/3 78/129/3 54/130/3
f 79/131/3 54/130/3 55/132/3
f 80/133/3 79/131/3 55/132/3
f 80/133/3 55/132/3 56/134/3
f 81/135/3 80/133/3 56/134/3
f 81/135/3 56/134/3 57/136/3
f 82/137/3 81/135/3 57/136/3
f 82/137/3 57/136/3 58/138/3
f 83/139/3 82/137/3 58/138/3
f 83/139/3 58/138/3 59/140/3
f 84/141/3 83/139/3 59/140/3
f 84/141/3 59/140/3 60/142/3
f 85/143/3 84/141/3 60/142/3
f 85/143/3 60/142/3 61/144/3
f 86/145/3 85/143/3 61/144/3
f 86/145/3 61/144/3 62/146/3
f 87/147/3 86/145/3 62/146/3
f 87/147/3 62/146/3 63/53/3
f 11/81/3 5/8/3 88/55/3
f 88/55/3 87/147/3 63/53/3
f 64/54/3 11/81/3 88/55/3
f 28/128/6 2/12/6 4/82/6
f 28/128/6 4/82/6 29/18/6
f 27/130/6 28/128/6 29/18/6
f 27/130/6 29/18/6 30/17/6
f 26/132/6 27/130/6 30/17/6
f 26/132/6 30/17/6 31/100/6
f 25/134/6 26/132/6 31/100/6
f 25/134/6 31/100/6 32/98/6
f 24/136/6 25/134/6 32/98/6
f 24/136/6 32/98/6 33/96/6
f 23/138/6 24/136/6 33/96/6
f 23/138/6 33/96/6 34/94/6
f 22/140/6 23/138/6 34/94/6
f 22/140/6 34/94/6 35/92/6
f 21/148/6 22/140/6 35/92/6
f 21/148/6 35/92/6 36/90/6
f 20/149/6 21/148/6 36/90/6
f 20/149/6 36/90/6 37/88/6
f 19/150/6 20/149/6 37/88/6
f 19/150/6 37/88/6 38/86/6
f 18/151/6 19/150/6 38/86/6
f 18/151/6 38/86/6 39/56/6
f 3/9/6 1/81/6 17/58/6
f 17/58/6 18/151/6 39/56/6
f 40/57/6 3/9/6 17/58/6
f 53/105/4 12/104/4 2/103/4
f 53/105/4 2/103/4 28/102/4
f 54/107/4 53/105/4 28/102/4
f 54/107/4 28/102/4 27/106/4
f 55/109/4 54/107/4 27/106/4
f 55/109/4 27/106/4 26/108/4
f 56/111/4 55/109/4 26/108/4
f 56/111/4 26/108/4 25/110/4
f 57/113/4 56/111/4 25/110/4
f 57/113/4 25/110/4 24/112/4
f 58/115/4 57/113/4 24/112/4
f 58/115/4 24/112/4 23/114/4
f 59/117/4 58/115/4 23/114/4
f 59/117/4 23/114/4 22/116/4
f 60/119/4 59/117/4 22/116/4
f 60/119/4 22/116/4 21/152/4
f 61/121/4 60/119/4 21/152/4
f 61/121/4 21/152/4 20/153/4
f 62/123/4 61/121/4 20/153/4
f 62/123/4 20/153/4 19/154/4
f 63/50/4 62/123/4 19/154/4
f 63/50/4 19/154/4 18/59/4
f 1/126/4 11/125/4 64/51/4
f 64/51/4 63/50/4 18/59/4
f 17/60/4 1/126/4 64/51/4
f 91/67/5 115/78/5 116/68/5
f 99/49/5 123/48/5 124/70/5
f 108/71/4 132/77/4 131/72/4
f 93/23/5 117/22/5 118/74/5
f 102/43/4 126/42/4 125/75/4
f 110/33/4 134/32/4 133/76/4
f 95/73/5 119/72/5 120/77/5
f 104/69/4 128/68/4 127/78/4
f 65/80/4 8/155/4 13/156/4
f 65/80/4 13/156/4 89/41/4
f 66/157/4 65/80/4 89/41/4
f 66/157/4 89/41/4 90/43/4
f 67/158/4 66/157/4 90/43/4
f 67/158/4 90/43/4 91/67/4
f 68/159/4 67/158/4 91/67/4
f 68/159/4 91/67/4 92/69/4
f 69/160/4 68/159/4 92/69/4
f 69/160/4 92/69/4 93/23/4
f 70/161/4 69/160/4 93/23/4
f 70/161/4 93/23/4 94/21/4
f 71/162/4 70/161/4 94/21/4
f 71/162/4 94/21/4 95/73/4
f 72/163/4 71/162/4 95/73/4
f 72/163/4 95/73/4 96/71/4
f 73/164/4 72/163/4 96/71/4
f 73/164/4 96/71/4 97/31/4
f 74/165/4 73/164/4 97/31/4
f 74/165/4 97/31/4 98/33/4
f 75/166/4 74/165/4 98/33/4
f 75/166/4 98/33/4 99/49/4
f 14/167/4 7/168/4 76/79/4
f 76/79/4 75/166/4 99/49/4
f 100/47/4 14/167/4 76/79/4
f 88/79/5 5/168/5 15/167/5
f 88/79/5 15/167/5 112/47/5
f 87/166/5 88/79/5 112/47/5
f 87/166/5 112/47/5 111/49/5
f 86/165/5 87/166/5 111/49/5
f 86/165/5 111/49/5 110/33/5
f 85/164/5 86/165/5 110/33/5
f 85/164/5 110/33/5 109/31/5
f 84/163/5 85/164/5 109/31/5
f 84/163/5 109/31/5 108/71/5
f 83/162/5 84/163/5 108/71/5
f 83/162/5 108/71/5 107/73/5
f 82/161/5 83/162/5 107/73/5
f 82/161/5 107/73/5 106/21/5
f 81/160/5 82/161/5 106/21/5
f 81/160/5 106/21/5 105/23/5
f 80/159/5 81/160/5 105/23/5
f 80/159/5 105/23/5 104/69/5
f 79/158/5 80/159/5 104/69/5
f 79/158/5 104/69/5 103/67/5
f 78/157/5 79/158/5 103/67/5
f 78/157/5 103/67/5 102/43/5
f 16/156/5 6/155/5 77/80/5
f 77/80/5 78/157/5 102/43/5
f 101/41/5 16/156/5 77/80/5
usemtl finewood
f 94/2/1 130/27/1 106/16/1
f 107/16/2 119/37/2 95/2/2
f 123/26/3 136/61/3 124/20/3
f 121/30/3 134/62/3 122/24/3
f 119/36/3 132/63/3 120/28/3
f 117/40/3 130/64/3 118/34/3
f 115/46/3 128/65/3 116/38/3
f 113/15/3 126/66/3 114/44/3
f 105/16/2 117/37/2 93/2/2
f 100/2/1 136/27/1 112/16/1
f 92/2/1 128/27/1 104/16/1
f 111/16/2 123/37/2 99/2/2
f 103/16/2 115/37/2 91/2/2
f 98/2/1 134/27/1 110/16/1
f 90/2/1 126/27/1 102/16/1
f 109/16/2 121/37/2 97/2/2
f 101/16/2 113/37/2 89/2/2
f 96/2/1 132/27/1 108/16/1
f 94/2/1 118/37/1 130/27/1
f 107/16/2 131/27/2 119/37/2
f 123/26/3 135/25/3 136/61/3
f 121/30/3 133/29/3 134/62/3
f 119/36/3 131/35/3 132/63/3
f 117/40/3 129/39/3 130/64/3
f 115/46/3 127/45/3 128/65/3
f 113/15/3 125/14/3 126/66/3
f 105/16/2 129/27/2 117/37/2
f 100/2/1 124/37/1 136/27/1
f 92/2/1 116/37/1 128/27/1
f 111/16/2 135/27/2 123/37/2
f 103/16/2 127/27/2 115/37/2
f 98/2/1 122/37/1 134/27/1
f 90/2/1 114/37/1 126/27/1
f 109/16/2 133/27/2 121/37/2
f 101/16/2 125/27/2 113/37/2
f 96/2/1 120/37/1 132/27/1
