# Blender 5.1.1
# www.blender.org
mtllib bookshelf_filled.mtl
o bookshelf_filled
v -0.200000 0.000000 0.600000
v -0.200000 2.000000 0.600000
v -0.200000 0.000000 -0.600000
v -0.200000 2.000000 -0.600000
v 0.200000 0.068062 0.531938
v 0.200000 1.931938 0.531938
v 0.200000 0.068062 -0.531938
v 0.200000 1.931938 -0.531938
v 0.200000 2.000000 -0.600000
v 0.200000 0.000000 -0.600000
v 0.200000 0.000000 0.600000
v 0.200000 2.000000 0.600000
v -0.087075 1.931938 -0.531938
v -0.087075 0.068062 -0.531938
v -0.087075 0.068062 0.531938
v -0.087075 1.931938 0.531938
v -0.200000 0.234090 0.600000
v -0.200000 0.387936 0.600000
v -0.200000 0.541782 0.600000
v -0.200000 0.695629 0.600000
v -0.200000 0.849475 0.600000
v -0.200000 1.003321 0.600000
v -0.200000 1.157167 0.600000
v -0.200000 1.311013 0.600000
v -0.200000 1.464859 0.600000
v -0.200000 1.618706 0.600000
v -0.200000 1.772552 0.600000
v -0.200000 1.926398 0.600000
v -0.200000 1.926398 -0.600000
v -0.200000 1.772552 -0.600000
v -0.200000 1.618706 -0.600000
v -0.200000 1.464859 -0.600000
v -0.200000 1.311013 -0.600000
v -0.200000 1.157167 -0.600000
v -0.200000 1.003321 -0.600000
v -0.200000 0.849475 -0.600000
v -0.200000 0.695629 -0.600000
v -0.200000 0.541782 -0.600000
v -0.200000 0.387936 -0.600000
v -0.200000 0.234090 -0.600000
v 0.200000 1.926398 -0.600000
v 0.200000 1.772552 -0.600000
v 0.200000 1.618706 -0.600000
v 0.200000 1.464859 -0.600000
v 0.200000 1.311013 -0.600000
v 0.200000 1.157167 -0.600000
v 0.200000 1.003321 -0.600000
v 0.200000 0.849475 -0.600000
v 0.200000 0.695629 -0.600000
v 0.200000 0.541782 -0.600000
v 0.200000 0.387936 -0.600000
v 0.200000 0.234090 -0.600000
v 0.200000 1.926398 0.600000
v 0.200000 1.772552 0.600000
v 0.200000 1.618706 0.600000
v 0.200000 1.464859 0.600000
v 0.200000 1.311013 0.600000
v 0.200000 1.157167 0.600000
v 0.200000 1.003321 0.600000
v 0.200000 0.849475 0.600000
v 0.200000 0.695629 0.600000
v 0.200000 0.541782 0.600000
v 0.200000 0.387936 0.600000
v 0.200000 0.234090 0.600000
v 0.200000 1.809580 -0.531938
v 0.200000 1.773736 -0.531938
v 0.200000 1.522830 -0.531938
v 0.200000 1.486986 -0.531938
v 0.200000 1.236079 -0.531938
v 0.200000 1.200236 -0.531938
v 0.200000 0.949329 -0.531938
v 0.200000 0.913485 -0.531938
v 0.200000 0.662579 -0.531938
v 0.200000 0.626735 -0.531938
v 0.200000 0.375829 -0.531938
v 0.200000 0.339985 -0.531938
v 0.200000 1.809580 0.531938
v 0.200000 1.773736 0.531938
v 0.200000 1.522830 0.531938
v 0.200000 1.486986 0.531938
v 0.200000 1.236079 0.531938
v 0.200000 1.200236 0.531938
v 0.200000 0.949329 0.531938
v 0.200000 0.913485 0.531938
v 0.200000 0.662579 0.531938
v 0.200000 0.626735 0.531938
v 0.200000 0.375829 0.531938
v 0.200000 0.339985 0.531938
v -0.087075 1.746854 -0.531938
v -0.087075 1.711010 -0.531938
v -0.087075 1.460104 -0.531938
v -0.087075 1.424260 -0.531938
v -0.087075 1.173354 -0.531938
v -0.087075 1.137510 -0.531938
v -0.087075 0.886603 -0.531938
v -0.087075 0.850760 -0.531938
v -0.087075 0.599853 -0.531938
v -0.087075 0.564009 -0.531938
v -0.087075 0.313103 -0.531938
v -0.087075 0.277259 -0.531938
v -0.087075 1.746854 0.531938
v -0.087075 1.711010 0.531938
v -0.087075 1.460104 0.531938
v -0.087075 1.424260 0.531938
v -0.087075 1.173354 0.531938
v -0.087075 1.137510 0.531938
v -0.087075 0.886603 0.531938
v -0.087075 0.850760 0.531938
v -0.087075 0.599853 0.531938
v -0.087075 0.564009 0.531938
v -0.087075 0.313103 0.531938
v -0.087075 0.277259 0.531938
v 0.177040 1.746854 -0.531938
v 0.177040 1.711010 -0.531938
v 0.177040 1.460104 -0.531938
v 0.177040 1.424260 -0.531938
v 0.177040 1.173354 -0.531938
v 0.177040 1.137510 -0.531938
v 0.177040 0.886603 -0.531938
v 0.177040 0.850760 -0.531938
v 0.177040 0.599853 -0.531938
v 0.177040 0.564009 -0.531938
v 0.177040 0.313103 -0.531938
v 0.177040 0.277259 -0.531938
v 0.177040 1.746854 0.531938
v 0.177040 1.711010 0.531938
v 0.177040 1.460104 0.531938
v 0.177040 1.424260 0.531938
v 0.177040 1.173354 0.531938
v 0.177040 1.137510 0.531938
v 0.177040 0.886603 0.531938
v 0.177040 0.850760 0.531938
v 0.177040 0.599853 0.531938
v 0.177040 0.564009 0.531938
v 0.177040 0.313103 0.531938
v 0.177040 0.277259 0.531938
v -0.061227 1.470277 -0.040366
v -0.068467 1.461260 0.060000
v -0.061227 1.812243 -0.040366
v -0.061227 1.812243 0.040366
v 0.139302 1.470277 -0.040366
v 0.150122 1.470277 -0.029546
v 0.150122 1.470277 0.029546
v 0.139302 1.470277 0.040366
v 0.150122 1.812243 -0.029546
v 0.139302 1.812243 -0.040366
v 0.139302 1.812243 0.040366
v 0.150122 1.812243 0.029546
v -0.068467 1.821260 -0.060000
v -0.068467 1.461260 -0.060000
v -0.061227 1.470277 0.040366
v -0.068467 1.821260 0.060000
v 0.171533 1.461260 -0.038355
v 0.149888 1.461260 -0.060000
v 0.149888 1.821260 -0.060000
v 0.171533 1.821260 -0.038355
v 0.171533 1.821260 0.038355
v 0.149888 1.821260 0.060000
v 0.149888 1.461260 0.060000
v 0.171533 1.461260 0.038355
v -0.061870 1.464826 0.123700
v -0.069110 1.455809 0.224066
v -0.061870 1.806793 0.123700
v -0.061870 1.806793 0.204432
v 0.138659 1.464826 0.123700
v 0.149479 1.464826 0.134520
v 0.149479 1.464826 0.193612
v 0.138659 1.464826 0.204432
v 0.149479 1.806793 0.134520
v 0.138659 1.806793 0.123700
v 0.138659 1.806793 0.204432
v 0.149479 1.806793 0.193612
v -0.069110 1.815809 0.104066
v -0.069110 1.455809 0.104066
v -0.061870 1.464826 0.204432
v -0.069110 1.815809 0.224066
v 0.170890 1.455809 0.125711
v 0.149245 1.455809 0.104066
v 0.149245 1.815809 0.104066
v 0.170890 1.815809 0.125711
v 0.170890 1.815809 0.202421
v 0.149245 1.815809 0.224066
v 0.149245 1.455809 0.224066
v 0.170890 1.455809 0.202421
v -0.064178 1.465943 0.247812
v -0.071418 1.456926 0.348178
v -0.064178 1.807909 0.247812
v -0.064178 1.807909 0.328544
v 0.136351 1.465943 0.247812
v 0.147171 1.465943 0.258632
v 0.147171 1.465943 0.317724
v 0.136351 1.465943 0.328544
v 0.147171 1.807909 0.258632
v 0.136351 1.807909 0.247812
v 0.136351 1.807909 0.328544
v 0.147171 1.807909 0.317724
v -0.071418 1.816926 0.228178
v -0.071418 1.456926 0.228178
v -0.064178 1.465943 0.328544
v -0.071418 1.816926 0.348178
v 0.168582 1.456926 0.249823
v 0.146936 1.456926 0.228178
v 0.146936 1.816926 0.228178
v 0.168582 1.816926 0.249823
v 0.168582 1.816926 0.326533
v 0.146936 1.816926 0.348178
v 0.146936 1.456926 0.348178
v 0.168582 1.456926 0.326533
v -0.061227 1.569941 -0.420641
v -0.068467 1.469703 -0.430985
v -0.061227 1.565417 -0.078704
v -0.061227 1.484692 -0.079773
v 0.139302 1.569941 -0.420641
v 0.150122 1.559122 -0.420784
v 0.150122 1.500035 -0.421566
v 0.139302 1.489216 -0.421709
v 0.150122 1.554597 -0.078848
v 0.139302 1.565417 -0.078704
v 0.139302 1.484692 -0.079773
v 0.150122 1.495511 -0.079629
v -0.068467 1.584930 -0.069429
v -0.068467 1.589693 -0.429397
v -0.061227 1.489216 -0.421709
v -0.068467 1.464940 -0.071016
v 0.171533 1.568050 -0.429684
v 0.149888 1.589693 -0.429397
v 0.149888 1.584930 -0.069429
v 0.171533 1.563286 -0.069715
v 0.171533 1.486583 -0.070730
v 0.149888 1.464940 -0.071016
v 0.149888 1.469703 -0.430985
v 0.171533 1.491346 -0.430699
v -0.044130 1.006204 0.054581
v -0.051370 0.956021 0.045564
v -0.044130 1.006204 0.396547
v -0.044130 0.965838 0.396547
v 0.156399 1.006204 0.054581
v 0.167219 1.000794 0.054581
v 0.167219 0.971248 0.054581
v 0.156399 0.965838 0.054581
v 0.167219 1.000794 0.396547
v 0.156399 1.006204 0.396547
v 0.156399 0.965838 0.396547
v 0.167219 0.971248 0.396547
v -0.051370 1.016021 0.405564
v -0.051370 1.016021 0.045564
v -0.044130 0.965838 0.054581
v -0.051370 0.956021 0.405564
v 0.188630 1.005198 0.045564
v 0.166985 1.016021 0.045564
v 0.166985 1.016021 0.405564
v 0.188630 1.005198 0.405564
v 0.188630 0.966844 0.405564
v 0.166985 0.956021 0.405564
v 0.166985 0.956021 0.045564
v 0.188630 0.966844 0.045564
v -0.046438 0.944148 0.055697
v -0.053678 0.893965 0.046680
v -0.046438 0.944148 0.397664
v -0.046438 0.903782 0.397664
v 0.154091 0.944148 0.055697
v 0.164911 0.938738 0.055697
v 0.164911 0.909192 0.055697
v 0.154091 0.903782 0.055697
v 0.164911 0.938738 0.397664
v 0.154091 0.944148 0.397664
v 0.154091 0.903782 0.397664
v 0.164911 0.909192 0.397664
v -0.053678 0.953965 0.406680
v -0.053678 0.953965 0.046680
v -0.046438 0.903782 0.055697
v -0.053678 0.893965 0.406680
v 0.186322 0.943143 0.046680
v 0.164677 0.953965 0.046680
v 0.164677 0.953965 0.406680
v 0.186322 0.943143 0.406680
v 0.186322 0.904788 0.406680
v 0.164677 0.893965 0.406680
v 0.164677 0.893965 0.046680
v 0.186322 0.904788 0.046680
v -0.044130 1.080988 0.322604
v -0.051370 1.131170 0.329366
v -0.044130 1.080988 0.066129
v -0.044130 1.121354 0.066129
v 0.156399 1.080988 0.322604
v 0.167219 1.086398 0.322604
v 0.167219 1.115943 0.322604
v 0.156399 1.121353 0.322604
v 0.167219 1.086398 0.066129
v 0.156399 1.080988 0.066129
v 0.156399 1.121354 0.066129
v 0.167219 1.115943 0.066129
v -0.051370 1.071171 0.059366
v -0.051370 1.071171 0.329366
v -0.044130 1.121353 0.322604
v -0.051370 1.131171 0.059366
v 0.188630 1.081993 0.329366
v 0.166985 1.071171 0.329366
v 0.166985 1.071171 0.059366
v 0.188630 1.081993 0.059366
v 0.188630 1.120348 0.059366
v 0.166985 1.131171 0.059366
v 0.166985 1.131170 0.329366
v 0.188630 1.120348 0.329366
v -0.046438 1.065533 0.055697
v -0.053678 1.015350 0.046680
v -0.046438 1.065533 0.397664
v -0.046438 1.025167 0.397664
v 0.154091 1.065533 0.055697
v 0.164911 1.060123 0.055697
v 0.164911 1.030577 0.055697
v 0.154091 1.025167 0.055697
v 0.164911 1.060123 0.397664
v 0.154091 1.065533 0.397664
v 0.154091 1.025167 0.397664
v 0.164911 1.030577 0.397664
v -0.053678 1.075350 0.406680
v -0.053678 1.075350 0.046680
v -0.046438 1.025167 0.055697
v -0.053678 1.015350 0.406680
v 0.186322 1.064527 0.046680
v 0.164677 1.075350 0.046680
v 0.164677 1.075350 0.406680
v 0.186322 1.064527 0.406680
v 0.186322 1.026172 0.406680
v 0.164677 1.015350 0.406680
v 0.164677 1.015350 0.046680
v 0.186322 1.026172 0.046680
v -0.061227 0.332885 0.366295
v -0.068467 0.323868 0.516844
v -0.061227 0.674852 0.366295
v -0.061227 0.674852 0.487393
v 0.139302 0.332885 0.366295
v 0.150122 0.332885 0.382525
v 0.150122 0.332885 0.471163
v 0.139302 0.332885 0.487393
v 0.150122 0.674852 0.382525
v 0.139302 0.674852 0.366295
v 0.139302 0.674852 0.487393
v 0.150122 0.674852 0.471163
v -0.068467 0.683868 0.336844
v -0.068467 0.323868 0.336844
v -0.061227 0.332885 0.487393
v -0.068467 0.683868 0.516844
v 0.171533 0.323868 0.369312
v 0.149888 0.323868 0.336844
v 0.149888 0.683868 0.336844
v 0.171533 0.683868 0.369312
v 0.171533 0.683868 0.484376
v 0.149888 0.683868 0.516844
v 0.149888 0.323868 0.516844
v 0.171533 0.323868 0.484376
v -0.061227 0.070076 0.005445
v -0.068467 0.130218 0.020960
v -0.061227 0.072790 -0.507460
v -0.061227 0.121225 -0.505858
v 0.139302 0.070076 0.005445
v 0.150122 0.076567 0.005659
v 0.150122 0.112019 0.006832
v 0.139302 0.118511 0.007047
v 0.150122 0.079282 -0.507246
v 0.139302 0.072790 -0.507461
v 0.139302 0.121225 -0.505858
v 0.150122 0.114734 -0.506073
v -0.068467 0.061083 -0.521374
v -0.068467 0.058225 0.018579
v -0.061227 0.118511 0.007047
v -0.068467 0.133076 -0.518993
v 0.171533 0.071211 0.019008
v 0.149888 0.058225 0.018579
v 0.149888 0.061083 -0.521374
v 0.171533 0.074068 -0.520944
v 0.171533 0.120090 -0.519422
v 0.149888 0.133076 -0.518993
v 0.149888 0.130218 0.020960
v 0.171533 0.117233 0.020531
v -0.041161 0.324149 0.176921
v -0.048401 0.315133 0.327470
v -0.041161 0.666116 0.176921
v -0.041161 0.666116 0.298019
v 0.159368 0.324149 0.176921
v 0.170188 0.324149 0.193151
v 0.170188 0.324149 0.281789
v 0.159368 0.324149 0.298019
v 0.170188 0.666116 0.193151
v 0.159368 0.666116 0.176921
v 0.159368 0.666116 0.298019
v 0.170188 0.666116 0.281789
v -0.048401 0.675133 0.147470
v -0.048401 0.315133 0.147470
v -0.041161 0.324149 0.298019
v -0.048401 0.675133 0.327470
v 0.191599 0.315133 0.179938
v 0.169954 0.315133 0.147470
v 0.169954 0.675133 0.147470
v 0.191599 0.675133 0.179938
v 0.191599 0.675133 0.295003
v 0.169954 0.675133 0.327470
v 0.169954 0.315133 0.327470
v 0.191599 0.315133 0.295003
v 0.024091 0.321342 0.096253
v 0.123465 0.338060 0.103493
v -0.062588 0.652141 0.096253
v 0.015507 0.672604 0.096253
v 0.024091 0.321342 -0.104276
v 0.034558 0.324085 -0.115096
v 0.091720 0.339063 -0.115096
v 0.102186 0.341806 -0.104276
v -0.052122 0.654884 -0.115096
v -0.062588 0.652141 -0.104276
v 0.015507 0.672604 -0.104276
v 0.005040 0.669862 -0.115096
v -0.083867 0.655886 0.103493
v 0.007384 0.307643 0.103493
v 0.102186 0.341806 0.096253
v 0.032214 0.686303 0.103493
v 0.028322 0.313130 -0.136507
v 0.007384 0.307643 -0.114862
v -0.083867 0.655886 -0.114862
v -0.062929 0.661373 -0.136507
v 0.011276 0.680817 -0.136507
v 0.032214 0.686303 -0.114862
v 0.123465 0.338060 -0.114862
v 0.102527 0.332574 -0.136507
vn -0.0000 -1.0000 -0.0000
vn -0.0000 1.0000 -0.0000
vn 1.0000 -0.0000 -0.0000
vn -0.0000 -0.0000 1.0000
vn -0.0000 -0.0000 -1.0000
vn -1.0000 -0.0000 -0.0000
vn 0.7071 -0.0000 -0.7071
vn 0.7071 -0.0000 0.7071
vn -0.9382 -0.0000 0.3460
vn -0.9382 -0.0000 -0.3460
vn -0.2749 -0.9213 0.2749
vn -0.2749 0.9213 0.2749
vn -0.2749 0.9213 -0.2749
vn -0.2749 -0.9213 -0.2749
vn -0.0000 0.9088 0.4173
vn -0.0000 -0.9088 0.4173
vn -0.3881 0.9216 -0.0000
vn -0.3881 -0.9216 -0.0000
vn -0.0000 -0.9088 -0.4173
vn -0.0000 0.9088 -0.4173
vn 0.7071 0.7070 0.0094
vn 0.7071 -0.7070 -0.0094
vn -0.0000 0.9999 0.0132
vn -0.0000 0.0132 -0.9999
vn -0.0000 -0.9999 -0.0132
vn -0.0000 -0.0132 0.9999
vn -0.9382 -0.3459 -0.0046
vn -0.9382 0.3459 0.0046
vn -0.2749 -0.2627 -0.9249
vn -0.2749 -0.2871 0.9176
vn -0.2749 0.2627 0.9249
vn -0.2749 0.2871 -0.9176
vn -0.0000 -0.4293 0.9032
vn -0.0000 -0.4053 -0.9142
vn -0.3881 -0.0122 0.9215
vn -0.3881 0.0122 -0.9215
vn -0.0000 0.4293 -0.9032
vn -0.0000 0.4053 0.9142
vn 0.4472 0.8944 -0.0000
vn 0.4472 -0.8944 -0.0000
vn -0.8048 -0.5936 -0.0000
vn -0.8048 0.5935 -0.0000
vn -0.2482 -0.4964 -0.8319
vn -0.2482 -0.4964 0.8319
vn -0.2482 0.4964 0.8319
vn -0.2482 0.4964 -0.8319
vn -0.0000 -0.6765 0.7365
vn -0.0000 -0.6765 -0.7365
vn -0.3881 -0.0000 0.9216
vn -0.3881 -0.0000 -0.9216
vn -0.0000 0.6765 -0.7365
vn -0.0000 0.6765 0.7365
vn -0.8048 0.5936 -0.0000
vn -0.0000 -0.6764 0.7365
vn -0.0000 0.6764 0.7365
vn -0.8048 -0.5935 -0.0000
vn -0.2001 0.4002 0.8943
vn -0.2001 0.4002 -0.8943
vn -0.2001 -0.4002 -0.8943
vn -0.2001 -0.4002 0.8943
vn -0.0000 0.5673 -0.8235
vn -0.0000 0.5673 0.8235
vn -0.3012 -0.0000 -0.9536
vn -0.3012 -0.0000 0.9536
vn -0.0000 -0.5673 0.8235
vn -0.0000 -0.5673 -0.8235
vn 0.8321 -0.0000 -0.5547
vn 0.8321 -0.0000 0.5547
vn -0.9711 -0.0000 0.2387
vn -0.9711 -0.0000 -0.2387
vn -0.2809 -0.9413 0.1872
vn -0.2809 0.9413 0.1872
vn -0.2809 0.9413 -0.1872
vn -0.2809 -0.9413 -0.1872
vn -0.0000 0.9562 0.2927
vn -0.0000 -0.9562 0.2927
vn -0.0000 -0.9562 -0.2927
vn -0.0000 0.9562 -0.2927
vn 0.5145 -0.8575 -0.0045
vn 0.5145 0.8575 0.0045
vn -0.0000 -1.0000 -0.0053
vn -0.0000 -0.0331 0.9995
vn -0.0000 1.0000 0.0053
vn -0.0000 0.0331 -0.9995
vn -0.8520 0.5236 0.0028
vn -0.8520 -0.5236 -0.0028
vn -0.3416 0.5441 0.7663
vn -0.3337 0.5808 -0.7426
vn -0.3416 -0.5441 -0.7663
vn -0.3337 -0.5808 0.7426
vn -0.0000 0.7652 -0.6438
vn -0.0000 0.7424 0.6699
vn -0.5339 0.0280 -0.8451
vn -0.5339 -0.0280 0.8451
vn -0.0000 -0.7652 0.6439
vn -0.0000 -0.7424 -0.6699
vn -0.6840 -0.1792 -0.7071
vn 0.6840 0.1792 -0.7071
vn -0.9673 -0.2535 -0.0000
vn 0.2535 -0.9673 -0.0000
vn 0.9673 0.2535 -0.0000
vn -0.2535 0.9673 -0.0000
vn 0.3347 0.0877 0.9382
vn -0.3347 -0.0877 0.9382
vn 0.4995 -0.8216 0.2749
vn 0.0324 0.9609 0.2749
vn -0.4995 0.8216 0.2749
vn -0.0324 -0.9609 0.2749
vn 0.1734 0.9849 -0.0000
vn 0.6341 -0.7733 -0.0000
vn -0.2336 0.8915 0.3881
vn 0.2336 -0.8915 0.3881
vn -0.1734 -0.9849 -0.0000
vn -0.6341 0.7733 -0.0000
vn -0.9382 -0.3460 -0.0046
vn -0.2001 -0.4003 0.8943
vn -0.3337 0.5807 -0.7426
vn -0.0000 0.7651 -0.6439
vn -0.6340 0.7733 -0.0000
vt 0.805674 -0.023461
vt 0.231525 1.040415
vt 0.805674 1.040415
vt 0.805674 1.108477
vt 0.005674 -0.091523
vt 0.005674 1.108477
vt 0.805674 -0.091523
vt -0.563876 -0.440415
vt 1.700000 -0.508477
vt 1.563876 -0.440415
vt 1.563876 1.423461
vt -0.700000 1.491523
vt -0.563876 1.423461
vt -0.563876 1.238377
vt 1.563876 1.238377
vt 0.231525 -0.023461
vt 1.700000 1.264075
vt 1.700000 1.417921
vt 1.563876 1.301103
vt 1.563876 -0.231218
vt 0.231525 0.629033
vt 0.759754 0.664877
vt 0.231525 0.664877
vt 1.563876 0.055532
vt -0.563876 -0.195374
vt 1.563876 -0.195374
vt 0.759754 -0.023461
vt 1.563876 0.342283
vt -0.563876 0.091376
vt 1.563876 0.091376
vt 0.231525 0.091376
vt 0.759754 0.055532
vt 0.231525 0.055532
vt 1.563876 0.629033
vt -0.563876 0.378126
vt 1.563876 0.378126
vt 0.759754 1.040415
vt 1.563876 0.915783
vt -0.563876 0.664877
vt 1.563876 0.664877
vt 0.231525 1.238377
vt 0.759754 1.202533
vt 0.231525 1.202533
vt 1.563876 1.202533
vt -0.563876 0.951627
vt 1.563876 0.951627
vt 0.231525 -0.231218
vt 0.759754 -0.195374
vt 0.231525 -0.195374
vt 0.805674 -0.120541
vt 0.805674 -0.274387
vt 0.005674 -0.274387
vt -0.700000 -0.120541
vt -0.700000 -0.274387
vt -0.563876 -0.168492
vt 1.700000 -0.120541
vt 1.700000 -0.274387
vt -0.700000 -0.274387
vt 0.005674 -0.120541
vt 0.005674 -0.274387
vt -0.563876 -0.231218
vt -0.563876 0.342283
vt -0.563876 0.629033
vt -0.563876 0.915783
vt 0.231525 0.951627
vt 0.759754 0.915783
vt 0.231525 0.915783
vt 0.759754 -0.231218
vt 0.231525 0.342283
vt 0.759754 0.378126
vt 0.231525 0.378126
vt 0.759754 0.629033
vt 0.759754 1.238377
vt 0.759754 0.091376
vt 0.759754 0.342283
vt 0.759754 0.951627
vt 0.805674 -0.168492
vt 0.805674 1.301103
vt 0.989259 0.855864
vt 0.916126 0.940949
vt 0.916126 0.855864
vt 0.179876 0.988641
vt 0.172775 0.808216
vt 0.179876 0.808216
vt 0.122986 0.808216
vt 0.130086 0.988641
vt 0.122986 0.988641
vt 0.289727 0.808216
vt 0.289727 0.988641
vt 0.172775 0.988641
vt 0.925928 0.803277
vt 0.989259 0.805969
vt 0.011806 0.988641
vt 0.989259 0.940949
vt 0.979457 0.993536
vt 0.916126 0.990844
vt 0.291891 0.981484
vt 0.291891 0.815617
vt 0.008334 0.815617
vt 0.008334 0.981484
vt 0.173359 0.805403
vt 0.173359 0.991695
vt 0.180458 0.991695
vt 0.129503 0.991695
vt 0.129503 0.805403
vt 0.122404 0.805403
vt 0.188337 0.991486
vt 0.281370 0.991486
vt 0.188337 0.805596
vt 0.137723 0.991701
vt 0.165138 0.991701
vt 0.165138 0.805398
vt 0.130086 0.808216
vt 0.137724 0.805398
vt 0.114524 0.805596
vt 0.011807 0.808215
vt 0.021492 0.805596
vt 0.114524 0.991486
vt 0.472609 0.988641
vt 0.465508 0.808216
vt 0.472609 0.808216
vt 0.415718 0.808216
vt 0.422819 0.988641
vt 0.415718 0.988641
vt 0.582460 0.808216
vt 0.582460 0.988641
vt 0.465508 0.988641
vt 0.304539 0.988641
vt 0.584624 0.981484
vt 0.584624 0.815617
vt 0.301067 0.981484
vt 0.304539 0.808215
vt 0.466092 0.805403
vt 0.466092 0.991695
vt 0.473191 0.991695
vt 0.422235 0.991695
vt 0.422236 0.805403
vt 0.415136 0.805403
vt 0.481070 0.991486
vt 0.574103 0.991486
vt 0.481070 0.805596
vt 0.430456 0.991701
vt 0.457871 0.991701
vt 0.457871 0.805398
vt 0.422819 0.808216
vt 0.430456 0.805398
vt 0.407257 0.805596
vt 0.314225 0.805596
vt 0.407257 0.991486
vt 0.774679 0.988641
vt 0.767578 0.808216
vt 0.774679 0.808216
vt 0.717788 0.808216
vt 0.724889 0.988641
vt 0.717788 0.988641
vt 0.884530 0.808216
vt 0.884530 0.988641
vt 0.767578 0.988641
vt 0.606609 0.988641
vt 0.886694 0.815617
vt 0.603137 0.815617
vt 0.603137 0.981484
vt 0.768162 0.805403
vt 0.768162 0.991695
vt 0.775261 0.991695
vt 0.724305 0.991695
vt 0.724305 0.805403
vt 0.717206 0.805403
vt 0.783140 0.991486
vt 0.876172 0.991486
vt 0.783140 0.805596
vt 0.732526 0.991701
vt 0.759941 0.991701
vt 0.759941 0.805398
vt 0.724889 0.808216
vt 0.732526 0.805398
vt 0.709327 0.805596
vt 0.606609 0.808215
vt 0.616295 0.805596
vt 0.709327 0.991486
vt 0.301067 0.815617
vt 0.180458 0.805403
vt 0.122404 0.991695
vt 0.473191 0.805403
vt 0.415136 0.991695
vt -0.700000 -0.508477
vt 1.700000 1.491523
vt 1.563876 -0.168492
vt 1.563876 -0.132648
vt 1.563876 0.118258
vt 1.700000 0.033306
vt 1.563876 0.154102
vt 1.700000 0.187152
vt 1.563876 0.405008
vt 1.700000 0.340998
vt 1.563876 0.440852
vt 1.700000 0.494844
vt 1.563876 0.691759
vt 1.700000 0.648690
vt 1.563876 0.727602
vt 1.700000 0.802536
vt 1.563876 0.978509
vt 1.700000 0.956382
vt 1.563876 1.014353
vt 1.700000 1.110229
vt 1.563876 1.265259
vt -0.563876 0.055532
vt -0.563876 1.202533
vt 0.005674 1.417921
vt 0.005674 1.491523
vt 0.805674 1.491523
vt 0.805674 1.417921
vt 0.005674 1.264075
vt 0.805674 1.264075
vt 0.005674 1.110229
vt 0.805674 1.110229
vt 0.005674 0.956382
vt 0.805674 0.956382
vt 0.005674 0.802536
vt 0.805674 0.802536
vt 0.005674 0.648690
vt 0.805674 0.648690
vt 0.005674 0.494844
vt 0.805674 0.494844
vt 0.005674 0.340998
vt 0.805674 0.340998
vt 0.005674 0.187152
vt 0.805674 0.187152
vt 0.005674 0.033306
vt 0.805674 0.033306
vt 0.005674 -0.120541
vt 0.805674 -0.508477
vt 0.005674 -0.508477
vt -0.563876 1.301103
vt -0.700000 1.417921
vt -0.563876 1.265259
vt -0.700000 1.264075
vt -0.563876 1.014353
vt -0.700000 1.110229
vt -0.563876 0.978509
vt -0.700000 0.956382
vt -0.563876 0.727602
vt -0.700000 0.802536
vt -0.563876 0.691759
vt -0.700000 0.648690
vt -0.563876 0.440852
vt -0.700000 0.494844
vt -0.563876 0.405008
vt -0.700000 0.340998
vt -0.563876 0.154102
vt -0.700000 0.187152
vt -0.563876 0.118258
vt -0.700000 0.033306
vt -0.563876 -0.132648
vt -0.700000 0.340998
vt -0.700000 0.187152
vt -0.700000 0.033305
vt -0.700000 -0.120541
vt 0.005674 0.340998
vt 0.005674 0.187152
vt 0.005674 0.033305
vt 0.805674 1.423461
vt 0.231525 1.423461
vt 0.805674 1.265259
vt 0.805674 1.014353
vt 0.805674 0.978509
vt 0.805674 0.727602
vt 0.805674 0.691759
vt 0.805674 0.440852
vt 0.805674 0.405008
vt 0.805674 0.154102
vt 0.805674 0.118258
vt 0.805674 -0.132648
vt 0.231525 -0.440415
vt 0.805674 -0.440415
vt 0.916126 0.805969
vt 0.979457 0.803277
vt 0.989259 0.990844
vt 0.925928 0.993536
vt 0.281370 0.805596
vt 0.021492 0.991486
vt 0.574103 0.805596
vt 0.314225 0.991486
vt 0.886694 0.981484
vt 0.775261 0.805403
vt 0.717206 0.991695
vt 0.876172 0.805596
vt 0.616295 0.991486
s 0
usemtl oak
f 6/1/1 13/2/1 8/3/1
f 10/4/1 1/5/1 3/6/1
f 4/6/2 12/7/2 9/4/2
f 5/8/3 10/9/3 7/10/3
f 8/11/3 12/12/3 6/13/3
f 13/11/3 101/14/3 89/15/3
f 7/3/2 15/16/2 5/1/2
f 42/17/3 41/18/3 65/19/3
f 100/20/3 15/8/3 14/10/3
f 106/21/4 129/22/4 105/23/4
f 98/24/3 111/25/3 99/26/3
f 96/28/3 109/29/3 97/30/3
f 97/31/5 122/32/5 98/33/5
f 94/34/3 107/35/3 95/36/3
f 92/38/3 105/39/3 93/40/3
f 89/41/5 114/42/5 90/43/5
f 90/44/3 103/45/3 91/46/3
f 112/47/4 135/48/4 111/49/4
f 51/50/5 52/51/5 40/52/5
f 63/53/3 64/54/3 88/55/3
f 39/56/6 40/57/6 17/58/6
f 18/59/4 17/60/4 64/51/4
f 91/65/5 116/66/5 92/67/5
f 99/49/5 124/68/5 100/47/5
f 108/69/4 131/70/4 107/71/4
f 93/23/5 118/72/5 94/21/5
f 102/43/4 125/73/4 101/41/4
f 110/33/4 133/74/4 109/31/4
f 95/71/5 120/75/5 96/69/5
f 104/67/4 127/76/4 103/65/4
f 99/49/4 100/47/4 76/77/4
f 102/43/5 101/41/5 77/78/5
f 6/1/1 16/16/1 13/2/1
f 10/4/1 11/7/1 1/5/1
f 4/6/2 2/5/2 12/7/2
f 5/8/3 11/186/3 10/9/3
f 8/11/3 9/187/3 12/12/3
f 13/11/3 16/13/3 101/14/3
f 7/3/2 14/2/2 15/16/2
f 76/188/3 7/10/3 10/9/3
f 76/188/3 10/9/3 52/57/3
f 75/189/3 76/188/3 52/57/3
f 75/189/3 52/57/3 51/56/3
f 74/190/3 75/189/3 51/56/3
f 74/190/3 51/56/3 50/191/3
f 73/192/3 74/190/3 50/191/3
f 73/192/3 50/191/3 49/193/3
f 72/194/3 73/192/3 49/193/3
f 72/194/3 49/193/3 48/195/3
f 71/196/3 72/194/3 48/195/3
f 71/196/3 48/195/3 47/197/3
f 70/198/3 71/196/3 47/197/3
f 70/198/3 47/197/3 46/199/3
f 69/200/3 70/198/3 46/199/3
f 69/200/3 46/199/3 45/201/3
f 68/202/3 69/200/3 45/201/3
f 68/202/3 45/201/3 44/203/3
f 67/204/3 68/202/3 44/203/3
f 67/204/3 44/203/3 43/205/3
f 66/206/3 67/204/3 43/205/3
f 66/206/3 43/205/3 42/17/3
f 9/187/3 8/11/3 65/19/3
f 65/19/3 66/206/3 42/17/3
f 41/18/3 9/187/3 65/19/3
f 100/20/3 112/61/3 15/8/3
f 106/21/4 130/72/4 129/22/4
f 98/24/3 110/207/3 111/25/3
f 96/28/3 108/62/3 109/29/3
f 97/31/5 121/74/5 122/32/5
f 94/34/3 106/63/3 107/35/3
f 92/38/3 104/64/3 105/39/3
f 89/41/5 113/73/5 114/42/5
f 90/44/3 102/208/3 103/45/3
f 112/47/4 136/68/4 135/48/4
f 29/209/5 4/210/5 9/211/5
f 29/209/5 9/211/5 41/212/5
f 30/213/5 29/209/5 41/212/5
f 30/213/5 41/212/5 42/214/5
f 31/215/5 30/213/5 42/214/5
f 31/215/5 42/214/5 43/216/5
f 32/217/5 31/215/5 43/216/5
f 32/217/5 43/216/5 44/218/5
f 33/219/5 32/217/5 44/218/5
f 33/219/5 44/218/5 45/220/5
f 34/221/5 33/219/5 45/220/5
f 34/221/5 45/220/5 46/222/5
f 35/223/5 34/221/5 46/222/5
f 35/223/5 46/222/5 47/224/5
f 36/225/5 35/223/5 47/224/5
f 36/225/5 47/224/5 48/226/5
f 37/227/5 36/225/5 48/226/5
f 37/227/5 48/226/5 49/228/5
f 38/229/5 37/227/5 49/228/5
f 38/229/5 49/228/5 50/230/5
f 39/231/5 38/229/5 50/230/5
f 39/231/5 50/230/5 51/50/5
f 10/232/5 3/233/5 40/52/5
f 40/52/5 39/231/5 51/50/5
f 52/51/5 10/232/5 40/52/5
f 77/234/3 6/13/3 12/12/3
f 77/234/3 12/12/3 53/235/3
f 78/236/3 77/234/3 53/235/3
f 78/236/3 53/235/3 54/237/3
f 79/238/3 78/236/3 54/237/3
f 79/238/3 54/237/3 55/239/3
f 80/240/3 79/238/3 55/239/3
f 80/240/3 55/239/3 56/241/3
f 81/242/3 80/240/3 56/241/3
f 81/242/3 56/241/3 57/243/3
f 82/244/3 81/242/3 57/243/3
f 82/244/3 57/243/3 58/245/3
f 83/246/3 82/244/3 58/245/3
f 83/246/3 58/245/3 59/247/3
f 84/248/3 83/246/3 59/247/3
f 84/248/3 59/247/3 60/249/3
f 85/250/3 84/248/3 60/249/3
f 85/250/3 60/249/3 61/251/3
f 86/252/3 85/250/3 61/251/3
f 86/252/3 61/251/3 62/253/3
f 87/254/3 86/252/3 62/253/3
f 87/254/3 62/253/3 63/53/3
f 11/186/3 5/8/3 88/55/3
f 88/55/3 87/254/3 63/53/3
f 64/54/3 11/186/3 88/55/3
f 28/235/6 2/12/6 4/187/6
f 28/235/6 4/187/6 29/18/6
f 27/237/6 28/235/6 29/18/6
f 27/237/6 29/18/6 30/17/6
f 26/239/6 27/237/6 30/17/6
f 26/239/6 30/17/6 31/205/6
f 25/241/6 26/239/6 31/205/6
f 25/241/6 31/205/6 32/203/6
f 24/243/6 25/241/6 32/203/6
f 24/243/6 32/203/6 33/201/6
f 23/245/6 24/243/6 33/201/6
f 23/245/6 33/201/6 34/199/6
f 22/247/6 23/245/6 34/199/6
f 22/247/6 34/199/6 35/197/6
f 21/255/6 22/247/6 35/197/6
f 21/255/6 35/197/6 36/195/6
f 20/256/6 21/255/6 36/195/6
f 20/256/6 36/195/6 37/193/6
f 19/257/6 20/256/6 37/193/6
f 19/257/6 37/193/6 38/191/6
f 18/258/6 19/257/6 38/191/6
f 18/258/6 38/191/6 39/56/6
f 3/9/6 1/186/6 17/58/6
f 17/58/6 18/258/6 39/56/6
f 40/57/6 3/9/6 17/58/6
f 53/212/4 12/211/4 2/210/4
f 53/212/4 2/210/4 28/209/4
f 54/214/4 53/212/4 28/209/4
f 54/214/4 28/209/4 27/213/4
f 55/216/4 54/214/4 27/213/4
f 55/216/4 27/213/4 26/215/4
f 56/218/4 55/216/4 26/215/4
f 56/218/4 26/215/4 25/217/4
f 57/220/4 56/218/4 25/217/4
f 57/220/4 25/217/4 24/219/4
f 58/222/4 57/220/4 24/219/4
f 58/222/4 24/219/4 23/221/4
f 59/224/4 58/222/4 23/221/4
f 59/224/4 23/221/4 22/223/4
f 60/226/4 59/224/4 22/223/4
f 60/226/4 22/223/4 21/259/4
f 61/228/4 60/226/4 21/259/4
f 61/228/4 21/259/4 20/260/4
f 62/230/4 61/228/4 20/260/4
f 62/230/4 20/260/4 19/261/4
f 63/50/4 62/230/4 19/261/4
f 63/50/4 19/261/4 18/59/4
f 1/233/4 11/232/4 64/51/4
f 64/51/4 63/50/4 18/59/4
f 17/60/4 1/233/4 64/51/4
f 91/65/5 115/76/5 116/66/5
f 99/49/5 123/48/5 124/68/5
f 108/69/4 132/75/4 131/70/4
f 93/23/5 117/22/5 118/72/5
f 102/43/4 126/42/4 125/73/4
f 110/33/4 134/32/4 133/74/4
f 95/71/5 119/70/5 120/75/5
f 104/67/4 128/66/4 127/76/4
f 65/78/4 8/262/4 13/263/4
f 65/78/4 13/263/4 89/41/4
f 66/264/4 65/78/4 89/41/4
f 66/264/4 89/41/4 90/43/4
f 67/265/4 66/264/4 90/43/4
f 67/265/4 90/43/4 91/65/4
f 68/266/4 67/265/4 91/65/4
f 68/266/4 91/65/4 92/67/4
f 69/267/4 68/266/4 92/67/4
f 69/267/4 92/67/4 93/23/4
f 70/268/4 69/267/4 93/23/4
f 70/268/4 93/23/4 94/21/4
f 71/269/4 70/268/4 94/21/4
f 71/269/4 94/21/4 95/71/4
f 72/270/4 71/269/4 95/71/4
f 72/270/4 95/71/4 96/69/4
f 73/271/4 72/270/4 96/69/4
f 73/271/4 96/69/4 97/31/4
f 74/272/4 73/271/4 97/31/4
f 74/272/4 97/31/4 98/33/4
f 75/273/4 74/272/4 98/33/4
f 75/273/4 98/33/4 99/49/4
f 14/274/4 7/275/4 76/77/4
f 76/77/4 75/273/4 99/49/4
f 100/47/4 14/274/4 76/77/4
f 88/77/5 5/275/5 15/274/5
f 88/77/5 15/274/5 112/47/5
f 87/273/5 88/77/5 112/47/5
f 87/273/5 112/47/5 111/49/5
f 86/272/5 87/273/5 111/49/5
f 86/272/5 111/49/5 110/33/5
f 85/271/5 86/272/5 110/33/5
f 85/271/5 110/33/5 109/31/5
f 84/270/5 85/271/5 109/31/5
f 84/270/5 109/31/5 108/69/5
f 83/269/5 84/270/5 108/69/5
f 83/269/5 108/69/5 107/71/5
f 82/268/5 83/269/5 107/71/5
f 82/268/5 107/71/5 106/21/5
f 81/267/5 82/268/5 106/21/5
f 81/267/5 106/21/5 105/23/5
f 80/266/5 81/267/5 105/23/5
f 80/266/5 105/23/5 104/67/5
f 79/265/5 80/266/5 104/67/5
f 79/265/5 104/67/5 103/65/5
f 78/264/5 79/265/5 103/65/5
f 78/264/5 103/65/5 102/43/5
f 16/263/5 6/262/5 77/78/5
f 77/78/5 78/264/5 102/43/5
f 101/41/5 16/263/5 77/78/5
usemtl finewood
f 94/2/1 130/27/1 106/16/1
f 107/16/2 119/37/2 95/2/2
f 123/26/3 136/61/3 124/20/3
f 119/36/3 132/62/3 120/28/3
f 117/40/3 130/63/3 118/34/3
f 115/46/3 128/64/3 116/38/3
f 105/16/2 117/37/2 93/2/2
f 100/2/1 136/27/1 112/16/1
f 92/2/1 128/27/1 104/16/1
f 111/16/2 123/37/2 99/2/2
f 103/16/2 115/37/2 91/2/2
f 96/2/1 132/27/1 108/16/1
f 94/2/1 118/37/1 130/27/1
f 107/16/2 131/27/2 119/37/2
f 123/26/3 135/25/3 136/61/3
f 119/36/3 131/35/3 132/62/3
f 117/40/3 129/39/3 130/63/3
f 115/46/3 127/45/3 128/64/3
f 105/16/2 129/27/2 117/37/2
f 100/2/1 124/37/1 136/27/1
f 92/2/1 116/37/1 128/27/1
f 111/16/2 135/27/2 123/37/2
f 103/16/2 127/27/2 115/37/2
f 96/2/1 120/37/1 132/27/1
usemtl books
f 151/79/6 139/80/6 137/81/6
f 155/82/7 153/83/7 154/84/7
f 159/85/8 157/86/8 158/87/8
f 155/82/5 150/88/5 149/89/5
f 157/86/3 153/83/3 156/90/3
f 142/91/1 144/92/1 137/81/1
f 152/93/4 159/85/4 158/87/4
f 140/94/2 148/95/2 146/96/2
f 139/97/9 150/88/9 137/98/9
f 151/99/10 152/93/10 140/100/10
f 142/101/11 154/84/11 153/83/11
f 145/102/12 155/82/12 146/103/12
f 148/104/13 158/87/13 157/86/13
f 143/105/14 159/85/14 144/106/14
f 146/107/15 149/89/15 139/108/15
f 141/109/16 150/88/16 154/84/16
f 148/110/17 156/90/17 145/111/17
f 142/112/18 160/113/18 143/114/18
f 144/115/19 138/116/19 151/117/19
f 147/118/20 152/93/20 158/87/20
f 175/79/6 163/80/6 161/81/6
f 179/119/7 177/120/7 178/121/7
f 183/122/8 181/123/8 182/124/8
f 179/119/5 174/125/5 173/126/5
f 181/123/3 177/120/3 180/127/3
f 166/91/1 168/92/1 161/81/1
f 176/128/4 183/122/4 182/124/4
f 164/94/2 172/95/2 170/96/2
f 163/129/9 174/125/9 161/130/9
f 164/131/10 162/132/10 176/128/10
f 166/133/11 178/121/11 177/120/11
f 169/134/12 179/119/12 170/135/12
f 172/136/13 182/124/13 181/123/13
f 167/137/14 183/122/14 168/138/14
f 170/139/15 173/126/15 163/140/15
f 165/141/16 174/125/16 178/121/16
f 172/142/17 180/127/17 169/143/17
f 166/144/18 184/145/18 167/146/18
f 168/147/19 162/132/19 175/148/19
f 171/149/20 176/128/20 182/124/20
f 199/79/6 187/80/6 185/81/6
f 203/150/7 201/151/7 202/152/7
f 207/153/8 205/154/8 206/155/8
f 203/150/5 198/156/5 197/157/5
f 205/154/3 201/151/3 204/158/3
f 190/91/1 192/92/1 185/81/1
f 200/159/4 207/153/4 206/155/4
f 188/94/2 196/95/2 194/96/2
f 185/160/9 197/157/9 198/156/9
f 199/161/10 200/159/10 188/162/10
f 190/163/11 202/152/11 201/151/11
f 193/164/12 203/150/12 194/165/12
f 196/166/13 206/155/13 205/154/13
f 191/167/14 207/153/14 192/168/14
f 194/169/15 197/157/15 187/170/15
f 189/171/16 198/156/16 202/152/16
f 196/172/17 204/158/17 193/173/17
f 190/174/18 208/175/18 191/176/18
f 192/177/19 186/178/19 199/179/19
f 195/180/20 200/159/20 206/155/20
f 223/79/6 211/80/6 209/81/6
f 227/82/21 225/83/21 226/84/21
f 231/85/22 229/86/22 230/87/22
f 227/82/23 222/88/23 221/89/23
f 228/90/3 232/113/3 225/83/3
f 214/91/24 216/92/24 209/81/24
f 224/93/25 231/85/25 230/87/25
f 212/94/26 220/95/26 218/96/26
f 211/97/27 222/88/27 209/98/27
f 212/100/28 210/116/28 224/93/28
f 214/101/29 226/84/29 225/83/29
f 217/102/30 227/82/30 218/103/30
f 220/104/31 230/87/31 229/86/31
f 215/105/32 231/85/32 216/106/32
f 218/107/33 221/89/33 211/108/33
f 213/109/34 222/88/34 226/84/34
f 217/111/35 229/86/35 228/90/35
f 215/114/36 225/83/36 232/113/36
f 216/115/37 210/116/37 223/117/37
f 219/118/38 224/93/38 230/87/38
f 247/79/6 235/80/6 233/81/6
f 251/119/39 249/120/39 250/121/39
f 255/122/40 253/123/40 254/124/40
f 251/119/2 246/125/2 245/126/2
f 253/123/3 249/120/3 252/127/3
f 238/91/5 240/92/5 233/81/5
f 248/128/1 255/122/1 254/124/1
f 236/94/4 244/95/4 242/96/4
f 235/129/41 246/125/41 233/130/41
f 247/181/42 248/128/42 236/131/42
f 238/133/43 250/121/43 249/120/43
f 241/134/44 251/119/44 242/135/44
f 244/136/45 254/124/45 253/123/45
f 239/137/46 255/122/46 240/138/46
f 242/139/47 245/126/47 235/140/47
f 237/141/48 246/125/48 250/121/48
f 244/142/49 252/127/49 241/143/49
f 238/144/50 256/145/50 239/146/50
f 240/147/51 234/132/51 247/148/51
f 243/149/52 248/128/52 254/124/52
f 271/79/6 259/80/6 257/81/6
f 275/150/39 273/151/39 274/152/39
f 279/153/40 277/154/40 278/155/40
f 275/150/2 270/156/2 269/157/2
f 277/154/3 273/151/3 276/158/3
f 262/91/5 264/92/5 257/81/5
f 272/159/1 279/153/1 278/155/1
f 260/94/4 268/95/4 266/96/4
f 257/160/41 269/157/41 270/156/41
f 271/161/53 272/159/53 260/162/53
f 262/163/43 274/152/43 273/151/43
f 265/164/44 275/150/44 266/165/44
f 268/166/45 278/155/45 277/154/45
f 263/167/46 279/153/46 264/168/46
f 266/169/54 269/157/54 259/170/54
f 261/171/48 270/156/48 274/152/48
f 268/172/49 276/158/49 265/173/49
f 262/174/50 280/175/50 263/176/50
f 264/177/51 258/178/51 271/179/51
f 267/180/55 272/159/55 278/155/55
f 295/79/6 283/80/6 281/81/6
f 299/119/40 297/120/40 298/121/40
f 302/124/39 304/145/39 301/123/39
f 299/119/1 294/125/1 293/126/1
f 301/123/3 297/120/3 300/127/3
f 286/91/4 288/92/4 281/81/4
f 296/128/2 303/122/2 302/124/2
f 284/94/5 292/95/5 290/96/5
f 283/129/53 294/125/53 281/130/53
f 295/181/56 296/128/56 284/131/56
f 286/133/57 298/121/57 297/120/57
f 289/134/58 299/119/58 290/135/58
f 292/136/59 302/124/59 301/123/59
f 287/137/60 303/122/60 288/138/60
f 290/139/61 293/126/61 283/140/61
f 285/141/62 294/125/62 298/121/62
f 292/142/63 300/127/63 289/143/63
f 286/144/64 304/145/64 287/146/64
f 288/147/65 282/132/65 295/148/65
f 291/149/66 296/128/66 302/124/66
f 319/79/6 307/80/6 305/81/6
f 323/150/39 321/151/39 322/152/39
f 327/153/40 325/154/40 326/155/40
f 323/150/2 318/156/2 317/157/2
f 325/154/3 321/151/3 324/158/3
f 310/91/5 312/92/5 305/81/5
f 320/159/1 327/153/1 326/155/1
f 308/94/4 316/95/4 314/96/4
f 305/160/41 317/157/41 318/156/41
f 319/161/53 320/159/53 308/162/53
f 310/163/43 322/152/43 321/151/43
f 313/164/44 323/150/44 314/165/44
f 316/166/45 326/155/45 325/154/45
f 311/167/46 327/153/46 312/168/46
f 314/169/54 317/157/54 307/170/54
f 309/171/48 318/156/48 322/152/48
f 316/172/49 324/158/49 313/173/49
f 310/174/50 328/175/50 311/176/50
f 312/177/51 306/178/51 319/179/51
f 315/180/55 320/159/55 326/155/55
f 343/79/6 331/80/6 329/81/6
f 347/82/67 345/83/67 346/84/67
f 351/85/68 349/86/68 350/87/68
f 347/82/5 342/88/5 341/89/5
f 349/86/3 345/83/3 348/90/3
f 334/91/1 336/92/1 329/81/1
f 344/93/4 351/85/4 350/87/4
f 332/94/2 340/95/2 338/96/2
f 331/97/69 342/88/69 329/98/69
f 332/100/70 330/116/70 344/93/70
f 333/182/71 345/83/71 334/101/71
f 338/103/72 348/90/72 347/82/72
f 339/183/73 349/86/73 340/104/73
f 336/106/74 352/113/74 351/85/74
f 338/107/75 341/89/75 331/108/75
f 333/109/76 342/88/76 346/84/76
f 340/110/17 348/90/17 337/111/17
f 335/114/18 345/83/18 352/113/18
f 336/115/77 330/116/77 343/117/77
f 339/118/78 344/93/78 350/87/78
f 353/81/6 356/94/6 355/80/6
f 370/84/79 372/90/79 369/83/79
f 374/87/80 376/113/80 373/86/80
f 371/82/81 366/88/81 365/89/81
f 373/86/3 369/83/3 372/90/3
f 358/91/82 360/92/82 353/81/82
f 368/93/83 375/85/83 374/87/83
f 356/94/84 364/95/84 362/96/84
f 355/97/85 366/88/85 353/98/85
f 367/99/86 368/93/86 356/100/86
f 358/101/87 370/84/87 369/83/87
f 361/102/88 371/82/88 362/103/88
f 364/104/89 374/87/89 373/86/89
f 359/105/90 375/85/90 360/106/90
f 362/107/91 365/89/91 355/108/91
f 357/109/92 366/88/92 370/84/92
f 361/111/93 373/86/93 372/90/93
f 359/114/94 369/83/94 376/113/94
f 360/115/95 354/116/95 367/117/95
f 363/118/96 368/93/96 374/87/96
f 391/79/6 379/80/6 377/81/6
f 395/119/67 393/120/67 394/121/67
f 399/122/68 397/123/68 398/124/68
f 395/119/5 390/125/5 389/126/5
f 397/123/3 393/120/3 396/127/3
f 382/91/1 384/92/1 377/81/1
f 392/128/4 399/122/4 398/124/4
f 380/94/2 388/95/2 386/96/2
f 379/129/69 390/125/69 377/130/69
f 391/181/70 392/128/70 380/131/70
f 381/184/71 393/120/71 382/133/71
f 386/135/72 396/127/72 395/119/72
f 387/185/73 397/123/73 388/136/73
f 384/138/74 400/145/74 399/122/74
f 386/139/75 389/126/75 379/140/75
f 381/141/76 390/125/76 394/121/76
f 388/142/17 396/127/17 385/143/17
f 383/146/18 393/120/18 400/145/18
f 384/147/77 378/132/77 391/148/77
f 387/149/78 392/128/78 398/124/78
f 415/79/4 403/80/4 401/81/4
f 419/82/97 417/83/97 418/84/97
f 422/87/98 424/113/98 421/86/98
f 419/82/99 414/88/99 413/89/99
f 421/86/5 417/83/5 420/90/5
f 406/91/100 408/92/100 401/81/100
f 416/93/101 423/85/101 422/87/101
f 404/94/102 412/95/102 410/96/102
f 403/97/103 414/88/103 401/98/103
f 415/99/104 416/93/104 404/100/104
f 406/101/105 418/84/105 417/83/105
f 409/102/106 419/82/106 410/103/106
f 412/104/107 422/87/107 421/86/107
f 407/105/108 423/85/108 408/106/108
f 410/107/109 413/89/109 403/108/109
f 405/109/110 414/88/110 418/84/110
f 409/111/111 421/86/111 420/90/111
f 407/114/112 417/83/112 424/113/112
f 408/115/113 402/116/113 415/117/113
f 411/118/114 416/93/114 422/87/114
f 151/79/6 140/94/6 139/80/6
f 155/82/7 156/90/7 153/83/7
f 159/85/8 160/113/8 157/86/8
f 155/82/5 154/84/5 150/88/5
f 157/86/3 160/113/3 153/83/3
f 137/81/1 141/276/1 142/91/1
f 142/91/1 143/277/1 144/92/1
f 144/92/1 151/79/1 137/81/1
f 152/93/4 138/116/4 159/85/4
f 146/96/2 139/80/2 140/94/2
f 140/94/2 147/278/2 148/95/2
f 148/95/2 145/279/2 146/96/2
f 139/97/9 149/89/9 150/88/9
f 151/99/10 138/116/10 152/93/10
f 142/101/11 141/182/11 154/84/11
f 145/102/12 156/90/12 155/82/12
f 148/104/13 147/183/13 158/87/13
f 143/105/14 160/113/14 159/85/14
f 146/107/15 155/82/15 149/89/15
f 141/109/16 137/280/16 150/88/16
f 148/110/17 157/86/17 156/90/17
f 142/112/18 153/83/18 160/113/18
f 144/115/19 159/85/19 138/116/19
f 147/118/20 140/281/20 152/93/20
f 175/79/6 164/94/6 163/80/6
f 179/119/7 180/127/7 177/120/7
f 183/122/8 184/145/8 181/123/8
f 179/119/5 178/121/5 174/125/5
f 181/123/3 184/145/3 177/120/3
f 161/81/1 165/276/1 166/91/1
f 166/91/1 167/277/1 168/92/1
f 168/92/1 175/79/1 161/81/1
f 176/128/4 162/132/4 183/122/4
f 170/96/2 163/80/2 164/94/2
f 164/94/2 171/278/2 172/95/2
f 172/95/2 169/279/2 170/96/2
f 163/129/9 173/126/9 174/125/9
f 164/131/10 175/181/10 162/132/10
f 166/133/11 165/184/11 178/121/11
f 169/134/12 180/127/12 179/119/12
f 172/136/13 171/185/13 182/124/13
f 167/137/14 184/145/14 183/122/14
f 170/139/15 179/119/15 173/126/15
f 165/141/16 161/282/16 174/125/16
f 172/142/17 181/123/17 180/127/17
f 166/144/18 177/120/18 184/145/18
f 168/147/19 183/122/19 162/132/19
f 171/149/20 164/283/20 176/128/20
f 199/79/6 188/94/6 187/80/6
f 203/150/7 204/158/7 201/151/7
f 207/153/8 208/175/8 205/154/8
f 203/150/5 202/152/5 198/156/5
f 205/154/3 208/175/3 201/151/3
f 185/81/1 189/276/1 190/91/1
f 190/91/1 191/277/1 192/92/1
f 192/92/1 199/79/1 185/81/1
f 200/159/4 186/178/4 207/153/4
f 194/96/2 187/80/2 188/94/2
f 188/94/2 195/278/2 196/95/2
f 196/95/2 193/279/2 194/96/2
f 185/160/9 187/284/9 197/157/9
f 199/161/10 186/178/10 200/159/10
f 190/163/11 189/285/11 202/152/11
f 193/164/12 204/158/12 203/150/12
f 196/166/13 195/286/13 206/155/13
f 191/167/14 208/175/14 207/153/14
f 194/169/15 203/150/15 197/157/15
f 189/171/16 185/287/16 198/156/16
f 196/172/17 205/154/17 204/158/17
f 190/174/18 201/151/18 208/175/18
f 192/177/19 207/153/19 186/178/19
f 195/180/20 188/288/20 200/159/20
f 223/79/6 212/94/6 211/80/6
f 227/82/21 228/90/21 225/83/21
f 231/85/22 232/113/22 229/86/22
f 227/82/23 226/84/23 222/88/23
f 228/90/3 229/86/3 232/113/3
f 209/81/24 213/276/24 214/91/24
f 214/91/24 215/277/24 216/92/24
f 216/92/24 223/79/24 209/81/24
f 224/93/25 210/116/25 231/85/25
f 218/96/26 211/80/26 212/94/26
f 212/94/26 219/278/26 220/95/26
f 220/95/26 217/279/26 218/96/26
f 211/97/115 221/89/115 222/88/115
f 212/100/28 223/99/28 210/116/28
f 214/101/29 213/182/29 226/84/29
f 217/102/30 228/90/30 227/82/30
f 220/104/31 219/183/31 230/87/31
f 215/105/32 232/113/32 231/85/32
f 218/107/33 227/82/33 221/89/33
f 213/109/34 209/280/34 222/88/34
f 217/111/35 220/110/35 229/86/35
f 215/114/36 214/112/36 225/83/36
f 216/115/37 231/85/37 210/116/37
f 219/118/38 212/281/38 224/93/38
f 247/79/6 236/94/6 235/80/6
f 251/119/39 252/127/39 249/120/39
f 255/122/40 256/145/40 253/123/40
f 251/119/2 250/121/2 246/125/2
f 253/123/3 256/145/3 249/120/3
f 233/81/5 237/276/5 238/91/5
f 238/91/5 239/277/5 240/92/5
f 240/92/5 247/79/5 233/81/5
f 248/128/1 234/132/1 255/122/1
f 242/96/4 235/80/4 236/94/4
f 236/94/4 243/278/4 244/95/4
f 244/95/4 241/279/4 242/96/4
f 235/129/56 245/126/56 246/125/56
f 247/181/42 234/132/42 248/128/42
f 238/133/43 237/184/43 250/121/43
f 241/134/44 252/127/44 251/119/44
f 244/136/45 243/185/45 254/124/45
f 239/137/46 256/145/46 255/122/46
f 242/139/47 251/119/47 245/126/47
f 237/141/48 233/282/48 246/125/48
f 244/142/49 253/123/49 252/127/49
f 238/144/50 249/120/50 256/145/50
f 240/147/51 255/122/51 234/132/51
f 243/149/52 236/283/52 248/128/52
f 271/79/6 260/94/6 259/80/6
f 275/150/39 276/158/39 273/151/39
f 279/153/40 280/175/40 277/154/40
f 275/150/2 274/152/2 270/156/2
f 277/154/3 280/175/3 273/151/3
f 257/81/5 261/276/5 262/91/5
f 262/91/5 263/277/5 264/92/5
f 264/92/5 271/79/5 257/81/5
f 272/159/1 258/178/1 279/153/1
f 266/96/4 259/80/4 260/94/4
f 260/94/4 267/278/4 268/95/4
f 268/95/4 265/279/4 266/96/4
f 257/160/56 259/284/56 269/157/56
f 271/161/42 258/178/42 272/159/42
f 262/163/43 261/285/43 274/152/43
f 265/164/44 276/158/44 275/150/44
f 268/166/45 267/286/45 278/155/45
f 263/167/46 280/175/46 279/153/46
f 266/169/54 275/150/54 269/157/54
f 261/171/48 257/287/48 270/156/48
f 268/172/49 277/154/49 276/158/49
f 262/174/50 273/151/50 280/175/50
f 264/177/51 279/153/51 258/178/51
f 267/180/52 260/288/52 272/159/52
f 295/79/6 284/94/6 283/80/6
f 299/119/40 300/127/40 297/120/40
f 302/124/39 303/122/39 304/145/39
f 299/119/1 298/121/1 294/125/1
f 301/123/3 304/145/3 297/120/3
f 281/81/4 285/276/4 286/91/4
f 286/91/4 287/277/4 288/92/4
f 288/92/4 295/79/4 281/81/4
f 296/128/2 282/132/2 303/122/2
f 290/96/5 283/80/5 284/94/5
f 284/94/5 291/278/5 292/95/5
f 292/95/5 289/279/5 290/96/5
f 283/129/53 293/126/53 294/125/53
f 295/181/56 282/132/56 296/128/56
f 286/133/57 285/184/57 298/121/57
f 289/134/58 300/127/58 299/119/58
f 292/136/59 291/185/59 302/124/59
f 287/137/116 304/145/116 303/122/116
f 290/139/61 299/119/61 293/126/61
f 285/141/62 281/282/62 294/125/62
f 292/142/63 301/123/63 300/127/63
f 286/144/64 297/120/64 304/145/64
f 288/147/65 303/122/65 282/132/65
f 291/149/66 284/283/66 296/128/66
f 319/79/6 308/94/6 307/80/6
f 323/150/39 324/158/39 321/151/39
f 327/153/40 328/175/40 325/154/40
f 323/150/2 322/152/2 318/156/2
f 325/154/3 328/175/3 321/151/3
f 305/81/5 309/276/5 310/91/5
f 310/91/5 311/277/5 312/92/5
f 312/92/5 319/79/5 305/81/5
f 320/159/1 306/178/1 327/153/1
f 314/96/4 307/80/4 308/94/4
f 308/94/4 315/278/4 316/95/4
f 316/95/4 313/279/4 314/96/4
f 305/160/56 307/284/56 317/157/56
f 319/161/42 306/178/42 320/159/42
f 310/163/43 309/285/43 322/152/43
f 313/164/44 324/158/44 323/150/44
f 316/166/45 315/286/45 326/155/45
f 311/167/46 328/175/46 327/153/46
f 314/169/54 323/150/54 317/157/54
f 309/171/48 305/287/48 318/156/48
f 316/172/49 325/154/49 324/158/49
f 310/174/50 321/151/50 328/175/50
f 312/177/51 327/153/51 306/178/51
f 315/180/52 308/288/52 320/159/52
f 343/79/6 332/94/6 331/80/6
f 347/82/67 348/90/67 345/83/67
f 351/85/68 352/113/68 349/86/68
f 347/82/5 346/84/5 342/88/5
f 349/86/3 352/113/3 345/83/3
f 329/81/1 333/276/1 334/91/1
f 334/91/1 335/277/1 336/92/1
f 336/92/1 343/79/1 329/81/1
f 344/93/4 330/116/4 351/85/4
f 338/96/2 331/80/2 332/94/2
f 332/94/2 339/278/2 340/95/2
f 340/95/2 337/279/2 338/96/2
f 331/97/69 341/89/69 342/88/69
f 332/100/70 343/99/70 330/116/70
f 333/182/71 346/84/71 345/83/71
f 338/103/72 337/102/72 348/90/72
f 339/183/73 350/87/73 349/86/73
f 336/106/74 335/105/74 352/113/74
f 338/107/75 347/82/75 341/89/75
f 333/109/76 329/280/76 342/88/76
f 340/110/17 349/86/17 348/90/17
f 335/114/18 334/112/18 345/83/18
f 336/115/77 351/85/77 330/116/77
f 339/118/78 332/281/78 344/93/78
f 353/81/6 367/79/6 356/94/6
f 370/84/79 371/82/79 372/90/79
f 374/87/80 375/85/80 376/113/80
f 371/82/81 370/84/81 366/88/81
f 373/86/3 376/113/3 369/83/3
f 353/81/82 357/276/82 358/91/82
f 358/91/82 359/277/82 360/92/82
f 360/92/82 367/79/82 353/81/82
f 368/93/83 354/116/83 375/85/83
f 362/96/84 355/80/84 356/94/84
f 356/94/84 363/278/84 364/95/84
f 364/95/84 361/279/84 362/96/84
f 355/97/85 365/89/85 366/88/85
f 367/99/86 354/116/86 368/93/86
f 358/101/87 357/182/87 370/84/87
f 361/102/117 372/90/117 371/82/117
f 364/104/89 363/183/89 374/87/89
f 359/105/90 376/113/90 375/85/90
f 362/107/118 371/82/118 365/89/118
f 357/109/92 353/280/92 366/88/92
f 361/111/93 364/110/93 373/86/93
f 359/114/94 358/112/94 369/83/94
f 360/115/95 375/85/95 354/116/95
f 363/118/96 356/281/96 368/93/96
f 391/79/6 380/94/6 379/80/6
f 395/119/67 396/127/67 393/120/67
f 399/122/68 400/145/68 397/123/68
f 395/119/5 394/121/5 390/125/5
f 397/123/3 400/145/3 393/120/3
f 377/81/1 381/276/1 382/91/1
f 382/91/1 383/277/1 384/92/1
f 384/92/1 391/79/1 377/81/1
f 392/128/4 378/132/4 399/122/4
f 386/96/2 379/80/2 380/94/2
f 380/94/2 387/278/2 388/95/2
f 388/95/2 385/279/2 386/96/2
f 379/129/69 389/126/69 390/125/69
f 391/181/70 378/132/70 392/128/70
f 381/184/71 394/121/71 393/120/71
f 386/135/72 385/134/72 396/127/72
f 387/185/73 398/124/73 397/123/73
f 384/138/74 383/137/74 400/145/74
f 386/139/75 395/119/75 389/126/75
f 381/141/76 377/282/76 390/125/76
f 388/142/17 397/123/17 396/127/17
f 383/146/18 382/144/18 393/120/18
f 384/147/77 399/122/77 378/132/77
f 387/149/78 380/283/78 392/128/78
f 415/79/4 404/94/4 403/80/4
f 419/82/97 420/90/97 417/83/97
f 422/87/98 423/85/98 424/113/98
f 419/82/99 418/84/99 414/88/99
f 421/86/5 424/113/5 417/83/5
f 401/81/100 405/276/100 406/91/100
f 406/91/100 407/277/100 408/92/100
f 408/92/100 415/79/100 401/81/100
f 416/93/101 402/116/101 423/85/101
f 410/96/102 403/80/102 404/94/102
f 404/94/102 411/278/102 412/95/102
f 412/95/102 409/279/102 410/96/102
f 403/97/103 413/89/103 414/88/103
f 415/99/104 402/116/104 416/93/104
f 406/101/105 405/182/105 418/84/105
f 409/102/106 420/90/106 419/82/106
f 412/104/107 411/183/107 422/87/107
f 407/105/108 424/113/108 423/85/108
f 410/107/109 419/82/109 413/89/109
f 405/109/110 401/280/110 414/88/110
f 409/111/111 412/110/111 421/86/111
f 407/114/112 406/112/112 417/83/112
f 408/115/113 423/85/113 402/116/113
f 411/118/119 404/281/119 416/93/119
