# Blender 5.1.1
# www.blender.org
mtllib book_2.mtl
o book_2
v -0.112760 0.009634 0.170983
v -0.120000 0.110000 0.180000
v -0.112760 0.009634 -0.170983
v -0.112760 0.090366 -0.170983
v 0.087769 0.009634 0.170983
v 0.098589 0.020454 0.170983
v 0.098589 0.079546 0.170983
v 0.087769 0.090366 0.170983
v 0.098589 0.020454 -0.170983
v 0.087769 0.009634 -0.170983
v 0.087769 0.090366 -0.170983
v 0.098589 0.079546 -0.170983
v -0.120000 -0.010000 -0.180000
v -0.120000 -0.010000 0.180000
v -0.112760 0.090366 0.170983
v -0.120000 0.110000 -0.180000
v 0.120000 0.011645 0.180000
v 0.098355 -0.010000 0.180000
v 0.098355 -0.010000 -0.180000
v 0.120000 0.011645 -0.180000
v 0.120000 0.088355 -0.180000
v 0.098355 0.110000 -0.180000
v 0.098355 0.110000 0.180000
v 0.120000 0.088355 0.180000
vn -1.0000 -0.0000 -0.0000
vn 0.7071 -0.7071 -0.0000
vn 0.7071 0.7071 -0.0000
vn -0.0000 -1.0000 -0.0000
vn 1.0000 -0.0000 -0.0000
vn -0.0000 -0.0000 1.0000
vn -0.0000 1.0000 -0.0000
vn -0.0000 -0.0000 -1.0000
vn -0.9382 0.3460 -0.0000
vn -0.9382 -0.3460 -0.0000
vn -0.2749 0.2749 0.9213
vn -0.2749 0.2749 -0.9213
vn -0.2749 -0.2749 -0.9213
vn -0.2749 -0.2749 0.9213
vn -0.0000 0.4173 -0.9088
vn -0.0000 0.4173 0.9088
vn -0.3881 -0.0000 -0.9216
vn -0.3881 -0.0000 0.9216
vn -0.0000 -0.4173 0.9088
vn -0.0000 -0.4173 -0.9088
vt 0.989259 0.855864
vt 0.916126 0.940949
vt 0.916126 0.855864
vt 0.472609 0.808216
vt 0.465508 0.988641
vt 0.465508 0.808216
vt 0.415718 0.808216
vt 0.422819 0.988641
vt 0.415718 0.988641
vt 0.472609 0.988641
vt 0.582460 0.808216
vt 0.582460 0.988641
vt 0.925928 0.803277
vt 0.989259 0.805969
vt 0.304539 0.988641
vt 0.989259 0.940949
vt 0.979457 0.993536
vt 0.916126 0.990844
vt 0.584624 0.981484
vt 0.584624 0.815617
vt 0.301067 0.815617
vt 0.301067 0.981484
vt 0.466092 0.805403
vt 0.466092 0.991695
vt 0.473191 0.991695
vt 0.422235 0.991695
vt 0.422236 0.805403
vt 0.415136 0.805403
vt 0.481070 0.991486
vt 0.574103 0.991486
vt 0.481070 0.805596
vt 0.430456 0.991701
vt 0.457871 0.991701
vt 0.457871 0.805398
vt 0.422819 0.808216
vt 0.430456 0.805398
vt 0.407257 0.805596
vt 0.304539 0.808215
vt 0.314225 0.805596
vt 0.407257 0.991486
vt 0.916126 0.805969
vt 0.979457 0.803277
vt 0.989259 0.990844
vt 0.925928 0.993536
vt 0.473191 0.805403
vt 0.415136 0.991695
vt 0.574103 0.805596
vt 0.314225 0.991486
s 0
usemtl books
f 15/1/1 3/2/1 1/3/1
f 18/4/2 20/5/2 17/6/2
f 23/7/3 21/8/3 22/9/3
f 19/10/4 14/11/4 13/12/4
f 21/8/5 17/6/5 20/5/5
f 6/13/6 8/14/6 1/3/6
f 16/15/7 23/7/7 22/9/7
f 4/16/8 12/17/8 10/18/8
f 3/19/9 14/11/9 1/20/9
f 15/21/10 16/15/10 4/22/10
f 6/23/11 18/4/11 17/6/11
f 9/24/12 19/10/12 10/25/12
f 12/26/13 22/9/13 21/8/13
f 7/27/14 23/7/14 8/28/14
f 10/29/15 13/12/15 3/30/15
f 5/31/16 14/11/16 18/4/16
f 12/32/17 20/5/17 9/33/17
f 6/34/18 24/35/18 7/36/18
f 8/37/19 2/38/19 15/39/19
f 11/40/20 16/15/20 22/9/20
f 15/1/1 4/16/1 3/2/1
f 18/4/2 19/10/2 20/5/2
f 23/7/3 24/35/3 21/8/3
f 19/10/4 18/4/4 14/11/4
f 21/8/5 24/35/5 17/6/5
f 1/3/6 5/41/6 6/13/6
f 6/13/6 7/42/6 8/14/6
f 8/14/6 15/1/6 1/3/6
f 16/15/7 2/38/7 23/7/7
f 10/18/8 3/2/8 4/16/8
f 4/16/8 11/43/8 12/17/8
f 12/17/8 9/44/8 10/18/8
f 3/19/9 13/12/9 14/11/9
f 15/21/10 2/38/10 16/15/10
f 6/23/11 5/45/11 18/4/11
f 9/24/12 20/5/12 19/10/12
f 12/26/13 11/46/13 22/9/13
f 7/27/14 24/35/14 23/7/14
f 10/29/15 19/10/15 13/12/15
f 5/31/16 1/47/16 14/11/16
f 12/32/17 21/8/17 20/5/17
f 6/34/18 17/6/18 24/35/18
f 8/37/19 23/7/19 2/38/19
f 11/40/20 4/48/20 16/15/20
