# Blender 5.1.1
# www.blender.org
mtllib cabinet.mtl
o cabinet
v -0.250000 0.332577 0.967423
v -0.250000 0.517423 0.967423
v -0.250000 0.332577 -0.967423
v -0.250000 0.517423 -0.967423
v 0.250000 0.300000 1.000000
v 0.250000 0.550000 1.000000
v 0.250000 0.300000 -1.000000
v 0.250000 0.550000 -1.000000
v 0.180000 0.000000 -0.877420
v 0.180000 0.300000 -0.900000
v 0.203747 0.000000 -0.863710
v 0.223301 0.300000 -0.875000
v 0.203747 0.000000 -0.836290
v 0.223301 0.300000 -0.825000
v 0.180000 0.000000 -0.822580
v 0.180000 0.300000 -0.800000
v 0.156253 0.000000 -0.836290
v 0.136699 0.300000 -0.825000
v 0.156253 0.000000 -0.863710
v 0.136699 0.300000 -0.875000
v -0.180000 0.000000 -0.877420
v -0.180000 0.300000 -0.900000
v -0.156253 0.000000 -0.863710
v -0.136699 0.300000 -0.875000
v -0.156253 0.000000 -0.836290
v -0.136699 0.300000 -0.825000
v -0.180000 0.000000 -0.822580
v -0.180000 0.300000 -0.800000
v -0.203747 0.000000 -0.836290
v -0.223301 0.300000 -0.825000
v -0.203747 0.000000 -0.863710
v -0.223301 0.300000 -0.875000
v 0.180000 0.000000 0.822580
v 0.180000 0.300000 0.800000
v 0.203747 0.000000 0.836290
v 0.223301 0.300000 0.825000
v 0.203747 0.000000 0.863710
v 0.223301 0.300000 0.875000
v 0.180000 0.000000 0.877420
v 0.180000 0.300000 0.900000
v 0.156253 0.000000 0.863710
v 0.136699 0.300000 0.875000
v 0.156253 0.000000 0.836290
v 0.136699 0.300000 0.825000
v -0.180000 0.000000 0.822580
v -0.180000 0.300000 0.800000
v -0.156253 0.000000 0.836290
v -0.136699 0.300000 0.825000
v -0.156253 0.000000 0.863710
v -0.136699 0.300000 0.875000
v -0.180000 0.000000 0.877420
v -0.180000 0.300000 0.900000
v -0.203747 0.000000 0.863710
v -0.223301 0.300000 0.875000
v -0.203747 0.000000 0.836290
v -0.223301 0.300000 0.825000
v -0.250000 0.600000 1.000000
v -0.250000 0.600000 -1.000000
v 0.250000 0.600000 -1.000000
v 0.250000 0.600000 1.000000
v -0.275000 0.575000 1.045000
v -0.275000 0.575000 -1.045000
v 0.275000 0.575000 -1.045000
v 0.275000 0.575000 1.045000
v -0.250000 0.300000 -1.000000
v -0.250000 0.300000 1.000000
v -0.250000 0.550000 1.000000
v -0.250000 0.550000 -1.000000
v 0.130599 0.346491 -0.821782
v 0.130599 0.346491 0.821782
v 0.130599 0.503509 0.821782
v 0.130599 0.503509 -0.821782
vn -0.3574 -0.0000 0.9340
vn -0.0000 -0.0000 -1.0000
vn 1.0000 -0.0000 -0.0000
vn -0.0000 -0.0000 1.0000
vn -0.0000 -1.0000 -0.0000
vn -0.0000 -0.8742 0.4856
vn 0.4989 -0.0650 -0.8642
vn 0.9979 -0.0650 -0.0000
vn 0.4989 -0.0650 0.8642
vn -0.4989 -0.0650 0.8642
vn -0.9979 -0.0650 -0.0000
vn -0.4989 -0.0650 -0.8642
vn -0.0000 1.0000 -0.0000
vn -0.7071 -0.7071 -0.0000
vn 0.7071 -0.7071 -0.0000
vn -0.0000 0.8742 -0.4856
vn 0.7071 0.7071 -0.0000
vn -0.7071 0.7071 -0.0000
vn -0.0000 -0.8742 -0.4856
vn -0.0000 0.8742 0.4856
vn -1.0000 -0.0000 -0.0000
vn -0.3574 -0.0000 -0.9340
vn -0.0365 -0.9993 -0.0000
vn -0.0365 0.9993 -0.0000
vt 0.336885 0.400975
vt 0.608743 0.584117
vt 0.336885 0.599025
vt 0.593750 0.375000
vt 0.260417 0.625000
vt 0.593750 0.625000
vt -0.177083 0.375000
vt 1.156250 0.625000
vt -0.177083 0.625000
vt 0.260417 0.375000
vt -0.166667 0.843750
vt 1.166667 0.343750
vt -0.166667 0.343750
vt -0.077492 0.899329
vt -0.068453 0.389109
vt -0.076504 0.897629
vt 0.347932 0.907710
vt 0.293081 0.611515
vt 0.347932 0.611515
vt 0.293081 0.907710
vt 0.238230 0.611515
vt 0.238230 0.907710
vt 0.183379 0.611515
vt 0.183379 0.907710
vt 0.128529 0.611515
vt 0.128529 0.907710
vt 0.073678 0.611515
vt 0.073678 0.907710
vt 0.018827 0.611515
vt 1.217902 0.873509
vt -0.039553 0.411942
vt 1.221804 0.411319
vt 1.246802 0.896342
vt 1.248042 0.899329
vt 1.255841 0.386122
vt -0.069693 0.386122
vt 1.254854 0.387822
vt -0.043454 0.874132
vt -0.155365 0.592423
vt 1.134532 0.592423
vt 1.156250 0.375000
vt 1.134532 0.407577
vt -0.155365 0.407577
vt -0.086990 0.584117
vt 1.086990 0.415883
vt -0.086990 0.415883
vt 0.608743 0.415883
vt 0.336885 1.536529
vt 0.608743 -0.380485
vt 0.336885 -0.536529
vt 0.608743 1.380485
vt 1.166667 0.843750
vt 0.018827 0.907710
vt 1.086990 0.584117
s 0
usemtl finewood
f 3/1/1 72/2/1 4/3/1
f 68/4/2 7/5/2 65/6/2
f 8/7/3 5/8/3 7/9/3
f 6/10/4 66/6/4 5/5/4
f 7/11/5 66/12/5 65/13/5
f 67/14/6 64/15/6 61/16/6
f 58/30/13 60/31/13 59/32/13
f 67/14/14 62/33/14 68/34/14
f 8/35/15 64/15/15 6/36/15
f 58/30/16 63/37/16 62/33/16
f 60/31/17 63/37/17 59/32/17
f 58/30/18 61/16/18 57/38/18
f 8/35/19 62/33/19 63/37/19
f 60/31/20 61/16/20 64/15/20
f 3/39/21 66/8/21 1/40/21
f 1/40/21 67/41/21 2/42/21
f 2/42/21 68/7/21 4/43/21
f 3/39/21 68/7/21 65/9/21
f 71/44/21 69/45/21 70/46/21
f 1/1/22 71/2/22 70/47/22
f 4/48/23 71/49/23 2/50/23
f 1/50/24 69/51/24 3/48/24
f 3/1/1 69/47/1 72/2/1
f 68/4/2 8/10/2 7/5/2
f 8/7/3 6/41/3 5/8/3
f 6/10/4 67/4/4 66/6/4
f 7/11/5 5/52/5 66/12/5
f 67/14/6 6/36/6 64/15/6
f 58/30/13 57/38/13 60/31/13
f 67/14/14 61/16/14 62/33/14
f 8/35/15 63/37/15 64/15/15
f 58/30/16 59/32/16 63/37/16
f 60/31/17 64/15/17 63/37/17
f 58/30/18 62/33/18 61/16/18
f 8/35/19 68/34/19 62/33/19
f 60/31/20 57/38/20 61/16/20
f 3/39/21 65/9/21 66/8/21
f 1/40/21 66/8/21 67/41/21
f 2/42/21 67/41/21 68/7/21
f 3/39/21 4/43/21 68/7/21
f 71/44/21 72/54/21 69/45/21
f 1/1/22 2/3/22 71/2/22
f 4/48/23 72/51/23 71/49/23
f 1/50/24 70/49/24 69/51/24
usemtl oak
f 10/17/7 11/18/7 9/19/7
f 12/20/8 13/21/8 11/18/8
f 14/22/9 15/23/9 13/21/9
f 16/24/10 17/25/10 15/23/10
f 18/26/11 19/27/11 17/25/11
f 20/28/12 9/29/12 19/27/12
f 22/17/7 23/18/7 21/19/7
f 24/20/8 25/21/8 23/18/8
f 26/22/9 27/23/9 25/21/9
f 28/24/10 29/25/10 27/23/10
f 30/26/11 31/27/11 29/25/11
f 32/28/12 21/29/12 31/27/12
f 34/17/7 35/18/7 33/19/7
f 36/20/8 37/21/8 35/18/8
f 37/21/9 40/24/9 39/23/9
f 40/24/10 41/25/10 39/23/10
f 42/26/11 43/27/11 41/25/11
f 44/28/12 33/29/12 43/27/12
f 46/17/7 47/18/7 45/19/7
f 48/20/8 49/21/8 47/18/8
f 50/22/9 51/23/9 49/21/9
f 52/24/10 53/25/10 51/23/10
f 54/26/11 55/27/11 53/25/11
f 56/28/12 45/29/12 55/27/12
f 10/17/7 12/20/7 11/18/7
f 12/20/8 14/22/8 13/21/8
f 14/22/9 16/24/9 15/23/9
f 16/24/10 18/26/10 17/25/10
f 18/26/11 20/28/11 19/27/11
f 20/28/12 10/53/12 9/29/12
f 22/17/7 24/20/7 23/18/7
f 24/20/8 26/22/8 25/21/8
f 26/22/9 28/24/9 27/23/9
f 28/24/10 30/26/10 29/25/10
f 30/26/11 32/28/11 31/27/11
f 32/28/12 22/53/12 21/29/12
f 34/17/7 36/20/7 35/18/7
f 36/20/8 38/22/8 37/21/8
f 37/21/9 38/22/9 40/24/9
f 40/24/10 42/26/10 41/25/10
f 42/26/11 44/28/11 43/27/11
f 44/28/12 34/53/12 33/29/12
f 46/17/7 48/20/7 47/18/7
f 48/20/8 50/22/8 49/21/8
f 50/22/9 52/24/9 51/23/9
f 52/24/10 54/26/10 53/25/10
f 54/26/11 56/28/11 55/27/11
f 56/28/12 46/53/12 45/29/12
