# Blender 5.1.2
# www.blender.org
mtllib computer_monitor.mtl
o computer_monitor
v -0.006508 0.071804 0.352307
v -0.006508 0.457463 0.352307
v -0.006508 0.071804 -0.352307
v -0.006508 0.457463 -0.352307
v -0.023917 0.063115 0.071365
v -0.046812 0.081085 0.330387
v -0.028841 0.466153 0.362734
v -0.046812 0.448182 0.330387
v -0.046812 0.081085 -0.330387
v -0.023917 0.063115 -0.071365
v -0.028841 0.466153 -0.362734
v -0.046812 0.448182 -0.330387
v -0.006508 0.466153 -0.362734
v -0.011432 0.063115 -0.071365
v -0.011432 0.063115 0.071365
v -0.006508 0.466153 0.362734
v -0.010429 0.454551 -0.346986
v -0.010429 0.074716 -0.346986
v -0.010429 0.074716 0.346986
v -0.010429 0.454551 0.346986
v -0.006508 0.063115 0.362734
v -0.006508 0.063115 -0.362734
v -0.028841 0.063115 -0.362734
v -0.028841 0.063115 0.362734
v -0.011432 0.027420 0.059471
v -0.011432 0.027420 -0.059471
v -0.023917 0.027420 -0.059471
v -0.023917 0.027420 0.059471
v 0.032264 0.020298 0.237883
v 0.032264 0.020298 -0.237883
v -0.067612 0.027420 -0.173903
v -0.067612 0.027420 0.173903
v -0.010429 0.264634 -0.346986
v -0.010429 0.074716 0.000000
v -0.010429 0.454551 0.000000
v -0.010429 0.264634 0.346986
v -0.010429 0.169675 -0.346986
v -0.010429 0.074716 -0.173493
v -0.010429 0.454551 0.173493
v -0.010429 0.169675 0.346986
v -0.010429 0.359592 -0.346986
v -0.010429 0.074716 0.173493
v -0.010429 0.454551 -0.173493
v -0.010429 0.359592 0.346986
v 0.032264 0.000000 0.237883
v 0.032264 0.000000 -0.237883
v -0.067612 0.000000 -0.173903
v -0.067612 0.000000 0.173903
v 0.021072 0.020298 0.000000
v 0.021072 0.000000 0.000000
v 0.032264 0.020298 -0.118942
v 0.032264 0.000000 -0.118942
v 0.032264 0.020298 0.118942
v 0.032264 0.000000 0.118942
v 0.158284 0.000000 -0.195092
v 0.158284 0.000000 -0.237883
v 0.158284 0.000000 0.237883
v 0.158284 0.000000 0.195092
vn 0.5962 -0.8028 -0.0000
vn -0.7071 -0.7071 -0.0000
vn -0.8742 -0.0000 0.4856
vn -0.7071 0.7071 -0.0000
vn -0.8742 -0.0000 -0.4856
vn -0.0000 -0.3161 0.9487
vn -1.0000 -0.0000 -0.0000
vn -0.0000 -0.0000 1.0000
vn -0.0000 1.0000 -0.0000
vn -0.0000 -0.0000 -1.0000
vn 1.0000 -0.0000 -0.0000
vn 0.8050 -0.0000 0.5933
vn 0.8050 -0.0000 -0.5933
vn 0.5962 0.8028 -0.0000
vn -0.0000 -1.0000 -0.0000
vn -0.0000 -0.3161 -0.9487
vn -0.5394 -0.0000 0.8420
vn 0.2331 0.9724 0.0110
vn 0.0541 0.9982 0.0266
vn -0.5394 -0.0000 -0.8420
vn 0.5172 -0.0000 0.8559
vn 0.9956 -0.0000 0.0937
vn 0.9956 -0.0000 -0.0937
vn 0.1590 0.9873 -0.0000
vn 0.5172 -0.0000 -0.8559
vn 0.0541 0.9982 -0.0266
vn 0.1609 0.9870 -0.0000
vn 0.1837 0.9828 -0.0173
vt 0.619610 0.746407
vt 0.619610 0.625000
vt 0.619610 0.564297
vt 0.375000 0.000000
vt 0.386147 0.238853
vt 0.375000 0.324313
vt 0.613853 0.011147
vt 0.386147 0.011147
vt 0.625000 0.324313
vt 0.625000 0.000000
vt 0.613853 0.238853
vt 0.267015 0.747964
vt 0.344455 0.747964
vt 0.625000 0.750000
vt 0.375000 0.888531
vt 0.375000 0.750000
vt 0.763531 0.500000
vt 0.625000 0.500000
vt 0.375000 0.500000
vt 0.380390 0.503593
vt 0.619610 0.503593
vt 0.380390 0.746407
vt 0.500000 0.503593
vt 0.440195 0.503593
vt 0.500000 0.746407
vt 0.559805 0.746407
vt 0.380390 0.625000
vt 0.380390 0.685703
vt 0.344455 0.502036
vt 0.236469 0.500000
vt 0.267015 0.502036
vt 0.236469 0.750000
vt 0.344455 0.625000
vt 1.000000 0.250000
vt 0.250000 0.000000
vt 0.000000 0.500000
vt 0.344455 0.563518
vt 0.344455 0.686482
vt 0.619610 0.685703
vt 0.625000 0.888531
vt 0.763531 0.750000
vt 0.559805 0.503593
vt 0.440195 0.746407
vt 0.380390 0.564297
vt 0.750000 1.000000
vt 1.000000 1.000000
vt 1.000000 0.750000
vt 1.000000 0.500000
vt 0.500000 1.000000
vt 1.000000 0.000000
vt 0.750000 0.000000
vt 0.000000 0.750000
vt 0.000000 1.000000
vt 0.250000 1.000000
vt 0.500000 0.000000
vt 0.000000 0.000000
vt 0.000000 0.250000
s 0
usemtl no_texture
f 2/1/1 35/2/1 43/3/1
f 24/4/2 9/5/2 23/6/2
f 24/4/3 8/7/3 6/8/3
f 11/9/4 8/7/4 7/10/4
f 23/6/5 12/11/5 11/9/5
f 5/12/6 25/13/6 15/13/6
f 8/7/7 9/5/7 6/8/7
f 16/14/8 24/15/8 21/16/8
f 11/17/9 16/14/9 13/18/9
f 11/9/10 22/19/10 23/6/10
f 3/20/11 13/18/11 4/21/11
f 1/22/11 22/19/11 3/20/11
f 4/21/11 16/14/11 2/1/11
f 2/1/11 21/16/11 1/22/11
f 4/21/12 33/23/12 37/24/12
f 1/22/13 36/25/13 44/26/13
f 3/20/14 34/27/14 42/28/14
f 14/29/15 21/16/15 15/13/15
f 5/12/15 23/30/15 10/31/15
f 14/29/15 23/30/15 22/19/15
f 15/13/15 24/32/15 5/12/15
f 26/29/9 31/31/9 27/31/9
f 10/31/7 28/12/7 5/12/7
f 14/29/16 27/31/16 10/31/16
f 15/13/11 26/29/11 14/29/11
f 29/13/17 48/12/17 45/13/17
f 25/13/18 49/33/18 30/29/18
f 25/13/19 32/12/19 29/13/19
f 27/31/9 32/12/9 28/12/9
f 40/34/11 38/35/11 33/36/11
f 50/33/15 45/13/15 48/12/15
f 31/31/7 48/12/7 32/12/7
f 30/29/20 47/31/20 31/31/20
f 51/37/21 52/37/21 55/37/21
f 49/33/22 52/37/22 51/37/22
f 45/13/15 58/38/15 57/13/15
f 53/38/23 50/33/23 49/33/23
f 29/13/24 58/38/24 53/38/24
f 30/29/24 55/37/24 56/29/24
f 46/29/15 55/37/15 52/37/15
f 46/29/10 30/29/10 56/29/10
f 54/38/25 53/38/25 58/38/25
f 29/13/8 45/13/8 57/13/8
f 17/21/1 4/21/1 2/1/1
f 2/1/1 20/1/1 39/39/1
f 2/1/1 39/39/1 35/2/1
f 43/3/1 17/21/1 2/1/1
f 24/4/2 6/8/2 9/5/2
f 24/4/3 7/10/3 8/7/3
f 11/9/4 12/11/4 8/7/4
f 23/6/5 9/5/5 12/11/5
f 5/12/6 28/12/6 25/13/6
f 8/7/7 12/11/7 9/5/7
f 16/14/8 7/40/8 24/15/8
f 11/17/9 7/41/9 16/14/9
f 11/9/10 13/18/10 22/19/10
f 3/20/11 22/19/11 13/18/11
f 1/22/11 21/16/11 22/19/11
f 4/21/11 13/18/11 16/14/11
f 2/1/11 16/14/11 21/16/11
f 18/20/12 3/20/12 4/21/12
f 4/21/12 17/21/12 41/42/12
f 4/21/12 41/42/12 33/23/12
f 37/24/12 18/20/12 4/21/12
f 20/1/13 2/1/13 1/22/13
f 1/22/13 19/22/13 40/43/13
f 1/22/13 40/43/13 36/25/13
f 44/26/13 20/1/13 1/22/13
f 19/22/14 1/22/14 3/20/14
f 3/20/14 18/20/14 38/44/14
f 3/20/14 38/44/14 34/27/14
f 42/28/14 19/22/14 3/20/14
f 14/29/15 22/19/15 21/16/15
f 5/12/15 24/32/15 23/30/15
f 14/29/15 10/31/15 23/30/15
f 15/13/15 21/16/15 24/32/15
f 26/29/26 30/29/26 31/31/26
f 10/31/7 27/31/7 28/12/7
f 14/29/16 26/29/16 27/31/16
f 15/13/11 25/13/11 26/29/11
f 29/13/17 32/12/17 48/12/17
f 30/29/27 26/29/27 25/13/27
f 25/13/27 29/13/27 53/38/27
f 49/33/9 51/37/9 30/29/9
f 25/13/28 53/38/28 49/33/28
f 25/13/9 28/12/9 32/12/9
f 27/31/9 31/31/9 32/12/9
f 39/45/11 20/46/11 44/47/11
f 39/45/11 44/47/11 36/48/11
f 35/49/11 39/45/11 36/48/11
f 40/34/11 19/50/11 42/51/11
f 35/49/11 36/48/11 40/34/11
f 41/52/11 17/53/11 43/54/11
f 43/54/11 35/49/11 40/34/11
f 40/34/11 42/51/11 34/55/11
f 38/35/11 18/56/11 37/57/11
f 40/34/11 34/55/11 38/35/11
f 41/52/11 43/54/11 40/34/11
f 38/35/11 37/57/11 33/36/11
f 33/36/11 41/52/11 40/34/11
f 48/12/15 47/31/15 46/29/15
f 46/29/15 52/37/15 50/33/15
f 50/33/15 54/38/15 45/13/15
f 48/12/15 46/29/15 50/33/15
f 31/31/7 47/31/7 48/12/7
f 30/29/20 46/29/20 47/31/20
f 49/33/22 50/33/22 52/37/22
f 45/13/15 54/38/15 58/38/15
f 53/38/23 54/38/23 50/33/23
f 29/13/24 57/13/24 58/38/24
f 30/29/24 51/37/24 55/37/24
f 46/29/15 56/29/15 55/37/15
