# Blender 5.1.1
# www.blender.org
mtllib desk_with_computer.mtl
o desk_with_computer
v 0.006250 0.699997 1.000000
v 0.006250 0.699997 -1.000000
v 0.381250 0.699997 -1.000000
v 0.500000 0.699997 -1.000000
v 1.006250 0.699997 -1.000000
v 0.750000 0.699997 -0.500000
v 0.500000 0.699997 0.858421
v 0.358421 0.699997 1.000000
v 1.006250 0.699997 -0.613287
v 0.892963 0.699997 -0.500000
v 0.642517 0.699997 -0.457007
v 0.500000 0.699997 -0.246504
v 0.500000 0.699997 -0.553495
v 0.500000 0.750000 -0.553495
v 0.034752 0.750000 0.971498
v 0.006250 0.721498 1.000000
v 0.034752 0.750000 -0.971498
v 0.006250 0.721498 -1.000000
v 0.381250 0.750000 -0.971498
v 0.381250 0.721498 -1.000000
v 0.500000 0.750000 -0.971497
v 0.500000 0.721498 -1.000000
v 0.977748 0.750000 -0.971498
v 1.006250 0.721498 -1.000000
v 0.752038 0.750000 -0.528502
v 0.750000 0.721498 -0.500000
v 0.346615 0.750000 0.971498
v 0.358421 0.721498 1.000000
v 0.471498 0.750000 0.846615
v 0.500000 0.721498 0.858421
v 0.881157 0.750000 -0.528502
v 0.892963 0.721498 -0.500000
v 0.977748 0.750000 -0.625093
v 1.006250 0.721498 -0.613287
v 0.471498 0.750000 -0.259374
v 0.500000 0.721497 -0.246504
v 0.642517 0.721498 -0.457007
v 0.616922 0.750000 -0.474335
v 0.049632 0.832520 -0.172598
v 0.049632 1.243055 -0.172598
v 0.382301 0.832520 -0.932717
v 0.382301 1.243055 -0.932717
v 0.165295 0.823270 -0.483101
v 0.020676 0.842400 -0.213446
v 0.022929 1.252305 -0.170881
v 0.020676 1.233176 -0.213446
v 0.332648 0.842400 -0.926272
v 0.232683 0.823270 -0.637074
v 0.365445 1.252305 -0.953498
v 0.332648 1.233176 -0.926272
v 0.387224 1.252305 -0.943966
v 0.244858 0.823270 -0.631746
v 0.177470 0.823270 -0.477772
v 0.044709 1.252305 -0.161349
v 0.375964 1.239955 -0.928650
v 0.375964 0.835620 -0.928650
v 0.048320 0.835620 -0.180012
v 0.048320 1.239955 -0.180012
v 0.044709 0.823270 -0.161349
v 0.387224 0.823270 -0.943966
v 0.365445 0.823270 -0.953498
v 0.022929 0.823270 -0.170881
v 0.189525 0.785273 -0.505317
v 0.232803 0.785273 -0.604201
v 0.220628 0.785273 -0.609530
v 0.177350 0.785273 -0.510645
v 0.167222 0.777691 -0.338341
v 0.340331 0.777691 -0.733879
v 0.219652 0.785273 -0.723314
v 0.093102 0.785273 -0.434159
v 0.375964 1.037788 -0.928650
v 0.212142 0.835620 -0.554331
v 0.212142 1.239955 -0.554331
v 0.048320 1.037788 -0.180012
v 0.375964 0.936704 -0.928650
v 0.294053 0.835620 -0.741491
v 0.130231 1.239955 -0.367171
v 0.048320 0.936704 -0.180012
v 0.375964 1.138871 -0.928650
v 0.130231 0.835620 -0.367171
v 0.294053 1.239955 -0.741491
v 0.048320 1.138871 -0.180012
v 0.167222 0.760578 -0.338341
v 0.340331 0.760578 -0.733879
v 0.219652 0.760578 -0.723314
v 0.093102 0.760578 -0.434159
v 0.242862 0.777691 -0.540886
v 0.242862 0.760578 -0.540886
v 0.297053 0.777691 -0.634994
v 0.297053 0.760578 -0.634994
v 0.210499 0.777691 -0.437225
v 0.210499 0.760578 -0.437225
v 0.447655 0.760578 -0.644518
v 0.463225 0.760578 -0.680094
v 0.290116 0.760578 -0.284555
v 0.305686 0.760578 -0.320130
v 0.223405 0.832520 0.828879
v 0.223405 1.243055 0.828879
v 0.051850 0.832520 0.017078
v 0.051850 1.243055 0.017078
v 0.136872 0.823270 0.509031
v 0.176092 0.842400 0.812495
v 0.202684 1.252305 0.845808
v 0.176092 1.233176 0.812495
v 0.015211 0.842400 0.051203
v 0.102121 0.823270 0.344589
v 0.026051 1.252305 0.009980
v 0.015211 1.233176 0.051203
v 0.049311 1.252305 0.005065
v 0.115123 0.823270 0.341841
v 0.149874 0.823270 0.506283
v 0.225944 1.252305 0.840892
v 0.049061 1.239955 0.024072
v 0.049061 0.835620 0.024072
v 0.218025 0.835620 0.823611
v 0.218025 1.239955 0.823611
v 0.225944 0.823270 0.840892
v 0.049311 0.823270 0.005065
v 0.026051 0.823270 0.009980
v 0.202684 0.823270 0.845808
v 0.143658 0.785273 0.476866
v 0.121340 0.785273 0.371259
v 0.108337 0.785273 0.374006
v 0.130655 0.785273 0.479614
v 0.222644 0.777691 0.625660
v 0.133373 0.777691 0.203230
v 0.041357 0.785273 0.282020
v 0.106617 0.785273 0.590835
v 0.049061 1.037788 0.024072
v 0.133543 0.835620 0.423842
v 0.133543 1.239955 0.423842
v 0.218025 1.037788 0.823611
v 0.049061 0.936704 0.024072
v 0.091302 0.835620 0.223957
v 0.175784 1.239955 0.623726
v 0.218025 0.936704 0.823611
v 0.049061 1.138871 0.024072
v 0.175784 0.835620 0.623726
v 0.091302 1.239955 0.223957
v 0.218025 1.138871 0.823611
v 0.222644 0.760578 0.625660
v 0.133373 0.760578 0.203230
v 0.041357 0.760578 0.282020
v 0.106617 0.760578 0.590835
v 0.166352 0.777691 0.416908
v 0.166352 0.760578 0.416908
v 0.155691 0.777691 0.308837
v 0.155691 0.760578 0.308837
v 0.200326 0.777691 0.520053
v 0.200326 0.760578 0.520053
v 0.272652 0.760578 0.213487
v 0.264623 0.760578 0.175493
v 0.353894 0.760578 0.597924
v 0.345865 0.760578 0.559930
v 0.258010 0.777389 0.168048
v 0.306985 0.777200 -0.123638
v 0.360841 0.762776 0.183491
v 0.382744 0.766290 -0.105884
v 0.240756 0.779846 0.165232
v 0.315244 0.777328 -0.179866
v 0.415941 0.762988 -0.163429
v 0.328056 0.777328 -0.258357
v 0.428753 0.762988 -0.241919
v 0.314721 0.777389 -0.179374
v 0.406489 0.762909 -0.102008
v 0.297467 0.779846 -0.182190
v 0.315758 0.777200 -0.177382
v 0.392247 0.766290 -0.164098
v 0.415992 0.762909 -0.160222
v 0.351033 0.770928 -0.116448
v 0.359805 0.770928 -0.170192
v 0.407143 0.762776 -0.100166
v 0.369554 0.768845 -0.137920
v 0.389444 0.766290 -0.146927
v 0.385547 0.766290 -0.123055
v 0.367668 0.768845 -0.126368
v 0.371439 0.768845 -0.149471
v 0.259726 0.777175 0.166986
v 0.306028 0.777175 -0.116672
v 0.266033 0.783699 0.163960
v 0.311046 0.783699 -0.111798
v 0.402829 0.770629 -0.096816
v 0.357816 0.770629 0.178943
v 0.321453 0.786208 -0.174396
v 0.356141 0.781268 -0.168733
v 0.313335 0.786208 -0.124659
v 0.348022 0.781268 -0.118997
v 0.333018 0.786411 -0.254228
v 0.425421 0.773253 -0.239145
v 0.321261 0.786411 -0.182203
v 0.413664 0.773253 -0.167119
v 0.389812 0.770897 -0.145623
v 0.392331 0.770897 -0.161050
v 0.405127 0.767859 -0.105265
v 0.383793 0.770897 -0.108747
v 0.413664 0.767859 -0.157567
v 0.370248 0.773192 -0.127151
v 0.371943 0.773192 -0.137530
v 0.373637 0.773192 -0.147908
v 0.386311 0.770897 -0.124174
v 0.244094 0.783795 0.159707
v 0.298875 0.783795 -0.175890
v 0.258184 0.781789 0.162007
v 0.312965 0.781789 -0.173590
v 0.221004 0.753350 0.164965
v 0.291888 0.753350 -0.269288
v 0.369046 0.753350 0.189130
v 0.439931 0.753350 -0.245123
v 0.364304 0.762186 0.188356
v 0.435189 0.762186 -0.245897
v 0.217706 0.783062 0.164426
v 0.288590 0.783062 -0.269826
v 0.560302 0.031503 -0.856217
v 0.418881 0.086889 -0.870862
v 0.418881 0.710344 -0.870862
v 0.454236 0.086889 -0.856217
v 0.454236 0.710344 -0.856217
v 0.468881 0.086889 -0.820862
v 0.468881 0.710344 -0.820862
v 0.454236 0.086889 -0.785506
v 0.454236 0.710344 -0.785506
v 0.418881 0.086889 -0.770862
v 0.418881 0.710344 -0.770862
v 0.383526 0.086889 -0.785506
v 0.383526 0.710344 -0.785506
v 0.368881 0.086889 -0.820862
v 0.368881 0.710344 -0.820862
v 0.383526 0.086889 -0.856217
v 0.383526 0.710344 -0.856217
v 0.560302 0.031503 -0.785506
v 0.277460 0.031503 -0.785506
v 0.277460 0.031503 -0.856217
v 0.560302 0.000000 -0.785506
v 0.238161 0.000000 -0.785506
v 0.238161 0.000000 -0.856217
v 0.560302 0.000000 -0.856217
v 0.958466 0.000000 -0.856217
v 0.958466 0.000000 -0.785506
v 0.819883 0.031503 -0.856217
v 0.918626 0.014309 -0.856217
v 0.918626 0.014309 -0.785506
v 0.819883 0.031503 -0.785506
v 0.330137 0.031503 0.791043
v 0.188716 0.086889 0.776398
v 0.188716 0.710344 0.776398
v 0.224071 0.086889 0.791043
v 0.224071 0.710344 0.791043
v 0.238716 0.086889 0.826398
v 0.238716 0.710344 0.826398
v 0.224071 0.086889 0.861754
v 0.224071 0.710344 0.861754
v 0.188716 0.086889 0.876398
v 0.188716 0.710344 0.876398
v 0.153360 0.086889 0.861754
v 0.153360 0.710344 0.861754
v 0.138716 0.086889 0.826398
v 0.138716 0.710344 0.826398
v 0.153360 0.086889 0.791043
v 0.153360 0.710344 0.791043
v 0.330137 0.031503 0.861754
v 0.047294 0.031503 0.861754
v 0.047294 0.031503 0.791043
v 0.330137 0.000000 0.861754
v 0.007996 0.000000 0.861754
v 0.007996 0.000000 0.791043
v 0.330137 0.000000 0.791043
v 0.728301 0.000000 0.791043
v 0.728301 0.000000 0.861754
v 0.589718 0.031503 0.791043
v 0.688461 0.014309 0.791043
v 0.688461 0.014309 0.861754
v 0.589718 0.031503 0.861754
vn -0.0000 -1.0000 -0.0000
vn -0.7071 0.7071 -0.0000
vn -0.0000 0.7071 -0.7071
vn 0.5000 0.7071 0.5000
vn -0.0000 0.7071 0.7071
vn 0.7071 0.7071 -0.0000
vn 0.5624 0.7342 0.3805
vn 0.2758 0.6698 0.6895
vn -0.0000 -0.0000 1.0000
vn -1.0000 -0.0000 -0.0000
vn -0.0000 1.0000 -0.0000
vn -0.0000 -0.0000 -1.0000
vn 1.0000 -0.0000 -0.0000
vn 0.3714 -0.0000 0.9285
vn 0.7071 -0.0000 0.7071
vn 0.8281 -0.0000 0.5606
vn 0.5462 -0.8028 0.2391
vn -0.6478 -0.7071 -0.2835
vn -0.9986 -0.0000 0.0529
vn -0.6478 0.7071 -0.2835
vn -0.6387 -0.0000 -0.7694
vn -0.3144 -0.6205 0.7184
vn -0.9161 -0.0000 -0.4009
vn -0.4009 -0.0000 0.9161
vn 0.4009 -0.0000 -0.9161
vn 0.9161 -0.0000 0.4009
vn 0.5401 -0.0000 0.8416
vn 0.9847 -0.0000 -0.1743
vn 0.5462 0.8028 0.2391
vn 0.3144 -0.6205 -0.7184
vn -0.7910 -0.0000 0.6119
vn 0.2084 0.9724 0.1053
vn 0.0371 0.9980 0.0503
vn -0.0872 -0.0000 -0.9962
vn 0.0631 -0.0000 0.9980
vn 0.8666 -0.0000 0.4990
vn 0.9546 -0.0000 0.2980
vn 0.1159 0.9920 0.0507
vn 0.7760 -0.0000 -0.6308
vn 0.5833 -0.8028 -0.1233
vn -0.6918 -0.7071 0.1462
vn -0.7815 -0.0000 0.6239
vn -0.6918 0.7071 0.1462
vn -0.9671 -0.0000 -0.2543
vn 0.1621 -0.6205 0.7672
vn -0.9784 -0.0000 0.2068
vn 0.2068 -0.0000 0.9784
vn -0.2068 -0.0000 -0.9784
vn 0.9784 -0.0000 -0.2068
vn 0.9289 -0.0000 0.3704
vn 0.6996 -0.0000 -0.7145
vn 0.5833 0.8028 -0.1233
vn 0.0001 -1.0000 -0.0000
vn -0.1621 -0.6205 -0.7672
vn -0.2875 -0.0000 0.9578
vn 0.2307 0.9724 -0.0356
vn 0.0594 0.9980 0.0193
vn -0.6504 -0.0000 -0.7596
vn 0.6319 -0.0000 0.7751
vn 0.9952 -0.0000 -0.0982
vn 0.9498 -0.0000 -0.3128
vn 0.1238 0.9920 -0.0262
vn 0.2643 -0.0000 -0.9645
vn 0.1374 0.9903 0.0224
vn 0.9710 0.1791 0.1585
vn -0.8171 0.5608 -0.1334
vn -0.1091 0.3148 0.9429
vn 0.2074 0.4781 -0.8535
vn -0.8429 0.5202 -0.1376
vn 0.8920 0.4279 0.1456
vn -0.8417 0.5222 -0.1374
vn 0.9380 0.3108 0.1531
vn -0.9794 0.1237 -0.1599
vn 0.0189 0.8079 0.5889
vn -0.0748 0.4781 0.8751
vn 0.9512 0.2668 0.1553
vn -0.8623 0.4865 -0.1408
vn -0.0609 0.5369 0.8414
vn 0.2052 0.8080 -0.5524
vn 0.1707 0.2558 -0.9515
vn 0.2098 0.5369 -0.8171
vn 0.9233 0.3533 0.1507
vn -0.1407 0.2558 0.9564
vn 0.1857 0.2015 -0.9617
vn -0.7411 0.6604 -0.1210
vn 0.1964 0.3148 -0.9286
vn -0.1298 0.2015 0.9708
vn -0.9808 -0.1118 -0.1601
vn 0.1611 -0.0000 -0.9869
vn 0.8670 0.4777 0.1415
vn -0.1611 -0.0000 0.9869
vn 0.3827 -0.0000 -0.9239
vn 0.9239 -0.0000 -0.3827
vn 0.9239 -0.0000 0.3827
vn 0.3827 -0.0000 0.9239
vn -0.3827 -0.0000 0.9239
vn -0.9239 -0.0000 0.3827
vn -0.9239 -0.0000 -0.3827
vn -0.3827 -0.0000 -0.9239
vn 0.3087 0.5911 0.7452
vn -0.3087 0.5911 0.7452
vn -0.0000 -0.2556 0.9668
vn -0.3087 0.5911 -0.7452
vn 0.3087 0.5911 -0.7452
vn -0.0000 -0.2556 -0.9668
vn -0.4546 0.8706 0.1883
vn -0.4546 0.8706 -0.1883
vn 0.4546 0.8706 -0.1883
vn 0.4546 0.8706 0.1883
vn 0.5182 0.8553 -0.0000
vn -0.5182 0.8553 -0.0000
vn -0.6255 0.7802 -0.0000
vn 0.1716 0.9852 -0.0000
vn 0.3380 0.9411 -0.0000
vn 0.5613 0.7352 0.3801
vn 0.2768 0.6683 0.6904
vn 0.5462 -0.8028 0.2390
vn 0.9847 -0.0000 -0.1742
vn 0.0621 0.9980 -0.0069
vn -0.7910 -0.0000 0.6118
vn 0.1474 0.9870 0.0645
vn 0.1764 0.9828 0.0551
vn 0.5834 -0.8028 -0.1233
vn 0.5834 0.8028 -0.1233
vn -0.8480 0.5300 -0.0000
vn 0.5834 0.8027 -0.1233
vn 0.0465 0.9980 -0.0417
vn 0.1574 0.9870 -0.0333
vn 0.1755 0.9828 -0.0578
vn 0.9498 -0.0000 -0.3129
vn 0.1373 0.9903 0.0224
vn 0.0189 0.8079 0.5890
vn 0.2052 0.8079 -0.5524
vn -0.1298 0.2015 0.9709
vt 1.165143 1.258149
vt 0.880109 0.837144
vt 0.880109 1.451126
vt 1.892609 2.344135
vt 1.666035 1.344135
vt 0.596951 -1.655865
vt -0.107390 2.344135
vt 2.287131 1.020398
vt -1.655865 0.963394
vt -1.598860 1.020398
vt -0.050386 1.020398
vt 0.642609 0.963394
vt -0.107390 0.963394
vt 0.880109 0.963394
vt 0.642609 1.020398
vt 0.880109 1.020398
vt 1.835605 1.020398
vt 1.892609 0.963394
vt 0.823105 -1.349095
vt 0.573339 -1.598861
vt -0.050386 -1.598860
vt 1.835605 1.594322
vt 1.892609 1.570710
vt 1.835605 2.287131
vt 1.642423 1.020398
vt 1.380109 0.963394
vt 1.666035 0.963394
vt 1.113953 1.292806
vt 0.823105 0.862883
vt 1.384184 1.020399
vt 1.165143 0.963394
vt 0.596951 0.963394
vt -0.107390 0.920392
vt 0.596951 0.920392
vt 2.344135 0.920392
vt -1.655865 0.920392
vt 0.642609 2.287131
vt 0.642609 0.920392
vt 0.880109 0.920392
vt 1.892609 0.920392
vt 1.384184 1.401140
vt 2.344135 0.963394
vt 1.570709 0.920392
vt 1.380109 0.920392
vt -1.372707 0.920392
vt 0.837143 0.963393
vt -1.372707 0.963394
vt 1.666035 0.920392
vt 1.258148 0.920392
vt 1.258148 0.963394
vt 0.619610 0.746407
vt 0.619610 0.625000
vt 0.619610 0.503593
vt 0.375000 0.000000
vt 0.386147 0.238853
vt 0.375000 0.324313
vt 0.613853 0.011147
vt 0.386147 0.011147
vt 0.625000 0.000000
vt 0.613853 0.238853
vt 0.625000 0.324313
vt 0.344455 0.747964
vt 0.267015 0.747964
vt 0.625000 0.750000
vt 0.375000 0.888531
vt 0.375000 0.750000
vt 0.625000 0.500000
vt 0.763531 0.750000
vt 0.375000 0.500000
vt 0.380390 0.503593
vt 0.380390 0.746407
vt 0.500000 0.503593
vt 0.440195 0.503593
vt 0.500000 0.746407
vt 0.559805 0.746407
vt 0.380390 0.564297
vt 0.380390 0.685703
vt 0.344455 0.502036
vt 0.236469 0.500000
vt 0.267015 0.502036
vt 0.236469 0.750000
vt 0.344455 0.625000
vt 1.000000 0.250000
vt 0.250000 0.000000
vt 0.000000 0.500000
vt 0.344455 0.563518
vt 0.344455 0.686482
vt 0.619610 0.564297
vt 0.003356 0.323186
vt 0.995285 0.963441
vt 0.003356 0.963441
vt 0.804282 0.809464
vt 0.015260 0.809466
vt 0.800252 0.803597
vt 0.678194 0.803597
vt 0.805560 0.361742
vt 0.805560 0.807563
vt 0.662438 0.802821
vt 0.662438 0.355151
vt 0.015260 0.885857
vt 0.804282 0.885857
vt 0.018230 0.355151
vt 0.800252 0.608581
vt 0.983818 0.361742
vt 0.983818 0.807563
vt 0.798485 0.359267
vt 0.759488 0.464396
vt 0.705272 0.464396
vt 0.678194 0.608581
vt 0.798485 0.464396
vt 0.018230 0.802821
vt 0.732380 0.543827
vt 0.706145 0.543827
vt 0.666275 0.464396
vt 0.666275 0.359267
vt 0.758614 0.543827
vt 0.738032 0.320693
vt 0.244627 0.281116
vt 0.738032 0.281117
vt 0.216592 0.043657
vt 0.244627 0.043657
vt 0.244627 0.004080
vt 0.738032 0.043657
vt 0.766067 0.043657
vt 0.404177 1.297549
vt 0.453261 0.432006
vt 0.404177 0.432006
vt 0.549084 1.297549
vt 0.500000 0.432006
vt 0.549084 0.432006
vt 0.500000 1.297549
vt 0.450916 0.432006
vt 0.453261 1.297549
vt 0.355093 0.432006
vt 0.450916 1.297549
vt 0.355093 1.297549
vt 0.600512 0.355114
vt 0.207842 0.355114
vt 0.334762 0.500000
vt 0.207842 0.450916
vt 0.355093 0.450916
vt 0.355093 0.549084
vt 0.207842 0.549084
vt 0.473592 0.500000
vt 0.600512 0.549084
vt 0.453261 0.549084
vt 0.453261 0.450916
vt 0.600512 0.450916
vt 0.153283 0.450916
vt 0.600512 0.311378
vt 0.153283 0.311378
vt 1.153283 0.450916
vt 0.960888 0.450916
vt 1.097973 0.549084
vt 0.960888 0.549084
vt 1.097973 0.450916
vt 1.153283 0.549084
vt 1.097973 0.331243
vt 1.153283 0.311378
vt 0.960888 0.355114
vt 1.380109 1.344135
vt 0.880109 2.344134
vt 0.880109 -1.372707
vt -0.107390 -1.655864
vt 0.642609 2.344135
vt 1.642423 1.401140
vt 1.113953 1.020398
vt 0.880109 2.287130
vt -0.050386 2.287131
vt 1.570709 0.963394
vt 1.165143 0.920392
vt 0.880109 0.920392
vt 0.837143 0.920392
vt 0.619610 0.685703
vt 0.625000 0.888531
vt 0.763531 0.500000
vt 0.559805 0.503593
vt 0.440195 0.746407
vt 0.380390 0.625000
vt 0.750000 1.000000
vt 1.000000 1.000000
vt 1.000000 0.750000
vt 1.000000 0.500000
vt 0.500000 1.000000
vt 1.000000 0.000000
vt 0.750000 0.000000
vt 0.000000 0.750000
vt 0.000000 1.000000
vt 0.250000 1.000000
vt 0.500000 0.000000
vt 0.000000 0.000000
vt 0.000000 0.250000
vt 0.995285 0.323186
vt 0.244627 0.320693
vt 0.216592 0.281116
vt 0.738032 0.004080
vt 0.766067 0.281117
vt 0.153283 0.549084
s 0
usemtl no_texture
f 40/51/17 73/52/17 55/53/17
f 62/54/18 47/55/18 61/56/18
f 62/54/19 46/57/19 44/58/19
f 45/59/20 50/60/20 46/57/20
f 61/56/21 50/60/21 49/61/21
f 53/62/22 66/63/22 63/62/22
f 46/57/23 47/55/23 44/58/23
f 54/64/24 62/65/24 59/66/24
f 51/67/11 45/68/11 54/64/11
f 49/61/25 60/69/25 61/56/25
f 42/53/26 60/69/26 51/67/26
f 41/70/26 59/66/26 60/69/26
f 42/53/26 54/64/26 40/51/26
f 40/51/26 59/66/26 39/71/26
f 42/53/27 71/72/27 75/73/27
f 39/71/28 74/74/28 82/75/28
f 41/70/29 76/76/29 80/77/29
f 52/78/1 59/66/1 53/62/1
f 43/63/1 61/79/1 48/80/1
f 52/78/1 61/79/1 60/69/1
f 53/62/1 62/81/1 43/63/1
f 64/78/11 69/80/11 65/80/11
f 48/80/23 66/63/23 43/63/23
f 52/78/30 65/80/30 48/80/30
f 52/78/26 63/62/26 64/78/26
f 67/62/31 86/63/31 83/62/31
f 63/62/32 87/82/32 68/78/32
f 63/62/33 70/63/33 67/62/33
f 65/80/11 70/63/11 66/63/11
f 78/83/26 76/84/26 71/85/26
f 69/80/23 86/63/23 70/63/23
f 68/78/34 85/80/34 69/80/34
f 89/86/35 90/86/35 93/86/35
f 87/82/36 90/86/36 89/86/36
f 91/87/37 88/82/37 87/82/37
f 67/62/38 96/87/38 91/87/38
f 68/78/38 93/86/38 94/78/38
f 84/78/25 68/78/25 94/78/25
f 92/87/39 91/87/39 96/87/39
f 67/62/24 83/62/24 95/62/24
f 98/51/40 131/52/40 139/88/40
f 120/54/41 105/55/41 119/56/41
f 120/54/42 104/57/42 102/58/42
f 103/59/43 108/60/43 104/57/43
f 119/56/44 108/60/44 107/61/44
f 111/62/45 124/63/45 121/62/45
f 104/57/46 105/55/46 102/58/46
f 112/64/47 120/65/47 117/66/47
f 109/67/11 103/68/11 112/64/11
f 107/61/48 118/69/48 119/56/48
f 100/53/49 118/69/49 109/67/49
f 99/70/49 117/66/49 118/69/49
f 100/53/49 112/64/49 98/51/49
f 98/51/49 117/66/49 97/71/49
f 100/53/50 129/72/50 133/73/50
f 97/71/51 132/74/51 140/75/51
f 99/70/52 134/76/52 138/77/52
f 110/78/1 117/66/1 111/62/1
f 101/63/53 119/79/53 106/80/53
f 106/80/1 118/69/1 110/78/1
f 101/63/1 117/66/1 120/81/1
f 122/78/11 127/80/11 123/80/11
f 106/80/46 124/63/46 101/63/46
f 110/78/54 123/80/54 106/80/54
f 110/78/49 121/62/49 122/78/49
f 125/62/55 144/63/55 141/62/55
f 121/62/56 145/82/56 126/78/56
f 121/62/57 128/63/57 125/62/57
f 123/80/11 128/63/11 124/63/11
f 136/83/49 134/84/49 129/85/49
f 127/80/46 144/63/46 128/63/46
f 126/78/58 143/80/58 127/80/58
f 147/86/59 148/86/59 151/86/59
f 145/82/60 148/86/60 147/86/60
f 149/87/61 146/82/61 145/82/61
f 125/62/62 154/87/62 149/87/62
f 126/78/62 151/86/62 152/78/62
f 142/78/48 126/78/48 152/78/48
f 150/87/63 149/87/63 154/87/63
f 125/62/47 141/62/47 153/62/47
f 55/53/117 42/53/117 40/51/117
f 40/51/17 58/51/17 77/174/17
f 73/52/11 81/88/11 55/53/11
f 40/51/117 77/174/117 73/52/117
f 62/54/18 44/58/18 47/55/18
f 62/54/19 45/59/19 46/57/19
f 45/59/20 49/61/20 50/60/20
f 61/56/21 47/55/21 50/60/21
f 53/62/22 43/63/22 66/63/22
f 46/57/23 50/60/23 47/55/23
f 54/64/24 45/175/24 62/65/24
f 51/67/11 49/176/11 45/68/11
f 49/61/25 51/67/25 60/69/25
f 42/53/26 41/70/26 60/69/26
f 41/70/26 39/71/26 59/66/26
f 42/53/26 51/67/26 54/64/26
f 40/51/26 54/64/26 59/66/26
f 56/70/27 41/70/27 42/53/27
f 42/53/27 55/53/27 79/177/27
f 42/53/27 79/177/27 71/72/27
f 75/73/27 56/70/27 42/53/27
f 58/51/118 40/51/118 39/71/118
f 39/71/118 57/71/118 78/178/118
f 39/71/118 78/178/118 74/74/118
f 82/75/118 58/51/118 39/71/118
f 57/71/29 39/71/29 41/70/29
f 41/70/29 56/70/29 76/76/29
f 76/76/11 72/179/11 80/77/11
f 80/77/29 57/71/29 41/70/29
f 52/78/1 60/69/1 59/66/1
f 43/63/1 62/81/1 61/79/1
f 52/78/1 48/80/1 61/79/1
f 53/62/1 59/66/1 62/81/1
f 64/78/119 68/78/119 69/80/119
f 48/80/23 65/80/23 66/63/23
f 52/78/30 64/78/30 65/80/30
f 52/78/26 53/62/26 63/62/26
f 67/62/120 70/63/120 86/63/120
f 68/78/121 64/78/121 63/62/121
f 63/62/121 67/62/121 91/87/121
f 87/82/11 89/86/11 68/78/11
f 63/62/122 91/87/122 87/82/122
f 63/62/11 66/63/11 70/63/11
f 65/80/11 69/80/11 70/63/11
f 77/180/26 58/181/26 82/182/26
f 77/180/26 82/182/26 74/183/26
f 73/184/26 77/180/26 74/183/26
f 78/83/26 57/185/26 80/186/26
f 73/184/26 74/183/26 78/83/26
f 79/187/26 55/188/26 81/189/26
f 81/189/26 73/184/26 78/83/26
f 78/83/26 80/186/26 72/190/26
f 76/84/26 56/191/26 75/192/26
f 78/83/26 72/190/26 76/84/26
f 79/187/26 81/189/26 78/83/26
f 76/84/26 75/192/26 71/85/26
f 71/85/26 79/187/26 78/83/26
f 69/80/23 85/80/23 86/63/23
f 68/78/34 84/78/34 85/80/34
f 87/82/36 88/82/36 90/86/36
f 91/87/37 92/87/37 88/82/37
f 67/62/38 95/62/38 96/87/38
f 68/78/38 89/86/38 93/86/38
f 113/53/40 100/53/40 98/51/40
f 98/51/123 116/51/123 135/174/123
f 98/51/40 135/174/40 131/52/40
f 139/88/123 113/53/123 98/51/123
f 120/54/41 102/58/41 105/55/41
f 120/54/42 103/59/42 104/57/42
f 103/59/43 107/61/43 108/60/43
f 119/56/44 105/55/44 108/60/44
f 111/62/45 101/63/45 124/63/45
f 104/57/46 108/60/46 105/55/46
f 112/64/47 103/175/47 120/65/47
f 109/67/11 107/176/11 103/68/11
f 107/61/48 109/67/48 118/69/48
f 100/53/49 99/70/49 118/69/49
f 99/70/49 97/71/49 117/66/49
f 100/53/49 109/67/49 112/64/49
f 98/51/49 112/64/49 117/66/49
f 114/70/50 99/70/50 100/53/50
f 100/53/50 113/53/50 137/177/50
f 100/53/50 137/177/50 129/72/50
f 133/73/50 114/70/50 100/53/50
f 116/51/51 98/51/51 97/71/51
f 97/71/51 115/71/51 136/178/51
f 97/71/51 136/178/51 132/74/51
f 140/75/51 116/51/51 97/71/51
f 115/71/52 97/71/52 99/70/52
f 99/70/124 114/70/124 134/76/124
f 134/76/125 130/179/125 138/77/125
f 138/77/126 115/71/126 99/70/126
f 110/78/1 118/69/1 117/66/1
f 101/63/1 120/81/1 119/79/1
f 106/80/1 119/79/1 118/69/1
f 101/63/1 111/62/1 117/66/1
f 122/78/127 126/78/127 127/80/127
f 106/80/46 123/80/46 124/63/46
f 110/78/54 122/78/54 123/80/54
f 110/78/49 111/62/49 121/62/49
f 125/62/55 128/63/55 144/63/55
f 126/78/128 122/78/128 121/62/128
f 121/62/128 125/62/128 149/87/128
f 145/82/11 147/86/11 126/78/11
f 121/62/129 149/87/129 145/82/129
f 121/62/11 124/63/11 128/63/11
f 123/80/11 127/80/11 128/63/11
f 135/180/49 116/181/49 140/182/49
f 135/180/49 140/182/49 132/183/49
f 131/184/49 135/180/49 132/183/49
f 136/83/49 115/185/49 138/186/49
f 131/184/49 132/183/49 136/83/49
f 137/187/49 113/188/49 139/189/49
f 139/189/49 131/184/49 136/83/49
f 136/83/49 138/186/49 130/190/49
f 134/84/49 114/191/49 133/192/49
f 136/83/49 130/190/49 134/84/49
f 137/187/49 139/189/49 136/83/49
f 134/84/49 133/192/49 129/85/49
f 129/85/49 137/187/49 136/83/49
f 127/80/46 143/80/46 144/63/46
f 126/78/58 142/78/58 143/80/58
f 145/82/60 146/82/60 148/86/60
f 149/87/130 150/87/130 146/82/130
f 125/62/62 153/62/62 154/87/62
f 126/78/62 147/86/62 151/86/62
usemtl oak
f 11/1/1 12/2/1 13/3/1
f 13/3/1 5/4/1 10/5/1
f 8/6/1 2/7/1 13/3/1
f 17/8/2 16/9/2 15/10/2
f 17/11/3 20/12/3 18/13/3
f 22/14/3 19/15/3 21/16/3
f 22/14/3 23/17/3 24/18/3
f 28/6/4 29/19/4 27/20/4
f 15/21/5 28/6/5 27/20/5
f 33/22/4 32/5/4 34/23/4
f 23/24/6 34/23/6 24/4/6
f 31/25/5 26/26/5 32/27/5
f 36/2/7 38/28/7 35/29/7
f 29/19/6 36/2/6 35/29/6
f 25/30/8 37/31/8 26/26/8
f 28/32/9 1/33/9 8/34/9
f 16/9/10 2/35/10 1/36/10
f 35/29/11 19/37/11 15/21/11
f 18/13/12 3/38/12 2/33/12
f 20/12/12 4/39/12 3/38/12
f 22/14/12 5/40/12 4/39/12
f 14/3/11 25/41/11 33/22/11
f 24/42/13 9/43/13 5/35/13
f 37/31/14 6/44/14 26/26/14
f 6/44/9 32/27/9 26/26/9
f 8/34/15 30/14/15 28/32/15
f 7/45/13 36/46/13 30/47/13
f 10/48/15 34/18/15 32/27/15
f 35/29/11 38/28/11 14/3/11
f 36/46/16 11/49/16 37/50/16
f 6/161/1 11/1/1 13/3/1
f 13/3/1 4/162/1 5/4/1
f 5/4/1 9/23/1 10/5/1
f 10/5/1 6/161/1 13/3/1
f 12/2/1 7/163/1 8/6/1
f 8/6/1 1/164/1 2/7/1
f 2/7/1 3/165/1 4/162/1
f 13/3/1 12/2/1 8/6/1
f 2/7/1 4/162/1 13/3/1
f 17/8/2 18/42/2 16/9/2
f 17/11/3 19/15/3 20/12/3
f 22/14/3 20/12/3 19/15/3
f 22/14/3 21/16/3 23/17/3
f 28/6/4 30/163/4 29/19/4
f 15/21/5 16/164/5 28/6/5
f 33/22/4 31/166/4 32/5/4
f 23/24/6 33/22/6 34/23/6
f 31/25/5 25/30/5 26/26/5
f 36/2/115 37/1/115 38/28/115
f 29/19/6 30/163/6 36/2/6
f 25/30/116 38/167/116 37/31/116
f 28/32/9 16/13/9 1/33/9
f 16/9/10 18/42/10 2/35/10
f 15/21/11 27/20/11 29/19/11
f 35/29/11 14/3/11 21/168/11
f 15/21/11 29/19/11 35/29/11
f 19/37/11 17/169/11 15/21/11
f 35/29/11 21/168/11 19/37/11
f 18/13/12 20/12/12 3/38/12
f 20/12/12 22/14/12 4/39/12
f 22/14/12 24/18/12 5/40/12
f 23/24/11 21/168/11 14/3/11
f 14/3/11 38/28/11 25/41/11
f 25/41/11 31/166/11 33/22/11
f 33/22/11 23/24/11 14/3/11
f 24/42/13 34/170/13 9/43/13
f 37/31/14 11/171/14 6/44/14
f 6/44/9 10/48/9 32/27/9
f 8/34/15 7/172/15 30/14/15
f 7/45/13 12/173/13 36/46/13
f 10/48/15 9/40/15 34/18/15
f 36/46/16 12/173/16 11/49/16
usemtl keyboard
f 209/89/64 212/90/64 211/91/64
f 164/92/65 203/93/65 155/93/65
f 167/94/66 186/95/66 184/94/66
f 161/96/67 190/97/67 160/97/67
f 179/98/68 182/99/68 172/99/68
f 159/100/69 202/101/69 166/101/69
f 181/98/64 183/102/64 182/99/64
f 204/92/64 201/100/64 203/93/64
f 186/95/64 185/103/64 184/94/64
f 190/97/64 189/104/64 188/105/64
f 196/106/64 192/107/64 200/108/64
f 172/99/70 183/102/70 157/102/70
f 160/97/71 188/105/71 162/105/71
f 171/103/72 187/109/72 170/109/72
f 174/107/73 193/110/73 168/110/73
f 155/93/74 201/100/74 159/100/74
f 178/111/75 183/102/75 180/111/75
f 163/104/76 191/96/76 161/96/76
f 173/112/77 197/113/77 198/112/77
f 158/114/78 194/115/78 195/114/78
f 164/92/79 202/101/79 204/92/79
f 174/107/80 199/116/80 192/107/80
f 168/110/81 196/106/81 169/106/81
f 175/108/73 195/114/73 200/108/73
f 169/106/82 194/115/82 165/115/82
f 175/108/83 197/113/83 176/113/83
f 171/103/84 184/94/84 185/103/84
f 173/112/77 199/116/77 177/116/77
f 179/98/85 180/111/85 181/98/85
f 163/104/86 188/105/86 189/104/86
f 170/109/87 186/95/87 156/95/87
f 211/117/88 206/118/88 205/119/88
f 206/118/89 210/120/89 208/121/89
f 210/122/90 207/123/90 208/121/90
f 209/124/91 205/119/91 207/123/91
f 209/89/64 210/193/64 212/90/64
f 164/92/65 204/92/65 203/93/65
f 167/94/66 156/95/66 186/95/66
f 161/96/67 191/96/67 190/97/67
f 179/98/68 181/98/68 182/99/68
f 159/100/69 201/100/69 202/101/69
f 181/98/64 180/111/64 183/102/64
f 204/92/64 202/101/64 201/100/64
f 186/95/64 187/109/64 185/103/64
f 190/97/64 191/96/64 189/104/64
f 195/114/64 194/115/64 196/106/64
f 196/106/64 193/110/64 192/107/64
f 192/107/64 199/116/64 198/112/64
f 198/112/64 197/113/64 200/108/64
f 200/108/131 195/114/131 196/106/131
f 192/107/131 198/112/131 200/108/131
f 172/99/70 182/99/70 183/102/70
f 160/97/71 190/97/71 188/105/71
f 171/103/72 185/103/72 187/109/72
f 174/107/73 192/107/73 193/110/73
f 155/93/132 203/93/132 201/100/132
f 178/111/75 157/102/75 183/102/75
f 163/104/76 189/104/76 191/96/76
f 173/112/77 176/113/77 197/113/77
f 158/114/78 165/115/78 194/115/78
f 164/92/133 166/101/133 202/101/133
f 174/107/80 177/116/80 199/116/80
f 168/110/81 193/110/81 196/106/81
f 175/108/73 158/114/73 195/114/73
f 169/106/82 196/106/82 194/115/82
f 175/108/83 200/108/83 197/113/83
f 171/103/84 167/94/84 184/94/84
f 173/112/77 198/112/77 199/116/77
f 179/98/85 178/111/85 180/111/85
f 163/104/86 162/105/86 188/105/86
f 170/109/134 187/109/134 186/95/134
f 211/117/88 212/194/88 206/118/88
f 206/118/89 212/195/89 210/120/89
f 210/122/90 209/196/90 207/123/90
f 209/124/91 211/197/91 205/119/91
usemtl concrete_dark
f 215/125/92 216/126/92 214/127/92
f 217/128/93 218/129/93 216/130/93
f 219/131/94 220/132/94 218/129/94
f 221/133/95 222/127/95 220/126/95
f 223/125/96 224/134/96 222/127/96
f 225/135/97 226/129/97 224/132/97
f 227/131/98 228/130/98 226/129/98
f 229/136/99 214/127/99 228/134/99
f 230/137/100 220/126/100 222/127/100
f 224/134/101 231/138/101 222/127/101
f 231/138/102 230/137/102 222/127/102
f 228/134/103 214/127/103 232/138/103
f 216/126/104 213/137/104 214/127/104
f 214/127/105 213/137/105 232/138/105
f 226/139/106 231/140/106 224/141/106
f 228/142/107 232/143/107 226/139/107
f 218/144/108 213/145/108 216/146/108
f 220/147/109 230/148/109 218/144/109
f 218/144/110 230/148/110 213/145/110
f 226/139/111 232/143/111 231/140/111
f 234/149/1 236/145/1 233/148/1
f 231/138/9 233/150/9 230/137/9
f 232/143/112 234/149/112 231/140/112
f 232/138/12 236/150/12 235/151/12
f 236/145/1 238/152/1 233/148/1
f 242/153/113 240/154/113 239/155/113
f 241/156/114 237/157/114 240/154/114
f 213/137/12 240/158/12 237/159/12
f 230/148/11 239/155/11 213/145/11
f 233/150/9 241/158/9 242/160/9
f 245/125/92 246/126/92 244/127/92
f 247/128/93 248/129/93 246/130/93
f 249/131/94 250/132/94 248/129/94
f 251/133/95 252/127/95 250/126/95
f 253/125/96 254/134/96 252/127/96
f 255/135/97 256/129/97 254/132/97
f 257/131/98 258/130/98 256/129/98
f 259/136/99 244/127/99 258/134/99
f 260/137/100 250/126/100 252/127/100
f 254/134/101 261/138/101 252/127/101
f 261/138/102 260/137/102 252/127/102
f 258/134/103 244/127/103 262/138/103
f 246/126/104 243/137/104 244/127/104
f 244/127/105 243/137/105 262/138/105
f 256/139/106 261/140/106 254/141/106
f 258/142/107 262/143/107 256/139/107
f 248/144/108 243/145/108 246/146/108
f 250/147/109 260/148/109 248/144/109
f 248/144/110 260/148/110 243/145/110
f 256/139/111 262/143/111 261/140/111
f 264/149/1 266/145/1 263/148/1
f 261/138/9 263/150/9 260/137/9
f 262/143/112 264/149/112 261/140/112
f 262/138/12 266/150/12 265/151/12
f 266/145/1 268/152/1 263/148/1
f 272/153/113 270/154/113 269/155/113
f 271/156/114 267/157/114 270/154/114
f 243/137/12 270/158/12 267/159/12
f 260/148/11 269/155/11 243/145/11
f 263/150/9 271/158/9 272/160/9
f 215/125/92 217/133/92 216/126/92
f 217/128/93 219/131/93 218/129/93
f 219/131/94 221/135/94 220/132/94
f 221/133/95 223/125/95 222/127/95
f 223/125/96 225/136/96 224/134/96
f 225/135/97 227/131/97 226/129/97
f 227/131/98 229/128/98 228/130/98
f 229/136/99 215/125/99 214/127/99
f 234/149/1 235/198/1 236/145/1
f 231/138/9 234/151/9 233/150/9
f 232/143/112 235/198/112 234/149/112
f 232/138/12 213/137/12 236/150/12
f 236/145/1 237/157/1 238/152/1
f 242/153/113 241/156/113 240/154/113
f 241/156/114 238/152/114 237/157/114
f 237/159/12 236/150/12 213/137/12
f 213/137/12 239/160/12 240/158/12
f 230/148/11 242/153/11 239/155/11
f 242/160/9 230/137/9 233/150/9
f 233/150/9 238/159/9 241/158/9
f 245/125/92 247/133/92 246/126/92
f 247/128/93 249/131/93 248/129/93
f 249/131/94 251/135/94 250/132/94
f 251/133/95 253/125/95 252/127/95
f 253/125/96 255/136/96 254/134/96
f 255/135/97 257/131/97 256/129/97
f 257/131/98 259/128/98 258/130/98
f 259/136/99 245/125/99 244/127/99
f 264/149/1 265/198/1 266/145/1
f 261/138/9 264/151/9 263/150/9
f 262/143/112 265/198/112 264/149/112
f 262/138/12 243/137/12 266/150/12
f 266/145/1 267/157/1 268/152/1
f 272/153/113 271/156/113 270/154/113
f 271/156/114 268/152/114 267/157/114
f 267/159/12 266/150/12 243/137/12
f 243/137/12 269/160/12 270/158/12
f 260/148/11 272/153/11 269/155/11
f 272/160/9 260/137/9 263/150/9
f 263/150/9 268/159/9 271/158/9
