# Blender 5.1.1
# www.blender.org
mtllib frame.mtl
o frame
v -0.250000 0.000000 0.250000
v -0.216081 0.052375 0.216081
v -0.250000 0.000000 -0.250000
v -0.216081 0.052375 -0.216081
v 0.250000 0.000000 0.250000
v 0.216081 0.052375 0.216081
v 0.250000 0.000000 -0.250000
v 0.216081 0.052375 -0.216081
v -0.250000 0.052375 0.250000
v -0.250000 0.052375 -0.250000
v 0.250000 0.052375 -0.250000
v 0.250000 0.052375 0.250000
v -0.216081 0.042076 0.216081
v -0.216081 0.042076 -0.216081
v 0.216081 0.042076 -0.216081
v 0.216081 0.042076 0.216081
vn -1.0000 -0.0000 -0.0000
vn -0.0000 -0.0000 -1.0000
vn 1.0000 -0.0000 -0.0000
vn -0.0000 -0.0000 1.0000
vn -0.0000 -1.0000 -0.0000
vn -0.0000 1.0000 -0.0000
vt 0.750000 -0.500000
vt 0.250000 0.000000
vt 0.250000 -0.500000
vt 0.750000 0.000000
vt 0.250000 0.500000
vt 0.750000 0.500000
vt 0.250000 1.000000
vt 0.750000 1.000000
vt 0.250000 1.500000
vt -0.250000 1.000000
vt -0.250000 0.500000
vt 0.783919 0.533919
vt 0.783919 0.966081
vt 1.216081 0.533919
vt 1.250000 1.000000
vt 1.216081 0.966081
vt 1.250000 0.500000
vt 0.057810 0.898008
vt 0.118630 0.837188
vt 0.118630 0.898008
vt 0.750000 1.500000
vt 0.057810 0.837188
s 0
usemtl oak
f 9/1/1 3/2/1 1/3/1
f 10/4/2 7/5/2 3/2/2
f 11/6/3 5/7/3 7/5/3
f 12/8/4 1/9/4 5/7/4
f 7/5/5 1/10/5 3/11/5
f 8/12/1 16/13/1 6/13/1
f 4/14/6 9/15/6 2/16/6
f 8/12/6 10/17/6 4/14/6
f 6/13/6 11/6/6 8/12/6
f 2/16/6 12/8/6 6/13/6
f 2/16/3 14/14/3 4/14/3
f 6/13/2 13/16/2 2/16/2
f 4/14/4 15/12/4 8/12/4
f 9/1/1 10/4/1 3/2/1
f 10/4/2 11/6/2 7/5/2
f 11/6/3 12/8/3 5/7/3
f 12/8/4 9/21/4 1/9/4
f 7/5/5 5/7/5 1/10/5
f 8/12/1 15/12/1 16/13/1
f 4/14/6 10/17/6 9/15/6
f 8/12/6 11/6/6 10/17/6
f 6/13/6 12/8/6 11/6/6
f 2/16/6 9/15/6 12/8/6
f 2/16/3 13/16/3 14/14/3
f 6/13/2 16/13/2 13/16/2
f 4/14/4 14/14/4 15/12/4
usemtl books
f 14/18/6 16/19/6 15/20/6
f 14/18/6 13/22/6 16/19/6
