# Blender 5.1.2
# www.blender.org
mtllib keyboard.mtl
o keyboard
v -0.037980 0.024039 0.217081
v -0.036637 0.023850 -0.078685
v 0.065995 0.009426 0.215756
v 0.040993 0.012940 -0.073367
v -0.055463 0.026496 0.217081
v -0.037545 0.023977 -0.135509
v 0.064486 0.009638 -0.135509
v -0.037545 0.023977 -0.215038
v 0.064486 0.009638 -0.215038
v -0.037980 0.024039 -0.134938
v 0.065053 0.009558 -0.073367
v -0.055463 0.026496 -0.134938
v -0.036637 0.023850 -0.133140
v 0.040993 0.012940 -0.132352
v 0.065053 0.009558 -0.132352
v 0.007994 0.017577 -0.078685
v 0.007994 0.017577 -0.133140
v 0.065995 0.009426 -0.071655
v 0.022814 0.015495 -0.102860
v 0.040993 0.012940 -0.114954
v 0.040993 0.012940 -0.090765
v 0.022814 0.015495 -0.091155
v 0.022814 0.015495 -0.114564
v -0.036460 0.023825 0.215756
v -0.036460 0.023825 -0.071655
v -0.030721 0.030349 0.211755
v -0.030721 0.030349 -0.067653
v 0.062277 0.017279 -0.067653
v 0.062277 0.017279 0.211755
v -0.030535 0.032857 -0.131110
v 0.004611 0.027918 -0.131110
v -0.030535 0.032857 -0.080715
v 0.004611 0.027918 -0.080715
v -0.031983 0.033061 -0.211763
v 0.061644 0.019902 -0.211763
v -0.031983 0.033061 -0.138784
v 0.061644 0.019902 -0.138784
v 0.041566 0.017546 -0.113726
v 0.041566 0.017546 -0.129357
v 0.063183 0.014508 -0.076362
v 0.041566 0.017546 -0.076362
v 0.063183 0.014508 -0.129357
v 0.025234 0.019842 -0.092344
v 0.025234 0.019842 -0.102860
v 0.025234 0.019842 -0.113375
v 0.041566 0.017546 -0.091994
v -0.053058 0.030445 0.211091
v -0.053058 0.030445 -0.128948
v -0.038782 0.028438 0.211091
v -0.038782 0.028438 -0.128948
v -0.075000 0.000000 0.220000
v -0.075000 0.000000 -0.220000
v 0.075000 0.000000 0.220000
v 0.075000 0.000000 -0.220000
v 0.070197 0.008835 0.220000
v 0.070197 0.008835 -0.220000
v -0.078343 0.029711 0.220000
v -0.078343 0.029711 -0.220000
vn 0.1392 0.9903 -0.0000
vn 0.9838 0.1792 -0.0000
vn -0.8279 0.5609 -0.0000
vn 0.0442 0.3148 0.9481
vn 0.0672 0.4781 -0.8757
vn -0.8541 0.5202 -0.0000
vn 0.9038 0.4279 -0.0000
vn -0.8528 0.5222 -0.0000
vn 0.9504 0.3109 -0.0000
vn -0.9923 0.1236 -0.0000
vn 0.1136 0.8079 0.5782
vn 0.0672 0.4781 0.8757
vn 0.9637 0.2669 -0.0000
vn -0.8738 0.4864 -0.0000
vn 0.0755 0.5369 0.8402
vn 0.1135 0.8080 -0.5782
vn 0.0152 0.2558 -0.9666
vn 0.0755 0.5369 -0.8402
vn 0.9355 0.3534 -0.0000
vn 0.0152 0.2558 0.9666
vn 0.0283 0.2015 -0.9791
vn -0.7508 0.6605 -0.0000
vn 0.0442 0.3148 -0.9481
vn 0.0283 0.2015 0.9791
vn -0.9937 -0.1118 -0.0000
vn -0.0000 -0.0000 -1.0000
vn 0.8786 0.4776 -0.0000
vn -0.0000 -0.0000 1.0000
vn -0.0000 -1.0000 -0.0000
vn 0.1135 0.8080 0.5782
vn 0.1136 0.8079 -0.5782
vt 0.003356 0.323186
vt 0.995285 0.963441
vt 0.003356 0.963441
vt 0.015260 0.809466
vt 0.804282 0.809464
vt 0.800252 0.803597
vt 0.678194 0.803597
vt 0.805560 0.361742
vt 0.805560 0.807563
vt 0.662438 0.802821
vt 0.662438 0.355151
vt 0.015260 0.885857
vt 0.804282 0.885857
vt 0.018230 0.355151
vt 0.800252 0.608581
vt 0.983818 0.361742
vt 0.983818 0.807563
vt 0.798485 0.359267
vt 0.759488 0.464396
vt 0.705272 0.464396
vt 0.678194 0.608581
vt 0.798485 0.464396
vt 0.018230 0.802821
vt 0.732380 0.543827
vt 0.706145 0.543827
vt 0.666275 0.464396
vt 0.666275 0.359267
vt 0.758614 0.543827
vt 0.738032 0.320693
vt 0.244627 0.281116
vt 0.738032 0.281117
vt 0.216592 0.043657
vt 0.244627 0.043657
vt 0.244627 0.004080
vt 0.738032 0.043657
vt 0.766067 0.043657
vt 0.995285 0.323186
vt 0.244627 0.320693
vt 0.216592 0.281116
vt 0.738032 0.004080
vt 0.766067 0.281117
s 0
usemtl keyboard
f 55/1/1 58/2/1 57/3/1
f 1/4/2 50/5/2 49/4/2
f 13/6/3 32/7/3 30/6/3
f 7/8/4 36/9/4 6/9/4
f 25/10/5 28/11/5 18/11/5
f 5/12/6 48/13/6 12/13/6
f 27/10/1 29/14/1 28/11/1
f 50/5/1 47/12/1 49/4/1
f 32/7/1 31/15/1 30/6/1
f 36/9/1 35/16/1 34/17/1
f 42/18/1 38/19/1 46/20/1
f 18/11/7 29/14/7 3/14/7
f 6/9/8 34/17/8 8/17/8
f 17/15/9 33/21/9 16/21/9
f 20/19/10 39/22/10 14/22/10
f 1/4/11 47/12/11 5/12/11
f 3/14/12 26/23/12 24/23/12
f 9/16/13 37/8/13 7/8/13
f 19/24/14 43/25/14 44/24/14
f 4/26/15 40/27/15 41/26/15
f 10/5/16 48/13/16 50/5/16
f 20/19/17 45/28/17 38/19/17
f 14/22/18 42/18/18 15/18/18
f 21/20/10 41/26/10 46/20/10
f 15/18/19 40/27/19 11/27/19
f 21/20/20 43/25/20 22/25/20
f 13/6/21 31/15/21 17/15/21
f 19/24/14 45/28/14 23/28/14
f 24/23/22 27/10/22 25/10/22
f 9/16/23 34/17/23 35/16/23
f 16/21/24 32/7/24 2/7/24
f 57/29/25 52/30/25 51/31/25
f 52/30/26 56/32/26 54/33/26
f 56/34/27 53/35/27 54/33/27
f 55/36/28 51/31/28 53/35/28
f 54/33/29 51/31/29 52/30/29
f 55/1/1 56/37/1 58/2/1
f 1/4/2 10/5/2 50/5/2
f 13/6/3 2/7/3 32/7/3
f 7/8/4 37/8/4 36/9/4
f 25/10/5 27/10/5 28/11/5
f 5/12/6 47/12/6 48/13/6
f 27/10/1 26/23/1 29/14/1
f 50/5/1 48/13/1 47/12/1
f 32/7/1 33/21/1 31/15/1
f 36/9/1 37/8/1 35/16/1
f 41/26/1 40/27/1 42/18/1
f 42/18/1 39/22/1 38/19/1
f 38/19/1 45/28/1 44/24/1
f 44/24/1 43/25/1 46/20/1
f 46/20/1 41/26/1 42/18/1
f 38/19/1 44/24/1 46/20/1
f 18/11/7 28/11/7 29/14/7
f 6/9/8 36/9/8 34/17/8
f 17/15/9 31/15/9 33/21/9
f 20/19/10 38/19/10 39/22/10
f 1/4/30 49/4/30 47/12/30
f 3/14/12 29/14/12 26/23/12
f 9/16/13 35/16/13 37/8/13
f 19/24/14 22/25/14 43/25/14
f 4/26/15 11/27/15 40/27/15
f 10/5/31 12/13/31 48/13/31
f 20/19/17 23/28/17 45/28/17
f 14/22/18 39/22/18 42/18/18
f 21/20/10 4/26/10 41/26/10
f 15/18/19 42/18/19 40/27/19
f 21/20/20 46/20/20 43/25/20
f 13/6/21 30/6/21 31/15/21
f 19/24/14 44/24/14 45/28/14
f 24/23/22 26/23/22 27/10/22
f 9/16/23 8/17/23 34/17/23
f 16/21/24 33/21/24 32/7/24
f 57/29/25 58/38/25 52/30/25
f 52/30/26 58/39/26 56/32/26
f 56/34/27 55/40/27 53/35/27
f 55/36/28 57/41/28 51/31/28
f 54/33/29 53/35/29 51/31/29
