# Blender 5.1.2
# www.blender.org
mtllib magazines.mtl
o magazines
v -0.100000 0.007754 0.150000
v -0.100000 0.012754 0.150000
v -0.100000 0.007754 -0.150000
v -0.100000 0.012754 -0.150000
v 0.100000 0.007754 0.150000
v 0.100000 0.012754 0.150000
v 0.100000 0.007754 -0.150000
v 0.100000 0.012754 -0.150000
v -0.085824 0.012708 0.150000
v -0.085824 0.017708 0.150000
v -0.085824 0.012708 -0.150000
v -0.085824 0.017708 -0.150000
v 0.114176 0.012708 0.150000
v 0.114176 0.017708 0.150000
v 0.114176 0.012708 -0.150000
v 0.114176 0.017708 -0.150000
v -0.085824 0.018561 0.140401
v -0.085824 0.023561 0.140401
v -0.085824 0.018561 -0.159599
v -0.085824 0.023561 -0.159599
v 0.114176 0.018561 0.140401
v 0.114176 0.023561 0.140401
v 0.114176 0.018561 -0.159599
v 0.114176 0.023561 -0.159599
vn -1.0000 -0.0000 -0.0000
vn -0.0000 -0.0000 -1.0000
vn 1.0000 -0.0000 -0.0000
vn -0.0000 -0.0000 1.0000
vn -0.0000 -1.0000 -0.0000
vn -0.0000 1.0000 -0.0000
vt -0.250000 0.516667
vt 1.250000 0.483333
vt -0.250000 0.483333
vt -0.000000 0.516667
vt 1.000000 0.483333
vt -0.000000 0.483333
vt 1.250000 0.516667
vt 1.000000 0.516667
vt 1.000000 1.000000
vt -0.000000 0.000000
vt -0.000000 1.000000
vt 1.000000 0.000000
s 0
usemtl magazine_1
f 2/1/1 3/2/1 1/3/1
f 4/4/2 7/5/2 3/6/2
f 8/7/3 5/3/3 7/2/3
f 6/8/4 1/6/4 5/5/4
f 7/9/5 1/10/5 3/11/5
f 4/11/6 6/12/6 8/9/6
f 10/1/1 11/2/1 9/3/1
f 12/4/2 15/5/2 11/6/2
f 16/7/3 13/3/3 15/2/3
f 14/8/4 9/6/4 13/5/4
f 15/9/5 9/10/5 11/11/5
f 12/11/6 14/12/6 16/9/6
f 18/1/1 19/2/1 17/3/1
f 20/4/2 23/5/2 19/6/2
f 24/7/3 21/3/3 23/2/3
f 22/8/4 17/6/4 21/5/4
f 23/9/5 17/10/5 19/11/5
f 20/11/6 22/12/6 24/9/6
f 2/1/1 4/7/1 3/2/1
f 4/4/2 8/8/2 7/5/2
f 8/7/3 6/1/3 5/3/3
f 6/8/4 2/4/4 1/6/4
f 7/9/5 5/12/5 1/10/5
f 4/11/6 2/10/6 6/12/6
f 10/1/1 12/7/1 11/2/1
f 12/4/2 16/8/2 15/5/2
f 16/7/3 14/1/3 13/3/3
f 14/8/4 10/4/4 9/6/4
f 15/9/5 13/12/5 9/10/5
f 12/11/6 10/10/6 14/12/6
f 18/1/1 20/7/1 19/2/1
f 20/4/2 24/8/2 23/5/2
f 24/7/3 22/1/3 21/3/3
f 22/8/4 18/4/4 17/6/4
f 23/9/5 21/12/5 17/10/5
f 20/11/6 18/10/6 22/12/6
