# Blender 5.1.1
# www.blender.org
mtllib nightstand.mtl
o nightstand
v -0.250000 0.000000 0.250000
v -0.020027 0.505998 0.236988
v -0.250000 0.000000 -0.250000
v -0.250000 0.625000 -0.250000
v 0.250000 0.000000 0.250000
v 0.020027 0.505998 0.236988
v 0.250000 0.000000 -0.250000
v 0.250000 0.625000 -0.250000
v -0.020027 0.482812 0.236988
v -0.250000 0.372564 -0.250000
v 0.000000 0.625000 -0.250000
v 0.250000 0.372564 -0.250000
v 0.020027 0.482812 0.236988
v 0.000000 0.505998 0.236988
v 0.000000 0.482812 0.236988
v 0.000000 0.372564 -0.250000
v -0.250000 0.000000 0.000000
v -0.020027 0.490634 0.236988
v -0.250000 0.625000 0.000000
v -0.250000 0.156250 -0.250000
v -0.199292 0.000000 -0.250000
v 0.125000 0.625000 -0.250000
v 0.250000 0.156250 -0.250000
v 0.250000 0.000000 0.000000
v 0.250000 0.625000 0.000000
v 0.250000 0.156250 0.250000
v 0.199292 0.000000 0.250000
v -0.011583 0.505998 0.236988
v -0.250000 0.156250 0.250000
v -0.250000 0.468750 -0.250000
v 0.199292 0.000000 -0.250000
v -0.125000 0.625000 -0.250000
v 0.250000 0.468750 -0.250000
v 0.020027 0.490634 0.236988
v -0.199292 0.000000 0.250000
v 0.011583 0.505998 0.236988
v -0.018468 0.482812 0.236988
v 0.018468 0.482812 0.236988
v 0.199292 0.372564 -0.250000
v -0.199292 0.372564 -0.250000
v -0.199292 0.156250 -0.250000
v 0.199292 0.156250 -0.250000
v 0.199292 0.156250 0.250000
v -0.199292 0.156250 0.250000
v -0.199292 0.000000 0.000000
v 0.199292 0.000000 0.000000
v -0.250000 0.468750 0.250000
v -0.250000 0.625000 0.250000
v -0.125000 0.625000 0.250000
v 0.250000 0.468750 0.250000
v 0.250000 0.372564 0.250000
v 0.125000 0.625000 0.250000
v 0.000000 0.625000 0.250000
v -0.199292 0.372564 0.250000
v -0.250000 0.372564 0.250000
v 0.199292 0.372564 0.250000
v 0.000000 0.372564 0.250000
v 0.250000 0.625000 0.250000
v -0.230071 0.468750 0.236988
v -0.230071 0.605071 0.236988
v -0.125000 0.605071 0.236988
v 0.230071 0.468750 0.236988
v 0.230071 0.392493 0.236988
v 0.125000 0.605071 0.236988
v 0.000000 0.605071 0.236988
v -0.199292 0.392493 0.236988
v -0.230071 0.392493 0.236988
v 0.199292 0.392493 0.236988
v 0.000000 0.392493 0.236988
v 0.230071 0.605071 0.236988
v -0.036241 0.488090 0.270173
v -0.036241 0.515893 0.270173
v -0.020961 0.515893 0.270173
v 0.036241 0.488090 0.270173
v 0.036241 0.473935 0.270173
v 0.020961 0.515893 0.270173
v -0.000000 0.515893 0.270173
v -0.033420 0.473935 0.270173
v -0.036241 0.473935 0.270173
v 0.033420 0.473935 0.270173
v -0.000000 0.473935 0.270173
v 0.036241 0.515893 0.270173
v -0.014606 0.491485 0.300149
v -0.014606 0.502690 0.300149
v -0.008448 0.502690 0.300149
v 0.014606 0.491485 0.300149
v 0.014606 0.485780 0.300149
v 0.008448 0.502690 0.300149
v 0.000000 0.502690 0.300149
v -0.013469 0.485780 0.300149
v -0.014606 0.485780 0.300149
v 0.013469 0.485780 0.300149
v 0.000000 0.485780 0.300149
v 0.014606 0.502690 0.300149
v -0.268976 0.644794 0.000000
v -0.268976 0.644794 -0.268976
v 0.134488 0.644794 -0.268976
v 0.268976 0.644794 -0.268976
v 0.268976 0.644794 0.000000
v 0.268976 0.644794 0.268976
v -0.134488 0.644794 0.268976
v -0.268976 0.644794 0.268976
v -0.134488 0.644794 -0.268976
v 0.000000 0.644794 -0.268976
v 0.134488 0.644794 0.268976
v 0.000000 0.644794 0.268976
vn -0.0000 -1.0000 -0.0000
vn 1.0000 -0.0000 -0.0000
vn -0.0000 -0.9660 -0.2584
vn -0.0000 -0.0000 1.0000
vn -0.0000 -0.0000 -1.0000
vn -1.0000 -0.0000 -0.0000
vn -0.7219 -0.6920 -0.0000
vn 0.5467 -0.0000 0.8373
vn -0.0000 -0.5467 0.8373
vn -0.5467 -0.0000 0.8373
vn -0.0000 0.5467 0.8373
vn -0.0000 0.9152 0.4031
vn -0.8985 -0.0000 -0.4390
vn -0.0000 0.9583 -0.2857
vn 0.8985 -0.0000 -0.4390
vn -0.0000 -0.9300 0.3675
vn -0.8109 -0.0000 0.5852
vn 0.8109 -0.0000 0.5852
vn -0.0000 1.0000 -0.0000
vn -0.0000 -0.6920 0.7219
vn -0.0000 -0.6920 -0.7219
vn 0.7219 -0.6920 -0.0000
vt 0.190922 0.757381
vt 0.112279 0.757381
vt 0.190922 1.145102
vt 0.757381 0.736253
vt 0.757381 -0.233049
vt 1.145102 0.009277
vt 0.471359 0.389839
vt 0.500000 0.338373
vt 0.448170 0.338373
vt 0.190922 0.009277
vt 0.112279 0.009277
vt 0.190922 -0.233049
vt 0.190922 0.344754
vt 0.809078 0.009277
vt 0.887721 0.009277
vt 0.809078 -0.233049
vt 0.369660 0.009277
vt 0.887721 0.757381
vt 0.809078 0.757381
vt 0.887721 1.145102
vt 0.809078 0.344754
vt 1.145102 0.344754
vt 0.887721 0.493928
vt 0.112279 0.493928
vt 0.500000 0.369660
vt 0.500000 1.145102
vt 0.369660 0.736253
vt 0.757381 0.766951
vt 0.143186 0.705346
vt 0.143186 0.493928
vt 0.306140 0.736253
vt 0.112279 0.736253
vt 0.856814 0.375662
vt 0.856814 0.493928
vt 0.693860 0.705346
vt 0.500000 0.736253
vt 0.500000 0.705346
vt 0.143186 0.375662
vt 0.190922 0.375662
vt 0.500000 0.375662
vt 0.809078 0.375662
vt 0.112279 0.344754
vt 0.306140 0.705346
vt 0.856814 0.705346
vt 0.887721 0.736253
vt 0.693860 0.736253
vt 0.500000 0.344754
vt 0.887721 0.344754
vt 0.468941 0.551695
vt 0.468941 0.527868
vt 0.531059 0.515736
vt 0.531059 0.527868
vt 0.517964 0.551695
vt 0.500000 0.551695
vt 0.468941 0.515736
vt 0.471359 0.515736
vt 0.528641 0.515736
vt 0.482036 0.551695
vt 0.531059 0.551695
vt 0.500000 0.515736
vt 0.513102 0.291885
vt 0.532509 0.338373
vt 0.389839 0.551695
vt 0.338373 0.523923
vt 0.338373 0.567041
vt 0.482036 0.389839
vt 0.500000 0.389839
vt 0.468941 0.389839
vt 0.443794 0.338373
vt 0.531059 0.389839
vt 0.551830 0.338373
vt 0.528641 0.389839
vt 0.467491 0.338373
vt 0.389839 0.527868
vt 0.389839 0.515736
vt 0.338373 0.501969
vt 0.556206 0.338373
vt 0.517964 0.389839
vt 0.477348 0.529187
vt 0.520889 0.520339
vt 0.522652 0.529187
vt 0.479111 0.291885
vt 0.291885 0.546565
vt 0.486898 0.291885
vt 0.500000 0.291885
vt 0.477348 0.291885
vt 0.522652 0.291885
vt 0.520889 0.291885
vt 0.291885 0.529187
vt 0.291885 0.520339
vt 0.082849 0.757381
vt 0.917151 0.757381
vt 0.708575 1.174531
vt 0.500000 0.766951
vt 0.291425 0.766951
vt 0.082849 0.766951
vt 0.340230 0.766951
vt 0.708575 0.766951
vt 0.917151 0.766951
vt 1.145102 0.736253
vt 1.174531 0.766951
vt 0.190922 0.369660
vt 0.112279 0.369660
vt 0.112279 1.145102
vt 0.369660 0.493928
vt 0.369660 0.344754
vt 1.145102 0.493928
vt 0.369660 -0.233049
vt 1.145102 -0.233049
vt 0.112279 -0.233049
vt 0.887721 -0.233049
vt 0.887721 0.369660
vt 0.809078 0.369660
vt 0.809078 1.145102
vt 0.486898 0.546565
vt 0.477348 0.546565
vt 0.477348 0.520339
vt 0.479111 0.520339
vt 0.500000 0.520339
vt 0.500000 0.546565
vt 0.522652 0.546565
vt 0.513102 0.546565
vt 0.522652 0.520339
vt 0.082849 0.340230
vt 0.291425 0.340230
vt 0.500000 0.340230
vt 0.291425 1.174531
vt 0.082849 1.174531
vt 0.500000 1.174531
vt 0.708575 0.340230
vt 0.917151 0.340230
vt 0.917151 1.174531
s 0
usemtl oak
f 45/1/1 17/2/1 21/3/1
f 25/4/2 24/5/2 23/6/2
f 37/7/3 81/8/3 78/9/3
f 44/10/4 29/11/4 35/12/4
f 20/11/5 40/13/5 41/10/5
f 42/14/5 23/15/5 31/16/5
f 19/4/6 17/5/6 29/17/6
f 24/18/1 46/19/1 7/20/1
f 26/15/4 56/21/4 43/14/4
f 41/6/2 44/17/2 45/5/2
f 46/5/6 43/17/6 39/22/6
f 33/23/5 40/13/5 30/24/5
f 57/25/1 40/3/1 16/26/1
f 48/27/7 95/28/7 19/4/7
f 60/29/8 47/24/8 59/30/8
f 60/29/9 49/31/9 48/32/9
f 63/33/10 50/23/10 62/34/10
f 64/35/9 53/36/9 65/37/9
f 67/38/11 54/13/11 66/39/11
f 69/40/11 56/21/11 68/41/11
f 67/38/8 47/24/8 55/42/8
f 65/37/9 49/31/9 61/43/9
f 70/44/10 50/23/10 58/45/10
f 70/44/9 52/46/9 64/35/9
f 66/39/11 57/47/11 69/40/11
f 63/33/11 56/21/11 51/48/11
f 2/49/4 59/30/4 18/50/4
f 2/49/4 61/43/4 60/29/4
f 13/51/4 62/34/4 34/52/4
f 36/53/4 65/37/4 14/54/4
f 9/55/4 66/39/4 37/56/4
f 38/57/4 69/40/4 68/41/4
f 9/55/4 59/30/4 67/38/4
f 28/58/4 65/37/4 61/43/4
f 6/59/4 62/34/4 70/44/4
f 6/59/4 64/35/4 36/53/4
f 37/56/4 69/40/4 15/60/4
f 13/51/4 68/41/4 63/33/4
f 77/8/12 88/61/12 76/62/12
f 2/63/13 71/64/13 72/65/13
f 28/66/14 77/8/14 14/67/14
f 9/68/3 78/9/3 79/69/3
f 13/70/3 80/71/3 38/72/3
f 2/68/14 73/73/14 28/66/14
f 6/63/15 74/64/15 34/74/15
f 38/72/3 81/8/3 15/67/3
f 13/75/15 74/64/15 75/76/15
f 6/70/14 76/62/14 82/77/14
f 9/75/13 71/64/13 18/74/13
f 36/78/14 77/8/14 76/62/14
f 83/79/4 92/80/4 86/81/4
f 81/8/16 90/82/16 78/9/16
f 71/64/17 84/83/17 72/65/17
f 77/8/12 85/84/12 89/85/12
f 78/9/16 91/86/16 79/69/16
f 80/71/16 87/87/16 92/88/16
f 73/73/12 84/86/12 85/84/12
f 74/64/18 94/83/18 86/89/18
f 81/8/16 92/88/16 93/85/16
f 74/64/18 87/90/18 75/76/18
f 76/62/12 94/87/12 82/77/12
f 71/64/17 91/90/17 83/89/17
f 95/91/19 99/92/19 97/93/19
f 49/31/20 106/94/20 101/95/20
f 32/31/21 104/94/21 11/36/21
f 48/32/20 101/95/20 102/96/20
f 4/32/21 103/95/21 32/31/21
f 58/27/22 99/28/22 100/97/22
f 58/45/20 105/98/20 52/46/20
f 8/45/21 97/98/21 98/99/21
f 8/100/22 99/28/22 25/4/22
f 4/100/7 95/28/7 96/101/7
f 22/46/21 104/94/21 97/98/21
f 52/46/20 106/94/20 53/36/20
f 45/1/1 35/102/1 1/103/1
f 17/2/1 3/104/1 21/3/1
f 45/1/1 1/103/1 17/2/1
f 25/4/2 58/27/2 50/105/2
f 25/4/2 50/105/2 51/106/2
f 33/107/2 8/100/2 25/4/2
f 12/22/2 33/107/2 25/4/2
f 25/4/2 51/106/2 26/17/2
f 26/17/2 5/108/2 24/5/2
f 24/5/2 7/109/2 23/6/2
f 23/6/2 12/22/2 25/4/2
f 25/4/2 26/17/2 24/5/2
f 37/7/3 15/67/3 81/8/3
f 44/10/4 54/13/4 55/42/4
f 29/11/4 1/110/4 35/12/4
f 44/10/4 55/42/4 29/11/4
f 21/12/5 3/110/5 20/11/5
f 20/11/5 10/42/5 40/13/5
f 41/10/5 21/12/5 20/11/5
f 42/14/5 39/21/5 12/48/5
f 23/15/5 7/111/5 31/16/5
f 42/14/5 12/48/5 23/15/5
f 19/4/6 4/100/6 30/107/6
f 19/4/6 30/107/6 10/22/6
f 47/105/6 48/27/6 19/4/6
f 55/106/6 47/105/6 19/4/6
f 19/4/6 10/22/6 20/6/6
f 20/6/6 3/109/6 17/5/6
f 17/5/6 1/108/6 29/17/6
f 29/17/6 55/106/6 19/4/6
f 19/4/6 20/6/6 17/5/6
f 24/18/1 5/112/1 27/113/1
f 46/19/1 31/114/1 7/20/1
f 24/18/1 27/113/1 46/19/1
f 27/16/4 5/111/4 26/15/4
f 26/15/4 51/48/4 56/21/4
f 43/14/4 27/16/4 26/15/4
f 45/5/2 21/109/2 41/6/2
f 41/6/2 40/22/2 54/106/2
f 44/17/2 35/108/2 45/5/2
f 41/6/2 54/106/2 44/17/2
f 42/6/6 31/109/6 46/5/6
f 46/5/6 27/108/6 43/17/6
f 43/17/6 56/106/6 39/22/6
f 39/22/6 42/6/6 46/5/6
f 22/46/5 8/45/5 33/23/5
f 33/23/5 12/48/5 39/21/5
f 33/23/5 39/21/5 16/47/5
f 11/36/5 22/46/5 33/23/5
f 30/24/5 4/32/5 32/31/5
f 32/31/5 11/36/5 33/23/5
f 33/23/5 16/47/5 40/13/5
f 40/13/5 10/42/5 30/24/5
f 30/24/5 32/31/5 33/23/5
f 39/114/1 56/113/1 57/25/1
f 57/25/1 54/102/1 40/3/1
f 16/26/1 39/114/1 57/25/1
f 48/27/7 102/97/7 95/28/7
f 60/29/8 48/32/8 47/24/8
f 60/29/9 61/43/9 49/31/9
f 63/33/10 51/48/10 50/23/10
f 64/35/9 52/46/9 53/36/9
f 67/38/11 55/42/11 54/13/11
f 69/40/11 57/47/11 56/21/11
f 67/38/8 59/30/8 47/24/8
f 65/37/9 53/36/9 49/31/9
f 70/44/10 62/34/10 50/23/10
f 70/44/9 58/45/9 52/46/9
f 66/39/11 54/13/11 57/47/11
f 63/33/11 68/41/11 56/21/11
f 2/49/4 60/29/4 59/30/4
f 2/49/4 28/58/4 61/43/4
f 13/51/4 63/33/4 62/34/4
f 36/53/4 64/35/4 65/37/4
f 9/55/4 67/38/4 66/39/4
f 38/57/4 15/60/4 69/40/4
f 9/55/4 18/50/4 59/30/4
f 28/58/4 14/54/4 65/37/4
f 6/59/4 34/52/4 62/34/4
f 6/59/4 70/44/4 64/35/4
f 37/56/4 66/39/4 69/40/4
f 13/51/4 38/57/4 68/41/4
f 77/8/12 89/85/12 88/61/12
f 2/63/13 18/74/13 71/64/13
f 28/66/14 73/73/14 77/8/14
f 9/68/3 37/7/3 78/9/3
f 13/70/3 75/77/3 80/71/3
f 2/68/14 72/69/14 73/73/14
f 6/63/15 82/65/15 74/64/15
f 38/72/3 80/71/3 81/8/3
f 13/75/15 34/74/15 74/64/15
f 6/70/14 36/78/14 76/62/14
f 9/75/13 79/76/13 71/64/13
f 36/78/14 14/67/14 77/8/14
f 85/115/4 84/116/4 83/79/4
f 83/79/4 91/117/4 90/118/4
f 83/79/4 90/118/4 93/119/4
f 89/120/4 85/115/4 83/79/4
f 86/81/4 94/121/4 88/122/4
f 88/122/4 89/120/4 83/79/4
f 83/79/4 93/119/4 92/80/4
f 92/80/4 87/123/4 86/81/4
f 86/81/4 88/122/4 83/79/4
f 81/8/16 93/85/16 90/82/16
f 71/64/17 83/89/17 84/83/17
f 77/8/12 73/73/12 85/84/12
f 78/9/16 90/82/16 91/86/16
f 80/71/16 75/77/16 87/87/16
f 73/73/12 72/69/12 84/86/12
f 74/64/18 82/65/18 94/83/18
f 81/8/16 80/71/16 92/88/16
f 74/64/18 86/89/18 87/90/18
f 76/62/12 88/61/12 94/87/12
f 71/64/17 79/76/17 91/90/17
f 95/91/19 102/124/19 101/125/19
f 95/91/19 101/125/19 106/126/19
f 103/127/19 96/128/19 95/91/19
f 104/129/19 103/127/19 95/91/19
f 95/91/19 106/126/19 105/130/19
f 105/130/19 100/131/19 99/92/19
f 99/92/19 98/132/19 97/93/19
f 97/93/19 104/129/19 95/91/19
f 95/91/19 105/130/19 99/92/19
f 49/31/20 53/36/20 106/94/20
f 32/31/21 103/95/21 104/94/21
f 48/32/20 49/31/20 101/95/20
f 4/32/21 96/96/21 103/95/21
f 58/27/22 25/4/22 99/28/22
f 58/45/20 100/99/20 105/98/20
f 8/45/21 22/46/21 97/98/21
f 8/100/22 98/101/22 99/28/22
f 4/100/7 19/4/7 95/28/7
f 22/46/21 11/36/21 104/94/21
f 52/46/20 105/98/20 106/94/20
