# Blender 5.1.2
# www.blender.org
mtllib office_chair.mtl
o office_chair
v -0.200336 0.423099 0.139174
v -0.022403 0.346052 -0.067249
v 0.185407 0.503940 -0.216751
v -0.185407 0.523099 -0.170288
v 0.200336 0.423099 0.139174
v -0.022403 0.346052 -0.103303
v -0.185407 0.503940 -0.216751
v 0.185407 0.523099 -0.170288
v -0.200336 0.373099 -0.181944
v -0.200336 0.373099 0.181944
v 0.200336 0.373099 -0.181944
v 0.200336 0.373099 0.181944
v -0.200336 0.461960 0.174661
v -0.185407 0.523099 0.119255
v 0.185407 0.523099 0.119255
v 0.200336 0.461960 0.174661
v 0.022403 0.346052 -0.103303
v 0.022403 0.346052 -0.067249
v -0.206995 0.547144 -0.176949
v 0.206995 0.547144 -0.176949
v -0.223662 0.428138 0.196399
v 0.223662 0.428138 0.196399
v 0.223662 0.487033 0.204891
v 0.206995 0.547144 0.170749
v -0.206995 0.547144 0.170749
v -0.223662 0.487033 0.204891
v -0.279926 0.547144 -0.176949
v -0.279926 0.428138 -0.219489
v 0.279926 0.547144 -0.176949
v 0.279926 0.428138 -0.219489
v 0.279926 0.428138 0.196399
v -0.279926 0.428138 0.196399
v 0.279926 0.487033 0.204891
v 0.279926 0.547144 0.170749
v -0.279926 0.547144 0.170749
v -0.279926 0.487033 0.204891
v -0.185407 0.503940 -0.318944
v 0.185407 0.503940 -0.318944
v -0.223662 0.428138 -0.267858
v 0.223662 0.428138 -0.267858
v -0.217966 0.676381 -0.193426
v 0.217966 0.676381 -0.193426
v -0.217966 0.676381 -0.318944
v 0.217966 0.676381 -0.318944
v -0.187747 0.954704 -0.275275
v 0.187747 0.954704 -0.275275
v -0.187747 0.954704 -0.375707
v 0.187747 0.954704 -0.375707
v -0.102672 1.032757 -0.311502
v 0.102672 1.032757 -0.311502
v -0.102672 1.032757 -0.393098
v 0.102672 1.032757 -0.393098
v -0.206995 0.642573 -0.176949
v 0.206995 0.642573 -0.176949
v -0.206995 0.642573 0.092585
v -0.206995 0.598581 0.153612
v 0.206995 0.598581 0.153612
v 0.206995 0.642573 0.092585
v -0.279926 0.598581 0.153612
v 0.279926 0.598581 0.153612
v -0.257783 0.373099 -0.181944
v -0.279926 0.393209 -0.195662
v -0.279926 0.393209 0.187226
v -0.257783 0.373099 0.181944
v 0.257783 0.373099 0.181944
v 0.279926 0.393209 0.187226
v 0.279926 0.393209 -0.195662
v 0.257783 0.373099 -0.181944
v -0.279926 0.622463 -0.176949
v -0.257783 0.642573 -0.176949
v 0.257783 0.642573 -0.176949
v 0.279926 0.622463 -0.176949
v -0.257783 0.642573 0.092585
v -0.279926 0.622463 0.120482
v 0.279926 0.622463 0.120482
v 0.257783 0.642573 0.092585
v -0.258662 0.641688 -0.233376
v -0.238201 0.661798 -0.233376
v 0.238201 0.661798 -0.233376
v 0.258662 0.641688 -0.233376
v 0.202057 0.852328 -0.363161
v 0.202057 0.852328 -0.262728
v -0.202057 0.852328 -0.262728
v -0.202057 0.852328 -0.363161
v -0.104644 0.346052 0.070673
v 0.104644 0.346052 0.070673
v 0.104644 0.346052 -0.119402
v -0.104644 0.346052 -0.119402
v 0.000000 0.346052 -0.056521
v 0.000000 0.346052 -0.114031
v -0.028755 0.346052 -0.085276
v 0.028755 0.346052 -0.085276
v 0.022533 0.146070 -0.057273
v -0.022534 0.146070 -0.113280
v -0.035944 0.146070 -0.085276
v -0.028004 0.146070 -0.062743
v 0.035944 0.146070 -0.085276
v 0.022533 0.119396 -0.057273
v -0.022534 0.119396 -0.113280
v -0.035944 0.119396 -0.085276
v -0.028004 0.119396 -0.062743
v 0.035944 0.119396 -0.085276
v -0.148988 0.142712 -0.045442
v -0.141048 0.142712 -0.022909
v -0.142927 0.116823 -0.047578
v -0.134987 0.116823 -0.025044
v -0.245735 0.091927 -0.011351
v -0.237795 0.091927 0.011183
v -0.228725 0.072274 -0.017345
v -0.220785 0.072274 0.005189
v -0.268270 0.037976 -0.003410
v -0.260330 0.037976 0.019123
v -0.243138 0.039177 -0.012266
v -0.235197 0.039177 0.010267
v -0.258754 0.026114 0.000129
v -0.255134 0.026114 0.010400
v -0.247298 0.026661 -0.003908
v -0.243678 0.026661 0.006363
v -0.258213 0.013390 -0.000062
v -0.254594 0.013390 0.010210
v -0.246757 0.013937 -0.004098
v -0.243138 0.013937 0.006173
v -0.236408 0.043625 -0.028812
v -0.279878 0.041595 -0.016261
v -0.267436 0.040742 0.035541
v -0.223966 0.042773 0.022991
v -0.234455 -0.000691 -0.029239
v -0.277925 -0.002722 -0.016689
v -0.265483 -0.003575 0.035113
v -0.222013 -0.001544 0.022563
v -0.240724 0.043434 -0.042018
v -0.284464 0.041392 -0.030295
v -0.263052 0.040936 0.048959
v -0.219311 0.042978 0.037235
v -0.238840 -0.000885 -0.042657
v -0.282580 -0.002928 -0.030934
v -0.261168 -0.003384 0.048320
v -0.217427 -0.001341 0.036596
v 0.028004 0.146070 -0.107810
v 0.028004 0.119396 -0.107810
v 0.148988 0.142712 -0.125110
v 0.141047 0.142712 -0.147644
v 0.142927 0.116823 -0.122975
v 0.134987 0.116823 -0.145508
v 0.245735 0.091927 -0.159201
v 0.237795 0.091927 -0.181735
v 0.228725 0.072274 -0.153208
v 0.220785 0.072274 -0.175741
v 0.268270 0.037976 -0.167142
v 0.260330 0.037976 -0.189676
v 0.243137 0.039177 -0.158286
v 0.235197 0.039177 -0.180820
v 0.258753 0.026114 -0.170681
v 0.255134 0.026114 -0.180952
v 0.247297 0.026661 -0.166644
v 0.243678 0.026661 -0.176916
v 0.258213 0.013390 -0.170491
v 0.254593 0.013390 -0.180762
v 0.246757 0.013937 -0.166454
v 0.243137 0.013937 -0.176725
v 0.236408 0.043625 -0.141741
v 0.279878 0.041595 -0.154291
v 0.267436 0.040742 -0.206093
v 0.223965 0.042773 -0.193543
v 0.234455 -0.000691 -0.141313
v 0.277925 -0.002722 -0.153864
v 0.265482 -0.003575 -0.205666
v 0.222012 -0.001544 -0.193115
v 0.240723 0.043434 -0.128534
v 0.284464 0.041392 -0.140258
v 0.263051 0.040936 -0.219511
v 0.219311 0.042978 -0.207788
v 0.238839 -0.000885 -0.127895
v 0.282580 -0.002928 -0.139619
v 0.261167 -0.003384 -0.218873
v 0.217427 -0.001341 -0.207149
v -0.000000 0.146070 -0.121220
v -0.000000 0.119396 -0.121220
v -0.039834 0.142712 -0.234264
v -0.062368 0.142712 -0.226324
v -0.037699 0.116823 -0.228203
v -0.060232 0.116823 -0.220263
v -0.073925 0.091927 -0.331011
v -0.096459 0.091927 -0.323071
v -0.067932 0.072274 -0.314001
v -0.090465 0.072274 -0.306061
v -0.081866 0.037976 -0.353546
v -0.104400 0.037976 -0.345606
v -0.073010 0.039177 -0.328414
v -0.095544 0.039177 -0.320473
v -0.085405 0.026114 -0.344029
v -0.095676 0.026114 -0.340410
v -0.081368 0.026661 -0.332574
v -0.091640 0.026661 -0.328954
v -0.085215 0.013390 -0.343489
v -0.095486 0.013390 -0.339869
v -0.081178 0.013937 -0.332033
v -0.091449 0.013937 -0.328414
v -0.056465 0.043625 -0.321684
v -0.069015 0.041595 -0.365154
v -0.120817 0.040742 -0.352712
v -0.108267 0.042773 -0.309242
v -0.056037 -0.000691 -0.319731
v -0.068588 -0.002722 -0.363201
v -0.120390 -0.003575 -0.350759
v -0.107839 -0.001544 -0.307289
v -0.043258 0.043434 -0.326000
v -0.054982 0.041392 -0.369740
v -0.134235 0.040936 -0.348328
v -0.122512 0.042978 -0.304587
v -0.042619 -0.000885 -0.324116
v -0.054343 -0.002928 -0.367856
v -0.133596 -0.003384 -0.346444
v -0.121873 -0.001341 -0.302703
v -0.000000 0.146070 -0.049332
v -0.000000 0.119396 -0.049332
v 0.039834 0.142712 0.063712
v 0.062367 0.142712 0.055771
v 0.037698 0.116823 0.057651
v 0.060232 0.116823 0.049711
v 0.073925 0.091927 0.160459
v 0.096459 0.091927 0.152519
v 0.067931 0.072274 0.143449
v 0.090465 0.072274 0.135509
v 0.081866 0.037976 0.182994
v 0.104399 0.037976 0.175054
v 0.073010 0.039177 0.157861
v 0.095543 0.039177 0.149921
v 0.085405 0.026114 0.173477
v 0.095676 0.026114 0.169858
v 0.081368 0.026661 0.162021
v 0.091639 0.026661 0.158402
v 0.085214 0.013390 0.172937
v 0.095486 0.013390 0.169317
v 0.081178 0.013937 0.161481
v 0.091449 0.013937 0.157861
v 0.056464 0.043625 0.151132
v 0.069015 0.041595 0.194602
v 0.120817 0.040742 0.182159
v 0.108267 0.042773 0.138689
v 0.056037 -0.000691 0.149179
v 0.068587 -0.002722 0.192649
v 0.120389 -0.003574 0.180206
v 0.107839 -0.001544 0.136736
v 0.043258 0.043434 0.155447
v 0.054981 0.041392 0.199188
v 0.134235 0.040936 0.177775
v 0.122511 0.042978 0.134035
v 0.042619 -0.000885 0.153563
v 0.054342 -0.002928 0.197303
v 0.133596 -0.003384 0.175891
v 0.121872 -0.001341 0.132151
vn 0.2720 -0.9623 -0.0000
vn -0.7539 0.6074 -0.2505
vn -0.2720 -0.9623 -0.0000
vn 0.4315 0.0452 0.9010
vn -0.0000 0.6500 0.7599
vn -0.0000 -0.9178 -0.3969
vn -0.0000 -0.9717 0.2362
vn -0.0000 0.9245 -0.3812
vn -0.0000 0.6715 0.7410
vn -0.0000 -0.6743 0.7384
vn -0.0000 1.0000 -0.0000
vn 0.7441 0.6681 -0.0000
vn -0.7441 0.6681 -0.0000
vn -0.9327 0.0890 0.3495
vn 0.8232 0.0901 0.5605
vn -0.7487 -0.0946 0.6562
vn 0.8574 -0.3470 0.3800
vn 0.7539 0.6074 -0.2505
vn -0.8949 0.2902 0.3392
vn 0.8948 0.2902 0.3392
vn -0.0000 -0.1427 0.9898
vn 1.0000 -0.0000 -0.0000
vn -1.0000 -0.0000 -0.0000
vn -0.0000 0.4939 0.8695
vn -0.0000 -0.8420 -0.5394
vn -0.0000 -0.5589 -0.8293
vn 0.9904 0.1384 -0.0000
vn -0.0000 -0.0000 -1.0000
vn -0.0000 -0.1340 0.9910
vn 0.9226 0.1248 0.3649
vn -0.9226 0.1248 0.3649
vn -0.6760 0.7369 -0.0000
vn -0.0000 0.1216 0.9926
vn -0.9904 0.1384 -0.0000
vn -0.0000 -0.1216 -0.9926
vn -0.0000 -0.2175 -0.9761
vn 0.6760 0.7369 -0.0000
vn -0.0000 0.4210 0.9071
vn 0.8324 -0.0000 -0.5542
vn -0.8324 -0.0000 -0.5542
vn -0.0000 0.3161 0.9487
vn -0.6723 -0.7403 -0.0000
vn 0.6723 -0.7403 -0.0000
vn -0.6723 0.7403 -0.0000
vn 0.6723 0.7403 -0.0000
vn -0.0000 -1.0000 -0.0000
vn -0.3047 -0.7424 -0.5966
vn -0.0000 -0.2540 0.9672
vn 0.1269 -0.8505 -0.5104
vn -0.0000 0.8112 0.5848
vn 0.7010 0.7132 -0.0003
vn -0.6723 0.7403 -0.0011
vn -0.0000 0.4381 0.8989
vn 0.5847 0.8113 -0.0000
vn -0.5847 0.8113 -0.0000
vn -0.9358 -0.0000 -0.3526
vn 0.9358 -0.0000 -0.3526
vn -0.6292 0.2616 -0.7319
vn 0.8875 -0.0720 -0.4551
vn 0.8637 -0.1631 -0.4769
vn -0.8637 -0.1631 -0.4769
vn 0.7805 -0.0271 -0.6246
vn -0.7805 -0.0271 -0.6246
vn -0.0000 -0.2437 -0.9698
vn -0.9959 0.0901 -0.0000
vn -0.0000 0.3665 0.9304
vn 0.9959 0.0901 -0.0000
vn 0.9426 0.0339 0.3322
vn -0.9426 0.0339 0.3322
vn -0.4317 0.0324 0.9014
vn -0.4319 -0.0000 0.9019
vn -0.9019 -0.0000 -0.4319
vn 0.4317 0.0324 -0.9014
vn 0.9426 0.0339 -0.3322
vn -0.4315 0.0452 -0.9010
vn -0.9426 0.0339 -0.3322
vn -0.0264 0.9996 0.0093
vn 0.9019 -0.0000 0.4319
vn 0.4319 -0.0000 -0.9019
vn 0.3323 -0.0000 0.9432
vn -0.3323 -0.0000 -0.9432
vn 0.0214 -0.9997 -0.0075
vn 0.4148 -0.8981 -0.1462
vn -0.4185 0.8962 0.1475
vn 0.8315 -0.4720 -0.2930
vn 0.8563 -0.4192 -0.3017
vn -0.8624 0.4049 0.3039
vn -0.6258 -0.0383 0.7790
vn -0.2734 -0.4697 -0.8394
vn -0.7881 -0.5494 0.2777
vn 0.3133 -0.4697 0.8254
vn 0.0424 -0.9990 -0.0150
vn -0.9422 -0.0450 0.3320
vn 0.6286 0.0352 -0.7769
vn 0.9422 0.0450 -0.3320
vn -0.0465 0.9989 0.0007
vn 0.0465 -0.9989 -0.0007
vn 0.1592 0.8119 0.5617
vn -0.1356 -0.7902 -0.5976
vn -0.9050 -0.0321 -0.4242
vn -0.2249 0.8194 -0.5273
vn 0.9064 0.0359 0.4208
vn 0.2003 -0.8011 0.5641
vn -0.2590 0.0029 -0.9659
vn 0.2590 -0.0029 0.9659
vn 0.9494 0.0448 -0.3109
vn -0.9494 -0.0448 0.3109
vn 0.0264 0.9996 -0.0093
vn -0.0214 -0.9997 0.0075
vn -0.4148 -0.8981 0.1462
vn 0.4185 0.8962 -0.1475
vn -0.8315 -0.4720 0.2930
vn -0.8563 -0.4192 0.3017
vn 0.8624 0.4049 -0.3039
vn 0.6258 -0.0383 -0.7790
vn 0.2734 -0.4697 0.8394
vn 0.7881 -0.5494 -0.2777
vn -0.3133 -0.4697 -0.8254
vn -0.0424 -0.9990 0.0150
vn 0.9422 -0.0450 -0.3320
vn -0.6286 0.0352 0.7769
vn -0.9422 0.0450 0.3320
vn 0.0465 0.9989 -0.0007
vn -0.0465 -0.9989 0.0007
vn -0.1592 0.8119 -0.5617
vn 0.1356 -0.7902 0.5976
vn 0.9050 -0.0321 0.4242
vn 0.2249 0.8194 0.5273
vn -0.9064 0.0359 -0.4208
vn -0.2003 -0.8011 -0.5641
vn 0.2590 0.0029 0.9659
vn -0.2590 -0.0029 -0.9659
vn -0.9494 0.0448 0.3109
vn 0.9494 -0.0448 -0.3109
vn -0.0093 0.9996 -0.0264
vn -0.9432 -0.0000 0.3323
vn 0.9432 -0.0000 -0.3323
vn 0.0075 -0.9997 0.0214
vn 0.1462 -0.8981 0.4148
vn -0.1475 0.8962 -0.4185
vn 0.2930 -0.4720 0.8315
vn 0.3017 -0.4192 0.8563
vn -0.3039 0.4049 -0.8624
vn -0.7790 -0.0383 -0.6258
vn 0.8394 -0.4697 -0.2734
vn -0.2777 -0.5494 -0.7881
vn -0.8254 -0.4697 0.3133
vn 0.0150 -0.9990 0.0424
vn -0.3320 -0.0450 -0.9422
vn 0.7769 0.0352 0.6286
vn 0.3320 0.0450 0.9422
vn -0.0007 0.9989 -0.0465
vn 0.0007 -0.9989 0.0465
vn -0.5617 0.8119 0.1592
vn 0.5976 -0.7902 -0.1356
vn 0.4242 -0.0321 -0.9050
vn 0.5273 0.8194 -0.2249
vn -0.4208 0.0359 0.9064
vn -0.5641 -0.8011 0.2003
vn 0.9659 0.0029 -0.2590
vn -0.9659 -0.0029 0.2590
vn 0.3109 0.0448 0.9494
vn -0.3109 -0.0448 -0.9494
vn 0.0093 0.9996 0.0264
vn -0.0075 -0.9997 -0.0214
vn -0.1462 -0.8981 -0.4148
vn 0.1475 0.8962 0.4185
vn -0.2930 -0.4720 -0.8315
vn -0.3017 -0.4192 -0.8563
vn 0.3039 0.4049 0.8624
vn 0.7790 -0.0383 0.6258
vn -0.8394 -0.4697 0.2734
vn 0.2777 -0.5494 0.7881
vn 0.8254 -0.4697 -0.3133
vn -0.0150 -0.9990 -0.0424
vn 0.3320 -0.0450 0.9422
vn -0.7769 0.0352 -0.6286
vn -0.3320 0.0450 -0.9422
vn 0.0007 0.9989 0.0465
vn -0.0007 -0.9989 -0.0465
vn 0.5617 0.8119 -0.1592
vn -0.5976 -0.7902 0.1356
vn -0.4242 -0.0321 0.9050
vn -0.5273 0.8194 0.2249
vn 0.4208 0.0359 -0.9064
vn 0.5641 -0.8011 -0.2003
vn -0.9659 0.0029 0.2590
vn 0.9659 -0.0029 -0.2590
vn -0.3109 0.0448 -0.9494
vn 0.3109 -0.0448 0.9494
vn 0.3322 0.0339 0.9426
vn -0.8232 0.0901 0.5605
vn 0.9327 0.0890 0.3495
vn -0.8574 -0.3470 0.3800
vn 0.7487 -0.0946 0.6562
vn -0.5790 -0.4594 -0.6735
vn 0.5790 -0.4594 -0.6735
vn -0.0000 -0.5635 -0.8261
vn 0.6723 0.7403 -0.0011
vn -0.7010 0.7132 -0.0003
vn -0.6367 0.7700 0.0414
vn 0.6367 0.7700 0.0414
vn -0.8875 -0.0720 -0.4551
vn 0.6292 0.2616 -0.7319
vn 0.7003 0.7125 -0.0442
vn -0.7003 0.7125 -0.0442
vn 0.9017 0.0221 0.4318
vn -0.3322 0.0339 -0.9426
vn -0.9017 0.0221 -0.4318
vn -0.6286 -0.0352 0.7769
vn 0.6258 0.0383 -0.7790
vn 0.1356 0.7902 0.5976
vn -0.1592 -0.8119 -0.5617
vn -0.9064 -0.0359 -0.4208
vn -0.2003 0.8011 -0.5641
vn 0.9050 0.0321 0.4242
vn 0.2249 -0.8194 0.5273
vn 0.6286 -0.0352 -0.7769
vn -0.6258 0.0383 0.7790
vn -0.1356 0.7902 -0.5976
vn 0.1592 -0.8119 0.5617
vn 0.9064 -0.0359 0.4208
vn 0.2003 0.8011 0.5641
vn -0.9050 0.0321 -0.4242
vn -0.2249 -0.8194 -0.5273
vn -0.7769 -0.0352 -0.6286
vn 0.7790 0.0383 0.6258
vn -0.5976 0.7902 0.1356
vn 0.5617 -0.8119 -0.1592
vn 0.4208 -0.0359 -0.9064
vn 0.5641 0.8011 -0.2003
vn -0.4242 0.0321 0.9050
vn -0.5273 -0.8194 0.2249
vn 0.7769 -0.0352 0.6286
vn -0.7790 0.0383 -0.6258
vn 0.5976 0.7902 -0.1356
vn -0.5617 -0.8119 0.1592
vn -0.4208 -0.0359 0.9064
vn -0.5641 0.8011 0.2003
vn 0.4242 0.0321 -0.9050
vn 0.5273 -0.8194 -0.2249
vt 0.936985 0.645086
vt 0.727961 0.040063
vt 0.727961 0.455251
vt 0.788132 0.276733
vt 0.686641 0.318581
vt 0.701192 0.371104
vt 0.061780 0.645086
vt 0.270804 0.040063
vt 0.061780 -0.149772
vt 0.499382 0.161214
vt 0.606810 0.161214
vt 0.061780 0.100147
vt 0.936985 -0.009070
vt 0.936985 0.100147
vt 0.270804 0.455251
vt 0.936985 -0.149772
vt 0.904376 0.619623
vt 0.094389 0.721115
vt 0.094389 0.619623
vt 0.904376 0.318581
vt 0.061780 0.185033
vt 0.936985 0.185033
vt 0.904376 -0.012837
vt 0.054181 0.318581
vt -0.058300 0.371104
vt -0.066846 0.185033
vt -0.132879 0.239803
vt -0.114329 0.111155
vt 0.010670 0.100147
vt -0.082754 -0.009070
vt 0.010828 0.239803
vt -0.112072 0.111155
vt 0.010828 0.111155
vt 0.987936 0.111155
vt 1.110837 0.239803
vt 0.987936 0.239803
vt 0.794113 0.111155
vt 1.110837 0.371104
vt 0.951530 0.371104
vt 0.987936 0.832750
vt -0.112072 0.371104
vt -0.112072 0.239803
vt 0.094389 0.276733
vt 0.904376 0.276733
vt 1.107943 1.037732
vt 0.915970 1.261355
vt 0.888564 1.037732
vt 0.975495 0.653404
vt 0.023270 0.653404
vt 0.737184 0.653404
vt 0.089277 1.068331
vt 0.275112 0.928084
vt 0.275112 1.106318
vt 0.940744 1.037732
vt 0.089277 1.261355
vt 0.058021 1.037732
vt 1.135349 1.261355
vt 0.909488 1.261355
vt 0.723653 0.928084
vt 0.723653 1.431850
vt 0.909488 1.068331
vt 0.909488 0.848952
vt 0.275112 1.431850
vt 0.701192 0.579555
vt 0.112437 0.579555
vt -0.020866 0.483461
vt 0.047234 0.371104
vt -0.112072 0.483461
vt 0.951530 0.483461
vt -0.063703 0.645086
vt -0.112072 -0.161309
vt -0.112072 0.675050
vt 1.062469 0.645086
vt 1.110837 -0.161309
vt 1.062469 -0.149772
vt -0.112072 0.634174
vt -0.063703 0.045419
vt -0.063703 0.634174
vt 1.110837 0.634174
vt 1.062469 0.045419
vt 1.110837 -0.015518
vt 0.742068 0.034858
vt -0.094291 0.034858
vt 0.010828 0.832750
vt -0.112072 0.034858
vt -0.063703 -0.009070
vt 1.110837 0.034858
vt 1.110837 0.111155
vt 1.110837 0.675050
vt 0.047234 0.634174
vt 0.047234 0.045419
vt 0.051500 0.535627
vt 0.701192 0.535627
vt 0.951530 0.045419
vt 1.062469 0.634174
vt 0.951530 0.634174
vt 0.047234 -0.087884
vt -0.112072 -0.015518
vt 1.110837 -0.087884
vt 1.064390 0.757430
vt 1.019696 0.757430
vt -0.065625 0.757430
vt 0.023270 0.670166
vt 0.975495 0.670166
vt 0.975495 0.944340
vt 0.023270 0.944340
vt -0.020931 0.757430
vt 0.824448 0.577621
vt 0.899768 0.111155
vt 1.011358 0.653404
vt 1.011358 0.276733
vt 0.499382 0.334100
vt 0.391955 0.247657
vt 0.606810 0.247657
vt 0.391955 0.161214
vt 0.391955 0.334100
vt 0.606810 0.334100
vt 0.061780 -0.009070
vt 0.904376 0.721115
vt 0.094389 0.318581
vt 0.094389 -0.012837
vt 0.089277 0.848952
vt 0.723653 1.106318
vt 0.047234 0.483461
vt 1.110837 0.483461
vt -0.063703 -0.149772
vt -0.112072 0.727095
vt 1.062469 -0.009070
vt 1.110837 0.727095
vt -0.112072 -0.087884
vt 0.951530 -0.087884
vt 0.824448 0.621549
s 0
usemtl no_texture
f 11/1/1 86/2/1 87/3/1
f 9/7/3 85/8/3 10/9/3
f 89/10/4 93/11/4 18/11/4
f 11/1/6 88/15/6 9/7/6
f 10/9/7 86/2/7 12/16/7
f 89/10/46 86/2/46 85/8/46
f 90/112/46 88/15/46 87/3/46
f 91/113/46 85/8/46 88/15/46
f 92/114/46 87/3/46 86/2/46
f 18/11/68 97/114/68 92/114/68
f 91/113/69 96/115/69 2/115/69
f 89/10/70 96/115/70 215/10/70
f 215/10/71 101/115/71 216/10/71
f 94/116/72 100/113/72 95/113/72
f 90/112/73 139/117/73 177/112/73
f 92/114/74 139/117/74 17/117/74
f 90/112/75 94/116/75 6/116/75
f 6/116/76 95/113/76 91/113/76
f 95/113/77 104/115/77 96/115/77
f 93/11/78 102/114/78 97/114/78
f 177/112/79 140/117/79 178/112/79
f 101/115/46 99/116/46 140/117/46
f 104/115/80 110/115/80 106/115/80
f 95/113/81 105/113/81 103/113/81
f 101/115/82 105/113/82 100/113/82
f 96/115/80 106/115/80 101/115/80
f 108/115/80 114/115/80 110/115/80
f 106/115/83 109/113/83 105/113/83
f 103/113/81 109/113/81 107/113/81
f 103/113/84 108/115/84 104/115/84
f 113/113/85 118/115/85 117/113/85
f 109/113/86 114/115/86 113/113/86
f 107/113/81 113/113/81 111/113/81
f 107/113/87 112/115/87 108/115/87
f 115/113/88 128/113/88 119/113/88
f 111/113/89 117/113/89 115/113/89
f 111/113/90 116/115/90 112/115/90
f 112/115/91 118/115/91 114/115/91
f 119/113/92 122/115/92 120/115/92
f 116/115/93 119/113/93 120/115/93
f 122/115/94 126/115/94 130/115/94
f 118/115/95 121/113/95 117/113/95
f 124/113/96 131/113/96 132/113/96
f 128/113/97 135/113/97 127/113/97
f 117/113/98 124/113/98 115/113/98
f 120/115/99 130/115/99 129/115/99
f 120/115/100 125/115/100 116/115/100
f 116/115/101 126/115/101 118/115/101
f 117/113/102 127/113/102 123/113/102
f 121/113/103 128/113/103 127/113/103
f 132/113/104 135/113/104 136/113/104
f 133/115/105 138/115/105 134/115/105
f 126/115/106 138/115/106 130/115/106
f 128/113/107 132/113/107 136/113/107
f 130/115/97 137/115/97 129/115/97
f 126/115/96 133/115/96 134/115/96
f 125/115/107 137/115/107 133/115/107
f 127/113/106 131/113/106 123/113/106
f 139/115/108 141/113/108 142/115/108
f 142/115/81 148/115/81 144/115/81
f 97/113/80 143/113/80 141/113/80
f 140/115/109 143/113/109 102/113/109
f 139/115/81 144/115/81 140/115/81
f 146/115/81 152/115/81 148/115/81
f 144/115/110 147/113/110 143/113/110
f 141/113/80 147/113/80 145/113/80
f 141/113/111 146/115/111 142/115/111
f 152/115/112 155/113/112 151/113/112
f 148/115/113 151/113/113 147/113/113
f 145/113/80 151/113/80 149/113/80
f 145/113/114 150/115/114 146/115/114
f 153/113/115 166/113/115 157/113/115
f 151/113/116 153/113/116 149/113/116
f 149/113/117 154/115/117 150/115/117
f 152/115/118 154/115/118 156/115/118
f 157/113/119 160/115/119 158/115/119
f 153/113/120 158/115/120 154/115/120
f 160/115/121 164/115/121 168/115/121
f 156/115/122 159/113/122 155/113/122
f 162/113/123 169/113/123 170/113/123
f 166/113/124 173/113/124 165/113/124
f 155/113/125 162/113/125 153/113/125
f 158/115/126 168/115/126 167/115/126
f 158/115/127 163/115/127 154/115/127
f 154/115/128 164/115/128 156/115/128
f 155/113/129 165/113/129 161/113/129
f 159/113/130 166/113/130 165/113/130
f 170/113/131 173/113/131 174/113/131
f 171/115/132 176/115/132 172/115/132
f 164/115/133 176/115/133 168/115/133
f 166/113/134 170/113/134 174/113/134
f 168/115/124 175/115/124 167/115/124
f 164/115/123 171/115/123 172/115/123
f 163/115/134 175/115/134 171/115/134
f 165/113/133 169/113/133 161/113/133
f 177/113/135 180/115/135 94/115/135
f 180/115/136 186/115/136 182/115/136
f 177/113/137 181/113/137 179/113/137
f 178/113/138 182/115/138 181/113/138
f 94/115/136 182/115/136 99/115/136
f 184/115/136 190/115/136 186/115/136
f 182/115/139 185/113/139 181/113/139
f 179/113/137 185/113/137 183/113/137
f 179/113/140 184/115/140 180/115/140
f 190/115/141 193/113/141 189/113/141
f 185/113/142 190/115/142 189/113/142
f 183/113/137 189/113/137 187/113/137
f 184/115/143 187/113/143 188/115/143
f 191/113/144 204/113/144 195/113/144
f 189/113/145 191/113/145 187/113/145
f 187/113/146 192/115/146 188/115/146
f 188/115/147 194/115/147 190/115/147
f 195/113/148 198/115/148 196/115/148
f 192/115/149 195/113/149 196/115/149
f 198/115/150 202/115/150 206/115/150
f 194/115/151 197/113/151 193/113/151
f 200/113/152 207/113/152 208/113/152
f 204/113/153 211/113/153 203/113/153
f 193/113/154 200/113/154 191/113/154
f 196/115/155 206/115/155 205/115/155
f 196/115/156 201/115/156 192/115/156
f 192/115/157 202/115/157 194/115/157
f 193/113/158 203/113/158 199/113/158
f 197/113/159 204/113/159 203/113/159
f 208/113/160 211/113/160 212/113/160
f 209/115/161 214/115/161 210/115/161
f 202/115/162 214/115/162 206/115/162
f 204/113/163 208/113/163 212/113/163
f 206/115/153 213/115/153 205/115/153
f 202/115/152 209/115/152 210/115/152
f 201/115/163 213/115/163 209/115/163
f 203/113/162 207/113/162 199/113/162
f 215/113/164 218/115/164 93/115/164
f 218/115/137 224/115/137 220/115/137
f 215/113/136 219/113/136 217/113/136
f 216/113/165 220/115/165 219/113/165
f 93/115/137 220/115/137 98/115/137
f 222/115/137 228/115/137 224/115/137
f 220/115/166 223/113/166 219/113/166
f 217/113/136 223/113/136 221/113/136
f 218/115/167 221/113/167 222/115/167
f 228/115/168 231/113/168 227/113/168
f 224/115/169 227/113/169 223/113/169
f 221/113/136 227/113/136 225/113/136
f 221/113/170 226/115/170 222/115/170
f 229/113/171 242/113/171 233/113/171
f 227/113/172 229/113/172 225/113/172
f 226/115/173 229/113/173 230/115/173
f 228/115/174 230/115/174 232/115/174
f 233/113/175 236/115/175 234/115/175
f 230/115/176 233/113/176 234/115/176
f 236/115/177 240/115/177 244/115/177
f 232/115/178 235/113/178 231/113/178
f 238/113/179 245/113/179 246/113/179
f 242/113/180 249/113/180 241/113/180
f 231/113/181 238/113/181 229/113/181
f 234/115/182 244/115/182 243/115/182
f 234/115/183 239/115/183 230/115/183
f 230/115/184 240/115/184 232/115/184
f 231/113/185 241/113/185 237/113/185
f 235/113/186 242/113/186 241/113/186
f 246/113/187 249/113/187 250/113/187
f 247/115/188 252/115/188 248/115/188
f 240/115/189 252/115/189 244/115/189
f 242/113/190 246/113/190 250/113/190
f 244/115/180 251/115/180 243/115/180
f 240/115/179 247/115/179 248/115/179
f 239/115/190 251/115/190 247/115/190
f 241/113/189 245/113/189 237/113/189
f 11/1/1 12/16/1 86/2/1
f 9/7/3 88/15/3 85/8/3
f 89/10/191 215/10/191 93/11/191
f 11/1/6 87/3/6 88/15/6
f 10/9/7 85/8/7 86/2/7
f 85/8/46 2/115/46 89/10/46
f 89/10/46 18/11/46 86/2/46
f 87/3/46 17/117/46 90/112/46
f 90/112/46 6/116/46 88/15/46
f 88/15/46 6/116/46 91/113/46
f 91/113/46 2/115/46 85/8/46
f 86/2/46 18/11/46 92/114/46
f 92/114/46 17/117/46 87/3/46
f 18/11/207 93/11/207 97/114/207
f 91/113/69 95/113/69 96/115/69
f 89/10/70 2/115/70 96/115/70
f 215/10/71 96/115/71 101/115/71
f 94/116/72 99/116/72 100/113/72
f 90/112/73 17/117/73 139/117/73
f 92/114/74 97/114/74 139/117/74
f 90/112/208 177/112/208 94/116/208
f 6/116/209 94/116/209 95/113/209
f 95/113/77 103/113/77 104/115/77
f 93/11/78 98/11/78 102/114/78
f 177/112/79 139/117/79 140/117/79
f 140/117/46 102/114/46 98/11/46
f 98/11/46 216/10/46 101/115/46
f 101/115/46 100/113/46 99/116/46
f 99/116/46 178/112/46 140/117/46
f 140/117/46 98/11/46 101/115/46
f 104/115/80 108/115/80 110/115/80
f 95/113/81 100/113/81 105/113/81
f 101/115/82 106/115/82 105/113/82
f 96/115/80 104/115/80 106/115/80
f 108/115/80 112/115/80 114/115/80
f 106/115/83 110/115/83 109/113/83
f 103/113/81 105/113/81 109/113/81
f 103/113/84 107/113/84 108/115/84
f 113/113/85 114/115/85 118/115/85
f 109/113/86 110/115/86 114/115/86
f 107/113/81 109/113/81 113/113/81
f 107/113/87 111/113/87 112/115/87
f 115/113/210 124/113/210 128/113/210
f 111/113/89 113/113/89 117/113/89
f 111/113/90 115/113/90 116/115/90
f 112/115/91 116/115/91 118/115/91
f 119/113/92 121/113/92 122/115/92
f 116/115/93 115/113/93 119/113/93
f 122/115/211 118/115/211 126/115/211
f 118/115/95 122/115/95 121/113/95
f 124/113/96 123/113/96 131/113/96
f 128/113/97 136/113/97 135/113/97
f 117/113/212 123/113/212 124/113/212
f 120/115/213 122/115/213 130/115/213
f 120/115/214 129/115/214 125/115/214
f 116/115/215 125/115/215 126/115/215
f 117/113/216 121/113/216 127/113/216
f 121/113/217 119/113/217 128/113/217
f 132/113/104 131/113/104 135/113/104
f 133/115/105 137/115/105 138/115/105
f 126/115/106 134/115/106 138/115/106
f 128/113/107 124/113/107 132/113/107
f 130/115/97 138/115/97 137/115/97
f 126/115/96 125/115/96 133/115/96
f 125/115/107 129/115/107 137/115/107
f 127/113/106 135/113/106 131/113/106
f 139/115/108 97/113/108 141/113/108
f 142/115/81 146/115/81 148/115/81
f 97/113/80 102/113/80 143/113/80
f 140/115/109 144/115/109 143/113/109
f 139/115/81 142/115/81 144/115/81
f 146/115/81 150/115/81 152/115/81
f 144/115/110 148/115/110 147/113/110
f 141/113/80 143/113/80 147/113/80
f 141/113/111 145/113/111 146/115/111
f 152/115/112 156/115/112 155/113/112
f 148/115/113 152/115/113 151/113/113
f 145/113/80 147/113/80 151/113/80
f 145/113/114 149/113/114 150/115/114
f 153/113/218 162/113/218 166/113/218
f 151/113/116 155/113/116 153/113/116
f 149/113/117 153/113/117 154/115/117
f 152/115/118 150/115/118 154/115/118
f 157/113/119 159/113/119 160/115/119
f 153/113/120 157/113/120 158/115/120
f 160/115/219 156/115/219 164/115/219
f 156/115/122 160/115/122 159/113/122
f 162/113/123 161/113/123 169/113/123
f 166/113/124 174/113/124 173/113/124
f 155/113/220 161/113/220 162/113/220
f 158/115/221 160/115/221 168/115/221
f 158/115/222 167/115/222 163/115/222
f 154/115/223 163/115/223 164/115/223
f 155/113/224 159/113/224 165/113/224
f 159/113/225 157/113/225 166/113/225
f 170/113/131 169/113/131 173/113/131
f 171/115/132 175/115/132 176/115/132
f 164/115/133 172/115/133 176/115/133
f 166/113/134 162/113/134 170/113/134
f 168/115/124 176/115/124 175/115/124
f 164/115/123 163/115/123 171/115/123
f 163/115/134 167/115/134 175/115/134
f 165/113/133 173/113/133 169/113/133
f 177/113/135 179/113/135 180/115/135
f 180/115/136 184/115/136 186/115/136
f 177/113/137 178/113/137 181/113/137
f 178/113/138 99/115/138 182/115/138
f 94/115/136 180/115/136 182/115/136
f 184/115/136 188/115/136 190/115/136
f 182/115/139 186/115/139 185/113/139
f 179/113/137 181/113/137 185/113/137
f 179/113/140 183/113/140 184/115/140
f 190/115/141 194/115/141 193/113/141
f 185/113/142 186/115/142 190/115/142
f 183/113/137 185/113/137 189/113/137
f 184/115/143 183/113/143 187/113/143
f 191/113/226 200/113/226 204/113/226
f 189/113/145 193/113/145 191/113/145
f 187/113/146 191/113/146 192/115/146
f 188/115/147 192/115/147 194/115/147
f 195/113/148 197/113/148 198/115/148
f 192/115/149 191/113/149 195/113/149
f 198/115/227 194/115/227 202/115/227
f 194/115/151 198/115/151 197/113/151
f 200/113/152 199/113/152 207/113/152
f 204/113/153 212/113/153 211/113/153
f 193/113/228 199/113/228 200/113/228
f 196/115/229 198/115/229 206/115/229
f 196/115/230 205/115/230 201/115/230
f 192/115/231 201/115/231 202/115/231
f 193/113/232 197/113/232 203/113/232
f 197/113/233 195/113/233 204/113/233
f 208/113/160 207/113/160 211/113/160
f 209/115/161 213/115/161 214/115/161
f 202/115/162 210/115/162 214/115/162
f 204/113/163 200/113/163 208/113/163
f 206/115/153 214/115/153 213/115/153
f 202/115/152 201/115/152 209/115/152
f 201/115/163 205/115/163 213/115/163
f 203/113/162 211/113/162 207/113/162
f 215/113/164 217/113/164 218/115/164
f 218/115/137 222/115/137 224/115/137
f 215/113/136 216/113/136 219/113/136
f 216/113/165 98/115/165 220/115/165
f 93/115/137 218/115/137 220/115/137
f 222/115/137 226/115/137 228/115/137
f 220/115/166 224/115/166 223/113/166
f 217/113/136 219/113/136 223/113/136
f 218/115/167 217/113/167 221/113/167
f 228/115/168 232/115/168 231/113/168
f 224/115/169 228/115/169 227/113/169
f 221/113/136 223/113/136 227/113/136
f 221/113/170 225/113/170 226/115/170
f 229/113/234 238/113/234 242/113/234
f 227/113/172 231/113/172 229/113/172
f 226/115/173 225/113/173 229/113/173
f 228/115/174 226/115/174 230/115/174
f 233/113/175 235/113/175 236/115/175
f 230/115/176 229/113/176 233/113/176
f 236/115/235 232/115/235 240/115/235
f 232/115/178 236/115/178 235/113/178
f 238/113/179 237/113/179 245/113/179
f 242/113/180 250/113/180 249/113/180
f 231/113/236 237/113/236 238/113/236
f 234/115/237 236/115/237 244/115/237
f 234/115/238 243/115/238 239/115/238
f 230/115/239 239/115/239 240/115/239
f 231/113/240 235/113/240 241/113/240
f 235/113/241 233/113/241 242/113/241
f 246/113/187 245/113/187 249/113/187
f 247/115/188 251/115/188 252/115/188
f 240/115/189 248/115/189 252/115/189
f 242/113/190 238/113/190 246/113/190
f 244/115/180 252/115/180 251/115/180
f 240/115/179 239/115/179 247/115/179
f 239/115/190 243/115/190 251/115/190
f 241/113/189 249/113/189 245/113/189
usemtl fabric_cream
f 3/4/2 8/5/2 20/6/2
f 1/12/5 12/13/5 5/14/5
f 8/17/8 7/18/8 4/19/8
f 15/20/9 13/21/9 16/22/9
f 16/22/10 1/12/10 5/14/10
f 4/19/11 15/23/11 8/17/11
f 14/24/12 19/6/12 25/25/12
f 15/24/13 20/6/13 8/5/13
f 16/26/14 24/25/14 15/24/14
f 13/26/15 25/25/15 26/27/15
f 16/26/16 22/28/16 23/27/16
f 13/26/17 21/28/17 1/29/17
f 19/6/18 4/5/18 7/4/18
f 5/29/19 12/30/19 22/28/19
f 10/30/20 1/29/20 21/28/20
f 26/31/21 32/32/21 21/33/21
f 22/34/21 33/35/21 23/36/21
f 34/25/22 31/28/22 30/37/22
f 32/28/23 35/25/23 27/6/23
f 23/36/24 34/38/24 24/39/24
f 9/7/25 40/40/25 11/1/25
f 26/31/24 35/41/24 36/42/24
f 40/34/26 37/43/26 38/44/26
f 81/45/27 46/46/27 82/47/27
f 37/43/28 44/48/28 38/44/28
f 3/44/29 41/49/29 7/43/29
f 19/6/30 7/4/30 41/50/30
f 3/4/31 20/6/31 42/50/31
f 47/51/32 49/52/32 51/53/32
f 82/54/33 45/55/33 83/56/33
f 84/45/34 45/46/34 47/57/34
f 84/56/35 48/58/35 81/54/35
f 50/59/11 51/53/11 49/52/11
f 47/55/36 52/60/36 48/58/36
f 48/61/37 50/59/37 46/62/37
f 46/58/38 49/63/38 45/55/38
f 41/50/39 53/64/39 19/6/39
f 42/50/40 20/6/40 54/64/40
f 19/6/22 55/65/22 56/66/22
f 25/67/41 59/68/41 35/41/41
f 34/38/41 57/69/41 24/39/41
f 24/25/23 58/65/23 54/64/23
f 61/70/42 63/71/42 62/72/42
f 68/73/43 66/74/43 65/75/43
f 69/76/44 73/77/44 70/78/44
f 72/79/45 76/80/45 75/81/45
f 10/9/46 61/70/46 9/7/46
f 32/28/23 62/82/23 63/83/23
f 39/84/47 61/70/47 62/72/47
f 21/33/48 63/85/48 64/86/48
f 67/82/22 31/28/22 66/83/22
f 12/13/48 66/87/48 31/88/48
f 11/1/46 65/75/46 12/16/46
f 67/89/49 11/1/49 40/40/49
f 53/90/11 73/77/11 55/91/11
f 35/25/23 74/92/23 69/93/23
f 58/94/11 71/95/11 54/96/11
f 29/6/22 75/92/22 60/66/22
f 56/97/50 73/77/50 74/98/50
f 60/99/50 76/80/50 58/94/50
f 71/95/51 80/100/51 79/101/51
f 70/78/52 77/102/52 69/76/52
f 41/103/53 70/78/53 53/90/53
f 71/95/53 42/104/53 54/96/53
f 42/104/54 79/101/54 44/105/54
f 43/106/55 78/107/55 41/103/55
f 69/93/56 77/108/56 27/6/56
f 72/93/57 29/6/57 80/108/57
f 27/6/58 39/109/58 28/37/58
f 29/6/59 40/109/59 80/108/59
f 44/110/60 80/108/60 38/111/60
f 77/108/61 43/110/61 37/111/61
f 40/109/62 38/111/62 80/108/62
f 37/111/63 39/109/63 77/108/63
f 43/49/64 81/54/64 44/48/64
f 43/110/65 83/47/65 84/45/65
f 42/48/66 83/56/66 41/49/66
f 44/110/67 82/47/67 42/50/67
f 1/12/5 10/118/5 12/13/5
f 8/17/8 3/119/8 7/18/8
f 15/20/9 14/120/9 13/21/9
f 16/22/10 13/21/10 1/12/10
f 4/19/11 14/121/11 15/23/11
f 14/24/12 4/5/12 19/6/12
f 15/24/13 24/25/13 20/6/13
f 16/26/192 23/27/192 24/25/192
f 13/26/193 14/24/193 25/25/193
f 16/26/194 5/29/194 22/28/194
f 13/26/195 26/27/195 21/28/195
f 26/31/21 36/42/21 32/32/21
f 22/34/21 31/88/21 33/35/21
f 30/37/22 29/6/22 34/25/22
f 34/25/22 33/27/22 31/28/22
f 27/6/23 28/37/23 32/28/23
f 32/28/23 36/27/23 35/25/23
f 23/36/24 33/35/24 34/38/24
f 9/7/25 39/84/25 40/40/25
f 26/31/24 25/67/24 35/41/24
f 40/34/26 39/33/26 37/43/26
f 81/45/27 48/57/27 46/46/27
f 37/43/28 43/49/28 44/48/28
f 3/44/29 42/48/29 41/49/29
f 47/51/32 45/122/32 49/52/32
f 82/54/33 46/58/33 45/55/33
f 84/45/34 83/47/34 45/46/34
f 84/56/35 47/55/35 48/58/35
f 50/59/11 52/123/11 51/53/11
f 47/55/36 51/63/36 52/60/36
f 48/61/37 52/123/37 50/59/37
f 46/58/38 50/60/38 49/63/38
f 56/66/22 25/25/22 19/6/22
f 19/6/22 53/64/22 55/65/22
f 25/67/41 56/124/41 59/68/41
f 34/38/41 60/125/41 57/69/41
f 54/64/23 20/6/23 24/25/23
f 24/25/23 57/66/23 58/65/23
f 61/70/42 64/126/42 63/71/42
f 68/73/43 67/89/43 66/74/43
f 69/76/44 74/98/44 73/77/44
f 72/79/45 71/95/45 76/80/45
f 10/9/46 64/126/46 61/70/46
f 32/28/23 28/37/23 62/82/23
f 62/72/196 28/127/196 39/84/196
f 39/84/25 9/7/25 61/70/25
f 64/86/48 10/118/48 21/33/48
f 21/33/48 32/32/48 63/85/48
f 67/82/22 30/37/22 31/28/22
f 31/88/48 22/34/48 12/13/48
f 12/13/48 65/128/48 66/87/48
f 11/1/46 68/73/46 65/75/46
f 40/40/197 30/129/197 67/89/197
f 67/89/198 68/73/198 11/1/198
f 53/90/11 70/78/11 73/77/11
f 69/93/23 27/6/23 35/25/23
f 35/25/23 59/66/23 74/92/23
f 58/94/11 76/80/11 71/95/11
f 60/66/22 34/25/22 29/6/22
f 29/6/22 72/93/22 75/92/22
f 74/98/50 59/130/50 56/97/50
f 56/97/50 55/91/50 73/77/50
f 58/94/50 57/131/50 60/99/50
f 60/99/50 75/81/50 76/80/50
f 71/95/199 72/79/199 80/100/199
f 70/78/200 78/107/200 77/102/200
f 41/103/201 78/107/201 70/78/201
f 71/95/202 79/101/202 42/104/202
f 27/6/203 77/108/203 39/109/203
f 29/6/204 30/37/204 40/109/204
f 44/110/205 79/132/205 80/108/205
f 77/108/206 78/132/206 43/110/206
f 43/49/64 84/56/64 81/54/64
f 43/110/65 41/50/65 83/47/65
f 42/48/66 82/54/66 83/56/66
f 44/110/67 81/45/67 82/47/67
