# Blender 5.1.2
# www.blender.org
mtllib pillow.mtl
o pillow
v -0.064395 0.277122 0.000000
v -0.028131 0.284486 0.142243
v -0.141864 -0.189395 -0.094698
v -0.141864 -0.189395 0.000000
v -0.141864 -0.189395 0.094698
v -0.028131 -0.284486 0.142243
v -0.064395 -0.277122 0.000000
v -0.028131 -0.284486 -0.142243
v -0.028131 -0.284486 0.284486
v -0.090555 -0.189395 0.189395
v -0.028131 0.284486 0.284486
v -0.090555 0.189395 0.189395
v -0.090555 -0.189395 -0.189395
v -0.028131 -0.284486 -0.284486
v -0.028131 0.284486 -0.284486
v -0.090555 0.189395 -0.189395
v 0.090555 -0.189395 0.189395
v 0.028131 -0.284486 0.284486
v 0.028131 0.284486 0.284486
v 0.090555 0.189395 0.189395
v 0.090555 -0.189395 -0.189395
v 0.028131 -0.284486 -0.284486
v 0.090555 0.189395 -0.189395
v 0.028131 0.284486 -0.284486
v -0.028131 0.284486 -0.142243
v -0.141864 0.189395 -0.094698
v -0.141864 0.189395 0.000000
v -0.141864 0.189395 0.094698
v 0.028131 -0.284486 0.142243
v 0.064395 -0.277122 0.000000
v 0.028131 -0.284486 -0.142243
v 0.141864 -0.189395 -0.094698
v 0.141864 -0.189395 0.000000
v 0.141864 -0.189395 0.094698
v 0.028131 0.284486 -0.142243
v 0.064395 0.277122 0.000000
v 0.028131 0.284486 0.142243
v 0.141864 0.189395 0.094698
v 0.141864 0.189395 0.000000
v 0.141864 0.189395 -0.094698
v -0.028131 -0.142243 0.253528
v -0.022936 0.000000 0.222795
v -0.028131 0.142243 0.253528
v -0.098723 0.094698 0.189395
v -0.098723 0.000000 0.189395
v -0.098723 -0.094698 0.189395
v -0.028131 0.142243 -0.253528
v -0.022936 0.000000 -0.222795
v -0.028131 -0.142243 -0.253528
v -0.098723 -0.094698 -0.189395
v -0.098723 0.000000 -0.189395
v -0.098723 0.094698 -0.189395
v 0.098723 0.094698 -0.189395
v 0.098723 0.000000 -0.189395
v 0.098723 -0.094698 -0.189395
v 0.028131 -0.142243 -0.253528
v 0.022936 0.000000 -0.222795
v 0.028131 0.142243 -0.253528
v 0.028131 0.142243 0.253528
v 0.022936 0.000000 0.222795
v 0.028131 -0.142243 0.253528
v 0.098723 -0.094698 0.189395
v 0.098723 0.000000 0.189395
v 0.098723 0.094698 0.189395
v 0.169118 0.094698 -0.094698
v 0.169118 0.000000 -0.094698
v 0.169118 -0.094698 -0.094698
v 0.169118 0.094698 0.000000
v 0.169118 0.000000 0.000000
v 0.169118 -0.094698 0.000000
v 0.169118 0.094698 0.094698
v 0.169118 0.000000 0.094698
v 0.169118 -0.094698 0.094698
v -0.169118 0.094698 0.094698
v -0.169118 0.000000 0.094698
v -0.169118 -0.094698 0.094698
v -0.169118 0.094698 0.000000
v -0.169118 0.000000 0.000000
v -0.169118 -0.094698 0.000000
v -0.169118 0.094698 -0.094698
v -0.169118 0.000000 -0.094698
v -0.169118 -0.094698 -0.094698
vn 0.9610 0.2766 -0.0000
vn 0.7820 0.2250 -0.5813
vn -0.0000 0.9987 -0.0517
vn -0.0000 0.9987 0.0517
vn -0.0000 1.0000 -0.0000
vn -0.6821 -0.6310 0.3696
vn -0.6930 0.0598 0.7185
vn -0.6821 0.6310 -0.3696
vn -0.6930 -0.0598 -0.7185
vn 0.6930 -0.0598 -0.7185
vn 0.6821 -0.6310 -0.3696
vn 0.6821 0.6310 0.3696
vn 0.6930 -0.0598 0.7185
vn -0.0000 -1.0000 -0.0000
vn -0.7820 0.2250 -0.5813
vn -0.0000 -0.2127 0.9771
vn -0.0000 -0.2127 -0.9771
vn 0.7820 0.2250 0.5813
vn -0.7820 0.2250 0.5813
vn -0.9610 0.2766 -0.0000
vn -0.0000 -0.9987 0.0517
vn -0.0000 -0.9987 -0.0517
vn 0.8360 0.5488 -0.0000
vn 0.6678 0.7325 -0.1323
vn 0.7496 0.6619 -0.0000
vn 0.8360 -0.5488 -0.0000
vn 0.6678 -0.7325 0.1323
vn 0.7496 -0.6619 -0.0000
vn -0.8360 0.5488 -0.0000
vn -0.6678 0.7325 0.1323
vn -0.7496 0.6619 -0.0000
vn -0.8360 -0.5488 -0.0000
vn -0.6678 -0.7325 -0.1323
vn -0.7496 -0.6619 -0.0000
vn -0.9610 -0.2766 -0.0000
vn -1.0000 -0.0000 -0.0000
vn -0.8767 -0.0756 0.4750
vn -0.8026 -0.0000 0.5966
vn 0.8767 -0.0756 0.4750
vn 0.8026 -0.0000 0.5966
vn -0.0000 0.2127 -0.9771
vn -0.0000 0.2112 -0.9774
vn -0.0000 -0.2112 -0.9774
vn -0.0000 0.2127 0.9771
vn -0.0000 0.2112 0.9774
vn -0.0000 -0.2112 0.9774
vn -0.8767 -0.0756 -0.4750
vn -0.8026 -0.0000 -0.5966
vn 0.7587 -0.1385 0.6366
vn 0.5862 -0.1915 0.7872
vn 0.4033 -0.0000 0.9151
vn 0.7587 -0.1385 -0.6366
vn 0.5862 -0.1915 -0.7872
vn 0.4033 -0.0000 -0.9151
vn -0.7587 -0.1385 -0.6366
vn -0.5862 -0.1915 -0.7872
vn -0.4033 -0.0000 -0.9151
vn -0.7587 0.1385 0.6366
vn -0.5862 0.1915 0.7872
vn -0.4033 -0.0000 0.9151
vn 0.9610 -0.2766 -0.0000
vn 1.0000 -0.0000 -0.0000
vn 0.8767 -0.0756 -0.4750
vn 0.8026 -0.0000 -0.5966
vn 0.8767 0.0756 -0.4750
vn -0.7587 -0.1385 0.6366
vn -0.7587 0.1385 -0.6366
vn 0.7587 0.1385 -0.6366
vn 0.7587 0.1385 0.6366
vn -0.8767 0.0756 -0.4750
vn 0.8767 0.0756 0.4750
vn -0.8767 0.0756 0.4750
vn 0.6821 0.6310 -0.3696
vn 0.6678 0.7325 0.1323
vn 0.6821 -0.6310 0.3696
vn 0.6678 -0.7325 -0.1323
vn -0.6821 0.6310 0.3696
vn -0.6678 0.7325 -0.1323
vn -0.6821 -0.6310 -0.3696
vn -0.6678 -0.7325 0.1323
vn -0.7820 -0.2250 0.5813
vn 0.7820 -0.2250 0.5813
vn -0.7820 -0.2250 -0.5813
vn 0.6930 0.0598 0.7185
vn 0.5862 0.1915 0.7872
vn 0.6930 0.0598 -0.7185
vn 0.5862 0.1915 -0.7872
vn -0.6930 0.0598 -0.7185
vn -0.5862 0.1915 -0.7872
vn -0.6930 -0.0598 0.7185
vn -0.5862 -0.1915 0.7872
vn 0.7820 -0.2250 -0.5813
vt 0.725989 0.840315
vt 0.612994 0.953309
vt 0.612994 0.840315
vt 0.612994 0.614326
vt 0.725989 0.727320
vt 0.612995 0.727320
vt 1.250280 0.840315
vt 0.870617 1.025623
vt 0.870617 0.840315
vt 1.250281 0.691163
vt 0.870617 0.655006
vt 1.250281 0.542012
vt 0.870617 0.469698
vt 0.201697 -0.477944
vt 0.274011 -0.578885
vt 0.274011 -0.465891
vt 0.649151 -0.651200
vt 0.725989 -0.578885
vt 0.612994 -0.578885
vt 0.798303 -0.131431
vt 0.725989 -0.126908
vt 0.725989 -0.239902
vt 0.350848 0.041825
vt 0.274011 -0.126908
vt 0.387006 -0.126908
vt 0.274011 0.614326
vt 0.314692 0.469698
vt 0.387006 0.614326
vt 0.129383 0.655006
vt 0.274011 0.727320
vt 0.725989 1.066303
vt 0.725989 0.953309
vt 0.314692 1.210932
vt 0.274011 1.066303
vt 0.387006 1.066303
vt 0.129383 1.025623
vt -0.250280 1.138618
vt -0.250280 0.989466
vt 0.612994 -0.126908
vt 0.612994 -0.239902
vt 0.870617 1.210932
vt 0.649151 1.590595
vt 0.685308 1.210932
vt 1.250281 0.989466
vt 0.798303 0.041825
vt 0.685308 0.469698
vt 0.649151 0.041825
vt 0.612994 1.066303
vt 0.725989 -0.465891
vt 0.612995 -0.465891
vt 0.612994 -0.352897
vt 0.725989 -0.352897
vt 0.129383 0.469698
vt -0.250280 0.691163
vt -0.250280 0.542012
vt -0.250280 0.840315
vt 0.129383 0.840315
vt 0.725989 0.614326
vt 0.129383 1.210932
vt 0.274011 0.953309
vt 0.274011 0.840315
vt 0.798303 -0.477943
vt 0.798303 -0.651200
vt 0.798303 -0.304687
vt 0.201697 -0.131431
vt 0.201697 0.041825
vt 0.201697 -0.304687
vt 0.274011 -0.239902
vt 0.274011 -0.352897
vt 0.387006 -0.352897
vt 0.500000 -0.352897
vt 0.387006 -0.239902
vt 0.500000 -0.239902
vt 0.387006 -0.465891
vt 0.500000 -0.465891
vt 0.387006 -0.578885
vt 0.500000 -0.578885
vt 0.500000 0.953309
vt 0.387006 0.953309
vt 0.500000 1.066303
vt 0.500000 0.041825
vt 0.500000 0.469698
vt 0.201697 1.590595
vt 0.500000 1.210932
vt 0.350849 1.590595
vt 0.500000 1.590595
vt 0.500000 -0.126908
vt 0.500000 0.614326
vt 0.350849 -0.651200
vt 0.201697 -0.651200
vt 0.500000 -0.651200
vt 0.387006 0.727320
vt 0.500000 0.727320
vt 0.387006 0.840314
vt 0.500000 0.840314
vt 0.798303 1.590595
vt 1.250281 1.138618
s 0
usemtl fabric_cream
f 39/1/1 71/2/1 68/3/1
f 53/4/2 40/5/2 65/6/2
f 1/7/3 37/8/3 36/9/3
f 25/10/4 36/9/4 35/11/4
f 15/12/5 35/11/5 24/13/5
f 40/5/1 68/3/1 65/6/1
f 6/14/6 10/15/6 5/16/6
f 43/17/7 12/18/7 44/19/7
f 25/20/8 16/21/8 26/22/8
f 49/23/9 13/24/9 50/25/9
f 21/26/10 56/27/10 55/28/10
f 31/29/11 21/26/11 32/30/11
f 37/8/12 20/31/12 38/32/12
f 61/33/13 17/34/13 62/35/13
f 29/36/14 9/37/14 6/38/14
f 26/22/15 52/39/15 80/40/15
f 19/41/16 43/42/16 59/43/16
f 2/44/5 19/41/5 37/8/5
f 15/45/17 58/46/17 47/47/17
f 38/32/18 64/48/18 71/2/18
f 44/19/19 28/49/19 74/50/19
f 28/49/20 77/51/20 74/50/20
f 27/52/20 80/40/20 77/51/20
f 22/53/14 8/54/14 14/55/14
f 31/29/21 7/56/21 8/54/21
f 30/57/22 6/38/22 7/56/22
f 35/11/23 23/58/23 24/13/23
f 36/9/24 40/5/24 35/11/24
f 36/9/25 38/32/25 39/1/25
f 29/36/26 17/34/26 18/59/26
f 30/57/27 34/60/27 29/36/27
f 30/57/28 32/30/28 33/61/28
f 2/62/29 12/18/29 11/63/29
f 1/64/30 28/49/30 2/62/30
f 1/64/31 26/22/31 27/52/31
f 8/65/32 13/24/32 14/66/32
f 7/67/33 3/68/33 8/65/33
f 7/67/34 5/16/34 4/69/34
f 79/70/35 3/68/35 4/69/35
f 78/71/36 82/72/36 79/70/36
f 77/51/36 81/73/36 78/71/36
f 76/74/35 4/69/35 5/16/35
f 75/75/36 79/70/36 76/74/36
f 74/50/36 78/71/36 75/75/36
f 46/76/37 5/16/37 10/15/37
f 45/77/38 76/74/38 46/76/38
f 44/19/38 75/75/38 45/77/38
f 34/60/39 62/35/39 17/34/39
f 72/78/40 62/35/40 73/79/40
f 71/2/40 63/80/40 72/78/40
f 49/23/41 22/53/41 14/66/41
f 48/81/42 56/27/42 49/23/42
f 47/47/43 57/82/43 48/81/43
f 61/33/44 9/83/44 18/59/44
f 60/84/45 41/85/45 61/33/45
f 59/43/46 42/86/46 60/84/46
f 3/68/47 50/25/47 13/24/47
f 81/73/48 50/25/48 82/72/48
f 80/40/48 51/87/48 81/73/48
f 59/43/49 20/31/49 19/41/49
f 60/84/50 64/48/50 59/43/50
f 60/84/51 62/35/51 63/80/51
f 23/58/52 58/46/52 24/13/52
f 53/4/53 57/82/53 58/46/53
f 55/28/54 57/82/54 54/88/54
f 47/47/55 16/21/55 15/45/55
f 48/81/56 52/39/56 47/47/56
f 48/81/57 50/25/57 51/87/57
f 41/89/58 10/15/58 9/90/58
f 42/91/59 46/76/59 41/89/59
f 42/91/60 44/19/60 45/77/60
f 67/92/61 33/61/61 32/30/61
f 66/93/62 70/94/62 67/92/62
f 65/6/62 69/95/62 66/93/62
f 55/28/63 32/30/63 21/26/63
f 54/88/64 67/92/64 55/28/64
f 53/4/64 66/93/64 54/88/64
f 70/94/61 34/60/61 33/61/61
f 69/95/62 73/79/62 70/94/62
f 68/3/62 72/78/62 69/95/62
f 39/1/1 38/32/1 71/2/1
f 53/4/65 23/58/65 40/5/65
f 1/7/3 2/44/3 37/8/3
f 25/10/4 1/7/4 36/9/4
f 15/12/5 25/10/5 35/11/5
f 40/5/1 39/1/1 68/3/1
f 6/14/32 9/90/32 10/15/32
f 43/17/66 11/63/66 12/18/66
f 25/20/29 15/45/29 16/21/29
f 49/23/67 14/66/67 13/24/67
f 21/26/68 22/53/68 56/27/68
f 31/29/26 22/53/26 21/26/26
f 37/8/23 19/41/23 20/31/23
f 61/33/69 18/59/69 17/34/69
f 29/36/14 18/59/14 9/37/14
f 26/22/70 16/21/70 52/39/70
f 19/41/16 11/96/16 43/42/16
f 2/44/5 11/97/5 19/41/5
f 15/45/17 24/13/17 58/46/17
f 38/32/71 20/31/71 64/48/71
f 44/19/72 12/18/72 28/49/72
f 28/49/20 27/52/20 77/51/20
f 27/52/20 26/22/20 80/40/20
f 22/53/14 31/29/14 8/54/14
f 31/29/21 30/57/21 7/56/21
f 30/57/22 29/36/22 6/38/22
f 35/11/73 40/5/73 23/58/73
f 36/9/25 39/1/25 40/5/25
f 36/9/74 37/8/74 38/32/74
f 29/36/75 34/60/75 17/34/75
f 30/57/28 33/61/28 34/60/28
f 30/57/76 31/29/76 32/30/76
f 2/62/77 28/49/77 12/18/77
f 1/64/31 27/52/31 28/49/31
f 1/64/78 25/20/78 26/22/78
f 8/65/79 3/68/79 13/24/79
f 7/67/34 4/69/34 3/68/34
f 7/67/80 6/14/80 5/16/80
f 79/70/35 82/72/35 3/68/35
f 78/71/36 81/73/36 82/72/36
f 77/51/36 80/40/36 81/73/36
f 76/74/35 79/70/35 4/69/35
f 75/75/36 78/71/36 79/70/36
f 74/50/36 77/51/36 78/71/36
f 46/76/81 76/74/81 5/16/81
f 45/77/38 75/75/38 76/74/38
f 44/19/38 74/50/38 75/75/38
f 34/60/82 73/79/82 62/35/82
f 72/78/40 63/80/40 62/35/40
f 71/2/40 64/48/40 63/80/40
f 49/23/41 56/27/41 22/53/41
f 48/81/42 57/82/42 56/27/42
f 47/47/43 58/46/43 57/82/43
f 61/33/44 41/85/44 9/83/44
f 60/84/45 42/86/45 41/85/45
f 59/43/46 43/42/46 42/86/46
f 3/68/83 82/72/83 50/25/83
f 81/73/48 51/87/48 50/25/48
f 80/40/48 52/39/48 51/87/48
f 59/43/84 64/48/84 20/31/84
f 60/84/51 63/80/51 64/48/51
f 60/84/85 61/33/85 62/35/85
f 23/58/86 53/4/86 58/46/86
f 53/4/54 54/88/54 57/82/54
f 55/28/87 56/27/87 57/82/87
f 47/47/88 52/39/88 16/21/88
f 48/81/57 51/87/57 52/39/57
f 48/81/89 49/23/89 50/25/89
f 41/89/90 46/76/90 10/15/90
f 42/91/60 45/77/60 46/76/60
f 42/91/91 43/17/91 44/19/91
f 67/92/61 70/94/61 33/61/61
f 66/93/62 69/95/62 70/94/62
f 65/6/62 68/3/62 69/95/62
f 55/28/92 67/92/92 32/30/92
f 54/88/64 66/93/64 67/92/64
f 53/4/64 65/6/64 66/93/64
f 70/94/61 73/79/61 34/60/61
f 69/95/62 72/78/62 73/79/62
f 68/3/62 71/2/62 72/78/62
