# Blender 5.1.1
# www.blender.org
mtllib poof.mtl
o poof
v -0.246390 0.600963 0.320410
v 0.162794 0.600963 0.320410
v -0.164853 -0.000000 0.500000
v -0.500000 -0.000000 0.164853
v -0.500000 -0.000000 -0.361300
v -0.164853 -0.000000 -0.696447
v 0.500000 -0.000000 0.164853
v 0.164853 -0.000000 0.500000
v 0.164853 -0.000000 -0.696447
v 0.500000 -0.000000 -0.361300
v -0.500000 0.327898 0.164853
v -0.164853 0.263758 0.500000
v -0.306503 0.457255 0.306503
v -0.500000 0.327898 -0.361300
v 0.164853 0.263758 0.500000
v 0.306503 0.457255 0.306503
v -0.088456 0.374231 -0.109872
v -0.246390 0.600963 0.068316
v 0.146558 0.406058 -0.109872
v 0.162794 0.600963 0.068316
v -0.330865 0.263758 -0.530434
v -0.014516 0.306010 -0.568466
v -0.164853 0.201190 -0.696447
v -0.121037 0.289762 -0.213607
v -0.403147 0.424751 -0.333872
v 0.091937 0.292029 -0.568466
v 0.330865 0.263758 -0.530434
v 0.164853 0.157609 -0.696447
v 0.231856 0.394121 -0.213607
v 0.403147 0.526953 -0.084503
v 0.500000 0.158849 0.164853
v 0.323553 0.439745 0.219157
v 0.425819 0.263758 0.239034
v 0.493686 0.439745 -0.109170
v 0.500000 0.158849 -0.361300
v 0.425819 0.263758 -0.435481
v 0.173080 0.351236 -0.362672
v 0.037450 0.275801 -0.293931
v 0.034263 0.430035 -0.051902
vn -0.6681 0.2214 0.7104
vn -0.7071 -0.0000 0.7071
vn -1.0000 -0.0000 -0.0000
vn -0.0000 -1.0000 -0.0000
vn -0.0000 -0.0000 1.0000
vn 0.1496 0.4927 0.8572
vn -0.1732 0.8519 -0.4943
vn 0.1909 0.7292 -0.6571
vn 0.2008 0.4581 -0.8659
vn 0.5302 0.7410 -0.4120
vn -0.0539 0.8637 -0.5011
vn 0.4734 0.7240 -0.5017
vn -0.2437 0.6654 -0.7056
vn -0.8199 0.5577 0.1295
vn -0.0000 1.0000 -0.0000
vn -0.2210 0.7891 -0.5731
vn -0.4282 0.6156 -0.6616
vn -0.7071 -0.0000 -0.7071
vn 0.2699 0.4422 -0.8553
vn 0.8507 0.5091 0.1307
vn 0.8618 0.3494 -0.3677
vn 0.9997 0.0225 -0.0000
vn 0.7071 -0.0000 0.7071
vn 0.6947 0.1862 0.6947
vn 1.0000 -0.0000 -0.0000
vn 0.7640 0.5388 0.3550
vn 0.7071 -0.0000 -0.7071
vn 0.5348 0.6923 -0.4846
vn 0.1298 0.9880 0.0842
vn -0.0391 0.9643 -0.2620
vn -0.0000 -0.0963 0.9953
vn -0.6741 0.2136 0.7071
vn -0.0000 0.7071 0.7071
vn -0.0000 0.6179 -0.7862
vn -0.2239 0.6677 -0.7099
vn -0.1317 0.9913 0.0059
vn 0.1627 0.9293 -0.3315
vn -0.6221 0.7827 0.0201
vn 0.5372 0.5635 -0.6276
vn -0.3598 0.8461 -0.3932
vn -0.9225 0.3859 -0.0000
vn -0.7011 0.7120 -0.0387
vn -0.5558 0.8313 -0.0000
vn -0.1277 0.8357 -0.5342
vn -0.0000 -0.0000 -1.0000
vn 0.0937 0.7135 -0.6944
vn -0.8689 -0.0000 -0.4950
vn 0.8039 0.4245 0.4166
vn 0.8595 0.5069 0.0662
vn 0.2943 0.9557 -0.0000
vn 0.7069 0.7073 -0.0038
vn 0.6961 0.6207 0.3607
vn 0.4990 0.7085 -0.4990
vn 0.1297 0.9880 0.0842
vn -0.5044 0.8621 -0.0491
vn -0.5961 0.6735 -0.4371
vn 0.2573 0.9610 0.1010
vt -0.419099 0.549548
vt 0.141138 0.442330
vt -0.095646 0.765784
vt -0.419099 0.001429
vt 0.058459 0.549548
vt 0.937984 0.001429
vt 0.058459 0.001429
vt 1.252517 0.937984
vt 0.692280 -0.501778
vt -0.419099 0.058459
vt 0.692280 0.442330
vt 0.141138 0.001429
vt 0.692280 0.001429
vt 0.004839 1.006009
vt 0.929064 0.765784
vt -0.136371 1.220712
vt 0.392444 1.284287
vt 0.141138 1.498222
vt 0.570392 1.284287
vt 0.969789 1.220712
vt 0.692280 1.498222
vt 0.688838 1.006009
vt 0.473983 0.696109
vt 0.268844 0.626999
vt 0.303491 0.691098
vt -0.257198 0.892135
vt 0.706033 0.940278
vt 1.090616 0.475287
vt 0.268844 0.517693
vt 0.004839 0.219831
vt 0.661698 0.517693
vt 0.688838 0.219831
vt 0.219831 1.006009
vt 0.937984 0.549548
vt -0.178325 0.765784
vt 0.688838 -0.201573
vt 0.520403 0.825370
vt -0.136371 0.442330
vt -0.257198 0.711450
vt 1.220712 0.442330
vt 1.498222 0.001429
vt 0.141138 0.337742
vt 0.570392 0.489590
vt 0.058459 0.266964
vt -0.032317 0.736513
vt -0.065544 0.442330
vt 0.516519 0.736513
vt 0.937984 0.266964
vt 1.061987 0.442330
vt -0.501778 0.442330
vt -0.501778 0.001429
vt 0.957566 -0.032317
vt 1.128514 1.061987
vt 1.241962 0.516519
vt 0.473983 0.517693
vt 0.804284 0.691098
vt -0.419099 0.937984
vt 1.252517 0.058459
vt 0.141138 -0.501778
vt 0.661698 0.759349
vt -0.201573 1.006009
vt 0.892135 0.711450
vt 0.004839 -0.201573
vt 1.498222 0.337742
vt 0.392444 0.512960
vt 0.692280 0.264891
vt 0.929064 -0.178325
vt 1.498222 0.264891
s 0
usemtl fabric_cream
f 11/1/1 12/2/1 13/3/1
f 4/4/2 12/2/2 11/1/2
f 11/5/3 5/6/3 4/7/3
f 10/8/4 8/9/4 4/10/4
f 15/11/5 3/12/5 8/13/5
f 1/14/6 12/2/6 16/15/6
f 21/16/7 22/17/7 23/18/7
f 26/19/8 27/20/8 28/21/8
f 20/22/9 39/23/9 17/24/9
f 24/25/10 21/16/10 25/26/10
f 37/27/11 30/28/11 27/20/11
f 17/29/12 25/26/12 18/30/12
f 30/28/13 19/31/13 20/32/13
f 18/33/14 14/34/14 13/35/14
f 18/30/15 2/36/15 20/32/15
f 17/29/16 38/37/16 24/25/16
f 21/38/17 14/1/17 25/39/17
f 21/40/18 6/41/18 14/34/18
f 23/42/19 26/43/19 9/13/19
f 31/44/20 32/45/20 33/46/20
f 34/47/21 35/48/21 36/49/21
f 34/47/22 31/44/22 35/48/22
f 31/44/23 15/50/23 8/51/23
f 33/46/24 16/35/24 15/50/24
f 35/48/25 7/7/25 10/6/25
f 2/36/26 32/52/26 30/28/26
f 35/48/27 9/41/27 27/40/27
f 36/53/28 30/28/28 34/54/28
f 38/37/29 26/19/29 22/17/29
f 39/55/30 29/56/30 37/27/30
f 4/4/2 3/12/2 12/2/2
f 11/5/3 14/34/3 5/6/3
f 4/10/4 5/57/4 6/18/4
f 6/18/4 9/21/4 10/8/4
f 10/8/4 7/58/4 8/9/4
f 8/9/4 3/59/4 4/10/4
f 4/10/4 6/18/4 10/8/4
f 15/11/5 12/2/5 3/12/5
f 16/15/31 2/22/31 1/14/31
f 1/14/32 13/3/32 12/2/32
f 12/2/33 15/11/33 16/15/33
f 17/24/34 18/14/34 20/22/34
f 20/22/35 19/60/35 39/23/35
f 24/25/36 22/17/36 21/16/36
f 27/20/37 26/19/37 37/27/37
f 37/27/38 29/56/38 30/28/38
f 17/29/39 24/25/39 25/26/39
f 30/28/40 29/56/40 19/31/40
f 13/35/41 1/61/41 18/33/41
f 18/33/42 25/62/42 14/34/42
f 14/34/43 11/5/43 13/35/43
f 18/30/15 1/63/15 2/36/15
f 17/29/44 39/55/44 38/37/44
f 21/40/18 23/64/18 6/41/18
f 6/41/18 5/6/18 14/34/18
f 9/13/45 6/12/45 23/42/45
f 23/42/46 22/65/46 26/43/46
f 26/43/47 28/66/47 9/13/47
f 34/47/48 32/45/48 31/44/48
f 8/51/23 7/7/23 31/44/23
f 31/44/23 33/46/23 15/50/23
f 33/46/49 32/45/49 16/35/49
f 35/48/25 31/44/25 7/7/25
f 30/28/50 20/32/50 2/36/50
f 2/36/51 16/67/51 32/52/51
f 32/52/52 34/54/52 30/28/52
f 27/40/27 36/49/27 35/48/27
f 35/48/27 10/6/27 9/41/27
f 9/41/27 28/68/27 27/40/27
f 36/53/53 27/20/53 30/28/53
f 22/17/54 24/25/54 38/37/54
f 38/37/55 37/27/55 26/19/55
f 37/27/56 38/37/56 39/55/56
f 39/55/57 19/31/57 29/56/57
