# Blender 5.1.2
# www.blender.org
mtllib server_switch.mtl
o server_switch
v -0.350000 0.000000 0.240000
v 0.400000 0.000000 0.240000
v -0.350000 0.000000 -0.240000
v 0.400000 0.000000 -0.240000
v -0.350000 0.044500 -0.240000
v -0.350000 0.044500 0.240000
v 0.400000 0.044500 0.240000
v 0.400000 0.044500 -0.240000
v 0.411659 0.000000 0.240000
v 0.411659 0.000000 -0.240000
v 0.411659 0.044500 0.240000
v 0.411659 0.044500 -0.240000
v 0.400000 0.044500 -0.250000
v 0.400000 0.000000 -0.250000
v 0.400000 0.000000 0.250000
v 0.400000 0.044500 0.250000
v 0.411659 0.044500 -0.250000
v 0.411659 0.000000 -0.250000
v 0.411659 0.000000 0.250000
v 0.411659 0.044500 0.250000
vn -0.0000 -1.0000 -0.0000
vn -0.0000 1.0000 -0.0000
vn -1.0000 -0.0000 -0.0000
vn -0.0000 -0.0000 -1.0000
vn -0.0000 -0.0000 1.0000
vn 1.0000 -0.0000 -0.0000
vt 0.000000 1.000000
vt 1.000000 0.000000
vt 0.000000 0.000000
vt 0.044656 0.253453
vt 0.904193 0.346161
vt 0.904193 0.253453
vt 1.000000 1.000000
vt 0.874709 0.248785
vt 0.059633 0.337785
vt 0.059633 0.248785
vt 0.891689 0.337785
vt 0.874709 0.337785
vt 0.042652 0.248785
vt 0.044656 0.346161
vt 0.891689 0.248785
vt 0.042652 0.337785
s 0
usemtl no_texture
f 3/1/1 2/2/1 1/3/1
f 7/2/2 5/1/2 6/3/2
f 3/1/4 8/7/4 4/7/4
f 2/2/5 6/3/5 1/3/5
f 9/2/1 15/2/1 2/2/1
f 12/7/2 13/7/2 8/7/2
f 7/2/2 12/7/2 8/7/2
f 4/7/1 9/2/1 2/2/1
f 15/2/5 20/2/5 16/2/5
f 13/7/4 18/7/4 14/7/4
f 8/7/3 14/7/3 4/7/3
f 4/7/1 18/7/1 10/7/1
f 7/2/2 20/2/2 11/2/2
f 2/2/3 16/2/3 7/2/3
f 3/1/1 4/7/1 2/2/1
f 7/2/2 8/7/2 5/1/2
f 3/1/4 5/1/4 8/7/4
f 2/2/5 7/2/5 6/3/5
f 9/2/1 19/2/1 15/2/1
f 12/7/2 17/7/2 13/7/2
f 7/2/2 11/2/2 12/7/2
f 4/7/1 10/7/1 9/2/1
f 15/2/5 19/2/5 20/2/5
f 13/7/4 17/7/4 18/7/4
f 8/7/3 13/7/3 14/7/3
f 4/7/1 14/7/1 18/7/1
f 7/2/2 16/2/2 20/2/2
f 2/2/3 15/2/3 16/2/3
usemtl servers
f 1/4/3 5/5/3 3/6/3
f 10/8/6 11/9/6 9/10/6
f 10/8/6 17/11/6 12/12/6
f 11/9/6 19/13/6 9/10/6
f 1/4/3 6/14/3 5/5/3
f 10/8/6 12/12/6 11/9/6
f 10/8/6 18/15/6 17/11/6
f 11/9/6 20/16/6 19/13/6
