# Blender 5.1.2
# www.blender.org
mtllib server_rack.mtl
o server_rack
v -0.300000 0.000000 0.250000
v -0.300000 1.800000 0.250000
v -0.300000 0.000000 -0.250000
v -0.300000 1.800000 -0.250000
v 0.388386 0.050000 0.074605
v 0.500000 1.754340 0.230000
v 0.388386 0.050000 -0.158523
v 0.500000 1.754340 -0.230000
v 0.500000 1.800000 -0.250000
v 0.500000 0.000000 -0.250000
v 0.500000 0.000000 0.250000
v 0.500000 1.800000 0.250000
v -0.300000 1.754340 -0.230000
v -0.042492 0.050000 -0.158523
v -0.042492 0.050000 0.074605
v -0.300000 1.754340 0.230000
v 0.498939 0.432937 -0.240000
v -0.251061 0.521959 -0.240000
v -0.251061 0.521959 0.240000
v 0.498939 0.521959 0.240000
v 0.498939 0.521959 -0.240000
v 0.510597 0.521959 0.232071
v 0.510597 0.521959 -0.232071
v 0.498939 0.521959 -0.250000
v 0.498939 0.432937 -0.250000
v 0.498939 0.521959 0.250000
v 0.510597 0.521959 -0.250000
v 0.510597 0.432937 -0.250000
v 0.510597 0.521959 0.250000
v 0.519986 0.521959 -0.232071
v 0.519986 0.432937 -0.232071
v 0.519986 0.521959 0.232071
v 0.519986 0.521959 -0.250000
v 0.519986 0.432937 0.250000
v 0.519986 0.521959 0.250000
v -0.248164 0.576872 0.240000
v 0.501836 0.576872 0.240000
v -0.248164 0.576872 -0.240000
v 0.501836 0.576872 -0.240000
v -0.248164 0.621372 -0.240000
v -0.248164 0.621372 0.240000
v 0.501836 0.621372 0.240000
v 0.501836 0.621372 -0.240000
v 0.513495 0.576872 0.240000
v 0.513495 0.576872 -0.240000
v 0.513495 0.621372 0.240000
v 0.513495 0.621372 -0.240000
v 0.501836 0.621372 -0.250000
v 0.501836 0.576872 -0.250000
v 0.501836 0.576872 0.250000
v 0.501836 0.621372 0.250000
v 0.513495 0.621372 -0.250000
v 0.513495 0.576872 -0.250000
v 0.513495 0.576872 0.250000
v 0.513495 0.621372 0.250000
v -0.251061 0.343914 0.240000
v 0.498939 0.343914 0.240000
v -0.251061 0.343914 -0.240000
v 0.498939 0.343914 -0.240000
v -0.251061 0.432937 -0.240000
v -0.251061 0.432937 0.240000
v 0.498939 0.432937 0.240000
v 0.510597 0.343914 0.232071
v 0.510597 0.343914 -0.232071
v 0.510597 0.432937 0.232071
v 0.510597 0.432937 -0.232071
v 0.498939 0.343914 -0.250000
v 0.498939 0.343914 0.250000
v 0.498939 0.432937 0.250000
v 0.510597 0.343914 -0.250000
v 0.510597 0.343914 0.250000
v 0.510597 0.432937 0.250000
v 0.519986 0.343914 -0.232071
v 0.519986 0.343914 0.232071
v 0.519986 0.432937 0.232071
v 0.519986 0.432937 -0.250000
v 0.519986 0.343914 -0.250000
v 0.519986 0.343914 0.250000
v -0.248164 1.007069 0.240000
v 0.501836 1.007069 0.240000
v -0.248164 1.007069 -0.240000
v 0.501836 1.007069 -0.240000
v -0.248164 1.051569 -0.240000
v -0.248164 1.051569 0.240000
v 0.501836 1.051569 0.240000
v 0.501836 1.051569 -0.240000
v 0.513495 1.007069 0.240000
v 0.513495 1.007069 -0.240000
v 0.513495 1.051569 0.240000
v 0.513495 1.051569 -0.240000
v 0.501836 1.051569 -0.250000
v 0.501836 1.007069 -0.250000
v 0.501836 1.007069 0.250000
v 0.501836 1.051569 0.250000
v 0.513495 1.051569 -0.250000
v 0.513495 1.007069 -0.250000
v 0.513495 1.007069 0.250000
v 0.513495 1.051569 0.250000
v -0.248164 1.051397 0.240000
v 0.501836 1.051397 0.240000
v -0.248164 1.051397 -0.240000
v 0.501836 1.051397 -0.240000
v -0.248164 1.095897 -0.240000
v -0.248164 1.095897 0.240000
v 0.501836 1.095897 0.240000
v 0.501836 1.095897 -0.240000
v 0.513495 1.051397 0.240000
v 0.513495 1.051397 -0.240000
v 0.513495 1.095897 0.240000
v 0.513495 1.095897 -0.240000
v 0.501836 1.095897 -0.250000
v 0.501836 1.051397 -0.250000
v 0.501836 1.051397 0.250000
v 0.501836 1.095897 0.250000
v 0.513495 1.095897 -0.250000
v 0.513495 1.051397 -0.250000
v 0.513495 1.051397 0.250000
v 0.513495 1.095897 0.250000
v -0.251061 1.095718 0.240000
v 0.498939 1.095718 0.240000
v -0.251061 1.095718 -0.240000
v 0.498939 1.095718 -0.240000
v 0.510597 1.095718 0.232071
v 0.510597 1.095718 -0.232071
v 0.498939 1.095718 -0.250000
v 0.498939 1.095718 0.250000
v 0.510597 1.095718 -0.250000
v 0.510597 1.095718 0.250000
v 0.519986 1.095718 -0.232071
v 0.519986 1.095718 0.232071
v 0.519986 1.184712 0.232071
v 0.519986 1.184712 -0.250000
v 0.519986 1.095718 -0.250000
v 0.519986 1.095718 0.250000
v -0.251061 1.184712 0.240000
v 0.498939 1.184712 0.240000
v -0.251061 1.184712 -0.240000
v 0.498939 1.184712 -0.240000
v -0.251061 1.273706 -0.240000
v -0.251061 1.273706 0.240000
v 0.498939 1.273706 0.240000
v 0.498939 1.273706 -0.240000
v 0.510597 1.184712 0.232071
v 0.510597 1.184712 -0.232071
v 0.510597 1.273706 0.232071
v 0.510597 1.273706 -0.232071
v 0.498939 1.273706 -0.250000
v 0.498939 1.184712 -0.250000
v 0.498939 1.184712 0.250000
v 0.498939 1.273706 0.250000
v 0.510597 1.273706 -0.250000
v 0.510597 1.184712 -0.250000
v 0.510597 1.184712 0.250000
v 0.510597 1.273706 0.250000
v 0.519986 1.273706 -0.232071
v 0.519986 1.184712 -0.232071
v 0.519986 1.273706 0.232071
v 0.519986 1.273706 -0.250000
v 0.519986 1.184712 0.250000
v 0.519986 1.273706 0.250000
v -0.249302 0.715801 0.240000
v 0.500698 0.715801 0.240000
v -0.249302 0.715801 -0.240000
v 0.500698 0.715801 -0.240000
v -0.249302 0.760301 -0.240000
v -0.249302 0.760301 0.240000
v 0.500698 0.760301 0.240000
v 0.500698 0.760301 -0.240000
v 0.512358 0.715801 0.240000
v 0.512358 0.715801 -0.240000
v 0.512358 0.760301 0.240000
v 0.512358 0.760301 -0.240000
v 0.500698 0.760301 -0.250000
v 0.500698 0.715801 -0.250000
v 0.500698 0.715801 0.250000
v 0.500698 0.760301 0.250000
v 0.512358 0.760301 -0.250000
v 0.512358 0.715801 -0.250000
v 0.512358 0.715801 0.250000
v 0.512358 0.760301 0.250000
v 0.500000 0.050000 0.230000
v 0.500000 0.050000 -0.230000
v -0.300000 0.050000 0.230000
v -0.300000 0.050000 -0.230000
v 0.388386 0.250589 0.074605
v 0.388386 0.250589 -0.158523
v -0.042492 0.250589 0.074605
v -0.042492 0.250589 -0.158523
v -0.249302 1.327722 0.240000
v 0.500698 1.327722 0.240000
v -0.249302 1.327722 -0.240000
v 0.500698 1.327722 -0.240000
v -0.249302 1.372222 -0.240000
v -0.249302 1.372222 0.240000
v 0.500698 1.372222 0.240000
v 0.500698 1.372222 -0.240000
v 0.512358 1.327722 0.240000
v 0.512358 1.327722 -0.240000
v 0.512358 1.372222 0.240000
v 0.512358 1.372222 -0.240000
v 0.500698 1.372222 -0.250000
v 0.500698 1.327722 -0.250000
v 0.500698 1.327722 0.250000
v 0.500698 1.372222 0.250000
v 0.512358 1.372222 -0.250000
v 0.512358 1.327722 -0.250000
v 0.512358 1.327722 0.250000
v 0.512358 1.372222 0.250000
v -0.248996 1.372374 0.240000
v 0.501004 1.372374 0.240000
v -0.248996 1.372374 -0.240000
v 0.501004 1.372374 -0.240000
v -0.248996 1.416874 -0.240000
v -0.248996 1.416874 0.240000
v 0.501004 1.416874 0.240000
v 0.501004 1.416874 -0.240000
v 0.512662 1.372374 0.240000
v 0.512662 1.372374 -0.240000
v 0.512662 1.416874 0.240000
v 0.512662 1.416874 -0.240000
v 0.501004 1.416874 -0.250000
v 0.501004 1.372374 -0.250000
v 0.501004 1.372374 0.250000
v 0.501004 1.416874 0.250000
v 0.512662 1.416874 -0.250000
v 0.512662 1.372374 -0.250000
v 0.512662 1.372374 0.250000
v 0.512662 1.416874 0.250000
vn -1.0000 -0.0000 -0.0000
vn -0.0000 -0.0000 -1.0000
vn -0.0000 -0.0000 1.0000
vn -0.0000 -1.0000 -0.0000
vn -0.0000 1.0000 -0.0000
vn 1.0000 -0.0000 -0.0000
vt 0.125000 0.750000
vt 0.381342 0.522830
vt 0.125000 0.500000
vt 0.625000 0.250000
vt 0.375000 0.500000
vt 0.375000 0.250000
vt 0.381342 0.727170
vt 0.618658 0.727170
vt 0.625000 0.750000
vt 0.375000 1.000000
vt 0.375000 0.750000
vt 0.875000 0.500000
vt 0.625000 0.500000
vt 0.618658 0.522830
vt 0.381342 0.676780
vt 0.381342 0.676780
vt 0.000000 0.000000
vt 0.000000 1.000000
vt 1.000000 0.000000
vt 0.041349 0.369774
vt 0.928334 0.543411
vt 0.928334 0.369774
vt 1.000000 1.000000
vt 1.000000 0.008260
vt 0.898415 0.573147
vt 0.075403 0.727260
vt 0.075403 0.573147
vt 1.000000 0.991740
vt 1.000000 0.991740
vt 1.000000 0.008260
vt 0.930207 0.727260
vt 0.898415 0.727260
vt 0.043611 0.573147
vt 0.031924 0.771967
vt 0.954296 0.864675
vt 0.954296 0.771967
vt 0.945950 0.885336
vt 0.043112 0.974336
vt 0.043112 0.885336
vt 0.964759 0.974336
vt 0.945950 0.974336
vt 0.024303 0.885336
vt 0.044656 0.253453
vt 0.904193 0.346161
vt 0.904193 0.253453
vt 0.874709 0.248785
vt 0.059633 0.337785
vt 0.059633 0.248785
vt 0.891689 0.337785
vt 0.874709 0.337785
vt 0.042652 0.248785
vt 0.381342 0.573220
vt 0.381342 0.573220
vt 0.610793 0.581998
vt 0.364516 0.725640
vt 0.364516 0.581998
vt 0.625000 1.000000
vt 0.875000 0.750000
vt 0.041349 0.543411
vt 0.930207 0.573147
vt 0.043611 0.727260
vt 0.031924 0.864675
vt 0.964759 0.885336
vt 0.024303 0.974336
vt 0.044656 0.346161
vt 0.891689 0.248785
vt 0.042652 0.337785
vt 0.610793 0.725640
s 0
usemtl no_texture
f 1/1/1 184/2/1 3/3/1
f 4/4/2 10/5/2 3/6/2
f 181/7/2 16/8/2 6/8/2
f 12/9/3 1/10/3 11/11/3
f 10/5/4 1/1/4 3/3/4
f 4/12/5 12/9/5 9/13/5
f 182/2/6 9/13/6 8/14/6
f 181/7/6 10/5/6 182/2/6
f 8/14/6 12/9/6 6/8/6
f 181/7/6 12/9/6 11/11/6
f 5/15/3 187/16/3 15/16/3
f 6/8/4 13/14/4 8/14/4
f 8/14/3 184/2/3 182/2/3
f 183/17/1 2/17/1 16/17/1
f 4/17/1 184/17/1 13/17/1
f 2/17/1 13/17/1 16/17/1
f 60/18/4 62/19/4 61/17/4
f 20/19/5 18/18/5 19/17/5
f 60/18/2 21/23/2 17/23/2
f 62/19/3 19/17/3 61/17/3
f 20/19/5 29/19/5 32/24/5
f 17/23/4 28/23/4 31/28/4
f 20/19/5 23/29/5 21/23/5
f 17/23/4 65/30/4 62/19/4
f 65/30/4 34/19/4 72/19/4
f 72/19/3 35/19/3 29/19/3
f 21/23/1 25/23/1 17/23/1
f 23/29/5 33/23/5 27/23/5
f 62/19/1 26/19/1 20/19/1
f 27/23/2 76/23/2 28/23/2
f 38/18/4 37/19/4 36/17/4
f 42/19/5 40/18/5 41/17/5
f 38/18/2 43/23/2 39/23/2
f 37/19/3 41/17/3 36/17/3
f 44/19/4 50/19/4 37/19/4
f 47/23/5 48/23/5 43/23/5
f 42/19/5 47/23/5 43/23/5
f 39/23/4 44/19/4 37/19/4
f 50/19/3 55/19/3 51/19/3
f 48/23/2 53/23/2 49/23/2
f 43/23/1 49/23/1 39/23/1
f 39/23/4 53/23/4 45/23/4
f 42/19/5 55/19/5 46/19/5
f 37/19/1 51/19/1 42/19/1
f 58/18/4 57/19/4 56/17/4
f 58/18/2 17/23/2 59/23/2
f 57/19/3 61/17/3 56/17/3
f 59/23/4 70/23/4 73/28/4
f 59/23/4 63/30/4 57/19/4
f 63/30/4 78/19/4 71/19/4
f 71/19/3 34/19/3 72/19/3
f 17/23/1 67/23/1 59/23/1
f 57/19/1 69/19/1 62/19/1
f 28/23/2 77/23/2 70/23/2
f 81/18/4 80/19/4 79/17/4
f 85/19/5 83/18/5 84/17/5
f 81/18/2 86/23/2 82/23/2
f 80/19/3 84/17/3 79/17/3
f 87/19/4 93/19/4 80/19/4
f 90/23/5 91/23/5 86/23/5
f 85/19/5 90/23/5 86/23/5
f 82/23/4 87/19/4 80/19/4
f 93/19/3 98/19/3 94/19/3
f 91/23/2 96/23/2 92/23/2
f 86/23/1 92/23/1 82/23/1
f 82/23/4 96/23/4 88/23/4
f 85/19/5 98/19/5 89/19/5
f 80/19/1 94/19/1 85/19/1
f 101/18/4 100/19/4 99/17/4
f 105/19/5 103/18/5 104/17/5
f 101/18/2 106/23/2 102/23/2
f 100/19/3 104/17/3 99/17/3
f 107/19/4 113/19/4 100/19/4
f 110/23/5 111/23/5 106/23/5
f 105/19/5 110/23/5 106/23/5
f 102/23/4 107/19/4 100/19/4
f 113/19/3 118/19/3 114/19/3
f 111/23/2 116/23/2 112/23/2
f 106/23/1 112/23/1 102/23/1
f 102/23/4 116/23/4 108/23/4
f 105/19/5 118/19/5 109/19/5
f 100/19/1 114/19/1 105/19/1
f 121/18/4 120/19/4 119/17/4
f 121/18/2 138/23/2 122/23/2
f 120/19/3 135/17/3 119/17/3
f 136/19/5 153/19/5 131/24/5
f 122/23/4 127/23/4 129/28/4
f 122/23/4 123/30/4 120/19/4
f 123/30/4 134/19/4 128/19/4
f 128/19/3 159/19/3 153/19/3
f 138/23/1 125/23/1 122/23/1
f 144/29/5 132/23/5 152/23/5
f 120/19/1 149/19/1 136/19/1
f 152/23/2 133/23/2 127/23/2
f 137/18/4 136/19/4 135/17/4
f 141/19/5 139/18/5 140/17/5
f 137/18/2 142/23/2 138/23/2
f 136/19/3 140/17/3 135/17/3
f 141/19/5 154/19/5 157/24/5
f 141/19/5 146/29/5 142/23/5
f 138/23/4 143/30/4 136/19/4
f 153/19/3 160/19/3 154/19/3
f 142/23/1 148/23/1 138/23/1
f 146/29/5 158/23/5 151/23/5
f 136/19/1 150/19/1 141/19/1
f 151/23/2 132/23/2 152/23/2
f 163/18/4 162/19/4 161/17/4
f 167/19/5 165/18/5 166/17/5
f 163/18/2 168/23/2 164/23/2
f 162/19/3 166/17/3 161/17/3
f 169/19/4 175/19/4 162/19/4
f 172/23/5 173/23/5 168/23/5
f 167/19/5 172/23/5 168/23/5
f 164/23/4 169/19/4 162/19/4
f 175/19/3 180/19/3 176/19/3
f 173/23/2 178/23/2 174/23/2
f 168/23/1 174/23/1 164/23/1
f 164/23/4 178/23/4 170/23/4
f 167/19/5 180/19/5 171/19/5
f 162/19/1 176/19/1 167/19/1
f 5/15/5 182/2/5 7/52/5
f 15/16/5 184/2/5 183/7/5
f 15/16/5 181/7/5 5/15/5
f 14/53/5 182/2/5 184/2/5
f 186/52/5 187/16/5 185/15/5
f 14/53/2 186/52/2 7/52/2
f 15/16/1 188/53/1 14/53/1
f 191/18/4 190/19/4 189/17/4
f 195/19/5 193/18/5 194/17/5
f 191/18/2 196/23/2 192/23/2
f 190/19/3 194/17/3 189/17/3
f 197/19/4 203/19/4 190/19/4
f 200/23/5 201/23/5 196/23/5
f 195/19/5 200/23/5 196/23/5
f 192/23/4 197/19/4 190/19/4
f 203/19/3 208/19/3 204/19/3
f 201/23/2 206/23/2 202/23/2
f 196/23/1 202/23/1 192/23/1
f 192/23/4 206/23/4 198/23/4
f 195/19/5 208/19/5 199/19/5
f 190/19/1 204/19/1 195/19/1
f 211/18/4 210/19/4 209/17/4
f 215/19/5 213/18/5 214/17/5
f 211/18/2 216/23/2 212/23/2
f 210/19/3 214/17/3 209/17/3
f 217/19/4 223/19/4 210/19/4
f 220/23/5 221/23/5 216/23/5
f 215/19/5 220/23/5 216/23/5
f 212/23/4 217/19/4 210/19/4
f 223/19/3 228/19/3 224/19/3
f 221/23/2 226/23/2 222/23/2
f 216/23/1 222/23/1 212/23/1
f 212/23/4 226/23/4 218/23/4
f 215/19/5 228/19/5 219/19/5
f 210/19/1 224/19/1 215/19/1
f 1/1/1 183/7/1 184/2/1
f 4/4/2 9/13/2 10/5/2
f 181/7/2 183/7/2 16/8/2
f 12/9/3 2/57/3 1/10/3
f 10/5/4 11/11/4 1/1/4
f 4/12/5 2/58/5 12/9/5
f 182/2/6 10/5/6 9/13/6
f 181/7/6 11/11/6 10/5/6
f 8/14/6 9/13/6 12/9/6
f 181/7/6 6/8/6 12/9/6
f 5/15/3 185/15/3 187/16/3
f 6/8/4 16/8/4 13/14/4
f 8/14/3 13/14/3 184/2/3
f 183/17/1 1/17/1 2/17/1
f 4/17/1 3/17/1 184/17/1
f 2/17/1 4/17/1 13/17/1
f 60/18/4 17/23/4 62/19/4
f 20/19/5 21/23/5 18/18/5
f 60/18/2 18/18/2 21/23/2
f 62/19/3 20/19/3 19/17/3
f 32/24/5 22/24/5 20/19/5
f 20/19/5 26/19/5 29/19/5
f 29/19/5 35/19/5 32/24/5
f 31/28/4 66/28/4 17/23/4
f 17/23/4 25/23/4 28/23/4
f 28/23/4 76/23/4 31/28/4
f 20/19/5 22/24/5 23/29/5
f 17/23/4 66/28/4 65/30/4
f 69/19/4 62/19/4 65/30/4
f 65/30/4 75/30/4 34/19/4
f 72/19/4 69/19/4 65/30/4
f 29/19/3 26/19/3 69/19/3
f 72/19/3 34/19/3 35/19/3
f 29/19/3 69/19/3 72/19/3
f 21/23/1 24/23/1 25/23/1
f 24/23/5 21/23/5 23/29/5
f 23/29/5 30/29/5 33/23/5
f 27/23/5 24/23/5 23/29/5
f 62/19/1 69/19/1 26/19/1
f 28/23/2 25/23/2 24/23/2
f 27/23/2 33/23/2 76/23/2
f 28/23/2 24/23/2 27/23/2
f 38/18/4 39/23/4 37/19/4
f 42/19/5 43/23/5 40/18/5
f 38/18/2 40/18/2 43/23/2
f 37/19/3 42/19/3 41/17/3
f 44/19/4 54/19/4 50/19/4
f 47/23/5 52/23/5 48/23/5
f 42/19/5 46/19/5 47/23/5
f 39/23/4 45/23/4 44/19/4
f 50/19/3 54/19/3 55/19/3
f 48/23/2 52/23/2 53/23/2
f 43/23/1 48/23/1 49/23/1
f 39/23/4 49/23/4 53/23/4
f 42/19/5 51/19/5 55/19/5
f 37/19/1 50/19/1 51/19/1
f 58/18/4 59/23/4 57/19/4
f 58/18/2 60/18/2 17/23/2
f 57/19/3 62/19/3 61/17/3
f 73/28/4 64/28/4 59/23/4
f 59/23/4 67/23/4 70/23/4
f 70/23/4 77/23/4 73/28/4
f 59/23/4 64/28/4 63/30/4
f 68/19/4 57/19/4 63/30/4
f 63/30/4 74/30/4 78/19/4
f 71/19/4 68/19/4 63/30/4
f 72/19/3 69/19/3 68/19/3
f 71/19/3 78/19/3 34/19/3
f 72/19/3 68/19/3 71/19/3
f 17/23/1 25/23/1 67/23/1
f 57/19/1 68/19/1 69/19/1
f 70/23/2 67/23/2 25/23/2
f 28/23/2 76/23/2 77/23/2
f 70/23/2 25/23/2 28/23/2
f 81/18/4 82/23/4 80/19/4
f 85/19/5 86/23/5 83/18/5
f 81/18/2 83/18/2 86/23/2
f 80/19/3 85/19/3 84/17/3
f 87/19/4 97/19/4 93/19/4
f 90/23/5 95/23/5 91/23/5
f 85/19/5 89/19/5 90/23/5
f 82/23/4 88/23/4 87/19/4
f 93/19/3 97/19/3 98/19/3
f 91/23/2 95/23/2 96/23/2
f 86/23/1 91/23/1 92/23/1
f 82/23/4 92/23/4 96/23/4
f 85/19/5 94/19/5 98/19/5
f 80/19/1 93/19/1 94/19/1
f 101/18/4 102/23/4 100/19/4
f 105/19/5 106/23/5 103/18/5
f 101/18/2 103/18/2 106/23/2
f 100/19/3 105/19/3 104/17/3
f 107/19/4 117/19/4 113/19/4
f 110/23/5 115/23/5 111/23/5
f 105/19/5 109/19/5 110/23/5
f 102/23/4 108/23/4 107/19/4
f 113/19/3 117/19/3 118/19/3
f 111/23/2 115/23/2 116/23/2
f 106/23/1 111/23/1 112/23/1
f 102/23/4 112/23/4 116/23/4
f 105/19/5 114/19/5 118/19/5
f 100/19/1 113/19/1 114/19/1
f 121/18/4 122/23/4 120/19/4
f 121/18/2 137/18/2 138/23/2
f 120/19/3 136/19/3 135/17/3
f 131/24/5 143/24/5 136/19/5
f 136/19/5 149/19/5 153/19/5
f 153/19/5 159/19/5 131/24/5
f 129/28/4 124/28/4 122/23/4
f 122/23/4 125/23/4 127/23/4
f 127/23/4 133/23/4 129/28/4
f 122/23/4 124/28/4 123/30/4
f 126/19/4 120/19/4 123/30/4
f 123/30/4 130/30/4 134/19/4
f 128/19/4 126/19/4 123/30/4
f 153/19/3 149/19/3 126/19/3
f 128/19/3 134/19/3 159/19/3
f 153/19/3 126/19/3 128/19/3
f 138/23/1 148/23/1 125/23/1
f 148/23/5 138/23/5 144/29/5
f 144/29/5 156/29/5 132/23/5
f 152/23/5 148/23/5 144/29/5
f 120/19/1 126/19/1 149/19/1
f 127/23/2 125/23/2 148/23/2
f 152/23/2 132/23/2 133/23/2
f 127/23/2 148/23/2 152/23/2
f 137/18/4 138/23/4 136/19/4
f 141/19/5 142/23/5 139/18/5
f 137/18/2 139/18/2 142/23/2
f 136/19/3 141/19/3 140/17/3
f 157/24/5 145/24/5 141/19/5
f 141/19/5 150/19/5 154/19/5
f 154/19/5 160/19/5 157/24/5
f 141/19/5 145/24/5 146/29/5
f 138/23/4 144/28/4 143/30/4
f 154/19/3 150/19/3 149/19/3
f 153/19/3 159/19/3 160/19/3
f 154/19/3 149/19/3 153/19/3
f 142/23/1 147/23/1 148/23/1
f 147/23/5 142/23/5 146/29/5
f 146/29/5 155/29/5 158/23/5
f 151/23/5 147/23/5 146/29/5
f 136/19/1 149/19/1 150/19/1
f 152/23/2 148/23/2 147/23/2
f 151/23/2 158/23/2 132/23/2
f 152/23/2 147/23/2 151/23/2
f 163/18/4 164/23/4 162/19/4
f 167/19/5 168/23/5 165/18/5
f 163/18/2 165/18/2 168/23/2
f 162/19/3 167/19/3 166/17/3
f 169/19/4 179/19/4 175/19/4
f 172/23/5 177/23/5 173/23/5
f 167/19/5 171/19/5 172/23/5
f 164/23/4 170/23/4 169/19/4
f 175/19/3 179/19/3 180/19/3
f 173/23/2 177/23/2 178/23/2
f 168/23/1 173/23/1 174/23/1
f 164/23/4 174/23/4 178/23/4
f 167/19/5 176/19/5 180/19/5
f 162/19/1 175/19/1 176/19/1
f 5/15/5 181/7/5 182/2/5
f 15/16/5 14/53/5 184/2/5
f 15/16/5 183/7/5 181/7/5
f 14/53/5 7/52/5 182/2/5
f 186/52/5 188/53/5 187/16/5
f 14/53/2 188/53/2 186/52/2
f 15/16/1 187/16/1 188/53/1
f 191/18/4 192/23/4 190/19/4
f 195/19/5 196/23/5 193/18/5
f 191/18/2 193/18/2 196/23/2
f 190/19/3 195/19/3 194/17/3
f 197/19/4 207/19/4 203/19/4
f 200/23/5 205/23/5 201/23/5
f 195/19/5 199/19/5 200/23/5
f 192/23/4 198/23/4 197/19/4
f 203/19/3 207/19/3 208/19/3
f 201/23/2 205/23/2 206/23/2
f 196/23/1 201/23/1 202/23/1
f 192/23/4 202/23/4 206/23/4
f 195/19/5 204/19/5 208/19/5
f 190/19/1 203/19/1 204/19/1
f 211/18/4 212/23/4 210/19/4
f 215/19/5 216/23/5 213/18/5
f 211/18/2 213/18/2 216/23/2
f 210/19/3 215/19/3 214/17/3
f 217/19/4 227/19/4 223/19/4
f 220/23/5 225/23/5 221/23/5
f 215/19/5 219/19/5 220/23/5
f 212/23/4 218/23/4 217/19/4
f 223/19/3 227/19/3 228/19/3
f 221/23/2 225/23/2 226/23/2
f 216/23/1 221/23/1 222/23/1
f 212/23/4 222/23/4 226/23/4
f 215/19/5 224/19/5 228/19/5
f 210/19/1 223/19/1 224/19/1
usemtl servers
f 61/20/1 18/21/1 60/22/1
f 66/25/6 22/26/6 65/27/6
f 31/25/6 33/31/6 30/32/6
f 32/26/6 34/33/6 75/27/6
f 22/26/2 75/27/2 65/27/2
f 66/25/3 30/32/3 23/32/3
f 36/34/1 40/35/1 38/36/1
f 45/37/6 46/38/6 44/39/6
f 45/37/6 52/40/6 47/41/6
f 46/38/6 54/42/6 44/39/6
f 56/20/1 60/21/1 58/22/1
f 64/25/6 65/26/6 63/27/6
f 73/25/6 76/31/6 31/32/6
f 75/26/6 78/33/6 74/27/6
f 65/26/2 74/27/2 63/27/2
f 64/25/3 31/32/3 66/32/3
f 79/34/1 83/35/1 81/36/1
f 88/37/6 89/38/6 87/39/6
f 88/37/6 95/40/6 90/41/6
f 89/38/6 97/42/6 87/39/6
f 99/34/1 103/35/1 101/36/1
f 108/37/6 109/38/6 107/39/6
f 108/37/6 115/40/6 110/41/6
f 109/38/6 117/42/6 107/39/6
f 119/20/1 137/21/1 121/22/1
f 124/25/6 143/26/6 123/27/6
f 129/25/6 132/31/6 156/32/6
f 131/26/6 134/33/6 130/27/6
f 143/26/2 130/27/2 123/27/2
f 124/25/3 156/32/3 144/32/3
f 135/20/1 139/21/1 137/22/1
f 144/25/6 145/26/6 143/27/6
f 156/25/6 158/31/6 155/32/6
f 157/26/6 159/33/6 131/27/6
f 145/26/2 131/27/2 143/27/2
f 144/25/3 155/32/3 146/32/3
f 161/43/1 165/44/1 163/45/1
f 170/46/6 171/47/6 169/48/6
f 170/46/6 177/49/6 172/50/6
f 171/47/6 179/51/6 169/48/6
f 7/54/6 185/55/6 5/56/6
f 189/43/1 193/44/1 191/45/1
f 198/46/6 199/47/6 197/48/6
f 198/46/6 205/49/6 200/50/6
f 199/47/6 207/51/6 197/48/6
f 209/34/1 213/35/1 211/36/1
f 218/37/6 219/38/6 217/39/6
f 218/37/6 225/40/6 220/41/6
f 219/38/6 227/42/6 217/39/6
f 61/20/1 19/59/1 18/21/1
f 66/25/6 23/32/6 22/26/6
f 31/25/6 76/60/6 33/31/6
f 32/26/6 35/61/6 34/33/6
f 22/26/2 32/26/2 75/27/2
f 66/25/3 31/25/3 30/32/3
f 36/34/1 41/62/1 40/35/1
f 45/37/6 47/41/6 46/38/6
f 45/37/6 53/63/6 52/40/6
f 46/38/6 55/64/6 54/42/6
f 56/20/1 61/59/1 60/21/1
f 64/25/6 66/32/6 65/26/6
f 73/25/6 77/60/6 76/31/6
f 75/26/6 34/61/6 78/33/6
f 65/26/2 75/26/2 74/27/2
f 64/25/3 73/25/3 31/32/3
f 79/34/1 84/62/1 83/35/1
f 88/37/6 90/41/6 89/38/6
f 88/37/6 96/63/6 95/40/6
f 89/38/6 98/64/6 97/42/6
f 99/34/1 104/62/1 103/35/1
f 108/37/6 110/41/6 109/38/6
f 108/37/6 116/63/6 115/40/6
f 109/38/6 118/64/6 117/42/6
f 119/20/1 135/59/1 137/21/1
f 124/25/6 144/32/6 143/26/6
f 129/25/6 133/60/6 132/31/6
f 131/26/6 159/61/6 134/33/6
f 143/26/2 131/26/2 130/27/2
f 124/25/3 129/25/3 156/32/3
f 135/20/1 140/59/1 139/21/1
f 144/25/6 146/32/6 145/26/6
f 156/25/6 132/60/6 158/31/6
f 157/26/6 160/61/6 159/33/6
f 145/26/2 157/26/2 131/27/2
f 144/25/3 156/25/3 155/32/3
f 161/43/1 166/65/1 165/44/1
f 170/46/6 172/50/6 171/47/6
f 170/46/6 178/66/6 177/49/6
f 171/47/6 180/67/6 179/51/6
f 7/54/6 186/68/6 185/55/6
f 189/43/1 194/65/1 193/44/1
f 198/46/6 200/50/6 199/47/6
f 198/46/6 206/66/6 205/49/6
f 199/47/6 208/67/6 207/51/6
f 209/34/1 214/62/1 213/35/1
f 218/37/6 220/41/6 219/38/6
f 218/37/6 226/63/6 225/40/6
f 219/38/6 228/64/6 227/42/6
