# Blender 5.1.2
# www.blender.org
mtllib server_2U.mtl
o server_2U
v -0.350000 0.000000 0.240000
v 0.400000 0.000000 0.240000
v -0.350000 0.000000 -0.240000
v 0.400000 0.000000 -0.240000
v -0.350000 0.089000 -0.240000
v -0.350000 0.089000 0.240000
v 0.400000 0.089000 0.240000
v 0.400000 0.089000 -0.240000
v 0.411659 0.000000 0.232071
v 0.411659 0.000000 -0.232071
v 0.411659 0.089000 0.232071
v 0.411659 0.089000 -0.232071
v 0.400000 0.089000 -0.250000
v 0.400000 0.000000 -0.250000
v 0.400000 0.000000 0.250000
v 0.400000 0.089000 0.250000
v 0.411659 0.089000 -0.250000
v 0.411659 0.000000 -0.250000
v 0.411659 0.000000 0.250000
v 0.411659 0.089000 0.250000
v 0.421048 0.089000 -0.232071
v 0.421048 0.000000 -0.232071
v 0.421048 0.000000 0.232071
v 0.421048 0.089000 0.232071
v 0.421048 0.089000 -0.250000
v 0.421048 0.000000 -0.250000
v 0.421048 0.000000 0.250000
v 0.421048 0.089000 0.250000
vn -0.0000 -1.0000 -0.0000
vn -0.0000 1.0000 -0.0000
vn -1.0000 -0.0000 -0.0000
vn -0.0000 -0.0000 -1.0000
vn -0.0000 -0.0000 1.0000
vn 1.0000 -0.0000 -0.0000
vt 0.000000 1.000000
vt 1.000000 0.000000
vt 0.000000 0.000000
vt 0.041349 0.369774
vt 0.928334 0.543411
vt 0.928334 0.369774
vt 1.000000 1.000000
vt 1.000000 0.008260
vt 0.898415 0.573147
vt 0.075403 0.727260
vt 0.075403 0.573147
vt 1.000000 0.991740
vt 1.000000 0.991740
vt 1.000000 0.008260
vt 0.930207 0.727260
vt 0.898415 0.727260
vt 0.043611 0.573147
vt 0.041349 0.543411
vt 0.930207 0.573147
vt 0.043611 0.727260
s 0
usemtl no_texture
f 3/1/1 2/2/1 1/3/1
f 7/2/2 5/1/2 6/3/2
f 3/1/4 8/7/4 4/7/4
f 2/2/5 6/3/5 1/3/5
f 7/2/2 20/2/2 24/8/2
f 4/7/1 18/7/1 22/12/1
f 7/2/2 12/13/2 8/7/2
f 4/7/1 9/14/1 2/2/1
f 9/14/1 27/2/1 19/2/1
f 19/2/5 28/2/5 20/2/5
f 8/7/3 14/7/3 4/7/3
f 12/13/2 25/7/2 17/7/2
f 2/2/3 16/2/3 7/2/3
f 17/7/4 26/7/4 18/7/4
f 3/1/1 4/7/1 2/2/1
f 7/2/2 8/7/2 5/1/2
f 3/1/4 5/1/4 8/7/4
f 2/2/5 7/2/5 6/3/5
f 24/8/2 11/8/2 7/2/2
f 7/2/2 16/2/2 20/2/2
f 20/2/2 28/2/2 24/8/2
f 22/12/1 10/12/1 4/7/1
f 4/7/1 14/7/1 18/7/1
f 18/7/1 26/7/1 22/12/1
f 7/2/2 11/8/2 12/13/2
f 4/7/1 10/12/1 9/14/1
f 15/2/1 2/2/1 9/14/1
f 9/14/1 23/14/1 27/2/1
f 19/2/1 15/2/1 9/14/1
f 20/2/5 16/2/5 15/2/5
f 19/2/5 27/2/5 28/2/5
f 20/2/5 15/2/5 19/2/5
f 8/7/3 13/7/3 14/7/3
f 13/7/2 8/7/2 12/13/2
f 12/13/2 21/13/2 25/7/2
f 17/7/2 13/7/2 12/13/2
f 2/2/3 15/2/3 16/2/3
f 18/7/4 14/7/4 13/7/4
f 17/7/4 25/7/4 26/7/4
f 18/7/4 13/7/4 17/7/4
usemtl servers
f 1/4/3 5/5/3 3/6/3
f 10/9/6 11/10/6 9/11/6
f 22/9/6 25/15/6 21/16/6
f 24/10/6 27/17/6 23/11/6
f 11/10/4 23/11/4 9/11/4
f 10/9/5 21/16/5 12/16/5
f 1/4/3 6/18/3 5/5/3
f 10/9/6 12/16/6 11/10/6
f 22/9/6 26/19/6 25/15/6
f 24/10/6 28/20/6 27/17/6
f 11/10/4 24/10/4 23/11/4
f 10/9/5 22/9/5 21/16/5
