# Blender 5.1.2
# www.blender.org
mtllib sofa.mtl
o sofa
v -0.250000 0.400000 1.000000
v -0.250000 0.400000 -1.000000
v 0.530902 0.100000 1.020468
v 0.500000 0.400000 1.000000
v 0.530902 0.100000 -1.020468
v 0.500000 0.400000 -1.000000
v -0.262361 0.100000 1.224562
v -0.262361 0.100000 -1.224562
v 0.530902 0.100000 -1.224562
v 0.500000 0.400000 -1.200000
v 0.500000 0.400000 1.200000
v 0.530902 0.100000 1.224562
v -0.526782 0.100000 -1.020468
v -0.526782 0.100000 1.020468
v -0.500000 0.400000 1.000000
v -0.500000 0.400000 -1.000000
v -0.526782 0.100000 1.224562
v -0.500000 0.400000 1.200000
v -0.500000 0.400000 -1.200000
v -0.526782 0.100000 -1.224562
v -0.250000 0.400000 0.458333
v -0.250000 0.400000 -0.458333
v 0.530902 0.100000 0.340156
v 0.530902 0.100000 -0.340156
v 0.500000 0.400000 -0.458333
v 0.500000 0.400000 0.458333
v -0.526782 0.100000 -0.340156
v -0.526782 0.100000 0.340156
v -0.250000 0.450000 -0.458333
v -0.250000 0.450000 -1.000000
v 0.449741 0.450000 -1.000000
v 0.449741 0.450000 0.458333
v 0.449741 0.450000 1.000000
v -0.250000 0.450000 1.000000
v -0.250000 0.450000 0.458333
v 0.449741 0.450000 -0.458333
v 0.500000 0.122410 -1.000000
v 0.500000 0.122410 1.000000
v -0.250000 0.122410 1.200000
v -0.250000 0.122410 -1.200000
v 0.500000 0.122410 -1.200000
v 0.500000 0.122410 1.200000
v -0.500000 0.122410 1.000000
v -0.500000 0.122410 -1.000000
v -0.500000 0.122410 1.200000
v -0.500000 0.122410 -1.200000
v -0.500000 0.122410 0.333333
v -0.500000 0.122410 -0.333333
v 0.500000 0.122410 -0.458333
v 0.500000 0.122410 0.458333
v 0.500000 0.077812 -1.000000
v 0.500000 0.077812 -0.333333
v 0.500000 0.077812 1.000000
v 0.500000 0.077812 -1.200000
v -0.250000 0.077812 -1.200000
v -0.250000 0.077812 1.200000
v 0.500000 0.077812 1.200000
v -0.500000 0.077812 0.333333
v -0.500000 0.077812 1.000000
v -0.500000 0.077812 -1.200000
v -0.500000 0.077812 -1.000000
v -0.500000 0.077812 1.200000
v 0.500000 0.077812 0.333333
v -0.500000 0.077812 -0.333333
v -0.479776 0.600000 -1.000000
v -0.500000 0.579776 -1.000000
v -0.250000 0.579776 -1.000000
v -0.250000 0.600000 -1.020224
v -0.270224 0.600000 -1.000000
v -0.250000 0.600000 -1.179776
v -0.250000 0.579776 -1.200000
v -0.500000 0.579776 -1.200000
v -0.479776 0.600000 -1.179776
v 0.500000 0.579776 -1.000000
v 0.479776 0.600000 -1.020224
v 0.479776 0.600000 1.020224
v 0.500000 0.579776 1.000000
v -0.250000 0.600000 1.020224
v -0.250000 0.579776 1.000000
v -0.270224 0.600000 1.000000
v 0.479776 0.600000 -1.179776
v 0.500000 0.579776 -1.200000
v 0.479776 0.600000 1.179776
v 0.500000 0.579776 1.200000
v -0.250000 0.600000 1.179776
v -0.250000 0.579776 1.200000
v -0.500000 0.579776 1.000000
v -0.479776 0.600000 1.000000
v -0.500000 0.579776 1.200000
v -0.479776 0.600000 1.179776
v -0.500000 0.852078 -1.000000
v -0.452078 0.900000 -1.000000
v -0.297922 0.900000 -1.000000
v -0.250000 0.720813 -1.000000
v -0.250000 0.720813 1.000000
v -0.297922 0.900000 1.000000
v -0.452078 0.900000 1.000000
v -0.500000 0.852078 1.000000
v -0.250000 0.720813 0.458333
v -0.297922 0.900000 0.458333
v -0.297922 0.900000 -0.458333
v -0.250000 0.720813 -0.458333
v -0.452078 0.900000 0.458333
v -0.500000 0.852078 0.458333
v -0.500000 0.852078 -0.458333
v -0.452078 0.900000 -0.458333
v 0.500000 0.400000 0.541667
v -0.526782 0.100000 0.680312
v -0.250000 0.400000 0.541667
v 0.530902 0.100000 0.680312
v 0.449741 0.450000 0.541667
v -0.250000 0.450000 0.541667
v -0.500000 0.122410 0.666667
v 0.500000 0.122410 0.541667
v -0.500000 0.077812 0.666667
v 0.500000 0.077812 0.666667
v -0.250000 0.720813 0.541667
v -0.297922 0.900000 0.541667
v -0.452078 0.900000 0.541667
v -0.500000 0.852078 0.541667
v -0.250000 0.400000 -0.541667
v 0.530902 0.100000 -0.680312
v 0.500000 0.400000 -0.541667
v -0.526782 0.100000 -0.680312
v -0.250000 0.450000 -0.541667
v 0.449741 0.450000 -0.541667
v 0.500000 0.122410 -0.541667
v -0.500000 0.122410 -0.666667
v 0.500000 0.077812 -0.666667
v -0.500000 0.077812 -0.666667
v -0.250000 0.720813 -0.541667
v -0.297922 0.900000 -0.541667
v -0.452078 0.900000 -0.541667
v -0.500000 0.852078 -0.541667
v 0.484706 0.400000 -0.500000
v -0.526782 0.100000 -0.510234
v 0.434446 0.443395 -0.500000
v 0.484706 0.122410 -0.500000
v -0.500000 0.077812 -0.500000
v -0.313217 0.893395 -0.500000
v -0.500000 0.852078 -0.500000
v -0.265294 0.400000 -0.500000
v 0.530902 0.100000 -0.510234
v -0.265294 0.443395 -0.500000
v -0.500000 0.122410 -0.500000
v 0.500000 0.077812 -0.500000
v -0.265294 0.720813 -0.500000
v -0.452078 0.893395 -0.500000
v -0.265294 0.400000 0.500000
v 0.530902 0.100000 0.510234
v -0.265294 0.443395 0.500000
v -0.500000 0.122410 0.500000
v 0.500000 0.077812 0.500000
v -0.265294 0.720813 0.500000
v -0.452078 0.893395 0.500000
v 0.484706 0.400000 0.500000
v -0.526782 0.100000 0.510234
v 0.434446 0.443395 0.500000
v 0.484706 0.122410 0.500000
v -0.500000 0.077812 0.500000
v -0.313217 0.893395 0.500000
v -0.500000 0.852078 0.500000
v 0.400000 0.000000 -1.120000
v 0.400000 0.100000 -1.120000
v 0.417320 0.000000 -1.110000
v 0.417320 0.100000 -1.110000
v 0.417320 0.000000 -1.090000
v 0.417320 0.100000 -1.090000
v 0.400000 0.000000 -1.080000
v 0.400000 0.100000 -1.080000
v 0.382679 0.000000 -1.090000
v 0.382679 0.100000 -1.090000
v 0.382679 0.000000 -1.110000
v 0.382679 0.100000 -1.110000
v 0.400000 -0.000000 1.080000
v 0.400000 0.100000 1.080000
v 0.417320 -0.000000 1.090000
v 0.417320 0.100000 1.090000
v 0.417320 -0.000000 1.110000
v 0.417320 0.100000 1.110000
v 0.400000 -0.000000 1.120000
v 0.400000 0.100000 1.120000
v 0.382679 -0.000000 1.110000
v 0.382679 0.100000 1.110000
v 0.382679 -0.000000 1.090000
v 0.382679 0.100000 1.090000
v -0.400000 -0.000000 1.080000
v -0.400000 0.100000 1.080000
v -0.382679 -0.000000 1.090000
v -0.382679 0.100000 1.090000
v -0.382679 -0.000000 1.110000
v -0.382679 0.100000 1.110000
v -0.400000 -0.000000 1.120000
v -0.400000 0.100000 1.120000
v -0.417320 -0.000000 1.110000
v -0.417320 0.100000 1.110000
v -0.417320 -0.000000 1.090000
v -0.417320 0.100000 1.090000
v -0.400000 -0.000000 -1.120000
v -0.400000 0.100000 -1.120000
v -0.382679 -0.000000 -1.110000
v -0.382679 0.100000 -1.110000
v -0.382679 -0.000000 -1.090000
v -0.382679 0.100000 -1.090000
v -0.400000 -0.000000 -1.080000
v -0.400000 0.100000 -1.080000
v -0.417320 -0.000000 -1.090000
v -0.417320 0.100000 -1.090000
v -0.417320 -0.000000 -1.110000
v -0.417320 0.100000 -1.110000
vn -0.0000 -0.7420 -0.6703
vn 0.5832 -0.8123 -0.0000
vn -0.0000 -0.0000 -1.0000
vn 1.0000 -0.0000 -0.0000
vn -0.6380 -0.7701 -0.0000
vn -0.0000 -0.7420 0.6703
vn 0.7053 0.7089 -0.0000
vn -0.0000 -0.0000 1.0000
vn 0.9388 -0.0000 -0.3446
vn -0.0000 1.0000 -0.0000
vn -0.0000 0.9877 -0.1566
vn -1.0000 -0.0000 -0.0000
vn 0.6149 0.7122 0.3386
vn -0.9388 -0.0000 0.3446
vn 0.5871 0.8095 -0.0000
vn -0.0000 0.7387 -0.6740
vn 0.5774 0.5773 0.5774
vn 0.5774 0.5773 -0.5774
vn -0.0000 0.7071 -0.7071
vn -0.0000 0.7071 0.7071
vn 0.7071 0.7071 -0.0000
vn -0.7071 0.7071 -0.0000
vn 0.9660 0.2584 -0.0000
vn 0.8958 0.2488 0.3683
vn -0.6530 0.7574 -0.0000
vn -0.0000 0.9877 0.1566
vn 0.9388 -0.0000 0.3446
vn 0.6828 0.6863 -0.2506
vn 0.9105 0.2435 -0.3342
vn -0.7027 0.7027 -0.1114
vn -0.9388 -0.0000 -0.3446
vn -0.0000 -1.0000 -0.0000
vn -0.6417 0.7669 -0.0000
vn -0.0000 0.7387 0.6740
vn 0.5000 -0.0000 -0.8660
vn 0.5000 -0.0000 0.8660
vn -0.5000 -0.0000 0.8660
vn -0.5000 -0.0000 -0.8660
vn -0.0000 -0.7421 -0.6703
vn -0.0000 -0.7421 0.6703
vn 0.6828 0.6863 0.2506
vn -0.9487 0.3162 -0.0000
vn 0.9105 0.2435 0.3342
vn -0.7027 0.7027 0.1114
vn 0.6149 0.7122 -0.3386
vn 0.8958 0.2488 -0.3683
vt -0.195695 2.316617
vt -0.208011 2.265846
vt 0.048091 2.319271
vt -1.463661 2.248333
vt -1.156710 2.252942
vt -1.138392 2.305762
vt 0.716851 1.215597
vt 0.752249 1.714051
vt 0.716617 1.749836
vt 0.659010 1.333923
vt 0.428708 1.333477
vt 0.659746 0.953950
vt 0.087683 1.497458
vt 0.086807 0.138398
vt 0.330430 0.478496
vt 1.883611 2.279776
vt 2.211710 2.281898
vt 2.231570 2.333367
vt 2.650215 2.334997
vt 2.662796 2.284398
vt 3.458799 2.335420
vt 0.429790 0.953727
vt 0.369838 1.333077
vt 0.372369 0.953121
vt 0.716841 -0.216089
vt 0.752337 -0.714075
vt 0.752424 -0.216095
vt 0.424752 0.916541
vt 0.659864 0.879942
vt 0.659715 0.916945
vt 0.430013 0.879385
vt 0.660883 0.120603
vt -0.206508 0.049390
vt 0.371851 -0.333228
vt 0.373519 0.046709
vt 0.363621 0.916370
vt -0.207329 0.879041
vt 0.372567 0.879688
vt 0.373541 0.120154
vt 0.752481 0.110084
vt 0.716865 0.110082
vt 0.425833 0.083419
vt 0.364685 0.083444
vt 0.431003 0.120588
vt 0.716902 0.173413
vt 0.752575 0.825755
vt 0.716943 0.825747
vt 0.747896 0.857437
vt 0.716932 0.857445
vt -3.001709 2.297154
vt -2.706254 2.259494
vt -2.549205 2.267485
vt 0.250007 0.477086
vt 0.494981 0.137399
vt 0.872409 0.478772
vt 0.430681 -0.333488
vt 0.661003 -0.333698
vt 0.430971 0.046242
vt -0.208503 2.367359
vt -0.977688 2.308175
vt 0.622346 0.487002
vt 0.584187 0.478289
vt 0.610812 0.449600
vt -0.005116 0.476253
vt -0.043929 0.479299
vt -0.029501 0.445830
vt 0.365730 0.171014
vt 0.368955 0.478586
vt 0.623181 0.478515
vt 0.580052 1.464195
vt -0.002031 1.464521
vt -0.035187 1.497752
vt 0.365488 1.463516
vt 0.212919 1.464113
vt 0.246224 1.497453
vt 0.613161 1.497446
vt -0.023041 0.124507
vt 0.216237 0.169531
vt -0.024305 0.163989
vt 0.606026 0.127057
vt 0.331889 0.138883
vt 0.249981 0.137435
vt 0.867419 0.480917
vt 0.595975 0.450769
vt 0.626521 0.138872
vt 0.607112 0.166718
vt 0.857399 1.499848
vt 0.428546 1.499671
vt 0.279163 1.333426
vt -0.288053 0.481395
vt -0.279311 1.499847
vt 0.281187 -0.499310
vt 0.430438 -0.499529
vt -0.290967 0.141911
vt -0.019144 0.167043
vt 0.595396 -0.119359
vt 0.321259 -0.107534
vt 0.488350 1.215514
vt 0.357132 0.889279
vt 0.488584 0.889218
vt 0.246503 1.214634
vt 0.199379 0.887183
vt 0.247852 0.887946
vt 0.486979 0.141755
vt 0.357206 0.173784
vt 0.352565 0.141808
vt 0.488657 0.825585
vt 0.488660 0.173554
vt 0.246586 0.141928
vt 0.199531 0.172125
vt 0.199698 0.141971
vt 0.247892 0.826262
vt 0.247926 0.172773
vt 0.499929 0.250000
vt 0.452034 0.749717
vt 0.250071 0.570631
vt 0.356246 1.215115
vt 0.716961 0.889146
vt 0.749929 0.250000
vt 0.702034 0.749717
vt 0.500071 0.701822
vt 0.716863 0.141748
vt 0.357181 0.825303
vt 0.488539 -0.216068
vt 0.357184 0.109812
vt 0.246721 -0.215783
vt 0.356529 -0.215977
vt 0.247908 0.111076
vt 0.198486 -0.215596
vt 0.488609 0.109953
vt 0.747799 0.141735
vt 0.660859 0.083555
vt 0.661003 0.046495
vt 0.486966 0.857399
vt 0.352526 0.857278
vt 0.246539 0.857099
vt 0.199645 0.857030
vt 0.752467 1.215613
vt -0.210306 1.329044
vt 0.199491 0.826880
vt 0.752609 0.889133
vt -0.207664 0.949048
vt -0.206361 0.119352
vt 0.752515 0.173389
vt 0.199450 0.111812
vt 0.805523 0.708311
vt -0.527669 0.708311
vt -0.416570 0.083377
vt 0.570919 2.374213
vt 0.242822 2.372092
vt 0.222959 2.320402
vt 2.662738 2.385868
vt 3.427286 2.386243
vt 0.600000 0.800000
vt 0.566667 0.700000
vt 0.600000 0.700000
vt 0.566667 0.800000
vt 0.533333 0.700000
vt 0.533333 0.800000
vt 0.500000 0.700000
vt 0.500000 0.800000
vt 0.466667 0.700000
vt 0.466667 0.800000
vt 0.433333 0.700000
vt 0.433333 0.800000
vt 0.400000 0.700000
vt -0.124308 1.213659
vt -0.124255 -0.214808
vt -0.011420 -0.120907
vt 0.261602 -0.107979
vt -0.973090 2.257835
vt 0.046765 2.269637
vt -3.019347 2.243489
vt -3.207199 2.233865
vt -3.183397 2.182500
vt -2.999311 2.191928
vt -2.692524 2.207649
vt -2.538780 2.215195
vt -2.392252 2.272685
vt -2.385190 2.220316
vt -1.765555 2.293437
vt -1.771069 2.240651
vt -1.608600 2.298627
vt -1.617478 2.245698
vt -1.451469 2.301037
vt 0.658869 1.499867
vt -0.289596 1.498224
vt -0.290967 0.478624
vt -0.290967 0.138139
vt 0.332126 1.496787
vt 0.243114 2.269192
vt 0.557636 2.322568
vt 0.571214 2.271305
vt 0.725043 2.323648
vt 0.735263 2.272363
vt 0.892450 2.324728
vt 0.899313 2.273422
vt 1.562080 2.329051
vt 1.555511 2.277658
vt 1.729487 2.330132
vt 1.719561 2.278717
vt 1.896894 2.331212
vt 2.408049 2.284878
vt 2.406438 2.334493
vt 3.427307 2.284790
vt 0.716747 -0.749836
vt -0.208246 -0.330575
vt -0.220246 0.913991
vt -0.973679 2.358834
vt -1.157413 2.358211
vt -1.579681 2.351893
vt -1.618840 2.369708
vt -1.657516 2.349771
vt -2.501841 2.321815
vt -2.541066 2.339174
vt -2.579663 2.318785
vt -3.185792 2.287726
vt 0.868948 1.499847
vt 0.491028 1.498566
vt 0.873206 0.137947
vt 0.660895 -0.499867
vt 0.046387 2.369105
vt 0.211203 0.476824
vt 0.870759 0.141273
vt 0.598774 0.166078
vt 0.279107 1.499794
vt 0.281430 -0.333269
vt -0.046843 0.139815
vt -0.016701 0.451600
vt 0.304846 -0.488022
vt 0.578983 -0.499848
vt 0.198323 1.214469
vt 0.250071 0.250000
vt 0.499929 0.701822
vt 0.297966 0.749717
vt 0.500071 0.250000
vt 0.749929 0.570631
vt 0.547966 0.749717
vt -0.219183 0.084393
vt 0.694424 0.083377
vt 0.805523 0.083377
vt 0.805523 0.916623
vt 0.694424 0.916623
vt 0.509258 0.916623
vt 0.509258 0.083377
vt 0.416675 0.083377
vt 0.416675 0.916623
vt 0.324093 0.916623
vt 0.324093 0.083377
vt -0.046239 0.083377
vt -0.046239 0.916623
vt -0.138822 0.916623
vt -0.138821 0.083377
vt -0.231404 0.083377
vt -0.231404 0.916623
vt -0.416570 0.916623
vt -0.527669 0.916623
vt -0.527669 0.083377
vt 2.407857 2.384346
vt 2.211412 2.384799
vt 1.883315 2.382685
vt 1.719266 2.381626
vt 1.555216 2.380567
vt 0.899018 2.376332
vt 0.734969 2.375273
vt 0.400000 0.800000
vt -0.322453 1.213213
vt -0.321918 0.975278
vt -0.321672 0.856384
vt -0.321622 0.737483
vt -0.321611 0.261484
vt -0.321677 0.142559
vt -0.321932 0.023625
vt -0.322453 -0.214374
vt 0.006523 -0.499847
vt 0.279545 -0.486919
s 0
usemtl oak
f 8/1/1 55/2/1 20/3/1
f 129/4/2 51/5/2 5/6/2
f 115/16/5 59/17/5 14/18/5
f 7/19/6 56/20/6 12/21/6
f 38/50/15 110/51/15 150/52/15
f 8/1/16 40/59/16 9/60/16
f 56/146/32 55/147/32 51/148/32
f 128/149/33 44/150/33 13/151/33
f 39/152/34 7/19/34 42/153/34
f 164/154/35 165/155/35 163/156/35
f 166/157/4 167/158/4 165/155/4
f 168/159/36 169/160/36 167/158/36
f 170/161/37 171/162/37 169/160/37
f 172/163/12 173/164/12 171/162/12
f 174/165/38 163/166/38 173/164/38
f 176/154/35 177/155/35 175/156/35
f 178/157/4 179/158/4 177/155/4
f 180/159/36 181/160/36 179/158/36
f 182/161/37 183/162/37 181/160/37
f 184/163/12 185/164/12 183/162/12
f 186/165/38 175/166/38 185/164/38
f 188/154/35 189/155/35 187/156/35
f 190/157/4 191/158/4 189/155/4
f 192/159/36 193/160/36 191/158/36
f 194/161/37 195/162/37 193/160/37
f 196/163/12 197/164/12 195/162/12
f 198/165/38 187/166/38 197/164/38
f 200/154/35 201/155/35 199/156/35
f 202/157/4 203/158/4 201/155/4
f 204/159/36 205/160/36 203/158/36
f 206/161/37 207/162/37 205/160/37
f 208/163/12 209/164/12 207/162/12
f 210/165/38 199/166/38 209/164/38
f 8/1/1 9/60/1 54/171/1
f 55/2/39 60/172/39 20/3/39
f 8/1/1 54/171/1 55/2/1
f 3/173/2 12/174/2 57/175/2
f 3/173/2 57/175/2 53/176/2
f 110/51/2 3/173/2 53/176/2
f 110/51/2 53/176/2 116/177/2
f 150/52/2 110/51/2 116/177/2
f 150/52/2 116/177/2 153/178/2
f 23/179/2 150/52/2 153/178/2
f 23/179/2 153/178/2 63/180/2
f 24/181/2 23/179/2 63/180/2
f 24/181/2 63/180/2 52/182/2
f 143/183/2 24/181/2 52/182/2
f 143/183/2 52/182/2 146/184/2
f 122/185/2 143/183/2 146/184/2
f 122/185/2 146/184/2 129/4/2
f 54/171/2 9/60/2 5/6/2
f 5/6/2 122/185/2 129/4/2
f 51/5/2 54/171/2 5/6/2
f 13/151/5 20/3/5 60/172/5
f 13/151/5 60/172/5 61/191/5
f 124/192/5 13/151/5 61/191/5
f 124/192/5 61/191/5 130/193/5
f 136/194/5 124/192/5 130/193/5
f 136/194/5 130/193/5 139/195/5
f 27/196/5 136/194/5 139/195/5
f 27/196/5 139/195/5 64/197/5
f 28/198/5 27/196/5 64/197/5
f 28/198/5 64/197/5 58/199/5
f 157/200/5 28/198/5 58/199/5
f 157/200/5 58/199/5 160/201/5
f 108/202/5 157/200/5 160/201/5
f 108/202/5 160/201/5 115/16/5
f 62/203/5 17/204/5 14/18/5
f 14/18/5 108/202/5 115/16/5
f 59/17/5 62/203/5 14/18/5
f 7/19/6 17/204/6 62/203/6
f 56/20/40 57/205/40 12/21/40
f 7/19/40 62/203/40 56/20/40
f 5/6/15 9/60/15 41/209/15
f 5/6/15 41/209/15 37/210/15
f 122/185/15 5/6/15 37/210/15
f 127/211/10 138/212/10 49/213/10
f 122/185/15 37/210/15 127/211/15
f 143/183/15 122/185/15 127/211/15
f 143/183/15 127/211/15 49/213/15
f 24/181/15 143/183/15 49/213/15
f 50/214/10 159/215/10 114/216/10
f 24/181/15 49/213/15 50/214/15
f 23/179/15 24/181/15 50/214/15
f 50/214/42 114/216/42 38/50/42
f 38/50/15 42/217/15 12/174/15
f 38/50/15 12/174/15 3/173/15
f 23/179/15 50/214/15 38/50/15
f 150/52/15 23/179/15 38/50/15
f 38/50/15 3/173/15 110/51/15
f 8/1/16 20/3/16 46/222/16
f 40/59/16 41/209/16 9/60/16
f 8/1/16 46/222/16 40/59/16
f 53/240/32 57/241/32 56/146/32
f 56/146/32 62/242/32 59/243/32
f 56/146/32 59/243/32 115/244/32
f 116/245/32 53/240/32 56/146/32
f 153/246/32 116/245/32 56/146/32
f 56/146/32 115/244/32 160/247/32
f 56/146/32 160/247/32 58/248/32
f 63/249/32 153/246/32 56/146/32
f 52/250/32 63/249/32 56/146/32
f 56/146/32 58/248/32 64/251/32
f 56/146/32 64/251/32 139/252/32
f 146/253/32 52/250/32 56/146/32
f 129/254/32 146/253/32 56/146/32
f 56/146/32 139/252/32 130/255/32
f 61/256/32 60/257/32 55/147/32
f 56/146/32 130/255/32 61/256/32
f 51/148/32 129/254/32 56/146/32
f 55/147/32 54/258/32 51/148/32
f 56/146/32 61/256/32 55/147/32
f 14/18/33 17/204/33 45/259/33
f 14/18/33 45/259/33 43/260/33
f 108/202/33 14/18/33 43/260/33
f 108/202/33 43/260/33 113/261/33
f 157/200/33 108/202/33 113/261/33
f 157/200/33 113/261/33 152/262/33
f 28/198/33 157/200/33 152/262/33
f 28/198/33 152/262/33 47/263/33
f 27/196/33 28/198/33 47/263/33
f 27/196/33 47/263/33 48/264/33
f 136/194/33 27/196/33 48/264/33
f 136/194/33 48/264/33 145/265/33
f 124/192/33 136/194/33 145/265/33
f 124/192/33 145/265/33 128/149/33
f 46/222/33 20/3/33 13/151/33
f 13/151/33 124/192/33 128/149/33
f 44/150/33 46/222/33 13/151/33
f 39/152/34 45/259/34 17/204/34
f 7/19/34 12/21/34 42/153/34
f 39/152/34 17/204/34 7/19/34
f 164/154/35 166/157/35 165/155/35
f 166/157/4 168/159/4 167/158/4
f 168/159/36 170/161/36 169/160/36
f 170/161/37 172/163/37 171/162/37
f 172/163/12 174/165/12 173/164/12
f 174/165/38 164/266/38 163/166/38
f 176/154/35 178/157/35 177/155/35
f 178/157/4 180/159/4 179/158/4
f 180/159/36 182/161/36 181/160/36
f 182/161/37 184/163/37 183/162/37
f 184/163/12 186/165/12 185/164/12
f 186/165/38 176/266/38 175/166/38
f 188/154/35 190/157/35 189/155/35
f 190/157/4 192/159/4 191/158/4
f 192/159/36 194/161/36 193/160/36
f 194/161/37 196/163/37 195/162/37
f 196/163/12 198/165/12 197/164/12
f 198/165/38 188/266/38 187/166/38
f 200/154/35 202/157/35 201/155/35
f 202/157/4 204/159/4 203/158/4
f 204/159/36 206/161/36 205/160/36
f 206/161/37 208/163/37 207/162/37
f 208/163/12 210/165/12 209/164/12
f 210/165/38 200/266/38 199/166/38
usemtl fabric_cream
f 2/7/3 31/8/3 6/9/3
f 37/10/4 6/11/4 127/12/4
f 10/13/3 19/14/3 71/15/3
f 123/22/7 31/23/7 126/24/7
f 1/25/8 33/26/8 34/27/8
f 135/28/9 49/29/9 138/30/9
f 25/31/4 50/32/4 49/29/4
f 112/33/10 33/34/10 111/35/10
f 137/36/11 29/37/11 36/38/11
f 29/37/10 32/39/10 36/38/10
f 1/25/12 112/40/12 109/41/12
f 156/42/13 32/39/13 158/43/13
f 25/31/7 32/39/7 26/44/7
f 21/45/12 29/46/12 22/47/12
f 22/47/14 144/48/14 142/49/14
f 86/53/8 18/54/8 39/55/8
f 4/56/4 38/57/4 107/58/4
f 67/61/17 68/62/17 69/63/17
f 78/64/18 79/65/18 80/66/18
f 71/15/19 73/67/19 70/68/19
f 67/69/20 75/70/20 68/62/20
f 79/65/19 76/71/19 77/72/19
f 81/73/19 71/15/19 70/68/19
f 83/74/20 86/53/20 84/75/20
f 77/72/21 83/74/21 84/75/21
f 74/76/21 81/73/21 75/70/21
f 87/77/22 90/78/22 88/79/22
f 66/80/22 73/67/22 72/81/22
f 86/53/20 90/78/20 89/82/20
f 2/83/8 69/84/8 66/85/8
f 68/62/10 73/67/10 65/86/10
f 75/70/10 70/68/10 68/62/10
f 6/87/8 67/69/8 2/83/8
f 10/88/4 74/89/4 6/11/4
f 1/90/3 77/72/3 4/91/3
f 78/64/10 83/74/10 76/71/10
f 4/56/4 84/92/4 11/93/4
f 78/64/10 88/79/10 90/78/10
f 15/94/3 88/95/3 79/65/3
f 16/96/12 72/81/12 19/97/12
f 94/98/23 132/99/23 131/100/23
f 92/101/22 134/102/22 133/103/22
f 154/104/24 100/105/24 161/106/24
f 102/107/23 100/105/23 99/108/23
f 155/109/25 104/110/25 162/111/25
f 106/112/22 104/110/22 103/113/22
f 16/114/3 92/115/3 94/116/3
f 93/117/10 133/103/10 132/99/10
f 2/7/4 131/100/4 121/118/4
f 161/106/26 103/113/26 155/109/26
f 1/119/8 96/120/8 98/121/8
f 21/45/27 154/104/27 149/122/27
f 101/123/10 103/113/10 100/105/10
f 22/47/4 99/108/4 21/45/4
f 109/41/4 95/124/4 1/25/4
f 118/125/10 97/126/10 96/127/10
f 119/128/22 98/129/22 97/126/22
f 117/130/23 96/127/23 95/124/23
f 107/58/7 33/34/7 4/56/7
f 109/41/14 151/131/14 149/122/14
f 158/43/11 112/33/11 111/35/11
f 159/132/9 107/58/9 114/133/9
f 121/118/27 147/134/27 142/49/27
f 140/135/26 133/103/26 148/136/26
f 148/136/25 134/102/25 141/137/25
f 147/134/24 132/99/24 140/135/24
f 121/118/12 30/138/12 2/7/12
f 30/139/10 126/24/10 31/23/10
f 135/28/13 126/24/13 137/36/13
f 135/28/28 36/38/28 25/31/28
f 147/134/29 101/123/29 102/107/29
f 148/136/30 105/140/30 106/112/30
f 140/135/11 106/112/11 101/123/11
f 142/49/9 102/107/9 22/47/9
f 121/118/31 144/48/31 125/141/31
f 125/142/26 137/36/26 126/24/26
f 123/22/27 138/30/27 127/12/27
f 26/44/27 159/132/27 50/32/27
f 35/143/26 158/43/26 32/39/26
f 21/45/31 151/131/31 35/144/31
f 149/122/9 117/130/9 109/41/9
f 161/106/11 119/128/11 118/125/11
f 155/109/30 120/145/30 119/128/30
f 154/104/29 118/125/29 117/130/29
f 156/42/28 111/35/28 107/58/28
f 16/167/12 15/168/12 120/145/12
f 15/169/12 18/170/12 87/77/12
f 2/7/3 30/138/3 31/8/3
f 37/10/4 41/186/4 10/88/4
f 6/11/4 123/22/4 127/12/4
f 37/10/4 10/88/4 6/11/4
f 10/13/3 41/187/3 40/188/3
f 40/188/3 46/189/3 19/14/3
f 19/14/3 72/81/3 71/15/3
f 71/15/3 82/190/3 10/13/3
f 10/13/3 40/188/3 19/14/3
f 123/22/7 6/11/7 31/23/7
f 1/25/8 4/206/8 33/26/8
f 135/28/9 25/31/9 49/29/9
f 25/31/4 26/44/4 50/32/4
f 112/33/10 34/207/10 33/34/10
f 137/36/11 144/208/11 29/37/11
f 29/37/10 35/143/10 32/39/10
f 1/25/12 34/27/12 112/40/12
f 156/42/41 26/44/41 32/39/41
f 25/31/7 36/38/7 32/39/7
f 21/45/12 35/144/12 29/46/12
f 22/47/14 29/46/14 144/48/14
f 39/55/8 42/218/8 11/219/8
f 11/219/8 84/75/8 86/53/8
f 86/53/8 89/82/8 18/54/8
f 18/54/8 45/220/8 39/55/8
f 39/55/8 11/219/8 86/53/8
f 4/56/4 11/93/4 42/221/4
f 38/57/4 114/133/4 107/58/4
f 4/56/4 42/221/4 38/57/4
f 71/15/19 72/81/19 73/67/19
f 67/69/20 74/76/20 75/70/20
f 79/65/19 78/64/19 76/71/19
f 81/73/19 82/190/19 71/15/19
f 83/74/20 85/223/20 86/53/20
f 77/72/21 76/71/21 83/74/21
f 74/76/21 82/190/21 81/73/21
f 87/77/22 89/82/22 90/78/22
f 66/80/22 65/86/22 73/67/22
f 86/53/20 85/223/20 90/78/20
f 66/85/8 16/224/8 2/83/8
f 2/83/8 67/69/8 69/84/8
f 69/84/8 65/225/8 66/85/8
f 65/86/10 69/63/10 68/62/10
f 68/62/10 70/68/10 73/67/10
f 75/70/10 81/73/10 70/68/10
f 6/87/8 74/76/8 67/69/8
f 10/88/4 82/226/4 74/89/4
f 1/90/3 79/65/3 77/72/3
f 78/64/10 85/223/10 83/74/10
f 4/56/4 77/227/4 84/92/4
f 90/78/10 85/223/10 78/64/10
f 78/64/10 80/66/10 88/79/10
f 79/65/3 1/90/3 15/94/3
f 15/94/3 87/228/3 88/95/3
f 88/95/3 80/229/3 79/65/3
f 46/230/12 44/231/12 16/96/12
f 16/96/12 66/80/12 72/81/12
f 19/97/12 46/230/12 16/96/12
f 94/98/23 93/117/23 132/99/23
f 92/101/22 91/232/22 134/102/22
f 154/104/43 99/108/43 100/105/43
f 102/107/23 101/123/23 100/105/23
f 155/109/44 103/113/44 104/110/44
f 106/112/22 105/140/22 104/110/22
f 94/116/3 2/233/3 16/114/3
f 16/114/3 91/234/3 92/115/3
f 92/115/3 93/235/3 94/116/3
f 93/117/10 92/101/10 133/103/10
f 2/7/4 94/98/4 131/100/4
f 161/106/26 100/105/26 103/113/26
f 98/121/8 15/236/8 1/119/8
f 1/119/8 95/237/8 96/120/8
f 96/120/8 97/238/8 98/121/8
f 21/45/27 99/108/27 154/104/27
f 101/123/10 106/112/10 103/113/10
f 22/47/4 102/107/4 99/108/4
f 109/41/4 117/130/4 95/124/4
f 118/125/10 119/128/10 97/126/10
f 119/128/22 120/145/22 98/129/22
f 117/130/23 118/125/23 96/127/23
f 107/58/7 111/35/7 33/34/7
f 109/41/14 112/40/14 151/131/14
f 158/43/11 151/239/11 112/33/11
f 159/132/9 156/42/9 107/58/9
f 121/118/27 131/100/27 147/134/27
f 140/135/26 132/99/26 133/103/26
f 148/136/44 133/103/44 134/102/44
f 147/134/43 131/100/43 132/99/43
f 121/118/12 125/141/12 30/138/12
f 30/139/10 125/142/10 126/24/10
f 135/28/41 123/22/41 126/24/41
f 135/28/45 137/36/45 36/38/45
f 147/134/46 140/135/46 101/123/46
f 148/136/25 141/137/25 105/140/25
f 140/135/11 148/136/11 106/112/11
f 142/49/9 147/134/9 102/107/9
f 121/118/31 142/49/31 144/48/31
f 125/142/26 144/208/26 137/36/26
f 123/22/27 135/28/27 138/30/27
f 26/44/27 156/42/27 159/132/27
f 35/143/26 151/239/26 158/43/26
f 21/45/31 149/122/31 151/131/31
f 149/122/9 154/104/9 117/130/9
f 161/106/11 155/109/11 119/128/11
f 155/109/25 162/111/25 120/145/25
f 154/104/46 161/106/46 118/125/46
f 156/42/45 158/43/45 111/35/45
f 16/167/12 44/267/12 128/268/12
f 16/167/12 128/268/12 145/269/12
f 134/102/12 91/232/12 16/167/12
f 141/137/12 134/102/12 16/167/12
f 16/167/12 145/269/12 48/270/12
f 16/167/12 48/270/12 47/271/12
f 105/140/12 141/137/12 16/167/12
f 104/110/12 105/140/12 16/167/12
f 16/167/12 47/271/12 152/272/12
f 113/273/12 43/274/12 15/168/12
f 16/167/12 152/272/12 113/273/12
f 162/111/12 104/110/12 16/167/12
f 15/168/12 98/129/12 120/145/12
f 120/145/12 162/111/12 16/167/12
f 16/167/12 113/273/12 15/168/12
f 15/169/12 43/275/12 45/276/12
f 18/170/12 89/82/12 87/77/12
f 15/169/12 45/276/12 18/170/12
