# Blender 5.1.1
# www.blender.org
mtllib table_lamp.mtl
o table_lamp
v 0.000000 -0.000000 -0.105877
v -0.000000 0.170350 -0.137288
v 0.062233 -0.000000 -0.085656
v 0.080696 0.170350 -0.111068
v 0.100695 -0.000000 -0.032718
v 0.130569 0.170350 -0.042424
v 0.100695 -0.000000 0.032718
v 0.130569 0.170350 0.042424
v 0.062233 -0.000000 0.085656
v 0.080696 0.170350 0.111068
v 0.000000 -0.000000 0.105877
v -0.000000 0.170350 0.137288
v -0.062233 -0.000000 0.085656
v -0.080696 0.170350 0.111068
v -0.100695 -0.000000 0.032718
v -0.130569 0.170350 0.042424
v -0.100695 -0.000000 -0.032718
v -0.130569 0.170350 -0.042424
v -0.062233 -0.000000 -0.085656
v -0.080696 0.170350 -0.111068
v 0.058517 0.441245 -0.080541
v -0.000000 0.441245 -0.099554
v 0.094682 0.441245 -0.030764
v 0.094682 0.441245 0.030764
v 0.058517 0.441245 0.080541
v -0.000000 0.441245 0.099554
v -0.058517 0.441245 0.080541
v -0.094682 0.441245 0.030764
v -0.094682 0.441245 -0.030764
v -0.058517 0.441245 -0.080541
v 0.026055 0.470222 -0.035862
v -0.000000 0.470222 -0.044328
v 0.042159 0.470222 -0.013698
v 0.042159 0.470222 0.013698
v 0.026055 0.470222 0.035862
v -0.000000 0.470222 0.044328
v -0.026055 0.470222 0.035862
v -0.042159 0.470222 0.013698
v -0.042159 0.470222 -0.013698
v -0.026055 0.470222 -0.035862
v 0.022145 0.513404 -0.030480
v -0.000000 0.513404 -0.037676
v 0.035832 0.513404 -0.011642
v 0.035832 0.513404 0.011642
v 0.022145 0.513404 0.030480
v -0.000000 0.513404 0.037676
v -0.022145 0.513404 0.030480
v -0.035832 0.513404 0.011642
v -0.035832 0.513404 -0.011642
v -0.022145 0.513404 -0.030480
v 0.013892 0.728810 -0.019121
v -0.000000 0.728810 -0.023635
v 0.022478 0.728810 -0.007304
v 0.022478 0.728810 0.007304
v 0.013892 0.728810 0.019121
v -0.000000 0.728810 0.023635
v -0.013892 0.728810 0.019121
v -0.022478 0.728810 0.007304
v -0.022478 0.728810 -0.007304
v -0.013892 0.728810 -0.019121
v 0.099991 0.792985 -0.137625
v -0.000000 0.792985 -0.170114
v 0.161788 0.792985 -0.052568
v 0.161788 0.792985 0.052568
v 0.099991 0.792985 0.137625
v -0.000000 0.792985 0.170114
v -0.099991 0.792985 0.137625
v -0.161788 0.792985 0.052568
v -0.161788 0.792985 -0.052568
v -0.099991 0.792985 -0.137625
v 0.122777 0.470124 -0.168988
v -0.000000 0.470124 -0.208880
v 0.198657 0.470124 -0.064548
v 0.198657 0.470124 0.064548
v 0.122777 0.470124 0.168988
v -0.000000 0.470124 0.208880
v -0.122777 0.470124 0.168988
v -0.198657 0.470124 0.064548
v -0.198657 0.470124 -0.064548
v -0.122777 0.470124 -0.168988
v 0.141552 0.470124 -0.194830
v -0.000000 0.470124 -0.240824
v 0.229037 0.470124 -0.074419
v 0.229037 0.470124 0.074419
v 0.141552 0.470124 0.194830
v -0.000000 0.470124 0.240824
v -0.141553 0.470124 0.194830
v -0.229037 0.470124 0.074419
v -0.229037 0.470124 -0.074419
v -0.141553 0.470124 -0.194830
v 0.081341 0.784254 -0.111956
v -0.000000 0.784254 -0.138385
v 0.131612 0.784254 -0.042763
v 0.131612 0.784254 0.042763
v 0.081341 0.784254 0.111956
v -0.000000 0.784254 0.138385
v -0.081341 0.784254 0.111956
v -0.131612 0.784254 0.042763
v -0.131612 0.784254 -0.042763
v -0.081341 0.784254 -0.111956
vn 0.3044 -0.1727 -0.9368
vn 0.7969 -0.1727 -0.5790
vn 0.9850 -0.1727 -0.0000
vn 0.7969 -0.1727 0.5790
vn 0.3044 -0.1727 0.9368
vn -0.3044 -0.1727 0.9368
vn -0.7969 -0.1727 0.5790
vn -0.9850 -0.1727 -0.0000
vn 0.8020 0.1313 0.5827
vn -0.7969 -0.1727 -0.5790
vn -0.3044 -0.1727 -0.9368
vn -0.0000 -1.0000 -0.0000
vn -0.1493 0.8756 0.4594
vn 0.3063 0.1313 -0.9428
vn 0.9913 0.1313 -0.0000
vn 0.8020 0.1313 -0.5827
vn -0.3063 0.1313 -0.9428
vn -0.8020 0.1313 -0.5827
vn -0.9913 0.1313 -0.0000
vn -0.8020 0.1313 0.5827
vn -0.3063 0.1313 0.9428
vn 0.3063 0.1313 0.9428
vn 0.9894 0.1450 -0.0000
vn 0.4831 0.8756 -0.0000
vn -0.1493 0.8756 -0.4594
vn -0.3908 0.8756 0.2839
vn 0.3908 0.8756 0.2839
vn 0.1493 0.8756 -0.4594
vn -0.4831 0.8756 -0.0000
vn 0.1493 0.8756 0.4594
vn 0.3908 0.8756 -0.2839
vn -0.3908 0.8756 -0.2839
vn -0.3084 0.0619 -0.9492
vn -0.3058 0.1450 -0.9410
vn -0.8005 0.1450 0.5816
vn 0.8005 0.1450 0.5816
vn 0.3058 0.1450 -0.9410
vn -0.9894 0.1450 -0.0000
vn 0.3058 0.1450 0.9410
vn 0.8005 0.1450 -0.5816
vn -0.8005 0.1450 -0.5816
vn -0.3058 0.1450 0.9410
vn -0.0000 1.0000 -0.0000
vn -0.8075 0.0619 0.5867
vn 0.8075 0.0619 0.5867
vn 0.3084 0.0619 -0.9492
vn -0.9981 0.0619 -0.0000
vn 0.3084 0.0619 0.9492
vn 0.8075 0.0619 -0.5867
vn -0.8075 0.0619 -0.5867
vn -0.3084 0.0619 0.9492
vn 0.9981 0.0619 -0.0000
vn -0.3022 -0.2087 -0.9301
vn 0.7920 0.2039 0.5754
vn 0.3025 0.2039 -0.9311
vn -0.9790 0.2039 -0.0000
vn 0.3025 0.2039 0.9311
vn 0.7920 0.2039 -0.5754
vn -0.7920 0.2039 -0.5754
vn -0.3025 0.2039 0.9311
vn 0.9790 0.2039 -0.0000
vn -0.3025 0.2039 -0.9311
vn -0.7920 0.2039 0.5754
vn -0.7912 -0.2087 0.5748
vn 0.7912 -0.2087 0.5748
vn 0.3022 -0.2087 -0.9301
vn -0.9780 -0.2087 -0.0000
vn 0.3022 -0.2087 0.9301
vn 0.7912 -0.2087 -0.5748
vn -0.7912 -0.2087 -0.5748
vn -0.3022 -0.2087 0.9301
vn 0.9780 -0.2087 -0.0000
vn -0.2249 0.9606 0.1634
vn -0.2779 0.9606 -0.0000
vn -0.2249 0.9606 -0.1634
vn -0.0859 0.9606 -0.2643
vn 0.0859 0.9606 -0.2643
vn 0.2249 0.9606 -0.1634
vn 0.2779 0.9606 -0.0000
vn 0.2249 0.9606 0.1634
vn 0.0859 0.9606 0.2643
vn -0.0859 0.9606 0.2643
vt 1.000000 1.000000
vt 0.900000 0.500000
vt 1.000000 0.500000
vt 0.900000 1.000000
vt 0.800000 0.500000
vt 0.800000 1.000000
vt 0.700000 0.500000
vt 0.700000 1.000000
vt 0.600000 0.500000
vt 0.600000 1.000000
vt 0.500000 0.500000
vt 0.500000 1.000000
vt 0.400000 0.500000
vt 0.400000 1.000000
vt 0.300000 0.500000
vt 0.300000 1.000000
vt 0.200000 0.500000
vt 0.200000 1.000000
vt 0.100000 0.500000
vt 0.100000 1.000000
vt -0.000000 0.500000
vt 0.978254 0.175836
vt 0.521746 0.175836
vt 0.608932 0.444164
vt -0.000000 1.000000
vt 0.021746 0.324164
vt 0.391068 0.055836
vt 0.478254 0.324164
vt -0.050000 0.642686
vt 0.150000 0.345536
vt -0.050000 0.345536
vt 0.350000 0.658389
vt 0.150000 0.658389
vt 0.750000 0.345536
vt 0.950000 0.658389
vt 0.750000 0.658389
vt 1.350000 0.345536
vt 1.550000 0.658389
vt 1.350000 0.658389
vt -0.050000 0.658389
vt 0.550000 0.345536
vt 0.550000 0.658389
vt 1.150000 0.345536
vt 1.150000 0.658389
vt -0.250000 0.658389
vt 0.350000 0.345536
vt 0.950000 0.345536
vt -0.450000 0.345536
vt -0.450000 0.658389
vt 0.750000 0.345536
vt -0.250000 0.345536
vt -0.250000 0.345536
vt 1.550000 0.345536
vt 0.750000 0.642686
vt 1.150000 0.642686
vt -0.250000 0.642686
vt 0.350000 0.642686
vt 0.950000 0.642686
vt -0.450000 0.642686
vt 0.150000 0.642686
vt 1.350000 0.642686
vt 1.550000 0.642686
vt 0.750000 0.490000
vt 0.891068 0.444164
vt 0.978254 0.324164
vt 0.891068 0.055836
vt 0.750000 0.010000
vt 0.608932 0.055836
vt 0.521746 0.324164
vt 0.391068 0.444164
vt 0.250000 0.490000
vt 0.108932 0.444164
vt 0.021746 0.175836
vt 0.108932 0.055836
vt 0.250000 0.010000
vt 0.478254 0.175836
vt 0.550000 0.642686
s 0
usemtl no_texture
f 2/1/1 3/2/1 1/3/1
f 4/4/2 5/5/2 3/2/2
f 6/6/3 7/7/3 5/5/3
f 8/8/4 9/9/4 7/7/4
f 10/10/5 11/11/5 9/9/5
f 12/12/6 13/13/6 11/11/6
f 14/14/7 15/15/7 13/13/7
f 16/16/8 17/17/8 15/15/8
f 8/8/9 25/10/9 10/10/9
f 18/18/10 19/19/10 17/17/10
f 20/20/11 1/21/11 19/19/11
f 7/22/12 15/23/12 19/24/12
f 27/14/13 36/12/13 37/14/13
f 2/1/14 21/4/14 4/4/14
f 6/6/15 24/8/15 8/8/15
f 4/4/16 23/6/16 6/6/16
f 20/20/17 22/25/17 2/25/17
f 18/18/18 30/20/18 20/20/18
f 16/16/19 29/18/19 18/18/19
f 14/14/20 28/16/20 16/16/20
f 14/14/21 26/12/21 27/14/21
f 10/10/22 26/12/22 12/12/22
f 33/6/23 44/8/23 34/8/23
f 23/6/24 34/8/24 24/8/24
f 30/20/25 32/25/25 22/25/25
f 27/14/26 38/16/26 28/16/26
f 25/10/27 34/8/27 35/10/27
f 22/1/28 31/4/28 21/4/28
f 29/18/29 38/16/29 39/18/29
f 25/10/30 36/12/30 26/12/30
f 21/4/31 33/6/31 23/6/31
f 29/18/32 40/20/32 30/20/32
f 50/20/33 52/25/33 42/25/33
f 40/20/34 42/25/34 32/25/34
f 37/14/35 48/16/35 38/16/35
f 34/8/36 45/10/36 35/10/36
f 32/1/37 41/4/37 31/4/37
f 38/16/38 49/18/38 39/18/38
f 35/10/39 46/12/39 36/12/39
f 33/6/40 41/4/40 43/6/40
f 39/18/41 50/20/41 40/20/41
f 36/12/42 47/14/42 37/14/42
f 59/26/43 55/27/43 53/28/43
f 47/14/44 58/16/44 48/16/44
f 44/8/45 55/10/45 45/10/45
f 42/1/46 51/4/46 41/4/46
f 49/18/47 58/16/47 59/18/47
f 46/12/48 55/10/48 56/12/48
f 41/4/49 53/6/49 43/6/49
f 49/18/50 60/20/50 50/20/50
f 47/14/51 56/12/51 57/14/51
f 43/6/52 54/8/52 44/8/52
f 2/1/1 4/4/1 3/2/1
f 4/4/2 6/6/2 5/5/2
f 6/6/3 8/8/3 7/7/3
f 8/8/4 10/10/4 9/9/4
f 10/10/5 12/12/5 11/11/5
f 12/12/6 14/14/6 13/13/6
f 14/14/7 16/16/7 15/15/7
f 16/16/8 18/18/8 17/17/8
f 8/8/9 24/8/9 25/10/9
f 18/18/10 20/20/10 19/19/10
f 20/20/11 2/25/11 1/21/11
f 19/24/12 1/63/12 3/64/12
f 3/64/12 5/65/12 7/22/12
f 7/22/12 9/66/12 11/67/12
f 11/67/12 13/68/12 15/23/12
f 15/23/12 17/69/12 19/24/12
f 19/24/12 3/64/12 7/22/12
f 7/22/12 11/67/12 15/23/12
f 27/14/13 26/12/13 36/12/13
f 2/1/14 22/1/14 21/4/14
f 6/6/15 23/6/15 24/8/15
f 4/4/16 21/4/16 23/6/16
f 20/20/17 30/20/17 22/25/17
f 18/18/18 29/18/18 30/20/18
f 16/16/19 28/16/19 29/18/19
f 14/14/20 27/14/20 28/16/20
f 14/14/21 12/12/21 26/12/21
f 10/10/22 25/10/22 26/12/22
f 33/6/23 43/6/23 44/8/23
f 23/6/24 33/6/24 34/8/24
f 30/20/25 40/20/25 32/25/25
f 27/14/26 37/14/26 38/16/26
f 25/10/27 24/8/27 34/8/27
f 22/1/28 32/1/28 31/4/28
f 29/18/29 28/16/29 38/16/29
f 25/10/30 35/10/30 36/12/30
f 21/4/31 31/4/31 33/6/31
f 29/18/32 39/18/32 40/20/32
f 50/20/33 60/20/33 52/25/33
f 40/20/34 50/20/34 42/25/34
f 37/14/35 47/14/35 48/16/35
f 34/8/36 44/8/36 45/10/36
f 32/1/37 42/1/37 41/4/37
f 38/16/38 48/16/38 49/18/38
f 35/10/39 45/10/39 46/12/39
f 33/6/40 31/4/40 41/4/40
f 39/18/41 49/18/41 50/20/41
f 36/12/42 46/12/42 47/14/42
f 53/28/43 51/70/43 52/71/43
f 52/71/43 60/72/43 59/26/43
f 59/26/43 58/73/43 57/74/43
f 57/74/43 56/75/43 55/27/43
f 55/27/43 54/76/43 53/28/43
f 53/28/43 52/71/43 59/26/43
f 59/26/43 57/74/43 55/27/43
f 47/14/44 57/14/44 58/16/44
f 44/8/45 54/8/45 55/10/45
f 42/1/46 52/1/46 51/4/46
f 49/18/47 48/16/47 58/16/47
f 46/12/48 45/10/48 55/10/48
f 41/4/49 51/4/49 53/6/49
f 49/18/50 59/18/50 60/20/50
f 47/14/51 46/12/51 56/12/51
f 43/6/52 53/6/52 54/8/52
usemtl fabric_cream
f 96/29/53 75/30/53 76/31/53
f 85/30/54 64/32/54 65/33/54
f 81/34/55 62/35/55 61/36/55
f 89/37/56 68/38/56 69/39/56
f 86/31/57 65/33/57 66/40/57
f 83/41/58 61/36/58 63/42/58
f 90/43/59 69/39/59 70/44/59
f 67/45/60 86/31/60 66/40/60
f 84/46/61 63/42/61 64/32/61
f 82/47/62 70/44/62 62/35/62
f 88/48/63 67/45/63 68/49/63
f 72/47/12 81/34/12 71/50/12
f 81/34/12 73/41/12 71/50/12
f 83/41/12 74/46/12 73/41/12
f 74/46/12 85/30/12 75/30/12
f 85/30/12 76/31/12 75/30/12
f 76/31/12 87/51/12 77/52/12
f 87/51/12 78/48/12 77/52/12
f 88/53/12 79/37/12 78/53/12
f 89/37/12 80/43/12 79/37/12
f 90/43/12 72/47/12 80/43/12
f 73/41/64 91/54/64 71/50/64
f 100/55/65 79/37/65 80/43/65
f 97/56/66 76/31/66 77/52/66
f 94/57/67 73/41/67 74/46/67
f 92/58/68 80/43/68 72/47/68
f 98/59/69 77/52/69 78/48/69
f 95/60/70 74/46/70 75/30/70
f 91/54/71 72/47/71 71/50/71
f 99/61/72 78/53/72 79/37/72
f 91/54/73 63/42/73 61/36/73
f 63/42/74 94/57/74 64/32/74
f 64/32/75 95/60/75 65/33/75
f 65/33/76 96/29/76 66/40/76
f 66/40/77 97/56/77 67/45/77
f 67/45/78 98/59/78 68/49/78
f 69/39/79 98/62/79 99/61/79
f 70/44/80 99/61/80 100/55/80
f 70/44/81 92/58/81 62/35/81
f 61/36/82 92/58/82 91/54/82
f 96/29/53 95/60/53 75/30/53
f 85/30/54 84/46/54 64/32/54
f 81/34/55 82/47/55 62/35/55
f 89/37/56 88/53/56 68/38/56
f 86/31/57 85/30/57 65/33/57
f 83/41/58 81/34/58 61/36/58
f 90/43/59 89/37/59 69/39/59
f 67/45/60 87/51/60 86/31/60
f 84/46/61 83/41/61 63/42/61
f 82/47/62 90/43/62 70/44/62
f 88/48/63 87/51/63 67/45/63
f 72/47/12 82/47/12 81/34/12
f 81/34/12 83/41/12 73/41/12
f 83/41/12 84/46/12 74/46/12
f 74/46/12 84/46/12 85/30/12
f 85/30/12 86/31/12 76/31/12
f 76/31/12 86/31/12 87/51/12
f 87/51/12 88/48/12 78/48/12
f 88/53/12 89/37/12 79/37/12
f 89/37/12 90/43/12 80/43/12
f 90/43/12 82/47/12 72/47/12
f 73/41/64 93/77/64 91/54/64
f 100/55/65 99/61/65 79/37/65
f 97/56/66 96/29/66 76/31/66
f 94/57/67 93/77/67 73/41/67
f 92/58/68 100/55/68 80/43/68
f 98/59/69 97/56/69 77/52/69
f 95/60/70 94/57/70 74/46/70
f 91/54/71 92/58/71 72/47/71
f 99/61/72 98/62/72 78/53/72
f 91/54/73 93/77/73 63/42/73
f 63/42/74 93/77/74 94/57/74
f 64/32/75 94/57/75 95/60/75
f 65/33/76 95/60/76 96/29/76
f 66/40/77 96/29/77 97/56/77
f 67/45/78 97/56/78 98/59/78
f 69/39/79 68/38/79 98/62/79
f 70/44/80 69/39/80 99/61/80
f 70/44/81 100/55/81 92/58/81
f 61/36/82 62/35/82 92/58/82
