# Blender 5.1.2
# www.blender.org
mtllib table.mtl
o table
v -0.500000 0.419442 0.500000
v -0.464262 0.469442 0.464262
v -0.500000 0.419442 -0.500000
v -0.464262 0.469442 -0.464262
v 0.500000 0.419442 0.500000
v 0.464262 0.469442 0.464262
v 0.500000 0.419442 -0.500000
v 0.464262 0.469442 -0.464262
v -0.500000 0.441674 0.500000
v -0.486116 0.469442 0.486116
v -0.486116 0.469442 -0.486116
v -0.500000 0.441674 -0.500000
v 0.486116 0.469442 -0.486116
v 0.500000 0.441674 -0.500000
v 0.486116 0.469442 0.486116
v 0.500000 0.441674 0.500000
v -0.450000 0.419442 0.450000
v -0.450000 0.419442 -0.450000
v 0.450000 0.419442 -0.450000
v 0.450000 0.419442 0.450000
v -0.450000 0.419442 0.405000
v -0.450000 0.419442 -0.405000
v 0.450000 0.419442 -0.405000
v 0.450000 0.419442 0.405000
v -0.405000 0.419442 0.450000
v -0.405000 0.419442 -0.450000
v 0.405000 0.419442 -0.450000
v 0.405000 0.419442 0.450000
v -0.405000 0.419442 0.405000
v -0.405000 0.419442 -0.405000
v 0.405000 0.419442 -0.405000
v 0.405000 0.419442 0.405000
v -0.450000 -0.000000 0.450000
v -0.450000 -0.000000 0.405000
v -0.450000 -0.000000 -0.450000
v -0.450000 -0.000000 -0.405000
v 0.450000 -0.000000 -0.450000
v 0.450000 -0.000000 -0.405000
v 0.450000 -0.000000 0.450000
v 0.450000 -0.000000 0.405000
v -0.405000 -0.000000 0.450000
v -0.405000 -0.000000 -0.450000
v 0.405000 -0.000000 -0.450000
v 0.405000 -0.000000 0.450000
v -0.405000 -0.000000 0.405000
v -0.405000 -0.000000 -0.405000
v 0.405000 -0.000000 -0.405000
v 0.405000 -0.000000 0.405000
vn -0.0000 1.0000 -0.0000
vn -0.8944 0.4472 -0.0000
vn -0.0000 0.4472 -0.8944
vn 0.8944 0.4472 -0.0000
vn -0.0000 0.4472 0.8944
vn -0.0000 -0.0000 1.0000
vn -1.0000 -0.0000 -0.0000
vn -0.0000 -0.0000 -1.0000
vn 1.0000 -0.0000 -0.0000
vn -0.0000 -1.0000 -0.0000
vt -0.500000 1.500000
vt 1.500000 -0.500000
vt 1.500000 1.500000
vt 0.986116 0.527122
vt 0.000000 0.499353
vt 0.013884 0.527122
vt 0.986116 0.527122
vt 0.000000 0.499353
vt 0.013884 0.527122
vt 1.000000 0.499353
vt 0.000000 0.477122
vt 1.000000 0.477122
vt 0.000000 0.477122
vt 0.035738 0.035738
vt 0.986116 0.013884
vt 0.964262 0.035738
vt 0.035738 0.964262
vt 0.013884 0.013884
vt 0.964262 0.964262
vt 0.013884 0.986116
vt 0.986116 0.986116
vt 1.500000 0.966047
vt 1.400000 0.033953
vt 1.400000 0.966047
vt -0.500000 0.966047
vt -0.400000 0.033953
vt -0.400000 0.966047
vt -0.500000 0.033953
vt 0.000000 0.000000
vt 0.095000 0.050000
vt 0.905000 0.050000
vt 0.950000 0.095000
vt 0.950000 0.905000
vt 1.000000 1.000000
vt 0.905000 0.950000
vt 0.095000 0.950000
vt 0.000000 1.000000
vt 0.050000 0.905000
vt 0.050000 0.095000
vt 0.095000 0.905000
vt 0.905000 0.905000
vt 0.905000 0.095000
vt 1.500000 0.033953
vt -0.500000 -0.500000
vt 0.950000 0.050000
vt 1.000000 0.000000
vt 0.050000 0.050000
vt 0.950000 0.950000
vt 0.050000 0.950000
vt 0.095000 0.095000
s 0
usemtl oak
f 11/4/2 9/5/2 10/6/2
f 13/7/3 12/8/3 11/9/3
f 15/6/4 14/10/4 13/4/4
f 10/9/5 16/10/5 15/7/5
f 16/10/6 1/11/6 5/12/6
f 9/5/7 3/12/7 1/13/7
f 2/14/1 15/15/1 6/16/1
f 4/17/1 10/18/1 2/14/1
f 12/8/8 7/12/8 3/11/8
f 8/19/1 11/20/1 4/17/1
f 14/10/9 5/13/9 7/12/9
f 6/16/1 13/21/1 8/19/1
f 1/29/10 25/30/10 28/31/10
f 24/32/10 23/33/10 7/34/10
f 27/35/10 26/36/10 3/37/10
f 22/38/10 21/39/10 1/29/10
f 30/40/10 31/41/10 32/42/10
f 11/4/2 12/10/2 9/5/2
f 13/7/3 14/10/3 12/8/3
f 15/6/4 16/5/4 14/10/4
f 10/9/5 9/8/5 16/10/5
f 16/10/6 9/8/6 1/11/6
f 9/5/7 12/10/7 3/12/7
f 2/14/1 10/18/1 15/15/1
f 4/17/1 11/20/1 10/18/1
f 12/8/8 14/10/8 7/12/8
f 8/19/1 13/21/1 11/20/1
f 14/10/9 16/5/9 5/13/9
f 6/16/1 15/15/1 13/21/1
f 20/45/10 5/46/10 1/29/10
f 1/29/10 17/47/10 25/30/10
f 28/31/10 20/45/10 1/29/10
f 7/34/10 5/46/10 20/45/10
f 7/34/10 20/45/10 24/32/10
f 23/33/10 19/48/10 7/34/10
f 3/37/10 7/34/10 19/48/10
f 3/37/10 19/48/10 27/35/10
f 26/36/10 18/49/10 3/37/10
f 1/29/10 3/37/10 18/49/10
f 1/29/10 18/49/10 22/38/10
f 21/39/10 17/47/10 1/29/10
f 28/31/10 25/30/10 29/50/10
f 29/50/10 21/39/10 22/38/10
f 30/40/10 26/36/10 27/35/10
f 29/50/10 22/38/10 30/40/10
f 32/42/10 28/31/10 29/50/10
f 23/33/10 24/32/10 32/42/10
f 30/40/10 27/35/10 31/41/10
f 31/41/10 23/33/10 32/42/10
f 32/42/10 29/50/10 30/40/10
usemtl planks_1
f 4/1/1 6/2/1 8/3/1
f 4/1/1 2/44/1 6/2/1
usemtl concrete
f 18/22/7 36/23/7 22/24/7
f 25/25/9 45/26/9 29/27/9
f 24/22/8 48/23/8 32/24/8
f 21/27/7 33/28/7 17/25/7
f 30/24/9 42/43/9 26/22/9
f 23/24/9 37/43/9 19/22/9
f 27/22/7 47/23/7 31/24/7
f 20/25/9 40/26/9 24/27/9
f 32/27/7 44/28/7 28/25/7
f 17/25/6 41/26/6 25/27/6
f 29/27/8 34/28/8 21/25/8
f 26/27/8 35/28/8 18/25/8
f 22/25/6 46/26/6 30/27/6
f 19/22/8 43/23/8 27/24/8
f 31/24/6 38/43/6 23/22/6
f 28/24/6 39/43/6 20/22/6
f 18/22/7 35/43/7 36/23/7
f 25/25/9 41/28/9 45/26/9
f 24/22/8 40/43/8 48/23/8
f 21/27/7 34/26/7 33/28/7
f 30/24/9 46/23/9 42/43/9
f 23/24/9 38/23/9 37/43/9
f 27/22/7 43/43/7 47/23/7
f 20/25/9 39/28/9 40/26/9
f 32/27/7 48/26/7 44/28/7
f 17/25/6 33/28/6 41/26/6
f 29/27/8 45/26/8 34/28/8
f 26/27/8 42/26/8 35/28/8
f 22/25/6 36/28/6 46/26/6
f 19/22/8 37/43/8 43/23/8
f 31/24/6 47/23/6 38/43/6
f 28/24/6 44/23/6 39/43/6
