# Blender 5.1.1
# www.blender.org
mtllib tv.mtl
o tv
v 0.050000 0.121560 0.728440
v 0.050000 1.078440 0.728440
v 0.050000 0.121560 -0.728440
v 0.050000 1.078440 -0.728440
v 0.006806 0.100000 0.147556
v -0.050000 0.144588 0.683118
v -0.005412 1.100000 0.750000
v -0.050000 1.055412 0.683118
v -0.050000 0.144588 -0.683118
v 0.006806 0.100000 -0.147556
v -0.005412 1.100000 -0.750000
v -0.050000 1.055412 -0.683118
v 0.050000 1.100000 -0.750000
v 0.037782 0.100000 -0.147556
v 0.037782 0.100000 0.147556
v 0.050000 1.100000 0.750000
v 0.040270 1.071214 -0.717438
v 0.040270 0.128786 -0.717438
v 0.040270 0.128786 0.717438
v 0.040270 1.071214 0.717438
v 0.050000 0.100000 0.750000
v 0.050000 0.100000 -0.750000
v -0.005412 0.100000 -0.750000
v -0.005412 0.100000 0.750000
v 0.037782 0.031448 0.147556
v 0.037782 0.031448 -0.147556
v 0.006806 0.031448 -0.147556
v 0.006806 0.031448 0.147556
v 0.146198 0.000000 0.590225
v 0.146198 0.000000 -0.590225
v -0.101610 0.000000 -0.590225
v -0.101610 0.000000 0.590225
vn 0.5962 -0.8028 -0.0000
vn -0.7071 -0.7071 -0.0000
vn -0.8321 -0.0000 0.5547
vn -0.7071 0.7071 -0.0000
vn -0.8321 -0.0000 -0.5547
vn -0.0000 -0.0000 1.0000
vn -1.0000 -0.0000 -0.0000
vn -0.0000 1.0000 -0.0000
vn -0.0000 -0.0000 -1.0000
vn 1.0000 -0.0000 -0.0000
vn 0.7491 -0.0000 0.6625
vn 0.7491 -0.0000 -0.6625
vn 0.5962 0.8028 -0.0000
vn -0.0000 -1.0000 -0.0000
vn -0.0000 0.9975 -0.0709
vn 0.2786 0.9604 -0.0000
vn -0.0000 0.9975 0.0709
vn -0.2786 0.9604 -0.0000
vt 0.619610 0.746407
vt 0.619610 0.503593
vt 0.375000 0.000000
vt 0.386147 0.238853
vt 0.375000 0.324313
vt 0.625000 0.000000
vt 0.386147 0.011147
vt 0.625000 0.324313
vt 0.613853 0.011147
vt 0.613853 0.238853
vt 0.267015 0.747964
vt 0.344455 0.747964
vt 0.625000 0.750000
vt 0.375000 0.888531
vt 0.375000 0.750000
vt 0.763531 0.500000
vt 0.625000 0.500000
vt 0.375000 0.500000
vt 0.380390 0.503593
vt 0.380390 0.746407
vt 0.000000 1.000000
vt 1.000000 0.000000
vt 0.000000 0.000000
vt 0.344455 0.502036
vt 0.236469 0.500000
vt 0.267015 0.502036
vt 0.236469 0.750000
vt 0.625000 0.888531
vt 0.763531 0.750000
vt 1.000000 1.000000
s 0
usemtl no_texture
f 2/1/1 17/2/1 4/2/1
f 24/3/2 9/4/2 23/5/2
f 7/6/3 6/7/3 24/3/3
f 11/8/4 8/9/4 7/6/4
f 23/5/5 12/10/5 11/8/5
f 5/11/6 25/12/6 15/12/6
f 8/9/7 9/4/7 6/7/7
f 16/13/6 24/14/6 21/15/6
f 11/16/8 16/13/8 13/17/8
f 11/8/9 22/18/9 23/5/9
f 3/19/10 13/17/10 4/2/10
f 1/20/10 22/18/10 3/19/10
f 2/1/10 13/17/10 16/13/10
f 2/1/10 21/15/10 1/20/10
f 4/2/11 18/19/11 3/19/11
f 1/20/12 20/1/12 2/1/12
f 3/19/13 19/20/13 1/20/13
f 14/24/14 21/15/14 15/12/14
f 5/11/14 23/25/14 10/26/14
f 10/26/14 22/18/14 14/24/14
f 15/12/14 24/27/14 5/11/14
f 27/26/15 30/24/15 31/26/15
f 10/26/7 28/11/7 5/11/7
f 14/24/9 27/26/9 10/26/9
f 15/12/10 26/24/10 14/24/10
f 30/24/14 32/11/14 31/26/14
f 25/12/16 30/24/16 26/24/16
f 25/12/17 32/11/17 29/12/17
f 27/26/18 32/11/18 28/11/18
f 2/1/1 20/1/1 17/2/1
f 24/3/2 6/7/2 9/4/2
f 7/6/3 8/9/3 6/7/3
f 11/8/4 12/10/4 8/9/4
f 23/5/5 9/4/5 12/10/5
f 5/11/6 28/11/6 25/12/6
f 8/9/7 12/10/7 9/4/7
f 16/13/6 7/28/6 24/14/6
f 11/16/8 7/29/8 16/13/8
f 11/8/9 13/17/9 22/18/9
f 3/19/10 22/18/10 13/17/10
f 1/20/10 21/15/10 22/18/10
f 2/1/10 4/2/10 13/17/10
f 2/1/10 16/13/10 21/15/10
f 4/2/11 17/2/11 18/19/11
f 1/20/12 19/20/12 20/1/12
f 3/19/13 18/19/13 19/20/13
f 14/24/14 22/18/14 21/15/14
f 5/11/14 24/27/14 23/25/14
f 10/26/14 23/25/14 22/18/14
f 15/12/14 21/15/14 24/27/14
f 27/26/15 26/24/15 30/24/15
f 10/26/7 27/26/7 28/11/7
f 14/24/9 26/24/9 27/26/9
f 15/12/10 25/12/10 26/24/10
f 30/24/14 29/12/14 32/11/14
f 25/12/16 29/12/16 30/24/16
f 25/12/17 28/11/17 32/11/17
f 27/26/18 31/26/18 32/11/18
usemtl tv_screen
f 17/21/10 19/22/10 18/23/10
f 17/21/10 20/30/10 19/22/10
