# Blender 5.1.1
# www.blender.org
mtllib tv_scene_room.mtl
o tv_scene_room
v 3.000000 0.100000 4.000000
v 3.000000 3.000000 4.000000
v 3.000000 3.000000 -4.000000
v -5.000000 0.100000 4.000000
v -5.000000 3.000000 4.000000
v 3.000000 0.100000 -4.000000
v -5.000000 0.100000 -4.000000
v -5.000000 3.000000 -4.000000
v 3.000000 2.539487 -1.946275
v 3.000000 1.059574 -1.946275
v 3.000000 2.539487 -2.948940
v 3.000000 1.059574 -2.948940
v 3.309786 2.539487 -1.946275
v 3.309786 1.059574 -1.946275
v 3.309786 2.539487 -2.948940
v 3.309786 1.059574 -2.948940
v 0.340160 2.267710 4.000000
v 0.044469 0.000000 4.000000
v 0.044469 1.710976 4.000000
v 1.516320 1.710976 4.000000
v 1.516320 0.000000 4.000000
v 1.220629 2.267710 4.000000
v 0.368039 2.208089 4.000000
v 0.091073 0.000000 4.000000
v 0.091073 1.686611 4.000000
v 1.469716 1.686611 4.000000
v 1.469716 0.000000 4.000000
v 1.192750 2.208089 4.000000
v 1.516320 1.710976 3.936507
v 1.516320 0.000000 3.936507
v 1.220629 2.267710 3.936507
v 0.340160 2.267710 3.936507
v 0.044469 1.710976 3.936507
v 0.044469 0.000000 3.936507
v 1.469716 1.686611 3.936507
v 1.469716 0.000000 3.936507
v 1.192750 2.208089 3.936507
v 0.368039 2.208089 3.936507
v 0.091073 1.686611 3.936507
v 0.091073 0.000000 3.936507
v 0.340160 2.267710 5.460417
v 0.044469 0.000000 5.460417
v 0.044469 1.710976 5.460417
v 1.516320 1.710976 5.460417
v 1.516320 0.000000 5.460417
v 1.220629 2.267710 5.460417
v 3.000000 -0.000000 4.000000
v -5.000000 0.000000 4.000000
v 3.000000 -0.000000 -4.000000
v -5.000000 0.000000 -4.000000
v 0.044469 -0.000000 4.000000
v 1.516320 -0.000000 4.000000
v -5.000000 0.100000 3.980000
v 0.044469 0.100000 3.980000
v 3.000000 0.100000 3.980000
v 1.516320 0.100000 3.980000
v -5.000000 0.000000 3.980000
v 0.044469 -0.000000 3.980000
v 3.000000 -0.000000 3.980000
v 1.516320 -0.000000 3.980000
v 3.000000 0.100000 -3.980000
v -5.000000 0.100000 -3.980000
v 3.000000 -0.000000 -3.980000
v -5.000000 0.000000 -3.980000
v 2.980000 0.100000 4.000000
v 2.980000 0.100000 -4.000000
v 2.980000 -0.000000 4.000000
v 2.980000 -0.000000 -4.000000
v 0.044469 0.000000 4.000000
v -4.000000 0.000000 4.000000
v 4.000000 0.000000 4.000000
v -4.000000 0.000000 -4.000000
v 4.000000 0.000000 -4.000000
v -4.000000 0.000000 12.000000
v 4.000000 0.000000 12.000000
v -5.000000 3.000000 -4.000000
v 3.000000 3.000000 -4.000000
v -5.000000 3.000000 4.000000
v 3.000000 3.000000 4.000000
v 3.000000 1.059574 -2.447607
v 3.000000 0.579787 -3.474470
v 3.000000 0.100000 0.000000
v 3.000000 1.550000 4.000000
v 3.000000 3.000000 0.000000
v 3.000000 2.769744 -3.474470
v 3.000000 2.539487 -2.447607
v 3.000000 1.799531 -1.946275
v 3.000000 1.799531 -2.948940
v 3.000000 1.550000 -4.000000
v -2.477766 0.050000 4.000000
v -5.000000 1.550000 4.000000
v -1.000000 3.000000 4.000000
v 2.258160 0.050000 4.000000
v 1.516320 0.855488 4.000000
v 1.368475 1.989343 4.000000
v 0.780395 2.267710 4.000000
v 0.192315 1.989343 4.000000
v 0.044469 0.855488 4.000000
v -1.000000 0.100000 -4.000000
v -1.000000 3.000000 -4.000000
v -5.000000 1.550000 -4.000000
v 3.154893 1.059574 -2.948940
v 3.154893 1.059574 -1.946275
v 3.309786 1.059574 -2.447607
v 3.154893 2.539487 -1.946275
v 3.154893 2.539487 -2.948940
v 3.309786 2.539487 -2.447607
v 3.309786 1.799531 -2.948940
v 3.309786 1.799531 -1.946275
v 1.469716 0.843306 4.000000
v 1.331233 1.947350 4.000000
v 0.780395 2.208089 4.000000
v 0.229556 1.947350 4.000000
v 0.091073 0.843306 4.000000
v 0.067771 0.000000 4.000000
v 0.044469 1.710976 3.968253
v 0.340160 2.267710 3.968253
v 0.091073 1.686611 3.968253
v 0.091073 0.000000 3.968253
v 1.493018 0.000000 4.000000
v 1.516320 0.855488 3.936507
v 1.368475 1.989343 3.936507
v 0.780395 2.267710 3.936507
v 0.192315 1.989343 3.936507
v 0.044469 0.855488 3.936507
v 1.469716 0.843306 3.936507
v 1.331233 1.947350 3.936507
v 0.780395 2.208089 3.936507
v 0.229556 1.947350 3.936507
v 0.091073 0.843306 3.936507
v 0.067771 0.000000 3.936507
v 0.067771 1.698794 3.936507
v 0.354100 2.237900 3.936507
v 1.206690 2.237900 3.936507
v 1.493018 1.698794 3.936507
v 1.493018 0.000000 3.936507
v 1.192750 2.208089 3.968253
v 1.469716 1.686611 3.968253
v 1.516320 0.000000 3.968253
v 1.516320 1.710976 3.968253
v 0.044469 0.000000 3.968253
v 1.220629 2.267710 3.968253
v 0.368039 2.208089 3.968253
v 1.469716 0.000000 3.968253
v 1.493018 1.698794 4.000000
v 1.206690 2.237900 4.000000
v 0.354100 2.237900 4.000000
v 0.067771 1.698794 4.000000
v 1.516320 0.855488 5.460417
v 1.368475 1.989343 5.460417
v 0.780395 2.267710 5.460417
v 0.192315 1.989343 5.460417
v 0.044469 0.855488 5.460417
v 0.044469 1.710976 4.730208
v 0.340160 2.267710 4.730208
v 1.220629 2.267710 4.730208
v 1.516320 1.710976 4.730208
v 0.044469 0.000000 4.730208
v 1.516320 0.000000 4.730208
v 3.000000 -0.000000 0.000000
v -2.477766 0.000000 4.000000
v 2.258160 -0.000000 4.000000
v -1.000000 0.000000 -4.000000
v -5.000000 0.050000 4.000000
v 0.044469 -0.000000 4.000000
v 3.000000 0.050000 -4.000000
v -5.000000 0.050000 -4.000000
v 3.000000 0.050000 4.000000
v 1.516320 -0.000000 4.000000
v -2.477766 0.100000 3.980000
v 2.258160 0.100000 3.980000
v -2.477766 0.000000 3.980000
v 2.258160 -0.000000 3.980000
v -5.000000 0.050000 3.980000
v 0.044469 0.050000 3.980000
v 3.000000 0.050000 3.980000
v 1.516320 0.050000 3.980000
v 1.516320 0.050000 3.990000
v 1.516320 -0.000000 3.990000
v 0.044469 0.050000 3.990000
v -5.000000 0.100000 3.990000
v 0.044469 -0.000000 3.990000
v -5.000000 0.000000 3.990000
v 3.000000 0.100000 3.990000
v 3.000000 -0.000000 3.990000
v -1.000000 0.100000 -3.980000
v -1.000000 0.000000 -3.980000
v 3.000000 0.050000 -3.980000
v -5.000000 0.050000 -3.980000
v 3.000000 0.100000 -3.990000
v 3.000000 -0.000000 -3.990000
v -5.000000 0.000000 -3.990000
v -5.000000 0.100000 -3.990000
v 2.980000 0.100000 0.000000
v 2.980000 -0.000000 0.000000
v 2.980000 0.050000 -4.000000
v 2.980000 0.050000 4.000000
v 2.990000 0.100000 -4.000000
v 2.990000 0.100000 4.000000
v 2.990000 -0.000000 4.000000
v 2.990000 -0.000000 -4.000000
v 0.044469 0.855488 4.000000
v 0.067771 0.000000 4.000000
v -4.000000 0.000000 0.000000
v 0.000000 0.000000 4.000000
v 4.000000 0.000000 0.000000
v 0.000000 0.000000 -4.000000
v 0.000000 0.000000 12.000000
v -4.000000 0.000000 8.000000
v 4.000000 0.000000 8.000000
v -5.000000 3.000000 0.000000
v -1.000000 3.000000 -4.000000
v 3.000000 3.000000 0.000000
v -1.000000 3.000000 4.000000
v 3.000000 0.579787 -2.973137
v 3.000000 0.579787 1.026863
v 3.000000 2.029787 1.026863
v 3.000000 2.769744 1.026863
v 3.000000 2.769744 -2.973137
v 3.000000 2.029787 -3.474470
v -2.477766 0.905488 4.000000
v -2.477766 2.355488 4.000000
v 2.258160 2.355488 4.000000
v 2.258160 0.905488 4.000000
v -2.329920 2.633855 4.000000
v 2.110314 2.633855 4.000000
v 1.670080 2.633855 4.000000
v -1.000000 1.550000 -4.000000
v 3.154893 1.059574 -2.447607
v 3.154893 2.539487 -2.447607
v 3.154893 1.799531 -2.948940
v 3.154893 1.799531 -1.946275
v 3.309786 1.799531 -2.447607
v 0.067771 0.000000 3.968253
v 1.516320 0.855488 3.968253
v 1.331233 1.947350 3.968253
v 0.192315 1.989343 3.968253
v 0.091073 0.843306 3.968253
v 0.067771 0.843306 3.936507
v 0.794334 2.237900 3.936507
v 1.493018 0.843306 3.936507
v 0.206254 1.959532 3.936507
v 1.354535 1.959532 3.936507
v 0.044469 0.855488 3.968253
v 1.368475 1.989343 3.968253
v 0.780395 2.208089 3.968253
v 0.229556 1.947350 3.968253
v 0.780395 2.267710 3.968253
v 1.493018 0.000000 3.968253
v 1.469716 0.843306 3.968253
v 1.493018 0.843306 4.000000
v 1.354535 1.959532 4.000000
v 0.766455 2.237900 4.000000
v 0.206254 1.959532 4.000000
v 0.067771 0.843306 4.000000
v 0.192315 1.989343 4.730208
v 1.368475 1.989343 4.730208
v 0.044469 0.855488 4.730208
v 0.780395 2.267710 4.730208
v 1.516320 0.855488 4.730208
v -2.477766 0.100000 3.990000
v 3.000000 0.050000 -3.990000
v 2.990000 0.100000 0.000000
v 1.516320 -0.000000 3.990000
v -2.477766 0.050000 3.980000
v 2.258160 0.050000 3.980000
v 0.044469 -0.000000 3.990000
v -2.477766 0.000000 3.990000
v 2.258160 0.100000 3.990000
v 3.000000 0.050000 3.990000
v -5.000000 0.050000 3.990000
v 2.258160 -0.000000 3.990000
v -1.000000 0.050000 -3.980000
v -5.000000 0.050000 -3.990000
v -1.000000 0.100000 -3.990000
v -1.000000 0.000000 -3.990000
v 2.980000 0.050000 0.000000
v 2.990000 0.050000 4.000000
v 2.990000 0.050000 -4.000000
v 2.990000 -0.000000 0.000000
v 0.000000 0.000000 0.000000
v 0.000000 0.000000 8.000000
v -1.000000 3.000000 0.000000
v 3.000000 2.199687 0.035817
v 3.000000 2.199687 -3.299293
v -0.553280 2.755903 4.000000
v -2.333333 1.066667 -4.000000
v 3.103262 1.059574 -2.614718
v 3.103262 2.539487 -2.280496
v 3.103262 2.046183 -2.948940
v 3.103262 1.552878 -1.946275
v 3.309786 2.046183 -2.614718
v 0.075538 0.000000 3.978836
v 1.516320 1.140651 3.978836
v 1.377394 1.860437 3.978836
v 0.143033 1.896554 3.978836
v 0.091073 1.124408 3.978836
v 0.075538 0.562204 3.936507
v 0.642943 2.247837 3.936507
v 1.500786 1.132529 3.936507
v 0.167860 1.868559 3.936507
v 1.309900 2.062258 3.936507
v 0.044469 0.570325 3.978836
v 1.319193 2.082132 3.978836
v 0.917847 2.208089 3.978836
v 0.275717 2.034263 3.978836
v 0.633650 2.267710 3.978836
v 1.500786 0.000000 3.978836
v 1.469716 0.562204 3.978836
v 1.485251 0.562204 4.000000
v 1.392929 1.868559 4.000000
v 0.917847 2.247837 4.000000
v 0.250890 2.062258 4.000000
v 0.060004 1.132529 4.000000
v 0.143033 1.896554 4.486806
v 1.319193 2.082132 4.486806
v 0.044469 0.570325 4.973611
v 0.633650 2.267710 4.486806
v 1.516320 1.140651 4.486806
v -3.318511 0.100000 3.986667
v 3.000000 0.033333 -3.993333
v 2.993333 0.100000 1.333333
v 1.516320 -0.000000 3.993333
v -3.318511 0.066667 3.980000
v 2.010880 0.066667 3.980000
v 0.044469 0.033333 3.986667
v -1.637021 0.000000 3.993333
v 2.010880 0.066667 3.993333
v 3.000000 0.066667 3.993333
v -5.000000 0.033333 3.993333
v 2.505440 -0.000000 3.993333
v 0.333333 0.066667 -3.980000
v -5.000000 0.066667 -3.993333
v 0.333333 0.100000 -3.993333
v -2.333333 0.000000 -3.993333
v 2.980000 0.066667 1.333333
v 2.993333 0.033333 4.000000
v 2.993333 0.066667 -4.000000
v 2.993333 -0.000000 -1.333333
v -1.333333 0.000000 1.333333
v -1.333333 0.000000 9.333334
v -2.333333 3.000000 -1.333333
v 3.000000 0.739716 -2.965071
v 3.000000 0.419858 -0.648758
v 3.000000 1.386525 2.017909
v 3.000000 2.846496 -0.648758
v 3.000000 2.692992 -2.965071
v 3.000000 1.386525 -3.649647
v -1.637021 0.603659 4.000000
v -3.318511 1.603659 4.000000
v 2.505440 1.603659 4.000000
v 2.010880 0.603659 4.000000
v -1.538457 2.326229 4.000000
v 1.912316 2.326229 4.000000
v 1.520263 2.511807 4.000000
v 0.333333 2.033333 -4.000000
v 3.206524 1.059574 -2.280496
v 3.206524 2.539487 -2.614718
v 3.206524 1.552878 -2.948940
v 3.206524 2.046183 -1.946275
v 3.309786 1.552878 -2.280496
v 0.060004 0.000000 3.957671
v 1.516320 0.570325 3.957671
v 1.285072 2.034263 3.957671
v 0.241597 2.082132 3.957671
v 0.091073 0.562204 3.957671
v 0.060004 1.132529 3.936507
v 0.927140 2.227963 3.936507
v 1.485251 0.562204 3.936507
v 0.250890 2.062258 3.936507
v 1.392929 1.868559 3.936507
v 0.044469 1.140651 3.957671
v 1.417757 1.896554 3.957671
v 0.642943 2.208089 3.957671
v 0.183395 1.860437 3.957671
v 0.927139 2.267710 3.957671
v 1.485251 0.000000 3.957671
v 1.469716 1.124408 3.957671
v 1.500786 1.132529 4.000000
v 1.309900 2.062258 4.000000
v 0.633650 2.227963 4.000000
v 0.167860 1.868559 4.000000
v 0.075538 0.562204 4.000000
v 0.241597 2.082132 4.973611
v 1.417757 1.896554 4.973611
v 0.044469 1.140651 4.486806
v 0.927139 2.267710 4.973611
v 1.516320 0.570325 4.973611
v -1.637021 0.066667 3.993333
v 3.000000 0.066667 -3.986667
v 2.986667 0.100000 -1.333333
v 1.516320 0.033333 3.986667
v -1.637021 0.033333 3.980000
v 2.505440 0.033333 3.980000
v 0.044469 -0.000000 3.993333
v -3.318511 0.000000 3.986667
v 2.505440 0.100000 3.986667
v 3.000000 0.033333 3.986667
v -5.000000 0.066667 3.986667
v 2.010880 -0.000000 3.986667
v -2.333333 0.033333 -3.980000
v -5.000000 0.033333 -3.986666
v -2.333333 0.100000 -3.986667
v 0.333333 -0.000000 -3.986667
v 2.980000 0.033333 -1.333333
v 2.986667 0.066667 4.000000
v 2.986667 0.033333 -4.000000
v 2.986667 -0.000000 1.333333
v 1.333333 0.000000 -1.333333
v 1.333333 0.000000 6.666667
v 0.333333 3.000000 1.333333
vn -1.0000 -0.0000 -0.0000
vn -0.0000 -0.0000 -1.0000
vn -0.0000 -0.0000 1.0000
vn -0.0000 1.0000 -0.0000
vn -0.0000 -1.0000 -0.0000
vn 1.0000 -0.0000 -0.0000
vn -0.8832 -0.4691 -0.0000
vn -0.8832 0.4691 -0.0000
vn 0.8832 0.4691 -0.0000
vn 0.8832 -0.4691 -0.0000
vn 1.0000 -0.0000 0.0001
vn -0.0132 0.1961 0.9805
vn -1.0000 -0.0000 0.0001
vn 0.0039 0.1961 0.9806
vn -1.0000 -0.0000 -0.0001
vn 1.0000 -0.0000 -0.0001
vt 0.182344 3.141774
vt 0.768132 3.141774
vt 0.000061 4.999939
vt 0.364627 1.283608
vt 0.633630 2.522385
vt 1.536202 1.283608
vt 0.950414 1.283608
vt 0.768132 0.328510
vt 0.182344 0.328510
vt 0.000061 0.000061
vt 0.950414 0.656958
vt 1.536202 0.656958
vt 0.364627 0.656958
vt 0.633630 0.437992
vt 0.579780 1.662420
vt 0.193301 2.220807
vt 0.289920 0.831241
vt 0.000061 2.500000
vt 0.289920 3.331180
vt 1.187538 2.500000
vt 2.375015 2.500000
vt 2.375015 4.999939
vt 1.583364 1.666687
vt 2.375015 0.000061
vt 1.187538 0.000061
vt 1.536202 0.970283
vt 1.536202 0.865841
vt 0.364627 0.970283
vt 0.364627 1.074725
vt 0.755152 0.656958
vt 1.145677 1.283608
vt 0.950414 0.970283
vt 0.755152 0.865841
vt 0.000000 0.000000
vt 0.493778 0.060104
vt 0.475112 0.060104
vt 0.475112 -0.694391
vt 0.512444 0.814599
vt 0.487556 0.311603
vt 0.475112 0.814599
vt 0.493778 0.814599
vt 0.493778 1.023068
vt 0.475112 1.023068
vt 0.475112 1.253026
vt 0.512444 0.793111
vt 0.487556 0.946416
vt 0.475112 0.793111
vt 0.493778 0.793111
vt 0.493778 1.060104
vt 0.475112 1.060104
vt 0.475112 1.305609
vt 0.487556 0.978269
vt 0.493778 0.049360
vt 0.475112 0.049360
vt 0.475112 -0.694391
vt 0.487556 0.297277
vt 0.067302 -0.694391
vt 0.085569 -0.198557
vt 0.081002 -0.694391
vt 0.094703 0.049360
vt 0.081002 0.049360
vt 0.094703 0.793111
vt 0.094703 -0.694391
vt 0.508196 1.279318
vt 0.500000 1.305609
vt 0.758842 1.305609
vt 0.257550 1.253026
vt 0.419183 1.288082
vt 0.241158 1.305609
vt 0.249354 1.279318
vt 0.918997 0.049360
vt 0.932698 0.060104
vt 0.932698 -0.694391
vt 0.905297 0.793111
vt 0.923564 0.304440
vt 0.932698 0.814599
vt 0.918997 0.803855
vt 0.067302 0.814599
vt 0.139852 0.953579
vt 0.081002 0.803855
vt 0.176126 1.023068
vt 0.162426 1.033813
vt 0.837574 1.033813
vt 0.845770 1.060104
vt 0.742450 1.253026
vt 0.811330 1.124412
vt 0.750646 1.279318
vt 0.512444 -0.694391
vt 0.487556 -0.191394
vt 0.493778 -0.694391
vt 0.512444 1.305609
vt 0.487556 1.141939
vt 0.493778 1.305609
vt 0.500000 0.685058
vt 0.500000 0.657060
vt 0.257550 0.657060
vt 0.742450 0.713057
vt 0.580817 0.675726
vt 0.742450 0.657060
vt 0.742450 0.685058
vt 0.512444 1.253026
vt 0.487556 1.099721
vt 0.493778 1.253026
vt 0.758842 0.657060
vt 0.241158 0.713057
vt 0.413719 0.675726
vt 0.241158 0.657060
vt 0.241158 0.685058
vt 0.512444 -0.694391
vt 0.487556 -0.198557
vt 0.493778 -0.694391
vt 2.375015 0.927338
vt 1.108413 0.342019
vt 1.425064 0.116474
vt 1.425064 0.860225
vt 1.020519 0.927338
vt 0.656915 0.991159
vt 0.747816 0.860225
vt 0.747816 1.090182
vt 0.661115 1.159740
vt 0.579780 1.387281
vt 0.634003 1.143874
vt 0.579779 1.112141
vt 0.661115 0.884600
vt 0.747816 1.550125
vt 0.800149 1.754822
vt 1.020519 1.847223
vt 0.691804 1.587557
vt 0.527446 1.457723
vt 1.425064 1.320167
vt 1.697767 1.847223
vt 2.375015 1.847223
vt 1.290215 1.495852
vt 0.747816 1.320167
vt -0.393679 0.816501
vt -0.043697 1.118640
vt -0.393679 1.043105
vt 0.131295 1.269709
vt 0.131295 1.043105
vt 0.656269 1.269709
vt -0.393679 1.269709
vt -0.393679 -0.269709
vt -0.043697 0.032429
vt -0.393679 -0.043105
vt 0.131295 0.183499
vt 0.131295 -0.043105
vt 0.656269 0.183499
vt -0.393679 0.183499
vt 0.131295 1.884752
vt 0.131295 2.499795
vt -0.393680 2.499795
vt 0.656269 1.884752
vt 0.656270 2.499795
vt 0.306286 2.089767
vt -0.043696 0.605500
vt -0.393679 0.500000
vt 0.131295 0.816501
vt 0.131295 0.500000
vt 0.656270 0.816501
vt 0.131295 -0.884752
vt -0.393680 -0.884752
vt -0.393680 -1.499795
vt 0.131295 -0.269709
vt 0.656269 -0.269709
vt -0.043697 -0.679738
vt -1.258146 -1.375469
vt -0.697649 -1.368802
vt -1.258146 -1.370469
vt -0.417401 -1.365469
vt -0.417401 -1.370469
vt 0.423344 -1.365469
vt -1.258146 -1.365469
vt 1.405188 0.624531
vt 1.408521 0.624531
vt 1.408521 2.624531
vt 1.401855 -1.375469
vt 1.406299 -0.042135
vt 1.408521 -1.375469
vt 1.405188 -1.375469
vt -0.417401 0.113906
vt -0.417401 0.138906
vt 0.423344 0.138906
vt -1.258146 0.088906
vt -0.697649 0.122240
vt -1.258146 0.138906
vt -1.258146 0.113906
vt 1.161241 0.113906
vt 1.161241 0.138906
vt 1.408521 0.138906
vt 0.913961 0.088906
vt 1.078815 0.122240
vt 0.913961 0.138906
vt 0.913961 0.113906
vt 1.161241 -1.370469
vt 1.161241 -1.375469
vt 0.913961 -1.365469
vt 1.078815 -1.372135
vt 0.913961 -1.375469
vt 0.913961 -1.370469
vt 0.075188 0.113906
vt 0.075188 0.138906
vt 1.408521 0.088906
vt 0.519632 0.122240
vt 1.408521 0.113906
vt 0.075188 2.619531
vt 0.075188 2.624531
vt -1.258146 2.624531
vt 1.408521 2.614531
vt 0.519632 2.621198
vt 1.408521 2.619531
vt 0.887721 0.113906
vt 0.887721 0.138906
vt 2.221054 0.138906
vt -0.445613 0.088906
vt 0.443276 0.122240
vt -0.445613 0.138906
vt -0.445613 0.113906
vt 0.500000 0.500000
vt 0.500000 -1.500000
vt 2.500000 -1.500000
vt -1.500000 0.500000
vt -1.500000 2.500000
vt -1.500000 -1.500000
vt -0.166667 -0.166667
vt 1.955609 0.641835
vt 1.815807 0.646876
vt 1.955609 0.328510
vt 2.095411 2.094536
vt 1.955609 3.141774
vt 1.303760 3.761162
vt 1.187538 4.999939
vt 0.121583 2.094536
vt 0.182344 0.641835
vt 0.243105 0.646876
vt 1.303760 0.219027
vt 1.923517 2.898128
vt 1.697767 3.423581
vt 2.375015 3.423581
vt 1.131865 3.949034
vt 0.510290 3.423581
vt 0.510290 0.463700
vt 1.697767 0.463700
vt 1.131865 0.309154
vt 2.375015 0.463700
vt 1.923516 0.618246
vt 1.697767 0.927338
vt 0.533453 2.836527
vt 0.289920 0.556101
vt 0.533453 0.679847
vt 0.800149 1.019740
vt 0.386540 0.924874
vt 0.791713 3.333313
vt 1.536202 1.074725
vt 0.364627 0.865841
vt 1.145677 0.656958
vt 0.755152 1.283608
vt 1.145677 1.074725
vt 0.500000 -0.191394
vt 0.512444 0.060104
vt 0.500000 1.099721
vt 0.512444 1.023068
vt 0.500000 1.141939
vt 0.512444 1.060104
vt 0.500000 -0.198557
vt 0.512444 0.049360
vt 0.067302 0.060104
vt 0.076436 0.304440
vt 0.586281 1.270554
vt 0.500000 1.253026
vt 0.914431 -0.198557
vt 0.905297 -0.694391
vt 0.918997 -0.694391
vt 0.905297 0.049360
vt 0.154230 1.060104
vt 0.188670 1.124412
vt 0.860148 0.953579
vt 0.823874 1.023068
vt 0.500000 0.311603
vt 0.500000 0.978269
vt 0.419183 0.694391
vt 0.257550 0.713057
vt 0.257550 0.685058
vt 0.500000 0.713057
vt 0.500000 0.946416
vt 0.586281 0.694391
vt 0.758842 0.713057
vt 0.758842 0.685058
vt 0.500000 0.297277
vt 1.290215 0.882596
vt 0.691804 1.097502
vt 0.527446 1.182584
vt 0.526593 0.992180
vt 0.418665 1.159740
vt 0.656915 1.297787
vt 0.950043 0.880111
vt 1.187508 0.923612
vt 0.237556 0.396555
vt 0.306287 0.967571
vt 0.656269 1.043105
vt 0.306286 -0.118640
vt 0.656269 -0.043105
vt -0.393679 1.884752
vt -0.043697 1.679738
vt 0.306287 0.394500
vt 0.656269 0.500000
vt 0.131295 -1.499795
vt 0.656270 -1.499795
vt 0.306286 -1.089767
vt 0.656269 -0.884752
vt -0.417401 -1.375469
vt 0.423344 -1.375469
vt -0.137152 -1.372135
vt 0.423344 -1.370469
vt 1.404077 1.291198
vt 1.401855 2.624531
vt 1.405188 2.624531
vt 1.401855 0.624531
vt -0.137152 0.105573
vt 0.423344 0.088906
vt 0.423344 0.113906
vt -0.417401 0.088906
vt 1.243668 0.105573
vt 1.161241 0.088906
vt 1.243668 -1.368802
vt 1.408521 -1.365469
vt 1.408521 -1.370469
vt 1.161241 -1.365469
vt -0.369257 0.105573
vt 0.075188 0.088906
vt -0.369257 2.617865
vt -1.258146 2.614531
vt -1.258146 2.619531
vt 0.075188 2.614531
vt 1.332165 0.105573
vt 2.221054 0.088906
vt 2.221054 0.113906
vt 0.887721 0.088906
vt 2.500000 0.500000
vt 2.500000 2.500000
vt 1.166667 1.166667
vt 0.500000 2.500000
s 0
usemtl stucco_1
f 218/1/1 217/2/1 2/3/1
f 9/4/1 284/5/1 218/1/1
f 10/6/1 284/5/1 87/7/1
f 220/8/1 85/9/1 3/10/1
f 88/11/1 220/8/1 12/12/1
f 11/13/1 285/14/1 88/11/1
f 17/15/2 286/16/2 227/17/2
f 92/18/2 225/19/2 5/3/2
f 227/17/2 92/18/2 2/10/2
f 228/20/3 99/21/3 6/22/3
f 8/10/3 287/23/3 228/20/3
f 7/24/3 287/23/3 101/25/3
f 229/26/4 80/26/4 10/6/4
f 16/12/4 288/27/4 229/26/4
f 12/12/4 288/27/4 102/12/4
f 230/28/5 86/28/5 11/13/5
f 13/4/5 289/29/5 230/28/5
f 9/4/5 289/29/5 105/4/5
f 231/11/3 88/11/3 12/12/3
f 15/13/3 290/30/3 231/11/3
f 11/13/3 290/30/3 106/13/3
f 232/7/2 87/7/2 9/4/2
f 14/6/2 291/31/2 232/7/2
f 10/6/2 291/31/2 103/6/2
f 233/32/1 108/11/1 16/12/1
f 13/4/1 292/33/1 233/32/1
f 15/13/1 292/33/1 107/28/1
f 234/34/5 203/34/5 69/34/5
f 119/34/5 234/34/5 40/34/5
f 24/34/5 293/34/5 119/34/5
f 249/34/5 120/34/5 27/34/5
f 139/34/5 249/34/5 30/34/5
f 21/34/5 308/34/5 139/34/5
f 21/112/3 310/113/3 120/114/3
f 110/54/3 251/115/3 26/47/3
f 27/55/3 310/113/3 110/54/3
f 20/116/3 311/117/3 145/118/3
f 111/43/3 252/119/3 28/44/3
f 26/47/3 311/117/3 111/43/3
f 253/120/3 96/121/3 17/15/3
f 28/99/3 312/122/3 253/120/3
f 22/123/3 312/122/3 146/124/3
f 254/125/3 97/126/3 19/127/3
f 23/44/3 313/128/3 254/125/3
f 17/15/3 313/128/3 147/129/3
f 255/130/3 98/131/3 18/132/3
f 25/47/3 314/133/3 255/130/3
f 19/127/3 314/133/3 148/134/3
f 17/135/10 315/136/10 97/137/10
f 154/138/10 256/139/10 43/140/10
f 19/141/10 315/136/10 154/138/10
f 20/142/7 316/143/7 95/144/7
f 156/145/7 257/146/7 46/147/7
f 22/148/7 316/143/7 156/145/7
f 258/149/6 158/150/6 18/151/6
f 153/152/6 258/149/6 43/140/6
f 42/153/6 317/154/6 153/152/6
f 22/148/5 318/155/5 96/156/5
f 155/157/5 259/158/5 41/159/5
f 17/135/5 318/155/5 155/157/5
f 260/160/1 94/161/1 21/162/1
f 157/163/1 260/160/1 44/164/1
f 20/142/1 319/165/1 157/163/1
f 262/24/6 166/24/6 6/24/6
f 63/24/11 321/24/11 262/24/11
f 49/24/6 321/24/6 191/24/6
f 21/34/1 323/34/1 169/34/1
f 179/34/1 264/34/1 60/34/1
f 52/34/1 323/34/1 179/34/1
f 18/34/6 326/34/6 180/34/6
f 58/34/6 326/34/6 267/34/6
f 180/34/6 175/34/6 54/34/6
f 268/34/5 161/34/5 48/34/5
f 58/34/5 327/34/5 268/34/5
f 51/34/5 327/34/5 182/34/5
f 270/22/6 168/22/6 47/22/6
f 55/22/6 329/22/6 270/22/6
f 1/22/6 329/22/6 184/22/6
f 271/34/1 164/34/1 4/34/1
f 57/34/13 330/34/13 271/34/13
f 48/34/1 330/34/1 183/34/1
f 272/34/5 162/34/5 52/34/5
f 59/34/5 331/34/5 272/34/5
f 47/34/5 331/34/5 185/34/5
f 274/34/1 167/34/1 50/34/1
f 62/34/1 333/34/1 274/34/1
f 7/34/1 333/34/1 193/34/1
f 276/34/5 163/34/5 49/34/5
f 64/34/5 335/34/5 276/34/5
f 50/34/5 335/34/5 192/34/5
f 278/22/3 168/22/3 1/22/3
f 67/22/3 337/22/3 278/22/3
f 47/22/3 337/22/3 200/22/3
f 279/24/2 166/24/2 49/24/2
f 66/24/2 338/24/2 279/24/2
f 6/24/2 338/24/2 198/24/2
f 280/34/5 160/34/5 47/34/5
f 68/34/5 339/34/5 280/34/5
f 49/34/5 339/34/5 201/34/5
f 80/26/1 215/225/1 10/6/1
f 12/12/1 343/226/1 80/26/1
f 215/225/1 81/227/1 6/24/1
f 6/24/1 344/228/1 215/225/1
f 216/229/1 82/21/1 1/22/1
f 10/6/1 344/228/1 216/229/1
f 1/22/1 345/230/1 216/229/1
f 2/3/1 345/230/1 83/231/1
f 216/229/1 217/2/1 10/6/1
f 84/18/1 218/1/1 2/3/1
f 3/10/1 346/232/1 84/18/1
f 9/4/1 346/232/1 219/233/1
f 85/9/1 219/233/1 3/10/1
f 11/13/1 347/234/1 85/9/1
f 219/233/1 86/28/1 9/4/1
f 89/25/1 220/8/1 3/10/1
f 81/227/1 89/25/1 6/24/1
f 12/12/1 348/235/1 81/227/1
f 18/132/2 349/236/2 98/131/2
f 221/237/2 90/238/2 4/22/2
f 19/127/2 349/236/2 221/237/2
f 4/22/2 350/239/2 221/237/2
f 5/3/2 350/239/2 91/231/2
f 221/237/2 222/240/2 19/127/2
f 83/25/2 223/241/2 2/10/2
f 224/242/2 83/25/2 1/24/2
f 20/116/2 351/243/2 224/242/2
f 93/244/2 224/242/2 1/24/2
f 21/112/2 352/245/2 93/244/2
f 224/242/2 94/246/2 20/116/2
f 17/15/2 353/247/2 225/19/2
f 19/127/2 353/247/2 97/126/2
f 225/19/2 222/240/2 5/3/2
f 223/241/2 226/248/2 2/10/2
f 20/116/2 354/249/2 223/241/2
f 22/123/2 354/249/2 95/250/2
f 22/123/2 355/251/2 226/248/2
f 227/17/2 96/121/2 17/15/2
f 226/248/2 227/17/2 2/10/2
f 6/22/3 356/252/3 228/20/3
f 3/3/3 356/252/3 89/231/3
f 228/20/3 100/18/3 8/10/3
f 10/6/4 357/253/4 229/26/4
f 14/6/4 357/253/4 103/6/4
f 229/26/4 104/26/4 16/12/4
f 11/13/5 358/254/5 230/28/5
f 15/13/5 358/254/5 106/13/5
f 230/28/5 107/28/5 13/4/5
f 12/12/3 359/255/3 231/11/3
f 16/12/3 359/255/3 102/12/3
f 231/11/3 108/11/3 15/13/3
f 9/4/2 360/256/2 232/7/2
f 13/4/2 360/256/2 105/4/2
f 232/7/2 109/7/2 14/6/2
f 16/12/1 361/257/1 233/32/1
f 14/6/1 361/257/1 104/26/1
f 233/32/1 109/7/1 13/4/1
f 141/34/5 234/34/5 69/34/5
f 34/34/5 362/34/5 141/34/5
f 234/34/5 131/34/5 40/34/5
f 144/34/5 249/34/5 27/34/5
f 36/34/5 377/34/5 144/34/5
f 249/34/5 136/34/5 30/34/5
f 94/246/3 251/115/3 21/112/3
f 20/116/3 379/289/3 94/246/3
f 26/47/3 379/289/3 145/118/3
f 95/250/3 252/119/3 20/116/3
f 22/123/3 380/290/3 95/250/3
f 28/44/3 380/290/3 146/291/3
f 17/15/3 381/292/3 253/120/3
f 23/96/3 381/292/3 147/293/3
f 253/120/3 112/95/3 28/99/3
f 19/127/3 382/294/3 254/125/3
f 25/47/3 382/294/3 148/134/3
f 254/125/3 113/43/3 23/44/3
f 18/132/3 383/295/3 255/130/3
f 24/34/3 383/295/3 115/296/3
f 255/130/3 114/297/3 25/47/3
f 155/157/10 256/139/10 17/135/10
f 41/159/10 384/298/10 155/157/10
f 43/140/10 384/298/10 152/299/10
f 157/163/7 257/146/7 20/142/7
f 44/164/7 385/300/7 157/163/7
f 46/147/7 385/300/7 150/301/7
f 98/302/6 258/149/6 18/151/6
f 19/141/6 386/303/6 98/302/6
f 258/149/6 154/138/6 43/140/6
f 156/145/5 259/158/5 22/148/5
f 46/147/5 387/304/5 156/145/5
f 41/159/5 387/304/5 151/305/5
f 159/306/1 260/160/1 21/162/1
f 45/307/1 388/308/1 159/306/1
f 260/160/1 149/309/1 44/164/1
f 6/24/6 390/24/6 262/24/6
f 61/24/6 390/24/6 190/24/6
f 262/24/6 188/24/6 63/24/6
f 21/34/1 392/34/1 264/34/1
f 177/34/1 178/34/1 56/34/1
f 60/34/1 392/34/1 177/34/1
f 18/34/6 395/34/6 267/34/6
f 51/34/6 395/34/6 165/34/6
f 267/34/6 182/34/6 58/34/6
f 48/34/5 396/34/5 268/34/5
f 57/34/5 396/34/5 183/34/5
f 268/34/5 172/34/5 58/34/5
f 47/22/6 398/22/6 270/22/6
f 59/22/6 398/22/6 185/22/6
f 270/22/6 176/22/6 55/22/6
f 4/34/15 399/34/15 271/34/15
f 53/34/1 399/34/1 181/34/1
f 271/34/1 174/34/1 57/34/1
f 52/34/5 400/34/5 272/34/5
f 60/34/5 400/34/5 179/34/5
f 272/34/5 173/34/5 59/34/5
f 50/34/13 402/34/13 274/34/13
f 64/34/1 402/34/1 192/34/1
f 274/34/1 189/34/1 62/34/1
f 49/34/5 404/34/5 276/34/5
f 63/34/5 404/34/5 191/34/5
f 276/34/5 187/34/5 64/34/5
f 1/22/3 406/22/3 278/22/3
f 65/22/3 406/22/3 199/22/3
f 278/22/3 197/22/3 67/22/3
f 49/24/2 407/24/2 279/24/2
f 68/24/2 407/24/2 201/24/2
f 279/24/2 196/24/2 66/24/2
f 47/34/5 408/34/5 280/34/5
f 67/34/5 408/34/5 200/34/5
f 280/34/5 195/34/5 68/34/5
f 218/1/1 284/5/1 217/2/1
f 9/4/1 87/7/1 284/5/1
f 10/6/1 217/2/1 284/5/1
f 220/8/1 285/14/1 85/9/1
f 88/11/1 285/14/1 220/8/1
f 11/13/1 85/9/1 285/14/1
f 17/15/2 225/19/2 286/16/2
f 92/18/2 286/16/2 225/19/2
f 227/17/2 286/16/2 92/18/2
f 228/20/3 287/23/3 99/21/3
f 8/10/3 101/25/3 287/23/3
f 7/24/3 99/21/3 287/23/3
f 229/26/4 288/27/4 80/26/4
f 16/12/4 102/12/4 288/27/4
f 12/12/4 80/26/4 288/27/4
f 230/28/5 289/29/5 86/28/5
f 13/4/5 105/4/5 289/29/5
f 9/4/5 86/28/5 289/29/5
f 231/11/3 290/30/3 88/11/3
f 15/13/3 106/13/3 290/30/3
f 11/13/3 88/11/3 290/30/3
f 232/7/2 291/31/2 87/7/2
f 14/6/2 103/6/2 291/31/2
f 10/6/2 87/7/2 291/31/2
f 233/32/1 292/33/1 108/11/1
f 13/4/1 107/28/1 292/33/1
f 15/13/1 108/11/1 292/33/1
f 234/34/5 293/34/5 203/34/5
f 119/34/5 293/34/5 234/34/5
f 24/34/5 203/34/5 293/34/5
f 249/34/5 308/34/5 120/34/5
f 139/34/5 308/34/5 249/34/5
f 21/34/5 120/34/5 308/34/5
f 21/112/3 251/115/3 310/113/3
f 110/54/3 310/113/3 251/115/3
f 27/55/3 120/114/3 310/113/3
f 20/116/3 252/119/3 311/117/3
f 111/43/3 311/117/3 252/119/3
f 26/47/3 145/118/3 311/117/3
f 253/120/3 312/122/3 96/121/3
f 28/99/3 146/124/3 312/122/3
f 22/123/3 96/121/3 312/122/3
f 254/125/3 313/128/3 97/126/3
f 23/44/3 147/129/3 313/128/3
f 17/15/3 97/126/3 313/128/3
f 255/130/3 314/133/3 98/131/3
f 25/47/3 148/134/3 314/133/3
f 19/127/3 98/131/3 314/133/3
f 17/135/10 256/139/10 315/136/10
f 154/138/10 315/136/10 256/139/10
f 19/141/10 97/137/10 315/136/10
f 20/142/7 257/146/7 316/143/7
f 156/145/7 316/143/7 257/146/7
f 22/148/7 95/144/7 316/143/7
f 258/149/6 317/154/6 158/150/6
f 153/152/6 317/154/6 258/149/6
f 42/153/6 158/150/6 317/154/6
f 22/148/5 259/158/5 318/155/5
f 155/157/5 318/155/5 259/158/5
f 17/135/5 96/156/5 318/155/5
f 260/160/1 319/165/1 94/161/1
f 157/163/1 319/165/1 260/160/1
f 20/142/1 94/161/1 319/165/1
f 262/24/6 321/24/6 166/24/6
f 63/24/6 191/24/6 321/24/6
f 49/24/16 166/24/16 321/24/16
f 21/34/1 264/34/1 323/34/1
f 179/34/1 323/34/1 264/34/1
f 52/34/1 169/34/1 323/34/1
f 18/34/6 267/34/6 326/34/6
f 58/34/6 175/34/6 326/34/6
f 180/34/6 326/34/6 175/34/6
f 268/34/5 327/34/5 161/34/5
f 58/34/5 182/34/5 327/34/5
f 51/34/5 161/34/5 327/34/5
f 270/22/6 329/22/6 168/22/6
f 55/22/6 184/22/6 329/22/6
f 1/22/6 168/22/6 329/22/6
f 271/34/1 330/34/1 164/34/1
f 57/34/1 183/34/1 330/34/1
f 48/34/15 164/34/15 330/34/15
f 272/34/5 331/34/5 162/34/5
f 59/34/5 185/34/5 331/34/5
f 47/34/5 162/34/5 331/34/5
f 274/34/1 333/34/1 167/34/1
f 62/34/1 193/34/1 333/34/1
f 7/34/1 167/34/1 333/34/1
f 276/34/5 335/34/5 163/34/5
f 64/34/5 192/34/5 335/34/5
f 50/34/5 163/34/5 335/34/5
f 278/22/3 337/22/3 168/22/3
f 67/22/3 200/22/3 337/22/3
f 47/22/3 168/22/3 337/22/3
f 279/24/2 338/24/2 166/24/2
f 66/24/2 198/24/2 338/24/2
f 6/24/2 166/24/2 338/24/2
f 280/34/5 339/34/5 160/34/5
f 68/34/5 201/34/5 339/34/5
f 49/34/5 160/34/5 339/34/5
f 80/26/1 343/226/1 215/225/1
f 12/12/1 81/227/1 343/226/1
f 215/225/1 343/226/1 81/227/1
f 6/24/1 82/21/1 344/228/1
f 216/229/1 344/228/1 82/21/1
f 10/6/1 215/225/1 344/228/1
f 1/22/1 83/231/1 345/230/1
f 2/3/1 217/2/1 345/230/1
f 216/229/1 345/230/1 217/2/1
f 84/18/1 346/232/1 218/1/1
f 3/10/1 219/233/1 346/232/1
f 9/4/1 218/1/1 346/232/1
f 85/9/1 347/234/1 219/233/1
f 11/13/1 86/28/1 347/234/1
f 219/233/1 347/234/1 86/28/1
f 89/25/1 348/235/1 220/8/1
f 81/227/1 348/235/1 89/25/1
f 12/12/1 220/8/1 348/235/1
f 18/132/2 90/238/2 349/236/2
f 221/237/2 349/236/2 90/238/2
f 19/127/2 98/131/2 349/236/2
f 4/22/2 91/231/2 350/239/2
f 5/3/2 222/240/2 350/239/2
f 221/237/2 350/239/2 222/240/2
f 83/25/2 351/243/2 223/241/2
f 224/242/2 351/243/2 83/25/2
f 20/116/2 223/241/2 351/243/2
f 93/244/2 352/245/2 224/242/2
f 21/112/2 94/246/2 352/245/2
f 224/242/2 352/245/2 94/246/2
f 17/15/2 97/126/2 353/247/2
f 19/127/2 222/240/2 353/247/2
f 225/19/2 353/247/2 222/240/2
f 223/241/2 354/249/2 226/248/2
f 20/116/2 95/250/2 354/249/2
f 22/123/2 226/248/2 354/249/2
f 22/123/2 96/121/2 355/251/2
f 227/17/2 355/251/2 96/121/2
f 226/248/2 355/251/2 227/17/2
f 6/22/3 89/231/3 356/252/3
f 3/3/3 100/18/3 356/252/3
f 228/20/3 356/252/3 100/18/3
f 10/6/4 103/6/4 357/253/4
f 14/6/4 104/26/4 357/253/4
f 229/26/4 357/253/4 104/26/4
f 11/13/5 106/13/5 358/254/5
f 15/13/5 107/28/5 358/254/5
f 230/28/5 358/254/5 107/28/5
f 12/12/3 102/12/3 359/255/3
f 16/12/3 108/11/3 359/255/3
f 231/11/3 359/255/3 108/11/3
f 9/4/2 105/4/2 360/256/2
f 13/4/2 109/7/2 360/256/2
f 232/7/2 360/256/2 109/7/2
f 16/12/1 104/26/1 361/257/1
f 14/6/1 109/7/1 361/257/1
f 233/32/1 361/257/1 109/7/1
f 141/34/5 362/34/5 234/34/5
f 34/34/5 131/34/5 362/34/5
f 234/34/5 362/34/5 131/34/5
f 144/34/5 377/34/5 249/34/5
f 36/34/5 136/34/5 377/34/5
f 249/34/5 377/34/5 136/34/5
f 94/246/3 379/289/3 251/115/3
f 20/116/3 145/118/3 379/289/3
f 26/47/3 251/115/3 379/289/3
f 95/250/3 380/290/3 252/119/3
f 22/123/3 146/291/3 380/290/3
f 28/44/3 252/119/3 380/290/3
f 17/15/3 147/293/3 381/292/3
f 23/96/3 112/95/3 381/292/3
f 253/120/3 381/292/3 112/95/3
f 19/127/3 148/134/3 382/294/3
f 25/47/3 113/43/3 382/294/3
f 254/125/3 382/294/3 113/43/3
f 18/132/3 115/296/3 383/295/3
f 24/34/3 114/297/3 383/295/3
f 255/130/3 383/295/3 114/297/3
f 155/157/10 384/298/10 256/139/10
f 41/159/10 152/299/10 384/298/10
f 43/140/10 256/139/10 384/298/10
f 157/163/7 385/300/7 257/146/7
f 44/164/7 150/301/7 385/300/7
f 46/147/7 257/146/7 385/300/7
f 98/302/6 386/303/6 258/149/6
f 19/141/6 154/138/6 386/303/6
f 258/149/6 386/303/6 154/138/6
f 156/145/5 387/304/5 259/158/5
f 46/147/5 151/305/5 387/304/5
f 41/159/5 259/158/5 387/304/5
f 159/306/1 388/308/1 260/160/1
f 45/307/1 149/309/1 388/308/1
f 260/160/1 388/308/1 149/309/1
f 6/24/6 190/24/6 390/24/6
f 61/24/6 188/24/6 390/24/6
f 262/24/6 390/24/6 188/24/6
f 21/34/1 178/34/1 392/34/1
f 177/34/1 392/34/1 178/34/1
f 60/34/1 264/34/1 392/34/1
f 18/34/6 165/34/6 395/34/6
f 51/34/6 182/34/6 395/34/6
f 267/34/6 395/34/6 182/34/6
f 48/34/5 183/34/5 396/34/5
f 57/34/5 172/34/5 396/34/5
f 268/34/5 396/34/5 172/34/5
f 47/22/6 185/22/6 398/22/6
f 59/22/6 176/22/6 398/22/6
f 270/22/6 398/22/6 176/22/6
f 4/34/1 181/34/1 399/34/1
f 53/34/13 174/34/13 399/34/13
f 271/34/1 399/34/1 174/34/1
f 52/34/5 179/34/5 400/34/5
f 60/34/5 173/34/5 400/34/5
f 272/34/5 400/34/5 173/34/5
f 50/34/1 192/34/1 402/34/1
f 64/34/15 189/34/15 402/34/15
f 274/34/1 402/34/1 189/34/1
f 49/34/5 191/34/5 404/34/5
f 63/34/5 187/34/5 404/34/5
f 276/34/5 404/34/5 187/34/5
f 1/22/3 199/22/3 406/22/3
f 65/22/3 197/22/3 406/22/3
f 278/22/3 406/22/3 197/22/3
f 49/24/2 201/24/2 407/24/2
f 68/24/2 196/24/2 407/24/2
f 279/24/2 407/24/2 196/24/2
f 47/34/5 200/34/5 408/34/5
f 67/34/5 195/34/5 408/34/5
f 280/34/5 408/34/5 195/34/5
usemtl finewood
f 235/35/6 94/36/6 21/37/6
f 29/38/6 294/39/6 235/35/6
f 20/40/6 294/39/6 140/41/6
f 236/42/7 111/43/7 28/44/7
f 35/45/7 295/46/7 236/42/7
f 26/47/7 295/46/7 138/48/7
f 237/49/8 97/50/8 17/51/8
f 33/38/8 296/52/8 237/49/8
f 19/40/8 296/52/8 116/41/8
f 238/53/6 114/54/6 24/55/6
f 39/45/6 297/56/6 238/53/6
f 25/47/6 297/56/6 118/48/6
f 34/57/2 298/58/2 131/59/2
f 130/60/2 239/61/2 39/62/2
f 40/63/2 298/58/2 130/60/2
f 240/64/2 123/65/2 31/66/2
f 38/67/2 299/68/2 240/64/2
f 32/69/2 299/68/2 133/70/2
f 241/71/2 121/72/2 30/73/2
f 35/74/2 300/75/2 241/71/2
f 29/76/2 300/75/2 135/77/2
f 33/78/2 301/79/2 132/80/2
f 129/81/2 242/82/2 38/67/2
f 39/62/2 301/79/2 129/81/2
f 243/83/2 122/84/2 29/76/2
f 37/85/2 302/86/2 243/83/2
f 31/66/2 302/86/2 134/87/2
f 244/35/1 202/36/1 19/40/1
f 34/88/1 303/89/1 244/35/1
f 69/37/1 303/89/1 141/90/1
f 245/49/9 95/50/9 20/40/9
f 31/91/9 304/92/9 245/49/9
f 22/51/9 304/92/9 142/93/9
f 246/94/5 112/95/5 23/96/5
f 37/97/5 305/98/5 246/94/5
f 28/99/5 305/98/5 137/100/5
f 247/42/10 113/43/10 25/47/10
f 38/101/10 306/102/10 247/42/10
f 23/44/10 306/102/10 143/103/10
f 248/94/4 96/95/4 22/104/4
f 32/105/4 307/106/4 248/94/4
f 17/107/4 307/106/4 117/108/4
f 250/53/1 110/54/1 26/47/1
f 36/109/1 309/110/1 250/53/1
f 27/55/1 309/110/1 144/111/1
f 4/166/4 320/167/4 181/168/4
f 170/169/4 261/170/4 54/171/4
f 53/172/4 320/167/4 170/169/4
f 263/173/4 82/174/4 6/175/4
f 65/176/4 322/177/4 263/173/4
f 1/178/4 322/177/4 199/179/4
f 265/180/2 170/181/2 54/182/2
f 57/183/2 324/184/2 265/180/2
f 53/185/2 324/184/2 174/186/2
f 266/187/2 171/188/2 55/189/2
f 60/190/2 325/191/2 266/187/2
f 56/192/2 325/191/2 177/193/2
f 269/194/12 93/195/12 1/178/12
f 56/196/12 328/197/12 269/194/12
f 21/198/12 328/197/12 178/199/12
f 273/200/3 186/201/3 62/185/3
f 63/202/3 332/203/3 273/200/3
f 61/189/3 332/203/3 188/204/3
f 275/205/4 99/206/4 7/207/4
f 61/208/4 334/209/4 275/205/4
f 6/175/4 334/209/4 190/210/4
f 277/211/1 194/212/1 66/213/1
f 67/214/1 336/215/1 277/211/1
f 65/216/1 336/215/1 197/217/1
f 21/37/6 363/258/6 235/35/6
f 30/88/6 363/258/6 139/90/6
f 235/35/6 121/259/6 29/38/6
f 28/44/7 364/260/7 236/42/7
f 37/101/7 364/260/7 137/103/7
f 236/42/7 127/261/7 35/45/7
f 17/51/8 365/262/8 237/49/8
f 32/91/8 365/262/8 117/93/8
f 237/49/8 124/263/8 33/38/8
f 24/55/6 366/264/6 238/53/6
f 40/109/6 366/264/6 119/111/6
f 238/53/6 130/265/6 39/45/6
f 125/266/2 239/61/2 34/57/2
f 33/78/2 367/267/2 125/266/2
f 39/62/2 367/267/2 132/80/2
f 31/66/2 368/268/2 240/64/2
f 37/85/2 368/268/2 134/87/2
f 240/64/2 128/269/2 38/67/2
f 30/73/2 369/270/2 241/71/2
f 36/271/2 369/270/2 136/272/2
f 241/71/2 126/273/2 35/74/2
f 124/274/2 242/82/2 33/78/2
f 32/69/2 370/275/2 124/274/2
f 38/67/2 370/275/2 133/70/2
f 29/76/2 371/276/2 243/83/2
f 35/74/2 371/276/2 135/77/2
f 243/83/2 127/277/2 37/85/2
f 19/40/1 372/278/1 244/35/1
f 33/38/1 372/278/1 116/41/1
f 244/35/1 125/259/1 34/88/1
f 20/40/9 373/279/9 245/49/9
f 29/38/9 373/279/9 140/41/9
f 245/49/9 122/263/9 31/91/9
f 23/96/5 374/280/5 246/94/5
f 38/281/5 374/280/5 143/282/5
f 246/94/5 128/283/5 37/97/5
f 25/47/10 375/284/10 247/42/10
f 39/45/10 375/284/10 118/48/10
f 247/42/10 129/261/10 38/101/10
f 22/104/4 376/285/4 248/94/4
f 31/286/4 376/285/4 142/287/4
f 248/94/4 123/283/4 32/105/4
f 26/47/1 378/288/1 250/53/1
f 35/45/1 378/288/1 138/48/1
f 250/53/1 126/265/1 36/109/1
f 90/310/14 261/170/14 4/166/14
f 18/311/14 389/312/14 90/310/14
f 54/171/14 389/312/14 180/313/14
f 6/175/4 391/314/4 263/173/4
f 66/315/4 391/314/4 198/316/4
f 263/173/4 194/317/4 65/176/4
f 54/182/2 393/318/2 265/180/2
f 58/319/2 393/318/2 175/320/2
f 265/180/2 172/321/2 57/183/2
f 55/189/2 394/322/2 266/187/2
f 59/202/2 394/322/2 176/204/2
f 266/187/2 173/323/2 60/190/2
f 1/178/4 397/324/4 269/194/4
f 55/325/4 397/324/4 184/326/4
f 269/194/4 171/327/4 56/196/4
f 62/185/3 401/328/3 273/200/3
f 64/183/3 401/328/3 189/186/3
f 273/200/3 187/329/3 63/202/3
f 7/207/4 403/330/4 275/205/4
f 62/331/4 403/330/4 193/332/4
f 275/205/4 186/333/4 61/208/4
f 66/213/1 405/334/1 277/211/1
f 68/335/1 405/334/1 196/336/1
f 277/211/1 195/337/1 67/214/1
f 235/35/6 294/39/6 94/36/6
f 29/38/6 140/41/6 294/39/6
f 20/40/6 94/36/6 294/39/6
f 236/42/7 295/46/7 111/43/7
f 35/45/7 138/48/7 295/46/7
f 26/47/7 111/43/7 295/46/7
f 237/49/8 296/52/8 97/50/8
f 33/38/8 116/41/8 296/52/8
f 19/40/8 97/50/8 296/52/8
f 238/53/6 297/56/6 114/54/6
f 39/45/6 118/48/6 297/56/6
f 25/47/6 114/54/6 297/56/6
f 34/57/2 239/61/2 298/58/2
f 130/60/2 298/58/2 239/61/2
f 40/63/2 131/59/2 298/58/2
f 240/64/2 299/68/2 123/65/2
f 38/67/2 133/70/2 299/68/2
f 32/69/2 123/65/2 299/68/2
f 241/71/2 300/75/2 121/72/2
f 35/74/2 135/77/2 300/75/2
f 29/76/2 121/72/2 300/75/2
f 33/78/2 242/82/2 301/79/2
f 129/81/2 301/79/2 242/82/2
f 39/62/2 132/80/2 301/79/2
f 243/83/2 302/86/2 122/84/2
f 37/85/2 134/87/2 302/86/2
f 31/66/2 122/84/2 302/86/2
f 244/35/1 303/89/1 202/36/1
f 34/88/1 141/90/1 303/89/1
f 69/37/1 202/36/1 303/89/1
f 245/49/9 304/92/9 95/50/9
f 31/91/9 142/93/9 304/92/9
f 22/51/9 95/50/9 304/92/9
f 246/94/5 305/98/5 112/95/5
f 37/97/5 137/100/5 305/98/5
f 28/99/5 112/95/5 305/98/5
f 247/42/10 306/102/10 113/43/10
f 38/101/10 143/103/10 306/102/10
f 23/44/10 113/43/10 306/102/10
f 248/94/4 307/106/4 96/95/4
f 32/105/4 117/108/4 307/106/4
f 17/107/4 96/95/4 307/106/4
f 250/53/1 309/110/1 110/54/1
f 36/109/1 144/111/1 309/110/1
f 27/55/1 110/54/1 309/110/1
f 4/166/4 261/170/4 320/167/4
f 170/169/4 320/167/4 261/170/4
f 53/172/4 181/168/4 320/167/4
f 263/173/4 322/177/4 82/174/4
f 65/176/4 199/179/4 322/177/4
f 1/178/4 82/174/4 322/177/4
f 265/180/2 324/184/2 170/181/2
f 57/183/2 174/186/2 324/184/2
f 53/185/2 170/181/2 324/184/2
f 266/187/2 325/191/2 171/188/2
f 60/190/2 177/193/2 325/191/2
f 56/192/2 171/188/2 325/191/2
f 269/194/12 328/197/12 93/195/12
f 56/196/12 178/199/12 328/197/12
f 21/198/12 93/195/12 328/197/12
f 273/200/3 332/203/3 186/201/3
f 63/202/3 188/204/3 332/203/3
f 61/189/3 186/201/3 332/203/3
f 275/205/4 334/209/4 99/206/4
f 61/208/4 190/210/4 334/209/4
f 6/175/4 99/206/4 334/209/4
f 277/211/1 336/215/1 194/212/1
f 67/214/1 197/217/1 336/215/1
f 65/216/1 194/212/1 336/215/1
f 21/37/6 139/90/6 363/258/6
f 30/88/6 121/259/6 363/258/6
f 235/35/6 363/258/6 121/259/6
f 28/44/7 137/103/7 364/260/7
f 37/101/7 127/261/7 364/260/7
f 236/42/7 364/260/7 127/261/7
f 17/51/8 117/93/8 365/262/8
f 32/91/8 124/263/8 365/262/8
f 237/49/8 365/262/8 124/263/8
f 24/55/6 119/111/6 366/264/6
f 40/109/6 130/265/6 366/264/6
f 238/53/6 366/264/6 130/265/6
f 125/266/2 367/267/2 239/61/2
f 33/78/2 132/80/2 367/267/2
f 39/62/2 239/61/2 367/267/2
f 31/66/2 134/87/2 368/268/2
f 37/85/2 128/269/2 368/268/2
f 240/64/2 368/268/2 128/269/2
f 30/73/2 136/272/2 369/270/2
f 36/271/2 126/273/2 369/270/2
f 241/71/2 369/270/2 126/273/2
f 124/274/2 370/275/2 242/82/2
f 32/69/2 133/70/2 370/275/2
f 38/67/2 242/82/2 370/275/2
f 29/76/2 135/77/2 371/276/2
f 35/74/2 127/277/2 371/276/2
f 243/83/2 371/276/2 127/277/2
f 19/40/1 116/41/1 372/278/1
f 33/38/1 125/259/1 372/278/1
f 244/35/1 372/278/1 125/259/1
f 20/40/9 140/41/9 373/279/9
f 29/38/9 122/263/9 373/279/9
f 245/49/9 373/279/9 122/263/9
f 23/96/5 143/282/5 374/280/5
f 38/281/5 128/283/5 374/280/5
f 246/94/5 374/280/5 128/283/5
f 25/47/10 118/48/10 375/284/10
f 39/45/10 129/261/10 375/284/10
f 247/42/10 375/284/10 129/261/10
f 22/104/4 142/287/4 376/285/4
f 31/286/4 123/283/4 376/285/4
f 248/94/4 376/285/4 123/283/4
f 26/47/1 138/48/1 378/288/1
f 35/45/1 126/265/1 378/288/1
f 250/53/1 378/288/1 126/265/1
f 90/310/14 389/312/14 261/170/14
f 18/311/14 180/313/14 389/312/14
f 54/171/14 261/170/14 389/312/14
f 6/175/4 198/316/4 391/314/4
f 66/315/4 194/317/4 391/314/4
f 263/173/4 391/314/4 194/317/4
f 54/182/2 175/320/2 393/318/2
f 58/319/2 172/321/2 393/318/2
f 265/180/2 393/318/2 172/321/2
f 55/189/2 176/204/2 394/322/2
f 59/202/2 173/323/2 394/322/2
f 266/187/2 394/322/2 173/323/2
f 1/178/4 184/326/4 397/324/4
f 55/325/4 171/327/4 397/324/4
f 269/194/4 397/324/4 171/327/4
f 62/185/3 189/186/3 401/328/3
f 64/183/3 187/329/3 401/328/3
f 273/200/3 401/328/3 187/329/3
f 7/207/4 193/332/4 403/330/4
f 62/331/4 186/333/4 403/330/4
f 275/205/4 403/330/4 186/333/4
f 66/213/1 196/336/1 405/334/1
f 68/335/1 195/337/1 405/334/1
f 277/211/1 405/334/1 195/337/1
usemtl carpet_1
f 281/218/4 205/219/4 71/220/4
f 204/221/4 281/218/4 72/222/4
f 70/223/4 340/224/4 204/221/4
f 282/218/4 208/219/4 75/220/4
f 209/221/4 282/218/4 70/222/4
f 74/223/4 341/224/4 209/221/4
f 206/338/4 281/218/4 71/220/4
f 73/339/4 409/340/4 206/338/4
f 281/218/4 207/341/4 72/222/4
f 210/338/4 282/218/4 75/220/4
f 71/339/4 410/340/4 210/338/4
f 282/218/4 205/341/4 70/222/4
f 281/218/4 340/224/4 205/219/4
f 204/221/4 340/224/4 281/218/4
f 70/223/4 205/219/4 340/224/4
f 282/218/4 341/224/4 208/219/4
f 209/221/4 341/224/4 282/218/4
f 74/223/4 208/219/4 341/224/4
f 206/338/4 409/340/4 281/218/4
f 73/339/4 207/341/4 409/340/4
f 281/218/4 409/340/4 207/341/4
f 210/338/4 410/340/4 282/218/4
f 71/339/4 205/341/4 410/340/4
f 282/218/4 410/340/4 205/341/4
usemtl planks_1
f 283/218/5 212/219/5 77/220/5
f 211/221/5 283/218/5 78/222/5
f 76/223/5 342/224/5 211/221/5
f 213/338/5 283/218/5 77/220/5
f 79/339/5 411/340/5 213/338/5
f 283/218/5 214/341/5 78/222/5
f 283/218/5 342/224/5 212/219/5
f 211/221/5 342/224/5 283/218/5
f 76/223/5 212/219/5 342/224/5
f 213/338/5 411/340/5 283/218/5
f 79/339/5 214/341/5 411/340/5
f 283/218/5 411/340/5 214/341/5
