# Blender 5.1.2
# www.blender.org
mtllib vase.mtl
o vase
v -0.000000 0.222401 -0.084974
v -0.000000 0.259568 -0.071033
v 0.049947 0.222401 -0.068746
v 0.041752 0.259568 -0.057467
v 0.080815 0.222401 -0.026258
v 0.067556 0.259568 -0.021950
v 0.080815 0.222401 0.026258
v 0.067556 0.259568 0.021950
v 0.049947 0.222401 0.068746
v 0.041752 0.259568 0.057467
v -0.000000 0.222401 0.084974
v -0.000000 0.259568 0.071033
v -0.049947 0.222401 0.068746
v -0.041752 0.259568 0.057467
v -0.080815 0.222401 0.026258
v -0.067556 0.259568 0.021950
v -0.080815 0.222401 -0.026258
v -0.067556 0.259568 -0.021950
v -0.049947 0.222401 -0.068746
v -0.041752 0.259568 -0.057467
v -0.000000 0.151545 -0.098598
v 0.057954 0.151545 -0.079767
v 0.093772 0.151545 -0.030468
v 0.093772 0.151545 0.030468
v 0.057954 0.151545 0.079767
v -0.000000 0.151545 0.098598
v -0.057954 0.151545 0.079767
v -0.093772 0.151545 0.030468
v -0.093772 0.151545 -0.030468
v -0.057954 0.151545 -0.079767
v -0.000000 0.059527 -0.098598
v 0.057954 0.059527 -0.079767
v 0.093772 0.059527 -0.030468
v 0.093772 0.059527 0.030468
v 0.057954 0.059527 0.079767
v -0.000000 0.059527 0.098598
v -0.057954 0.059527 0.079767
v -0.093772 0.059527 0.030468
v -0.093772 0.059527 -0.030468
v -0.057954 0.059527 -0.079767
v -0.000000 0.000000 -0.060331
v 0.035462 0.000000 -0.048809
v 0.057379 0.000000 -0.018643
v 0.057379 0.000000 0.018643
v 0.035462 0.000000 0.048809
v -0.000000 0.000000 0.060331
v -0.035462 0.000000 0.048809
v -0.057379 0.000000 0.018643
v -0.057379 0.000000 -0.018643
v -0.035462 0.000000 -0.048809
v 0.054202 0.271140 -0.074603
v 0.000000 0.271140 -0.092215
v 0.087701 0.271140 -0.028496
v 0.087701 0.271140 0.028496
v 0.054202 0.271140 0.074603
v 0.000000 0.271140 0.092215
v -0.054202 0.271140 0.074603
v -0.087701 0.271140 0.028496
v -0.087701 0.271140 -0.028496
v -0.054202 0.271140 -0.074603
v 0.046576 0.285610 -0.064107
v 0.000000 0.285610 -0.079240
v 0.075362 0.285610 -0.024487
v 0.075362 0.285610 0.024487
v 0.046576 0.285610 0.064107
v 0.000000 0.285610 0.079240
v -0.046576 0.285610 0.064107
v -0.075362 0.285610 0.024487
v -0.075362 0.285610 -0.024487
v -0.046576 0.285610 -0.064107
v -0.005692 0.274771 0.005692
v -0.003074 0.551938 0.003074
v -0.005692 0.274771 -0.005692
v -0.003074 0.551938 -0.003074
v 0.005692 0.274771 0.005692
v 0.003074 0.551938 0.003074
v 0.005692 0.274771 -0.005692
v 0.003074 0.551938 -0.003074
v -0.014998 0.384751 0.043715
v -0.006878 0.371608 0.000035
v 0.018564 0.391772 0.040072
v 0.007622 0.374642 -0.001539
v -0.026619 0.381117 0.115180
v 0.051122 0.397382 0.106742
v 0.014533 0.336137 0.203767
v 0.047823 0.343102 0.200153
v -0.014998 0.384751 0.043715
v -0.006878 0.371608 0.000035
v 0.018564 0.391772 0.040072
v 0.007622 0.374642 -0.001539
v -0.026619 0.381117 0.115180
v 0.051122 0.397382 0.106742
v 0.014533 0.336137 0.203767
v 0.047823 0.343102 0.200153
v 0.018047 0.338242 -0.034216
v 0.009927 0.325100 0.009464
v -0.015514 0.345264 -0.030573
v -0.004573 0.328134 0.011038
v 0.029668 0.334609 -0.105681
v -0.048073 0.350874 -0.097243
v -0.011484 0.289629 -0.194268
v -0.044774 0.296594 -0.190654
v 0.018047 0.338242 -0.034216
v 0.009927 0.325100 0.009464
v -0.015514 0.345264 -0.030573
v -0.004573 0.328134 0.011038
v 0.029668 0.334609 -0.105681
v -0.048073 0.350874 -0.097243
v -0.011484 0.289629 -0.194268
v -0.044774 0.296594 -0.190654
v -0.030638 0.322624 0.001654
v 0.001053 0.314050 0.000933
v -0.024219 0.324490 0.025162
v 0.003826 0.314856 0.011090
v -0.081883 0.318857 0.001502
v -0.067014 0.323179 0.055954
v -0.138144 0.280525 0.035777
v -0.131777 0.282376 0.059094
v -0.030638 0.322624 0.001654
v 0.001053 0.314050 0.000933
v -0.024219 0.324490 0.025162
v 0.003826 0.314856 0.011090
v -0.081883 0.318857 0.001502
v -0.067014 0.323179 0.055954
v -0.138144 0.280525 0.035777
v -0.131777 0.282376 0.059094
v 0.018641 0.451070 0.007722
v -0.000278 0.429336 0.010154
v 0.012817 0.447769 -0.012731
v -0.002794 0.427910 0.001318
v 0.057918 0.473450 0.005798
v 0.044428 0.465803 -0.041579
v 0.117544 0.470881 -0.024908
v 0.111767 0.467606 -0.045196
v 0.018641 0.451070 0.007722
v -0.000278 0.429336 0.010154
v 0.012817 0.447769 -0.012731
v -0.002794 0.427910 0.001318
v 0.057918 0.473450 0.005798
v 0.044428 0.465803 -0.041579
v 0.117544 0.470881 -0.024908
v 0.111767 0.467606 -0.045196
v -0.024098 0.422761 -0.006322
v -0.005949 0.401008 -0.000524
v -0.020846 0.425036 0.014830
v -0.004544 0.401991 0.008615
v -0.062363 0.445179 -0.015296
v -0.054828 0.450448 0.033699
v -0.125222 0.451497 0.007367
v -0.121996 0.453753 0.028347
v -0.024098 0.422761 -0.006322
v -0.005949 0.401008 -0.000524
v -0.020846 0.425036 0.014830
v -0.004544 0.401991 0.008615
v -0.062363 0.445179 -0.015296
v -0.054828 0.450448 0.033699
v -0.125222 0.451497 0.007367
v -0.121996 0.453753 0.028347
v 0.001019 0.514712 -0.016721
v 0.005387 0.499185 -0.002409
v -0.012439 0.514240 -0.007989
v -0.000427 0.498981 0.001364
v -0.007416 0.529859 -0.045669
v -0.038587 0.528766 -0.025443
v -0.042468 0.528177 -0.081358
v -0.055816 0.527709 -0.072697
v 0.001019 0.514712 -0.016721
v 0.005387 0.499185 -0.002409
v -0.012439 0.514240 -0.007989
v -0.000427 0.498981 0.001364
v -0.007416 0.529859 -0.045669
v -0.038587 0.528766 -0.025443
v -0.042468 0.528177 -0.081358
v -0.055816 0.527709 -0.072697
vn 0.2911 0.3360 -0.8958
vn 0.7620 0.3360 -0.5536
vn 0.9419 0.3360 -0.0000
vn 0.7620 0.3360 0.5536
vn 0.2911 0.3360 0.8958
vn -0.2911 0.3360 0.8958
vn -0.7620 0.3360 0.5536
vn -0.9419 0.3360 -0.0000
vn -0.4030 -0.8671 -0.2928
vn -0.7620 0.3360 -0.5536
vn -0.2911 0.3360 -0.8958
vn 0.7958 0.1799 -0.5782
vn 0.8090 -0.0000 -0.5878
vn -0.3040 0.1799 -0.9355
vn -0.7958 0.1799 -0.5782
vn -0.9837 0.1799 -0.0000
vn -0.7958 0.1799 0.5782
vn -0.3040 0.1799 0.9355
vn 0.3040 0.1799 0.9355
vn 0.7958 0.1799 0.5782
vn 0.3040 0.1799 -0.9355
vn 0.9837 0.1799 -0.0000
vn -0.2636 -0.5216 0.8114
vn -0.8090 -0.0000 -0.5878
vn -0.3090 -0.0000 0.9511
vn 1.0000 -0.0000 -0.0000
vn -0.3090 -0.0000 -0.9511
vn -0.8090 -0.0000 0.5878
vn 0.8090 -0.0000 0.5878
vn 0.3090 -0.0000 -0.9511
vn -1.0000 -0.0000 -0.0000
vn 0.3090 -0.0000 0.9511
vn -0.0000 -1.0000 -0.0000
vn 0.8532 -0.5216 -0.0000
vn -0.2636 -0.5216 -0.8114
vn -0.6902 -0.5216 0.5015
vn 0.6902 -0.5216 0.5015
vn 0.2636 -0.5216 -0.8114
vn -0.8532 -0.5216 -0.0000
vn 0.2636 -0.5216 0.8114
vn 0.6902 -0.5216 -0.5015
vn -0.6902 -0.5216 -0.5015
vn 0.2351 0.6489 0.7237
vn -0.4981 -0.8671 -0.0000
vn -0.4030 -0.8671 0.2928
vn -0.1539 -0.8671 0.4737
vn 0.1539 -0.8671 0.4737
vn 0.4030 -0.8671 0.2928
vn 0.1539 -0.8671 -0.4737
vn 0.4981 -0.8671 -0.0000
vn 0.4030 -0.8671 -0.2928
vn -0.1539 -0.8671 -0.4737
vn -0.0000 1.0000 -0.0000
vn 0.6156 0.6489 -0.4472
vn -0.6156 0.6489 -0.4472
vn -0.2351 0.6489 0.7237
vn 0.7609 0.6489 -0.0000
vn -0.2351 0.6489 -0.7237
vn -0.6156 0.6489 0.4472
vn 0.6156 0.6489 0.4472
vn 0.2351 0.6489 -0.7237
vn -0.7609 0.6489 -0.0000
vn -1.0000 0.0094 -0.0000
vn -0.0000 0.0094 -1.0000
vn 1.0000 0.0094 -0.0000
vn -0.0000 0.0094 1.0000
vn -0.2271 0.9201 -0.3191
vn -0.2030 0.9790 0.0168
vn -0.1261 0.8596 0.4951
vn 0.2271 -0.9201 0.3191
vn 0.2030 -0.9790 -0.0168
vn 0.1261 -0.8596 -0.4951
vn 0.2271 0.9201 0.3191
vn 0.2030 0.9790 -0.0168
vn 0.1261 0.8596 -0.4951
vn -0.2271 -0.9201 -0.3191
vn -0.2030 -0.9790 0.0168
vn -0.1261 -0.8596 0.4951
vn 0.2553 0.9558 -0.1456
vn -0.0730 0.9956 -0.0591
vn -0.5288 0.8452 0.0773
vn -0.2553 -0.9558 0.1456
vn 0.0730 -0.9956 0.0591
vn 0.5288 -0.8452 -0.0773
vn -0.7442 0.6596 0.1054
vn -0.4950 0.8689 0.0007
vn -0.0345 0.9881 -0.1497
vn 0.7442 -0.6596 -0.1054
vn 0.4950 -0.8689 -0.0007
vn 0.0345 -0.9881 0.1497
vn 0.7783 0.6003 -0.1842
vn 0.5276 0.8322 -0.1706
vn 0.0580 0.9916 -0.1156
vn -0.7783 -0.6003 0.1842
vn -0.5276 -0.8322 0.1706
vn -0.0580 -0.9916 0.1156
vn 0.3809 0.6823 0.6239
vn 0.2275 0.8885 0.3986
vn -0.0401 0.9992 -0.0077
vn -0.3809 -0.6823 -0.6239
vn -0.2275 -0.8885 -0.3986
vn 0.0401 -0.9992 0.0077
vn 0.3809 0.6823 0.6240
vn -0.3809 -0.6823 -0.6240
vt 1.000000 1.000000
vt 0.900000 0.500000
vt 1.000000 0.500000
vt 0.800000 1.000000
vt 0.800000 0.500000
vt 0.700000 0.500000
vt 0.600000 1.000000
vt 0.600000 0.500000
vt 0.500000 0.500000
vt 0.500000 1.000000
vt 0.400000 0.500000
vt 0.300000 1.000000
vt 0.300000 0.500000
vt 0.200000 0.500000
vt 0.200000 1.000000
vt 0.100000 1.000000
vt 0.100000 0.500000
vt -0.000000 0.500000
vt 0.978254 0.175836
vt 0.521746 0.175836
vt 0.608932 0.444164
vt 0.400000 1.000000
vt 0.700000 1.000000
vt 0.900000 1.000000
vt -0.000000 1.000000
vt 0.021746 0.324164
vt 0.391068 0.055836
vt 0.478254 0.324164
vt 0.625000 0.000000
vt 0.375000 0.250000
vt 0.375000 0.000000
vt 0.625000 0.250000
vt 0.375000 0.500000
vt 0.625000 0.500000
vt 0.375000 0.750000
vt 0.625000 0.750000
vt 0.375000 1.000000
vt 0.125000 0.750000
vt 0.125000 0.500000
vt 0.875000 0.500000
vt 0.875000 0.750000
vt 0.750000 0.490000
vt 0.891068 0.444164
vt 0.978254 0.324164
vt 0.891068 0.055836
vt 0.750000 0.010000
vt 0.608932 0.055836
vt 0.521746 0.324164
vt 0.391068 0.444164
vt 0.250000 0.490000
vt 0.108932 0.444164
vt 0.021746 0.175836
vt 0.108932 0.055836
vt 0.250000 0.010000
vt 0.478254 0.175836
vt 0.625000 1.000000
s 0
usemtl no_texture
f 2/1/1 3/2/1 1/3/1
f 3/2/2 6/4/2 5/5/2
f 6/4/3 7/6/3 5/5/3
f 7/6/4 10/7/4 9/8/4
f 10/7/5 11/9/5 9/8/5
f 12/10/6 13/11/6 11/9/6
f 13/11/7 16/12/7 15/13/7
f 16/12/8 17/14/8 15/13/8
f 18/15/9 60/16/9 20/16/9
f 18/15/10 19/17/10 17/14/10
f 20/16/11 1/18/11 19/17/11
f 3/2/12 23/5/12 22/2/12
f 23/5/13 32/2/13 22/2/13
f 1/18/14 30/17/14 19/17/14
f 19/17/15 29/14/15 17/14/15
f 17/14/16 28/13/16 15/13/16
f 13/11/17 28/13/17 27/11/17
f 13/11/18 26/9/18 11/9/18
f 11/9/19 25/8/19 9/8/19
f 9/8/20 24/6/20 7/6/20
f 3/2/21 21/3/21 1/3/21
f 7/6/22 23/5/22 5/5/22
f 37/11/23 46/9/23 36/9/23
f 30/17/24 39/14/24 29/14/24
f 27/11/25 36/9/25 26/9/25
f 24/6/26 33/5/26 23/5/26
f 21/18/27 40/17/27 30/17/27
f 28/13/28 37/11/28 27/11/28
f 25/8/29 34/6/29 24/6/29
f 22/2/30 31/3/30 21/3/30
f 29/14/31 38/13/31 28/13/31
f 26/9/32 35/8/32 25/8/32
f 44/19/33 48/20/33 50/21/33
f 34/6/34 43/5/34 33/5/34
f 31/18/35 50/17/35 40/17/35
f 37/11/36 48/13/36 47/11/36
f 35/8/37 44/6/37 34/6/37
f 32/2/38 41/3/38 31/3/38
f 39/14/39 48/13/39 38/13/39
f 36/9/40 45/8/40 35/8/40
f 33/5/41 42/2/41 32/2/41
f 40/17/42 49/14/42 39/14/42
f 55/7/43 66/10/43 56/10/43
f 16/12/44 59/15/44 18/15/44
f 14/22/45 58/12/45 16/12/45
f 12/10/46 57/22/46 14/22/46
f 12/10/47 55/7/47 56/10/47
f 8/23/48 55/7/48 10/7/48
f 2/1/49 51/24/49 4/24/49
f 6/4/50 54/23/50 8/23/50
f 4/24/51 53/4/51 6/4/51
f 2/25/52 60/16/52 52/25/52
f 69/26/53 65/27/53 63/28/53
f 51/24/54 63/4/54 53/4/54
f 59/15/55 70/16/55 60/16/55
f 57/22/56 66/10/56 67/22/56
f 53/4/57 64/23/57 54/23/57
f 60/16/58 62/25/58 52/25/58
f 57/22/59 68/12/59 58/12/59
f 54/23/60 65/7/60 55/7/60
f 51/24/61 62/1/61 61/24/61
f 58/12/62 69/15/62 59/15/62
f 2/1/1 4/24/1 3/2/1
f 3/2/2 4/24/2 6/4/2
f 6/4/3 8/23/3 7/6/3
f 7/6/4 8/23/4 10/7/4
f 10/7/5 12/10/5 11/9/5
f 12/10/6 14/22/6 13/11/6
f 13/11/7 14/22/7 16/12/7
f 16/12/8 18/15/8 17/14/8
f 18/15/9 59/15/9 60/16/9
f 18/15/10 20/16/10 19/17/10
f 20/16/11 2/25/11 1/18/11
f 3/2/12 5/5/12 23/5/12
f 23/5/13 33/5/13 32/2/13
f 1/18/14 21/18/14 30/17/14
f 19/17/15 30/17/15 29/14/15
f 17/14/16 29/14/16 28/13/16
f 13/11/17 15/13/17 28/13/17
f 13/11/18 27/11/18 26/9/18
f 11/9/19 26/9/19 25/8/19
f 9/8/20 25/8/20 24/6/20
f 3/2/21 22/2/21 21/3/21
f 7/6/22 24/6/22 23/5/22
f 37/11/23 47/11/23 46/9/23
f 30/17/24 40/17/24 39/14/24
f 27/11/25 37/11/25 36/9/25
f 24/6/26 34/6/26 33/5/26
f 21/18/27 31/18/27 40/17/27
f 28/13/28 38/13/28 37/11/28
f 25/8/29 35/8/29 34/6/29
f 22/2/30 32/2/30 31/3/30
f 29/14/31 39/14/31 38/13/31
f 26/9/32 36/9/32 35/8/32
f 50/21/33 41/42/33 42/43/33
f 42/43/33 43/44/33 44/19/33
f 44/19/33 45/45/33 46/46/33
f 46/46/33 47/47/33 48/20/33
f 48/20/33 49/48/33 50/21/33
f 50/21/33 42/43/33 44/19/33
f 44/19/33 46/46/33 48/20/33
f 34/6/34 44/6/34 43/5/34
f 31/18/35 41/18/35 50/17/35
f 37/11/36 38/13/36 48/13/36
f 35/8/37 45/8/37 44/6/37
f 32/2/38 42/2/38 41/3/38
f 39/14/39 49/14/39 48/13/39
f 36/9/40 46/9/40 45/8/40
f 33/5/41 43/5/41 42/2/41
f 40/17/42 50/17/42 49/14/42
f 55/7/43 65/7/43 66/10/43
f 16/12/44 58/12/44 59/15/44
f 14/22/45 57/22/45 58/12/45
f 12/10/46 56/10/46 57/22/46
f 12/10/47 10/7/47 55/7/47
f 8/23/48 54/23/48 55/7/48
f 2/1/49 52/1/49 51/24/49
f 6/4/50 53/4/50 54/23/50
f 4/24/51 51/24/51 53/4/51
f 2/25/52 20/16/52 60/16/52
f 63/28/53 61/49/53 62/50/53
f 62/50/53 70/51/53 69/26/53
f 69/26/53 68/52/53 67/53/53
f 67/53/53 66/54/53 65/27/53
f 65/27/53 64/55/53 63/28/53
f 63/28/53 62/50/53 69/26/53
f 69/26/53 67/53/53 65/27/53
f 51/24/54 61/24/54 63/4/54
f 59/15/55 69/15/55 70/16/55
f 57/22/56 56/10/56 66/10/56
f 53/4/57 63/4/57 64/23/57
f 60/16/58 70/16/58 62/25/58
f 57/22/59 67/22/59 68/12/59
f 54/23/60 64/23/60 65/7/60
f 51/24/61 52/1/61 62/1/61
f 58/12/62 68/12/62 69/15/62
usemtl concrete
f 72/29/63 73/30/63 71/31/63
f 74/32/64 77/33/64 73/30/64
f 78/34/65 75/35/65 77/33/65
f 76/36/66 71/37/66 75/35/66
f 77/33/33 71/38/33 73/39/33
f 74/40/53 76/36/53 78/34/53
f 80/40/67 81/36/67 82/34/67
f 81/36/68 83/41/68 84/36/68
f 83/41/69 86/36/69 84/36/69
f 89/36/70 88/40/70 90/34/70
f 89/36/71 91/41/71 87/41/71
f 94/36/72 91/41/72 92/36/72
f 96/40/73 97/36/73 98/34/73
f 97/36/74 99/41/74 100/36/74
f 99/41/75 102/36/75 100/36/75
f 105/36/76 104/40/76 106/34/76
f 105/36/77 107/41/77 103/41/77
f 110/36/78 107/41/78 108/36/78
f 112/40/79 113/36/79 114/34/79
f 113/36/80 115/41/80 116/36/80
f 115/41/81 118/36/81 116/36/81
f 121/36/82 120/40/82 122/34/82
f 121/36/83 123/41/83 119/41/83
f 126/36/84 123/41/84 124/36/84
f 128/40/85 129/36/85 130/34/85
f 129/36/86 131/41/86 132/36/86
f 131/41/87 134/36/87 132/36/87
f 137/36/88 136/40/88 138/34/88
f 137/36/89 139/41/89 135/41/89
f 142/36/90 139/41/90 140/36/90
f 144/40/91 145/36/91 146/34/91
f 145/36/92 147/41/92 148/36/92
f 147/41/93 150/36/93 148/36/93
f 153/36/94 152/40/94 154/34/94
f 153/36/95 155/41/95 151/41/95
f 158/36/96 155/41/96 156/36/96
f 160/40/97 161/36/97 162/34/97
f 161/36/98 163/41/98 164/36/98
f 163/41/99 166/36/99 164/36/99
f 169/36/100 168/40/100 170/34/100
f 169/36/101 171/41/101 167/41/101
f 174/36/102 171/41/102 172/36/102
f 72/29/63 74/32/63 73/30/63
f 74/32/64 78/34/64 77/33/64
f 78/34/65 76/36/65 75/35/65
f 76/36/66 72/56/66 71/37/66
f 77/33/33 75/35/33 71/38/33
f 74/40/53 72/41/53 76/36/53
f 80/40/67 79/41/67 81/36/67
f 81/36/68 79/41/68 83/41/68
f 83/41/69 85/41/69 86/36/69
f 89/36/70 87/41/70 88/40/70
f 89/36/71 92/36/71 91/41/71
f 94/36/72 93/41/72 91/41/72
f 96/40/73 95/41/73 97/36/73
f 97/36/74 95/41/74 99/41/74
f 99/41/75 101/41/75 102/36/75
f 105/36/76 103/41/76 104/40/76
f 105/36/77 108/36/77 107/41/77
f 110/36/78 109/41/78 107/41/78
f 112/40/79 111/41/79 113/36/79
f 113/36/80 111/41/80 115/41/80
f 115/41/81 117/41/81 118/36/81
f 121/36/82 119/41/82 120/40/82
f 121/36/83 124/36/83 123/41/83
f 126/36/84 125/41/84 123/41/84
f 128/40/85 127/41/85 129/36/85
f 129/36/86 127/41/86 131/41/86
f 131/41/87 133/41/87 134/36/87
f 137/36/88 135/41/88 136/40/88
f 137/36/89 140/36/89 139/41/89
f 142/36/90 141/41/90 139/41/90
f 144/40/91 143/41/91 145/36/91
f 145/36/92 143/41/92 147/41/92
f 147/41/93 149/41/93 150/36/93
f 153/36/94 151/41/94 152/40/94
f 153/36/95 156/36/95 155/41/95
f 158/36/96 157/41/96 155/41/96
f 160/40/103 159/41/103 161/36/103
f 161/36/98 159/41/98 163/41/98
f 163/41/99 165/41/99 166/36/99
f 169/36/104 167/41/104 168/40/104
f 169/36/101 172/36/101 171/41/101
f 174/36/102 173/41/102 171/41/102
