# Blender 5.1.2
# www.blender.org
mtllib window_1.mtl
o window_1
v -0.448824 1.194048 -0.012365
v 0.448824 1.194048 -0.012365
v -0.448824 2.433076 -0.012365
v 0.448824 2.433076 -0.012365
v -0.448824 2.433076 0.157569
v -0.448824 1.194048 0.157569
v 0.448824 1.194048 0.157569
v 0.448824 2.433076 0.157569
v -0.448824 1.108167 -0.012365
v 0.448824 1.108167 -0.012365
v -0.448824 1.194048 0.246867
v 0.448824 1.194048 0.246867
v -0.448824 1.108167 0.246867
v 0.448824 1.108167 0.246867
vn -0.0000 -0.0000 1.0000
vn -0.0000 1.0000 -0.0000
vn 1.0000 -0.0000 -0.0000
vn -1.0000 -0.0000 -0.0000
vn -0.0000 -1.0000 -0.0000
vt 0.550000 0.450000
vt -0.050000 1.050000
vt -0.050000 0.450000
vt 0.614317 0.965911
vt 0.850560 0.922118
vt 0.887639 0.965911
vt 0.694424 0.550060
vt 0.873360 0.557889
vt 0.902245 0.575548
vt 0.972022 0.555766
vt 0.606555 0.465226
vt 0.671211 0.909773
vt 0.749565 0.535940
vt 0.877196 0.543317
vt 0.650223 0.411042
vt 0.965526 0.515664
vt 0.550000 1.050000
vt 0.750965 0.520624
s 0
usemtl Window
f 7/1/1 5/2/1 6/3/1
f 3/4/2 8/5/2 4/6/2
f 6/7/2 12/8/2 7/9/2
f 4/6/3 7/9/3 2/10/3
f 1/11/4 5/12/4 3/4/4
f 11/13/1 14/14/1 12/8/1
f 6/7/4 9/15/4 11/13/4
f 7/9/3 14/14/3 2/10/3
f 14/14/5 9/15/5 10/16/5
f 7/1/1 8/17/1 5/2/1
f 3/4/2 5/12/2 8/5/2
f 6/7/2 11/13/2 12/8/2
f 4/6/3 8/5/3 7/9/3
f 1/11/4 6/7/4 5/12/4
f 11/13/1 13/18/1 14/14/1
f 6/7/4 1/11/4 9/15/4
f 9/15/4 13/18/4 11/13/4
f 7/9/3 12/8/3 14/14/3
f 14/14/3 10/16/3 2/10/3
f 14/14/5 13/18/5 9/15/5
