# Blender 5.0.1
# www.blender.org
mtllib depot_atmo.mtl
o depot_atmo
v 1.600000 0.400000 -1.200000
v 1.600000 0.000000 -1.200000
v 1.600000 0.400000 1.000000
v 1.600000 0.000000 1.000000
v -1.600000 0.400000 -1.200000
v -1.600000 0.000000 -1.200000
v -1.600000 0.400000 1.000000
v -1.600000 0.000000 1.000000
v 0.000000 0.600000 -1.200000
v 0.000000 0.600000 1.000000
v 0.800000 0.400000 1.000000
v 0.800000 0.000000 1.000000
v -0.800000 0.400000 1.000000
v -0.800000 0.000000 1.000000
v 0.800000 0.400000 0.900000
v -0.800000 0.400000 0.900000
v 0.800000 0.000000 0.900000
v -0.800000 0.000000 0.900000
v -2.000000 0.400000 -1.200000
v -2.000000 0.000000 -1.200000
v -2.000000 0.400000 1.000000
v -2.000000 0.000000 1.000000
v -5.200000 0.400000 -1.200000
v -5.200000 0.000000 -1.200000
v -5.200000 0.400000 1.000000
v -5.200000 0.000000 1.000000
v -3.600000 0.600000 -1.200000
v -3.600000 0.600000 1.000000
v -2.800000 0.400000 1.000000
v -2.800000 0.000000 1.000000
v -4.400000 0.400000 1.000000
v -4.400000 0.000000 1.000000
v -2.800000 0.400000 0.900000
v -4.400000 0.400000 0.900000
v -2.800000 0.000000 0.900000
v -4.400000 0.000000 0.900000
v -4.540207 0.378420 4.823013
v -4.540207 0.000000 4.823013
v -3.131910 0.378420 4.823012
v -3.131910 0.000000 4.823012
v -3.131910 0.000000 3.414716
v -3.131910 0.378420 3.414716
v -4.540207 0.000000 3.414716
v -4.540207 0.378420 3.414716
v -4.540207 0.641715 4.118865
v -3.131910 0.641715 4.118865
v -4.258057 0.000000 4.916052
v -4.258057 0.211109 4.916052
v -4.370491 0.000000 4.916052
v -4.370491 0.211109 4.916052
v -4.258057 0.000000 4.820890
v -4.258057 0.350603 4.820890
v -4.370491 0.000000 4.820890
v -4.370491 0.350603 4.820890
v -3.858057 0.000000 4.916052
v -3.858057 0.211109 4.916052
v -3.970491 0.000000 4.916052
v -3.970491 0.211109 4.916052
v -3.858057 0.000000 4.820890
v -3.858057 0.350603 4.820890
v -3.970491 0.000000 4.820890
v -3.970491 0.350603 4.820890
v -3.458057 0.000000 4.916052
v -3.458057 0.211109 4.916052
v -3.570492 0.000000 4.916052
v -3.570492 0.211109 4.916052
v -3.458057 0.000000 4.820890
v -3.458057 0.350603 4.820890
v -3.570492 0.000000 4.820890
v -3.570492 0.350603 4.820890
v -3.570493 0.000000 3.321845
v -3.570493 0.211109 3.321845
v -3.458059 0.000000 3.321845
v -3.458059 0.211109 3.321845
v -3.570493 0.000000 3.417006
v -3.570493 0.350603 3.417006
v -3.458059 0.000000 3.417006
v -3.458059 0.350603 3.417006
v -3.970493 0.000000 3.321845
v -3.970493 0.211109 3.321845
v -3.858059 0.000000 3.321845
v -3.858059 0.211109 3.321845
v -3.970493 0.000000 3.417006
v -3.970493 0.350603 3.417006
v -3.858059 0.000000 3.417006
v -3.858059 0.350603 3.417006
v -4.370493 0.000000 3.321845
v -4.370493 0.211109 3.321845
v -4.258059 0.000000 3.321845
v -4.258059 0.211109 3.321845
v -4.370493 0.000000 3.417006
v -4.370493 0.350603 3.417006
v -4.258059 0.000000 3.417006
v -4.258059 0.350603 3.417006
v -0.752992 0.000000 5.095051
v -0.230396 0.000000 5.095051
v -0.752992 0.000000 4.277536
v -0.230396 0.000000 4.277536
v -0.752992 0.208110 4.277536
v -0.752992 0.208110 5.095051
v -0.230396 0.208110 5.095051
v -0.230396 0.208110 4.277536
v -0.491694 0.381151 4.277536
v -0.491694 0.381151 5.095051
v -0.287316 0.312982 4.277536
v -0.287316 0.312982 5.095051
v -0.696073 0.312982 4.277536
v -0.696073 0.312982 5.095051
v 0.247008 0.000000 5.095051
v 0.769604 0.000000 5.095051
v 0.247008 0.000000 4.277536
v 0.769604 0.000000 4.277536
v 0.247008 0.208110 4.277536
v 0.247008 0.208110 5.095051
v 0.769604 0.208110 5.095051
v 0.769604 0.208110 4.277536
v 0.508306 0.381151 4.277536
v 0.508306 0.381151 5.095051
v 0.712684 0.312982 4.277536
v 0.712684 0.312982 5.095051
v 0.303927 0.312982 4.277536
v 0.303927 0.312982 5.095051
v 1.247008 0.000000 5.095051
v 1.769604 0.000000 5.095051
v 1.247008 0.000000 4.277536
v 1.769604 0.000000 4.277536
v 1.247008 0.208110 4.277536
v 1.247008 0.208110 5.095051
v 1.769604 0.208110 5.095051
v 1.769604 0.208110 4.277536
v 1.508306 0.381151 4.277536
v 1.508306 0.381151 5.095051
v 1.712684 0.312982 4.277536
v 1.712684 0.312982 5.095051
v 1.303927 0.312982 4.277536
v 1.303927 0.312982 5.095051
vn -0.0000 -0.0000 1.0000
vn -1.0000 -0.0000 -0.0000
vn 1.0000 -0.0000 -0.0000
vn -0.0000 -0.0000 -1.0000
vn 0.1240 0.9923 -0.0000
vn -0.1240 0.9923 -0.0000
vn -0.0000 -1.0000 -0.0000
vn -0.0000 0.9367 -0.3502
vn -0.0000 0.9367 0.3502
vn -0.0000 0.5635 0.8261
vn -0.0000 0.5635 -0.8261
vn -0.8789 0.4770 -0.0000
vn 0.3164 0.9486 -0.0000
vn 0.8789 0.4770 -0.0000
vn -0.3164 0.9486 -0.0000
vn -0.0000 0.5636 0.8261
vt 3.000000 2.000000
vt 0.000000 0.000000
vt 3.000000 0.000000
vt 8.000000 2.000000
vt 8.000000 0.000000
vt 8.000000 4.000000
vt 4.000000 1.000000
vt 0.049634 0.804775
vt -3.434274 -0.065920
vt 3.533543 -0.065920
vt 0.000000 4.000000
vt -6.917387 -0.065556
vt 0.000035 -0.000035
vt 3.000000 -0.000035
vt 7.016655 -0.065556
vt 0.685912 0.591069
vt 0.663208 0.500252
vt 0.685912 0.500252
vt 3.000025 0.999950
vt 0.000050 0.000000
vt 2.999975 0.000000
vt 0.685912 0.682391
vt 0.663208 0.591574
vt 0.685912 0.591574
vt 0.480060 0.863522
vt 0.457355 0.500252
vt 0.480060 0.500252
vt 0.062500 -0.509259
vt 4.099540 1.509260
vt 0.062500 1.509260
vt 4.099542 -0.509260
vt 8.136581 -0.509260
vt 8.136581 1.509261
vt -8.011581 -0.509261
vt -3.974540 1.509260
vt -8.011580 1.509260
vt -3.974540 -0.509259
vt -2.340883 0.500000
vt 3.277546 3.487250
vt -2.324664 3.499172
vt 0.751762 0.681453
vt 0.087727 -0.804302
vt 0.751762 -0.804302
vt 3.277546 -2.487250
vt 3.271430 0.500000
vt 0.087727 0.681453
vt -0.675203 -0.804302
vt 1.514692 -0.804302
vt 0.751762 1.804302
vt 0.087727 1.804302
vt 0.000267 0.608178
vt 0.727432 0.714140
vt 0.000383 0.714272
vt 0.727432 0.000779
vt 0.000199 0.118524
vt 0.000692 -0.000000
vt 0.000394 0.832715
vt 0.727314 0.832626
vt 0.727432 0.000208
vt 0.939002 0.050443
vt 0.939002 0.414240
vt 0.727432 0.464891
vt 0.939002 0.515126
vt 0.939002 0.878923
vt -0.000000 0.416510
vt 0.726876 0.225175
vt 0.726988 0.416550
vt 0.000021 0.224735
vt 0.727034 0.119183
vt 0.727252 0.608031
vt 0.000000 2.000000
vt 0.000036 2.000000
vt 0.663208 0.591069
vt 0.000000 0.999950
vt 0.663208 0.682391
vt 0.457355 0.863522
vt 6.118062 -0.509260
vt -1.956020 -0.509259
vt -2.324664 -2.499172
vt -0.675203 1.505303
vt 1.514692 1.505303
vt 0.845726 0.464683
vt 0.727432 0.464475
vt 0.845726 -0.000000
vt 1.000000 0.232341
vt 0.845726 0.929366
vt 0.727432 0.929158
vt 0.845726 0.464683
vt 1.000000 0.697024
s 0
usemtl metal_roof
f 9/6/5 3/2/5 1/5/5
f 9/11/6 7/5/6 10/6/6
f 27/6/5 21/2/5 19/5/5
f 27/11/6 25/5/6 28/6/6
f 45/38/8 42/39/8 44/40/8
f 45/38/9 39/44/9 46/45/9
f 9/6/5 10/11/5 3/2/5
f 9/11/6 5/2/6 7/5/6
f 27/6/5 28/11/5 21/2/5
f 27/11/6 23/2/6 25/5/6
f 45/38/8 46/45/8 42/39/8
f 45/38/9 37/79/9 39/44/9
usemtl corrugated_wall
f 3/1/1 12/2/1 4/3/1
f 7/4/2 6/2/2 8/5/2
f 1/4/3 4/2/3 2/5/3
f 5/4/4 2/2/4 6/5/4
f 1/2/4 5/5/4 9/7/4
f 10/8/1 13/9/1 11/10/1
f 7/12/1 13/9/1 10/8/1
f 13/1/1 8/13/1 14/14/1
f 10/8/1 11/10/1 3/15/1
f 11/16/2 17/17/2 12/18/2
f 14/22/3 16/23/3 13/24/3
f 13/25/7 15/26/7 11/27/7
f 21/1/1 30/2/1 22/3/1
f 25/4/2 24/2/2 26/5/2
f 19/4/3 22/2/3 20/5/3
f 23/4/4 20/2/4 24/5/4
f 19/2/4 23/5/4 27/7/4
f 28/8/1 31/9/1 29/10/1
f 25/12/1 31/9/1 28/8/1
f 31/1/1 26/13/1 32/14/1
f 28/8/1 29/10/1 21/15/1
f 29/16/2 35/17/2 30/18/2
f 32/22/3 34/23/3 31/24/3
f 31/25/7 33/26/7 29/27/7
f 39/28/1 38/29/1 40/30/1
f 37/31/2 44/32/2 43/33/2
f 44/34/4 41/35/4 43/36/4
f 42/37/3 39/28/3 40/30/3
f 3/1/1 11/71/1 12/2/1
f 7/4/2 5/71/2 6/2/2
f 1/4/3 3/71/3 4/2/3
f 5/4/4 1/71/4 2/2/4
f 13/1/1 7/72/1 8/13/1
f 11/16/2 15/73/2 17/17/2
f 14/22/3 18/75/3 16/23/3
f 13/25/7 16/76/7 15/26/7
f 21/1/1 29/71/1 30/2/1
f 25/4/2 23/71/2 24/2/2
f 19/4/3 21/71/3 22/2/3
f 23/4/4 19/71/4 20/2/4
f 31/1/1 25/72/1 26/13/1
f 29/16/2 33/73/2 35/17/2
f 32/22/3 36/75/3 34/23/3
f 31/25/7 34/76/7 33/26/7
f 39/28/1 37/31/1 38/29/1
f 43/33/2 38/29/2 37/31/2
f 37/31/2 45/77/2 44/32/2
f 44/34/4 42/37/4 41/35/4
f 40/30/3 41/35/3 42/37/3
f 42/37/3 46/78/3 39/28/3
usemtl garage_door
f 18/19/1 15/20/1 16/21/1
f 36/19/1 33/20/1 34/21/1
f 18/19/1 17/74/1 15/20/1
f 36/19/1 35/74/1 33/20/1
usemtl concrete
f 48/41/1 49/42/1 47/43/1
f 50/46/2 53/47/2 49/42/2
f 56/41/1 57/42/1 55/43/1
f 51/48/3 48/41/3 47/43/3
f 58/46/2 61/47/2 57/42/2
f 50/46/10 52/49/10 54/50/10
f 59/48/3 56/41/3 55/43/3
f 58/46/10 60/49/10 62/50/10
f 64/41/1 65/42/1 63/43/1
f 66/46/2 69/47/2 65/42/2
f 67/48/3 64/41/3 63/43/3
f 66/46/10 68/49/10 70/50/10
f 72/41/4 73/42/4 71/43/4
f 74/46/3 77/47/3 73/42/3
f 80/41/4 81/42/4 79/43/4
f 75/48/2 72/41/2 71/43/2
f 82/46/3 85/47/3 81/42/3
f 74/46/11 76/49/11 78/50/11
f 83/48/2 80/41/2 79/43/2
f 82/46/11 84/49/11 86/50/11
f 88/41/4 89/42/4 87/43/4
f 90/46/3 93/47/3 89/42/3
f 91/48/2 88/41/2 87/43/2
f 90/46/11 92/49/11 94/50/11
f 48/41/1 50/46/1 49/42/1
f 50/46/2 54/80/2 53/47/2
f 56/41/1 58/46/1 57/42/1
f 51/48/3 52/81/3 48/41/3
f 58/46/2 62/80/2 61/47/2
f 50/46/16 48/41/16 52/49/16
f 59/48/3 60/81/3 56/41/3
f 58/46/10 56/41/10 60/49/10
f 64/41/1 66/46/1 65/42/1
f 66/46/2 70/80/2 69/47/2
f 67/48/3 68/81/3 64/41/3
f 66/46/10 64/41/10 68/49/10
f 72/41/4 74/46/4 73/42/4
f 74/46/3 78/80/3 77/47/3
f 80/41/4 82/46/4 81/42/4
f 75/48/2 76/81/2 72/41/2
f 82/46/3 86/80/3 85/47/3
f 74/46/11 72/41/11 76/49/11
f 83/48/2 84/81/2 80/41/2
f 82/46/11 80/41/11 84/49/11
f 88/41/4 90/46/4 89/42/4
f 90/46/3 94/80/3 93/47/3
f 91/48/2 92/81/2 88/41/2
f 90/46/11 88/41/11 92/49/11
usemtl no_texture
f 108/51/12 99/52/12 100/53/12
f 98/54/3 101/55/3 96/56/3
f 95/57/2 99/52/2 97/58/2
f 97/59/4 107/60/4 105/61/4
f 96/62/1 106/63/1 108/64/1
f 104/65/13 105/66/13 103/67/13
f 106/68/14 102/69/14 105/66/14
f 108/51/15 103/67/15 107/70/15
f 122/51/12 113/52/12 114/53/12
f 112/54/3 115/55/3 110/56/3
f 109/57/2 113/52/2 111/58/2
f 111/59/4 121/60/4 119/61/4
f 110/62/1 120/63/1 122/64/1
f 118/65/13 119/66/13 117/67/13
f 120/68/14 116/69/14 119/66/14
f 122/51/15 117/67/15 121/70/15
f 136/51/12 127/52/12 128/53/12
f 126/54/3 129/55/3 124/56/3
f 123/57/2 127/52/2 125/58/2
f 125/59/4 135/60/4 133/61/4
f 124/62/1 134/63/1 136/64/1
f 132/65/13 133/66/13 131/67/13
f 134/68/14 130/69/14 133/66/14
f 136/51/15 131/67/15 135/70/15
f 108/51/12 107/70/12 99/52/12
f 98/54/3 102/69/3 101/55/3
f 95/57/2 100/53/2 99/52/2
f 102/82/4 98/83/4 97/59/4
f 97/59/4 99/84/4 107/60/4
f 107/60/4 103/85/4 105/61/4
f 105/61/4 102/82/4 97/59/4
f 100/86/1 95/87/1 96/62/1
f 96/62/1 101/88/1 106/63/1
f 106/63/1 104/89/1 108/64/1
f 108/64/1 100/86/1 96/62/1
f 104/65/13 106/68/13 105/66/13
f 106/68/14 101/55/14 102/69/14
f 108/51/15 104/65/15 103/67/15
f 122/51/12 121/70/12 113/52/12
f 112/54/3 116/69/3 115/55/3
f 109/57/2 114/53/2 113/52/2
f 116/82/4 112/83/4 111/59/4
f 111/59/4 113/84/4 121/60/4
f 121/60/4 117/85/4 119/61/4
f 119/61/4 116/82/4 111/59/4
f 114/86/1 109/87/1 110/62/1
f 110/62/1 115/88/1 120/63/1
f 120/63/1 118/89/1 122/64/1
f 122/64/1 114/86/1 110/62/1
f 118/65/13 120/68/13 119/66/13
f 120/68/14 115/55/14 116/69/14
f 122/51/15 118/65/15 117/67/15
f 136/51/12 135/70/12 127/52/12
f 126/54/3 130/69/3 129/55/3
f 123/57/2 128/53/2 127/52/2
f 130/82/4 126/83/4 125/59/4
f 125/59/4 127/84/4 135/60/4
f 135/60/4 131/85/4 133/61/4
f 133/61/4 130/82/4 125/59/4
f 128/86/1 123/87/1 124/62/1
f 124/62/1 129/88/1 134/63/1
f 134/63/1 132/89/1 136/64/1
f 136/64/1 128/86/1 124/62/1
f 132/65/13 134/68/13 133/66/13
f 134/68/14 129/55/14 130/69/14
f 136/51/15 132/65/15 131/67/15
