# Blender 5.0.1
# www.blender.org
mtllib station_3.mtl
o station_3
v 3.799556 6.051816 -6.814106
v 3.799563 10.160439 -6.814336
v 3.799556 6.051820 -6.935291
v 3.799563 10.160442 -6.935522
v 3.920741 6.051817 -6.814106
v 3.920748 10.160439 -6.814336
v 3.920741 6.051820 -6.935291
v 3.920748 10.160442 -6.935522
v 3.860155 10.160443 -6.965688
v 3.860149 6.051820 -6.965457
v 3.769391 6.051818 -6.874698
v 3.769398 10.160440 -6.874929
v 3.860155 10.160439 -6.784173
v 3.860149 6.051816 -6.783943
v 3.950906 6.051818 -6.874698
v 3.950913 10.160440 -6.874929
v 3.746450 -3.649971 -0.612862
v 4.496075 1.469389 -0.184010
v 4.935068 -3.777967 -1.162640
v 5.684692 1.341393 -0.733791
v 4.277996 -3.827534 0.577679
v 5.027620 1.291824 1.006523
v 5.466614 -3.955530 0.027897
v 6.216236 1.163830 0.456749
v 6.246323 1.220753 -0.275368
v 5.496698 -3.898607 -0.704216
v 4.208452 -3.669773 -1.184078
v 4.958082 1.449585 -0.755241
v 4.465990 1.412462 0.548096
v 3.716368 -3.706894 0.119247
v 5.004604 -3.935732 0.599125
v 5.754227 1.183628 1.027969
v 5.222610 1.951420 -0.300152
v 5.616764 1.892733 -0.288517
v 5.921419 1.827293 -0.039841
v 5.905104 1.796412 0.357288
v 5.654482 1.807154 0.667156
v 5.260332 1.865843 0.655521
v 4.955675 1.931282 0.406845
v 4.971991 1.962160 0.009712
v 3.210642 -53.242939 -1.557480
v -29.808916 -41.338284 -22.813210
v 4.278059 -32.393463 -38.400230
v 26.011591 -29.697334 8.461937
v 16.842386 -38.782284 -3.184978
v -6.248982 -44.211575 18.320995
v -16.418015 -57.381435 -1.718971
v 14.400827 -49.158100 -20.944923
v 25.289553 -18.435398 -20.078964
v -8.002693 -4.596333 20.381912
v -26.573906 -31.167660 10.429890
v -20.238119 -50.946529 -21.560722
v -29.710176 -37.916061 -1.455063
v 19.222254 -31.060192 -28.220619
v -10.346385 -1.731873 -6.031422
v 22.746592 -23.974327 9.995907
v -5.758865 -20.652248 20.990261
v 2.291553 -43.584026 14.919304
v -2.268243 -2.401485 3.789974
v -34.797306 -33.386528 -15.101578
v -24.591139 -9.157822 -3.483101
v -10.863601 -5.899418 -18.168015
v -28.479311 -17.637520 5.743702
v -4.504694 -25.913891 -34.920563
v -19.204569 -48.288616 13.121441
v -14.970259 -32.043598 17.766357
v -20.902390 -54.619312 7.333805
v 11.691404 -51.828808 -10.892937
v 15.499855 -2.794764 -12.032379
v -1.890769 -3.982561 13.987389
v 7.085424 -7.155224 5.028049
v -25.816694 -46.624615 9.196873
v -5.785350 -48.667316 -29.587334
v 8.692816 -0.094994 -15.796402
v -34.503052 -25.823780 -7.729050
v 7.312700 -3.082537 -21.972504
v -9.989841 -12.741482 -24.663849
v 1.562650 -15.593372 -26.982536
v -19.771946 -18.381420 -20.840630
v -15.572742 -29.201103 -26.830559
v -31.342867 -28.816238 -19.999527
v -30.379824 -18.930798 -10.081047
v -21.032040 -1.939499 3.003410
v 17.232555 -23.821827 -27.216248
v -12.753983 -45.222675 -27.940216
v -25.025145 -7.389343 15.111843
v -18.344721 -8.558086 23.343369
v -15.896824 -0.945200 15.335556
v 3.635893 -38.558102 -38.405304
v 13.549379 -45.764568 -27.837669
v 7.386147 -50.126972 -26.097244
v -19.934345 -55.273052 -12.271935
v -24.984993 -17.082630 19.441727
v 5.796846 -18.734913 16.799679
v 20.348917 -6.473591 -20.208351
v 24.786551 -15.066147 -2.762722
v 28.413084 -22.518932 -9.840149
v -4.569057 -56.236172 2.059410
v 0.658443 -35.641705 25.526066
v 12.950277 -34.346222 22.494274
v 9.709360 -29.095421 22.778885
v -5.080470 -9.077129 -1.643051
v -1.392218 -0.000019 -2.146606
v -4.192839 -9.077152 -10.676643
v -0.936659 -0.000027 -6.782913
v 3.953127 -9.077087 -0.755417
v 3.244086 0.000000 -1.691048
v 4.840752 -9.077118 -9.789009
v 3.699646 -0.000011 -6.327354
v 6.301167 -9.077095 -5.085106
v 4.449173 0.000006 -3.913174
v 0.829904 -0.000002 -0.941525
v -0.750783 -9.077106 0.704994
v -6.540887 -9.077148 -6.346954
v -2.141746 -0.000031 -4.560791
v 0.511061 -9.077141 -12.137062
v 1.477519 -0.000019 -7.532440
v -2.171346 -0.397171 -9.798698
v -2.171363 4.015202 -9.798714
v -2.059572 -0.397181 -10.936256
v -2.059589 4.015205 -10.936256
v -1.033798 -0.397173 -9.686935
v -1.033812 4.015200 -9.686943
v -0.922021 -0.397179 -10.824486
v -0.922038 4.015202 -10.824486
v -0.738121 -0.397175 -10.232147
v -0.738139 4.015202 -10.232155
v -1.626147 4.015209 -9.503029
v -1.626135 -0.397173 -9.503036
v -2.355248 -0.397182 -10.391045
v -2.355266 4.015203 -10.391045
v -1.467237 -0.397175 -11.120155
v -1.467255 4.015198 -11.120163
v -1.726749 3.543123 -10.712517
v -1.726694 12.610138 -10.712059
v -1.718787 3.543095 -10.793564
v -1.718730 12.610134 -10.793106
v -1.645706 3.543131 -10.704552
v -1.645649 12.610149 -10.704094
v -1.637742 3.543116 -10.785599
v -1.637685 12.610165 -10.785141
v -1.624639 3.543121 -10.743401
v -1.624583 12.610138 -10.742943
v -1.687849 12.610147 -10.691002
v -1.687905 3.543110 -10.691452
v -1.739854 3.543098 -10.754715
v -1.739798 12.610128 -10.754265
v -1.676587 3.543118 -10.806664
v -1.676526 12.610130 -10.806206
v -1.577147 3.500137 -9.949158
v -1.574596 7.699976 -9.948074
v -1.556868 3.500126 -10.155579
v -1.554311 7.699982 -10.154488
v -1.370742 3.500160 -9.928894
v -1.368188 7.700005 -9.927788
v -1.350458 3.500160 -10.135292
v -1.347899 7.700016 -10.134193
v -1.317086 3.500164 -10.027809
v -1.314536 7.700008 -10.026703
v -1.475670 7.699993 -9.894424
v -1.478216 3.500134 -9.895523
v -1.610522 3.500122 -10.056648
v -1.607966 7.699970 -10.055550
v -1.449388 3.500156 -10.188950
v -1.446836 7.699991 -10.187859
v -4.999809 -0.308865 -4.756378
v -4.913304 0.619144 -4.795822
v -5.913550 -0.330372 -6.836124
v -5.827047 0.597635 -6.875565
v -1.508461 -0.248312 -6.093334
v -1.421956 0.679691 -6.132778
v -2.422203 -0.269825 -8.173080
v -2.335696 0.658182 -8.212532
v -3.053228 0.651640 -4.998444
v -3.075140 -0.274462 -4.981682
v -4.282283 -0.302319 -7.970451
v -4.260370 0.623775 -7.987228
v 2.964771 -4.565338 -0.372337
v 3.267519 -2.497841 -0.199154
v 5.257864 -2.925383 1.425457
v 4.955111 -4.992870 1.252274
v 8.706028 -2.730949 -6.923317
v 8.403278 -4.798445 -7.096504
v 10.393621 -5.225979 -5.471886
v 10.696362 -3.158489 -5.298706
v 5.830235 -3.743015 -3.144501
v 6.579855 1.376345 -2.715649
v 7.018854 -3.871010 -3.694275
v 7.768475 1.248352 -3.265427
v 6.361782 -3.920580 -1.953964
v 7.111403 1.198780 -1.525116
v 7.550396 -4.048576 -2.503738
v 8.300020 1.070786 -2.074886
v 8.330103 1.127708 -2.807003
v 7.580481 -3.991650 -3.235851
v 6.292236 -3.762819 -3.715717
v 7.041864 1.356544 -3.286873
v 6.549776 1.319418 -1.983540
v 5.800154 -3.799942 -2.412392
v 7.088388 -4.028774 -1.932514
v 7.838011 1.090586 -1.503666
v 7.306395 1.858379 -2.831791
v 7.700548 1.799688 -2.820152
v 8.005203 1.734247 -2.571480
v 7.988886 1.703369 -2.174347
v 7.738268 1.714106 -1.864479
v 7.344116 1.772800 -1.876114
v 7.039457 1.838240 -2.124790
v 7.055775 1.869116 -2.521927
v 7.914017 -3.836058 -5.676136
v 8.663641 1.283302 -5.247284
v 9.102638 -3.964050 -6.225914
v 9.852259 1.155308 -5.797066
v 8.445564 -4.013626 -4.485600
v 9.195189 1.105738 -4.056755
v 9.634180 -4.141623 -5.035374
v 10.383802 0.977743 -4.606522
v 10.413889 1.034662 -5.338638
v 9.664265 -4.084696 -5.767487
v 8.376020 -3.855862 -6.247353
v 9.125648 1.263500 -5.818520
v 8.633558 1.226376 -4.515175
v 7.883936 -3.892984 -4.944023
v 9.172174 -4.121815 -4.464149
v 9.921793 0.997538 -4.035305
v 9.390179 1.765331 -5.363430
v 9.784332 1.706646 -5.351788
v 10.088985 1.641203 -5.103119
v 10.072670 1.610325 -4.705986
v 9.822050 1.621063 -4.396114
v 9.427898 1.679756 -4.407753
v 9.123241 1.745197 -4.656425
v 9.139557 1.776070 -5.053570
v 4.467405 -3.646118 -5.860611
v 4.431852 3.996405 -5.914368
v 3.553770 -3.673357 -7.940346
v 3.518221 3.969130 -7.994095
v 7.958757 -3.585630 -7.197567
v 7.923206 4.056868 -7.251328
v 7.045115 -3.612902 -9.277306
v 7.009571 4.029596 -9.331062
v 6.292130 4.018211 -6.116966
v 6.392088 -3.612606 -6.085907
v 5.184847 -3.634693 -9.074707
v 5.084879 3.996084 -9.105766
v -6.540920 -0.000042 -6.346977
v -4.192872 -0.000048 -10.676674
v 0.511030 -0.000034 -12.137085
v 4.840725 -0.000019 -9.789040
v 6.301140 0.000000 -5.085140
v 3.953093 0.000006 -0.755444
v -0.750818 0.000002 0.704967
v -5.080503 -0.000023 -1.643074
v -1.414417 0.366318 -4.489326
v -0.475300 0.366325 -6.221008
v 1.406050 0.366329 -6.805107
v 3.137741 0.366333 -5.865993
v 3.721840 0.366346 -3.984642
v 2.782724 0.366343 -2.252956
v 0.901368 0.366344 -1.668854
v -0.830315 0.366337 -2.607967
v -2.141748 0.493713 -4.560791
v -0.936660 0.493710 -6.782921
v 1.477516 0.493721 -7.532440
v 3.699646 0.493732 -6.327351
v 4.449173 0.493742 -3.913181
v 3.244085 0.493740 -1.691051
v 0.829901 0.493740 -0.941525
v -1.392220 0.493721 -2.146606
v -1.414415 -0.379845 -4.489326
v -0.475298 -0.379848 -6.221012
v 1.406052 -0.379841 -6.805107
v 3.137743 -0.379833 -5.865993
v 3.721840 -0.379818 -3.984638
v 2.782726 -0.379826 -2.252953
v 0.901370 -0.379822 -1.668850
v -0.830311 -0.379837 -2.607964
v 4.925814 3.992279 -9.484108
v 7.340269 4.034313 -9.766731
v 6.440266 4.020031 -5.734768
v 4.106619 3.992676 -5.480610
v 8.486391 4.068525 -7.157780
v 2.960499 3.958464 -8.089569
v 4.878309 6.610538 -9.489738
v 7.292763 6.652573 -9.772377
v 6.392759 6.638290 -5.740406
v 4.059114 6.610935 -5.486256
v 8.438885 6.686787 -7.163422
v 2.912997 6.576721 -8.095207
v 7.403110 6.051942 -8.483614
v 7.403116 10.160565 -8.483845
v 7.403110 6.051946 -8.604799
v 7.403116 10.160568 -8.605030
v 7.524295 6.051943 -8.483614
v 7.524302 10.160565 -8.483845
v 7.524295 6.051946 -8.604799
v 7.524302 10.160568 -8.605030
v 7.463709 10.160569 -8.635197
v 7.463702 6.051946 -8.634966
v 7.372945 6.051944 -8.544207
v 7.372952 10.160566 -8.544437
v 7.463709 10.160564 -8.453682
v 7.463702 6.051942 -8.453451
v 7.554460 6.051944 -8.544207
v 7.554466 10.160566 -8.544437
vn -0.8952 -0.0000 0.4457
vn -0.4457 -0.0000 -0.8952
vn 0.8952 -0.0000 -0.4457
vn 0.4456 -0.0000 0.8952
vn 0.4457 -0.0001 -0.8952
vn -0.8952 -0.0000 -0.4457
vn -0.4456 0.0001 0.8952
vn 0.8952 -0.0000 0.4457
vn -0.0000 1.0000 -0.0000
vn -0.7642 0.1642 -0.6238
vn 0.6286 -0.0269 -0.7772
vn 0.7642 -0.1642 0.6238
vn -0.6286 0.0269 0.7772
vn -0.7238 0.6896 0.0239
vn 0.9887 -0.1472 0.0292
vn 0.0409 0.0775 -0.9962
vn -0.9887 0.1472 -0.0292
vn -0.0409 -0.0775 0.9962
vn 0.1444 0.9861 0.0826
vn 0.5966 0.5474 -0.5868
vn 0.8905 0.4493 0.0715
vn 0.7073 0.4354 0.5569
vn 0.0500 0.5062 0.8610
vn -0.5405 0.7035 -0.4615
vn 0.1168 0.6327 -0.7656
vn -0.4298 0.5914 0.6822
vn 0.9550 -0.0000 -0.2965
vn -0.2965 -0.0000 -0.9550
vn -0.9550 -0.0000 0.2965
vn 0.6828 0.2013 0.7023
vn 0.4968 -0.7363 0.4593
vn 0.2898 -0.7550 0.5882
vn -0.5371 -0.0995 0.8376
vn 0.1711 -0.9536 -0.2475
vn 0.9676 -0.2521 0.0142
vn 0.8922 -0.3516 -0.2833
vn -0.9540 -0.0700 0.2915
vn 0.7874 -0.6061 -0.1121
vn 0.9102 -0.2055 -0.3596
vn -0.0357 0.9946 0.0972
vn -0.8883 0.3379 -0.3112
vn -0.6194 0.3053 -0.7233
vn -0.2509 0.6495 -0.7178
vn -0.0834 0.4032 -0.9113
vn -0.4827 0.2733 -0.8320
vn -0.8573 0.4039 -0.3193
vn -0.8477 0.5271 0.0587
vn -0.8776 0.4748 0.0666
vn -0.6076 0.6753 -0.4181
vn 0.2813 0.8377 -0.4681
vn 0.5376 0.2591 -0.8024
vn 0.5282 0.2575 -0.8091
vn 0.2877 0.5697 -0.7699
vn -0.3446 0.0367 -0.9380
vn -0.3947 -0.4038 -0.8253
vn -0.3498 -0.4552 -0.8188
vn -0.2844 0.0163 -0.9586
vn -0.9195 -0.1843 0.3473
vn -0.9647 0.1040 0.2419
vn -0.7262 0.2779 0.6288
vn -0.0893 0.7353 0.6718
vn -0.0646 0.9965 -0.0535
vn 0.2380 0.9401 0.2439
vn 0.5656 -0.0582 -0.8226
vn 0.6120 -0.2556 -0.7484
vn 0.4324 -0.7867 -0.4407
vn -0.7968 -0.5960 0.0992
vn -0.6557 -0.6924 -0.3011
vn -0.5204 -0.8539 0.0028
vn -0.5068 -0.4233 0.7510
vn -0.2245 -0.2556 0.9404
vn -0.0464 -0.2371 0.9704
vn 0.4368 0.8912 0.1220
vn 0.6246 0.4475 0.6400
vn 0.7017 0.4681 0.5372
vn 0.7364 0.6621 0.1388
vn 0.9430 0.2487 0.2213
vn 0.8946 -0.4284 0.1273
vn -0.0005 -0.9565 0.2916
vn -0.0927 -0.6582 0.7471
vn -0.5330 -0.4886 0.6908
vn -0.3157 -0.1839 0.9309
vn -0.4790 -0.3058 0.8229
vn 0.2041 0.5460 0.8126
vn 0.5933 0.3263 0.7359
vn 0.8396 0.3732 0.3948
vn 0.6905 -0.6066 0.3941
vn 0.2192 -0.9292 -0.2975
vn 0.3278 0.0815 0.9412
vn 0.2492 0.0714 0.9658
vn -0.5254 -0.0932 0.8457
vn -0.2365 0.9220 -0.3065
vn -0.0897 -0.9040 -0.4181
vn 0.2297 -0.7618 0.6058
vn -0.8276 0.0246 -0.5607
vn 0.0974 0.5701 -0.8157
vn -0.0075 0.6124 -0.7905
vn -0.5565 0.5336 -0.6369
vn -0.3894 0.1563 -0.9077
vn -0.3672 0.3373 -0.8668
vn -0.6178 0.6573 -0.4316
vn -0.6065 0.5548 -0.5696
vn -0.5833 0.6029 -0.5443
vn -0.2731 0.9134 -0.3020
vn 0.1666 0.3434 -0.9243
vn 0.5590 0.2223 -0.7988
vn -0.5091 -0.0919 -0.8558
vn -0.3851 -0.3762 -0.8427
vn -0.5048 0.6974 0.5087
vn -0.9345 -0.2291 0.2723
vn -0.9152 0.0106 0.4028
vn -0.8698 0.4889 -0.0668
vn -0.9294 0.3648 -0.0564
vn 0.2228 0.9646 0.1413
vn 0.2299 0.9231 0.3083
vn 0.3732 0.8380 0.3982
vn 0.2687 -0.6596 -0.7019
vn 0.4326 0.8900 -0.1439
vn -0.0729 -0.9878 -0.1378
vn 0.2636 -0.9476 -0.1807
vn -0.8579 -0.5043 -0.0987
vn -0.8432 -0.5303 0.0889
vn 0.8692 0.4894 -0.0700
vn -0.9673 -0.0501 0.2488
vn 0.5309 0.5743 0.6231
vn 0.1147 -0.7930 0.5983
vn -0.4262 0.0899 0.9001
vn 0.7797 -0.6109 -0.1373
vn 0.5377 -0.8106 0.2319
vn 0.5363 -0.8163 0.2145
vn 0.0613 0.3130 0.9478
vn 0.2296 0.0892 0.9692
vn 0.4415 0.7010 0.5600
vn 0.4517 0.5678 0.6882
vn 0.2965 -0.0000 0.9550
vn 0.4767 -0.0000 -0.8791
vn 0.8791 -0.0000 0.4767
vn -0.4767 -0.0000 0.8791
vn -0.8791 -0.0000 -0.4767
vn 0.9550 -0.0000 -0.2966
vn -0.2965 0.0001 -0.9550
vn -0.9550 -0.0000 0.2966
vn -0.0001 1.0000 -0.0003
vn 0.9550 -0.0005 -0.2965
vn -0.2965 0.0004 -0.9550
vn -0.9550 0.0005 0.2965
vn 0.2965 -0.0004 0.9550
vn -0.0001 1.0000 -0.0000
vn 0.8790 -0.0007 0.4768
vn -0.4766 0.0001 0.8791
vn -0.8790 0.0007 -0.4767
vn 0.4768 -0.0001 -0.8790
vn -0.5710 0.0183 -0.8207
vn 0.5787 0.0011 0.8156
vn -0.0182 0.9998 -0.0023
vn 0.9112 -0.1019 -0.3993
vn 0.1157 0.0314 0.9928
vn -0.9112 0.1019 0.3993
vn -0.1080 -0.0155 -0.9940
vn -0.7642 0.1641 -0.6238
vn 0.7642 -0.1641 0.6238
vn 0.7073 0.4354 0.5570
vn -0.5708 -0.0084 -0.8210
vn 0.5785 0.0109 0.8156
vn 0.0213 -0.9998 -0.0035
vn 0.9155 0.0014 -0.4022
vn 0.1161 0.0075 0.9932
vn -0.9155 -0.0014 0.4022
vn -0.1082 -0.0055 -0.9941
vn 0.1634 0.9826 0.0886
vn -0.0886 0.9826 0.1634
vn -0.1634 0.9826 -0.0886
vn 0.0886 0.9826 -0.1634
vn -0.1775 0.9826 0.0551
vn -0.0551 0.9826 -0.1775
vn 0.1775 0.9826 -0.0551
vn 0.0551 0.9826 0.1775
vn 0.0117 -0.9999 0.0002
vn 0.0200 -0.9998 0.0043
vn 0.0187 -0.9998 0.0022
vn 0.0177 -0.9998 0.0026
vn 0.0182 -0.9998 0.0051
vn 0.9154 0.0157 -0.4023
vn -0.9154 -0.0157 0.4023
vn 0.1082 0.0041 0.9941
vn -0.5785 -0.0123 -0.8156
vn 0.5707 0.0121 0.8211
vn -0.1162 -0.0042 -0.9932
vn -0.0175 0.9998 -0.0004
vn 0.6540 -0.5592 0.5094
vn 0.1839 -0.9590 -0.2156
vn -0.2195 0.8966 -0.3847
vn 0.2941 -0.7428 0.6015
vn 0.2006 0.2833 -0.9378
vn -0.5806 -0.0458 -0.8129
vn -0.5709 0.8026 0.1730
vn 0.0966 0.9953 -0.0116
vn 0.5211 0.7293 0.4434
vn 0.1065 -0.7081 -0.6980
vn 0.0329 -0.9922 -0.1204
vn -0.8782 -0.4775 -0.0274
vn 0.9234 0.3809 -0.0473
vn -0.4767 -0.0000 0.8790
vn -0.2964 0.0001 -0.9551
vn 0.2963 -0.0000 0.9551
vn -0.0015 1.0000 0.0011
vn 0.0002 1.0000 0.0002
vn -0.0002 1.0000 -0.0002
vn -0.0002 1.0000 -0.0004
vn -0.0001 1.0000 -0.0001
vn -0.4766 -0.0000 0.8791
vn -0.8790 -0.0000 -0.4768
vn 0.4767 -0.0000 -0.8790
vn 0.9551 -0.0005 -0.2964
vn -0.0003 1.0000 0.0002
vn -0.0001 1.0000 0.0001
vn -0.0002 1.0000 -0.0000
vn -0.4767 0.0001 0.8791
vn -0.8791 0.0007 -0.4767
vn -0.5787 -0.0011 -0.8156
vn 0.5710 -0.0183 0.8207
vn -0.0182 0.9998 -0.0024
vn -0.0183 0.9998 -0.0023
vn -0.0175 0.9998 -0.0005
vn 0.1080 0.0154 0.9940
vn -0.1157 -0.0314 -0.9928
vn -0.5785 -0.0109 -0.8156
vn 0.5708 0.0084 0.8210
vn 0.1082 0.0055 0.9941
vn -0.1161 -0.0075 -0.9932
vn 0.0183 -0.9998 0.0051
vn -0.0174 0.9998 -0.0003
vn -0.0125 0.9999 -0.0076
vn -0.0251 0.9997 -0.0021
vt 0.625000 0.000000
vt 0.375000 0.124999
vt 0.375000 0.000000
vt 0.625000 0.250000
vt 0.375000 0.375000
vt 0.375000 0.250000
vt 0.375000 0.500000
vt 0.625000 0.625001
vt 0.375000 0.625000
vt 0.375000 0.750000
vt 0.625000 0.875000
vt 0.375000 0.875000
vt 0.625000 0.500000
vt 0.625000 0.125000
vt 0.375000 1.000000
vt 0.625000 0.750000
vt 3.320725 2.584305
vt 3.644255 0.298834
vt 3.644255 2.584305
vt 0.978965 0.626767
vt 1.285716 2.397106
vt 0.978964 2.458605
vt 2.157360 2.584307
vt 2.480895 0.298836
vt 2.480896 2.584308
vt 0.978963 4.637215
vt 1.285714 2.743872
vt 1.285714 4.575715
vt 3.320719 0.298833
vt 3.240264 0.047634
vt 3.380293 0.047634
vt 1.899216 0.298836
vt 1.899215 2.584307
vt 0.672216 0.565269
vt 0.672215 2.397102
vt 3.062576 0.298835
vt 3.062582 2.584305
vt 0.672215 2.743873
vt 0.672215 4.575717
vt 0.812568 0.279999
vt 0.812569 0.080996
vt 1.145362 0.080994
vt 1.145363 0.279997
vt 1.285716 0.565268
vt 2.157362 0.298836
vt 2.076907 0.047634
vt 2.216935 0.047635
vt 2.392440 0.047635
vt 0.978963 2.805371
vt 0.812567 2.458604
vt 0.978963 2.491964
vt 3.555797 0.047634
vt 0.978966 0.313359
vt 1.145361 2.458604
vt 0.375000 0.625000
vt 0.625000 0.375000
vt 0.625000 0.125000
vt 0.375000 0.125000
vt 10.160997 10.745165
vt 9.822206 9.661217
vt 11.619705 9.824903
vt 13.721418 23.487232
vt 11.055685 22.608173
vt 11.802469 21.482944
vt 12.091970 24.524481
vt 9.735430 29.361994
vt 7.695774 27.969294
vt 10.645973 27.075531
vt 8.134302 22.551085
vt 9.466681 23.156696
vt 9.031601 16.909948
vt 6.596425 15.078041
vt 10.982437 13.070418
vt 7.698493 16.940584
vt 6.895656 25.713202
vt 9.184397 26.196938
vt 7.761187 12.239288
vt 6.457143 12.916585
vt 1.943574 7.303782
vt 4.235103 6.163955
vt 3.405812 10.051487
vt 4.612172 26.498995
vt 3.336969 24.597279
vt 4.823529 24.812778
vt 0.713943 19.611517
vt 3.096816 18.453650
vt 3.571884 20.533699
vt 0.955348 15.158329
vt -0.238449 14.139832
vt 2.654905 12.530304
vt 3.075447 14.787054
vt 1.310848 21.411610
vt 3.139522 27.113014
vt 5.056942 28.974106
vt 1.975093 27.925625
vt 1.711865 1.511963
vt 2.839433 2.926113
vt -0.517448 3.338894
vt 2.420723 10.813577
vt 4.801423 11.936691
vt 5.324450 14.455779
vt 4.752473 16.879797
vt 5.717075 17.762199
vt 5.592523 20.370264
vt 6.964913 19.481781
vt 6.841402 21.788900
vt 5.181847 22.803553
vt 5.944800 1.086815
vt 4.617375 1.757801
vt 3.753385 0.212908
vt 6.141521 2.541697
vt 4.681405 3.511690
vt 6.221129 4.121503
vt 1.750901 4.350693
vt 4.767756 10.236697
vt 7.981023 18.066658
vt 9.796587 24.569811
vt 7.279655 30.344471
vt 8.533520 31.354284
vt 9.850937 32.028999
vt 5.888932 5.412797
vt 6.268168 7.485645
vt 8.619625 5.564350
vt 7.460883 10.282902
vt 10.546166 17.589832
vt 10.843367 25.319309
vt 11.965799 28.530863
vt 12.166153 30.349970
vt 8.596742 3.101842
vt 10.297985 5.363713
vt 10.057337 7.547163
vt 11.382252 5.517848
vt 16.536762 1.478550
vt 13.816195 3.571984
vt 13.816195 0.212908
vt 0.345390 8.968116
vt 13.816195 28.598759
vt 13.596745 29.644539
vt 2.830195 16.674589
vt -0.906373 20.642960
vt 3.043643 22.671469
vt -0.176119 26.804838
vt 1.247277 25.349960
vt 13.816195 11.266755
vt 11.195370 3.822416
vt 0.692961 0.567961
vt 0.750000 0.550752
vt 0.625000 0.625000
vt 0.875000 0.625000
vt 0.750000 0.750000
vt 0.625000 1.000000
vt 0.328141 0.471220
vt 0.285839 0.845172
vt 0.300339 0.468648
vt 0.373027 0.845295
vt 0.358823 0.473480
vt 0.389001 0.469151
vt 0.447254 0.471341
vt 0.401588 0.847758
vt 0.420735 0.468903
vt 0.504462 0.471112
vt 0.499567 0.845225
vt 0.476557 0.473108
vt 0.348277 0.921093
vt 0.343185 0.924221
vt 0.330671 0.922948
vt 0.555281 0.847435
vt 0.531718 0.468648
vt 0.345033 0.843376
vt 0.785127 0.916514
vt 0.709990 0.215882
vt 0.785102 0.215923
vt 0.334499 0.916560
vt 0.259375 0.215887
vt 0.334475 0.215844
vt 0.484691 0.215823
vt 0.409613 0.916567
vt 0.409578 0.215822
vt 0.634892 0.215860
vt 0.559818 0.916583
vt 0.559791 0.215836
vt 0.313157 0.916584
vt 0.365582 0.948803
vt 0.236715 0.961912
vt 0.634924 0.916577
vt 0.484715 0.916576
vt 0.259391 0.916552
vt 0.184273 0.215920
vt 0.750000 0.500000
vt 0.875000 0.750000
vt 0.316861 4.995276
vt 0.640391 2.709805
vt 0.640391 4.995277
vt 1.592466 2.458605
vt 1.899214 0.565268
vt 1.899215 2.397106
vt 4.484078 0.298835
vt 4.807611 2.584307
vt 4.484077 2.584307
vt 2.205963 4.762918
vt 2.512713 2.869576
vt 2.512713 4.701419
vt 0.316856 2.709805
vt 0.236401 2.458605
vt 0.376432 2.458606
vt 4.225933 2.584306
vt 1.285715 0.565267
vt 1.285716 2.397105
vt 0.058714 2.709806
vt 0.058718 4.995277
vt 1.899215 2.869576
vt 1.899215 4.701420
vt 1.426067 0.280000
vt 1.426067 0.080996
vt 1.758863 0.080996
vt 1.592464 0.626766
vt 1.758862 0.279999
vt 4.403622 0.047634
vt 4.543651 0.047634
vt 4.719155 0.047636
vt 4.807611 0.298835
vt 2.205964 2.931074
vt 2.039566 2.584309
vt 2.205963 2.617667
vt 0.551935 2.458604
vt 1.592465 0.313359
vt 2.372362 2.584308
vt 2.739043 2.584305
vt 3.062576 0.298835
vt 3.062573 2.584307
vt 0.365463 2.458603
vt 0.672215 0.565268
vt 0.672214 2.397106
vt 3.902400 0.298834
vt 4.225932 2.584304
vt 3.902399 2.584308
vt 1.592464 2.805370
vt 1.899215 4.575717
vt 1.592464 4.637216
vt 2.739039 0.298833
vt 2.658583 0.047634
vt 2.798616 0.047637
vt 3.644254 0.298836
vt 3.644255 2.584307
vt 0.058714 0.565269
vt 0.058714 2.397103
vt 2.480896 0.298835
vt 2.480899 2.584307
vt 1.285718 2.743875
vt 1.285716 4.575716
vt 0.199067 0.280001
vt 0.199068 0.080994
vt 0.531863 0.080994
vt 0.365463 0.626766
vt 0.531861 0.279999
vt 3.821944 0.047634
vt 3.961972 0.047634
vt 4.137478 0.047635
vt 4.225932 0.298836
vt 1.426068 2.458606
vt 1.592465 2.491965
vt 2.974119 0.047635
vt 0.365465 0.313358
vt 1.758863 2.458605
vt 1.899215 2.743874
vt 0.807039 0.567961
vt 0.824248 0.625000
vt 0.675752 0.625000
vt 0.807038 0.682039
vt 0.750000 0.699248
vt 0.692961 0.682039
vt 0.875000 0.500000
vt 0.793715 0.581285
vt 0.750000 0.566100
vt 0.808900 0.625000
vt 0.691100 0.625000
vt 0.750000 0.683900
vt 0.706286 0.581286
vt 0.706285 0.668715
vt 0.793714 0.668715
vt 1.201153 0.180498
vt 0.756778 0.180496
vt 0.978967 0.047634
vt 16.071314 3.001272
vt 0.314124 0.842941
vt 0.467529 0.840278
vt 0.527457 0.847224
vt 0.330671 0.921125
vt 0.335763 0.919820
vt 0.343056 0.919820
vt 0.348277 0.922916
vt 0.335893 0.924222
vt 0.710021 0.916552
vt 0.184274 0.948469
vt 0.184273 0.929690
vt 0.238046 0.916583
vt 0.365587 0.930027
vt 0.311811 0.961912
vt 0.184273 0.916520
vt 4.225933 0.298836
vt 1.814652 0.180498
vt 1.370277 0.180498
vt 1.592466 0.047634
vt 0.587652 0.180498
vt 0.143275 0.180500
vt 0.365465 0.047634
s 0
usemtl metal_wear_light
f 17/17/10 28/18/10 27/19/10
f 20/20/11 26/21/11 19/22/11
f 23/23/12 32/24/12 31/25/12
f 21/26/13 29/27/13 30/28/13
f 18/29/14 39/30/14 40/31/14
f 25/32/15 23/23/15 26/33/15
f 28/34/16 19/22/16 27/35/16
f 29/36/17 17/17/17 30/37/17
f 32/38/18 21/26/18 31/39/18
f 33/40/19 39/41/19 37/42/19
f 20/20/20 35/43/20 25/44/20
f 24/45/21 35/46/21 36/47/21
f 24/45/22 37/48/22 32/24/22
f 22/49/23 37/50/23 38/51/23
f 18/29/24 33/52/24 28/18/24
f 20/20/25 33/40/25 34/53/25
f 22/49/26 39/54/26 29/27/26
f 186/191/10 197/192/10 196/193/10
f 188/194/11 194/195/11 195/196/11
f 193/197/12 200/198/12 192/199/12
f 190/200/13 198/201/13 199/202/13
f 187/203/14 208/204/14 209/205/14
f 195/206/15 193/197/15 192/199/15
f 197/207/16 188/194/16 196/208/16
f 198/209/17 186/191/17 199/210/17
f 201/211/18 190/200/18 200/212/18
f 202/213/19 208/214/19 206/215/19
f 189/216/20 204/217/20 194/195/20
f 193/197/21 204/218/21 205/219/21
f 193/197/22 206/220/22 201/221/22
f 191/222/23 206/223/23 207/224/23
f 187/203/24 202/225/24 197/192/24
f 189/216/25 202/213/25 203/226/25
f 191/222/26 208/227/26 198/201/26
f 210/228/160 221/229/160 220/230/160
f 212/231/11 218/232/11 219/233/11
f 217/234/12 224/235/12 216/236/12
f 215/237/13 223/238/13 214/239/13
f 211/240/14 232/241/14 233/242/14
f 218/243/15 216/236/15 219/244/15
f 221/245/16 212/231/16 220/246/16
f 222/247/17 210/228/17 223/248/17
f 225/249/18 214/239/18 224/250/18
f 226/251/19 232/252/19 230/253/19
f 213/254/20 228/255/20 218/232/20
f 217/234/21 228/256/21 229/257/21
f 217/234/162 230/258/162 225/259/162
f 215/237/23 230/260/23 231/261/23
f 211/240/24 226/262/24 221/229/24
f 213/254/25 226/251/25 227/263/25
f 215/237/26 232/264/26 222/265/26
f 17/17/10 18/29/10 28/18/10
f 20/20/11 25/44/11 26/21/11
f 23/23/12 24/45/12 32/24/12
f 21/26/13 22/49/13 29/27/13
f 18/29/14 29/36/14 39/30/14
f 25/32/15 24/45/15 23/23/15
f 28/34/16 20/20/16 19/22/16
f 29/36/17 18/29/17 17/17/17
f 32/38/18 22/49/18 21/26/18
f 37/42/19 36/281/19 35/43/19
f 35/43/19 34/53/19 33/40/19
f 33/40/19 40/282/19 39/41/19
f 39/41/19 38/283/19 37/42/19
f 37/42/19 35/43/19 33/40/19
f 20/20/20 34/53/20 35/43/20
f 24/45/21 25/32/21 35/46/21
f 24/45/22 36/47/22 37/48/22
f 22/49/23 32/38/23 37/50/23
f 18/29/24 40/31/24 33/52/24
f 20/20/25 28/34/25 33/40/25
f 22/49/26 38/51/26 39/54/26
f 186/191/10 187/203/10 197/192/10
f 188/194/11 189/216/11 194/195/11
f 193/197/12 201/221/12 200/198/12
f 190/200/13 191/222/13 198/201/13
f 187/203/14 198/209/14 208/204/14
f 195/206/15 194/300/15 193/197/15
f 197/207/16 189/216/16 188/194/16
f 198/209/17 187/203/17 186/191/17
f 201/211/18 191/222/18 190/200/18
f 206/215/19 205/301/19 204/217/19
f 204/217/19 203/226/19 202/213/19
f 202/213/19 209/302/19 208/214/19
f 208/214/19 207/303/19 206/215/19
f 206/215/19 204/217/19 202/213/19
f 189/216/20 203/226/20 204/217/20
f 193/197/21 194/300/21 204/218/21
f 193/197/22 205/219/22 206/220/22
f 191/222/23 201/211/23 206/223/23
f 187/203/24 209/205/24 202/225/24
f 189/216/25 197/207/25 202/213/25
f 191/222/26 207/224/26 208/227/26
f 210/228/10 211/240/10 221/229/10
f 212/231/11 213/254/11 218/232/11
f 217/234/161 225/259/161 224/235/161
f 215/237/13 222/265/13 223/238/13
f 211/240/14 222/247/14 232/241/14
f 218/243/15 217/234/15 216/236/15
f 221/245/16 213/254/16 212/231/16
f 222/247/17 211/240/17 210/228/17
f 225/249/18 215/237/18 214/239/18
f 230/253/19 229/304/19 228/255/19
f 228/255/19 227/263/19 226/251/19
f 226/251/19 233/305/19 232/252/19
f 232/252/19 231/306/19 230/253/19
f 230/253/19 228/255/19 226/251/19
f 213/254/20 227/263/20 228/255/20
f 217/234/21 218/243/21 228/256/21
f 217/234/22 229/257/22 230/258/22
f 215/237/23 225/249/23 230/260/23
f 211/240/24 233/242/24 226/262/24
f 213/254/25 221/245/25 226/251/25
f 215/237/26 231/261/26 232/264/26
usemtl asteroid
f 44/59/30 56/60/30 100/61/30
f 58/62/31 98/63/31 41/64/31
f 46/65/32 98/63/32 58/62/32
f 66/66/33 51/67/33 65/68/33
f 92/69/34 98/63/34 47/70/34
f 48/71/35 54/72/35 45/73/35
f 54/72/36 48/71/36 90/74/36
f 53/75/37 72/76/37 51/67/37
f 45/73/38 54/72/38 97/77/38
f 97/77/39 54/72/39 49/78/39
f 55/79/40 59/80/40 74/81/40
f 75/82/41 81/83/41 60/84/41
f 77/85/42 64/86/42 80/87/42
f 77/88/43 62/89/43 76/90/43
f 76/90/44 78/91/44 77/88/44
f 77/85/45 80/87/45 79/92/45
f 82/93/46 81/83/46 75/82/46
f 63/94/47 82/93/47 75/82/47
f 61/95/48 82/93/48 63/94/48
f 61/96/49 83/97/49 62/98/49
f 76/99/50 74/81/50 95/100/50
f 54/72/51 84/101/51 49/78/51
f 54/72/52 43/102/52 84/101/52
f 84/101/53 43/102/53 78/91/53
f 43/102/54 89/103/54 64/86/54
f 85/104/55 73/105/55 52/106/55
f 52/106/56 42/107/56 85/104/56
f 85/104/57 42/107/57 80/87/57
f 75/82/58 53/75/58 51/67/58
f 93/108/59 86/109/59 63/110/59
f 87/111/60 86/109/60 93/108/60
f 88/112/61 87/111/61 50/113/61
f 83/97/62 88/112/62 55/114/62
f 74/81/63 59/80/63 69/115/63
f 89/103/64 43/102/64 54/72/64
f 90/74/65 89/103/65 54/72/65
f 91/116/66 90/74/66 48/71/66
f 60/84/67 42/107/67 53/75/67
f 92/69/68 42/107/68 52/106/68
f 47/70/69 67/117/69 92/69/69
f 66/66/70 93/118/70 51/67/70
f 66/66/71 87/119/71 93/118/71
f 57/120/72 87/119/72 66/66/72
f 59/80/73 70/121/73 71/122/73
f 94/123/74 70/121/74 50/113/74
f 71/122/75 70/121/75 94/123/75
f 95/100/76 69/115/76 96/124/76
f 97/77/77 96/124/77 44/59/77
f 45/73/78 68/125/78 48/71/78
f 98/63/79 67/117/79 47/70/79
f 65/126/80 67/117/80 46/65/80
f 72/76/81 67/117/81 65/126/81
f 65/68/82 46/127/82 66/66/82
f 46/127/83 99/128/83 66/66/83
f 94/123/84 57/129/84 101/130/84
f 56/131/85 101/130/85 100/132/85
f 96/124/86 56/60/86 44/59/86
f 41/133/87 45/134/87 58/135/87
f 92/69/88 41/64/88 98/63/88
f 94/123/89 50/113/89 57/129/89
f 87/111/90 57/129/90 50/113/90
f 65/68/91 51/67/91 72/76/91
f 74/81/92 62/136/92 55/79/92
f 52/106/93 73/105/93 92/69/93
f 99/128/94 58/137/94 100/138/94
f 42/107/95 60/84/95 81/83/95
f 78/91/96 43/102/96 64/139/96
f 77/88/97 78/91/97 64/139/97
f 62/140/98 77/85/98 79/92/98
f 80/87/99 42/107/99 81/141/99
f 79/92/100 80/87/100 81/141/100
f 61/95/101 62/142/101 82/93/101
f 62/142/102 79/143/102 82/93/102
f 79/143/103 81/83/103 82/93/103
f 55/114/104 62/98/104 83/97/104
f 78/91/105 95/100/105 84/101/105
f 49/78/106 84/101/106 95/100/106
f 85/104/107 64/86/107 89/103/107
f 73/105/108 85/104/108 89/103/108
f 88/112/109 86/109/109 87/111/109
f 75/82/110 60/84/110 53/75/110
f 51/67/111 63/94/111 75/82/111
f 83/97/112 61/96/112 86/109/112
f 63/110/113 86/109/113 61/96/113
f 59/80/114 88/112/114 70/121/114
f 50/113/115 70/121/115 88/112/115
f 71/122/116 69/115/116 59/80/116
f 91/116/117 89/103/117 90/74/117
f 95/100/118 74/81/118 69/115/118
f 91/116/119 41/64/119 73/105/119
f 48/71/120 68/125/120 91/116/120
f 53/75/121 67/117/121 72/76/121
f 53/75/122 42/107/122 92/69/122
f 49/78/123 96/124/123 97/77/123
f 51/67/124 93/118/124 63/94/124
f 96/124/125 71/122/125 94/123/125
f 46/65/126 67/117/126 98/63/126
f 57/120/127 66/66/127 99/128/127
f 44/59/128 45/73/128 97/77/128
f 100/61/129 58/144/129 44/59/129
f 45/73/130 44/59/130 58/144/130
f 101/130/131 57/129/131 99/145/131
f 99/145/132 100/132/132 101/130/132
f 96/124/133 94/123/133 56/131/133
f 94/123/134 101/130/134 56/131/134
f 41/133/190 68/284/190 45/134/190
f 92/69/191 73/105/191 41/64/191
f 74/81/192 76/99/192 62/136/192
f 99/128/193 46/127/193 58/137/193
f 78/91/194 76/90/194 95/100/194
f 85/104/195 80/87/195 64/86/195
f 88/112/196 83/97/196 86/109/196
f 59/80/197 55/114/197 88/112/197
f 71/122/198 96/124/198 69/115/198
f 91/116/199 73/105/199 89/103/199
f 91/116/200 68/125/200 41/64/200
f 53/75/201 92/69/201 67/117/201
f 49/78/202 95/100/202 96/124/202
usemtl antenna
f 140/152/140 143/153/140 142/154/140
f 137/155/141 148/156/141 136/157/141
f 134/158/142 147/159/142 146/160/142
f 138/161/135 144/162/135 145/163/135
f 147/164/143 144/165/143 143/166/143
f 143/167/137 138/161/137 142/168/137
f 144/162/138 134/158/138 145/163/138
f 146/160/139 137/155/139 136/157/139
f 149/169/136 140/152/136 148/156/136
f 157/170/144 158/171/144 156/172/144
f 153/173/145 164/174/145 152/175/145
f 150/176/146 163/177/146 162/178/146
f 154/179/147 160/180/147 161/181/147
f 163/182/148 160/183/148 159/184/148
f 158/171/149 155/185/149 154/179/149
f 161/181/150 151/186/150 150/176/150
f 163/177/151 152/175/151 162/178/151
f 165/187/152 156/188/152 164/174/152
f 140/152/27 141/285/27 143/153/27
f 137/155/204 149/169/204 148/156/204
f 134/158/29 135/286/29 147/159/29
f 138/161/205 139/287/205 144/162/205
f 143/166/206 141/288/206 149/289/206
f 149/289/207 137/290/207 147/164/207
f 147/164/208 135/291/208 144/165/208
f 144/165/209 139/292/209 143/166/209
f 143/166/210 149/289/210 147/164/210
f 143/167/137 139/287/137 138/161/137
f 144/162/211 135/286/211 134/158/211
f 146/160/212 147/159/212 137/155/212
f 149/169/213 141/285/213 140/152/213
f 157/170/214 159/293/214 158/171/214
f 153/173/145 165/187/145 164/174/145
f 150/176/146 151/186/146 163/177/146
f 154/179/147 155/185/147 160/180/147
f 159/184/215 157/294/215 165/295/215
f 165/295/216 153/296/216 163/182/216
f 163/182/217 151/297/217 160/183/217
f 160/183/148 155/298/148 159/184/148
f 159/184/148 165/295/148 163/182/148
f 158/171/149 159/293/149 155/185/149
f 161/181/218 160/180/218 151/186/218
f 163/177/219 153/173/219 152/175/219
f 165/187/152 157/299/152 156/188/152
usemtl no_texture
f 2/1/1 11/2/1 1/3/1
f 4/4/2 10/5/2 3/6/2
f 7/7/3 16/8/3 15/9/3
f 5/10/4 13/11/4 14/12/4
f 10/5/5 8/13/5 7/7/5
f 12/14/6 3/6/6 11/2/6
f 13/11/7 1/15/7 14/12/7
f 15/9/8 6/16/8 5/10/8
f 6/16/9 8/13/9 4/4/9
f 125/13/27 126/55/27 124/7/27
f 120/6/28 133/56/28 132/5/28
f 118/3/29 131/57/29 130/58/29
f 102/3/29 246/57/29 114/58/29
f 247/4/28 116/5/28 104/6/28
f 249/13/27 110/55/27 108/7/27
f 251/16/135 113/12/135 106/10/135
f 109/146/136 264/147/136 265/146/136
f 250/148/137 106/10/137 110/55/137
f 252/11/138 102/15/138 113/12/138
f 114/58/139 247/4/139 104/6/139
f 116/5/136 249/13/136 108/7/136
f 123/16/135 129/12/135 122/10/135
f 131/149/9 128/150/9 127/148/9
f 127/148/137 122/10/137 126/55/137
f 129/12/138 119/151/138 118/15/138
f 131/57/139 120/6/139 130/58/139
f 132/5/136 125/13/136 124/7/136
f 169/4/153 176/5/153 168/6/153
f 170/10/154 174/11/154 175/12/154
f 177/189/155 167/190/155 171/16/155
f 173/148/156 170/10/156 172/55/156
f 175/12/157 167/151/157 166/15/157
f 166/58/158 169/4/158 168/6/158
f 177/56/159 172/7/159 176/5/159
f 181/5/13 179/4/13 178/6/13
f 183/6/11 185/56/11 184/5/11
f 179/4/19 185/56/19 182/4/19
f 179/4/160 183/6/160 178/6/160
f 180/56/161 184/5/161 185/56/161
f 237/4/163 244/5/163 236/6/163
f 238/10/164 242/11/164 243/12/164
f 239/16/165 280/11/165 242/11/165
f 241/148/166 238/10/166 240/55/166
f 243/12/167 235/151/167 234/15/167
f 234/58/168 237/4/168 236/6/168
f 245/56/169 240/7/169 244/5/169
f 105/266/9 246/149/9 115/267/9
f 117/147/9 249/13/9 248/189/9
f 111/268/9 251/16/9 250/148/9
f 103/269/9 252/150/9 112/270/9
f 109/146/9 250/148/9 249/13/9
f 112/270/9 251/16/9 107/271/9
f 115/267/9 253/190/9 103/269/9
f 105/266/9 248/189/9 247/272/9
f 255/273/135 272/274/135 256/274/135
f 103/269/29 262/267/29 115/267/29
f 111/268/27 265/146/27 266/268/27
f 111/268/137 267/271/137 107/271/137
f 105/266/139 262/267/139 263/266/139
f 117/147/28 263/266/28 264/147/28
f 112/270/135 267/271/135 268/270/135
f 112/270/138 269/269/138 103/269/138
f 254/275/170 263/266/170 262/267/170
f 256/274/171 265/146/171 264/147/171
f 258/276/172 267/271/172 266/268/172
f 260/277/173 269/269/173 268/270/173
f 258/276/174 265/146/174 257/278/174
f 260/277/175 267/271/175 259/279/175
f 254/275/176 269/269/176 261/280/176
f 256/274/177 263/266/177 255/273/177
f 270/275/9 276/277/9 274/276/9
f 259/279/28 276/277/28 260/277/28
f 260/277/136 277/280/136 261/280/136
f 256/274/138 273/278/138 257/278/138
f 254/275/27 277/280/27 270/275/27
f 257/278/29 274/276/29 258/276/29
f 259/279/139 274/276/139 275/279/139
f 255/273/137 270/275/137 271/273/137
f 235/151/178 280/11/178 281/151/178
f 239/16/179 279/148/179 282/16/179
f 237/4/180 278/56/180 245/56/180
f 241/13/181 278/56/181 279/13/181
f 237/4/182 281/57/182 283/4/182
f 282/16/183 285/148/183 288/16/183
f 281/57/184 289/4/184 283/4/184
f 281/151/185 286/11/185 287/151/185
f 278/56/186 289/4/186 284/56/186
f 282/16/187 286/11/187 280/11/187
f 278/56/188 285/13/188 279/13/188
f 289/4/189 286/11/189 285/148/189
f 291/1/1 300/2/1 290/3/1
f 293/4/2 299/5/2 292/6/2
f 296/7/3 305/8/3 304/9/3
f 294/10/4 302/11/4 303/12/4
f 299/5/5 297/13/5 296/7/5
f 301/14/6 292/6/6 300/2/6
f 302/11/7 290/15/7 303/12/7
f 304/9/8 295/16/8 294/10/8
f 295/16/9 297/13/9 293/4/9
f 2/1/1 12/14/1 11/2/1
f 4/4/2 9/56/2 10/5/2
f 7/7/3 8/13/3 16/8/3
f 5/10/4 6/16/4 13/11/4
f 10/5/5 9/56/5 8/13/5
f 12/14/6 4/4/6 3/6/6
f 13/11/7 2/151/7 1/15/7
f 15/9/8 16/8/8 6/16/8
f 4/4/9 12/14/9 2/1/9
f 2/1/9 13/11/9 6/16/9
f 6/16/9 16/8/9 8/13/9
f 8/13/9 9/56/9 4/4/9
f 4/4/9 2/1/9 6/16/9
f 125/13/27 127/148/27 126/55/27
f 120/6/28 121/4/28 133/56/28
f 118/3/29 119/1/29 131/57/29
f 102/3/29 253/1/29 246/57/29
f 247/4/28 248/56/28 116/5/28
f 249/13/27 250/148/27 110/55/27
f 251/16/135 252/11/135 113/12/135
f 109/146/136 117/147/136 264/147/136
f 250/148/137 251/16/137 106/10/137
f 252/11/138 253/151/138 102/15/138
f 114/58/139 246/57/139 247/4/139
f 116/5/136 248/56/136 249/13/136
f 123/16/135 128/11/135 129/12/135
f 127/148/9 125/13/9 133/189/9
f 133/189/9 121/272/9 131/149/9
f 131/149/9 119/190/9 128/150/9
f 128/150/9 123/16/9 127/148/9
f 127/148/9 133/189/9 131/149/9
f 127/148/137 123/16/137 122/10/137
f 129/12/203 128/11/203 119/151/203
f 131/57/139 121/4/139 120/6/139
f 132/5/136 133/56/136 125/13/136
f 169/4/220 177/56/220 176/5/220
f 170/10/221 171/16/221 174/11/221
f 171/16/222 173/13/222 177/189/222
f 177/189/223 169/272/223 167/190/223
f 167/190/224 174/150/224 171/16/224
f 173/148/156 171/16/156 170/10/156
f 175/12/225 174/11/225 167/151/225
f 166/58/158 167/57/158 169/4/158
f 177/56/226 173/13/226 172/7/226
f 181/5/13 180/56/13 179/4/13
f 183/6/11 182/4/11 185/56/11
f 179/4/19 180/56/19 185/56/19
f 179/4/10 182/4/10 183/6/10
f 180/56/12 181/5/12 184/5/12
f 237/4/227 245/56/227 244/5/227
f 238/10/228 239/16/228 242/11/228
f 239/16/165 282/16/165 280/11/165
f 241/148/166 239/16/166 238/10/166
f 243/12/229 242/11/229 235/151/229
f 234/58/168 235/57/168 237/4/168
f 245/56/230 241/13/230 240/7/230
f 105/266/9 247/272/9 246/149/9
f 117/147/9 109/146/9 249/13/9
f 111/268/9 107/271/9 251/16/9
f 103/269/9 253/190/9 252/150/9
f 109/146/9 111/268/9 250/148/9
f 112/270/9 252/150/9 251/16/9
f 115/267/9 246/149/9 253/190/9
f 105/266/9 117/147/9 248/189/9
f 255/273/135 271/273/135 272/274/135
f 103/269/29 269/269/29 262/267/29
f 111/268/27 109/146/27 265/146/27
f 111/268/137 266/268/137 267/271/137
f 105/266/139 115/267/139 262/267/139
f 117/147/28 105/266/28 263/266/28
f 112/270/135 107/271/135 267/271/135
f 112/270/138 268/270/138 269/269/138
f 254/275/170 255/273/170 263/266/170
f 256/274/171 257/278/171 265/146/171
f 258/276/172 259/279/172 267/271/172
f 260/277/173 261/280/173 269/269/173
f 258/276/174 266/268/174 265/146/174
f 260/277/175 268/270/175 267/271/175
f 254/275/176 262/267/176 269/269/176
f 256/274/177 264/147/177 263/266/177
f 274/276/9 273/278/9 272/274/9
f 272/274/9 271/273/9 270/275/9
f 270/275/9 277/280/9 276/277/9
f 276/277/9 275/279/9 274/276/9
f 274/276/9 272/274/9 270/275/9
f 259/279/28 275/279/28 276/277/28
f 260/277/136 276/277/136 277/280/136
f 256/274/138 272/274/138 273/278/138
f 254/275/27 261/280/27 277/280/27
f 257/278/29 273/278/29 274/276/29
f 259/279/139 258/276/139 274/276/139
f 255/273/137 254/275/137 270/275/137
f 235/151/178 242/11/178 280/11/178
f 239/16/179 241/148/179 279/148/179
f 237/4/180 283/4/180 278/56/180
f 241/13/181 245/56/181 278/56/181
f 237/4/231 235/57/231 281/57/231
f 282/16/183 279/148/183 285/148/183
f 281/57/184 287/57/184 289/4/184
f 281/151/185 280/11/185 286/11/185
f 278/56/186 283/4/186 289/4/186
f 282/16/187 288/16/187 286/11/187
f 278/56/188 284/56/188 285/13/188
f 285/148/232 284/56/232 289/4/232
f 289/4/233 287/57/233 286/11/233
f 286/11/234 288/16/234 285/148/234
f 291/1/1 301/14/1 300/2/1
f 293/4/2 298/56/2 299/5/2
f 296/7/3 297/13/3 305/8/3
f 294/10/4 295/16/4 302/11/4
f 299/5/5 298/56/5 297/13/5
f 301/14/6 293/4/6 292/6/6
f 302/11/7 291/151/7 290/15/7
f 304/9/8 305/8/8 295/16/8
f 293/4/9 301/14/9 291/1/9
f 291/1/9 302/11/9 295/16/9
f 295/16/9 305/8/9 297/13/9
f 297/13/9 298/56/9 293/4/9
f 293/4/9 291/1/9 295/16/9
