# Blender 5.0.1
# www.blender.org
mtllib station_1.mtl
o station_1
v -3.554264 -0.048437 0.048438
v -3.554264 0.048437 0.048438
v -3.554264 -0.048437 -0.048437
v -3.554264 0.048437 -0.048437
v 3.554264 -0.048437 0.048439
v 3.554264 0.048437 0.048439
v 3.554264 -0.048437 -0.048436
v 3.554264 0.048437 -0.048436
v -3.554264 -0.069196 -0.000001
v -3.554264 0.069196 -0.000001
v 3.554264 -0.069196 0.000000
v 3.554264 0.069196 0.000000
v -3.554264 0.000000 0.069196
v -3.554264 0.000000 -0.069197
v 3.554264 0.000000 -0.069196
v 3.554264 0.000000 0.069196
v -4.000000 -0.581250 0.581256
v -4.000000 0.581250 0.581256
v -4.000000 -0.581250 -0.581244
v -4.000000 0.581250 -0.581244
v 4.000000 -0.581250 0.581262
v 4.000000 0.581250 0.581262
v 4.000000 -0.581250 -0.581238
v 4.000000 0.581250 -0.581238
v -4.000000 -0.830357 -0.000008
v -4.000000 0.830357 -0.000008
v 4.000000 -0.830357 -0.000002
v 4.000000 0.830357 -0.000002
v -4.000000 0.000000 0.830349
v -4.000000 0.000000 -0.830365
v 4.000000 0.000000 -0.830359
v 4.000000 0.000000 0.830355
v -6.000000 -0.581250 0.581256
v -6.000000 0.581250 0.581256
v -6.000000 -0.581250 -0.581244
v -6.000000 0.581250 -0.581244
v 6.000000 -0.581250 0.581262
v 6.000000 0.581250 0.581262
v 6.000000 -0.581250 -0.581238
v 6.000000 0.581250 -0.581238
v -6.000000 -0.830357 -0.000008
v -6.000000 0.830357 -0.000008
v 6.000000 -0.830357 -0.000002
v 6.000000 0.830357 -0.000002
v -6.000000 0.000000 0.830349
v -6.000000 0.000000 -0.830365
v 6.000000 0.000000 -0.830359
v 6.000000 0.000000 0.830355
v -0.596270 -0.596270 0.596272
v -0.362704 0.596270 0.362706
v -0.596270 -0.596270 -0.596268
v -0.362704 0.596270 -0.362702
v 0.596270 -0.596270 0.596272
v 0.362704 0.596270 0.362706
v 0.596270 -0.596270 -0.596268
v 0.362704 0.596270 -0.362702
v -0.723889 0.000043 0.723892
v -0.723889 0.000043 -0.723887
v 0.723889 0.000043 -0.723887
v 0.723889 0.000043 0.723892
v -0.596270 0.596270 0.596272
v -0.596270 0.596270 -0.596268
v 0.596270 0.596270 -0.596268
v 0.596270 0.596270 0.596272
v -0.362704 0.726084 0.362706
v -0.362704 0.726084 -0.362702
v 0.362704 0.726084 -0.362702
v 0.362704 0.726084 0.362706
v -0.060593 -1.221116 0.060592
v -0.060593 1.561483 0.060592
v -0.060593 -1.221116 -0.060594
v -0.060593 1.561483 -0.060594
v 0.060593 -1.221116 0.060592
v 0.060593 1.561483 0.060592
v 0.060593 -1.221116 -0.060594
v 0.060593 1.561483 -0.060594
v -0.000000 1.561483 -0.090758
v -0.000000 -1.221116 -0.090758
v -0.090757 -1.221116 -0.000001
v -0.090757 1.561483 -0.000001
v -0.000000 1.561483 0.090755
v -0.000000 -1.221116 0.090755
v 0.090757 -1.221116 -0.000001
v 0.090757 1.561483 -0.000001
v -3.914039 -0.241800 0.102474
v 3.914038 -0.241800 0.102474
v -3.914039 -0.241800 -0.102478
v 3.914038 -0.241800 -0.102478
v -3.914039 -0.446752 0.102474
v 3.914039 -0.446752 0.102474
v -3.914039 -0.446752 -0.102478
v 3.914039 -0.446752 -0.102478
v 3.914038 -0.344276 -0.153492
v -3.914039 -0.344276 -0.153492
v -3.914039 -0.190786 -0.000001
v 3.914038 -0.190786 -0.000001
v 3.914038 -0.344276 0.153488
v -3.914039 -0.344276 0.153488
v -3.914039 -0.497766 -0.000001
v 3.914038 -0.497766 -0.000001
v -1.601159 0.405817 -0.794184
v 1.601159 0.405817 -0.794184
v -1.601159 0.405817 -1.605818
v 1.601159 0.405817 -1.605818
v -1.601159 -0.405817 -0.794184
v 1.601159 -0.405817 -0.794184
v -1.601159 -0.405817 -1.605818
v 1.601159 -0.405817 -1.605818
v 1.601159 -0.000000 -1.807840
v -1.601159 0.000000 -1.807840
v -1.601159 0.607838 -1.199999
v 1.601159 0.607838 -1.200000
v 1.601159 -0.000000 -0.592165
v -1.601159 0.000000 -0.592165
v -1.601159 -0.607838 -1.200000
v 1.601159 -0.607838 -1.199999
v -1.999685 0.301292 -1.199998
v -1.999685 0.201155 -0.998845
v 1.999685 0.301292 -1.199999
v 1.999685 0.201155 -1.401154
v -1.999685 0.000000 -1.501292
v -1.999685 0.201155 -1.401154
v 1.999685 -0.000000 -1.501292
v 1.999685 -0.201155 -1.401154
v -1.999685 -0.301292 -1.199999
v -1.999684 -0.201155 -1.401154
v 1.999685 -0.301292 -1.199998
v 1.999685 -0.201155 -0.998845
v -1.999685 0.000000 -0.898708
v -1.999684 -0.201155 -0.998845
v 1.999685 -0.000000 -0.898708
v 1.999685 0.201155 -0.998845
v -1.601159 0.405817 1.605816
v 1.601159 0.405817 1.605816
v -1.601159 0.405817 0.794182
v 1.601159 0.405817 0.794182
v -1.601159 -0.405817 1.605816
v 1.601159 -0.405817 1.605816
v -1.601159 -0.405817 0.794182
v 1.601159 -0.405817 0.794182
v 1.601159 -0.000000 0.592160
v -1.601159 0.000000 0.592160
v -1.601159 0.607838 1.200001
v 1.601159 0.607838 1.200000
v 1.601159 -0.000000 1.807836
v -1.601159 0.000000 1.807836
v -1.601159 -0.607838 1.200000
v 1.601159 -0.607838 1.200001
v -1.999685 0.301292 1.200002
v -1.999685 0.201155 1.401156
v 1.999685 0.301292 1.200002
v 1.999685 0.201155 0.998846
v -1.999685 0.000000 0.898708
v -1.999685 0.201155 0.998846
v 1.999685 -0.000000 0.898708
v 1.999685 -0.201155 0.998846
v -1.999685 -0.301292 1.200002
v -1.999684 -0.201155 0.998846
v 1.999685 -0.301292 1.200002
v 1.999685 -0.201155 1.401156
v -1.999685 0.000000 1.501292
v -1.999684 -0.201155 1.401156
v 1.999685 -0.000000 1.501292
v 1.999685 0.201155 1.401156
v 5.946335 0.000000 -0.496752
v -5.942258 0.000000 0.543365
v 5.942257 0.000000 -0.543365
v -5.946336 0.000000 0.496752
v 5.942257 0.000000 -0.543365
v -5.946336 0.000000 0.496752
v 5.946335 0.000000 -0.496752
v -5.942258 0.000000 0.543365
v 5.942257 0.000000 0.543365
v -5.946336 0.000000 -0.496752
v 5.946335 0.000000 0.496752
v -5.942258 0.000000 -0.543365
v 5.946335 0.000000 0.496752
v -5.942258 0.000000 -0.543365
v 5.942257 0.000000 0.543365
v -5.946336 0.000000 -0.496752
v 5.967002 0.000000 -0.510713
v -5.967003 0.000000 -0.510713
v 5.967002 0.000000 -0.557504
v -5.967003 0.000000 -0.557504
v 5.967002 0.000000 -0.557504
v -5.967003 0.000000 -0.557504
v 5.967002 0.000000 -0.510713
v -5.967003 0.000000 -0.510713
v 5.967002 0.000000 0.557503
v -5.967003 0.000000 0.557503
v 5.967002 0.000000 0.510713
v -5.967003 0.000000 0.510713
v 5.967002 0.000000 0.510713
v -5.967003 0.000000 0.510713
v 5.967002 0.000000 0.557503
v -5.967003 0.000000 0.557503
v -6.455904 -0.693446 -0.000006
v -6.455904 -0.485412 0.485418
v -6.455904 0.000000 0.693440
v -6.455904 0.485412 0.485418
v -6.455904 0.693446 -0.000006
v -6.455904 0.485412 -0.485406
v -6.455904 0.000000 -0.693451
v -6.455904 -0.485412 -0.485406
v 6.455903 0.000000 -0.693446
v 6.455903 -0.485412 -0.485401
v 6.455903 -0.693446 -0.000001
v 6.455903 0.693446 -0.000001
v 6.455903 0.485412 0.485423
v 6.455903 0.000000 0.693445
v 6.455903 -0.485412 0.485423
v 6.455903 0.485412 -0.485401
v 0.391307 0.000000 1.763399
v -0.391307 0.000000 1.763399
v 0.391307 0.000000 8.114760
v -0.391307 0.000000 8.114760
v -1.128483 0.000000 1.741963
v -0.348527 0.000000 1.806406
v -1.651473 0.000000 8.071755
v -0.871517 0.000000 8.136197
v 1.128483 0.000000 1.741962
v 0.348527 0.000000 1.806406
v 1.651473 0.000000 8.071754
v 0.871517 0.000000 8.136197
v 0.391307 0.000000 -1.763390
v -0.391307 0.000000 -1.763390
v 0.391307 0.000000 -8.114751
v -0.391307 0.000000 -8.114751
v -1.128483 0.000000 -1.741954
v -0.348527 0.000000 -1.806396
v -1.651473 0.000000 -8.071746
v -0.871517 0.000000 -8.136188
v 1.128483 0.000000 -1.741953
v 0.348527 0.000000 -1.806396
v 1.651473 0.000000 -8.071745
v 0.871517 0.000000 -8.136188
v 0.871517 0.000000 -8.136188
v 1.651473 0.000000 -8.071745
v 0.348527 0.000000 -1.806396
v 1.128483 0.000000 -1.741953
v -0.871517 0.000000 -8.136188
v -1.651473 0.000000 -8.071746
v -0.348527 0.000000 -1.806396
v -1.128483 0.000000 -1.741954
v -0.391307 0.000000 -8.114751
v 0.391307 0.000000 -8.114751
v -0.391307 0.000000 -1.763390
v 0.391307 0.000000 -1.763390
v 0.871517 0.000000 8.136197
v 1.651473 0.000000 8.071754
v 0.348527 0.000000 1.806406
v 1.128483 0.000000 1.741962
v -0.871517 0.000000 8.136197
v -1.651473 0.000000 8.071755
v -0.348527 0.000000 1.806406
v -1.128483 0.000000 1.741963
v -0.391307 0.000000 8.114760
v 0.391307 0.000000 8.114760
v -0.391307 0.000000 1.763399
v 0.391307 0.000000 1.763399
vn -0.0000 0.3939 -0.9191
vn -0.0000 0.3939 0.9192
vn -0.0000 -0.9191 0.3939
vn -0.0000 0.9191 0.3939
vn -0.0000 0.9191 -0.3939
vn -0.0000 -0.9191 -0.3939
vn -0.0000 -0.3939 0.9192
vn -0.0000 -0.3939 -0.9191
vn -0.8434 -0.4939 0.2117
vn -0.8434 -0.4939 -0.2117
vn 0.8434 -0.4939 0.2117
vn -0.8434 0.4939 -0.2117
vn -0.8434 0.4939 0.2117
vn 0.8434 0.2117 0.4939
vn -0.8434 -0.2117 0.4939
vn 0.8434 0.4939 -0.2117
vn 0.8434 -0.2117 -0.4939
vn 0.8434 -0.2117 0.4939
vn 0.8434 0.2117 -0.4939
vn 0.8434 -0.4939 -0.2117
vn -0.8434 0.2117 -0.4939
vn 0.8434 0.4939 0.2117
vn -0.8434 -0.2117 -0.4939
vn -0.8434 0.2117 0.4939
vn -0.2661 -0.3797 -0.8860
vn 0.2661 -0.8860 0.3797
vn -0.9779 0.2093 -0.0000
vn -0.0000 0.2093 -0.9779
vn 0.9779 0.2093 -0.0000
vn -0.0000 0.2093 0.9779
vn -0.0000 -1.0000 -0.0000
vn 1.0000 -0.0000 -0.0000
vn -0.0000 -0.2093 0.9779
vn 0.9779 -0.2093 -0.0000
vn -0.0000 -0.2093 -0.9779
vn -0.9779 -0.2093 -0.0000
vn -0.0000 1.0000 -0.0000
vn -1.0000 -0.0000 -0.0000
vn -0.0000 -0.0000 1.0000
vn -0.0000 -0.0000 -1.0000
vn -0.8952 -0.0000 0.4456
vn -0.4456 -0.0000 -0.8952
vn 0.8952 -0.0000 -0.4456
vn 0.4456 -0.0000 0.8952
vn 0.4456 -0.0000 -0.8952
vn -0.8952 -0.0000 -0.4456
vn -0.4456 -0.0000 0.8952
vn 0.8952 -0.0000 0.4456
vn -0.0000 0.8952 0.4456
vn -0.0000 0.4456 -0.8952
vn -0.0000 -0.8952 -0.4456
vn -0.0000 -0.4456 0.8952
vn -0.0000 -0.4456 -0.8952
vn -0.0000 0.8952 -0.4456
vn -0.0000 0.4456 0.8952
vn -0.0000 -0.8952 0.4456
vn 0.5671 -0.7373 0.3670
vn -0.5671 0.7373 -0.3670
vn 0.5671 0.7373 0.3670
vn 0.5671 0.7373 -0.3670
vn -0.5671 -0.3670 0.7373
vn 0.5671 -0.3670 0.7373
vn 0.5671 0.3670 0.7373
vn -0.5671 0.3670 -0.7373
vn -0.5671 0.3670 0.7373
vn 0.5671 0.3670 -0.7373
vn 0.5671 -0.3670 -0.7373
vn -0.5671 -0.3670 -0.7373
vn -0.5671 -0.7373 0.3670
vn -0.5671 -0.7373 -0.3670
vn 0.5671 -0.7373 -0.3670
vn -0.5671 0.7373 0.3670
vn 0.2661 0.8860 -0.3797
vn 0.2661 -0.3797 -0.8860
vn -0.2661 -0.3797 0.8860
vn 0.2661 -0.8860 -0.3797
vn -0.2661 0.3797 -0.8860
vn 0.2661 0.8860 0.3797
vn 0.2661 0.3797 -0.8860
vn 0.2661 -0.3797 0.8860
vn -0.2661 -0.8860 0.3797
vn 0.2661 0.3797 0.8860
vn -0.2661 -0.8860 -0.3797
vn -0.2661 0.3797 0.8860
vn -0.2661 0.8860 0.3797
vn -0.2661 0.8860 -0.3797
vt 0.625000 0.250000
vt 0.500000 0.500000
vt 0.500000 0.250000
vt 0.625000 0.750000
vt 0.500000 1.000000
vt 0.500000 0.750000
vt 0.375000 0.625000
vt 0.125000 0.750000
vt 0.125000 0.625000
vt 0.875000 0.625000
vt 0.625000 0.625000
vt 0.875000 0.500000
vt 0.625000 0.500000
vt 0.125000 0.500000
vt 0.375000 1.000000
vt 0.375000 0.750000
vt 0.375000 0.500000
vt 0.375000 0.250000
vt 0.625000 1.000000
vt 0.875000 0.750000
vt 0.625000 0.000000
vt 0.500009 0.250000
vt 0.500009 0.000000
vt 0.500009 0.500000
vt 0.500009 0.750000
vt 0.500009 1.000000
vt 0.673964 0.548964
vt 0.673964 0.701036
vt 0.375000 0.000000
vt 0.826036 0.548964
vt 0.826036 0.701036
vt 0.375000 0.124999
vt 0.375000 0.375000
vt 0.375000 0.625000
vt 0.375000 0.875000
vt 0.603812 25.499954
vt 0.799857 -24.499998
vt 0.799852 25.499956
vt -0.376408 -24.500000
vt -0.572434 25.499985
vt -0.572448 -24.499998
vt 0.625000 0.375000
vt 0.625000 0.125000
vt 0.625000 0.875000
vt 0.625000 0.625001
vt 1.407993 1.730677
vt 1.191991 0.204806
vt 1.407993 0.204806
vt 0.631294 1.730677
vt 0.415291 0.204806
vt 0.631294 0.204806
vt 0.199287 0.204806
vt 0.415290 1.730677
vt 0.199287 1.730677
vt 0.975988 0.204806
vt 1.191991 1.730677
vt 0.975988 1.730677
vt 0.934402 0.014912
vt 1.019830 0.014912
vt 0.672882 0.014912
vt 0.803642 0.204806
vt 0.026940 0.204806
vt 0.026939 1.730677
vt 0.803642 1.730677
vt 1.580340 1.730677
vt 1.580340 0.204806
vt 0.803642 0.204806
vt 0.803642 1.730677
vt 1.580340 0.207409
vt 1.644880 0.014913
vt 1.837377 0.079452
vt 1.580340 0.336489
vt 1.772837 0.271950
vt 1.837377 0.464446
vt 1.257086 1.920570
vt 0.672883 1.920570
vt 0.587454 1.920570
vt 1.126898 1.920570
vt 1.019830 1.920570
vt 1.126898 0.014912
vt 1.191991 0.204806
vt 1.449582 1.920570
vt 1.364153 1.920570
vt 0.480385 0.014912
vt 0.587453 0.014912
vt 1.449582 0.014912
vt 0.480386 1.920570
vt 0.415291 1.730677
vt 0.157700 0.014912
vt 0.243129 0.014912
vt 0.157700 1.920570
vt 0.934402 1.920570
vt 0.350197 1.920570
vt 0.243129 1.920570
vt 0.350197 0.014912
vt 0.415291 0.204806
vt 1.257086 0.014912
vt 1.364153 0.014912
vt 1.725554 2.159889
vt 1.455781 0.254173
vt 1.725553 0.254173
vt 0.755506 2.159889
vt 0.485732 0.254173
vt 0.755506 0.254173
vt 0.270481 2.159889
vt 0.000706 0.254173
vt 0.270480 0.254173
vt 1.186007 0.254173
vt 1.455781 2.159889
vt 1.186007 2.159889
vt 1.134068 0.017009
vt 1.240763 0.017009
vt 0.807447 0.017009
vt 0.970757 0.254173
vt 0.485732 2.159889
vt 0.485731 0.254173
vt 0.970757 2.159889
vt 1.940804 2.159889
vt 1.940804 0.254173
vt 0.970757 0.254173
vt 0.970757 2.159889
vt 1.940804 0.257424
vt 2.021411 0.017009
vt 2.261827 0.097615
vt 2.181221 0.338032
vt 2.261826 0.578448
vt 2.021411 0.659055
vt 1.537080 2.397054
vt 1.455781 2.159889
vt 0.807447 2.397054
vt 0.700752 2.397054
vt 1.374484 2.397054
vt 1.240763 2.397054
vt 1.374484 0.017009
vt 1.455781 0.254173
vt 1.777495 2.397054
vt 1.670800 2.397054
vt 0.567031 0.017009
vt 0.700752 0.017009
vt 1.777495 0.017009
vt 0.567031 2.397054
vt 0.485732 2.159889
vt 0.322420 2.397054
vt 0.215725 2.397054
vt 0.322419 0.017009
vt 1.134068 2.397054
vt 0.082003 0.017009
vt 0.215724 0.017009
vt 0.082003 2.397054
vt 0.000706 2.159889
vt 1.537079 0.017009
vt 1.670800 0.017009
vt 0.603812 25.499956
vt 0.407771 -24.499998
vt 0.603810 -24.500000
vt -0.768488 -24.500000
vt -0.572450 25.500000
vt -0.768490 25.500000
vt -0.180353 25.499985
vt -0.376395 -24.500000
vt -0.180356 -24.499998
vt 0.015688 25.499985
vt -0.180354 -24.500000
vt 0.015686 -24.500000
vt 0.211729 25.499985
vt 0.015688 -24.500000
vt 0.211727 -24.500000
vt 0.407771 25.499985
vt 0.211729 -24.500000
vt 0.407769 -24.500000
vt -7.516412 32.499996
vt -15.402486 -31.499996
vt -15.402483 32.499996
vt -15.402490 -31.499994
vt -23.288557 32.499992
vt -15.402487 32.500000
vt 24.027878 32.499985
vt 16.141804 -31.499989
vt 16.141808 32.499985
vt 0.369662 -31.499998
vt 8.255735 32.499992
vt 8.255732 -31.499998
vt -7.516407 32.499992
vt 0.369662 -31.499989
vt -7.516410 -31.499996
vt 16.141804 32.499989
vt 8.255735 -31.499998
vt 8.255735 32.499989
vt 16.141808 -31.499996
vt 0.369663 32.499996
vt 24.027874 -31.499996
vt -23.288559 -31.499998
vt 0.603817 -24.500000
vt -0.376395 25.499985
vt 1.837377 0.186520
vt 1.772837 0.271949
vt 1.665769 0.271949
vt 1.580340 0.100341
vt 1.751948 0.014912
vt 1.751948 0.528987
vt 1.644880 0.528987
vt 1.580340 0.443557
vt 1.665769 0.271949
vt 1.837377 0.357378
vt 2.261827 0.231336
vt 2.181220 0.338032
vt 2.047499 0.338031
vt 1.940804 0.123704
vt 2.155132 0.017008
vt 1.940804 0.552359
vt 1.940804 0.418638
vt 2.047499 0.338032
vt 2.261827 0.444727
vt 2.155132 0.659055
vt 0.407772 25.499958
vt -0.572448 -24.500000
vt -0.376393 25.499985
vt -0.180352 25.499985
vt 0.015690 25.499985
vt 0.211731 25.499985
vt -7.516414 -31.499996
vt 0.369663 32.499992
s 0
usemtl solar_panel
f 215/171/37 214/172/37 216/173/37
f 217/174/31 220/175/31 219/176/31
f 223/177/37 222/178/37 224/179/37
f 227/180/31 226/181/31 228/182/31
f 229/183/37 232/184/37 231/185/37
f 235/186/31 234/187/31 236/188/31
f 237/188/37 240/189/37 238/186/37
f 242/185/31 243/190/31 244/183/31
f 247/181/37 246/180/37 245/182/37
f 249/179/31 252/191/31 250/177/31
f 256/174/37 253/175/37 255/192/37
f 259/172/31 258/171/31 257/173/31
f 215/171/37 213/221/37 214/172/37
f 217/174/31 218/192/31 220/175/31
f 223/177/37 221/191/37 222/178/37
f 227/180/31 225/222/31 226/181/31
f 229/183/37 230/190/37 232/184/37
f 235/186/31 233/189/31 234/187/31
f 237/188/37 239/187/37 240/189/37
f 242/185/31 241/184/31 243/190/31
f 247/181/37 248/222/37 246/180/37
f 249/179/31 251/178/31 252/191/31
f 256/174/37 254/176/37 253/175/37
f 259/172/31 260/221/31 258/171/31
usemtl cable
f 165/36/31 168/37/31 167/38/31
f 169/39/37 172/40/37 171/41/37
f 174/153/31 175/154/31 173/155/31
f 178/156/37 179/157/37 177/158/37
f 182/159/31 183/160/31 181/161/31
f 186/162/37 187/163/37 185/164/37
f 190/165/31 191/166/31 189/167/31
f 194/168/37 195/169/37 193/170/37
f 165/36/31 166/193/31 168/37/31
f 169/39/37 170/194/37 172/40/37
f 174/153/31 176/215/31 175/154/31
f 178/156/37 180/216/37 179/157/37
f 182/159/31 184/217/31 183/160/31
f 186/162/37 188/218/37 187/163/37
f 190/165/31 192/219/31 191/166/31
f 194/168/37 196/220/37 195/169/37
usemtl metal_wear_light
f 102/46/49 111/47/49 101/48/49
f 104/49/50 110/50/50 103/51/50
f 108/52/51 115/53/51 107/54/51
f 106/55/52 114/56/52 105/57/52
f 106/55/57 127/58/57 128/59/57
f 103/51/58 117/60/58 111/61/58
f 109/62/53 107/54/53 110/63/53
f 112/64/54 103/51/54 111/61/54
f 113/65/55 101/48/55 114/66/55
f 116/67/56 105/57/56 115/68/56
f 125/69/38 129/70/38 117/71/38
f 119/72/32 131/73/32 127/74/32
f 102/46/59 119/75/59 112/56/59
f 104/49/60 119/76/60 120/77/60
f 105/57/61 129/78/61 130/79/61
f 106/55/62 131/80/62 113/81/62
f 102/46/63 131/82/63 132/83/63
f 103/51/64 121/84/64 122/85/64
f 101/48/65 129/86/65 114/66/65
f 104/49/66 123/87/66 109/88/66
f 108/52/67 123/89/67 124/90/67
f 107/54/68 121/91/68 110/63/68
f 105/57/69 125/92/69 115/68/69
f 107/54/70 125/93/70 126/94/70
f 108/52/71 127/95/71 116/96/71
f 101/48/72 117/97/72 118/98/72
f 134/99/49 143/100/49 133/101/49
f 136/102/50 142/103/50 135/104/50
f 140/105/51 147/106/51 139/107/51
f 138/108/52 146/109/52 137/110/52
f 138/108/57 159/111/57 160/112/57
f 135/104/58 149/113/58 143/114/58
f 141/115/53 139/107/53 142/116/53
f 144/117/54 135/104/54 143/114/54
f 145/118/55 133/101/55 146/119/55
f 148/120/56 137/110/56 147/121/56
f 157/122/38 161/123/38 149/124/38
f 151/125/32 163/126/32 159/127/32
f 134/99/59 151/128/59 144/129/59
f 136/102/60 151/130/60 152/131/60
f 137/110/61 161/132/61 162/133/61
f 138/108/62 163/134/62 145/135/62
f 134/99/63 163/136/63 164/137/63
f 135/104/64 153/138/64 154/139/64
f 133/101/65 161/140/65 146/119/65
f 136/102/66 155/141/66 141/142/66
f 140/105/67 155/143/67 156/144/67
f 139/107/68 153/145/68 142/116/68
f 137/110/69 157/146/69 147/121/69
f 139/107/70 157/147/70 158/148/70
f 140/105/71 159/149/71 148/150/71
f 133/101/72 149/151/72 150/152/72
f 102/46/49 112/56/49 111/47/49
f 104/49/50 109/88/50 110/50/50
f 108/52/51 116/96/51 115/53/51
f 106/55/52 113/81/52 114/56/52
f 106/55/57 116/67/57 127/58/57
f 103/51/58 122/85/58 117/60/58
f 109/62/53 108/52/53 107/54/53
f 112/64/54 104/49/54 103/51/54
f 113/65/55 102/46/55 101/48/55
f 116/67/56 106/55/56 105/57/56
f 117/71/38 122/195/38 121/196/38
f 121/196/38 126/197/38 125/69/38
f 125/69/38 130/198/38 129/70/38
f 129/70/38 118/199/38 117/71/38
f 117/71/38 121/196/38 125/69/38
f 127/74/32 124/200/32 123/201/32
f 123/201/32 120/202/32 119/72/32
f 119/72/32 132/203/32 131/73/32
f 131/73/32 128/204/32 127/74/32
f 127/74/32 123/201/32 119/72/32
f 102/46/59 132/83/59 119/75/59
f 104/49/60 112/64/60 119/76/60
f 105/57/61 114/56/61 129/78/61
f 106/55/62 128/59/62 131/80/62
f 102/46/63 113/65/63 131/82/63
f 103/51/64 110/50/64 121/84/64
f 101/48/65 118/98/65 129/86/65
f 104/49/66 120/77/66 123/87/66
f 108/52/67 109/62/67 123/89/67
f 107/54/68 126/94/68 121/91/68
f 105/57/69 130/79/69 125/92/69
f 107/54/70 115/53/70 125/93/70
f 108/52/71 124/90/71 127/95/71
f 101/48/72 111/47/72 117/97/72
f 134/99/49 144/129/49 143/100/49
f 136/102/50 141/142/50 142/103/50
f 140/105/51 148/150/51 147/106/51
f 138/108/52 145/135/52 146/109/52
f 138/108/57 148/120/57 159/111/57
f 135/104/58 154/139/58 149/113/58
f 141/115/53 140/105/53 139/107/53
f 144/117/54 136/102/54 135/104/54
f 145/118/55 134/99/55 133/101/55
f 148/120/56 138/108/56 137/110/56
f 149/124/38 154/205/38 153/206/38
f 153/206/38 158/207/38 157/122/38
f 157/122/38 162/208/38 161/123/38
f 161/123/38 150/209/38 149/124/38
f 149/124/38 153/206/38 157/122/38
f 159/127/32 156/210/32 155/211/32
f 155/211/32 152/212/32 151/125/32
f 151/125/32 164/213/32 163/126/32
f 163/126/32 160/214/32 159/127/32
f 159/127/32 155/211/32 151/125/32
f 134/99/59 164/137/59 151/128/59
f 136/102/60 144/117/60 151/130/60
f 137/110/61 146/109/61 161/132/61
f 138/108/62 160/112/62 163/134/62
f 134/99/63 145/118/63 163/136/63
f 135/104/64 142/103/64 153/138/64
f 133/101/65 150/152/65 161/140/65
f 136/102/66 152/131/66 155/141/66
f 140/105/67 141/115/67 155/143/67
f 139/107/68 158/148/68 153/145/68
f 137/110/69 162/133/69 157/146/69
f 139/107/70 147/106/70 157/147/70
f 140/105/71 156/144/71 159/149/71
f 133/101/72 143/100/72 149/151/72
usemtl no_texture
f 4/1/1 15/2/1 14/3/1
f 6/4/2 13/5/2 16/6/2
f 11/7/3 1/8/3 9/9/3
f 10/10/4 6/4/4 12/11/4
f 4/12/5 12/11/5 8/13/5
f 3/14/6 11/7/6 9/9/6
f 16/6/7 1/15/7 5/16/7
f 14/3/8 7/17/8 3/18/8
f 11/7/9 21/16/9 5/16/9
f 11/7/10 23/17/10 27/7/10
f 9/9/11 17/8/11 25/9/11
f 12/11/12 24/13/12 8/13/12
f 12/11/13 22/4/13 28/11/13
f 13/5/14 18/19/14 29/5/14
f 16/6/15 21/16/15 32/6/15
f 10/10/16 20/12/16 26/10/16
f 14/3/17 19/18/17 30/3/17
f 13/5/18 17/15/18 1/15/18
f 14/3/19 20/1/19 4/1/19
f 9/9/20 19/14/20 3/14/20
f 15/2/21 24/13/21 31/2/21
f 10/10/22 18/20/22 2/20/22
f 15/2/23 23/17/23 7/17/23
f 16/6/24 22/4/24 6/4/24
f 21/16/7 48/6/7 32/6/7
f 17/8/3 41/9/3 25/9/3
f 32/6/2 38/4/2 22/4/2
f 25/9/6 35/14/6 19/14/6
f 18/19/2 45/5/2 29/5/2
f 26/10/4 34/20/4 18/20/4
f 20/12/5 42/10/5 26/10/5
f 27/7/3 37/16/3 21/16/3
f 19/18/8 46/3/8 30/3/8
f 28/11/5 40/13/5 24/13/5
f 31/2/8 39/17/8 23/17/8
f 29/5/7 33/15/7 17/15/7
f 23/17/6 43/7/6 27/7/6
f 30/3/1 36/1/1 20/1/1
f 22/4/4 44/11/4 28/11/4
f 24/13/1 47/2/1 31/2/1
f 35/18/25 203/3/25 46/3/25
f 37/16/26 207/7/26 211/16/26
f 61/21/27 58/22/27 57/23/27
f 62/1/28 59/24/28 58/22/28
f 59/24/29 64/4/29 60/25/29
f 64/4/30 57/26/30 60/25/30
f 55/17/31 49/8/31 51/14/31
f 56/27/32 68/28/32 54/28/32
f 60/25/33 49/15/33 53/16/33
f 59/24/34 53/16/34 55/17/34
f 58/22/35 55/17/35 51/18/35
f 49/29/36 58/22/36 51/18/36
f 52/30/37 61/20/37 50/31/37
f 56/27/37 62/12/37 52/30/37
f 54/28/37 63/13/37 56/27/37
f 50/31/37 64/4/37 54/28/37
f 66/30/37 68/28/37 67/27/37
f 50/31/38 66/30/38 52/30/38
f 54/28/39 65/31/39 50/31/39
f 52/30/40 67/27/40 56/27/40
f 70/21/41 79/32/41 69/29/41
f 72/1/42 78/33/42 71/18/42
f 76/13/43 83/34/43 75/17/43
f 74/4/44 82/35/44 73/16/44
f 77/42/45 75/17/45 78/33/45
f 80/43/46 71/18/46 79/32/46
f 81/44/47 69/15/47 82/35/47
f 84/45/48 73/16/48 83/34/48
f 86/21/49 95/32/49 85/29/49
f 88/1/50 94/33/50 87/18/50
f 91/17/51 100/45/51 99/34/51
f 90/4/52 98/35/52 89/16/52
f 93/42/53 91/17/53 94/33/53
f 96/43/54 87/18/54 95/32/54
f 97/44/55 85/15/55 98/35/55
f 100/45/56 89/16/56 99/34/56
f 75/17/31 73/16/31 69/15/31
f 74/4/37 76/13/37 72/1/37
f 200/20/38 202/1/38 204/14/38
f 208/11/32 210/6/32 207/7/32
f 40/13/73 208/11/73 212/13/73
f 39/17/74 205/2/74 206/17/74
f 33/15/75 199/5/75 198/15/75
f 39/17/76 207/7/76 43/7/76
f 36/1/77 203/3/77 202/1/77
f 38/4/78 208/11/78 44/11/78
f 40/13/79 205/2/79 47/2/79
f 37/16/80 210/6/80 48/6/80
f 33/8/81 197/9/81 41/9/81
f 38/4/82 210/6/82 209/4/82
f 35/14/83 197/9/83 204/14/83
f 34/19/84 199/5/84 45/5/84
f 34/20/85 201/10/85 200/20/85
f 36/12/86 201/10/86 42/10/86
f 4/1/1 8/13/1 15/2/1
f 6/4/2 2/19/2 13/5/2
f 11/7/3 5/16/3 1/8/3
f 10/10/4 2/20/4 6/4/4
f 4/12/5 10/10/5 12/11/5
f 3/14/6 7/17/6 11/7/6
f 16/6/7 13/5/7 1/15/7
f 14/3/8 15/2/8 7/17/8
f 11/7/9 27/7/9 21/16/9
f 11/7/10 7/17/10 23/17/10
f 9/9/11 1/8/11 17/8/11
f 12/11/12 28/11/12 24/13/12
f 12/11/13 6/4/13 22/4/13
f 13/5/14 2/19/14 18/19/14
f 16/6/15 5/16/15 21/16/15
f 10/10/16 4/12/16 20/12/16
f 14/3/17 3/18/17 19/18/17
f 13/5/18 29/5/18 17/15/18
f 14/3/19 30/3/19 20/1/19
f 9/9/20 25/9/20 19/14/20
f 15/2/21 8/13/21 24/13/21
f 10/10/22 26/10/22 18/20/22
f 15/2/23 31/2/23 23/17/23
f 16/6/24 32/6/24 22/4/24
f 21/16/7 37/16/7 48/6/7
f 17/8/3 33/8/3 41/9/3
f 32/6/2 48/6/2 38/4/2
f 25/9/6 41/9/6 35/14/6
f 18/19/2 34/19/2 45/5/2
f 26/10/4 42/10/4 34/20/4
f 20/12/5 36/12/5 42/10/5
f 27/7/3 43/7/3 37/16/3
f 19/18/8 35/18/8 46/3/8
f 28/11/5 44/11/5 40/13/5
f 31/2/8 47/2/8 39/17/8
f 29/5/7 45/5/7 33/15/7
f 23/17/6 39/17/6 43/7/6
f 30/3/1 46/3/1 36/1/1
f 22/4/4 38/4/4 44/11/4
f 24/13/1 40/13/1 47/2/1
f 35/18/25 204/18/25 203/3/25
f 37/16/26 43/7/26 207/7/26
f 61/21/27 62/1/27 58/22/27
f 62/1/28 63/13/28 59/24/28
f 59/24/29 63/13/29 64/4/29
f 64/4/30 61/19/30 57/26/30
f 55/17/31 53/16/31 49/8/31
f 56/27/32 67/27/32 68/28/32
f 60/25/33 57/26/33 49/15/33
f 59/24/34 60/25/34 53/16/34
f 58/22/35 59/24/35 55/17/35
f 49/29/36 57/23/36 58/22/36
f 52/30/37 62/12/37 61/20/37
f 56/27/37 63/13/37 62/12/37
f 54/28/37 64/4/37 63/13/37
f 50/31/37 61/20/37 64/4/37
f 66/30/37 65/31/37 68/28/37
f 50/31/38 65/31/38 66/30/38
f 54/28/39 68/28/39 65/31/39
f 52/30/40 66/30/40 67/27/40
f 70/21/41 80/43/41 79/32/41
f 72/1/42 77/42/42 78/33/42
f 76/13/43 84/45/43 83/34/43
f 74/4/44 81/44/44 82/35/44
f 77/42/45 76/13/45 75/17/45
f 80/43/46 72/1/46 71/18/46
f 81/44/47 70/19/47 69/15/47
f 84/45/48 74/4/48 73/16/48
f 86/21/49 96/43/49 95/32/49
f 88/1/50 93/42/50 94/33/50
f 91/17/51 92/13/51 100/45/51
f 90/4/52 97/44/52 98/35/52
f 93/42/53 92/13/53 91/17/53
f 96/43/54 88/1/54 87/18/54
f 97/44/55 86/19/55 85/15/55
f 100/45/56 90/4/56 89/16/56
f 69/15/31 79/32/31 71/18/31
f 71/18/31 78/33/31 75/17/31
f 75/17/31 83/34/31 73/16/31
f 73/16/31 82/35/31 69/15/31
f 69/15/31 71/18/31 75/17/31
f 72/1/37 80/43/37 70/21/37
f 70/21/37 81/44/37 74/4/37
f 74/4/37 84/45/37 76/13/37
f 76/13/37 77/42/37 72/1/37
f 72/1/37 70/21/37 74/4/37
f 204/14/38 197/9/38 198/15/38
f 198/15/38 199/5/38 200/20/38
f 200/20/38 201/10/38 202/1/38
f 202/1/38 203/3/38 204/14/38
f 204/14/38 198/15/38 200/20/38
f 207/7/32 206/17/32 205/2/32
f 205/2/32 212/13/32 208/11/32
f 208/11/32 209/4/32 210/6/32
f 210/6/32 211/16/32 207/7/32
f 207/7/32 205/2/32 208/11/32
f 40/13/73 44/11/73 208/11/73
f 39/17/74 47/2/74 205/2/74
f 33/15/75 45/5/75 199/5/75
f 39/17/76 206/17/76 207/7/76
f 36/1/77 46/3/77 203/3/77
f 38/4/78 209/4/78 208/11/78
f 40/13/79 212/13/79 205/2/79
f 37/16/80 211/16/80 210/6/80
f 33/8/81 198/8/81 197/9/81
f 38/4/82 48/6/82 210/6/82
f 35/14/83 41/9/83 197/9/83
f 34/19/84 200/19/84 199/5/84
f 34/20/85 42/10/85 201/10/85
f 36/12/86 202/12/86 201/10/86
