# Blender 5.0.1
# www.blender.org
mtllib station_2.mtl
o station_2
v 0.333627 -5.579171 0.179918
v 0.333627 5.561445 0.179918
v 0.333627 -5.579171 0.058731
v 0.333627 5.561445 0.058731
v 0.454812 -5.579171 0.179918
v 0.454812 5.561445 0.179918
v 0.454812 -5.579171 0.058731
v 0.454812 5.561445 0.058731
v 0.394219 5.561445 0.028568
v 0.394219 -5.579171 0.028568
v 0.303463 -5.579171 0.119326
v 0.303463 5.561445 0.119326
v 0.394219 5.561445 0.210081
v 0.394219 -5.579171 0.210081
v 0.484976 -5.579171 0.119326
v 0.484976 5.561445 0.119326
v 2.638091 -1.780205 -3.506886
v 2.638091 1.422112 -3.506886
v 2.638091 -1.780205 -4.318520
v 2.638091 1.422112 -4.318520
v 3.449725 -1.780205 -3.506886
v 3.449725 1.422112 -3.506886
v 3.449725 -1.780205 -4.318520
v 3.449725 1.422112 -4.318520
v 3.043908 1.422112 -4.520542
v 3.043908 -1.780205 -4.520542
v 2.436070 -1.780205 -3.912701
v 2.436070 1.422112 -3.912701
v 3.043908 1.422112 -3.304867
v 3.043908 -1.780205 -3.304867
v 3.651746 -1.780205 -3.912701
v 3.651746 1.422112 -3.912701
v -8.956097 -0.179047 -3.463245
v 15.043913 -0.179047 -3.463245
v -8.956097 -0.870537 -3.395140
v 15.043913 -0.870537 -3.395140
v -8.956097 -1.535453 -3.193439
v 15.043913 -1.535453 -3.193439
v -8.956097 -2.148243 -2.865896
v 15.043913 -2.148244 -2.865896
v -8.956097 -2.685358 -2.425098
v 15.043911 -2.685359 -2.425098
v -8.956093 -3.126158 -1.887981
v 15.043911 -3.126158 -1.887981
v -8.956097 -3.453701 -1.275192
v 15.043911 -3.453701 -1.275192
v -8.956097 -3.655401 -0.610275
v 15.043911 -3.655401 -0.610275
v -8.956097 -3.723506 0.081213
v 15.043911 -3.723507 0.081213
v -8.956097 -3.655401 0.772703
v 15.043911 -3.655401 0.772703
v -8.956097 -3.453701 1.437620
v 15.043911 -3.453701 1.437620
v -8.956093 -3.126158 2.050409
v 15.043911 -3.126158 2.050409
v -8.956097 -2.685358 2.587524
v 15.043911 -2.685359 2.587524
v -8.956097 -2.148243 3.028324
v 15.043913 -2.148244 3.028324
v -8.956097 -1.535453 3.355867
v 15.043913 -1.535453 3.355867
v -8.956097 -0.870537 3.557568
v 15.043913 -0.870537 3.557568
v -8.956097 -0.179047 3.625673
v 15.043913 -0.179047 3.625673
v -8.956097 0.512443 3.557568
v 15.043913 0.512443 3.557568
v -8.956097 1.177360 3.355867
v 15.043913 1.177359 3.355867
v -8.956097 1.790150 3.028324
v 15.043913 1.790149 3.028324
v -8.956093 2.327265 2.587524
v 15.043913 2.327265 2.587524
v -8.956093 2.768064 2.050409
v 15.043911 2.768064 2.050409
v -8.956093 3.095607 1.437620
v 15.043913 3.095607 1.437620
v -8.956093 3.297308 0.772703
v 15.043913 3.297307 0.772703
v -8.956093 3.365413 0.081213
v 15.043913 3.365413 0.081213
v -8.956093 3.297308 -0.610275
v 15.043913 3.297307 -0.610275
v -8.956093 3.095607 -1.275192
v 15.043913 3.095607 -1.275192
v -8.956093 2.768064 -1.887981
v 15.043911 2.768064 -1.887981
v -8.956093 2.327265 -2.425098
v 15.043913 2.327265 -2.425098
v -8.956097 1.790150 -2.865896
v 15.043913 1.790149 -2.865896
v -8.956097 1.177360 -3.193439
v 15.043913 1.177359 -3.193439
v -8.956097 0.512443 -3.395140
v 15.043913 0.512443 -3.395140
v 0.448062 0.478876 -3.460867
v 5.639754 0.478876 -3.460867
v 0.448062 0.478876 -4.776712
v 5.639754 0.478876 -4.776712
v 0.448062 -0.836969 -3.460867
v 5.639754 -0.836969 -3.460867
v 0.448062 -0.836969 -4.776712
v 5.639754 -0.836969 -4.776712
v 5.639754 -0.179047 -5.104237
v 0.448062 -0.179047 -5.104237
v 0.448062 0.806398 -4.118786
v 5.639754 0.806398 -4.118788
v 5.639754 -0.179047 -3.133347
v 0.448062 -0.179047 -3.133347
v 0.448062 -1.164492 -4.118788
v 5.639754 -1.164492 -4.118786
v -0.122568 0.355511 -4.118786
v -0.122568 0.177845 -3.761896
v 6.210383 0.355511 -4.118786
v 6.210383 0.177845 -4.475679
v -0.122568 -0.179047 -4.653347
v -0.122568 0.177845 -4.475679
v 6.210383 -0.179047 -4.653347
v 6.210383 -0.535939 -4.475679
v -0.122568 -0.713604 -4.118786
v -0.122568 -0.535939 -4.475679
v 6.210383 -0.713604 -4.118786
v 6.210383 -0.535939 -3.761896
v -0.122568 -0.179047 -3.584232
v -0.122568 -0.535939 -3.761896
v 6.210383 -0.179047 -3.584232
v 6.210383 0.177845 -3.761896
v 0.448062 0.478876 4.939133
v 5.639754 0.478876 4.939133
v 0.448062 0.478876 3.623287
v 5.639754 0.478876 3.623287
v 0.448062 -0.836969 4.939133
v 5.639754 -0.836969 4.939133
v 0.448062 -0.836969 3.623287
v 5.639754 -0.836969 3.623287
v 5.639754 -0.179047 3.295763
v 0.448062 -0.179047 3.295763
v 0.448062 0.806398 4.281214
v 5.639754 0.806398 4.281212
v 5.639754 -0.179047 5.266653
v 0.448062 -0.179047 5.266653
v 0.448062 -1.164492 4.281212
v 5.639754 -1.164492 4.281214
v -0.122568 0.355511 4.281214
v -0.122568 0.177845 4.638103
v 6.210383 0.355511 4.281213
v 6.210383 0.177845 3.924320
v -0.122568 -0.179047 3.746653
v -0.122568 0.177845 3.924320
v 6.210383 -0.179047 3.746653
v 6.210383 -0.535939 3.924320
v -0.122568 -0.713604 4.281213
v -0.122568 -0.535939 3.924320
v 6.210383 -0.713604 4.281214
v 6.210383 -0.535939 4.638103
v -0.122568 -0.179047 4.815768
v -0.122568 -0.535939 4.638103
v 6.210383 -0.179047 4.815768
v 6.210383 0.177845 4.638103
v 0.448062 2.161782 -2.657354
v 5.639754 2.161782 -2.657354
v 0.448062 2.819704 -3.796909
v 5.639754 2.819704 -3.796909
v 0.448062 1.022226 -3.315277
v 5.639754 1.022226 -3.315277
v 0.448062 1.680149 -4.454832
v 5.639754 1.680149 -4.454832
v 5.639754 2.413688 -4.409515
v 0.448062 2.413689 -4.409515
v 0.448062 2.774384 -3.063368
v 5.639754 2.774384 -3.063370
v 5.639754 1.428244 -2.702675
v 0.448062 1.428244 -2.702675
v 0.448062 1.067544 -4.048813
v 5.639754 1.067543 -4.048813
v -0.122568 2.383904 -3.288811
v -0.122568 2.051596 -3.068569
v 6.210383 2.383904 -3.288813
v 6.210383 2.408488 -3.686724
v -0.122568 2.188243 -4.019033
v -0.122568 2.408488 -3.686724
v 6.210383 2.188243 -4.019033
v 6.210383 1.790333 -4.043615
v -0.122568 1.458023 -3.823370
v -0.122568 1.790333 -4.043615
v 6.210383 1.458023 -3.823370
v 6.210383 1.433441 -3.425461
v -0.122568 1.653686 -3.093151
v -0.122568 1.433441 -3.425461
v 6.210383 1.653686 -3.093151
v 6.210383 2.051596 -3.068569
v 0.448062 -2.038218 4.617258
v 5.639754 -2.038218 4.617258
v 0.448062 -1.380296 3.477703
v 5.639754 -1.380296 3.477703
v 0.448062 -3.177774 3.959335
v 5.639754 -3.177774 3.959335
v 0.448062 -2.519851 2.819780
v 5.639754 -2.519851 2.819780
v 5.639754 -1.786311 2.865097
v 0.448062 -1.786311 2.865097
v 0.448062 -1.425616 4.211246
v 5.639754 -1.425616 4.211244
v 5.639754 -2.771756 4.571938
v 0.448062 -2.771756 4.571938
v 0.448062 -3.132456 3.225800
v 5.639754 -3.132457 3.225800
v -0.122568 -1.816096 3.985802
v -0.122568 -2.148404 4.206045
v 6.210383 -1.816096 3.985802
v 6.210383 -1.791512 3.587891
v -0.122568 -2.011756 3.255581
v -0.122568 -1.791512 3.587891
v 6.210383 -2.011756 3.255581
v 6.210383 -2.409667 3.230997
v -0.122568 -2.741977 3.451244
v -0.122568 -2.409667 3.230997
v 6.210383 -2.741977 3.451244
v 6.210383 -2.766559 3.849152
v -0.122568 -2.546314 4.181461
v -0.122568 -2.766559 3.849152
v 6.210383 -2.546314 4.181461
v 6.210383 -2.148404 4.206045
v 0.448062 -1.380320 -3.315277
v 5.639754 -1.380320 -3.315277
v 0.448062 -2.038242 -4.454832
v 5.639754 -2.038242 -4.454832
v 0.448062 -2.519875 -2.657354
v 5.639754 -2.519875 -2.657354
v 0.448062 -3.177798 -3.796909
v 5.639754 -3.177798 -3.796909
v 5.639754 -2.771782 -4.409515
v 0.448062 -2.771782 -4.409515
v 0.448062 -1.425636 -4.048813
v 5.639754 -1.425637 -4.048813
v 5.639754 -1.786337 -2.702675
v 0.448062 -1.786337 -2.702675
v 0.448062 -3.132478 -3.063370
v 5.639754 -3.132478 -3.063368
v -0.122568 -1.816116 -3.823370
v -0.122568 -1.791534 -3.425461
v 6.210383 -1.816117 -3.823370
v 6.210383 -2.148426 -4.043615
v -0.122568 -2.546337 -4.019033
v -0.122568 -2.148426 -4.043615
v 6.210383 -2.546337 -4.019033
v 6.210383 -2.766581 -3.686724
v -0.122568 -2.741998 -3.288813
v -0.122568 -2.766581 -3.686724
v 6.210383 -2.741997 -3.288811
v 6.210383 -2.409690 -3.068569
v -0.122568 -2.011779 -3.093151
v -0.122568 -2.409690 -3.068569
v 6.210383 -2.011780 -3.093151
v 6.210383 -1.791534 -3.425461
v 0.448062 2.819680 3.959335
v 5.639754 2.819680 3.959335
v 0.448062 2.161757 2.819780
v 5.639754 2.161757 2.819780
v 0.448062 1.680125 4.617258
v 5.639754 1.680125 4.617258
v 0.448062 1.022202 3.477703
v 5.639754 1.022202 3.477703
v 5.639754 1.428218 2.865097
v 0.448062 1.428218 2.865097
v 0.448062 2.774363 3.225800
v 5.639754 2.774362 3.225800
v 5.639754 2.413662 4.571938
v 0.448062 2.413663 4.571938
v 0.448062 1.067522 4.211244
v 5.639754 1.067522 4.211246
v -0.122568 2.383883 3.451244
v -0.122568 2.408466 3.849152
v 6.210383 2.383883 3.451244
v 6.210383 2.051574 3.230997
v -0.122568 1.653663 3.255581
v -0.122568 2.051574 3.230997
v 6.210383 1.653663 3.255581
v 6.210383 1.433419 3.587891
v -0.122568 1.458002 3.985802
v -0.122568 1.433419 3.587891
v 6.210383 1.458002 3.985802
v 6.210383 1.790310 4.206045
v -0.122568 2.188220 4.181461
v -0.122568 1.790310 4.206045
v 6.210383 2.188220 4.181461
v 6.210383 2.408466 3.849152
v 2.510350 3.345732 3.015039
v 3.577465 3.345734 3.015039
v 2.510350 3.345732 -2.852619
v 3.577465 3.345732 -2.852619
v 2.510350 -3.703827 3.015039
v 3.577465 -3.703825 3.015039
v 2.510350 -3.703825 -2.852619
v 3.577465 -3.703825 -2.852619
v 4.018190 -0.179046 -4.904076
v 2.069626 -0.179046 -4.904076
v 2.510350 4.806230 0.081226
v 3.577465 4.806227 0.081221
v 4.018190 -0.179046 5.066476
v 2.069626 -0.179046 5.066476
v 2.510350 -5.164321 0.081221
v 3.577465 -5.164324 0.081226
v 2.069626 4.806230 0.081226
v 2.069626 3.149325 3.409580
v 4.018190 3.149325 3.409580
v 4.018190 4.806227 0.081221
v 4.018190 3.149325 -3.247160
v 2.069626 3.149325 -3.247160
v 4.018190 -3.507418 -3.247160
v 2.069626 -3.507418 -3.247160
v 2.069626 -5.164321 0.081221
v 4.018190 -5.164325 0.081226
v 4.018190 -3.507418 3.409580
v 2.069626 -3.507418 3.409580
v 2.553781 4.400436 0.081224
v 3.534034 4.400434 0.081221
v 3.534034 -4.758531 0.081224
v 2.553781 -4.758528 0.081221
v 2.553781 3.058821 2.776230
v 3.534035 3.058822 2.776230
v 3.534034 3.058820 -2.613810
v 2.553781 3.058820 -2.613810
v 3.534035 -3.416913 -2.613810
v 2.553781 -3.416913 -2.613810
v 3.534034 -3.416914 2.776230
v 2.553781 -3.416915 2.776230
v -10.106949 1.084368 1.344622
v -7.671350 1.474506 1.734762
v -10.106949 1.084366 -1.182205
v -7.671350 1.474506 -1.572344
v -10.106949 -1.442461 1.344622
v -7.671350 -1.832600 1.734762
v -10.106949 -1.442460 -1.182205
v -7.671350 -1.832600 -1.572344
v -7.671350 -0.179047 -2.395508
v -10.106949 -0.179046 -1.811152
v -10.106949 1.713311 0.081217
v -7.671350 2.297666 0.081215
v -7.671350 -0.179047 2.557917
v -10.106949 -0.179046 1.973560
v -10.106949 -2.071404 0.081213
v -7.671350 -2.655761 0.081217
v -7.128583 -0.179047 -4.731565
v -1.724633 -0.179047 -4.731565
v -6.963071 -1.060462 -4.349943
v -1.890145 -1.060462 -4.349943
v -6.963071 -1.908004 -4.092842
v -1.890145 -1.908005 -4.092842
v -6.963071 -2.689104 -3.675337
v -1.890145 -2.689105 -3.675337
v -6.963071 -3.373744 -3.113468
v -1.890146 -3.373745 -3.113468
v -6.963071 -3.935613 -2.428827
v -1.890146 -3.935614 -2.428827
v -7.128583 -4.625489 -1.760548
v -1.724634 -4.625490 -1.760548
v -7.128583 -4.899365 -0.857700
v -1.724634 -4.899366 -0.857700
v -7.128583 -4.991842 0.081230
v -1.724634 -4.991843 0.081230
v -7.128583 -4.899365 1.020161
v -1.724634 -4.899366 1.020161
v -7.128583 -4.625489 1.923008
v -1.724634 -4.625490 1.923008
v -7.128582 -4.180740 2.755075
v -1.724634 -4.180740 2.755075
v -7.128583 -3.582207 3.484390
v -1.724634 -3.582208 3.484390
v -7.128583 -2.852893 4.082923
v -1.724633 -2.852894 4.082923
v -7.128583 -2.020824 4.527673
v -1.724633 -2.020824 4.527673
v -7.128583 -1.117976 4.801549
v -1.724633 -1.117976 4.801549
v -7.128583 -0.179047 4.894026
v -1.724633 -0.179047 4.894026
v -6.963071 0.702369 4.512402
v -1.890145 0.702368 4.512402
v -6.963071 1.549911 4.255302
v -1.890145 1.549911 4.255302
v -6.963071 2.331011 3.837795
v -1.890145 2.331010 3.837795
v -6.963071 3.015651 3.275927
v -1.890145 3.015650 3.275927
v -6.963071 3.577520 2.591286
v -1.890146 3.577520 2.591286
v -7.128582 4.267397 1.923008
v -1.724633 4.267395 1.923008
v -7.128582 4.541273 1.020161
v -1.724633 4.541272 1.020161
v -7.128582 4.633749 0.081230
v -1.724633 4.633749 0.081230
v -7.128582 4.541273 -0.857700
v -1.724633 4.541272 -0.857700
v -7.128582 4.267397 -1.760548
v -1.724633 4.267395 -1.760548
v -7.128582 3.822647 -2.592615
v -1.724634 3.822646 -2.592615
v -7.128582 3.224114 -3.321930
v -1.724633 3.224113 -3.321930
v -7.128583 2.494799 -3.920464
v -1.724633 2.494799 -3.920464
v -7.128583 1.662731 -4.365211
v -1.724633 1.662730 -4.365211
v -7.128583 0.759884 -4.639090
v -1.724633 0.759883 -4.639090
v -7.668977 -0.179047 -3.945421
v -7.668977 -0.964607 -3.868050
v -1.184238 -0.964607 -3.868050
v -1.184238 -0.179047 -3.945421
v -7.668977 -1.719980 -3.638910
v -1.184238 -1.719980 -3.638910
v -7.668977 -2.416135 -3.266808
v -1.184238 -2.416136 -3.266808
v -7.668977 -3.026320 -2.766041
v -1.184239 -3.026320 -2.766041
v -7.668977 -3.527086 -2.155857
v -1.184239 -3.527087 -2.155857
v -7.668977 -3.899188 -1.459702
v -1.184239 -3.899189 -1.459702
v -7.668977 -4.128328 -0.704330
v -1.184239 -4.128329 -0.704330
v -7.668977 -4.205698 0.081232
v -1.184239 -4.205699 0.081232
v -7.668977 -4.128328 0.866793
v -1.184239 -4.128329 0.866793
v -7.668977 -3.899188 1.622164
v -1.184239 -3.899189 1.622164
v -7.668977 -3.527086 2.318319
v -1.184239 -3.527087 2.318319
v -7.668977 -3.026320 2.928505
v -1.184239 -3.026320 2.928505
v -7.668977 -2.416135 3.429270
v -1.184238 -2.416136 3.429270
v -7.668977 -1.719980 3.801373
v -1.184238 -1.719980 3.801373
v -7.668977 -0.964607 4.030512
v -1.184238 -0.964607 4.030512
v -7.668977 -0.179047 4.107883
v -1.184238 -0.179047 4.107883
v -7.668977 0.606515 4.030512
v -1.184238 0.606514 4.030512
v -7.668977 1.361887 3.801373
v -1.184238 1.361887 3.801373
v -7.668977 2.058042 3.429270
v -1.184238 2.058041 3.429270
v -7.668977 2.668227 2.928505
v -1.184238 2.668226 2.928505
v -7.668977 3.168993 2.318319
v -1.184239 3.168992 2.318319
v -7.668977 3.541095 1.622164
v -1.184238 3.541094 1.622164
v -7.668977 3.770235 0.866793
v -1.184238 3.770235 0.866793
v -7.668977 3.847606 0.081232
v -1.184238 3.847605 0.081232
v -7.668977 3.770235 -0.704330
v -1.184238 3.770235 -0.704330
v -7.668977 3.541095 -1.459702
v -1.184238 3.541094 -1.459702
v -7.668977 3.168993 -2.155857
v -1.184239 3.168992 -2.155857
v -7.668977 2.668227 -2.766041
v -1.184238 2.668226 -2.766041
v -7.668977 2.058042 -3.266808
v -1.184238 2.058041 -3.266808
v -7.668977 1.361887 -3.638910
v -1.184238 1.361887 -3.638910
v -7.668977 0.606515 -3.868050
v -1.184238 0.606514 -3.868050
v 15.819790 -0.581866 -1.943892
v 15.819790 -0.179047 -1.983566
v 15.819790 -0.969205 -1.826393
v 15.819790 -1.326179 -1.635588
v 15.819789 -1.639068 -1.378805
v 15.819789 -1.895851 -1.065916
v 15.819789 -2.086657 -0.708942
v 15.819789 -2.204155 -0.321604
v 15.819789 -2.243829 0.081217
v 15.819789 -2.204155 0.484035
v 15.819789 -2.086657 0.871374
v 15.819789 -1.895851 1.228348
v 15.819789 -1.639068 1.541237
v 15.819790 -1.326179 1.798019
v 15.819790 -0.969205 1.988825
v 15.819790 -0.581866 2.106323
v 15.819790 -0.179047 2.145998
v 15.819790 0.223772 2.106323
v 15.819790 0.611111 1.988825
v 15.819790 0.968085 1.798019
v 15.819790 1.280975 1.541237
v 15.819789 1.537757 1.228348
v 15.819790 1.728563 0.871374
v 15.819790 1.846061 0.484035
v 15.819790 1.885735 0.081217
v 15.819790 1.846061 -0.321604
v 15.819790 1.728563 -0.708942
v 15.819789 1.537757 -1.065916
v 15.819790 1.280975 -1.378805
v 15.819790 0.968085 -1.635588
v 15.819790 0.611111 -1.826393
v 15.819790 0.223772 -1.943892
v -10.106949 2.297667 0.081217
v -10.106949 1.474506 1.734762
v -10.106949 -0.179046 -2.395508
v -10.106949 1.474506 -1.572344
v -10.106949 -2.655760 0.081215
v -10.106949 -1.832600 -1.572344
v -10.106949 -0.179046 2.557917
v -10.106949 -1.832600 1.734762
v -9.834573 1.446422 0.081215
v -9.834573 0.906182 1.166437
v -9.834573 -0.179046 -1.544262
v -9.834573 0.906181 -1.004019
v -9.834573 -1.804515 0.081213
v -9.834573 -1.264274 -1.004019
v -9.834573 -0.179046 1.706673
v -9.834573 -1.264275 1.166437
v -9.423583 1.704911 0.241884
v -18.084599 1.704913 0.242697
v -9.427765 1.704706 0.133860
v -18.088781 1.704707 0.134672
v -9.423583 1.812936 0.241678
v -18.084606 1.812937 0.242491
v -9.427765 1.812730 0.133656
v -18.088781 1.812732 0.134466
v -18.089823 1.758668 0.107681
v -9.428805 1.758667 0.106871
v -9.425673 1.677920 0.187925
v -18.086691 1.677922 0.188736
v -18.083567 1.758976 0.269482
v -9.422544 1.758975 0.268669
v -9.425673 1.839721 0.187616
v -18.086691 1.839723 0.188427
v -9.633494 2.122440 0.218437
v -14.513541 2.122441 0.218895
v -9.635852 2.122324 0.157572
v -14.515899 2.122325 0.158030
v -9.633494 2.183306 0.218323
v -14.513547 2.183307 0.218779
v -9.635852 2.183191 0.157455
v -14.515899 2.183192 0.157913
v -14.516486 2.152729 0.142820
v -9.636437 2.152729 0.142365
v -9.634673 2.107232 0.188034
v -14.514720 2.107233 0.188492
v -14.512961 2.152903 0.233988
v -9.632909 2.152902 0.233530
v -9.634673 2.198399 0.187860
v -14.514720 2.198399 0.188318
v -9.582280 1.734806 0.721184
v -14.564708 1.734807 0.721487
v -9.584687 1.734730 0.680876
v -14.567115 1.734730 0.681179
v -9.582280 1.775113 0.721107
v -14.564713 1.775114 0.721409
v -9.584687 1.775037 0.680799
v -14.567115 1.775037 0.681103
v -14.567714 1.754865 0.671108
v -9.585284 1.754864 0.670805
v -9.583484 1.724735 0.701050
v -14.565911 1.724736 0.701353
v -14.564116 1.754979 0.731482
v -9.581682 1.754979 0.731178
v -9.583484 1.785108 0.700933
v -14.565911 1.785108 0.701237
v 0.333627 -4.863187 -2.613354
v 0.333627 4.784870 2.956955
v 0.333627 -4.802593 -2.718304
v 0.333627 4.845464 2.852003
v 0.454812 -4.863187 -2.613354
v 0.454812 4.784870 2.956955
v 0.454812 -4.802593 -2.718304
v 0.454812 4.845464 2.852003
v 0.394219 4.860545 2.825882
v 0.394219 -4.787512 -2.744427
v 0.303463 -4.832891 -2.665829
v 0.303463 4.815166 2.904480
v 0.394219 4.769789 2.983076
v 0.394219 -4.878268 -2.587231
v 0.484976 -4.832891 -2.665829
v 0.484976 4.815166 2.904480
v 0.333627 -4.802596 2.956955
v 0.333627 4.845461 -2.613354
v 0.333627 -4.863190 2.852003
v 0.333627 4.784867 -2.718304
v 0.454812 -4.802596 2.956955
v 0.454812 4.845461 -2.613354
v 0.454812 -4.863190 2.852003
v 0.454812 4.784867 -2.718304
v 0.394219 4.769786 -2.744427
v 0.394219 -4.878271 2.825882
v 0.303463 -4.832892 2.904480
v 0.303463 4.815165 -2.665829
v 0.394219 4.860542 -2.587231
v 0.394219 -4.787515 2.983076
v 0.484976 -4.832892 2.904480
v 0.484976 4.815165 -2.665829
vn -0.8952 -0.0000 0.4456
vn -0.4456 -0.0000 -0.8952
vn 0.8952 -0.0000 -0.4456
vn 0.4456 -0.0000 0.8952
vn 0.4456 -0.0000 -0.8952
vn -0.8952 -0.0000 -0.4456
vn -0.4456 -0.0000 0.8952
vn 0.8952 -0.0000 0.4456
vn -0.0000 -1.0000 -0.0000
vn -0.0000 1.0000 -0.0000
vn -0.0000 -0.0980 -0.9952
vn -0.0000 -0.2903 -0.9569
vn -0.0000 -0.4714 -0.8819
vn -0.0000 -0.6344 -0.7730
vn -0.0000 -0.7730 -0.6344
vn -0.0000 -0.8819 -0.4714
vn -0.0000 -0.9569 -0.2903
vn -0.0000 -0.9952 -0.0980
vn -0.0000 -0.9952 0.0980
vn -0.0000 -0.9569 0.2903
vn -0.0000 -0.8819 0.4714
vn -0.0000 -0.7730 0.6344
vn -0.0000 -0.6344 0.7730
vn -0.0000 -0.4714 0.8819
vn -0.0000 -0.2903 0.9569
vn -0.0000 -0.0980 0.9952
vn -0.0000 0.0980 0.9952
vn -0.0000 0.2903 0.9569
vn -0.0000 0.4714 0.8819
vn -0.0000 0.6344 0.7730
vn -0.0000 0.7730 0.6344
vn -0.0000 0.8819 0.4714
vn -0.0000 0.9569 0.2903
vn -0.0000 0.9952 0.0980
vn -0.0000 0.9952 -0.0980
vn -0.0000 0.9569 -0.2903
vn -0.0000 0.8819 -0.4714
vn -0.0000 0.7730 -0.6344
vn -0.0000 0.6344 -0.7730
vn -0.0000 0.4714 -0.8819
vn 0.8847 -0.2957 -0.3603
vn -0.0000 0.2903 -0.9569
vn -0.0000 0.0980 -0.9952
vn -1.0000 -0.0000 -0.0000
vn -0.0000 0.8952 0.4456
vn -0.0000 0.4456 -0.8952
vn -0.0000 -0.8952 -0.4456
vn -0.0000 -0.4456 0.8952
vn -0.5775 0.3638 -0.7308
vn 0.5775 0.3638 0.7309
vn -0.0000 -0.4456 -0.8952
vn -0.0000 0.8952 -0.4456
vn -0.0000 0.4456 0.8952
vn -0.0000 -0.8952 0.4456
vn 1.0000 -0.0000 -0.0000
vn -0.5775 0.3638 0.7309
vn 0.5775 0.3638 -0.7308
vn 0.5775 -0.3638 -0.7308
vn -0.5775 -0.3638 -0.7308
vn -0.5775 -0.7308 0.3638
vn -0.5775 -0.7308 -0.3638
vn 0.5775 -0.7308 -0.3638
vn -0.5775 0.7308 0.3638
vn -0.5775 0.7308 -0.3638
vn 0.5775 -0.7308 0.3638
vn 0.5775 0.7308 0.3638
vn 0.5775 0.7308 -0.3638
vn -0.5775 -0.3638 0.7309
vn 0.5775 -0.3638 0.7309
vn 0.5775 0.3638 0.7308
vn -0.0000 0.5524 0.8335
vn -0.0000 0.8335 -0.5524
vn -0.0000 -0.5525 -0.8335
vn -0.0000 -0.8335 0.5525
vn -0.5775 0.6805 -0.4510
vn 0.5775 -0.0503 0.8148
vn -0.0000 0.0617 -0.9981
vn -0.0000 0.9981 0.0617
vn -0.0000 -0.0617 0.9981
vn -0.0000 -0.9981 -0.0617
vn -0.5775 -0.0503 0.8148
vn 0.5775 0.6805 -0.4510
vn 0.5775 0.0503 -0.8148
vn -0.5775 0.0503 -0.8148
vn -0.5775 -0.8148 -0.0503
vn -0.5775 -0.4510 -0.6805
vn 0.5775 -0.4510 -0.6805
vn -0.5775 0.4510 0.6805
vn -0.5775 0.8148 0.0503
vn 0.5775 -0.8148 -0.0503
vn 0.5775 0.4510 0.6805
vn 0.5775 0.8148 0.0503
vn -0.5775 -0.6805 0.4510
vn 0.5775 -0.6805 0.4510
vn -0.0000 0.9981 -0.0617
vn -0.0000 -0.0617 -0.9981
vn -0.0000 -0.9981 0.0617
vn -0.0000 0.0617 0.9981
vn -0.5775 -0.0503 -0.8148
vn 0.5775 0.6805 0.4510
vn -0.0000 -0.8335 -0.5524
vn -0.0000 0.5525 -0.8335
vn -0.0000 0.8335 0.5525
vn -0.0000 -0.5525 0.8335
vn -0.5775 0.6805 0.4510
vn 0.5775 -0.0503 -0.8148
vn 0.5775 -0.6805 -0.4510
vn -0.5775 -0.6805 -0.4510
vn -0.5775 -0.4510 0.6805
vn -0.5775 -0.8148 0.0503
vn 0.5775 -0.8148 0.0503
vn -0.5775 0.8148 -0.0503
vn -0.5775 0.4510 -0.6805
vn 0.5775 -0.4510 0.6805
vn 0.5775 0.8148 -0.0503
vn 0.5775 0.4510 -0.6805
vn -0.5775 0.0503 0.8148
vn 0.5775 0.0503 0.8148
vn -0.0000 -0.5524 0.8335
vn -0.0000 -0.6397 -0.7686
vn 0.9929 0.1063 0.0529
vn 0.9929 -0.1063 0.0529
vn -0.0000 0.6397 0.7686
vn -0.0000 -0.6397 0.7686
vn -0.9929 -0.1063 -0.0529
vn -0.0000 0.6397 -0.7686
vn 0.9929 0.1063 -0.0529
vn 0.9929 -0.1063 -0.0529
vn -0.9929 0.1063 -0.0529
vn -0.9929 0.1063 0.0529
vn -0.9929 -0.1063 0.0529
vn -0.6594 -0.3350 -0.6730
vn -0.0000 -0.3973 -0.9177
vn -0.0000 -0.6958 -0.7183
vn -0.0000 0.3973 0.9177
vn -0.0000 0.6958 0.7183
vn -0.8228 0.5656 0.0557
vn 0.8228 -0.1650 0.5439
vn 0.8228 0.5656 0.0557
vn -0.8228 -0.5439 -0.1650
vn -0.8228 -0.0557 0.5656
vn 0.8228 -0.5439 -0.1650
vn -0.8228 0.5656 -0.0557
vn 0.8228 -0.0557 0.5656
vn 0.8228 0.5656 -0.0557
vn -0.8228 -0.5656 -0.0557
vn -0.7651 0.3714 0.5260
vn 0.8228 -0.5656 -0.0557
vn -0.8228 0.5439 -0.1650
vn 0.7651 0.3714 0.5260
vn 0.8228 0.5439 -0.1650
vn -0.8228 -0.5656 0.0557
vn -0.5694 0.2386 0.7867
vn 0.8228 -0.5656 0.0557
vn -0.7651 -0.3714 -0.5260
vn -0.8228 0.5012 -0.2679
vn 0.5694 0.2386 0.7867
vn 0.7651 -0.3714 -0.5260
vn 0.8228 0.5012 -0.2679
vn -0.8228 -0.5439 0.1650
vn -0.5694 0.3875 0.7250
vn 0.8228 -0.5439 0.1650
vn -0.8228 0.4393 -0.3605
vn 0.5694 0.3875 0.7250
vn -0.5694 -0.2386 -0.7867
vn 0.8228 0.4393 -0.3605
vn -0.8228 -0.5012 0.2679
vn 0.5694 -0.2386 -0.7867
vn -0.5694 0.5215 0.6355
vn 0.8228 -0.5012 0.2679
vn -0.8228 0.3605 -0.4393
vn 0.5694 0.5215 0.6355
vn -0.5694 -0.3875 -0.7250
vn 0.8228 0.3605 -0.4393
vn -0.8228 -0.4393 0.3605
vn 0.5694 -0.3875 -0.7250
vn -0.5694 0.6355 0.5215
vn 0.8228 -0.4393 0.3605
vn -0.8228 0.2679 -0.5012
vn 0.5694 0.6355 0.5215
vn -0.5694 -0.5215 -0.6355
vn 0.8228 0.2679 -0.5012
vn -0.8228 -0.3605 0.4393
vn 0.5694 -0.5215 -0.6355
vn -0.7651 0.3438 0.5444
vn 0.8228 -0.3605 0.4393
vn -0.8228 0.1650 -0.5439
vn 0.7651 0.3438 0.5444
vn -0.5694 -0.6355 -0.5215
vn 0.8228 0.1650 -0.5439
vn -0.8228 -0.2679 0.5012
vn 0.5694 -0.6355 -0.5215
vn -0.8228 0.5439 0.1650
vn 0.8228 -0.2679 0.5012
vn -0.8228 0.0557 -0.5656
vn 0.8228 0.5439 0.1650
vn -0.7651 -0.3438 -0.5444
vn 0.8228 0.0557 -0.5656
vn -0.8228 -0.1650 0.5439
vn 0.7651 -0.3438 -0.5444
vn 0.8847 -0.2957 0.3603
vn 0.8847 0.4111 0.2197
vn 0.8847 0.1353 -0.4461
vn 0.8847 -0.4639 0.0457
vn 0.8847 0.1353 0.4461
vn 0.8847 0.4111 -0.2197
vn 0.8847 -0.3603 -0.2957
vn 0.8847 -0.2197 0.4111
vn 0.8847 0.4461 0.1353
vn 0.8847 -0.0457 -0.4639
vn 0.8847 0.0457 -0.4639
vn 0.8847 -0.4461 0.1353
vn 0.8847 0.2197 0.4111
vn 0.8847 0.3603 -0.2957
vn 0.8847 -0.4111 -0.2197
vn 0.8847 -0.1353 0.4461
vn 0.8847 0.4639 0.0457
vn 0.8847 -0.1353 -0.4461
vn 0.8847 -0.4111 0.2197
vn 0.8847 0.2957 0.3603
vn 0.8847 0.2957 -0.3603
vn 0.8847 -0.4461 -0.1353
vn 0.8847 -0.0457 0.4639
vn 0.8847 0.4639 -0.0457
vn 0.8847 -0.2197 -0.4111
vn 0.8847 -0.3603 0.2957
vn 0.8847 0.3603 0.2957
vn 0.8847 0.2197 -0.4111
vn 0.8847 -0.4639 -0.0457
vn 0.8847 0.0457 0.4639
vn 0.8847 0.4461 -0.1353
vn -0.6594 0.3350 0.6730
vn -0.6594 0.6730 0.3350
vn -0.6594 -0.6730 -0.3350
vn -0.6594 0.6730 -0.3350
vn -0.6594 -0.6730 0.3350
vn -0.6594 0.3350 -0.6730
vn -0.6594 -0.3350 0.6730
vn -0.0000 -0.8944 0.4474
vn -0.0001 -0.4473 -0.8944
vn -0.0000 0.8944 -0.4473
vn 0.0001 0.4474 0.8944
vn -0.9993 0.0001 0.0386
vn -0.0001 0.4439 -0.8961
vn -0.0000 -0.8961 -0.4439
vn 0.0001 -0.4439 0.8961
vn -0.0000 0.8961 0.4439
vn 0.0001 0.4473 0.8944
vn -0.9993 0.0001 0.0385
vn 0.0001 -0.4440 0.8960
vn -0.0000 0.8944 -0.4474
vn -0.9982 0.0001 0.0593
vn -0.8952 -0.2228 0.3859
vn -0.4456 0.4476 -0.7753
vn 0.8952 0.2228 -0.3859
vn 0.4456 -0.4476 0.7753
vn 0.4456 0.4476 -0.7753
vn -0.8952 0.2228 -0.3859
vn -0.4456 -0.4476 0.7753
vn 0.8952 -0.2228 0.3859
vn -0.0000 -0.8660 -0.5000
vn -0.0000 0.8660 0.5000
vn -0.8952 0.2228 0.3859
vn -0.4456 -0.4476 -0.7753
vn 0.8952 -0.2228 -0.3859
vn 0.4456 0.4476 0.7753
vn 0.4456 -0.4476 -0.7753
vn -0.8952 -0.2228 -0.3859
vn -0.4456 0.4476 0.7753
vn 0.8952 0.2228 0.3859
vn -0.0000 -0.8660 0.5000
vn -0.0000 0.8660 -0.5000
vn -0.0000 0.5525 0.8335
vn -0.5694 0.0806 0.8181
vn 0.5694 0.0806 0.8181
vn -0.5694 -0.0806 -0.8181
vn 0.5694 -0.0806 -0.8181
vn -0.5694 0.7250 0.3875
vn 0.5694 0.7250 0.3875
vn -0.5694 -0.7250 -0.3875
vn 0.5694 -0.7250 -0.3875
vn 1.0000 -0.0000 -0.0001
vn 1.0000 -0.0000 0.0001
vn -0.0000 -0.8944 0.4473
vn -0.0001 -0.4474 -0.8944
vn -0.9993 0.0001 0.0387
vn -0.9992 -0.0002 0.0388
vn -0.9993 -0.0000 0.0385
vn -0.0001 -0.4474 -0.8943
vn 0.0001 0.4474 0.8943
vn -0.9992 0.0001 0.0387
vn -0.9993 -0.0000 0.0386
vn -0.0001 0.4440 -0.8960
vn -0.0000 0.8960 0.4440
vn -0.9982 0.0001 0.0594
vn -0.9982 0.0001 0.0597
vn -0.9982 -0.0004 0.0600
vn -0.9982 0.0001 0.0596
vn -0.0001 0.4440 -0.8961
vt 0.625000 0.000000
vt 0.375000 0.124999
vt 0.375000 0.000000
vt 0.625000 0.250000
vt 0.375000 0.375000
vt 0.375000 0.250000
vt 0.625000 0.500000
vt 0.375000 0.625000
vt 0.375000 0.500000
vt 0.625000 0.750000
vt 0.375000 0.875000
vt 0.375000 0.750000
vt 0.625000 0.375000
vt 0.625000 0.125000
vt 0.625000 0.875000
vt 0.375000 1.000000
vt 0.625000 0.625001
vt 0.250000 0.750000
vt 0.125000 0.625001
vt 0.875000 0.625000
vt 0.750000 0.750000
vt 1.000000 1.000000
vt 0.968750 0.500000
vt 1.000000 0.500000
vt 0.968750 1.000000
vt 0.937500 0.500000
vt 0.937500 1.000000
vt 0.906250 0.500000
vt 0.875000 1.000000
vt 0.875000 0.500000
vt 0.843750 0.500000
vt 0.843750 1.000000
vt 0.812500 0.500000
vt 0.812500 1.000000
vt 0.781250 0.500000
vt 0.781250 1.000000
vt 0.750000 0.500000
vt 0.750000 1.000000
vt 0.718750 0.500000
vt 0.718750 1.000000
vt 0.687500 0.500000
vt 0.687500 1.000000
vt 0.656250 0.500000
vt 0.625000 1.000000
vt 0.593750 0.500000
vt 0.593750 1.000000
vt 0.562500 0.500000
vt 0.562500 1.000000
vt 0.531250 0.500000
vt 0.531250 1.000000
vt 0.500000 0.500000
vt 0.500000 1.000000
vt 0.468750 0.500000
vt 0.468750 1.000000
vt 0.437500 0.500000
vt 0.437500 1.000000
vt 0.406250 0.500000
vt 0.406250 1.000000
vt 0.343750 0.500000
vt 0.343750 1.000000
vt 0.312500 0.500000
vt 0.312500 1.000000
vt 0.281250 0.500000
vt 0.281250 1.000000
vt 0.250000 0.500000
vt 0.250000 1.000000
vt 0.218750 0.500000
vt 0.218750 1.000000
vt 0.187500 0.500000
vt 0.187500 1.000000
vt 0.156250 0.500000
vt 0.156250 1.000000
vt 0.125000 0.500000
vt 0.125000 1.000000
vt 0.093750 0.500000
vt 0.093750 1.000000
vt 0.062500 0.500000
vt 0.906250 1.000000
vt 0.062500 1.000000
vt 0.031250 0.500000
vt 0.031250 1.000000
vt 0.000000 0.500000
vt 0.796822 0.014612
vt 0.514612 0.203178
vt 0.703178 0.485388
vt 3.751771 0.438006
vt 4.062551 2.895793
vt 3.751771 2.895793
vt 0.455083 2.895793
vt 0.144302 0.438006
vt 0.455083 0.438006
vt 2.414212 2.895793
vt 2.103430 0.438006
vt 2.414212 0.438006
vt 5.057849 0.438006
vt 5.368629 2.895793
vt 5.057849 2.895793
vt 0.315181 0.167865
vt 0.483766 0.167865
vt 3.537431 0.167865
vt 3.723090 0.167865
vt 2.756472 2.895793
vt 2.756472 0.438006
vt 0.797344 2.895793
vt 0.797345 0.438006
vt 3.409512 0.438006
vt 3.409512 2.895793
vt 4.715590 0.438006
vt 4.715590 2.895793
vt 1.050483 6.503325
vt 1.164250 6.164004
vt 1.503572 6.277770
vt 1.956664 6.277769
vt 2.295985 6.164004
vt 2.409753 6.503325
vt 3.537431 3.165934
vt 0.315181 3.165934
vt 0.144302 2.895793
vt 2.628551 3.165934
vt 2.442892 3.165934
vt 2.628551 0.167865
vt 4.843511 3.165934
vt 2.274307 0.167865
vt 2.442891 0.167865
vt 2.274307 3.165934
vt 2.103430 2.895793
vt 3.891674 3.165934
vt 3.723090 3.165934
vt 0.669426 0.167865
vt 4.843511 0.167865
vt 5.029169 0.167865
vt 3.891673 0.167865
vt 4.062551 0.438006
vt 0.669426 3.165934
vt 0.483766 3.165934
vt 5.197753 3.165934
vt 5.029169 3.165934
vt 5.197753 0.167865
vt 5.368629 0.438006
vt 3.098731 0.438006
vt 3.409512 2.895793
vt 3.098732 2.895793
vt 1.108126 2.895793
vt 1.108126 0.438006
vt 1.761170 2.895793
vt 1.450388 0.438006
vt 1.761170 0.438006
vt 4.404810 0.438006
vt 4.404810 2.895793
vt 0.968223 0.167865
vt 1.136808 0.167865
vt 2.884391 0.167865
vt 3.070050 0.167865
vt 2.103430 0.438006
vt 1.450387 2.895793
vt 1.450387 0.438006
vt 2.756472 0.438006
vt 2.756473 2.895793
vt 4.062551 0.438006
vt 2.862842 6.503325
vt 2.523520 6.617091
vt 2.409753 6.277771
vt 0.597392 6.277772
vt 0.483624 6.617092
vt 0.144302 6.503325
vt 2.884391 3.165934
vt 0.968223 3.165934
vt 0.797345 2.895793
vt 1.975509 3.165934
vt 1.789849 3.165934
vt 1.975509 0.167865
vt 4.190471 3.165934
vt 1.621265 0.167865
vt 1.789849 0.167865
vt 1.621264 3.165934
vt 1.450387 2.895793
vt 3.238634 3.165934
vt 3.070051 3.165934
vt 1.322468 0.167865
vt 4.190471 0.167865
vt 4.376129 0.167865
vt 3.238634 0.167865
vt 3.409512 0.438006
vt 1.322468 3.165934
vt 1.136808 3.165934
vt 4.544714 3.165934
vt 4.376129 3.165934
vt 4.544714 0.167865
vt 4.715590 0.438006
vt 6.864790 0.438006
vt 7.212143 2.895793
vt 6.864790 2.895793
vt 5.722016 5.893863
vt 5.374661 3.436075
vt 5.722015 3.436075
vt 6.334512 2.895793
vt 5.987156 0.438006
vt 6.334512 0.438006
vt 7.559496 2.895793
vt 7.212143 0.438006
vt 7.559497 0.438006
vt 5.458686 3.165935
vt 5.647109 3.165935
vt 6.795870 0.167866
vt 6.939695 0.167866
vt 6.599650 2.895793
vt 6.599651 0.438006
vt 5.987156 5.893863
vt 5.987156 3.436075
vt 6.599651 2.895793
vt 7.824635 2.895793
vt 7.824635 0.438006
vt 4.561434 6.617092
vt 4.222112 6.503325
vt 4.335877 6.164003
vt 5.608598 6.277771
vt 5.494830 6.617092
vt 5.155508 6.503325
vt 6.795871 3.165934
vt 5.458687 6.164003
vt 5.374662 5.893863
vt 6.403430 3.165934
vt 6.259604 3.165934
vt 6.403430 0.167865
vt 7.628415 0.167865
vt 6.071179 0.167866
vt 6.259604 0.167865
vt 6.071179 3.165934
vt 5.987155 2.895793
vt 7.128118 3.165934
vt 6.939695 3.165934
vt 5.790936 3.165935
vt 7.628414 3.165934
vt 7.484589 3.165934
vt 7.128119 0.167866
vt 5.790936 6.164003
vt 5.647110 6.164003
vt 7.296166 0.167865
vt 7.484590 0.167865
vt 7.296165 3.165934
vt 6.864789 3.436074
vt 7.212143 5.893862
vt 6.864790 5.893862
vt 6.334510 5.893862
vt 5.987155 3.436074
vt 6.334510 3.436074
vt 4.890368 5.893862
vt 4.543013 3.436074
vt 4.890368 3.436074
vt 7.559497 5.893862
vt 7.212143 3.436074
vt 7.559497 3.436074
vt 6.071181 3.165934
vt 6.259604 3.165934
vt 6.795870 3.165934
vt 5.155508 5.893862
vt 5.155508 3.436074
vt 6.599650 3.436074
vt 6.599651 5.893862
vt 7.824636 5.893862
vt 7.824636 3.436074
vt 0.936713 6.617093
vt 0.597392 6.503325
vt 0.711160 6.164003
vt 2.976611 6.164003
vt 3.315932 6.277771
vt 3.202165 6.617092
vt 6.795870 6.164002
vt 6.071181 6.164002
vt 5.987155 5.893862
vt 4.959286 6.164002
vt 4.815461 6.164002
vt 4.959286 3.165934
vt 7.628415 3.165934
vt 4.627037 3.165934
vt 4.815461 3.165934
vt 4.627037 6.164002
vt 4.543013 5.893862
vt 7.128118 6.164002
vt 6.939695 6.164002
vt 7.628414 6.164002
vt 7.484590 6.164002
vt 6.403431 6.164002
vt 6.259604 6.164002
vt 7.296166 3.165934
vt 7.484590 3.165934
vt 7.296166 6.164002
vt 0.762827 5.893863
vt 0.471975 3.436075
vt 0.762827 3.436075
vt 2.068913 3.436075
vt 2.359766 5.893862
vt 2.068913 5.893862
vt 3.924489 3.436074
vt 4.215343 5.893861
vt 3.924489 5.893861
vt 5.368630 0.438006
vt 5.659484 2.895793
vt 5.368630 2.895793
vt 2.385109 6.164003
vt 2.227335 6.164003
vt 5.684827 0.167866
vt 5.862574 0.167865
vt 2.687438 3.436075
vt 2.687438 5.893862
vt 0.471975 5.893863
vt 0.144302 3.436075
vt 5.659484 0.438006
vt 5.987156 2.895793
vt 4.215343 3.436074
vt 4.543014 5.893861
vt 3.429699 6.617092
vt 3.315932 6.277770
vt 3.655254 6.164003
vt 3.882790 6.164003
vt 4.222112 6.277770
vt 4.108346 6.617091
vt 5.684827 3.165934
vt 2.385110 3.165934
vt 2.359766 3.436075
vt 2.562856 3.165934
vt 4.240686 6.164001
vt 4.082912 6.164001
vt 4.240687 3.165933
vt 0.446632 3.165934
vt 0.604407 3.165934
vt 4.543014 3.436074
vt 4.418432 3.165933
vt 0.446632 6.164003
vt 0.144302 5.893863
vt 0.268886 6.164003
vt 5.527053 3.165934
vt 0.762828 3.436075
vt 1.053679 5.893862
vt 0.762828 5.893862
vt 1.450388 3.436075
vt 1.741241 5.893862
vt 1.450388 5.893862
vt 3.305964 3.436074
vt 3.596818 5.893862
vt 3.305964 5.893862
vt 2.978292 3.436074
vt 2.978292 5.893862
vt 1.766584 6.164003
vt 1.608810 6.164003
vt 3.003634 3.165934
vt 3.181381 3.165934
vt 1.741241 3.436075
vt 2.068913 5.893862
vt 1.053680 3.436075
vt 1.381353 5.893862
vt 3.305964 5.893862
vt 3.596818 3.436074
vt 3.924489 5.893862
vt 1.617340 6.617093
vt 1.503572 6.277772
vt 1.842893 6.164003
vt 4.675201 6.503322
vt 4.788971 6.164001
vt 5.128292 6.277769
vt 3.003634 6.164002
vt 1.766585 3.165934
vt 2.068913 3.436075
vt 1.944331 3.165934
vt 3.622162 6.164002
vt 3.464388 6.164002
vt 3.622162 3.165934
vt 1.079022 6.164002
vt 0.921249 6.164002
vt 3.924489 3.436075
vt 3.799908 3.165934
vt 1.079023 3.165934
vt 1.381353 3.436075
vt 1.256770 3.165934
vt 2.845860 6.164002
vt 2.687438 3.436074
vt 0.568455 0.735183
vt 0.431545 0.735183
vt 0.431545 0.014817
vt 0.431545 0.124999
vt 0.431545 0.625000
vt 0.431545 0.235183
vt 0.568455 0.235183
vt 0.568455 0.014817
vt 0.568455 0.514817
vt 0.431545 0.514817
vt 0.568455 0.124999
vt 0.568455 0.625001
vt 2.743569 1.971240
vt 1.390531 1.008464
vt 2.743638 1.008470
vt 0.037563 0.045694
vt 1.390612 1.008464
vt 0.037494 1.008464
vt 1.390613 1.971342
vt 0.037564 1.008573
vt 1.390530 0.045586
vt 2.743569 1.008363
vt 0.161278 0.713722
vt 0.250000 0.730084
vt 0.656250 1.000000
vt 0.000000 1.000000
vt 0.158156 0.028269
vt 0.471731 0.158156
vt 0.341844 0.471731
vt 0.144916 0.625000
vt 0.125000 0.750000
vt 0.250000 0.519916
vt 0.355084 0.625000
vt 0.338722 0.536278
vt 0.161278 0.536278
vt 0.338722 0.713722
vt 0.536754 0.864708
vt 0.518843 0.080905
vt 0.535622 0.080829
vt 0.501164 0.865178
vt 0.480615 0.081458
vt 0.496250 0.080944
vt 0.466234 0.081201
vt 0.446508 0.865002
vt 0.438074 0.080385
vt 0.415328 0.080395
vt 0.413438 0.864214
vt 0.400245 0.080371
vt 0.400241 0.862199
vt 0.390422 0.865492
vt 0.387136 0.855670
vt 0.469262 0.865483
vt 0.516634 0.864662
vt 0.551019 0.864177
vt 0.554746 0.080371
vt 0.427800 0.864153
vt 0.603095 0.886204
vt 0.550454 0.140891
vt 0.614283 0.140710
vt 0.467721 0.886490
vt 0.405078 0.141247
vt 0.464540 0.140828
vt 0.350397 0.140930
vt 0.259849 0.886014
vt 0.291471 0.140697
vt 0.744379 0.140693
vt 0.693937 0.885784
vt 0.687032 0.140376
vt 0.568131 0.915915
vt 0.618170 0.911720
vt 0.634913 0.924233
vt 0.346381 0.886598
vt 0.526571 0.886083
vt 0.188668 0.885418
vt 0.220262 0.140376
vt 0.569152 0.885920
vt 0.499985 -0.112341
vt 0.581665 -0.112682
vt 0.398447 0.886459
vt 0.291678 -0.111633
vt 0.376561 -0.112300
vt 0.220903 -0.111957
vt 0.123039 0.886159
vt 0.136760 -0.112284
vt 0.742530 -0.112856
vt 0.695590 0.885298
vt 0.669342 -0.113196
vt 0.801430 0.848001
vt 0.833891 0.845279
vt 0.844723 0.853399
vt 0.245918 0.886764
vt 0.475642 0.885840
vt 0.865384 -0.112692
vt 0.781302 0.885495
vt 0.875000 0.750000
vt 0.750000 0.490000
vt 0.796822 0.485388
vt 0.841844 0.471731
vt 0.883337 0.449553
vt 0.919706 0.419706
vt 0.949553 0.383337
vt 0.971731 0.341844
vt 0.985388 0.296822
vt 0.990000 0.250000
vt 0.985388 0.203178
vt 0.971731 0.158156
vt 0.949553 0.116663
vt 0.919706 0.080294
vt 0.883337 0.050447
vt 0.841844 0.028269
vt 0.750000 0.010000
vt 0.703178 0.014612
vt 0.658156 0.028269
vt 0.616663 0.050447
vt 0.580294 0.080294
vt 0.550447 0.116663
vt 0.528269 0.158156
vt 0.510000 0.250000
vt 0.514612 0.296822
vt 0.528269 0.341844
vt 0.550447 0.383337
vt 0.580294 0.419706
vt 0.616663 0.449553
vt 0.658156 0.471731
vt 1.503572 6.466503
vt 1.389806 6.617093
vt 1.201072 6.617093
vt 1.050483 6.314593
vt 1.352983 6.164003
vt 2.259163 6.617092
vt 2.070430 6.617093
vt 1.956663 6.466503
vt 2.107253 6.164003
vt 2.409753 6.314592
vt 2.560342 6.164003
vt 2.749076 6.164002
vt 2.862843 6.314592
vt 2.712253 6.617092
vt 2.409753 6.466503
vt 0.144302 6.314591
vt 0.258070 6.164002
vt 0.446803 6.164003
vt 0.597392 6.466504
vt 0.294890 6.617092
vt 4.524611 6.164003
vt 4.675201 6.277770
vt 4.675201 6.466503
vt 4.372701 6.617093
vt 4.222112 6.314592
vt 5.155508 6.314592
vt 5.269275 6.164003
vt 5.458008 6.164003
vt 5.608598 6.466503
vt 5.306097 6.617092
vt 6.599651 3.436074
vt 6.599650 5.893862
vt 0.899893 6.164003
vt 1.050483 6.277771
vt 1.050483 6.466504
vt 0.747981 6.617093
vt 0.597392 6.314591
vt 3.013432 6.617093
vt 2.862843 6.503325
vt 2.862843 6.314591
vt 3.165343 6.164003
vt 3.315932 6.466504
vt 3.769022 6.314592
vt 3.769022 6.503325
vt 3.618432 6.617092
vt 3.315932 6.466503
vt 3.466522 6.164002
vt 3.919612 6.617092
vt 3.769022 6.503325
vt 3.769022 6.314592
vt 4.071522 6.164002
vt 4.222112 6.466503
vt 5.862574 3.165934
vt 2.227335 3.165934
vt 2.562856 6.164003
vt 4.418432 6.164001
vt 4.082912 3.165933
vt 0.268886 3.165934
vt 0.604407 6.164003
vt 5.527053 0.167866
vt 1.956662 6.314591
vt 1.956662 6.503325
vt 1.806073 6.617093
vt 1.503572 6.466505
vt 1.654161 6.164003
vt 5.128292 6.466502
vt 5.014524 6.617091
vt 4.825790 6.617091
vt 4.675201 6.314590
vt 4.977703 6.164001
vt 3.181381 6.164002
vt 1.608810 3.165934
vt 1.944331 6.164003
vt 3.799908 6.164002
vt 3.464387 3.165934
vt 1.256770 6.164002
vt 0.921249 3.165934
vt 2.845860 3.165934
vt 0.037496 1.971342
vt 2.743638 0.045592
vt 0.296822 0.485388
vt 0.250000 0.490000
vt 0.203178 0.485388
vt 0.158156 0.471731
vt 0.116663 0.449553
vt 0.080294 0.419706
vt 0.050447 0.383337
vt 0.028269 0.341844
vt 0.014612 0.296822
vt 0.010000 0.250000
vt 0.014612 0.203178
vt 0.028269 0.158156
vt 0.050447 0.116663
vt 0.080294 0.080294
vt 0.116663 0.050447
vt 0.203178 0.014612
vt 0.250000 0.010000
vt 0.296822 0.014612
vt 0.341844 0.028269
vt 0.383337 0.050447
vt 0.419706 0.080294
vt 0.449553 0.116663
vt 0.485388 0.203178
vt 0.490000 0.250000
vt 0.485388 0.296822
vt 0.471731 0.341844
vt 0.449553 0.383337
vt 0.419706 0.419706
vt 0.383337 0.449553
vt 0.484325 0.865492
vt 0.391495 0.852377
vt 0.396956 0.852377
vt 0.400245 0.856736
vt 0.395882 0.865492
vt 0.387133 0.861133
vt 0.403669 0.886692
vt 0.748563 0.885876
vt 0.612700 0.928428
vt 0.584873 0.928428
vt 0.568114 0.922875
vt 0.590343 0.911720
vt 0.634930 0.917274
vt 0.319054 0.886804
vt 0.830309 0.856121
vt 0.812262 0.856122
vt 0.801404 0.852518
vt 0.815845 0.845279
vt 0.844748 0.848883
vt 0.865385 0.885866
s 0
usemtl metal_wear_light
f 98/86/45 107/87/45 97/88/45
f 100/89/46 106/90/46 99/91/46
f 104/92/47 111/93/47 103/94/47
f 102/95/48 110/96/48 101/97/48
f 99/91/49 117/98/49 118/99/49
f 98/86/50 127/100/50 128/101/50
f 105/102/51 103/94/51 106/103/51
f 108/104/52 99/91/52 107/105/52
f 109/106/53 97/88/53 110/107/53
f 112/108/54 101/97/54 111/109/54
f 121/110/44 125/111/44 113/112/44
f 115/113/55 127/114/55 123/115/55
f 97/88/56 125/116/56 110/107/56
f 100/89/57 119/117/57 105/118/57
f 104/92/58 119/119/58 120/120/58
f 103/94/59 117/121/59 106/103/59
f 101/97/60 121/122/60 111/109/60
f 103/94/61 121/123/61 122/124/61
f 104/92/62 123/125/62 112/126/62
f 97/88/63 113/127/63 114/128/63
f 99/91/64 113/129/64 107/105/64
f 102/95/65 123/130/65 124/131/65
f 98/86/66 115/132/66 108/133/66
f 100/89/67 115/134/67 116/135/67
f 101/97/68 125/136/68 126/137/68
f 102/95/69 127/138/69 109/139/69
f 130/140/45 139/141/45 129/142/45
f 132/143/46 138/105/46 131/144/46
f 136/145/47 143/146/47 135/147/47
f 134/148/48 142/109/48 133/149/48
f 131/144/49 149/150/49 150/151/49
f 130/140/70 159/152/70 160/153/70
f 137/126/51 135/147/51 138/154/51
f 140/155/52 131/144/52 139/156/52
f 141/157/53 129/142/53 142/158/53
f 144/159/54 133/149/54 143/87/54
f 153/160/44 157/161/44 145/162/44
f 147/163/55 159/164/55 155/165/55
f 129/142/56 157/166/56 142/158/56
f 132/143/57 151/167/57 137/168/57
f 136/145/58 151/169/58 152/170/58
f 135/147/59 149/171/59 138/154/59
f 133/149/60 153/172/60 143/87/60
f 135/147/61 153/173/61 154/174/61
f 136/145/62 155/175/62 144/176/62
f 129/142/63 145/177/63 146/178/63
f 131/144/64 145/179/64 139/156/64
f 134/148/65 155/180/65 156/181/65
f 130/140/66 147/182/66 140/183/66
f 132/143/67 147/184/67 148/185/67
f 133/149/68 157/186/68 158/187/68
f 134/148/69 159/188/69 141/189/69
f 162/190/71 171/191/71 161/192/71
f 164/193/72 170/194/72 163/195/72
f 168/196/73 175/197/73 167/198/73
f 166/199/74 174/200/74 165/201/74
f 163/195/75 181/202/75 182/203/75
f 162/190/76 191/204/76 192/205/76
f 169/206/77 167/198/77 170/207/77
f 172/208/78 163/195/78 171/209/78
f 174/210/79 162/190/79 161/192/79
f 176/211/80 165/201/80 175/212/80
f 185/213/44 189/214/44 177/215/44
f 179/216/55 191/217/55 187/218/55
f 161/192/81 189/219/81 174/210/81
f 164/193/82 183/220/82 169/221/82
f 168/196/83 183/222/83 184/223/83
f 167/198/84 181/224/84 170/207/84
f 165/201/85 185/225/85 175/212/85
f 167/198/86 185/226/86 186/227/86
f 168/196/87 187/228/87 176/229/87
f 161/192/88 177/230/88 178/231/88
f 163/195/89 177/232/89 171/209/89
f 166/199/90 187/233/90 188/234/90
f 162/190/91 179/235/91 172/200/91
f 164/193/92 179/236/92 180/237/92
f 165/201/93 189/238/93 190/239/93
f 166/199/94 191/240/94 173/191/94
f 194/241/71 203/242/71 193/243/71
f 196/244/72 202/245/72 195/246/72
f 200/247/73 207/248/73 199/249/73
f 198/250/74 206/251/74 197/252/74
f 195/246/75 213/253/75 214/254/75
f 194/241/76 223/255/76 224/231/76
f 201/256/77 199/249/77 202/257/77
f 203/258/78 196/244/78 195/246/78
f 206/259/79 194/241/79 193/243/79
f 208/260/80 197/252/80 207/261/80
f 217/262/44 221/263/44 209/264/44
f 211/265/55 223/266/55 219/267/55
f 193/243/81 221/268/81 206/259/81
f 196/244/82 215/269/82 201/270/82
f 200/247/83 215/271/83 216/272/83
f 199/249/84 213/273/84 202/257/84
f 197/252/85 217/274/85 207/261/85
f 199/249/86 217/275/86 218/276/86
f 200/247/87 219/277/87 208/278/87
f 193/243/88 209/279/88 210/280/88
f 195/246/89 209/222/89 203/258/89
f 198/250/90 219/281/90 220/282/90
f 194/241/91 211/230/91 204/251/91
f 196/244/92 211/283/92 212/284/92
f 197/252/93 221/285/93 222/286/93
f 198/250/94 223/287/94 205/242/94
f 226/288/95 235/289/95 225/290/95
f 228/291/96 234/292/96 227/293/96
f 232/294/97 239/295/97 231/296/97
f 230/297/98 238/298/98 229/299/98
f 227/293/99 245/300/99 246/301/99
f 226/197/100 255/302/100 256/303/100
f 234/292/101 232/304/101 231/305/101
f 236/306/102 227/307/102 235/289/102
f 237/308/103 225/309/103 238/298/103
f 240/310/104 229/311/104 239/295/104
f 249/312/44 253/313/44 241/314/44
f 243/315/55 255/316/55 251/317/55
f 225/309/105 253/318/105 238/298/105
f 228/291/106 247/319/106 233/320/106
f 232/304/107 247/319/107 248/321/107
f 231/305/108 245/300/108 234/292/108
f 229/311/109 249/322/109 239/295/109
f 231/296/110 249/322/110 250/323/110
f 232/294/111 251/324/111 240/310/111
f 225/290/112 241/325/112 242/326/112
f 227/307/113 241/325/113 235/289/113
f 230/327/114 251/324/114 252/328/114
f 226/288/115 243/329/115 236/306/115
f 228/330/116 243/329/116 244/331/116
f 229/299/117 253/318/117 254/332/117
f 230/297/118 255/302/118 237/308/118
f 258/333/95 267/334/95 257/335/95
f 260/336/96 266/337/96 259/338/96
f 264/339/97 271/340/97 263/341/97
f 261/305/98 269/342/98 270/343/98
f 259/338/99 277/344/99 278/345/99
f 258/339/100 287/346/100 288/347/100
f 265/348/101 263/349/101 266/337/101
f 268/350/102 259/351/102 267/334/102
f 270/343/103 258/339/103 257/352/103
f 272/353/119 261/354/119 271/340/119
f 281/355/44 285/356/44 273/357/44
f 275/358/55 287/359/55 283/360/55
f 257/352/105 285/361/105 270/343/105
f 260/336/106 279/362/106 265/348/106
f 264/363/107 279/362/107 280/364/107
f 263/349/108 277/344/108 266/337/108
f 261/354/109 281/365/109 271/340/109
f 263/341/110 281/365/110 282/366/110
f 264/339/111 283/367/111 272/353/111
f 257/335/112 273/368/112 274/369/112
f 259/351/113 273/368/113 267/334/113
f 262/370/114 283/367/114 284/371/114
f 258/333/115 275/372/115 268/350/115
f 260/373/116 275/372/116 276/374/116
f 261/305/117 285/361/117 286/375/117
f 262/376/118 287/346/118 269/342/118
f 98/86/45 108/133/45 107/87/45
f 100/89/46 105/118/46 106/90/46
f 104/92/47 112/126/47 111/93/47
f 102/95/48 109/139/48 110/96/48
f 99/91/49 106/90/49 117/98/49
f 98/86/50 109/106/50 127/100/50
f 105/102/51 104/92/51 103/94/51
f 108/104/52 100/89/52 99/91/52
f 109/106/53 98/86/53 97/88/53
f 112/108/54 102/95/54 101/97/54
f 113/112/44 118/501/44 117/502/44
f 117/502/44 122/503/44 121/110/44
f 121/110/44 126/504/44 125/111/44
f 125/111/44 114/505/44 113/112/44
f 113/112/44 117/502/44 121/110/44
f 123/115/55 120/506/55 119/507/55
f 119/507/55 116/508/55 115/113/55
f 115/113/55 128/509/55 127/114/55
f 127/114/55 124/510/55 123/115/55
f 123/115/55 119/507/55 115/113/55
f 97/88/56 114/128/56 125/116/56
f 100/89/57 116/135/57 119/117/57
f 104/92/58 105/102/58 119/119/58
f 103/94/59 122/124/59 117/121/59
f 101/97/60 126/137/60 121/122/60
f 103/94/61 111/93/61 121/123/61
f 104/92/62 120/120/62 123/125/62
f 97/88/63 107/87/63 113/127/63
f 99/91/64 118/99/64 113/129/64
f 102/95/65 112/108/65 123/130/65
f 98/86/66 128/101/66 115/132/66
f 100/89/67 108/104/67 115/134/67
f 101/97/68 110/96/68 125/136/68
f 102/95/69 124/131/69 127/138/69
f 130/140/45 140/183/45 139/141/45
f 132/143/46 137/168/46 138/105/46
f 136/145/47 144/176/47 143/146/47
f 134/148/48 141/189/48 142/109/48
f 131/144/49 138/105/49 149/150/49
f 130/140/50 141/157/50 159/152/50
f 137/126/51 136/145/51 135/147/51
f 140/155/52 132/143/52 131/144/52
f 141/157/53 130/140/53 129/142/53
f 144/159/54 134/148/54 133/149/54
f 145/162/44 150/511/44 149/512/44
f 149/512/44 154/513/44 153/160/44
f 153/160/44 158/514/44 157/161/44
f 157/161/44 146/515/44 145/162/44
f 145/162/44 149/512/44 153/160/44
f 155/165/55 152/516/55 151/517/55
f 151/517/55 148/518/55 147/163/55
f 147/163/55 160/519/55 159/164/55
f 159/164/55 156/520/55 155/165/55
f 155/165/55 151/517/55 147/163/55
f 129/142/56 146/178/56 157/166/56
f 132/143/57 148/185/57 151/167/57
f 136/145/58 137/126/58 151/169/58
f 135/147/59 154/174/59 149/171/59
f 133/149/60 158/187/60 153/172/60
f 135/147/61 143/146/61 153/173/61
f 136/145/62 152/170/62 155/175/62
f 129/142/63 139/141/63 145/177/63
f 131/144/64 150/151/64 145/179/64
f 134/148/65 144/159/65 155/180/65
f 130/140/66 160/153/66 147/182/66
f 132/143/67 140/155/67 147/184/67
f 133/149/68 142/109/68 157/186/68
f 134/148/69 156/181/69 159/188/69
f 162/190/273 172/200/273 171/191/273
f 164/193/72 169/221/72 170/194/72
f 168/196/73 176/229/73 175/197/73
f 166/199/74 173/191/74 174/200/74
f 163/195/75 170/194/75 181/202/75
f 162/190/76 173/207/76 191/204/76
f 169/206/77 168/196/77 167/198/77
f 172/208/78 164/193/78 163/195/78
f 174/210/79 173/207/79 162/190/79
f 176/211/80 166/199/80 165/201/80
f 177/215/44 182/521/44 181/522/44
f 181/522/44 186/523/44 185/213/44
f 185/213/44 190/524/44 189/214/44
f 189/214/44 178/525/44 177/215/44
f 177/215/44 181/522/44 185/213/44
f 187/218/55 184/526/55 183/527/55
f 183/527/55 180/528/55 179/216/55
f 179/216/55 192/529/55 191/217/55
f 191/217/55 188/530/55 187/218/55
f 187/218/55 183/527/55 179/216/55
f 161/192/81 178/231/81 189/219/81
f 164/193/82 180/237/82 183/220/82
f 168/196/83 169/206/83 183/222/83
f 167/198/84 186/227/84 181/224/84
f 165/201/85 190/239/85 185/225/85
f 167/198/86 175/197/86 185/226/86
f 168/196/87 184/223/87 187/228/87
f 161/192/88 171/191/88 177/230/88
f 163/195/89 182/203/89 177/232/89
f 166/199/90 176/211/90 187/233/90
f 162/190/91 192/205/91 179/235/91
f 164/193/92 172/208/92 179/236/92
f 165/201/93 174/200/93 189/238/93
f 166/199/94 188/234/94 191/240/94
f 194/241/71 204/251/71 203/242/71
f 196/244/72 201/270/72 202/245/72
f 200/247/73 208/278/73 207/248/73
f 198/250/74 205/242/74 206/251/74
f 195/246/75 202/245/75 213/253/75
f 194/241/76 205/531/76 223/255/76
f 201/256/77 200/247/77 199/249/77
f 203/258/78 204/532/78 196/244/78
f 206/259/79 205/531/79 194/241/79
f 208/260/80 198/250/80 197/252/80
f 209/264/44 214/533/44 213/534/44
f 213/534/44 218/535/44 217/262/44
f 217/262/44 222/536/44 221/263/44
f 221/263/44 210/537/44 209/264/44
f 209/264/44 213/534/44 217/262/44
f 219/267/55 216/538/55 215/539/55
f 215/539/55 212/540/55 211/265/55
f 211/265/55 224/541/55 223/266/55
f 223/266/55 220/542/55 219/267/55
f 219/267/55 215/539/55 211/265/55
f 193/243/81 210/280/81 221/268/81
f 196/244/82 212/284/82 215/269/82
f 200/247/83 201/256/83 215/271/83
f 199/249/84 218/276/84 213/273/84
f 197/252/85 222/286/85 217/274/85
f 199/249/86 207/248/86 217/275/86
f 200/247/87 216/272/87 219/277/87
f 193/243/88 203/242/88 209/279/88
f 195/246/89 214/254/89 209/222/89
f 198/250/90 208/260/90 219/281/90
f 194/241/91 224/231/91 211/230/91
f 196/244/92 204/532/92 211/283/92
f 197/252/93 206/251/93 221/285/93
f 198/250/94 220/282/94 223/287/94
f 226/288/95 236/306/95 235/289/95
f 228/291/96 233/320/96 234/292/96
f 232/294/97 240/310/97 239/295/97
f 230/297/98 237/308/98 238/298/98
f 227/293/99 234/292/99 245/300/99
f 226/197/100 237/308/100 255/302/100
f 234/292/101 233/320/101 232/304/101
f 236/306/102 228/330/102 227/307/102
f 237/308/103 226/197/103 225/309/103
f 240/310/119 230/327/119 229/311/119
f 241/314/44 246/543/44 245/544/44
f 245/544/44 250/545/44 249/312/44
f 249/312/44 254/546/44 253/313/44
f 253/313/44 242/547/44 241/314/44
f 241/314/44 245/544/44 249/312/44
f 251/317/55 248/548/55 247/549/55
f 247/549/55 244/550/55 243/315/55
f 243/315/55 256/551/55 255/316/55
f 255/316/55 252/552/55 251/317/55
f 251/317/55 247/549/55 243/315/55
f 225/309/105 242/553/105 253/318/105
f 228/291/106 244/554/106 247/319/106
f 232/304/107 233/320/107 247/319/107
f 231/305/108 250/555/108 245/300/108
f 229/311/109 254/556/109 249/322/109
f 231/296/110 239/295/110 249/322/110
f 232/294/111 248/557/111 251/324/111
f 225/290/112 235/289/112 241/325/112
f 227/307/113 246/558/113 241/325/113
f 230/327/114 240/310/114 251/324/114
f 226/288/115 256/559/115 243/329/115
f 228/330/116 236/306/116 243/329/116
f 229/299/117 238/298/117 253/318/117
f 230/297/118 252/560/118 255/302/118
f 258/333/95 268/350/95 267/334/95
f 260/336/96 265/348/96 266/337/96
f 264/339/97 272/353/97 271/340/97
f 261/305/98 262/376/98 269/342/98
f 259/338/99 266/337/99 277/344/99
f 258/339/100 269/342/100 287/346/100
f 265/348/101 264/363/101 263/349/101
f 268/350/102 260/373/102 259/351/102
f 270/343/103 269/342/103 258/339/103
f 272/353/119 262/370/119 261/354/119
f 273/357/44 278/561/44 277/562/44
f 277/562/44 282/563/44 281/355/44
f 281/355/44 286/564/44 285/356/44
f 285/356/44 274/565/44 273/357/44
f 273/357/44 277/562/44 281/355/44
f 283/360/55 280/566/55 279/567/55
f 279/567/55 276/568/55 275/358/55
f 275/358/55 288/569/55 287/359/55
f 287/359/55 284/570/55 283/360/55
f 283/360/55 279/567/55 275/358/55
f 257/352/105 274/571/105 285/361/105
f 260/336/106 276/572/106 279/362/106
f 264/363/107 265/348/107 279/362/107
f 263/349/108 282/573/108 277/344/108
f 261/354/109 286/574/109 281/365/109
f 263/341/110 271/340/110 281/365/110
f 264/339/111 280/575/111 283/367/111
f 257/335/112 267/334/112 273/368/112
f 259/351/113 278/576/113 273/368/113
f 262/370/114 272/353/114 283/367/114
f 258/333/115 288/577/115 275/372/115
f 260/373/116 268/350/116 275/372/116
f 261/305/117 270/343/117 285/361/117
f 262/376/118 284/578/118 287/346/118
usemtl antenna
f 522/413/239 531/414/239 521/415/239
f 524/416/240 530/417/240 523/418/240
f 527/419/241 536/420/241 535/421/241
f 525/422/242 533/423/242 534/424/242
f 532/425/243 533/426/243 536/427/243
f 530/417/244 528/428/244 527/419/244
f 532/429/245 523/418/245 531/414/245
f 533/430/246 521/415/246 534/431/246
f 535/421/247 526/432/247 525/422/247
f 538/433/239 547/434/239 537/435/239
f 540/436/240 546/437/240 539/438/240
f 543/439/241 552/440/241 551/441/241
f 541/442/248 549/443/248 550/444/248
f 548/445/249 549/446/249 552/447/249
f 546/437/244 544/448/244 543/439/244
f 548/449/245 539/438/245 547/434/245
f 549/443/250 537/435/250 550/444/250
f 551/441/247 542/450/247 541/451/247
f 554/452/239 563/453/239 553/454/239
f 556/455/240 562/456/240 555/457/240
f 559/458/251 568/459/251 567/460/251
f 557/461/248 565/462/248 566/463/248
f 564/464/252 565/465/252 568/466/252
f 562/456/244 560/467/244 559/458/244
f 564/468/245 555/457/245 563/453/245
f 565/462/246 553/454/246 566/463/246
f 567/469/247 558/470/247 557/461/247
f 522/413/284 532/429/284 531/414/284
f 524/416/285 529/610/285 530/417/285
f 527/419/251 528/428/251 536/420/251
f 525/422/242 526/432/242 533/423/242
f 536/427/286 528/611/286 529/612/286
f 529/612/243 524/613/243 532/425/243
f 532/425/287 522/614/287 533/426/287
f 533/426/288 526/615/288 536/427/288
f 536/427/286 529/612/286 532/425/286
f 530/417/244 529/610/244 528/428/244
f 532/429/245 524/416/245 523/418/245
f 533/430/246 522/413/246 521/415/246
f 535/421/247 536/420/247 526/432/247
f 538/433/239 548/449/239 547/434/239
f 540/436/289 545/616/289 546/437/289
f 543/439/241 544/448/241 552/440/241
f 541/442/290 542/617/290 549/443/290
f 552/447/291 544/618/291 545/619/291
f 545/619/292 540/620/292 548/445/292
f 548/445/287 538/621/287 549/446/287
f 549/446/292 542/622/292 552/447/292
f 552/447/291 545/619/291 548/445/291
f 546/437/293 545/616/293 544/448/293
f 548/449/245 540/436/245 539/438/245
f 549/443/250 538/433/250 537/435/250
f 551/441/294 552/440/294 542/450/294
f 554/452/239 564/468/239 563/453/239
f 556/455/240 561/623/240 562/456/240
f 559/458/251 560/467/251 568/459/251
f 557/461/290 558/470/290 565/462/290
f 568/466/295 560/624/295 561/625/295
f 561/625/296 556/626/296 564/464/296
f 564/464/297 554/627/297 565/465/297
f 565/465/252 558/628/252 568/466/252
f 568/466/298 561/625/298 564/464/298
f 562/456/299 561/623/299 560/467/299
f 564/468/245 556/455/245 555/457/245
f 565/462/246 554/452/246 553/454/246
f 567/469/247 568/629/247 558/470/247
usemtl hole_gribblies
f 322/389/45 317/390/45 321/391/45
f 325/392/47 320/393/47 326/394/47
f 318/395/52 324/396/52 317/390/52
f 319/397/54 328/398/54 320/393/54
f 322/389/45 318/395/45 317/390/45
f 325/392/47 319/397/47 320/393/47
f 318/395/52 323/579/52 324/396/52
f 319/397/54 327/580/54 328/398/54
usemtl no_texture
f 2/1/1 11/2/1 1/3/1
f 4/4/2 10/5/2 3/6/2
f 8/7/3 15/8/3 7/9/3
f 6/10/4 14/11/4 5/12/4
f 9/13/5 7/9/5 10/5/5
f 12/14/6 3/6/6 11/2/6
f 13/15/7 1/16/7 14/11/7
f 16/17/8 5/12/8 15/8/8
f 7/9/9 5/12/9 1/16/9
f 6/10/10 8/7/10 4/4/10
f 18/1/1 27/2/1 17/3/1
f 20/4/2 26/5/2 19/6/2
f 24/7/3 31/8/3 23/9/3
f 22/10/4 30/11/4 21/12/4
f 31/8/9 30/18/9 27/19/9
f 28/20/10 29/21/10 32/17/10
f 25/13/5 23/9/5 26/5/5
f 28/14/6 19/6/6 27/2/6
f 29/15/7 17/16/7 30/11/7
f 32/17/8 21/12/8 31/8/8
f 34/22/11 35/23/11 33/24/11
f 36/25/12 37/26/12 35/23/12
f 38/27/13 39/28/13 37/26/13
f 39/28/14 42/29/14 41/30/14
f 42/29/15 43/31/15 41/30/15
f 44/32/16 45/33/16 43/31/16
f 46/34/17 47/35/17 45/33/17
f 48/36/18 49/37/18 47/35/18
f 50/38/19 51/39/19 49/37/19
f 52/40/20 53/41/20 51/39/20
f 54/42/21 55/43/21 53/41/21
f 55/43/22 58/44/22 57/7/22
f 58/44/23 59/45/23 57/7/23
f 60/46/24 61/47/24 59/45/24
f 62/48/25 63/49/25 61/47/25
f 64/50/26 65/51/26 63/49/26
f 66/52/27 67/53/27 65/51/27
f 68/54/28 69/55/28 67/53/28
f 70/56/29 71/57/29 69/55/29
f 72/58/30 73/9/30 71/57/30
f 74/16/31 75/59/31 73/9/31
f 76/60/32 77/61/32 75/59/32
f 78/62/33 79/63/33 77/61/33
f 80/64/34 81/65/34 79/63/34
f 82/66/35 83/67/35 81/65/35
f 84/68/36 85/69/36 83/67/36
f 86/70/37 87/71/37 85/69/37
f 88/72/38 89/73/38 87/71/38
f 90/74/39 91/75/39 89/73/39
f 92/76/40 93/77/40 91/75/40
f 40/78/41 477/29/41 42/29/41
f 94/79/42 95/80/42 93/77/42
f 96/81/43 33/82/43 95/80/43
f 63/83/44 79/84/44 95/85/44
f 294/377/120 328/378/120 327/377/120
f 309/4/46 298/5/46 310/6/46
f 289/379/121 317/380/121 299/380/121
f 315/10/48 302/11/48 316/12/48
f 313/8/44 302/18/44 305/19/44
f 308/20/55 301/21/55 314/17/55
f 297/13/51 312/9/51 298/5/51
f 293/378/122 320/381/122 328/378/122
f 301/15/53 306/16/53 302/11/53
f 291/382/123 323/383/123 292/383/123
f 289/379/45 305/2/45 306/3/45
f 289/379/45 307/1/45 290/384/45
f 292/383/52 308/14/52 309/4/52
f 292/383/52 310/6/52 291/382/52
f 296/385/47 312/9/47 311/7/47
f 295/386/47 313/8/47 312/9/47
f 294/377/54 314/17/54 315/10/54
f 294/377/54 316/12/54 293/378/54
f 291/382/52 305/2/52 299/380/52
f 290/384/45 308/14/45 300/387/45
f 293/378/54 313/8/54 303/381/54
f 296/385/47 314/17/47 304/388/47
f 296/385/124 326/386/124 295/386/124
f 296/385/125 319/388/125 325/385/125
f 289/379/126 322/384/126 321/379/126
f 291/382/127 317/380/127 324/382/127
f 295/386/128 320/381/128 303/381/128
f 292/383/129 318/387/129 300/387/129
f 290/384/130 318/387/130 322/384/130
f 294/377/131 319/388/131 304/388/131
f 330/1/45 505/2/45 506/3/45
f 332/4/46 507/5/46 508/6/46
f 336/7/47 509/8/47 510/9/47
f 334/10/48 511/11/48 512/12/48
f 329/399/132 519/400/132 342/400/132
f 346/22/133 347/23/133 345/24/133
f 337/13/51 510/9/51 507/5/51
f 340/14/52 508/6/52 505/2/52
f 511/11/53 330/44/53 506/16/53
f 344/17/54 512/12/54 509/8/54
f 348/25/12 349/26/12 347/23/12
f 350/27/13 351/28/13 349/26/13
f 352/78/14 353/30/14 351/28/14
f 354/29/15 355/31/15 353/30/15
f 355/31/134 358/34/134 357/33/134
f 358/34/17 359/35/17 357/33/17
f 360/36/18 361/37/18 359/35/18
f 362/38/19 363/39/19 361/37/19
f 364/40/20 365/41/20 363/39/20
f 366/42/21 367/43/21 365/41/21
f 367/43/22 370/44/22 369/7/22
f 370/44/23 371/45/23 369/7/23
f 371/45/24 374/48/24 373/47/24
f 374/48/25 375/49/25 373/47/25
f 376/50/26 377/51/26 375/49/26
f 378/52/135 379/53/135 377/51/135
f 380/54/28 381/55/28 379/53/28
f 381/55/29 384/58/29 383/57/29
f 383/57/30 386/16/30 385/9/30
f 385/9/31 388/60/31 387/59/31
f 388/60/136 389/61/136 387/59/136
f 389/61/33 392/64/33 391/63/33
f 392/64/34 393/65/34 391/63/34
f 394/66/35 395/67/35 393/65/35
f 395/67/36 398/70/36 397/69/36
f 398/70/37 399/71/37 397/69/37
f 400/72/38 401/73/38 399/71/38
f 401/73/39 404/76/39 403/75/39
f 404/76/40 405/77/40 403/75/40
f 406/79/42 407/80/42 405/77/42
f 408/81/43 345/82/43 407/80/43
f 410/23/27 412/22/27 409/24/27
f 413/26/28 411/25/28 410/23/28
f 413/26/29 416/78/29 414/27/29
f 417/30/30 416/78/30 415/28/30
f 419/31/31 418/29/31 417/30/31
f 421/33/32 420/32/32 419/31/32
f 423/35/33 422/34/33 421/33/33
f 425/37/34 424/36/34 423/35/34
f 427/39/35 426/38/35 425/37/35
f 429/41/36 428/40/36 427/39/36
f 431/43/37 430/42/37 429/41/37
f 431/43/38 434/44/38 432/401/38
f 435/45/39 434/44/39 433/7/39
f 435/45/40 438/48/40 436/46/40
f 439/49/42 438/48/42 437/47/42
f 441/51/43 440/50/43 439/49/43
f 443/53/11 442/52/11 441/51/11
f 445/55/12 444/54/12 443/53/12
f 447/57/13 446/56/13 445/55/13
f 449/9/14 448/58/14 447/57/14
f 449/9/15 452/60/15 450/16/15
f 453/61/16 452/60/16 451/59/16
f 455/63/17 454/62/17 453/61/17
f 457/65/18 456/64/18 455/63/18
f 457/65/19 460/68/19 458/66/19
f 461/69/20 460/68/20 459/67/20
f 461/69/21 464/72/21 462/70/21
f 465/73/22 464/72/22 463/71/22
f 467/75/23 466/74/23 465/73/23
f 469/77/24 468/76/24 467/75/24
f 471/80/25 470/79/25 469/77/25
f 409/82/26 472/81/26 471/80/26
f 457/65/137 391/63/137 393/65/137
f 438/48/138 376/50/138 374/48/138
f 392/64/139 458/66/139 394/66/139
f 359/35/140 421/33/140 357/33/140
f 441/51/141 375/49/141 377/51/141
f 422/34/142 360/36/142 358/34/142
f 459/67/143 393/65/143 395/67/143
f 376/50/144 442/52/144 378/52/144
f 394/66/145 460/68/145 396/68/145
f 361/37/146 423/35/146 359/35/146
f 379/53/147 441/51/147 377/51/147
f 424/36/148 362/38/148 360/36/148
f 461/69/149 395/67/149 397/69/149
f 442/52/150 380/54/150 378/52/150
f 396/68/151 462/70/151 398/70/151
f 363/39/152 425/37/152 361/37/152
f 445/55/153 379/53/153 381/55/153
f 426/38/154 364/40/154 362/38/154
f 347/23/155 409/24/155 345/24/155
f 463/71/156 397/69/156 399/71/156
f 380/54/157 446/56/157 382/56/157
f 412/22/158 348/25/158 346/22/158
f 398/70/159 464/72/159 400/72/159
f 365/41/160 427/39/160 363/39/160
f 447/57/161 381/55/161 383/57/161
f 428/40/162 366/42/162 364/40/162
f 465/73/163 399/71/163 401/73/163
f 382/56/164 448/58/164 384/58/164
f 349/26/165 410/23/165 347/23/165
f 464/72/166 402/74/166 400/72/166
f 431/43/167 365/41/167 367/43/167
f 411/25/168 350/27/168 348/25/168
f 449/9/169 383/57/169 385/9/169
f 430/42/170 368/401/170 366/42/170
f 467/75/171 401/73/171 403/75/171
f 384/58/172 450/16/172 386/16/172
f 351/28/173 413/26/173 349/26/173
f 402/74/174 468/76/174 404/76/174
f 369/7/175 431/43/175 367/43/175
f 414/27/176 352/78/176 350/27/176
f 451/59/177 385/9/177 387/59/177
f 432/401/178 370/44/178 368/401/178
f 405/77/179 467/75/179 403/75/179
f 386/16/180 452/60/180 388/60/180
f 353/30/181 415/28/181 351/28/181
f 468/76/182 406/79/182 404/76/182
f 371/45/183 433/7/183 369/7/183
f 416/78/184 354/29/184 352/78/184
f 453/61/185 387/59/185 389/61/185
f 434/44/186 372/46/186 370/44/186
f 471/80/187 405/77/187 407/80/187
f 388/60/188 454/62/188 390/62/188
f 355/31/189 417/30/189 353/30/189
f 406/79/190 472/81/190 408/81/190
f 373/47/191 435/45/191 371/45/191
f 418/29/192 356/32/192 354/29/192
f 455/63/193 389/61/193 391/63/193
f 436/46/194 374/48/194 372/46/194
f 409/82/195 407/80/195 345/82/195
f 390/62/196 456/64/196 392/64/196
f 421/33/197 355/31/197 357/33/197
f 472/81/198 346/402/198 408/81/198
f 375/49/199 437/47/199 373/47/199
f 356/32/200 422/34/200 358/34/200
f 491/403/55 483/404/55 475/405/55
f 60/46/201 485/44/201 486/46/201
f 76/60/202 495/62/202 78/62/202
f 94/79/203 504/81/203 96/81/203
f 52/40/204 481/38/204 482/40/204
f 68/54/205 491/56/205 70/56/205
f 86/70/206 500/72/206 88/72/206
f 44/32/207 477/29/207 478/32/207
f 62/48/208 486/46/208 487/48/208
f 78/62/209 496/64/209 80/64/209
f 36/25/210 474/22/210 473/25/210
f 96/81/211 474/402/211 34/402/211
f 54/42/212 482/40/212 483/42/212
f 70/56/213 492/58/213 72/58/213
f 88/72/214 501/74/214 90/74/214
f 44/32/215 479/34/215 46/34/215
f 62/48/216 488/50/216 64/50/216
f 80/64/217 497/66/217 82/66/217
f 38/27/218 473/25/218 475/27/218
f 56/401/219 483/42/219 484/401/219
f 72/58/220 493/16/220 74/16/220
f 90/74/221 502/76/221 92/76/221
f 48/36/222 479/34/222 480/36/222
f 64/50/223 489/52/223 66/52/223
f 82/66/224 498/68/224 84/68/224
f 38/27/225 476/78/225 40/78/225
f 58/44/226 484/401/226 485/44/226
f 74/16/227 494/60/227 76/60/227
f 94/79/228 502/76/228 503/79/228
f 50/38/229 480/36/229 481/38/229
f 68/54/230 489/52/230 490/54/230
f 84/68/231 499/70/231 86/70/231
f 339/406/44 506/407/44 505/19/44
f 338/408/44 508/73/44 507/65/44
f 343/409/44 510/9/44 509/8/44
f 342/400/44 512/12/44 511/18/44
f 338/408/44 510/9/44 335/410/44
f 339/406/44 508/73/44 331/411/44
f 342/400/44 506/407/44 329/399/44
f 343/409/44 512/12/44 333/412/44
f 517/409/44 519/400/44 513/406/44
f 335/410/232 515/408/232 338/408/232
f 335/410/233 517/409/233 518/410/233
f 329/399/234 513/406/234 514/399/234
f 333/412/235 517/409/235 343/409/235
f 331/411/236 513/406/236 339/406/236
f 333/412/237 519/400/237 520/412/237
f 331/411/238 515/408/238 516/411/238
f 569/3/253 580/14/253 579/2/253
f 572/4/254 578/5/254 571/6/254
f 576/7/255 583/8/255 575/9/255
f 574/10/256 582/11/256 573/12/256
f 578/5/257 576/7/257 575/9/257
f 579/2/258 572/4/258 571/6/258
f 582/11/259 570/44/259 569/16/259
f 583/8/260 574/10/260 573/12/260
f 575/9/261 573/12/261 569/16/261
f 574/10/262 576/7/262 572/4/262
f 585/3/263 596/14/263 595/2/263
f 587/6/264 593/13/264 594/5/264
f 591/9/265 600/17/265 599/8/265
f 589/12/266 597/15/266 598/11/266
f 593/13/267 591/9/267 594/5/267
f 595/2/268 588/4/268 587/6/268
f 598/11/269 586/44/269 585/16/269
f 599/8/270 590/10/270 589/12/270
f 591/9/271 589/12/271 585/16/271
f 590/10/272 592/7/272 588/4/272
f 2/1/1 12/14/1 11/2/1
f 4/4/2 9/13/2 10/5/2
f 8/7/3 16/17/3 15/8/3
f 6/10/4 13/15/4 14/11/4
f 9/13/5 8/7/5 7/9/5
f 12/14/6 4/4/6 3/6/6
f 13/15/7 2/44/7 1/16/7
f 16/17/8 6/10/8 5/12/8
f 1/16/9 11/2/9 3/6/9
f 3/6/9 10/5/9 7/9/9
f 7/9/9 15/8/9 5/12/9
f 5/12/9 14/11/9 1/16/9
f 1/16/9 3/6/9 7/9/9
f 4/4/10 12/14/10 2/1/10
f 2/1/10 13/15/10 6/10/10
f 6/10/10 16/17/10 8/7/10
f 8/7/10 9/13/10 4/4/10
f 4/4/10 2/1/10 6/10/10
f 18/1/1 28/14/1 27/2/1
f 20/4/2 25/13/2 26/5/2
f 24/7/3 32/17/3 31/8/3
f 22/10/4 29/15/4 30/11/4
f 27/19/9 19/73/9 26/65/9
f 26/65/9 23/9/9 31/8/9
f 31/8/9 21/12/9 30/18/9
f 30/18/9 17/407/9 27/19/9
f 27/19/9 26/65/9 31/8/9
f 32/17/10 24/7/10 25/37/10
f 25/37/10 20/30/10 28/20/10
f 28/20/10 18/471/10 29/21/10
f 29/21/10 22/10/10 32/17/10
f 32/17/10 25/37/10 28/20/10
f 25/13/5 24/7/5 23/9/5
f 28/14/6 20/4/6 19/6/6
f 29/15/7 18/44/7 17/16/7
f 32/17/8 22/10/8 21/12/8
f 34/22/11 36/25/11 35/23/11
f 36/25/12 38/27/12 37/26/12
f 38/27/13 40/78/13 39/28/13
f 39/28/14 40/78/14 42/29/14
f 42/29/15 44/32/15 43/31/15
f 44/32/16 46/34/16 45/33/16
f 46/34/17 48/36/17 47/35/17
f 48/36/18 50/38/18 49/37/18
f 50/38/19 52/40/19 51/39/19
f 52/40/20 54/42/20 53/41/20
f 54/42/21 56/401/21 55/43/21
f 55/43/22 56/401/22 58/44/22
f 58/44/23 60/46/23 59/45/23
f 60/46/24 62/48/24 61/47/24
f 62/48/25 64/50/25 63/49/25
f 64/50/26 66/52/26 65/51/26
f 66/52/27 68/54/27 67/53/27
f 68/54/28 70/56/28 69/55/28
f 70/56/29 72/58/29 71/57/29
f 72/58/30 74/16/30 73/9/30
f 74/16/31 76/60/31 75/59/31
f 76/60/32 78/62/32 77/61/32
f 78/62/33 80/64/33 79/63/33
f 80/64/34 82/66/34 81/65/34
f 82/66/35 84/68/35 83/67/35
f 84/68/36 86/70/36 85/69/36
f 86/70/37 88/72/37 87/71/37
f 88/72/38 90/74/38 89/73/38
f 90/74/39 92/76/39 91/75/39
f 92/76/40 94/79/40 93/77/40
f 40/78/41 476/78/41 477/29/41
f 94/79/42 96/81/42 95/80/42
f 96/81/43 34/402/43 33/82/43
f 95/85/44 33/472/44 35/473/44
f 35/473/44 37/474/44 39/475/44
f 39/475/44 41/476/44 43/477/44
f 43/477/44 45/478/44 47/479/44
f 47/479/44 49/480/44 51/481/44
f 51/481/44 53/482/44 55/483/44
f 55/483/44 57/484/44 59/485/44
f 59/485/44 61/486/44 63/83/44
f 63/83/44 65/487/44 67/488/44
f 67/488/44 69/489/44 71/490/44
f 71/490/44 73/491/44 75/492/44
f 75/492/44 77/493/44 79/84/44
f 79/84/44 81/494/44 83/495/44
f 83/495/44 85/496/44 87/497/44
f 87/497/44 89/498/44 91/499/44
f 91/499/44 93/500/44 95/85/44
f 95/85/44 35/473/44 39/475/44
f 39/475/44 43/477/44 47/479/44
f 47/479/44 51/481/44 55/483/44
f 55/483/44 59/485/44 63/83/44
f 63/83/44 67/488/44 71/490/44
f 71/490/44 75/492/44 79/84/44
f 79/84/44 83/495/44 87/497/44
f 87/497/44 91/499/44 95/85/44
f 95/85/44 39/475/44 47/479/44
f 47/479/44 55/483/44 63/83/44
f 63/83/44 71/490/44 79/84/44
f 79/84/44 87/497/44 95/85/44
f 95/85/44 47/479/44 63/83/44
f 294/377/120 293/378/120 328/378/120
f 309/4/46 297/13/46 298/5/46
f 289/379/121 321/379/121 317/380/121
f 315/10/48 301/15/48 302/11/48
f 305/19/44 310/73/44 298/65/44
f 298/65/44 312/9/44 313/8/44
f 313/8/44 316/12/44 302/18/44
f 302/18/44 306/407/44 305/19/44
f 305/19/44 298/65/44 313/8/44
f 314/17/55 311/7/55 297/37/55
f 297/37/55 309/30/55 308/20/55
f 308/20/55 307/471/55 301/21/55
f 301/21/55 315/10/55 314/17/55
f 314/17/55 297/37/55 308/20/55
f 297/13/51 311/7/51 312/9/51
f 293/378/122 303/381/122 320/381/122
f 301/15/53 307/44/53 306/16/53
f 291/382/123 324/382/123 323/383/123
f 289/379/45 299/380/45 305/2/45
f 289/379/45 306/3/45 307/1/45
f 292/383/52 300/387/52 308/14/52
f 292/383/52 309/4/52 310/6/52
f 296/385/47 295/386/47 312/9/47
f 295/386/47 303/381/47 313/8/47
f 294/377/54 304/388/54 314/17/54
f 294/377/54 315/10/54 316/12/54
f 291/382/52 310/6/52 305/2/52
f 290/384/45 307/1/45 308/14/45
f 293/378/54 316/12/54 313/8/54
f 296/385/47 311/7/47 314/17/47
f 296/385/124 325/385/124 326/386/124
f 296/385/125 304/388/125 319/388/125
f 289/379/126 290/384/126 322/384/126
f 291/382/127 299/380/127 317/380/127
f 295/386/128 326/386/128 320/381/128
f 292/383/129 323/383/129 318/387/129
f 290/384/130 300/387/130 318/387/130
f 294/377/131 327/377/131 319/388/131
f 330/1/45 340/14/45 505/2/45
f 332/4/46 337/13/46 507/5/46
f 336/7/47 344/17/47 509/8/47
f 334/10/48 341/15/48 511/11/48
f 329/399/132 514/399/132 519/400/132
f 346/22/133 348/25/133 347/23/133
f 337/13/51 336/7/51 510/9/51
f 340/14/52 332/4/52 508/6/52
f 511/11/53 341/15/53 330/44/53
f 344/17/54 334/10/54 512/12/54
f 348/25/12 350/27/12 349/26/12
f 350/27/13 352/78/13 351/28/13
f 352/78/14 354/29/14 353/30/14
f 354/29/15 356/32/15 355/31/15
f 355/31/134 356/32/134 358/34/134
f 358/34/17 360/36/17 359/35/17
f 360/36/18 362/38/18 361/37/18
f 362/38/19 364/40/19 363/39/19
f 364/40/20 366/42/20 365/41/20
f 366/42/21 368/401/21 367/43/21
f 367/43/22 368/401/22 370/44/22
f 370/44/23 372/46/23 371/45/23
f 371/45/24 372/46/24 374/48/24
f 374/48/25 376/50/25 375/49/25
f 376/50/26 378/52/26 377/51/26
f 378/52/135 380/54/135 379/53/135
f 380/54/28 382/56/28 381/55/28
f 381/55/29 382/56/29 384/58/29
f 383/57/30 384/58/30 386/16/30
f 385/9/31 386/16/31 388/60/31
f 388/60/136 390/62/136 389/61/136
f 389/61/33 390/62/33 392/64/33
f 392/64/34 394/66/34 393/65/34
f 394/66/35 396/68/35 395/67/35
f 395/67/36 396/68/36 398/70/36
f 398/70/37 400/72/37 399/71/37
f 400/72/38 402/74/38 401/73/38
f 401/73/39 402/74/39 404/76/39
f 404/76/40 406/79/40 405/77/40
f 406/79/42 408/81/42 407/80/42
f 408/81/43 346/402/43 345/82/43
f 410/23/27 411/25/27 412/22/27
f 413/26/28 414/27/28 411/25/28
f 413/26/29 415/28/29 416/78/29
f 417/30/30 418/29/30 416/78/30
f 419/31/31 420/32/31 418/29/31
f 421/33/32 422/34/32 420/32/32
f 423/35/33 424/36/33 422/34/33
f 425/37/34 426/38/34 424/36/34
f 427/39/35 428/40/35 426/38/35
f 429/41/36 430/42/36 428/40/36
f 431/43/37 432/401/37 430/42/37
f 431/43/38 433/7/38 434/44/38
f 435/45/39 436/46/39 434/44/39
f 435/45/40 437/47/40 438/48/40
f 439/49/42 440/50/42 438/48/42
f 441/51/43 442/52/43 440/50/43
f 443/53/11 444/54/11 442/52/11
f 445/55/12 446/56/12 444/54/12
f 447/57/13 448/58/13 446/56/13
f 449/9/14 450/16/14 448/58/14
f 449/9/15 451/59/15 452/60/15
f 453/61/16 454/62/16 452/60/16
f 455/63/17 456/64/17 454/62/17
f 457/65/18 458/66/18 456/64/18
f 457/65/19 459/67/19 460/68/19
f 461/69/20 462/70/20 460/68/20
f 461/69/21 463/71/21 464/72/21
f 465/73/22 466/74/22 464/72/22
f 467/75/23 468/76/23 466/74/23
f 469/77/24 470/79/24 468/76/24
f 471/80/25 472/81/25 470/79/25
f 409/82/26 412/402/26 472/81/26
f 457/65/137 455/63/137 391/63/137
f 438/48/138 440/50/138 376/50/138
f 392/64/139 456/64/139 458/66/139
f 359/35/140 423/35/140 421/33/140
f 441/51/141 439/49/141 375/49/141
f 422/34/142 424/36/142 360/36/142
f 459/67/143 457/65/143 393/65/143
f 376/50/144 440/50/144 442/52/144
f 394/66/145 458/66/145 460/68/145
f 361/37/146 425/37/146 423/35/146
f 379/53/274 443/53/274 441/51/274
f 424/36/148 426/38/148 362/38/148
f 461/69/149 459/67/149 395/67/149
f 442/52/275 444/54/275 380/54/275
f 396/68/151 460/68/151 462/70/151
f 363/39/152 427/39/152 425/37/152
f 445/55/153 443/53/153 379/53/153
f 426/38/154 428/40/154 364/40/154
f 347/23/276 410/23/276 409/24/276
f 463/71/156 461/69/156 397/69/156
f 380/54/157 444/54/157 446/56/157
f 412/22/277 411/25/277 348/25/277
f 398/70/159 462/70/159 464/72/159
f 365/41/160 429/41/160 427/39/160
f 447/57/161 445/55/161 381/55/161
f 428/40/162 430/42/162 366/42/162
f 465/73/163 463/71/163 399/71/163
f 382/56/164 446/56/164 448/58/164
f 349/26/165 413/26/165 410/23/165
f 464/72/166 466/74/166 402/74/166
f 431/43/167 429/41/167 365/41/167
f 411/25/168 414/27/168 350/27/168
f 449/9/169 447/57/169 383/57/169
f 430/42/170 432/401/170 368/401/170
f 467/75/171 465/73/171 401/73/171
f 384/58/172 448/58/172 450/16/172
f 351/28/173 415/28/173 413/26/173
f 402/74/174 466/74/174 468/76/174
f 369/7/175 433/7/175 431/43/175
f 414/27/176 416/78/176 352/78/176
f 451/59/177 449/9/177 385/9/177
f 432/401/178 434/44/178 370/44/178
f 405/77/179 469/77/179 467/75/179
f 386/16/180 450/16/180 452/60/180
f 353/30/181 417/30/181 415/28/181
f 468/76/182 470/79/182 406/79/182
f 371/45/183 435/45/183 433/7/183
f 416/78/184 418/29/184 354/29/184
f 453/61/278 451/59/278 387/59/278
f 434/44/186 436/46/186 372/46/186
f 471/80/187 469/77/187 405/77/187
f 388/60/279 452/60/279 454/62/279
f 355/31/189 419/31/189 417/30/189
f 406/79/190 470/79/190 472/81/190
f 373/47/191 437/47/191 435/45/191
f 418/29/192 420/32/192 356/32/192
f 455/63/193 453/61/193 389/61/193
f 436/46/194 438/48/194 374/48/194
f 409/82/195 471/80/195 407/80/195
f 390/62/196 454/62/196 456/64/196
f 421/33/280 419/31/280 355/31/280
f 472/81/198 412/402/198 346/402/198
f 375/49/199 439/49/199 437/47/199
f 356/32/281 420/32/281 422/34/281
f 475/405/55 473/581/55 474/582/55
f 474/582/282 504/583/282 503/584/282
f 503/584/55 502/585/55 501/586/55
f 501/586/55 500/587/55 499/588/55
f 499/588/55 498/589/55 497/590/55
f 497/590/55 496/591/55 495/592/55
f 495/592/55 494/593/55 493/594/55
f 493/594/55 492/595/55 491/403/55
f 491/403/283 490/596/283 489/597/283
f 489/597/55 488/598/55 487/599/55
f 487/599/55 486/600/55 485/601/55
f 485/601/55 484/602/55 483/404/55
f 483/404/55 482/603/55 481/604/55
f 481/604/55 480/605/55 479/606/55
f 479/606/55 478/607/55 477/608/55
f 477/608/55 476/609/55 475/405/55
f 475/405/55 474/582/55 503/584/55
f 503/584/55 501/586/55 499/588/55
f 499/588/55 497/590/55 495/592/55
f 495/592/55 493/594/55 491/403/55
f 491/403/55 489/597/55 487/599/55
f 487/599/55 485/601/55 483/404/55
f 483/404/55 481/604/55 479/606/55
f 479/606/55 477/608/55 475/405/55
f 475/405/55 503/584/55 499/588/55
f 499/588/55 495/592/55 491/403/55
f 491/403/55 487/599/55 483/404/55
f 483/404/55 479/606/55 475/405/55
f 475/405/55 499/588/55 491/403/55
f 60/46/201 58/44/201 485/44/201
f 76/60/202 494/60/202 495/62/202
f 94/79/203 503/79/203 504/81/203
f 52/40/204 50/38/204 481/38/204
f 68/54/205 490/54/205 491/56/205
f 86/70/206 499/70/206 500/72/206
f 44/32/207 42/29/207 477/29/207
f 62/48/208 60/46/208 486/46/208
f 78/62/209 495/62/209 496/64/209
f 36/25/210 34/22/210 474/22/210
f 96/81/211 504/81/211 474/402/211
f 54/42/212 52/40/212 482/40/212
f 70/56/213 491/56/213 492/58/213
f 88/72/214 500/72/214 501/74/214
f 44/32/215 478/32/215 479/34/215
f 62/48/216 487/48/216 488/50/216
f 80/64/217 496/64/217 497/66/217
f 38/27/218 36/25/218 473/25/218
f 56/401/219 54/42/219 483/42/219
f 72/58/220 492/58/220 493/16/220
f 90/74/221 501/74/221 502/76/221
f 48/36/222 46/34/222 479/34/222
f 64/50/223 488/50/223 489/52/223
f 82/66/224 497/66/224 498/68/224
f 38/27/225 475/27/225 476/78/225
f 58/44/226 56/401/226 484/401/226
f 74/16/227 493/16/227 494/60/227
f 94/79/228 92/76/228 502/76/228
f 50/38/229 48/36/229 480/36/229
f 68/54/230 66/52/230 489/52/230
f 84/68/231 498/68/231 499/70/231
f 339/406/44 329/399/44 506/407/44
f 338/408/44 331/411/44 508/73/44
f 343/409/44 335/410/44 510/9/44
f 342/400/44 333/412/44 512/12/44
f 338/408/44 507/65/44 510/9/44
f 339/406/44 505/19/44 508/73/44
f 342/400/44 511/18/44 506/407/44
f 343/409/44 509/8/44 512/12/44
f 513/406/44 516/411/44 515/408/44
f 515/408/44 518/410/44 517/409/44
f 517/409/44 520/412/44 519/400/44
f 519/400/44 514/399/44 513/406/44
f 513/406/44 515/408/44 517/409/44
f 335/410/232 518/410/232 515/408/232
f 335/410/233 343/409/233 517/409/233
f 329/399/234 339/406/234 513/406/234
f 333/412/235 520/412/235 517/409/235
f 331/411/236 516/411/236 513/406/236
f 333/412/237 342/400/237 519/400/237
f 331/411/238 338/408/238 515/408/238
f 569/3/253 570/1/253 580/14/253
f 572/4/254 577/13/254 578/5/254
f 576/7/255 584/17/255 583/8/255
f 574/10/256 581/15/256 582/11/256
f 578/5/257 577/13/257 576/7/257
f 579/2/258 580/14/258 572/4/258
f 582/11/259 581/15/259 570/44/259
f 583/8/260 584/17/260 574/10/260
f 569/16/261 579/2/261 571/6/261
f 571/6/261 578/5/261 575/9/261
f 575/9/261 583/8/261 573/12/261
f 573/12/261 582/11/261 569/16/261
f 569/16/261 571/6/261 575/9/261
f 572/4/262 580/14/262 570/1/262
f 570/1/262 581/15/262 574/10/262
f 574/10/262 584/17/262 576/7/262
f 576/7/262 577/13/262 572/4/262
f 572/4/262 570/1/262 574/10/262
f 585/3/263 586/1/263 596/14/263
f 587/6/264 588/4/264 593/13/264
f 591/9/265 592/7/265 600/17/265
f 589/12/266 590/10/266 597/15/266
f 593/13/267 592/7/267 591/9/267
f 595/2/268 596/14/268 588/4/268
f 598/11/269 597/15/269 586/44/269
f 599/8/270 600/17/270 590/10/270
f 585/16/271 595/2/271 587/6/271
f 587/6/271 594/5/271 591/9/271
f 591/9/271 599/8/271 589/12/271
f 589/12/271 598/11/271 585/16/271
f 585/16/271 587/6/271 591/9/271
f 588/4/272 596/14/272 586/1/272
f 586/1/272 597/15/272 590/10/272
f 590/10/272 600/17/272 592/7/272
f 592/7/272 593/13/272 588/4/272
f 588/4/272 586/1/272 590/10/272
