# Blender 5.0.1
# www.blender.org
mtllib station_0.mtl
o station_0
v -2.391322 0.319771 0.319770
v 0.132004 0.319771 0.319770
v -2.391322 0.319771 -0.319772
v 0.132004 0.319771 -0.319772
v -2.391322 -0.319771 0.319770
v 0.132004 -0.319771 0.319770
v -2.391322 -0.319771 -0.319772
v 0.132004 -0.319771 -0.319772
v 0.132004 -0.000000 -0.478959
v -2.391322 0.000000 -0.478959
v -2.391322 0.478957 0.000000
v 0.132004 0.478957 -0.000000
v 0.132004 -0.000000 0.478955
v -2.391322 0.000000 0.478955
v -2.391322 -0.478957 -0.000000
v 0.132004 -0.478958 0.000000
v 1.067426 -0.110378 -0.110377
v 1.067426 -0.000000 -0.165325
v 1.067426 0.110378 -0.110377
v 1.067426 0.165325 0.000001
v -2.647113 -0.173679 0.173677
v -2.647113 0.000000 0.260136
v -2.647113 -0.173679 -0.173680
v -2.647113 -0.260138 -0.000001
v -2.647113 0.173679 -0.173680
v -2.647113 0.000000 -0.260140
v -2.647113 0.173679 0.173677
v -2.647113 0.260138 -0.000000
v 1.067426 -0.165325 0.000001
v 1.067426 -0.110378 0.110379
v 1.067426 -0.000000 0.165326
v 1.067426 0.110378 0.110379
v 1.825467 -0.000000 -0.152008
v 1.825467 -0.101488 -0.101486
v 1.825467 0.152009 0.000001
v 1.825467 0.101487 -0.101486
v 1.825467 -0.152009 0.000002
v 1.825467 -0.101488 0.101489
v 1.825467 -0.000000 0.152010
v 1.825467 0.101487 0.101489
v 2.013537 -0.000000 -0.183308
v 2.013537 -0.122385 -0.122383
v 2.013537 0.183309 0.000002
v 2.013537 0.122385 -0.122383
v 2.013537 -0.183309 0.000002
v 2.013537 -0.122385 0.122386
v 2.013537 -0.000000 0.183310
v 2.013537 0.122385 0.122386
v 1.779323 0.000000 -3.608575
v 1.113668 0.000000 -3.608575
v 1.779323 0.000000 3.608575
v 1.113668 0.000000 3.608575
v 1.113668 0.000000 3.608575
v 1.779323 0.000000 3.608575
v 1.113668 0.000000 -3.608575
v 1.779323 0.000000 -3.608575
vn -0.0000 0.8952 0.4456
vn -0.0000 0.4456 -0.8952
vn -0.0000 -0.8952 -0.4456
vn -0.0000 -0.4456 0.8952
vn -0.6080 0.7107 -0.3538
vn 0.2875 0.8574 -0.4268
vn -0.0000 -0.4456 -0.8952
vn -0.0000 0.8952 -0.4456
vn -0.0000 0.4456 0.8952
vn -0.0000 -0.8952 0.4456
vn -0.6080 0.3538 0.7107
vn -0.6080 -0.3538 0.7107
vn -0.6080 -0.7107 0.3538
vn -0.6080 -0.7107 -0.3538
vn -0.6080 0.7107 0.3538
vn -0.6080 -0.3538 -0.7107
vn -0.6080 0.3538 -0.7107
vn -1.0000 -0.0000 -0.0000
vn 0.0157 -0.8951 -0.4456
vn 0.2875 -0.8574 -0.4268
vn 0.2875 0.4268 0.8574
vn 0.2875 -0.4268 0.8574
vn 0.2875 0.8574 0.4268
vn 0.2875 -0.4268 -0.8574
vn 0.2875 0.4268 -0.8574
vn 0.2875 -0.8574 0.4268
vn -0.1474 -0.4408 0.8854
vn 0.0157 0.8951 -0.4456
vn 0.0157 0.8951 0.4456
vn 0.0157 0.4456 0.8951
vn 0.0157 -0.4456 0.8951
vn 0.0157 -0.4456 -0.8951
vn 0.0157 0.4456 -0.8951
vn 0.0157 -0.8951 0.4456
vn 1.0000 -0.0000 -0.0000
vn -0.1474 0.4408 -0.8854
vn -0.1474 -0.8854 0.4408
vn -0.1474 -0.4408 -0.8854
vn -0.1474 -0.8854 -0.4408
vn -0.1474 0.8854 0.4408
vn -0.1474 0.4408 0.8854
vn -0.1474 0.8854 -0.4408
vn -0.0000 1.0000 -0.0000
vn -0.0000 -1.0000 -0.0000
vt 0.625000 0.000000
vt 0.375000 0.124999
vt 0.375000 0.000000
vt 0.625000 0.250000
vt 0.375000 0.375000
vt 0.375000 0.250000
vt 0.625000 0.500000
vt 0.375000 0.625000
vt 0.375000 0.500000
vt 0.625000 0.750000
vt 0.375000 0.875000
vt 0.375000 0.750000
vt 0.625000 0.125000
vt 0.625000 0.375000
vt 0.625000 0.875000
vt 0.375000 1.000000
vt 0.625000 0.625001
vt 0.250000 0.750000
vt 0.125000 0.625001
vt 0.625000 1.000000
vt 0.875000 0.625000
vt 0.750000 0.750000
vt 4.473269 48.500000
vt -4.381037 -47.500000
vt -4.381032 48.500000
vt 0.125000 0.500000
vt 0.250000 0.500000
vt 0.125000 0.750000
vt 0.750000 0.500000
vt 0.875000 0.500000
vt 0.875000 0.750000
vt 4.473265 -47.500000
s 0
usemtl solar_panel
f 51/23/43 50/24/43 52/25/43
f 55/24/44 54/23/44 53/25/44
f 51/23/43 49/32/43 50/24/43
f 55/24/44 56/32/44 54/23/44
usemtl no_texture
f 2/1/1 11/2/1 1/3/1
f 4/4/2 10/5/2 3/6/2
f 8/7/3 15/8/3 7/9/3
f 6/10/4 14/11/4 5/12/4
f 3/6/5 28/2/5 11/2/5
f 4/4/6 20/13/6 19/4/6
f 9/14/7 7/9/7 10/5/7
f 12/13/8 3/6/8 11/2/8
f 13/15/9 1/16/9 14/11/9
f 16/17/10 5/12/10 15/8/10
f 1/16/11 22/11/11 14/11/11
f 5/12/12 22/11/12 21/12/12
f 5/12/13 24/8/13 15/8/13
f 7/9/14 24/8/14 23/9/14
f 1/3/15 28/2/15 27/3/15
f 7/9/16 26/5/16 10/5/16
f 3/6/17 26/5/17 25/6/17
f 24/8/18 22/18/18 28/19/18
f 17/7/19 37/17/19 29/17/19
f 8/7/20 29/17/20 16/17/20
f 2/20/21 31/15/21 32/20/21
f 6/10/22 31/15/22 13/15/22
f 2/1/23 20/13/23 12/13/23
f 8/7/24 18/14/24 17/7/24
f 4/4/25 18/14/25 9/14/25
f 6/10/26 29/17/26 30/10/26
f 39/15/27 46/10/27 47/15/27
f 19/4/28 35/13/28 36/4/28
f 32/1/29 35/13/29 20/13/29
f 32/20/30 39/15/30 40/20/30
f 30/10/31 39/15/31 31/15/31
f 17/7/32 33/14/32 34/7/32
f 19/4/33 33/14/33 18/14/33
f 30/10/34 37/17/34 38/10/34
f 43/21/35 47/22/35 45/17/35
f 33/14/36 44/4/36 41/14/36
f 37/17/37 46/10/37 38/10/37
f 33/14/38 42/7/38 34/7/38
f 37/17/39 42/7/39 45/17/39
f 35/13/40 48/1/40 43/13/40
f 39/15/41 48/20/41 40/20/41
f 35/13/42 44/4/42 36/4/42
f 2/1/1 12/13/1 11/2/1
f 4/4/2 9/14/2 10/5/2
f 8/7/3 16/17/3 15/8/3
f 6/10/4 13/15/4 14/11/4
f 3/6/5 25/6/5 28/2/5
f 4/4/6 12/13/6 20/13/6
f 9/14/7 8/7/7 7/9/7
f 12/13/8 4/4/8 3/6/8
f 13/15/9 2/20/9 1/16/9
f 16/17/10 6/10/10 5/12/10
f 1/16/11 27/16/11 22/11/11
f 5/12/12 14/11/12 22/11/12
f 5/12/13 21/12/13 24/8/13
f 7/9/14 15/8/14 24/8/14
f 1/3/15 11/2/15 28/2/15
f 7/9/16 23/9/16 26/5/16
f 3/6/17 10/5/17 26/5/17
f 28/19/18 25/26/18 26/27/18
f 26/27/18 23/9/18 24/8/18
f 24/8/18 21/12/18 22/18/18
f 22/18/18 27/28/18 28/19/18
f 28/19/18 26/27/18 24/8/18
f 17/7/19 34/7/19 37/17/19
f 8/7/20 17/7/20 29/17/20
f 2/20/21 13/15/21 31/15/21
f 6/10/22 30/10/22 31/15/22
f 2/1/23 32/1/23 20/13/23
f 8/7/24 9/14/24 18/14/24
f 4/4/25 19/4/25 18/14/25
f 6/10/26 16/17/26 29/17/26
f 39/15/27 38/10/27 46/10/27
f 19/4/28 20/13/28 35/13/28
f 32/1/29 40/1/29 35/13/29
f 32/20/30 31/15/30 39/15/30
f 30/10/31 38/10/31 39/15/31
f 17/7/32 18/14/32 33/14/32
f 19/4/33 36/4/33 33/14/33
f 30/10/34 29/17/34 37/17/34
f 45/17/35 42/7/35 41/29/35
f 41/29/35 44/30/35 43/21/35
f 43/21/35 48/31/35 47/22/35
f 47/22/35 46/10/35 45/17/35
f 45/17/35 41/29/35 43/21/35
f 33/14/36 36/4/36 44/4/36
f 37/17/37 45/17/37 46/10/37
f 33/14/38 41/14/38 42/7/38
f 37/17/39 34/7/39 42/7/39
f 35/13/40 40/1/40 48/1/40
f 39/15/41 47/15/41 48/20/41
f 35/13/42 43/13/42 44/4/42
