# Blender 5.1.1
# www.blender.org
mtllib alien_ship_rotate.mtl
o alien_ship_rotate
v 2.289233 8.543534 7.500002
v 0.393754 9.659258 10.810163
v 2.289233 8.543533 34.999996
v 0.393754 9.659257 31.689838
v 6.254303 6.254300 7.500002
v 7.071068 7.071069 8.615726
v 6.254302 6.254299 34.999996
v 7.071068 7.071068 33.884274
v 8.543556 2.289227 7.500002
v 9.659271 0.393748 10.810162
v 8.543556 2.289227 34.999996
v 9.659271 0.393748 31.689838
v 8.543535 -2.289233 7.500001
v 9.659268 -0.393754 10.810162
v 8.543535 -2.289233 34.999996
v 9.659268 -0.393754 31.689838
v 6.254323 -6.254307 7.500001
v 7.071092 -7.071074 8.615726
v 6.254323 -6.254307 34.999996
v 7.071092 -7.071074 33.884274
v 2.289235 -8.543533 7.500001
v 0.393754 -9.659258 10.810162
v 2.289235 -8.543534 34.999996
v 0.393754 -9.659259 31.689838
v -2.289233 -8.543533 7.500001
v -0.393754 -9.659257 10.810162
v -2.289233 -8.543534 34.999996
v -0.393754 -9.659258 31.689838
v -6.254302 -6.254299 7.500001
v -7.071068 -7.071068 8.615726
v -6.254303 -6.254300 34.999996
v -7.071068 -7.071069 33.884274
v -8.543556 -2.289227 7.500001
v -9.659271 -0.393748 10.810162
v -8.543556 -2.289227 34.999996
v -9.659271 -0.393748 31.689838
v -8.543535 2.289233 7.500001
v -9.659268 0.393754 10.810162
v -8.543535 2.289233 34.999996
v -9.659268 0.393754 31.689838
v -6.254323 6.254307 7.500002
v -7.071092 7.071074 8.615726
v -6.254323 6.254307 34.999996
v -7.071092 7.071074 33.884274
v -2.289235 8.543534 7.500002
v -0.393754 9.659259 10.810163
v -2.289235 8.543533 34.999996
v -0.393754 9.659258 31.689838
v 2.429714 9.067817 21.250000
v 6.638103 6.638103 21.250000
v -2.429714 9.067817 21.250000
v 9.067839 2.429708 21.250000
v 9.067817 -2.429714 21.250000
v 6.638124 -6.638108 21.250000
v 2.429714 -9.067817 21.250000
v -2.429714 -9.067817 21.250000
v -6.638103 -6.638103 21.250000
v -9.067839 -2.429708 21.250000
v -9.067817 2.429714 21.250000
v -6.638124 6.638108 21.250000
v 7.071068 7.071068 18.866802
v 9.659271 0.393748 16.672367
v 9.659268 -0.393754 16.672367
v 7.071092 -7.071074 18.866802
v 0.393754 -9.659258 16.672367
v -0.393754 -9.659258 16.672367
v -7.071068 -7.071068 18.866802
v -9.659271 -0.393748 16.672367
v -9.659268 0.393754 16.672367
v -7.071092 7.071074 18.866802
v 0.393754 9.659258 16.672367
v -0.393754 9.659258 16.672367
v 0.393754 9.659258 25.827633
v -0.393754 9.659258 25.827633
v 7.071068 7.071068 23.633198
v 9.659271 0.393748 25.827633
v 9.659268 -0.393754 25.827633
v 7.071092 -7.071074 23.633198
v 0.393754 -9.659258 25.827633
v -0.393754 -9.659258 25.827633
v -7.071068 -7.071068 23.633198
v -9.659271 -0.393748 25.827633
v -9.659268 0.393754 25.827633
v -7.071092 7.071074 23.633198
v 9.659282 2.588184 8.615726
v 9.659258 -2.588191 8.615726
v 9.659258 -2.588191 33.884274
v 9.659282 2.588184 33.884274
v 2.588190 -9.659258 8.615726
v -2.588190 -9.659257 8.615726
v -2.588191 -9.659258 33.884274
v 2.588190 -9.659259 33.884274
v -9.659282 -2.588184 8.615726
v -9.659258 2.588191 8.615726
v -9.659258 2.588191 33.884274
v -9.659282 -2.588184 33.884274
v -2.588190 9.659259 8.615726
v 2.588191 9.659258 8.615726
v 2.588190 9.659257 33.884274
v -2.588190 9.659258 33.884274
v 2.588191 9.659258 23.633198
v -2.588190 9.659258 23.633198
v 9.659282 2.588184 18.866802
v 9.659258 -2.588191 18.866802
v 2.588190 -9.659258 18.866802
v -2.588191 -9.659258 18.866802
v -9.659282 -2.588184 18.866802
v -9.659258 2.588191 18.866802
v 2.588191 9.659258 18.866802
v -2.588190 9.659258 18.866802
v 9.659282 2.588184 23.633198
v 9.659258 -2.588191 23.633198
v 2.588190 -9.659258 23.633198
v -2.588191 -9.659258 23.633198
v -9.659282 -2.588184 23.633198
v -9.659258 2.588191 23.633198
vn 0.3536 0.6124 -0.7071
vn 0.3536 0.6124 0.7071
vn 0.6124 0.3536 -0.7071
vn 0.6124 0.3536 0.7071
vn 0.7071 -0.0000 -0.7071
vn 0.7071 -0.0000 0.7071
vn 0.6124 -0.3536 -0.7071
vn 0.6124 -0.3535 0.7071
vn 0.3536 -0.6124 -0.7071
vn 0.3536 -0.6124 0.7071
vn -0.0000 -0.7071 -0.7071
vn -0.0000 -0.7071 0.7071
vn -0.3536 -0.6124 -0.7071
vn -0.3536 -0.6124 0.7071
vn -0.6124 -0.3536 -0.7071
vn -0.6124 -0.3536 0.7071
vn -0.7071 -0.0000 -0.7071
vn -0.7071 -0.0000 0.7071
vn -0.6124 0.3536 -0.7071
vn -0.6124 0.3535 0.7071
vn -0.3536 0.6124 -0.7071
vn -0.3536 0.6124 0.7071
vn -0.0000 0.7071 -0.7071
vn -0.0000 0.7071 0.7071
vn -0.0000 -0.0000 -1.0000
vn 0.5000 0.8660 -0.0000
vn -0.0000 1.0000 -0.0000
vn -0.0000 -0.0000 1.0000
vn 0.8660 0.5000 -0.0000
vn 1.0000 -0.0000 -0.0000
vn 0.8660 -0.5000 -0.0000
vn 0.5000 -0.8660 -0.0000
vn -0.0000 -1.0000 -0.0000
vn -0.5000 -0.8660 -0.0000
vn -0.8660 -0.5000 -0.0000
vn -1.0000 -0.0000 -0.0000
vn -0.8660 0.5000 -0.0000
vn -0.5000 0.8660 -0.0000
vn -0.4853 0.8405 0.2409
vn -0.8405 0.4853 0.2409
vn -0.9706 -0.0000 0.2409
vn -0.8405 -0.4853 0.2409
vn -0.4853 -0.8405 0.2409
vn -0.0000 -0.9706 0.2409
vn 0.4853 -0.8405 0.2409
vn 0.8405 -0.4853 0.2409
vn 0.9706 -0.0000 0.2409
vn 0.8405 0.4853 0.2409
vn -0.0000 0.9706 0.2409
vn 0.4853 0.8405 0.2409
vn -0.4853 0.8405 -0.2409
vn -0.8405 0.4853 -0.2409
vn -0.9706 -0.0000 -0.2409
vn -0.8405 -0.4853 -0.2409
vn -0.4853 -0.8405 -0.2409
vn -0.0000 -0.9706 -0.2409
vn 0.4853 -0.8405 -0.2409
vn 0.8405 -0.4853 -0.2409
vn 0.9706 -0.0000 -0.2409
vn 0.8405 0.4853 -0.2409
vn -0.0000 0.9706 -0.2409
vn 0.4853 0.8405 -0.2409
vn 0.6124 -0.3535 -0.7071
vn 0.6124 -0.3536 0.7071
vn -0.6124 0.3536 0.7071
vt 0.916667 0.520286
vt 0.995187 0.500000
vt 1.000000 0.520286
vt 0.916667 0.979714
vt 0.995187 1.000000
vt 0.916667 1.000000
vt 0.833333 0.500000
vt 0.916667 0.500000
vt 0.833333 1.000000
vt 0.833333 0.979714
vt 0.750000 0.520286
vt 0.833333 0.520286
vt 0.750000 0.979714
vt 0.750000 1.000000
vt 0.666667 0.500000
vt 0.750000 0.500000
vt 0.666667 1.000000
vt 0.666667 0.979714
vt 0.583333 0.520286
vt 0.666667 0.520286
vt 0.583333 0.979714
vt 0.583333 1.000000
vt 0.500000 0.500000
vt 0.583333 0.500000
vt 0.500000 1.000000
vt 0.500000 0.979714
vt 0.416667 0.520286
vt 0.500000 0.520286
vt 0.416667 0.979714
vt 0.416667 1.000000
vt 0.333333 0.500000
vt 0.416667 0.500000
vt 0.333333 1.000000
vt 0.333333 0.979714
vt 0.250000 0.520286
vt 0.333333 0.520286
vt 0.250000 0.979714
vt 0.250000 1.000000
vt 0.166667 0.500000
vt 0.250000 0.500000
vt 0.166667 1.000000
vt 0.166667 0.979714
vt 0.083333 0.520286
vt 0.166667 0.520286
vt 0.083333 0.979714
vt 0.083333 1.000000
vt 0.004813 0.500000
vt 0.083333 0.500000
vt 0.004813 1.000000
vt 0.000000 0.979714
vt 0.962278 0.250000
vt 0.643861 0.066162
vt 0.643861 0.433838
vt 1.000000 0.979714
vt 0.916667 0.864857
vt 1.000000 0.864857
vt -18.016384 11.006341
vt -18.650278 7.722218
vt -18.016384 7.722220
vt 0.066161 0.356139
vt 0.250000 0.037722
vt 0.433839 0.356139
vt 0.833333 0.864857
vt 19.483608 11.006341
vt 18.849722 7.722223
vt 19.483604 7.722215
vt 0.666667 0.864857
vt 0.750000 0.864857
vt 0.583333 0.864857
vt 6.983624 11.006344
vt 6.349722 7.722218
vt 6.983620 7.722220
vt 0.416667 0.864857
vt 0.500000 0.864857
vt 0.333333 0.864857
vt -5.516386 11.006338
vt -6.150275 7.722223
vt -5.516384 7.722215
vt 0.166667 0.864857
vt 0.250000 0.864857
vt 0.083333 0.864857
vt 0.166667 0.750000
vt 0.083333 0.635143
vt 0.166667 0.635143
vt 0.250000 0.635143
vt 0.333333 0.750000
vt 0.333333 0.635143
vt 0.416667 0.635143
vt 0.500000 0.750000
vt 0.500000 0.635143
vt 0.583333 0.750000
vt 0.583333 0.635143
vt 0.666667 0.750000
vt 0.666667 0.635143
vt 0.750000 0.635143
vt 0.833333 0.750000
vt 0.833333 0.635143
vt 0.916667 0.635143
vt 0.083333 0.750000
vt 0.000000 0.635143
vt 1.000000 0.750000
vt 1.000000 0.635143
vt -18.016384 -6.222218
vt -18.650278 -9.506341
vt -18.016384 -9.506341
vt 19.483610 -6.222218
vt 18.849722 -9.506338
vt 19.483610 -9.506338
vt 6.983620 -6.222218
vt 6.349725 -9.506338
vt 6.983620 -9.506338
vt -5.516386 -6.222218
vt -6.150275 -9.506338
vt -5.516383 -9.506338
vt 0.250000 0.750000
vt 0.416667 0.750000
vt 0.750000 0.750000
vt 0.916667 0.750000
vt 0.000000 0.750000
vt 0.785328 0.544873
vt 0.798006 0.544873
vt 0.798006 0.955127
vt 0.785328 0.955127
vt 0.535328 0.544873
vt 0.548006 0.544873
vt 0.548006 0.955127
vt 0.535328 0.955127
vt 0.285328 0.544873
vt 0.298006 0.544873
vt 0.298006 0.955127
vt 0.285328 0.955127
vt 0.035328 0.544873
vt 0.048006 0.544873
vt 0.048006 0.955127
vt 0.035328 0.955127
vt 0.000000 0.864857
vt 0.035328 0.889444
vt 0.048006 0.889444
vt 0.798006 0.610556
vt 0.785328 0.610556
vt 0.548006 0.610556
vt 0.535328 0.610556
vt 0.298006 0.610556
vt 0.285328 0.610556
vt 0.000000 0.520286
vt 0.048006 0.610556
vt 0.035328 0.610556
vt 0.798005 0.889444
vt 0.785328 0.889444
vt 0.548006 0.889444
vt 0.535328 0.889444
vt 0.298006 0.889444
vt 0.285328 0.889444
vt 0.750000 0.462278
vt 0.856139 0.433838
vt 0.933839 0.356139
vt 0.933839 0.143861
vt 0.856139 0.066162
vt 0.750000 0.037722
vt 0.566161 0.143861
vt 0.537722 0.250000
vt 0.566161 0.356139
vt -18.650278 11.006335
vt 0.356139 0.433838
vt 0.250000 0.462278
vt 0.143861 0.433838
vt 0.037722 0.250000
vt 0.066161 0.143861
vt 0.143861 0.066162
vt 0.356139 0.066162
vt 0.433839 0.143861
vt 0.462278 0.250000
vt 18.849722 11.006341
vt 6.349725 11.006344
vt -6.150277 11.006341
vt -18.650278 -6.222220
vt 18.849718 -6.222218
vt 6.349722 -6.222220
vt -6.150277 -6.222218
s 0
usemtl no_texture
f 6/1/1 1/2/1 98/3/1
f 8/4/2 3/5/2 7/6/2
f 6/1/3 9/7/3 5/8/3
f 8/4/4 11/9/4 88/10/4
f 86/11/5 9/7/5 85/12/5
f 87/13/6 11/9/6 15/14/6
f 86/11/7 17/15/7 13/16/7
f 87/13/8 19/17/8 20/18/8
f 89/19/9 17/15/9 18/20/9
f 92/21/10 19/17/10 23/22/10
f 89/19/11 25/23/11 21/24/11
f 92/21/12 27/25/12 91/26/12
f 30/27/13 25/23/13 90/28/13
f 32/29/14 27/25/14 31/30/14
f 30/27/15 33/31/15 29/32/15
f 32/29/16 35/33/16 96/34/16
f 94/35/17 33/31/17 93/36/17
f 95/37/18 35/33/18 39/38/18
f 94/35/19 41/39/19 37/40/19
f 95/37/20 43/41/20 44/42/20
f 97/43/21 41/39/21 42/44/21
f 100/45/22 43/41/22 47/46/22
f 97/43/23 1/47/23 45/48/23
f 100/45/24 3/49/24 99/50/24
f 13/51/25 29/52/25 45/53/25
f 99/54/26 75/55/26 101/56/26
f 43/60/28 27/61/28 11/62/28
f 8/4/29 111/63/29 75/55/29
f 87/13/31 78/67/31 112/68/31
f 78/67/32 92/21/32 113/69/32
f 91/26/34 81/73/34 114/74/34
f 81/73/35 96/34/35 115/75/35
f 95/37/37 84/79/37 116/80/37
f 44/42/38 102/81/38 84/79/38
f 60/82/39 110/83/39 70/84/39
f 108/85/40 60/82/40 70/84/40
f 58/86/41 108/85/41 107/87/41
f 67/88/42 58/86/42 107/87/42
f 56/89/43 67/88/43 106/90/43
f 55/91/44 106/90/44 105/92/44
f 54/93/45 105/92/45 64/94/45
f 104/95/46 54/93/46 64/94/46
f 52/96/47 104/95/47 103/97/47
f 61/98/48 52/96/48 103/97/48
f 51/99/49 109/100/49 110/83/49
f 49/101/50 61/98/50 109/102/50
f 109/102/26 6/1/26 98/3/26
f 6/1/29 103/97/29 85/12/29
f 104/95/31 18/20/31 86/11/31
f 64/94/32 89/19/32 18/20/32
f 90/28/34 67/88/34 30/27/34
f 67/88/35 93/36/35 30/27/35
f 108/85/37 42/44/37 94/35/37
f 70/84/38 97/43/38 42/44/38
f 60/82/51 102/81/51 51/99/51
f 116/80/52 60/82/52 59/115/52
f 58/86/53 116/80/53 59/115/53
f 81/73/54 58/86/54 57/116/54
f 114/74/55 57/116/55 56/89/55
f 113/69/56 56/89/56 55/91/56
f 54/93/57 113/69/57 55/91/57
f 112/68/58 54/93/58 53/117/58
f 52/96/59 112/68/59 53/117/59
f 75/55/60 52/96/60 50/118/60
f 102/81/61 49/119/61 51/99/61
f 101/56/62 50/118/62 49/101/62
f 14/120/30 85/12/30 10/121/30
f 12/122/30 87/13/30 16/123/30
f 26/124/33 89/19/33 22/125/33
f 24/126/33 91/26/33 28/127/33
f 38/128/36 93/36/36 34/129/36
f 36/130/36 95/37/36 40/131/36
f 2/132/27 97/43/27 46/133/27
f 48/134/27 99/50/27 4/135/27
f 4/135/27 101/136/27 73/137/27
f 74/138/27 100/45/27 48/134/27
f 10/121/30 103/97/30 62/139/30
f 63/140/30 86/11/30 14/120/30
f 22/125/33 105/92/33 65/141/33
f 66/142/33 90/28/33 26/124/33
f 34/129/36 107/87/36 68/143/36
f 69/144/36 94/35/36 38/128/36
f 2/132/27 109/100/27 98/145/27
f 46/133/27 110/83/27 72/146/27
f 72/146/27 109/100/27 71/147/27
f 62/139/30 104/95/30 63/140/30
f 65/141/33 106/90/33 66/142/33
f 68/143/36 108/85/36 69/144/36
f 76/148/30 88/10/30 12/122/30
f 16/123/30 112/68/30 77/149/30
f 79/150/33 92/21/33 24/126/33
f 28/127/33 114/74/33 80/151/33
f 82/152/36 96/34/36 36/130/36
f 40/131/36 116/80/36 83/153/36
f 83/153/36 115/75/36 82/152/36
f 80/151/33 113/69/33 79/150/33
f 77/149/30 111/63/30 76/148/30
f 73/137/27 102/81/27 74/138/27
f 6/1/1 5/8/1 1/2/1
f 8/4/2 99/54/2 3/5/2
f 6/1/3 85/12/3 9/7/3
f 8/4/4 7/6/4 11/9/4
f 86/11/5 13/16/5 9/7/5
f 87/13/6 88/10/6 11/9/6
f 86/11/63 18/20/63 17/15/63
f 87/13/64 15/14/64 19/17/64
f 89/19/9 21/24/9 17/15/9
f 92/21/10 20/18/10 19/17/10
f 89/19/11 90/28/11 25/23/11
f 92/21/12 23/22/12 27/25/12
f 30/27/13 29/32/13 25/23/13
f 32/29/14 91/26/14 27/25/14
f 30/27/15 93/36/15 33/31/15
f 32/29/16 31/30/16 35/33/16
f 94/35/17 37/40/17 33/31/17
f 95/37/18 96/34/18 35/33/18
f 94/35/19 42/44/19 41/39/19
f 95/37/65 39/38/65 43/41/65
f 97/43/21 45/48/21 41/39/21
f 100/45/22 44/42/22 43/41/22
f 97/43/23 98/145/23 1/47/23
f 100/45/24 47/46/24 3/49/24
f 45/53/25 1/154/25 5/155/25
f 5/155/25 9/156/25 13/51/25
f 13/51/25 17/157/25 21/158/25
f 21/158/25 25/159/25 29/52/25
f 29/52/25 33/160/25 37/161/25
f 37/161/25 41/162/25 45/53/25
f 45/53/25 5/155/25 13/51/25
f 13/51/25 21/158/25 29/52/25
f 29/52/25 37/161/25 45/53/25
f 99/54/26 8/4/26 75/55/26
f 11/62/28 7/164/28 3/165/28
f 3/165/28 47/166/28 43/60/28
f 43/60/28 39/167/28 35/168/28
f 35/168/28 31/169/28 27/61/28
f 27/61/28 23/170/28 19/171/28
f 19/171/28 15/172/28 11/62/28
f 11/62/28 3/165/28 43/60/28
f 43/60/28 35/168/28 27/61/28
f 27/61/28 19/171/28 11/62/28
f 8/4/29 88/10/29 111/63/29
f 87/13/31 20/18/31 78/67/31
f 78/67/32 20/18/32 92/21/32
f 91/26/34 32/29/34 81/73/34
f 81/73/35 32/29/35 96/34/35
f 95/37/37 44/42/37 84/79/37
f 44/42/38 100/45/38 102/81/38
f 60/82/39 51/99/39 110/83/39
f 108/85/40 59/115/40 60/82/40
f 58/86/41 59/115/41 108/85/41
f 67/88/42 57/116/42 58/86/42
f 56/89/43 57/116/43 67/88/43
f 55/91/44 56/89/44 106/90/44
f 54/93/45 55/91/45 105/92/45
f 104/95/46 53/117/46 54/93/46
f 52/96/47 53/117/47 104/95/47
f 61/98/48 50/118/48 52/96/48
f 51/99/49 49/119/49 109/100/49
f 49/101/50 50/118/50 61/98/50
f 109/102/26 61/98/26 6/1/26
f 6/1/29 61/98/29 103/97/29
f 104/95/31 64/94/31 18/20/31
f 64/94/32 105/92/32 89/19/32
f 90/28/34 106/90/34 67/88/34
f 67/88/35 107/87/35 93/36/35
f 108/85/37 70/84/37 42/44/37
f 70/84/38 110/83/38 97/43/38
f 60/82/51 84/79/51 102/81/51
f 116/80/52 84/79/52 60/82/52
f 58/86/53 115/75/53 116/80/53
f 81/73/54 115/75/54 58/86/54
f 114/74/55 81/73/55 57/116/55
f 113/69/56 114/74/56 56/89/56
f 54/93/57 78/67/57 113/69/57
f 112/68/58 78/67/58 54/93/58
f 52/96/59 111/63/59 112/68/59
f 75/55/60 111/63/60 52/96/60
f 102/81/61 101/136/61 49/119/61
f 101/56/62 75/55/62 50/118/62
f 14/120/30 86/11/30 85/12/30
f 12/122/30 88/10/30 87/13/30
f 26/124/33 90/28/33 89/19/33
f 24/126/33 92/21/33 91/26/33
f 38/128/36 94/35/36 93/36/36
f 36/130/36 96/34/36 95/37/36
f 2/132/27 98/145/27 97/43/27
f 48/134/27 100/45/27 99/50/27
f 4/135/27 99/50/27 101/136/27
f 74/138/27 102/81/27 100/45/27
f 10/121/30 85/12/30 103/97/30
f 63/140/30 104/95/30 86/11/30
f 22/125/33 89/19/33 105/92/33
f 66/142/33 106/90/33 90/28/33
f 34/129/36 93/36/36 107/87/36
f 69/144/36 108/85/36 94/35/36
f 2/132/27 71/147/27 109/100/27
f 46/133/27 97/43/27 110/83/27
f 72/146/27 110/83/27 109/100/27
f 62/139/30 103/97/30 104/95/30
f 65/141/33 105/92/33 106/90/33
f 68/143/36 107/87/36 108/85/36
f 76/148/30 111/63/30 88/10/30
f 16/123/30 87/13/30 112/68/30
f 79/150/33 113/69/33 92/21/33
f 28/127/33 91/26/33 114/74/33
f 82/152/36 115/75/36 96/34/36
f 40/131/36 95/37/36 116/80/36
f 83/153/36 116/80/36 115/75/36
f 80/151/33 114/74/33 113/69/33
f 77/149/30 112/68/30 111/63/30
f 73/137/27 101/136/27 102/81/27
usemtl hole_gribblies
f 48/57/27 73/58/27 74/59/27
f 12/64/30 77/65/30 76/66/30
f 24/70/33 80/71/33 79/72/33
f 36/76/36 83/77/36 82/78/36
f 72/103/27 2/104/27 46/105/27
f 62/106/30 14/107/30 10/108/30
f 65/109/33 26/110/33 22/111/33
f 68/112/36 38/113/36 34/114/36
f 48/57/27 4/163/27 73/58/27
f 12/64/30 16/173/30 77/65/30
f 24/70/33 28/174/33 80/71/33
f 36/76/36 40/175/36 83/77/36
f 72/103/27 71/176/27 2/104/27
f 62/106/30 63/177/30 14/107/30
f 65/109/33 66/178/33 26/110/33
f 68/112/36 69/179/36 38/113/36
