# Blender 5.1.1
# www.blender.org
mtllib basic_3_cone_0.mtl
o basic_3_cone_0
v -1.546579 -1.459263 4.000000
v -1.068435 -4.000000 0.333218
v -1.068435 4.000000 0.333218
v -1.546579 1.459263 4.000000
v -1.068435 -4.000000 -4.000000
v -2.000000 -2.344742 -4.000000
v -2.000000 2.344742 -4.000000
v -1.068435 4.000000 -4.000000
v 1.068435 -4.000000 0.333218
v 1.546579 -1.459263 4.000000
v 1.546579 1.459263 4.000000
v 1.068435 4.000000 0.333218
v 2.000000 -2.344742 -4.000000
v 1.068435 -4.000000 -4.000000
v 1.068435 4.000000 -4.000000
v 2.000000 2.344742 -4.000000
vn -0.8715 -0.4905 -0.0000
vn -0.9484 0.3047 0.0875
vn 0.9484 -0.3047 0.0875
vn 0.8715 0.4905 -0.0000
vn -0.0000 -1.0000 -0.0000
vn -0.9984 -0.0000 0.0566
vn -0.0000 -0.0000 1.0000
vn -0.0000 1.0000 -0.0000
vn -0.0000 -0.0000 -1.0000
vn 0.9984 -0.0000 0.0566
vn -0.0000 -0.8220 0.5695
vn -0.0000 0.8220 0.5695
vn -0.9484 -0.3047 0.0875
vn -0.8715 0.4905 -0.0000
vn 0.8715 -0.4905 -0.0000
vn 0.9484 0.3047 0.0875
vt 0.217491 0.750000
vt 0.125000 0.500000
vt 0.217491 0.500000
vt 0.625000 0.000000
vt 0.578754 0.250000
vt 0.578754 0.000000
vt 0.313339 0.780830
vt 0.421246 0.500000
vt 0.421246 0.750000
vt 0.686661 0.780830
vt 0.578754 0.500000
vt 0.686661 0.469170
vt 0.313339 0.469170
vt 0.421246 0.250000
vt 0.421246 0.000000
vt 0.578754 0.750000
vt 0.782509 0.500000
vt 0.625000 0.296246
vt 0.782509 0.750000
vt 0.125000 0.750000
vt 0.375000 0.342491
s 0
usemtl no_texture
f 2/1/1 6/2/1 5/3/1
f 3/4/2 7/5/2 4/6/2
f 9/7/3 13/8/3 10/9/3
f 12/10/4 16/11/4 15/12/4
f 14/13/5 2/1/5 5/3/5
f 4/6/6 6/14/6 1/15/6
f 1/15/7 11/16/7 4/6/7
f 8/17/8 12/10/8 15/12/8
f 8/18/9 16/11/9 14/13/9
f 16/11/10 10/9/10 13/8/10
f 9/7/11 1/15/11 2/1/11
f 11/16/12 3/19/12 4/6/12
f 2/1/13 1/20/13 6/2/13
f 3/4/14 8/18/14 7/5/14
f 9/7/15 14/13/15 13/8/15
f 12/10/16 11/16/16 16/11/16
f 14/13/5 9/7/5 2/1/5
f 4/6/6 7/5/6 6/14/6
f 1/15/7 10/9/7 11/16/7
f 8/17/8 3/19/8 12/10/8
f 14/13/9 5/21/9 6/14/9
f 6/14/9 7/5/9 8/18/9
f 8/18/9 15/12/9 16/11/9
f 16/11/9 13/8/9 14/13/9
f 14/13/9 6/14/9 8/18/9
f 16/11/10 11/16/10 10/9/10
f 9/7/11 10/9/11 1/15/11
f 11/16/12 12/10/12 3/19/12
