# Blender 5.1.1
# www.blender.org
mtllib basic_1_1engine_shroud.mtl
o basic_1_1engine_shroud
v -1.000000 -0.732116 1.000000
v -0.732116 -1.000000 1.000000
v -0.732116 1.000000 1.000000
v -1.000000 0.732116 1.000000
v -0.637533 -0.771658 -0.000004
v -0.771658 -0.637533 -0.000004
v -0.771658 0.637533 -0.000004
v -0.637533 0.771658 -0.000004
v 0.732116 -1.000000 1.000000
v 1.000000 -0.732116 1.000000
v 1.000000 0.732116 1.000000
v 0.732116 1.000000 1.000000
v 0.771658 -0.637533 -0.000004
v 0.637533 -0.771658 -0.000004
v 0.637533 0.771658 -0.000004
v 0.771658 0.637533 -0.000004
v -1.000000 -0.732116 -0.155652
v -0.732116 -1.000000 -0.155652
v -0.732116 1.000000 -0.155652
v -1.000000 0.732116 -0.155652
v 0.732116 -1.000000 -0.155652
v 1.000000 -0.732116 -0.155652
v 1.000000 0.732116 -0.155652
v 0.732116 1.000000 -0.155652
v -0.933203 -0.637533 -1.000004
v -0.637533 -0.989000 -1.000004
v -0.637533 0.989000 -1.000004
v -0.933203 0.637533 -1.000004
v 0.637533 -0.989000 -1.000004
v 0.933203 -0.637533 -1.000004
v 0.933203 0.637533 -1.000004
v 0.637533 0.989000 -1.000004
vn -0.7071 -0.7071 -0.0000
vn -0.7071 0.7071 -0.0000
vn 0.7071 -0.7071 -0.0000
vn 0.7071 0.7071 -0.0000
vn -0.0000 -1.0000 -0.0000
vn -1.0000 -0.0000 -0.0000
vn -0.7007 -0.7007 -0.1339
vn -0.0000 1.0000 -0.0000
vn -0.0000 -0.0000 -1.0000
vn 1.0000 -0.0000 -0.0000
vn -0.0000 -0.9772 -0.2124
vn 0.9872 -0.0000 -0.1595
vn -0.0000 0.9772 -0.2124
vn -0.7619 0.6409 -0.0937
vn 0.7619 -0.6409 -0.0937
vn 0.7007 0.7007 -0.1339
vn -0.0000 -0.9999 -0.0130
vn -0.9969 -0.0000 -0.0789
vn -0.0000 0.9999 -0.0130
vn 0.9969 -0.0000 -0.0789
vn -0.9872 -0.0000 -0.1595
vn 0.7025 0.7025 -0.1135
vn 0.7579 -0.6375 -0.1386
vn -0.7579 0.6375 -0.1386
vn -0.7025 -0.7025 -0.1135
vn -0.7619 -0.6409 -0.0937
vn -0.7007 0.7007 -0.1339
vn 0.7007 -0.7007 -0.1339
vn 0.7619 0.6409 -0.0937
vn 0.7579 0.6375 -0.1386
vn 0.7025 -0.7025 -0.1135
vn -0.7025 0.7025 -0.1135
vn -0.7579 -0.6375 -0.1386
vt 0.158486 0.750000
vt 0.125000 0.500000
vt 0.158486 0.500000
vt 0.625000 0.266743
vt 0.591514 0.000000
vt 0.625000 0.000000
vt 0.352676 0.488838
vt 0.408486 0.750000
vt 0.352676 0.761162
vt 0.647324 0.761162
vt 0.591514 0.500000
vt 0.647324 0.488838
vt 0.408486 0.250000
vt 0.408486 0.000000
vt 0.419838 0.279318
vt 0.375000 0.283486
vt 0.841514 0.500000
vt 0.597639 0.287772
vt 0.585362 0.477418
vt 0.391485 0.467316
vt 0.408486 0.500000
vt 0.608515 0.466430
vt 0.580162 0.275065
vt 0.402361 0.296815
vt 0.414638 0.477771
vt 0.591514 0.250000
vt 0.125000 0.750000
vt 0.591514 0.750000
vt 0.841514 0.750000
s 0
usemtl no_texture
f 2/1/1 17/2/1 18/3/1
f 19/4/2 4/5/2 3/6/2
f 21/7/3 10/8/3 9/9/3
f 12/10/4 23/11/4 24/12/4
f 21/7/5 2/1/5 18/3/5
f 4/5/6 17/13/6 1/14/6
f 25/15/7 18/16/7 17/13/7
f 19/17/8 12/10/8 24/12/8
f 8/18/9 16/19/9 14/20/9
f 23/11/10 10/8/10 22/21/10
f 8/18/11 32/22/11 15/22/11
f 6/15/12 28/23/12 7/23/12
f 14/20/13 26/24/13 5/24/13
f 28/23/14 19/4/14 27/18/14
f 30/25/15 21/7/15 29/20/15
f 31/19/16 24/12/16 23/11/16
f 29/20/17 18/16/17 26/24/17
f 25/15/18 20/26/18 28/23/18
f 27/18/19 24/12/19 32/22/19
f 31/19/20 22/21/20 30/25/20
f 16/19/21 30/25/21 13/25/21
f 5/24/22 25/15/22 6/15/22
f 8/18/23 28/23/23 27/18/23
f 14/20/24 30/25/24 29/20/24
f 15/22/25 31/19/25 16/19/25
f 2/1/1 1/27/1 17/2/1
f 19/4/2 20/26/2 4/5/2
f 21/7/3 22/21/3 10/8/3
f 12/10/4 11/28/4 23/11/4
f 21/7/5 9/9/5 2/1/5
f 4/5/6 20/26/6 17/13/6
f 25/15/26 26/24/26 18/16/26
f 19/17/8 3/29/8 12/10/8
f 14/20/9 5/24/9 6/15/9
f 6/15/9 7/23/9 8/18/9
f 8/18/9 15/22/9 16/19/9
f 16/19/9 13/25/9 14/20/9
f 14/20/9 6/15/9 8/18/9
f 23/11/10 11/28/10 10/8/10
f 8/18/11 27/18/11 32/22/11
f 6/15/12 25/15/12 28/23/12
f 14/20/13 29/20/13 26/24/13
f 28/23/27 20/26/27 19/4/27
f 30/25/28 22/21/28 21/7/28
f 31/19/29 32/22/29 24/12/29
f 29/20/17 21/7/17 18/16/17
f 25/15/18 17/13/18 20/26/18
f 27/18/19 19/4/19 24/12/19
f 31/19/20 23/11/20 22/21/20
f 16/19/21 31/19/21 30/25/21
f 5/24/30 26/24/30 25/15/30
f 8/18/31 7/23/31 28/23/31
f 14/20/32 13/25/32 30/25/32
f 15/22/33 32/22/33 31/19/33
