# Blender 5.1.1
# www.blender.org
mtllib basic_3_fuel.mtl
o basic_3_fuel
v -2.000000 -2.344742 6.000000
v -1.068435 -4.000000 6.000000
v -1.068435 4.000000 6.000000
v -2.000000 2.344742 6.000000
v -1.068435 -4.000000 -6.000000
v -2.000000 -2.344742 -6.000000
v -2.000000 2.344742 -6.000000
v -1.068435 4.000000 -6.000000
v 1.068435 -4.000000 6.000000
v 2.000000 -2.344742 6.000000
v 2.000000 2.344742 6.000000
v 1.068435 4.000000 6.000000
v 2.000000 -2.344742 -6.000000
v 1.068435 -4.000000 -6.000000
v 1.068435 4.000000 -6.000000
v 2.000000 2.344742 -6.000000
v 2.000002 1.792885 -5.000000
v -1.068434 3.999998 5.579815
v -1.792764 2.712966 5.579815
v -1.792764 2.712966 -5.579815
v 1.792769 2.712964 -5.579815
v 1.792769 2.712964 5.579815
v -2.000000 -1.792887 5.000000
v -2.000000 -2.344742 5.225272
v -2.000000 -1.792887 -5.000000
v -2.000000 -2.344742 -5.225273
v 2.000000 -1.792892 -5.000000
v 2.000000 -2.344742 5.225270
v 2.000000 -1.792892 5.000000
v 2.000000 -2.344742 -5.225271
v 1.068435 -4.000000 5.579815
v 1.792766 -2.712968 5.579815
v 1.068435 -4.000000 -5.579815
v 1.792766 -2.712968 -5.579815
v -1.068435 -4.000000 5.579815
v -1.068435 -4.000000 -5.579815
v -1.792767 -2.712965 -5.579815
v -1.792767 -2.712965 5.579815
v -0.000003 -5.500000 -5.000000
v -0.000003 -5.500000 5.000000
v -1.767771 -4.767768 -5.000000
v -1.767771 -4.767768 5.000000
v -2.500002 -2.999999 -5.000000
v -2.500002 -2.999999 5.000000
v 2.499998 -3.000001 -5.000000
v 2.499998 -3.000001 5.000000
v 1.767766 -4.767769 -5.000000
v 1.767766 -4.767769 5.000000
v -0.000003 -4.911659 -5.579815
v -1.351751 -4.351748 -5.579815
v -1.351751 -4.351748 5.579815
v -0.000003 -4.911659 5.579815
v -1.911661 -2.999999 -5.579815
v -1.911661 -2.999999 5.579815
v 1.911657 -3.000001 -5.579815
v 1.911657 -3.000001 5.579815
v 1.351746 -4.351749 -5.579815
v 1.351746 -4.351749 5.579815
v 2.000002 1.792885 5.000000
v 2.000002 2.344739 5.225272
v 2.000002 2.344739 -5.225273
v -1.999998 1.792890 -5.000000
v -1.999998 2.344740 5.225270
v -1.999998 1.792890 5.000000
v -1.999998 2.344740 -5.225271
v -1.068434 3.999998 -5.579815
v 1.068437 3.999998 5.579815
v 1.068437 3.999998 -5.579815
v 0.000007 5.499996 -5.000000
v 0.000007 5.499996 5.000000
v 1.767775 4.767765 -5.000000
v 1.767775 4.767765 5.000000
v 2.500006 2.999995 -5.000000
v 2.500006 2.999995 5.000000
v -2.499994 2.999997 -5.000000
v -2.499994 2.999997 5.000000
v -1.767762 4.767766 -5.000000
v -1.767762 4.767766 5.000000
v 0.000006 4.911655 -5.579815
v 1.351755 4.351744 -5.579815
v 1.351755 4.351744 5.579815
v 0.000006 4.911655 5.579815
v 1.911665 2.999995 -5.579815
v 1.911665 2.999995 5.579815
v -1.911653 2.999997 -5.579815
v -1.911653 2.999997 5.579815
v -1.351742 4.351745 -5.579815
v -1.351742 4.351745 5.579815
vn -0.0000 -0.0000 1.0000
vn -0.0000 -0.0000 -1.0000
vn -1.0000 -0.0000 -0.0000
vn 1.0000 -0.0000 -0.0000
vn 0.8715 -0.4905 -0.0000
vn -0.0000 -1.0000 -0.0000
vn -0.8715 -0.4905 -0.0000
vn -0.8715 0.4905 -0.0000
vn -0.0000 1.0000 -0.0000
vn 0.8715 0.4905 -0.0000
vn -0.3827 -0.9239 -0.0000
vn -0.9239 -0.3827 -0.0000
vn -0.9239 0.3827 -0.0000
vn 0.9239 0.3827 -0.0000
vn -0.2792 -0.6740 0.6839
vn 0.9239 -0.3827 -0.0000
vn 0.3827 -0.9239 -0.0000
vn 0.2792 -0.6740 0.6839
vn -0.6740 -0.2792 -0.6839
vn 0.6740 -0.2792 -0.6839
vn -0.6740 -0.2792 0.6839
vn 0.6740 -0.2792 0.6839
vn 0.2792 -0.6740 -0.6839
vn -0.2792 -0.6740 -0.6839
vn -0.6740 0.2792 0.6839
vn 0.6740 0.2792 0.6839
vn 0.6740 0.2792 -0.6839
vn -0.6740 0.2792 -0.6839
vn 0.3827 0.9239 -0.0000
vn 0.2792 0.6740 0.6839
vn -0.3827 0.9239 -0.0000
vn -0.2792 0.6740 0.6839
vn -0.2792 0.6740 -0.6839
vn 0.2792 0.6740 -0.6839
vt 0.578754 1.000000
vt 0.375000 0.907509
vt 0.421246 0.750000
vt 0.421246 0.250000
vt 0.625000 0.296246
vt 0.578754 0.500000
vt 0.560219 0.937500
vt 0.560219 0.312500
vt 0.439781 0.312500
vt 0.560219 0.729167
vt 0.439781 0.729167
vt 0.313339 0.469170
vt 0.421246 0.500000
vt 0.397241 0.502636
vt 0.313339 0.769917
vt 0.397241 0.747364
vt 0.313339 0.780830
vt 0.375000 0.362276
vt 0.375000 0.342491
vt 0.421246 1.000000
vt 0.410958 0.955384
vt 0.375000 0.887724
vt 0.410958 0.294616
vt 0.589042 0.284884
vt 0.578754 0.250000
vt 0.589042 0.954829
vt 0.625000 0.886105
vt 0.686661 0.469170
vt 0.625000 0.317649
vt 0.686661 0.480083
vt 0.686661 0.780830
vt 0.686661 0.769917
vt 0.578754 0.750000
vt 0.602759 0.747364
vt 0.602759 0.502636
vt 1.000000 1.000000
vt 0.875000 0.500000
vt 1.000000 0.500000
vt 0.875000 1.000000
vt 0.750000 0.500000
vt 0.750000 1.000000
vt 0.625000 0.500000
vt 0.375000 1.000000
vt 0.250000 0.500000
vt 0.375000 0.500000
vt 0.250000 1.000000
vt 0.125000 0.500000
vt 0.125000 1.000000
vt 0.000000 0.500000
vt 0.000000 1.000000
vt 0.421246 0.951580
vt 0.625000 1.000000
vt 0.421246 0.733860
vt 0.421246 0.516140
vt 0.421246 0.298420
vt 0.313339 0.480083
vt 0.625000 0.907509
vt 0.578754 0.951579
vt 0.578754 0.298421
vt 0.439781 0.937500
vt 0.439781 0.520833
vt 0.578754 0.516140
vt 0.560219 0.520833
vt 0.578754 0.733860
s 0
usemtl no_texture
f 4/1/1 2/2/1 10/3/1
f 6/4/2 8/5/2 16/6/2
f 64/7/3 62/8/3 25/9/3
f 59/10/4 10/3/4 29/11/4
f 14/12/5 13/13/5 34/14/5
f 10/3/5 31/15/5 32/16/5
f 2/2/6 31/15/6 9/17/6
f 14/12/6 36/18/6 5/19/6
f 1/20/7 38/21/7 35/22/7
f 6/4/7 36/18/7 37/23/7
f 20/24/8 8/5/8 7/25/8
f 19/26/8 4/1/8 18/27/8
f 15/28/9 66/29/9 68/30/9
f 18/27/9 12/31/9 67/32/9
f 12/31/10 11/33/10 22/34/10
f 21/35/10 16/6/10 68/30/10
f 40/36/11 41/37/11 39/38/11
f 42/39/12 43/40/12 41/37/12
f 44/41/13 25/42/13 43/40/13
f 29/43/14 45/44/14 27/45/14
f 40/36/15 51/39/15 42/39/15
f 46/46/16 47/47/16 45/44/16
f 48/48/17 39/49/17 47/47/17
f 40/50/18 58/48/18 52/50/18
f 43/40/19 50/37/19 41/37/19
f 45/44/20 57/47/20 55/44/20
f 44/41/21 51/39/21 54/41/21
f 46/46/22 58/48/22 48/48/22
f 39/49/23 57/47/23 47/47/23
f 39/38/24 50/37/24 49/38/24
f 24/51/25 54/41/25 38/21/25
f 24/51/25 23/52/25 44/41/25
f 28/53/26 56/46/26 46/46/26
f 29/43/26 28/53/26 46/46/26
f 30/54/27 55/44/27 34/14/27
f 30/54/27 27/45/27 45/44/27
f 53/40/28 26/55/28 37/23/28
f 25/42/28 26/55/28 43/40/28
f 36/18/2 53/40/2 37/23/2
f 33/56/2 55/44/2 57/47/2
f 57/47/2 49/49/2 33/56/2
f 50/37/2 36/18/2 49/38/2
f 33/56/2 49/49/2 36/18/2
f 35/22/1 54/41/1 51/39/1
f 31/15/1 56/46/1 32/16/1
f 58/48/1 31/15/1 52/50/1
f 51/39/1 52/36/1 35/22/1
f 31/15/1 35/22/1 52/50/1
f 70/36/29 71/37/29 69/38/29
f 72/39/14 73/40/14 71/37/14
f 74/41/16 17/42/16 73/40/16
f 64/43/12 75/44/12 62/45/12
f 70/36/30 81/39/30 72/39/30
f 76/46/13 77/47/13 75/44/13
f 78/48/31 69/49/31 77/47/31
f 70/50/32 88/48/32 82/50/32
f 73/40/27 80/37/27 71/37/27
f 75/44/28 87/47/28 85/44/28
f 74/41/26 81/39/26 84/41/26
f 76/46/25 88/48/25 78/48/25
f 69/49/33 87/47/33 77/47/33
f 69/38/34 80/37/34 79/38/34
f 60/51/22 84/41/22 22/21/22
f 60/51/22 59/52/22 74/41/22
f 63/53/21 86/46/21 76/46/21
f 64/43/21 63/53/21 76/46/21
f 65/54/19 85/44/19 20/14/19
f 65/54/19 62/45/19 75/44/19
f 83/40/20 61/55/20 21/23/20
f 17/42/20 61/55/20 73/40/20
f 68/18/2 83/40/2 21/23/2
f 66/56/2 85/44/2 87/47/2
f 87/47/2 79/49/2 66/56/2
f 80/37/2 68/18/2 79/38/2
f 66/56/2 79/49/2 68/18/2
f 67/22/1 84/41/1 81/39/1
f 18/15/1 86/46/1 19/16/1
f 88/48/1 18/15/1 82/50/1
f 81/39/1 82/36/1 67/22/1
f 18/15/1 67/22/1 82/50/1
f 10/3/1 11/33/1 12/31/1
f 12/31/1 3/57/1 4/1/1
f 4/1/1 1/20/1 2/2/1
f 2/2/1 9/17/1 10/3/1
f 10/3/1 12/31/1 4/1/1
f 16/6/2 13/13/2 14/12/2
f 14/12/2 5/19/2 6/4/2
f 6/4/2 7/25/2 8/5/2
f 8/5/2 15/28/2 16/6/2
f 16/6/2 14/12/2 6/4/2
f 24/51/3 1/20/3 4/1/3
f 4/1/3 63/58/3 64/7/3
f 62/8/3 65/59/3 7/25/3
f 24/51/3 4/1/3 64/7/3
f 62/8/3 7/25/3 6/4/3
f 23/60/3 24/51/3 64/7/3
f 6/4/3 26/55/3 25/9/3
f 25/9/3 23/60/3 64/7/3
f 62/8/3 6/4/3 25/9/3
f 27/61/4 30/54/4 13/13/4
f 13/13/4 16/6/4 61/62/4
f 13/13/4 61/62/4 17/63/4
f 27/61/4 13/13/4 17/63/4
f 59/10/4 60/64/4 11/33/4
f 27/61/4 17/63/4 59/10/4
f 10/3/4 28/53/4 29/11/4
f 29/11/4 27/61/4 59/10/4
f 59/10/4 11/33/4 10/3/4
f 34/14/5 33/56/5 14/12/5
f 13/13/5 30/54/5 34/14/5
f 32/16/5 28/53/5 10/3/5
f 10/3/5 9/17/5 31/15/5
f 2/2/6 35/22/6 31/15/6
f 14/12/6 33/56/6 36/18/6
f 35/22/7 2/2/7 1/20/7
f 1/20/7 24/51/7 38/21/7
f 37/23/7 26/55/7 6/4/7
f 6/4/7 5/19/7 36/18/7
f 20/24/8 66/29/8 8/5/8
f 7/25/8 65/59/8 20/24/8
f 19/26/8 63/58/8 4/1/8
f 4/1/8 3/57/8 18/27/8
f 15/28/9 8/5/9 66/29/9
f 18/27/9 3/57/9 12/31/9
f 22/34/10 67/32/10 12/31/10
f 11/33/10 60/64/10 22/34/10
f 21/35/10 61/62/10 16/6/10
f 16/6/10 15/28/10 68/30/10
f 40/36/11 42/39/11 41/37/11
f 42/39/12 44/41/12 43/40/12
f 44/41/13 23/52/13 25/42/13
f 29/43/14 46/46/14 45/44/14
f 40/36/15 52/36/15 51/39/15
f 46/46/16 48/48/16 47/47/16
f 48/48/17 40/50/17 39/49/17
f 40/50/18 48/48/18 58/48/18
f 43/40/19 53/40/19 50/37/19
f 45/44/20 47/47/20 57/47/20
f 44/41/21 42/39/21 51/39/21
f 46/46/22 56/46/22 58/48/22
f 39/49/23 49/49/23 57/47/23
f 39/38/24 41/37/24 50/37/24
f 24/51/25 44/41/25 54/41/25
f 28/53/26 32/16/26 56/46/26
f 30/54/27 45/44/27 55/44/27
f 53/40/28 43/40/28 26/55/28
f 36/18/2 50/37/2 53/40/2
f 33/56/2 34/14/2 55/44/2
f 35/22/1 38/21/1 54/41/1
f 31/15/1 58/48/1 56/46/1
f 70/36/29 72/39/29 71/37/29
f 72/39/14 74/41/14 73/40/14
f 74/41/16 59/52/16 17/42/16
f 64/43/12 76/46/12 75/44/12
f 70/36/30 82/36/30 81/39/30
f 76/46/13 78/48/13 77/47/13
f 78/48/31 70/50/31 69/49/31
f 70/50/32 78/48/32 88/48/32
f 73/40/27 83/40/27 80/37/27
f 75/44/28 77/47/28 87/47/28
f 74/41/26 72/39/26 81/39/26
f 76/46/25 86/46/25 88/48/25
f 69/49/33 79/49/33 87/47/33
f 69/38/34 71/37/34 80/37/34
f 60/51/22 74/41/22 84/41/22
f 63/53/21 19/16/21 86/46/21
f 65/54/19 75/44/19 85/44/19
f 83/40/20 73/40/20 61/55/20
f 68/18/2 80/37/2 83/40/2
f 66/56/2 20/14/2 85/44/2
f 67/22/1 22/21/1 84/41/1
f 18/15/1 88/48/1 86/46/1
