# Blender 5.1.1
# www.blender.org
mtllib basic_3_rotate.mtl
o basic_3_rotate
v -2.000000 -2.344742 2.000000
v -1.068435 -4.000000 2.000000
v -1.068435 4.000000 2.000000
v -2.000000 2.344742 2.000000
v -4.000000 1.068436 -2.000000
v -2.344742 2.000000 -2.000000
v 2.344742 2.000000 -2.000000
v 4.000000 1.068435 -2.000000
v 1.068435 -4.000000 2.000000
v 2.000000 -2.344742 2.000000
v 2.000000 2.344742 2.000000
v 1.068435 4.000000 2.000000
v -2.344742 -2.000000 -2.000000
v -4.000000 -1.068435 -2.000000
v 4.000000 -1.068436 -2.000000
v 2.344742 -2.000000 -2.000000
vn -0.8710 0.4902 0.0328
vn -0.8944 -0.0000 0.4472
vn 0.8944 -0.0000 0.4472
vn 0.8710 0.4902 0.0328
vn 0.4902 -0.8710 -0.0328
vn -0.8710 -0.4902 0.0328
vn -0.0000 -0.0000 1.0000
vn -0.0000 -0.8944 -0.4472
vn -0.0000 -0.0000 -1.0000
vn -0.0000 0.8944 -0.4472
vn -0.4902 0.8710 -0.0328
vn 0.4902 0.8710 -0.0328
vn 0.8710 -0.4902 0.0328
vn -0.4902 -0.8710 -0.0328
vt 0.421246 0.250000
vt 0.578754 1.000000
vt 0.625000 0.907509
vt 0.313339 0.469170
vt 0.375000 0.342491
vt 0.625000 0.296246
vt 0.421246 0.750000
vt 0.686661 0.469170
vt 0.578754 0.750000
vt 0.578754 0.250000
vt 0.686661 0.780830
vt 0.578754 0.500000
vt 0.421246 1.000000
vt 0.421246 0.500000
vt 0.375000 0.907509
vt 0.313339 0.780830
s 0
usemtl no_texture
f 6/1/1 4/2/1 3/3/1
f 14/4/2 4/2/2 5/5/2
f 8/6/3 10/7/3 15/8/3
f 11/9/4 7/10/4 12/11/4
f 10/7/5 16/12/5 15/8/5
f 1/13/6 13/14/6 2/15/6
f 12/11/7 4/2/7 2/15/7
f 16/12/8 2/15/8 13/14/8
f 8/6/9 16/12/9 14/4/9
f 12/11/10 6/1/10 3/3/10
f 6/1/11 5/5/11 4/2/11
f 14/4/2 1/13/2 4/2/2
f 8/6/3 11/9/3 10/7/3
f 11/9/12 8/6/12 7/10/12
f 10/7/13 9/16/13 16/12/13
f 1/13/14 14/4/14 13/14/14
f 2/15/7 9/16/7 10/7/7
f 10/7/7 11/9/7 12/11/7
f 12/11/7 3/3/7 4/2/7
f 4/2/7 1/13/7 2/15/7
f 2/15/7 10/7/7 12/11/7
f 16/12/8 9/16/8 2/15/8
f 14/4/9 5/5/9 6/1/9
f 6/1/9 7/10/9 8/6/9
f 8/6/9 15/8/9 16/12/9
f 16/12/9 13/14/9 14/4/9
f 14/4/9 6/1/9 8/6/9
f 12/11/10 7/10/10 6/1/10
