# Blender 5.1.1
# www.blender.org
mtllib basic_0_cone_1.mtl
o basic_0_cone_1
v -1.068435 -2.000000 -4.000000
v -2.000000 -1.172371 -4.000000
v -2.000000 1.172371 -4.000000
v -1.068435 2.000000 -4.000000
v 2.000000 -1.172371 -4.000000
v 1.068435 -2.000000 -4.000000
v 1.068435 2.000000 -4.000000
v 2.000000 1.172371 -4.000000
v -0.749949 -0.338064 4.000000
v -1.068435 -1.352210 -0.148883
v -1.068435 1.352210 -0.148883
v -0.749949 0.338064 4.000000
v 1.068435 -1.352210 -0.148883
v 0.749949 -0.338064 4.000000
v 0.749949 0.338064 4.000000
v 1.068435 1.352210 -0.148883
v 1.823650 -0.755217 1.460468
v -1.823650 -0.755217 1.460468
v 1.823650 0.755217 1.460468
v -1.823650 0.755217 1.460468
vn -0.0000 -0.0000 -1.0000
vn -0.0000 -0.0000 1.0000
vn -0.0000 0.9861 0.1659
vn -0.0000 -0.9861 0.1659
vn 0.3920 -0.9072 0.1526
vn -0.5047 -0.8594 0.0820
vn 0.9211 -0.0000 0.3894
vn -0.9211 -0.0000 0.3894
vn 0.5047 0.8594 0.0820
vn -0.3920 0.9072 0.1526
vn -0.0000 0.9714 0.2374
vn -0.0000 -0.9714 0.2374
vn -0.9995 -0.0000 0.0323
vn 0.9995 -0.0000 0.0323
vn 0.6621 -0.7453 0.0783
vn 0.2187 -0.9439 0.2475
vn -0.6590 -0.7417 0.1248
vn -0.2187 -0.9439 0.2475
vn 0.6590 0.7417 0.1248
vn 0.2187 0.9439 0.2475
vn -0.6621 0.7453 0.0783
vn -0.2187 0.9439 0.2475
vt 0.625000 0.296246
vt 0.578754 0.500000
vt 0.313339 0.469170
vt 0.421246 0.500000
vt 0.578754 0.250000
vt 0.421246 0.250000
vt 0.686661 0.469170
vt 0.375000 0.342491
s 0
usemtl no_texture
f 4/1/1 8/2/1 6/3/1
f 14/4/2 12/5/2 9/6/2
f 11/1/3 7/7/3 4/1/3
f 13/3/4 1/8/4 6/3/4
f 17/4/5 13/3/5 6/3/5
f 10/8/6 18/6/6 2/6/6
f 15/2/7 17/4/7 19/2/7
f 9/6/8 20/5/8 18/6/8
f 16/7/9 19/2/9 8/2/9
f 20/5/10 11/1/10 4/1/10
f 12/5/11 16/7/11 11/1/11
f 10/8/12 14/4/12 9/6/12
f 18/6/13 3/5/13 2/6/13
f 19/2/14 5/4/14 8/2/14
f 6/3/1 1/8/1 2/6/1
f 2/6/1 3/5/1 4/1/1
f 4/1/1 7/7/1 8/2/1
f 8/2/1 5/4/1 6/3/1
f 6/3/1 2/6/1 4/1/1
f 14/4/2 15/2/2 12/5/2
f 11/1/3 16/7/3 7/7/3
f 13/3/4 10/8/4 1/8/4
f 6/3/15 5/4/15 17/4/15
f 17/4/16 14/4/16 13/3/16
f 2/6/17 1/8/17 10/8/17
f 10/8/18 9/6/18 18/6/18
f 15/2/7 14/4/7 17/4/7
f 9/6/8 12/5/8 20/5/8
f 8/2/19 7/7/19 16/7/19
f 16/7/20 15/2/20 19/2/20
f 4/1/21 3/5/21 20/5/21
f 20/5/22 12/5/22 11/1/22
f 12/5/11 15/2/11 16/7/11
f 10/8/12 13/3/12 14/4/12
f 18/6/13 20/5/13 3/5/13
f 19/2/14 17/4/14 5/4/14
