# Blender 5.1.1
# www.blender.org
mtllib basic_3_double.mtl
o basic_3_double
v 0.000000 -2.344742 2.000000
v 0.931565 -4.000000 2.000000
v 0.931565 4.000000 2.000000
v 0.000000 2.344742 2.000000
v -1.068435 -4.000000 -2.000000
v -2.000000 -2.344742 -2.000000
v -2.000000 2.344742 -2.000000
v -1.068435 4.000000 -2.000000
v 3.068435 -4.000000 2.000000
v 4.000000 -2.344742 2.000000
v 4.000000 2.344742 2.000000
v 3.068435 4.000000 2.000000
v 2.000000 -2.344742 -2.000000
v 1.068435 -4.000000 -2.000000
v 1.068435 4.000000 -2.000000
v 2.000000 2.344742 -2.000000
v -4.000000 -2.344742 2.000000
v -3.068435 -4.000000 2.000000
v -3.068435 4.000000 2.000000
v -4.000000 2.344742 2.000000
v -0.931565 -4.000000 2.000000
v 0.000000 -2.344742 2.000000
v 0.000000 2.344742 2.000000
v -0.931565 4.000000 2.000000
vn -0.0000 -1.0000 -0.0000
vn -0.7989 -0.4496 -0.3995
vn 0.7989 -0.4496 -0.3995
vn 0.7989 0.4496 -0.3995
vn -0.7989 0.4496 -0.3995
vn -0.8944 -0.0000 -0.4472
vn -0.0000 -0.0000 1.0000
vn -0.0000 -0.0000 -1.0000
vn 0.8944 -0.0000 -0.4472
vn 0.8711 -0.4902 -0.0298
vn -0.8711 -0.4902 -0.0298
vn -0.0000 1.0000 -0.0000
vn 0.8711 0.4902 -0.0298
vn -0.8711 0.4902 -0.0298
vn -0.0000 -0.9240 0.3824
vn -0.0000 0.9240 0.3824
vt 0.313339 0.469170
vt 0.313339 0.780830
vt 0.375000 0.907509
vt 0.421246 0.250000
vt 0.421246 1.000000
vt 0.421246 0.500000
vt 0.421246 0.750000
vt 0.686661 0.780830
vt 0.578754 0.500000
vt 0.686661 0.469170
vt 0.625000 0.907509
vt 0.578754 0.250000
vt 0.578754 1.000000
vt 0.625000 0.296246
vt 0.375000 0.342491
vt 0.578754 0.750000
s 0
usemtl no_texture
f 14/1/1 9/2/1 2/3/1
f 6/4/2 18/3/2 17/5/2
f 9/2/3 13/6/3 10/7/3
f 12/8/4 16/9/4 15/10/4
f 19/11/5 7/12/5 20/13/5
f 6/4/6 20/13/6 7/12/6
f 12/8/7 4/13/7 2/3/7
f 24/8/7 20/13/7 18/3/7
f 8/14/8 16/9/8 14/1/8
f 16/9/9 10/7/9 13/6/9
f 18/3/1 5/15/1 21/2/1
f 21/2/10 5/15/10 22/7/10
f 2/3/11 1/5/11 14/1/11
f 12/8/12 15/10/12 3/11/12
f 24/8/12 8/14/12 19/11/12
f 23/16/13 8/14/13 24/8/13
f 3/11/14 15/10/14 4/13/14
f 15/10/12 23/16/12 4/13/12
f 14/1/15 22/7/15 5/15/15
f 6/4/2 5/15/2 18/3/2
f 9/2/3 14/1/3 13/6/3
f 12/8/4 11/16/4 16/9/4
f 19/11/5 8/14/5 7/12/5
f 6/4/6 17/5/6 20/13/6
f 2/3/7 9/2/7 10/7/7
f 10/7/7 11/16/7 12/8/7
f 12/8/7 3/11/7 4/13/7
f 4/13/7 1/5/7 2/3/7
f 2/3/7 10/7/7 12/8/7
f 18/3/7 21/2/7 22/7/7
f 22/7/7 23/16/7 24/8/7
f 24/8/7 19/11/7 20/13/7
f 20/13/7 17/5/7 18/3/7
f 18/3/7 22/7/7 24/8/7
f 14/1/8 5/15/8 6/4/8
f 6/4/8 7/12/8 8/14/8
f 8/14/8 15/10/8 16/9/8
f 16/9/8 13/6/8 14/1/8
f 14/1/8 6/4/8 8/14/8
f 16/9/9 11/16/9 10/7/9
f 15/10/16 8/14/16 23/16/16
f 14/1/12 1/5/12 22/7/12
