# Blender 5.1.1
# www.blender.org
mtllib basic_0_cone_0.mtl
o basic_0_cone_0
v -1.068435 -2.000000 -4.000000
v -2.000000 -1.172371 -4.000000
v -2.000000 1.172371 -4.000000
v -1.068435 2.000000 -4.000000
v 2.000000 -1.172371 -4.000000
v 1.068435 -2.000000 -4.000000
v 1.068435 2.000000 -4.000000
v 2.000000 1.172371 -4.000000
v -1.212015 -0.338064 4.000000
v -1.068435 -2.000000 2.193057
v -1.068435 2.000000 2.193057
v -1.212015 0.338064 4.000000
v 1.068435 -2.000000 2.193057
v 1.212015 -0.338064 4.000000
v 1.212015 0.338064 4.000000
v 1.068435 2.000000 2.193057
vn -0.0000 -0.0000 -1.0000
vn -0.0000 -0.0000 1.0000
vn -0.0000 1.0000 -0.0000
vn -0.0000 -1.0000 -0.0000
vn 0.6642 -0.7476 -0.0000
vn -0.6642 -0.7476 -0.0000
vn 0.9952 -0.0000 0.0980
vn -0.9952 -0.0000 0.0980
vn 0.6642 0.7476 -0.0000
vn -0.6642 0.7476 -0.0000
vn -0.0000 0.7360 0.6770
vn -0.0000 -0.7360 0.6770
vn 0.9702 -0.2117 0.1176
vn -0.9702 -0.2117 0.1176
vn 0.9702 0.2117 0.1176
vn -0.9702 0.2117 0.1176
vt 0.625000 0.296246
vt 0.578754 0.500000
vt 0.313339 0.469170
vt 0.421246 0.500000
vt 0.578754 0.250000
vt 0.421246 0.250000
vt 0.686661 0.469170
vt 0.375000 0.342491
s 0
usemtl no_texture
f 4/1/1 8/2/1 6/3/1
f 14/4/2 12/5/2 9/6/2
f 11/1/3 7/7/3 4/1/3
f 13/3/4 1/8/4 6/3/4
f 5/4/5 13/3/5 6/3/5
f 10/8/6 2/6/6 1/8/6
f 15/2/7 5/4/7 8/2/7
f 9/6/8 3/5/8 2/6/8
f 16/7/9 8/2/9 7/7/9
f 3/5/10 11/1/10 4/1/10
f 12/5/11 16/7/11 11/1/11
f 10/8/12 14/4/12 9/6/12
f 6/3/1 1/8/1 2/6/1
f 2/6/1 3/5/1 4/1/1
f 4/1/1 7/7/1 8/2/1
f 8/2/1 5/4/1 6/3/1
f 6/3/1 2/6/1 4/1/1
f 14/4/2 15/2/2 12/5/2
f 11/1/3 16/7/3 7/7/3
f 13/3/4 10/8/4 1/8/4
f 5/4/13 14/4/13 13/3/13
f 10/8/14 9/6/14 2/6/14
f 15/2/7 14/4/7 5/4/7
f 9/6/8 12/5/8 3/5/8
f 16/7/15 15/2/15 8/2/15
f 3/5/16 12/5/16 11/1/16
f 12/5/11 15/2/11 16/7/11
f 10/8/12 13/3/12 14/4/12
