# Blender 5.1.1
# www.blender.org
mtllib basic_1_cone_0.mtl
o basic_1_cone_0
v -1.000000 -0.001662 2.000000
v -0.732116 -1.000000 2.000000
v -0.866058 0.866058 0.033956
v -0.732116 -1.000000 -2.000000
v -1.000000 -0.732116 -2.000000
v -1.000000 0.732116 -2.000000
v -0.732116 1.000000 -2.000000
v 0.732116 -1.000000 2.000000
v 1.000000 -0.001662 2.000000
v 0.866058 0.866058 0.033956
v 1.000000 -0.732116 -2.000000
v 0.732116 -1.000000 -2.000000
v 0.732116 1.000000 -2.000000
v 1.000000 0.732116 -2.000000
vn -0.7071 -0.7071 -0.0000
vn -0.7071 0.7071 -0.0000
vn 0.9648 -0.2589 0.0473
vn 0.7071 0.7071 -0.0000
vn -0.0000 -1.0000 -0.0000
vn -0.9939 0.1085 -0.0198
vn -0.0000 -0.0000 1.0000
vn -0.0000 0.9978 0.0657
vn -0.0000 -0.0000 -1.0000
vn 0.9939 0.1085 -0.0198
vn -0.0000 0.9149 0.4038
vn -0.9648 -0.2589 0.0473
vn 0.7071 -0.7071 -0.0000
vn -0.9978 -0.0000 0.0657
vn 0.9978 -0.0000 0.0657
vt 0.158486 0.750000
vt 0.125000 0.500000
vt 0.158486 0.500000
vt 0.625000 0.000000
vt 0.625000 0.266743
vt 0.591514 0.250000
vt 0.352676 0.761162
vt 0.408486 0.500000
vt 0.408486 0.750000
vt 0.647324 0.488838
vt 0.591514 0.750000
vt 0.591514 0.500000
vt 0.352676 0.488838
vt 0.591514 0.000000
vt 0.408486 0.250000
vt 0.408486 0.000000
vt 0.125000 0.750000
vt 0.841514 0.750000
vt 0.647324 0.761162
vt 0.841514 0.500000
vt 0.375000 0.283486
s 0
usemtl no_texture
f 2/1/1 5/2/1 4/3/1
f 3/4/2 7/5/2 6/6/2
f 8/7/3 11/8/3 9/9/3
f 13/10/4 10/11/4 14/12/4
f 12/13/5 2/1/5 4/3/5
f 3/14/6 5/15/6 1/16/6
f 8/7/7 1/17/7 2/1/7
f 13/10/8 3/18/8 10/19/8
f 7/5/9 14/12/9 12/13/9
f 11/8/10 10/11/10 9/9/10
f 1/17/11 10/19/11 3/18/11
f 2/1/12 1/17/12 5/2/12
f 8/7/13 12/13/13 11/8/13
f 12/13/5 8/7/5 2/1/5
f 3/14/14 6/6/14 5/15/14
f 8/7/7 9/9/7 1/17/7
f 13/10/8 7/20/8 3/18/8
f 12/13/9 4/21/9 5/15/9
f 5/15/9 6/6/9 7/5/9
f 7/5/9 13/10/9 14/12/9
f 14/12/9 11/8/9 12/13/9
f 12/13/9 5/15/9 7/5/9
f 11/8/15 14/12/15 10/11/15
f 1/17/11 9/9/11 10/19/11
