# Blender 5.1.1
# www.blender.org
mtllib basic_3_2engine_shroud.mtl
o basic_3_2engine_shroud
v -2.000000 -2.344742 2.000000
v -1.068435 -4.000000 2.000000
v -1.068435 4.000000 2.000000
v -2.000000 2.344742 2.000000
v -0.971488 -3.814604 -1.000000
v -1.832635 -2.284466 -1.000000
v -1.832635 2.284466 -1.000000
v -0.971488 3.814604 -1.000000
v 1.068435 -4.000000 2.000000
v 2.000000 -2.344742 2.000000
v 2.000000 2.344742 2.000000
v 1.068435 4.000000 2.000000
v 1.832635 -2.284466 -1.000000
v 0.971488 -3.814604 -1.000000
v 0.971488 3.814604 -1.000000
v 1.832635 2.284466 -1.000000
v -2.000000 -2.899446 -1.000000
v -1.068435 -4.000000 -1.000000
v -1.068435 4.000000 -1.000000
v -2.000000 2.899446 -1.000000
v 1.068435 -4.000000 -1.000000
v 2.000000 -2.899446 -1.000000
v 2.000000 2.899446 -1.000000
v 1.068435 4.000000 -1.000000
v -2.000000 -2.899446 -1.467485
v -1.068435 -4.000000 -1.467485
v -1.068435 4.000000 -1.467485
v -2.000000 2.899446 -1.467485
v 1.068435 -4.000000 -1.467485
v 2.000000 -2.899446 -1.467485
v 2.000000 2.899446 -1.467485
v 1.068435 4.000000 -1.467485
v -1.879299 -2.824911 -2.000000
v -0.971488 -3.909722 -2.000000
v -0.971488 3.909722 -2.000000
v -1.879299 2.824911 -2.000000
v 0.971488 -3.909722 -2.000000
v 1.879299 -2.824911 -2.000000
v 1.879299 2.824911 -2.000000
v 0.971488 3.909722 -2.000000
vn -0.7633 -0.6461 -0.0000
vn -0.8679 0.4884 0.0903
vn 0.8679 -0.4884 0.0903
vn 0.7633 0.6461 -0.0000
vn -0.0000 -1.0000 -0.0000
vn -1.0000 -0.0000 -0.0000
vn -0.0000 -0.0000 1.0000
vn -0.0000 1.0000 -0.0000
vn -0.0000 -0.0000 -1.0000
vn 1.0000 -0.0000 -0.0000
vn 0.9989 -0.0000 -0.0466
vn -0.7633 0.6461 -0.0000
vn -0.0000 0.9955 -0.0947
vn -0.8334 -0.4690 -0.2924
vn -0.7655 0.6406 -0.0609
vn 0.7655 -0.6406 -0.0609
vn -0.7381 -0.6248 -0.2547
vn -0.7443 0.6228 -0.2411
vn 0.7443 -0.6228 -0.2411
vn 0.7381 0.6248 -0.2547
vn -0.0000 -0.9859 -0.1671
vn -0.9753 -0.0000 -0.2211
vn -0.0000 0.9859 -0.1671
vn 0.9753 -0.0000 -0.2211
vn -0.0000 -0.9955 -0.0947
vn -0.9989 -0.0000 -0.0466
vn 0.8334 0.4690 -0.2924
vn 0.7633 -0.6461 -0.0000
vn -0.8679 -0.4884 0.0903
vn 0.8679 0.4884 0.0903
vn -0.7655 -0.6406 -0.0609
vn -0.8334 0.4690 -0.2924
vn 0.8334 -0.4690 -0.2924
vn -0.7443 -0.6228 -0.2411
vn -0.7381 0.6248 -0.2547
vn 0.7381 -0.6248 -0.2547
vn 0.7443 0.6228 -0.2411
vn 0.7655 0.6406 -0.0609
vt 0.217491 0.750000
vt 0.125000 0.500000
vt 0.217491 0.500000
vt 0.625000 0.000000
vt 0.578754 0.250000
vt 0.578754 0.000000
vt 0.313339 0.780830
vt 0.421246 0.500000
vt 0.421246 0.750000
vt 0.686661 0.780830
vt 0.578754 0.500000
vt 0.686661 0.469170
vt 0.313339 0.469170
vt 0.421246 0.250000
vt 0.421246 0.000000
vt 0.578754 1.000000
vt 0.375000 0.907509
vt 0.782509 0.500000
vt 0.623240 0.304374
vt 0.579686 0.491880
vt 0.324629 0.462195
vt 0.422594 0.261328
vt 0.577406 0.259269
vt 0.625000 0.296246
vt 0.376760 0.345470
vt 0.675370 0.460197
vt 0.420314 0.492229
vt 0.375000 0.342491
vt 0.125000 0.750000
vt 0.578754 0.750000
vt 0.625000 0.907509
vt 0.421246 1.000000
vt 0.782509 0.750000
s 0
usemtl no_texture
f 2/1/1 17/2/1 18/3/1
f 3/4/2 20/5/2 4/6/2
f 9/7/3 22/8/3 10/9/3
f 12/10/4 23/11/4 24/12/4
f 21/13/5 2/1/5 18/3/5
f 4/6/6 17/14/6 1/15/6
f 12/10/7 4/16/7 2/17/7
f 19/18/8 12/10/8 24/12/8
f 8/19/9 16/20/9 14/21/9
f 23/11/10 10/9/10 22/8/10
f 6/22/11 36/23/11 7/23/11
f 19/24/12 28/5/12 20/5/12
f 14/21/13 34/25/13 5/25/13
f 15/26/14 39/20/14 16/20/14
f 23/11/4 32/12/4 24/12/4
f 20/5/6 25/14/6 17/14/6
f 14/21/15 38/27/15 37/21/15
f 8/19/16 36/23/16 35/19/16
f 33/22/17 26/28/17 25/14/17
f 36/23/18 27/24/18 35/19/18
f 38/27/19 29/13/19 37/21/19
f 39/20/20 32/12/20 31/11/20
f 37/21/21 26/28/21 34/25/21
f 33/22/22 28/5/22 36/23/22
f 35/19/23 32/12/23 40/26/23
f 39/20/24 30/8/24 38/27/24
f 24/12/8 27/18/8 19/18/8
f 17/2/1 26/3/1 18/3/1
f 8/19/25 40/26/25 15/26/25
f 22/8/10 31/11/10 23/11/10
f 18/3/5 29/13/5 21/13/5
f 16/20/26 38/27/26 13/27/26
f 5/25/27 33/22/27 6/22/27
f 21/13/28 30/8/28 22/8/28
f 2/1/29 1/29/29 17/2/29
f 3/4/12 19/24/12 20/5/12
f 9/7/28 21/13/28 22/8/28
f 12/10/30 11/30/30 23/11/30
f 21/13/5 9/7/5 2/1/5
f 4/6/6 20/5/6 17/14/6
f 2/17/7 9/7/7 10/9/7
f 10/9/7 11/30/7 12/10/7
f 12/10/7 3/31/7 4/16/7
f 4/16/7 1/32/7 2/17/7
f 2/17/7 10/9/7 12/10/7
f 19/18/8 3/33/8 12/10/8
f 14/21/9 5/25/9 6/22/9
f 6/22/9 7/23/9 8/19/9
f 8/19/9 15/26/9 16/20/9
f 16/20/9 13/27/9 14/21/9
f 14/21/9 6/22/9 8/19/9
f 23/11/10 11/30/10 10/9/10
f 6/22/11 33/22/11 36/23/11
f 19/24/12 27/24/12 28/5/12
f 14/21/13 37/21/13 34/25/13
f 15/26/31 40/26/31 39/20/31
f 23/11/4 31/11/4 32/12/4
f 20/5/6 28/5/6 25/14/6
f 14/21/32 13/27/32 38/27/32
f 8/19/33 7/23/33 36/23/33
f 33/22/34 34/25/34 26/28/34
f 36/23/35 28/5/35 27/24/35
f 38/27/36 30/8/36 29/13/36
f 39/20/37 40/26/37 32/12/37
f 37/21/21 29/13/21 26/28/21
f 33/22/22 25/14/22 28/5/22
f 35/19/23 27/24/23 32/12/23
f 39/20/24 31/11/24 30/8/24
f 24/12/8 32/12/8 27/18/8
f 17/2/1 25/2/1 26/3/1
f 8/19/25 35/19/25 40/26/25
f 22/8/10 30/8/10 31/11/10
f 18/3/5 26/3/5 29/13/5
f 16/20/26 39/20/26 38/27/26
f 5/25/38 34/25/38 33/22/38
f 21/13/28 29/13/28 30/8/28
