# Blender 5.1.1
# www.blender.org
mtllib basic_3_adapter_0.mtl
o basic_3_adapter_0
v -2.000000 -2.344742 2.000000
v -1.068435 -4.000000 2.000000
v -1.068435 4.000000 2.000000
v -2.000000 2.344742 2.000000
v -1.068435 -2.000000 -2.000000
v -2.000000 -1.172371 -2.000000
v -2.000000 1.172371 -2.000000
v -1.068435 2.000000 -2.000000
v 1.068435 -4.000000 2.000000
v 2.000000 -2.344742 2.000000
v 2.000000 2.344742 2.000000
v 1.068435 4.000000 2.000000
v 2.000000 -1.172371 -2.000000
v 1.068435 -2.000000 -2.000000
v 1.068435 2.000000 -2.000000
v 2.000000 1.172371 -2.000000
vn -0.6488 -0.7303 -0.2140
vn -0.8464 0.4763 -0.2382
vn 0.8464 -0.4763 -0.2382
vn 0.6488 0.7303 -0.2140
vn -0.0000 -0.8944 -0.4472
vn -1.0000 -0.0000 -0.0000
vn -0.0000 -0.0000 1.0000
vn -0.0000 0.8944 -0.4472
vn -0.0000 -0.0000 -1.0000
vn 1.0000 -0.0000 -0.0000
vn -0.8464 -0.4763 -0.2382
vn -0.6488 0.7303 -0.2140
vn 0.6488 -0.7303 -0.2140
vn 0.8464 0.4763 -0.2382
vt 0.217491 0.500000
vt 0.125000 0.750000
vt 0.125000 0.500000
vt 0.625000 0.296246
vt 0.578754 0.000000
vt 0.625000 0.000000
vt 0.313339 0.469170
vt 0.421246 0.750000
vt 0.313339 0.780830
vt 0.686661 0.469170
vt 0.578754 0.750000
vt 0.578754 0.500000
vt 0.217491 0.750000
vt 0.421246 0.250000
vt 0.421246 0.000000
vt 0.686661 0.780830
vt 0.578754 1.000000
vt 0.375000 0.907509
vt 0.782509 0.500000
vt 0.421246 0.500000
vt 0.578754 0.250000
vt 0.625000 0.907509
vt 0.421246 1.000000
vt 0.782509 0.750000
vt 0.375000 0.342491
s 0
usemtl no_texture
f 5/1/1 1/2/1 6/3/1
f 8/4/2 4/5/2 3/6/2
f 14/7/3 10/8/3 9/9/3
f 15/10/4 11/11/4 16/12/4
f 14/7/5 2/13/5 5/1/5
f 4/5/6 6/14/6 1/15/6
f 12/16/7 4/17/7 2/18/7
f 8/19/8 12/16/8 15/10/8
f 8/4/9 16/12/9 14/7/9
f 16/12/10 10/8/10 13/20/10
f 5/1/11 2/13/11 1/2/11
f 8/4/12 7/21/12 4/5/12
f 14/7/13 13/20/13 10/8/13
f 15/10/14 12/16/14 11/11/14
f 14/7/5 9/9/5 2/13/5
f 4/5/6 7/21/6 6/14/6
f 2/18/7 9/9/7 10/8/7
f 10/8/7 11/11/7 12/16/7
f 12/16/7 3/22/7 4/17/7
f 4/17/7 1/23/7 2/18/7
f 2/18/7 10/8/7 12/16/7
f 8/19/8 3/24/8 12/16/8
f 14/7/9 5/25/9 6/14/9
f 6/14/9 7/21/9 8/4/9
f 8/4/9 15/10/9 16/12/9
f 16/12/9 13/20/9 14/7/9
f 14/7/9 6/14/9 8/4/9
f 16/12/10 11/11/10 10/8/10
