# Blender 5.1.1
# www.blender.org
mtllib basic_1_2wide_adapter_offset.mtl
o basic_1_2wide_adapter_offset
v 0.000000 -0.732116 0.000000
v 0.267884 -1.000000 0.000000
v 0.267884 1.000000 0.000000
v 0.000000 0.732116 0.000000
v -0.732116 -1.000000 -1.000000
v -2.000000 -0.732116 -1.000000
v -2.000000 0.732116 -1.000000
v -0.732116 1.000000 -1.000000
v 1.732116 -1.000000 0.000000
v 2.000000 -0.732116 0.000000
v 2.000000 0.732116 0.000000
v 1.732116 1.000000 0.000000
v 2.000000 -0.732116 -1.000000
v 0.732116 -1.000000 -1.000000
v 0.732116 1.000000 -1.000000
v 2.000000 0.732116 -1.000000
vn -0.1910 -0.9042 0.3821
vn -0.5774 0.5774 0.5774
vn 0.7071 -0.7071 -0.0000
vn 0.2024 0.9581 -0.2024
vn -0.0000 -1.0000 -0.0000
vn -0.4472 -0.0000 0.8944
vn -0.0000 -0.0000 1.0000
vn -0.0000 1.0000 -0.0000
vn -0.0000 -0.0000 -1.0000
vn 1.0000 -0.0000 -0.0000
vn -0.5774 -0.5774 0.5774
vn -0.1910 0.9042 0.3821
vn 0.2024 -0.9581 -0.2024
vn 0.7071 0.7071 -0.0000
vt 0.158486 0.500000
vt 0.125000 0.750000
vt 0.125000 0.500000
vt 0.625000 0.266743
vt 0.591514 0.000000
vt 0.625000 0.000000
vt 0.352676 0.761162
vt 0.408486 0.500000
vt 0.408486 0.750000
vt 0.647324 0.761162
vt 0.591514 0.500000
vt 0.647324 0.488838
vt 0.352676 0.488838
vt 0.158486 0.750000
vt 0.408486 0.250000
vt 0.408486 0.000000
vt 0.591514 1.000000
vt 0.375000 0.966514
vt 0.841514 0.750000
vt 0.591514 0.250000
vt 0.591514 0.750000
vt 0.625000 0.966514
vt 0.408486 1.000000
vt 0.841514 0.500000
vt 0.375000 0.283486
s 0
usemtl no_texture
f 5/1/1 1/2/1 6/3/1
f 8/4/2 4/5/2 3/6/2
f 9/7/3 13/8/3 10/9/3
f 12/10/4 16/11/4 15/12/4
f 14/13/5 2/14/5 5/1/5
f 4/5/6 6/15/6 1/16/6
f 12/10/7 4/17/7 2/18/7
f 15/12/8 3/19/8 12/10/8
f 8/4/9 16/11/9 14/13/9
f 16/11/10 10/9/10 13/8/10
f 5/1/11 2/14/11 1/2/11
f 8/4/12 7/20/12 4/5/12
f 9/7/13 14/13/13 13/8/13
f 12/10/14 11/21/14 16/11/14
f 14/13/5 9/7/5 2/14/5
f 4/5/6 7/20/6 6/15/6
f 2/18/7 9/7/7 10/9/7
f 10/9/7 11/21/7 12/10/7
f 12/10/7 3/22/7 4/17/7
f 4/17/7 1/23/7 2/18/7
f 2/18/7 10/9/7 12/10/7
f 15/12/8 8/24/8 3/19/8
f 14/13/9 5/25/9 6/15/9
f 6/15/9 7/20/9 8/4/9
f 8/4/9 15/12/9 16/11/9
f 16/11/9 13/8/9 14/13/9
f 14/13/9 6/15/9 8/4/9
f 16/11/10 11/21/10 10/9/10
