# Blender 5.1.1
# www.blender.org
mtllib basic_4_4engine_shroud.mtl
o basic_4_4engine_shroud
v -3.000000 -2.344742 0.000000
v -1.068435 -4.000000 0.000000
v -1.068435 4.000000 0.000000
v -3.000000 2.344742 0.000000
v -1.002663 -3.822171 -1.000000
v -2.822171 -2.262940 -1.000000
v -2.822171 2.262940 -1.000000
v -1.002663 3.822171 -1.000000
v 1.068435 -4.000000 0.000000
v 3.000000 -2.344742 0.000000
v 3.000000 2.344742 0.000000
v 1.068435 4.000000 0.000000
v 2.822171 -2.262940 -1.000000
v 1.002663 -3.822171 -1.000000
v 1.002663 3.822171 -1.000000
v 2.822171 2.262940 -1.000000
v -3.000000 -2.344742 -2.500000
v -1.068435 -4.000000 -2.500000
v -1.068435 4.000000 -2.500000
v -3.000000 2.344742 -2.500000
v 1.068435 -4.000000 -2.500000
v 3.000000 -2.344742 -2.500000
v 3.000000 2.344742 -2.500000
v 1.068435 4.000000 -2.500000
v -2.822171 -2.262940 -2.999999
v -1.002663 -3.860240 -2.999999
v -1.002663 3.860240 -2.999999
v -2.822171 2.262940 -2.999999
v 1.002663 -3.860240 -2.999999
v 2.822171 -2.262940 -2.999999
v 2.822171 2.262940 -2.999999
v 1.002663 3.860240 -2.999999
vn -0.6507 -0.7593 -0.0000
vn -0.6507 0.7593 -0.0000
vn 0.6507 -0.7593 -0.0000
vn 0.6507 0.7593 -0.0000
vn -0.0000 -1.0000 -0.0000
vn -1.0000 -0.0000 -0.0000
vn -0.0000 1.0000 -0.0000
vn -0.0000 -0.0000 -1.0000
vn 1.0000 -0.0000 -0.0000
vn 0.6597 -0.7514 -0.0143
vn -0.0000 -0.9998 -0.0190
vn -0.6131 -0.7154 -0.3351
vn -0.6325 0.7204 -0.2846
vn 0.6325 -0.7204 -0.2846
vn 0.6131 0.7154 -0.3351
vn -0.0000 -0.9631 -0.2692
vn -0.9422 -0.0000 -0.3351
vn -0.0000 0.9631 -0.2692
vn 0.9422 -0.0000 -0.3351
vn -0.6597 0.7514 -0.0143
vn -0.0000 0.9998 -0.0190
vn 0.6597 0.7514 -0.0143
vn -0.6325 -0.7204 -0.2846
vn -0.6131 0.7154 -0.3351
vn 0.6131 -0.7154 -0.3351
vn 0.6325 0.7204 -0.2846
vn -0.6597 -0.7514 -0.0143
vt 0.217491 0.750000
vt 0.125000 0.500000
vt 0.217491 0.500000
vt 0.625000 0.296246
vt 0.578754 0.000000
vt 0.625000 0.000000
vt 0.313339 0.469170
vt 0.421246 0.750000
vt 0.313339 0.780830
vt 0.686661 0.780830
vt 0.578754 0.500000
vt 0.686661 0.469170
vt 0.421246 0.250000
vt 0.421246 0.000000
vt 0.782509 0.500000
vt 0.622432 0.305279
vt 0.577935 0.494567
vt 0.325678 0.461503
vt 0.421246 0.500000
vt 0.575811 0.256473
vt 0.377569 0.346267
vt 0.424189 0.258202
vt 0.422065 0.494703
vt 0.674322 0.459433
vt 0.375000 0.342491
vt 0.578754 0.250000
vt 0.125000 0.750000
vt 0.578754 0.750000
vt 0.782509 0.750000
s 0
usemtl no_texture
f 2/1/1 17/2/1 18/3/1
f 19/4/2 4/5/2 3/6/2
f 21/7/3 10/8/3 9/9/3
f 12/10/4 23/11/4 24/12/4
f 21/7/5 2/1/5 18/3/5
f 4/5/6 17/13/6 1/14/6
f 19/15/7 12/10/7 24/12/7
f 8/16/8 16/17/8 14/18/8
f 23/11/9 10/8/9 22/19/9
f 8/16/10 28/20/10 27/16/10
f 5/21/4 25/22/4 6/22/4
f 16/17/6 30/23/6 13/23/6
f 8/16/11 32/24/11 15/24/11
f 25/22/12 18/25/12 17/13/12
f 28/20/13 19/4/13 27/16/13
f 30/23/14 21/7/14 29/18/14
f 31/17/15 24/12/15 23/11/15
f 29/18/16 18/25/16 26/21/16
f 25/22/17 20/26/17 28/20/17
f 27/16/18 24/12/18 32/24/18
f 31/17/19 22/19/19 30/23/19
f 14/18/20 30/23/20 29/18/20
f 15/24/1 31/17/1 16/17/1
f 14/18/21 26/21/21 5/21/21
f 6/22/9 28/20/9 7/20/9
f 2/1/1 1/27/1 17/2/1
f 19/4/2 20/26/2 4/5/2
f 21/7/3 22/19/3 10/8/3
f 12/10/4 11/28/4 23/11/4
f 21/7/5 9/9/5 2/1/5
f 4/5/6 20/26/6 17/13/6
f 19/15/7 3/29/7 12/10/7
f 14/18/8 5/21/8 6/22/8
f 6/22/8 7/20/8 8/16/8
f 8/16/8 15/24/8 16/17/8
f 16/17/8 13/23/8 14/18/8
f 14/18/8 6/22/8 8/16/8
f 23/11/9 11/28/9 10/8/9
f 8/16/3 7/20/3 28/20/3
f 5/21/22 26/21/22 25/22/22
f 16/17/6 31/17/6 30/23/6
f 8/16/11 27/16/11 32/24/11
f 25/22/23 26/21/23 18/25/23
f 28/20/24 20/26/24 19/4/24
f 30/23/25 22/19/25 21/7/25
f 31/17/26 32/24/26 24/12/26
f 29/18/16 21/7/16 18/25/16
f 25/22/17 17/13/17 20/26/17
f 27/16/18 19/4/18 24/12/18
f 31/17/19 23/11/19 22/19/19
f 14/18/2 13/23/2 30/23/2
f 15/24/27 32/24/27 31/17/27
f 14/18/21 29/18/21 26/21/21
f 6/22/9 25/22/9 28/20/9
