# Blender 5.1.1
# www.blender.org
mtllib basic_1_2wide_adapter.mtl
o basic_1_2wide_adapter
v -1.000000 -0.732116 0.000000
v -0.732116 -1.000000 0.000000
v -0.732116 1.000000 0.000000
v -1.000000 0.732116 0.000000
v -0.732116 -1.000000 -1.000000
v -2.000000 -0.732116 -1.000000
v -2.000000 0.732116 -1.000000
v -0.732116 1.000000 -1.000000
v 0.732116 -1.000000 0.000000
v 1.000000 -0.732116 0.000000
v 1.000000 0.732116 0.000000
v 0.732116 1.000000 0.000000
v 2.000000 -0.732116 -1.000000
v 0.732116 -1.000000 -1.000000
v 0.732116 1.000000 -1.000000
v 2.000000 0.732116 -1.000000
vn -0.2024 -0.9581 0.2024
vn -0.7071 0.7071 -0.0000
vn 0.7071 -0.7071 -0.0000
vn 0.2024 0.9581 0.2024
vn -0.0000 -1.0000 -0.0000
vn -0.7071 -0.0000 0.7071
vn -0.0000 -0.0000 1.0000
vn -0.0000 1.0000 -0.0000
vn -0.0000 -0.0000 -1.0000
vn 0.7071 -0.0000 0.7071
vn -0.7071 -0.7071 -0.0000
vn -0.2024 0.9581 0.2024
vn 0.2024 -0.9581 0.2024
vn 0.7071 0.7071 -0.0000
vt 0.158486 0.500000
vt 0.125000 0.750000
vt 0.125000 0.500000
vt 0.625000 0.266743
vt 0.591514 0.000000
vt 0.625000 0.000000
vt 0.352676 0.488838
vt 0.408486 0.750000
vt 0.352676 0.761162
vt 0.647324 0.488838
vt 0.591514 0.750000
vt 0.591514 0.500000
vt 0.158486 0.750000
vt 0.408486 0.250000
vt 0.408486 0.000000
vt 0.647324 0.761162
vt 0.591514 1.000000
vt 0.375000 0.966514
vt 0.841514 0.500000
vt 0.408486 0.500000
vt 0.591514 0.250000
vt 0.625000 0.966514
vt 0.408486 1.000000
vt 0.841514 0.750000
vt 0.375000 0.283486
s 0
usemtl no_texture
f 5/1/1 1/2/1 6/3/1
f 8/4/2 4/5/2 3/6/2
f 14/7/3 10/8/3 9/9/3
f 15/10/4 11/11/4 16/12/4
f 14/7/5 2/13/5 5/1/5
f 4/5/6 6/14/6 1/15/6
f 12/16/7 4/17/7 2/18/7
f 8/19/8 12/16/8 15/10/8
f 8/4/9 16/12/9 14/7/9
f 16/12/10 10/8/10 13/20/10
f 5/1/11 2/13/11 1/2/11
f 8/4/12 7/21/12 4/5/12
f 14/7/13 13/20/13 10/8/13
f 15/10/14 12/16/14 11/11/14
f 14/7/5 9/9/5 2/13/5
f 4/5/6 7/21/6 6/14/6
f 2/18/7 9/9/7 10/8/7
f 10/8/7 11/11/7 12/16/7
f 12/16/7 3/22/7 4/17/7
f 4/17/7 1/23/7 2/18/7
f 2/18/7 10/8/7 12/16/7
f 8/19/8 3/24/8 12/16/8
f 14/7/9 5/25/9 6/14/9
f 6/14/9 7/21/9 8/4/9
f 8/4/9 15/10/9 16/12/9
f 16/12/9 13/20/9 14/7/9
f 14/7/9 6/14/9 8/4/9
f 16/12/10 11/11/10 10/8/10
