# Blender 5.1.1
# www.blender.org
mtllib basic_1_2wide_adapter_dual.mtl
o basic_1_2wide_adapter_dual
v 0.000000 -0.732116 0.000000
v 0.267884 -1.000000 0.000000
v 0.267884 1.000000 0.000000
v 0.000000 0.732116 0.000000
v -0.732116 -1.000000 -1.000000
v -2.000000 -0.732116 -1.000000
v -2.000000 0.732116 -1.000000
v -0.732116 1.000000 -1.000000
v 1.732116 -1.000000 0.000000
v 2.000000 -0.732116 0.000000
v 2.000000 0.732116 0.000000
v 1.732116 1.000000 0.000000
v 2.000000 -0.732116 -1.000000
v 0.732116 -1.000000 -1.000000
v 0.732116 1.000000 -1.000000
v 2.000000 0.732116 -1.000000
v -2.000000 -0.732116 0.000000
v -1.732116 -1.000000 0.000000
v -1.732116 1.000000 0.000000
v -2.000000 0.732116 0.000000
v -0.267884 -1.000000 0.000000
v -0.267884 1.000000 0.000000
vn 0.7071 -0.7071 -0.0000
vn 0.7071 0.7071 -0.0000
vn -0.2024 0.9581 -0.2024
vn -1.0000 -0.0000 -0.0000
vn -0.0000 -0.0000 1.0000
vn 1.0000 -0.0000 -0.0000
vn -0.0000 -0.0000 -1.0000
vn -0.7071 -0.7071 -0.0000
vn -0.0000 -1.0000 -0.0000
vn -0.0000 1.0000 -0.0000
vn 0.6718 0.6718 -0.3119
vn -0.6718 0.6718 -0.3119
vn -0.6718 -0.6718 -0.3119
vn 0.6718 -0.6718 -0.3119
vn -0.0000 -0.9659 0.2588
vn -0.0000 0.9659 0.2588
vn 0.2024 -0.9581 -0.2024
vn 0.2024 0.9581 -0.2024
vn -0.7071 0.7071 -0.0000
vn -0.2024 -0.9581 -0.2024
vt 0.352676 0.761162
vt 0.408486 0.500000
vt 0.408486 0.750000
vt 0.591514 0.500000
vt 0.647324 0.761162
vt 0.591514 0.750000
vt 0.591514 0.250000
vt 0.625000 0.966514
vt 0.625000 0.266743
vt 0.408486 1.000000
vt 0.408486 0.250000
vt 0.591514 1.000000
vt 0.375000 0.966514
vt 0.352676 0.488838
vt 0.375000 0.283486
vt 0.647324 0.488838
s 0
usemtl no_texture
f 9/1/1 13/2/1 10/3/1
f 16/4/2 12/5/2 11/6/2
f 7/7/3 19/8/3 8/9/3
f 17/10/4 7/7/4 6/11/4
f 12/5/5 4/12/5 2/13/5
f 11/6/6 13/2/6 16/4/6
f 8/9/7 16/4/7 14/14/7
f 22/5/5 20/12/5 18/13/5
f 6/11/8 18/13/8 17/10/8
f 2/13/9 14/14/9 9/1/9
f 18/13/9 5/15/9 21/1/9
f 12/5/10 15/16/10 3/8/10
f 19/8/10 22/5/10 8/9/10
f 4/6/11 8/9/11 22/5/11
f 3/8/12 15/16/12 4/12/12
f 1/10/13 14/14/13 2/13/13
f 21/1/14 5/15/14 1/3/14
f 5/15/15 14/14/15 1/3/15
f 15/16/16 8/9/16 4/12/16
f 9/1/17 14/14/17 13/2/17
f 16/4/18 15/16/18 12/5/18
f 7/7/19 20/12/19 19/8/19
f 17/10/4 20/12/4 7/7/4
f 2/13/5 9/1/5 10/3/5
f 10/3/5 11/6/5 12/5/5
f 12/5/5 3/8/5 4/12/5
f 4/12/5 1/10/5 2/13/5
f 2/13/5 10/3/5 12/5/5
f 11/6/6 10/3/6 13/2/6
f 14/14/7 5/15/7 6/11/7
f 6/11/7 7/7/7 8/9/7
f 8/9/7 15/16/7 16/4/7
f 16/4/7 13/2/7 14/14/7
f 14/14/7 6/11/7 8/9/7
f 18/13/5 21/1/5 1/3/5
f 1/3/5 4/6/5 22/5/5
f 22/5/5 19/8/5 20/12/5
f 20/12/5 17/10/5 18/13/5
f 18/13/5 1/3/5 22/5/5
f 6/11/20 5/15/20 18/13/20
