# Blender 5.1.1
# www.blender.org
mtllib basic_3_rotate_double.mtl
o basic_3_rotate_double
v -2.000000 -2.344742 2.000000
v -1.068435 -4.000000 2.000000
v -1.068435 4.000000 2.000000
v -2.000000 2.344742 2.000000
v -4.000000 3.068436 -2.000000
v -2.344742 4.000000 -2.000000
v 2.344742 4.000000 -2.000000
v 4.000000 3.068435 -2.000000
v 1.068435 -4.000000 2.000000
v 2.000000 -2.344742 2.000000
v 2.000000 2.344742 2.000000
v 1.068435 4.000000 2.000000
v -2.344742 0.000000 -2.000000
v -4.000000 0.931565 -2.000000
v 4.000000 0.931564 -2.000000
v 2.344742 -0.000000 -2.000000
v -4.000000 -0.931564 -2.000000
v -2.344742 0.000000 -2.000000
v 2.344742 0.000000 -2.000000
v 4.000000 -0.931565 -2.000000
v -2.344742 -4.000000 -2.000000
v -4.000000 -3.068435 -2.000000
v 4.000000 -3.068436 -2.000000
v 2.344742 -4.000000 -2.000000
vn -0.8396 0.4725 0.2679
vn 0.8396 0.4725 0.2679
vn -0.0000 -0.0000 1.0000
vn -0.0000 -0.0000 -1.0000
vn -0.0000 1.0000 -0.0000
vn -0.0000 -1.0000 -0.0000
vn 0.4549 -0.8083 0.3737
vn -0.8396 -0.4725 0.2679
vn 0.8944 -0.0000 0.4472
vn -0.8944 -0.0000 0.4472
vn -0.4292 0.7626 0.4840
vn -0.4292 -0.7626 0.4840
vn 0.4292 0.7626 0.4840
vn 0.4292 -0.7626 0.4840
vn -0.7019 0.7019 -0.1210
vn -0.9963 -0.0000 0.0859
vn -0.4549 0.8083 0.3737
vn 0.4549 0.8083 0.3737
vn 0.8396 -0.4725 0.2679
vn -0.4549 -0.8083 0.3737
vn 0.9963 -0.0000 0.0859
vn -0.6787 -0.6787 -0.2808
vt 0.421246 0.250000
vt 0.578754 1.000000
vt 0.625000 0.907509
vt 0.578754 0.750000
vt 0.578754 0.250000
vt 0.686661 0.780830
vt 0.375000 0.907509
vt 0.625000 0.296246
vt 0.578754 0.500000
vt 0.313339 0.469170
vt 0.313339 0.780830
vt 0.421246 0.750000
vt 0.686661 0.469170
vt 0.421246 1.000000
vt 0.421246 0.500000
vt 0.375000 0.342491
s 0
usemtl no_texture
f 6/1/1 4/2/1 3/3/1
f 11/4/2 7/5/2 12/6/2
f 12/6/3 4/2/3 2/7/3
f 8/8/4 16/9/4 14/10/4
f 12/6/5 6/1/5 3/3/5
f 20/8/4 24/9/4 22/10/4
f 2/7/6 24/9/6 9/11/6
f 10/12/7 24/9/7 23/13/7
f 1/14/8 21/15/8 2/7/8
f 23/13/9 20/8/9 10/12/9
f 8/8/9 11/4/9 15/13/9
f 4/2/10 5/16/10 14/10/10
f 22/10/10 1/14/10 17/16/10
f 17/16/11 1/14/11 18/1/11
f 14/10/12 13/15/12 4/2/12
f 19/5/13 10/12/13 20/8/13
f 15/13/14 11/4/14 16/9/14
f 11/4/15 19/5/15 16/9/15
f 4/2/16 18/1/16 1/14/16
f 6/1/17 5/16/17 4/2/17
f 11/4/18 8/8/18 7/5/18
f 2/7/3 9/11/3 10/12/3
f 10/12/3 11/4/3 12/6/3
f 12/6/3 3/3/3 4/2/3
f 4/2/3 1/14/3 2/7/3
f 2/7/3 10/12/3 12/6/3
f 14/10/4 5/16/4 6/1/4
f 6/1/4 7/5/4 8/8/4
f 8/8/4 15/13/4 16/9/4
f 16/9/4 13/15/4 14/10/4
f 14/10/4 6/1/4 8/8/4
f 12/6/5 7/5/5 6/1/5
f 22/10/4 17/16/4 18/1/4
f 18/1/4 19/5/4 20/8/4
f 20/8/4 23/13/4 24/9/4
f 24/9/4 21/15/4 22/10/4
f 22/10/4 18/1/4 20/8/4
f 2/7/6 21/15/6 24/9/6
f 10/12/19 9/11/19 24/9/19
f 1/14/20 22/10/20 21/15/20
f 11/4/21 10/12/21 19/5/21
f 4/2/22 13/15/22 18/1/22
