# Blender 5.1.1
# www.blender.org
mtllib basic_0_adapter_classic.mtl
o basic_0_adapter_classic
v -2.000000 -1.172371 0.000000
v -1.068435 -2.000000 0.000000
v -1.068435 2.000000 0.000000
v -2.000000 1.172371 0.000000
v 1.068435 -2.000000 0.000000
v 2.000000 -1.172371 0.000000
v 2.000000 1.172371 0.000000
v 1.068435 2.000000 0.000000
v 0.618034 1.902113 -2.000000
v 1.618034 1.175571 -2.000000
v 2.000000 0.000000 -2.000000
v 1.618034 -1.175570 -2.000000
v 0.618034 -1.902113 -2.000000
v -0.618034 -1.902113 -2.000000
v -1.618034 -1.175570 -2.000000
v -2.000000 0.000000 -2.000000
v -1.618034 1.175571 -2.000000
v -0.618034 1.902113 -2.000000
vn 0.6590 0.7417 -0.1247
vn -0.0000 -0.0000 1.0000
vn -0.0000 0.9988 -0.0489
vn 0.9358 -0.3041 -0.1782
vn 0.9358 0.3041 -0.1782
vn -0.5793 0.7973 -0.1695
vn -1.0000 -0.0000 -0.0000
vn -0.9358 -0.3041 -0.1782
vn -0.9358 0.3041 -0.1782
vn 1.0000 -0.0000 -0.0000
vn -0.0000 -0.9988 -0.0489
vn 0.5793 -0.7973 -0.1695
vn -0.5793 -0.7973 -0.1695
vn -0.0000 -0.0000 -1.0000
vn 0.5793 0.7973 -0.1695
vn -0.6590 0.7417 -0.1247
vn 0.6590 -0.7417 -0.1247
vn -0.6590 -0.7417 -0.1247
vt 0.891068 0.444164
vt 0.686661 0.469170
vt 0.000000 0.000000
vt 0.578754 0.500000
vt 0.625000 0.296246
vt 0.421246 0.250000
vt 0.750000 0.490000
vt 0.978254 0.324164
vt 0.978254 0.175836
vt 0.521746 0.324164
vt 0.608932 0.444164
vt 0.521746 0.175836
vt 0.608932 0.055836
vt 0.891068 0.055836
vt 0.375000 0.342491
vt 0.750000 0.010000
vt 0.313339 0.469170
vt 0.421246 0.500000
vt 0.578754 0.250000
s 0
usemtl no_texture
f 10/1/1 8/2/1 7/3/1
f 7/4/2 3/5/2 1/6/2
f 9/7/3 3/5/3 8/2/3
f 11/8/4 6/3/4 12/9/4
f 10/1/5 7/3/5 11/8/5
f 17/10/6 3/5/6 18/11/6
f 1/3/7 4/3/7 16/12/7
f 1/3/8 16/12/8 15/13/8
f 4/3/9 17/10/9 16/12/9
f 6/3/10 11/8/10 7/3/10
f 13/14/11 2/15/11 14/16/11
f 12/9/12 5/17/12 13/14/12
f 2/15/13 15/13/13 14/16/13
f 12/9/14 16/12/14 18/11/14
f 10/1/15 9/7/15 8/2/15
f 1/6/2 2/15/2 5/17/2
f 5/17/2 6/18/2 7/4/2
f 7/4/2 8/2/2 3/5/2
f 3/5/2 4/19/2 1/6/2
f 1/6/2 5/17/2 7/4/2
f 9/7/3 18/11/3 3/5/3
f 17/10/16 4/19/16 3/5/16
f 13/14/11 5/17/11 2/15/11
f 12/9/17 6/18/17 5/17/17
f 2/15/18 1/3/18 15/13/18
f 18/11/14 9/7/14 10/1/14
f 10/1/14 11/8/14 12/9/14
f 12/9/14 13/14/14 14/16/14
f 14/16/14 15/13/14 16/12/14
f 16/12/14 17/10/14 18/11/14
f 18/11/14 10/1/14 12/9/14
f 12/9/14 14/16/14 16/12/14
