# Blender 5.1.1
# www.blender.org
mtllib basic_3_cone_2.mtl
o basic_3_cone_2
v -1.014405 -2.097531 2.646242
v -1.014405 2.097531 2.646242
v -1.068435 -4.000000 -4.000000
v -2.000000 -2.344742 -4.000000
v -2.000000 2.344742 -4.000000
v -1.068435 4.000000 -4.000000
v 1.014405 -2.097531 2.646242
v 1.014405 2.097531 2.646242
v 2.000000 -2.344742 -4.000000
v 1.068435 -4.000000 -4.000000
v 1.068435 4.000000 -4.000000
v 2.000000 2.344742 -4.000000
v 0.748671 -0.971929 4.000000
v -0.748671 -0.971929 4.000000
v -0.748671 2.124193 4.000000
v 0.748671 2.124193 4.000000
vn -0.8621 -0.4852 0.1459
vn -0.8621 0.4852 0.1459
vn 0.8621 -0.4852 0.1459
vn 0.8621 0.4852 0.1459
vn -0.0000 -0.9614 0.2752
vn -0.9892 -0.0000 0.1467
vn -0.0000 0.9614 0.2752
vn -0.0000 -0.0000 -1.0000
vn 0.9892 -0.0000 0.1467
vn -0.9813 -0.0000 0.1926
vn -0.0000 -0.0000 1.0000
vn 0.9813 -0.0000 0.1926
vn -0.0000 -0.7689 0.6393
vn -0.0000 0.9998 -0.0197
vt 0.217491 0.500000
vt 0.125000 0.750000
vt 0.125000 0.500000
vt 0.625000 0.000000
vt 0.625000 0.296246
vt 0.578754 0.250000
vt 0.313339 0.780830
vt 0.313339 0.469170
vt 0.421246 0.500000
vt 0.686661 0.469170
vt 0.578754 0.750000
vt 0.578754 0.500000
vt 0.217491 0.750000
vt 0.578754 0.000000
vt 0.421246 0.250000
vt 0.421246 0.000000
vt 0.782509 0.500000
vt 0.686661 0.780830
vt 0.421246 0.750000
vt 0.782509 0.750000
vt 0.375000 0.342491
s 0
usemtl no_texture
f 3/1/1 1/2/1 4/3/1
f 2/4/2 6/5/2 5/6/2
f 7/7/3 10/8/3 9/9/3
f 11/10/4 8/11/4 12/12/4
f 10/8/5 1/13/5 3/1/5
f 2/14/6 4/15/6 1/16/6
f 6/17/7 8/18/7 11/10/7
f 6/5/8 12/12/8 10/8/8
f 12/12/9 7/19/9 9/9/9
f 2/14/10 14/16/10 15/14/10
f 13/19/11 15/14/11 14/16/11
f 8/11/12 13/19/12 7/19/12
f 7/7/13 14/13/13 1/13/13
f 2/20/14 16/18/14 8/18/14
f 10/8/5 7/7/5 1/13/5
f 2/14/6 5/6/6 4/15/6
f 6/17/7 2/20/7 8/18/7
f 10/8/8 3/21/8 4/15/8
f 4/15/8 5/6/8 6/5/8
f 6/5/8 11/10/8 12/12/8
f 12/12/8 9/9/8 10/8/8
f 10/8/8 4/15/8 6/5/8
f 12/12/9 8/11/9 7/19/9
f 2/14/10 1/16/10 14/16/10
f 13/19/11 16/18/11 15/14/11
f 8/11/12 16/11/12 13/19/12
f 7/7/13 13/7/13 14/13/13
f 2/20/14 15/20/14 16/18/14
