# Blender 5.1.1
# www.blender.org
mtllib basic_0.mtl
o basic_0
v -1.068435 -2.000000 -4.000000
v -2.000000 -1.172371 -4.000000
v -2.000000 1.172371 -4.000000
v -1.068435 2.000000 -4.000000
v 2.000000 -1.172371 -4.000000
v 1.068435 -2.000000 -4.000000
v 1.068435 2.000000 -4.000000
v 2.000000 1.172371 -4.000000
v -2.000000 -1.172371 4.000000
v -1.068435 -2.000000 4.000000
v -1.068435 2.000000 4.000000
v -2.000000 1.172371 4.000000
v 1.068435 -2.000000 4.000000
v 2.000000 -1.172371 4.000000
v 2.000000 1.172371 4.000000
v 1.068435 2.000000 4.000000
vn -0.0000 -0.0000 -1.0000
vn -0.0000 -0.0000 1.0000
vn -0.0000 1.0000 -0.0000
vn -0.0000 -1.0000 -0.0000
vn 0.6642 -0.7476 -0.0000
vn -0.6642 -0.7476 -0.0000
vn 1.0000 -0.0000 -0.0000
vn -1.0000 -0.0000 -0.0000
vn 0.6642 0.7476 -0.0000
vn -0.6642 0.7476 -0.0000
vt 0.625000 0.296246
vt 0.578754 0.500000
vt 0.313339 0.469170
vt 0.421246 0.250000
vt 0.686661 0.469170
vt 0.375000 0.342491
vt 0.421246 0.500000
vt 0.578754 0.250000
s 0
usemtl no_texture
f 4/1/1 8/2/1 6/3/1
f 15/2/2 11/1/2 9/4/2
f 11/1/3 7/5/3 4/1/3
f 13/3/4 1/6/4 6/3/4
f 14/7/5 6/3/5 5/7/5
f 10/6/6 2/4/6 1/6/6
f 15/2/7 5/7/7 8/2/7
f 9/4/8 3/8/8 2/4/8
f 16/5/9 8/2/9 7/5/9
f 12/8/10 4/1/10 3/8/10
f 6/3/1 1/6/1 2/4/1
f 2/4/1 3/8/1 4/1/1
f 4/1/1 7/5/1 8/2/1
f 8/2/1 5/7/1 6/3/1
f 6/3/1 2/4/1 4/1/1
f 9/4/2 10/6/2 13/3/2
f 13/3/2 14/7/2 15/2/2
f 15/2/2 16/5/2 11/1/2
f 11/1/2 12/8/2 9/4/2
f 9/4/2 13/3/2 15/2/2
f 11/1/3 16/5/3 7/5/3
f 13/3/4 10/6/4 1/6/4
f 14/7/5 13/3/5 6/3/5
f 10/6/6 9/4/6 2/4/6
f 15/2/7 14/7/7 5/7/7
f 9/4/8 12/8/8 3/8/8
f 16/5/9 15/2/9 8/2/9
f 12/8/10 11/1/10 4/1/10
