# Blender 5.1.1
# www.blender.org
mtllib basic_3_cone_1.mtl
o basic_3_cone_1
v -2.000000 -2.344742 -1.928002
v -1.068435 -3.364197 2.359066
v -1.068435 1.499078 4.000000
v -2.000000 2.344742 -1.928002
v -1.068435 -4.000000 -4.000000
v -2.000000 -2.344742 -4.000000
v -2.000000 2.344742 -4.000000
v -1.068435 4.000000 -4.000000
v 1.068435 -3.364197 2.359066
v 2.000000 -2.344742 -1.928002
v 2.000000 2.344742 -1.928002
v 1.068435 1.499078 4.000000
v 2.000000 -2.344742 -4.000000
v 1.068435 -4.000000 -4.000000
v 1.068435 4.000000 -4.000000
v 2.000000 2.344742 -4.000000
vn -0.8715 -0.4905 -0.0000
vn -0.7182 0.6641 0.2076
vn 0.8398 -0.5402 0.0540
vn 0.8715 0.4905 -0.0000
vn -0.0000 -0.9950 0.0995
vn -1.0000 -0.0000 -0.0000
vn -0.0000 -0.3197 0.9475
vn -0.0000 0.9544 0.2984
vn -0.0000 -0.0000 -1.0000
vn 1.0000 -0.0000 -0.0000
vn 0.9782 -0.0664 0.1968
vn -0.9782 -0.0664 0.1968
vn -0.8398 -0.5402 0.0540
vn -0.8715 0.4905 -0.0000
vn 0.8715 -0.4905 -0.0000
vn 0.7182 0.6641 0.2076
vn 0.9879 -0.0000 0.1552
vn -0.9879 -0.0000 0.1552
vt 0.217491 0.500000
vt 0.125000 0.750000
vt 0.125000 0.500000
vt 0.625000 0.296246
vt 0.578754 0.000000
vt 0.625000 0.000000
vt 0.313339 0.469170
vt 0.421246 0.750000
vt 0.313339 0.780830
vt 0.686661 0.469170
vt 0.578754 0.750000
vt 0.578754 0.500000
vt 0.217491 0.750000
vt 0.421246 0.250000
vt 0.421246 0.000000
vt 0.782509 0.750000
vt 0.782509 0.500000
vt 0.686661 0.780830
vt 0.421246 0.500000
vt 0.578754 0.250000
vt 0.375000 0.342491
s 0
usemtl no_texture
f 5/1/1 1/2/1 6/3/1
f 8/4/2 4/5/2 3/6/2
f 14/7/3 10/8/3 9/9/3
f 15/10/4 11/11/4 16/12/4
f 14/7/5 2/13/5 5/1/5
f 4/5/6 6/14/6 1/15/6
f 9/9/7 3/16/7 2/13/7
f 8/17/8 12/18/8 15/10/8
f 8/4/9 16/12/9 14/7/9
f 16/12/10 10/8/10 13/19/10
f 10/8/11 12/18/11 9/9/11
f 3/16/12 1/15/12 2/13/12
f 5/1/13 2/13/13 1/2/13
f 8/4/14 7/20/14 4/5/14
f 14/7/15 13/19/15 10/8/15
f 15/10/16 12/18/16 11/11/16
f 14/7/5 9/9/5 2/13/5
f 4/5/6 7/20/6 6/14/6
f 9/9/7 12/18/7 3/16/7
f 8/17/8 3/16/8 12/18/8
f 14/7/9 5/21/9 6/14/9
f 6/14/9 7/20/9 8/4/9
f 8/4/9 15/10/9 16/12/9
f 16/12/9 13/19/9 14/7/9
f 14/7/9 6/14/9 8/4/9
f 16/12/10 11/11/10 10/8/10
f 10/8/17 11/11/17 12/18/17
f 3/16/18 4/5/18 1/15/18
