# Blender 5.1.1
# www.blender.org
mtllib basic_3_cone_3.mtl
o basic_3_cone_3
v -1.246493 -1.461352 1.000000
v -0.665899 -2.492986 1.000000
v -0.665899 2.492986 1.000000
v -1.246493 1.461352 1.000000
v -1.068435 -4.000000 -4.000000
v -2.000000 -2.344742 -4.000000
v -2.000000 2.344742 -4.000000
v -1.068435 4.000000 -4.000000
v 0.665899 -2.492986 1.000000
v 1.246493 -1.461352 1.000000
v 1.246493 1.461352 1.000000
v 0.665899 2.492986 1.000000
v 2.000000 -2.344742 -4.000000
v 1.068435 -4.000000 -4.000000
v 1.068435 4.000000 -4.000000
v 2.000000 2.344742 -4.000000
v 1.292688 -1.597872 1.543139
v 1.292688 1.597872 1.543139
v 1.597855 -1.597872 2.482345
v 1.597855 1.597872 2.482345
v 1.292697 -1.597872 3.421549
v 1.292697 1.597872 3.421549
v 0.493763 -1.597872 4.002008
v 0.493763 1.597872 4.002008
v -0.493774 -1.597872 4.002008
v -0.493774 1.597872 4.002008
v -1.292702 -1.597872 3.421545
v -1.292702 1.597872 3.421545
v -1.597869 -1.597872 2.482338
v -1.597869 1.597872 2.482338
v -1.292711 -1.597872 1.543135
v -1.292711 1.597872 1.543135
v -0.443748 -2.739801 1.116646
v 0.443733 -2.739801 1.116646
v 0.443733 2.739801 1.116646
v -0.443748 2.739801 1.116646
v 1.161715 -2.739801 1.638298
v 1.161715 2.739801 1.638298
v 1.435963 -2.739801 2.482345
v 1.435963 2.739801 2.482345
v 1.161723 -2.739801 3.326390
v 1.161723 2.739801 3.326390
v 0.443735 -2.739801 3.848038
v 0.443735 2.739801 3.848038
v -0.443746 -2.739801 3.848038
v -0.443746 2.739801 3.848038
v -1.161728 -2.739801 3.326386
v -1.161728 2.739801 3.326386
v -1.435975 -2.739801 2.482339
v -1.435975 2.739801 2.482339
v -1.161735 -2.739801 1.638294
v -1.161735 2.739801 1.638294
vn -0.8515 -0.4792 0.2130
vn -0.8515 0.4792 0.2130
vn 0.8515 -0.4792 0.2130
vn 0.8515 0.4792 0.2130
vn -0.0000 -0.9575 0.2886
vn -0.9888 -0.0000 0.1490
vn -0.0000 0.9575 0.2886
vn -0.0000 -0.0000 -1.0000
vn 0.9888 -0.0000 0.1490
vn 0.9511 -0.0000 -0.3090
vn 0.9511 -0.0000 0.3090
vn 0.5878 -0.0000 0.8090
vn -0.0000 -0.0000 1.0000
vn -0.5878 -0.0000 0.8090
vn -0.9511 -0.0000 0.3090
vn -0.4344 0.6736 -0.5979
vn -0.9511 -0.0000 -0.3090
vn 0.5825 0.1336 0.8018
vn -0.0000 1.0000 -0.0000
vn -0.0000 -1.0000 -0.0000
vn 0.9425 -0.1336 -0.3062
vn -0.9425 -0.1336 0.3062
vn -0.0000 -0.4273 -0.9041
vn 0.9425 0.1336 -0.3062
vn -0.9425 0.1336 0.3062
vn -0.0000 0.4273 -0.9041
vn -0.0000 -0.1336 0.9910
vn -0.0000 0.1336 0.9910
vn 0.9425 -0.1336 0.3062
vn -0.9425 -0.1336 -0.3062
vn 0.9425 0.1336 0.3062
vn -0.9425 0.1336 -0.3062
vn 0.4344 -0.6736 -0.5979
vn -0.5825 -0.1336 0.8018
vn 0.7550 0.1400 -0.6406
vn -0.5825 0.1336 0.8018
vn 0.5825 -0.1336 0.8018
vn -0.7550 -0.1400 -0.6406
vn 0.8550 -0.4812 -0.1937
vn 0.8550 0.4812 -0.1937
vn -0.8550 0.4812 -0.1937
vn -0.8550 -0.4812 -0.1937
vn -0.9964 -0.0000 -0.0848
vn 0.9964 -0.0000 -0.0847
vn -0.7550 0.1400 -0.6406
vn 0.7550 -0.1400 -0.6406
vn 0.4344 0.6736 -0.5979
vn -0.4344 -0.6736 -0.5979
vt 0.217491 0.750000
vt 0.125000 0.500000
vt 0.217491 0.500000
vt 0.625000 0.000000
vt 0.578754 0.250000
vt 0.578754 0.000000
vt 0.313339 0.780830
vt 0.421246 0.500000
vt 0.421246 0.750000
vt 0.686661 0.780830
vt 0.578754 0.500000
vt 0.686661 0.469170
vt 0.313339 0.469170
vt 0.421246 0.250000
vt 0.421246 0.000000
vt 0.782509 0.500000
vt 0.625000 0.296246
vt 0.800000 1.000000
vt 0.700000 0.500000
vt 0.800000 0.500000
vt 0.700000 1.000000
vt 0.600000 0.500000
vt 0.600000 1.000000
vt 0.500000 0.500000
vt 0.500000 1.000000
vt 0.400000 0.500000
vt 0.400000 1.000000
vt 0.300000 0.500000
vt 0.300000 1.000000
vt 0.200000 0.500000
vt -0.000000 1.000000
vt 0.100000 1.000000
vt 0.200000 1.000000
vt 0.100000 0.500000
vt 0.021748 0.324164
vt 0.391068 0.055836
vt 0.478252 0.324164
vt 0.978252 0.175836
vt 0.521748 0.175836
vt 0.608932 0.444164
vt 1.000000 0.500000
vt 0.900000 0.500000
vt 1.000000 1.000000
vt 0.900000 1.000000
vt -0.000000 0.500000
vt 0.578754 0.750000
vt 0.125000 0.750000
vt 0.782509 0.750000
vt 0.375000 0.342491
vt 0.391068 0.444164
vt 0.250000 0.490000
vt 0.108932 0.444164
vt 0.021748 0.175836
vt 0.108932 0.055836
vt 0.250000 0.010000
vt 0.478252 0.175836
vt 0.750000 0.490000
vt 0.891068 0.444164
vt 0.978252 0.324164
vt 0.891068 0.055836
vt 0.750000 0.010000
vt 0.608932 0.055836
vt 0.521748 0.324164
s 0
usemtl no_texture
f 2/1/1 6/2/1 5/3/1
f 3/4/2 7/5/2 4/6/2
f 9/7/3 13/8/3 10/9/3
f 12/10/4 16/11/4 15/12/4
f 14/13/5 2/1/5 5/3/5
f 4/6/6 6/14/6 1/15/6
f 8/16/7 12/10/7 15/12/7
f 8/17/8 16/11/8 14/13/8
f 16/11/9 10/9/9 13/8/9
f 18/18/10 19/19/10 17/20/10
f 20/21/11 21/22/11 19/19/11
f 22/23/12 23/24/12 21/22/12
f 24/25/13 25/26/13 23/24/13
f 26/27/14 27/28/14 25/26/14
f 28/29/15 29/30/15 27/28/15
f 3/31/16 52/32/16 36/31/16
f 30/33/17 31/34/17 29/30/17
f 22/23/18 44/25/18 24/25/18
f 50/35/19 42/36/19 38/37/19
f 39/38/20 47/39/20 51/40/20
f 19/19/21 37/20/21 17/20/21
f 29/30/22 47/28/22 27/28/22
f 2/41/23 34/42/23 33/41/23
f 20/21/24 38/18/24 40/21/24
f 28/29/25 50/33/25 30/33/25
f 3/43/26 35/44/26 12/44/26
f 23/24/27 45/26/27 43/24/27
f 24/25/28 46/27/28 26/27/28
f 19/19/29 41/22/29 39/19/29
f 29/30/30 51/34/30 49/30/30
f 20/21/31 42/23/31 22/23/31
f 30/33/32 52/32/32 32/32/32
f 9/42/33 37/20/33 34/42/33
f 27/28/34 45/26/34 25/26/34
f 12/44/35 38/18/35 18/18/35
f 28/29/36 46/27/36 48/29/36
f 21/22/37 43/24/37 41/22/37
f 2/45/38 51/34/38 31/34/38
f 9/42/39 10/9/39 17/20/39
f 12/44/40 18/18/40 11/46/40
f 3/31/41 4/6/41 32/32/41
f 2/45/42 31/34/42 1/47/42
f 31/34/43 4/6/43 1/47/43
f 10/9/44 18/18/44 17/20/44
f 2/1/1 1/47/1 6/2/1
f 3/4/2 8/17/2 7/5/2
f 9/7/3 14/13/3 13/8/3
f 12/10/4 11/46/4 16/11/4
f 14/13/5 9/7/5 2/1/5
f 4/6/6 7/5/6 6/14/6
f 8/16/7 3/48/7 12/10/7
f 14/13/8 5/49/8 6/14/8
f 6/14/8 7/5/8 8/17/8
f 8/17/8 15/12/8 16/11/8
f 16/11/8 13/8/8 14/13/8
f 14/13/8 6/14/8 8/17/8
f 16/11/9 11/46/9 10/9/9
f 18/18/10 20/21/10 19/19/10
f 20/21/11 22/23/11 21/22/11
f 22/23/12 24/25/12 23/24/12
f 24/25/13 26/27/13 25/26/13
f 26/27/14 28/29/14 27/28/14
f 28/29/15 30/33/15 29/30/15
f 3/31/45 32/32/45 52/32/45
f 30/33/17 32/32/17 31/34/17
f 22/23/18 42/23/18 44/25/18
f 38/37/19 35/50/19 36/51/19
f 36/51/19 52/52/19 50/35/19
f 50/35/19 48/53/19 46/54/19
f 46/54/19 44/55/19 42/36/19
f 42/36/19 40/56/19 38/37/19
f 38/37/19 36/51/19 50/35/19
f 50/35/19 46/54/19 42/36/19
f 51/40/20 33/57/20 34/58/20
f 34/58/20 37/59/20 39/38/20
f 39/38/20 41/60/20 43/61/20
f 43/61/20 45/62/20 47/39/20
f 47/39/20 49/63/20 51/40/20
f 51/40/20 34/58/20 39/38/20
f 39/38/20 43/61/20 47/39/20
f 19/19/21 39/19/21 37/20/21
f 29/30/22 49/30/22 47/28/22
f 2/41/23 9/42/23 34/42/23
f 20/21/24 18/18/24 38/18/24
f 28/29/25 48/29/25 50/33/25
f 3/43/26 36/43/26 35/44/26
f 23/24/27 25/26/27 45/26/27
f 24/25/28 44/25/28 46/27/28
f 19/19/29 21/22/29 41/22/29
f 29/30/30 31/34/30 51/34/30
f 20/21/31 40/21/31 42/23/31
f 30/33/32 50/33/32 52/32/32
f 9/42/46 17/20/46 37/20/46
f 27/28/34 47/28/34 45/26/34
f 12/44/47 35/44/47 38/18/47
f 28/29/36 26/27/36 46/27/36
f 21/22/37 23/24/37 43/24/37
f 2/45/48 33/45/48 51/34/48
f 31/34/43 32/32/43 4/6/43
f 10/9/44 11/46/44 18/18/44
