# Blender 5.1.1
# www.blender.org
mtllib basic_1.mtl
o basic_1
v -1.000000 -0.732116 2.000000
v -0.732116 -1.000000 2.000000
v -0.732116 1.000000 2.000000
v -1.000000 0.732116 2.000000
v -0.732116 -1.000000 -2.000000
v -1.000000 -0.732116 -2.000000
v -1.000000 0.732116 -2.000000
v -0.732116 1.000000 -2.000000
v 0.732116 -1.000000 2.000000
v 1.000000 -0.732116 2.000000
v 1.000000 0.732116 2.000000
v 0.732116 1.000000 2.000000
v 1.000000 -0.732116 -2.000000
v 0.732116 -1.000000 -2.000000
v 0.732116 1.000000 -2.000000
v 1.000000 0.732116 -2.000000
vn -0.7071 -0.7071 -0.0000
vn -0.7071 0.7071 -0.0000
vn 0.7071 -0.7071 -0.0000
vn 0.7071 0.7071 -0.0000
vn -0.0000 -1.0000 -0.0000
vn -1.0000 -0.0000 -0.0000
vn -0.0000 -0.0000 1.0000
vn -0.0000 1.0000 -0.0000
vn -0.0000 -0.0000 -1.0000
vn 1.0000 -0.0000 -0.0000
vt 0.158486 0.750000
vt 0.125000 0.500000
vt 0.158486 0.500000
vt 0.625000 0.266743
vt 0.591514 0.000000
vt 0.625000 0.000000
vt 0.352676 0.488838
vt 0.408486 0.750000
vt 0.352676 0.761162
vt 0.647324 0.761162
vt 0.591514 0.500000
vt 0.647324 0.488838
vt 0.408486 0.250000
vt 0.408486 0.000000
vt 0.591514 1.000000
vt 0.375000 0.966514
vt 0.841514 0.500000
vt 0.408486 0.500000
vt 0.125000 0.750000
vt 0.591514 0.250000
vt 0.591514 0.750000
vt 0.625000 0.966514
vt 0.408486 1.000000
vt 0.841514 0.750000
vt 0.375000 0.283486
s 0
usemtl no_texture
f 2/1/1 6/2/1 5/3/1
f 8/4/2 4/5/2 3/6/2
f 14/7/3 10/8/3 9/9/3
f 12/10/4 16/11/4 15/12/4
f 14/7/5 2/1/5 5/3/5
f 4/5/6 6/13/6 1/14/6
f 12/10/7 4/15/7 2/16/7
f 8/17/8 12/10/8 15/12/8
f 8/4/9 16/11/9 14/7/9
f 16/11/10 10/8/10 13/18/10
f 2/1/1 1/19/1 6/2/1
f 8/4/2 7/20/2 4/5/2
f 14/7/3 13/18/3 10/8/3
f 12/10/4 11/21/4 16/11/4
f 14/7/5 9/9/5 2/1/5
f 4/5/6 7/20/6 6/13/6
f 2/16/7 9/9/7 10/8/7
f 10/8/7 11/21/7 12/10/7
f 12/10/7 3/22/7 4/15/7
f 4/15/7 1/23/7 2/16/7
f 2/16/7 10/8/7 12/10/7
f 8/17/8 3/24/8 12/10/8
f 14/7/9 5/25/9 6/13/9
f 6/13/9 7/20/9 8/4/9
f 8/4/9 15/12/9 16/11/9
f 16/11/9 13/18/9 14/7/9
f 14/7/9 6/13/9 8/4/9
f 16/11/10 11/21/10 10/8/10
