# Blender 5.1.1
# www.blender.org
mtllib basic_0_1engine_shroud.mtl
o basic_0_1engine_shroud
v -0.976346 -1.757692 -1.000000
v -1.757692 -1.063521 -1.000000
v -1.757692 1.063521 -1.000000
v -0.976346 1.757692 -1.000000
v 1.757692 -1.063521 -1.000000
v 0.976346 -1.757692 -1.000000
v 0.976346 1.757692 -1.000000
v 1.757692 1.063521 -1.000000
v -2.000000 -1.172371 0.000000
v -1.068435 -2.000000 0.000000
v -1.068435 2.000000 0.000000
v -2.000000 1.172371 0.000000
v 1.068435 -2.000000 0.000000
v 2.000000 -1.172371 0.000000
v 2.000000 1.172371 0.000000
v 1.068435 2.000000 0.000000
v -2.000000 -1.172371 -1.000000
v -1.068435 -2.000000 -1.000000
v -1.068435 2.000000 -1.000000
v -2.000000 1.172371 -1.000000
v 1.068435 -2.000000 -1.000000
v 2.000000 -1.172371 -1.000000
v 2.000000 1.172371 -1.000000
v 1.068435 2.000000 -1.000000
v -2.000000 -1.172371 -1.342740
v -1.068435 -2.000000 -1.342740
v -1.068435 2.000000 -1.342740
v -2.000000 1.172371 -1.342740
v 1.068435 -2.000000 -1.342740
v 2.000000 -1.172371 -1.342740
v 2.000000 1.172371 -1.342740
v 1.068435 2.000000 -1.342740
v -1.879321 -1.063521 -2.000000
v -0.976346 -1.934277 -2.000000
v -0.976346 1.934277 -2.000000
v -1.879321 1.063521 -2.000000
v 0.976346 -1.934277 -2.000000
v 1.879321 -1.063521 -2.000000
v 1.879321 1.063521 -2.000000
v 0.976346 1.934277 -2.000000
vn -0.0000 -0.0000 -1.0000
vn -0.0000 -0.0000 1.0000
vn -0.0000 1.0000 -0.0000
vn -0.0000 -1.0000 -0.0000
vn 0.6642 -0.7476 -0.0000
vn -0.6642 -0.7476 -0.0000
vn 1.0000 -0.0000 -0.0000
vn -1.0000 -0.0000 -0.0000
vn 0.6642 0.7476 -0.0000
vn -0.6642 0.7476 -0.0000
vn 0.6620 0.7452 -0.0805
vn -0.9927 -0.0000 -0.1207
vn -0.0000 -0.9848 -0.1739
vn 0.9927 -0.0000 -0.1207
vn -0.6450 -0.7260 -0.2387
vn -0.6844 0.7097 -0.1669
vn 0.6844 -0.7097 -0.1669
vn 0.6450 0.7260 -0.2387
vn -0.0000 -0.9950 -0.0995
vn -0.9836 -0.0000 -0.1806
vn -0.0000 0.9950 -0.0995
vn 0.9836 -0.0000 -0.1806
vn 0.6886 -0.7141 -0.1261
vn -0.6886 0.7141 -0.1261
vn -0.6620 -0.7452 -0.0805
vn -0.0000 0.9848 -0.1739
vn 0.6886 0.7141 -0.1261
vn -0.6844 -0.7097 -0.1669
vn -0.6450 0.7260 -0.2387
vn 0.6450 -0.7260 -0.2387
vn 0.6844 0.7097 -0.1669
vn 0.6620 -0.7452 -0.0805
vn -0.6620 0.7452 -0.0805
vn -0.6886 -0.7141 -0.1261
vt 0.613455 0.306742
vt 0.576432 0.488221
vt 0.342011 0.459560
vt 0.578754 0.500000
vt 0.625000 0.296246
vt 0.421246 0.250000
vt 0.686661 0.469170
vt 0.313339 0.469170
vt 0.375000 0.342491
vt 0.421246 0.500000
vt 0.578754 0.250000
vt 0.386545 0.342441
vt 0.429219 0.269249
vt 0.423568 0.488432
vt 0.657989 0.457262
vt 0.570781 0.264800
s 0
usemtl no_texture
f 4/1/1 8/2/1 6/3/1
f 15/4/2 11/5/2 9/6/2
f 11/5/3 24/7/3 19/5/3
f 13/8/4 18/9/4 21/8/4
f 14/10/5 21/8/5 22/10/5
f 10/9/6 17/6/6 18/9/6
f 15/4/7 22/10/7 23/4/7
f 9/6/8 20/11/8 17/6/8
f 16/7/9 23/4/9 24/7/9
f 12/11/10 19/5/10 20/11/10
f 21/8/5 30/10/5 22/10/5
f 1/12/11 33/13/11 2/13/11
f 8/2/12 38/14/12 5/14/12
f 19/5/10 28/11/10 20/11/10
f 4/1/13 40/15/13 7/15/13
f 17/6/6 26/9/6 18/9/6
f 22/10/7 31/4/7 23/4/7
f 2/13/14 36/16/14 3/16/14
f 33/13/15 26/9/15 25/6/15
f 36/16/16 27/5/16 35/1/16
f 38/14/17 29/8/17 37/3/17
f 39/2/18 32/7/18 31/4/18
f 37/3/19 26/9/19 34/12/19
f 33/13/20 28/11/20 36/16/20
f 35/1/21 32/7/21 40/15/21
f 39/2/22 30/10/22 38/14/22
f 4/1/23 36/16/23 35/1/23
f 23/4/9 32/7/9 24/7/9
f 6/3/24 38/14/24 37/3/24
f 18/9/4 29/8/4 21/8/4
f 7/15/25 39/2/25 8/2/25
f 20/11/8 25/6/8 17/6/8
f 6/3/26 34/12/26 1/12/26
f 24/7/3 27/5/3 19/5/3
f 6/3/1 1/12/1 2/13/1
f 2/13/1 3/16/1 4/1/1
f 4/1/1 7/15/1 8/2/1
f 8/2/1 5/14/1 6/3/1
f 6/3/1 2/13/1 4/1/1
f 9/6/2 10/9/2 13/8/2
f 13/8/2 14/10/2 15/4/2
f 15/4/2 16/7/2 11/5/2
f 11/5/2 12/11/2 9/6/2
f 9/6/2 13/8/2 15/4/2
f 11/5/3 16/7/3 24/7/3
f 13/8/4 10/9/4 18/9/4
f 14/10/5 13/8/5 21/8/5
f 10/9/6 9/6/6 17/6/6
f 15/4/7 14/10/7 22/10/7
f 9/6/8 12/11/8 20/11/8
f 16/7/9 15/4/9 23/4/9
f 12/11/10 11/5/10 19/5/10
f 21/8/5 29/8/5 30/10/5
f 1/12/27 34/12/27 33/13/27
f 8/2/12 39/2/12 38/14/12
f 19/5/10 27/5/10 28/11/10
f 4/1/13 35/1/13 40/15/13
f 17/6/6 25/6/6 26/9/6
f 22/10/7 30/10/7 31/4/7
f 2/13/14 33/13/14 36/16/14
f 33/13/28 34/12/28 26/9/28
f 36/16/29 28/11/29 27/5/29
f 38/14/30 30/10/30 29/8/30
f 39/2/31 40/15/31 32/7/31
f 37/3/19 29/8/19 26/9/19
f 33/13/20 25/6/20 28/11/20
f 35/1/21 27/5/21 32/7/21
f 39/2/22 31/4/22 30/10/22
f 4/1/32 3/16/32 36/16/32
f 23/4/9 31/4/9 32/7/9
f 6/3/33 5/14/33 38/14/33
f 18/9/4 26/9/4 29/8/4
f 7/15/34 40/15/34 39/2/34
f 20/11/8 28/11/8 25/6/8
f 6/3/26 37/3/26 34/12/26
f 24/7/3 32/7/3 27/5/3
