# Blender 5.1.1
# www.blender.org
mtllib basic_1_2engine_shroud.mtl
o basic_1_2engine_shroud
v -2.000000 -0.732116 1.000000
v -0.732116 -1.000000 1.000000
v -0.732116 1.000000 1.000000
v -2.000000 0.732116 1.000000
v -0.716248 -0.848139 -0.000000
v -1.848139 -0.608988 -0.000000
v -1.848139 0.608988 0.000000
v -0.716248 0.848139 0.000000
v 0.732116 -1.000000 1.000000
v 2.000000 -0.732116 1.000000
v 2.000000 0.732116 1.000000
v 0.732116 1.000000 1.000000
v 1.848139 -0.608988 -0.000000
v 0.716248 -0.848139 -0.000000
v 0.716248 0.848139 0.000000
v 1.848139 0.608988 0.000000
v -2.000000 -0.732116 -0.329113
v -1.503767 -1.000000 -0.329113
v -1.503767 1.000000 -0.329113
v -2.000000 0.732116 -0.329113
v 1.503767 -1.000000 -0.329113
v 2.000000 -0.732116 -0.329113
v 2.000000 0.732116 -0.329113
v 1.503767 1.000000 -0.329113
v -1.972806 -0.608988 -1.000000
v -1.471174 -0.939653 -1.000000
v -1.471174 0.939653 -1.000000
v -1.972806 0.608988 -1.000000
v 1.471174 -0.939653 -1.000000
v 1.972806 -0.608988 -1.000000
v 1.972806 0.608988 -1.000000
v 1.471174 0.939653 -1.000000
vn -0.4750 -0.8800 -0.0000
vn -0.2052 0.9714 0.1192
vn 0.2052 -0.9714 0.1192
vn 0.4750 0.8800 -0.0000
vn -0.0000 -1.0000 -0.0000
vn -1.0000 -0.0000 -0.0000
vn -0.0000 -0.0000 1.0000
vn -0.0000 1.0000 -0.0000
vn -0.0000 -0.0000 -1.0000
vn 1.0000 -0.0000 -0.0000
vn 0.9923 -0.0000 -0.1237
vn -0.0000 0.9958 -0.0911
vn -0.5491 -0.8330 -0.0685
vn -0.2008 0.9502 -0.2385
vn -0.5421 -0.8223 -0.1729
vn -0.4726 0.8754 -0.1017
vn 0.4726 -0.8754 -0.1017
vn 0.5421 0.8223 -0.1729
vn -0.0000 -0.9960 -0.0896
vn -0.9992 -0.0000 -0.0405
vn -0.0000 0.9960 -0.0896
vn 0.9992 -0.0000 -0.0405
vn -0.0000 -0.9958 -0.0911
vn -0.9923 -0.0000 -0.1237
vn 0.5491 0.8330 -0.0685
vn 0.2008 -0.9502 -0.2385
vn -0.2052 -0.9714 0.1192
vn -0.4750 0.8800 -0.0000
vn 0.4750 -0.8800 -0.0000
vn 0.2052 0.9714 0.1192
vn -0.2008 -0.9502 -0.2385
vn -0.5491 0.8330 -0.0685
vn -0.4726 -0.8754 -0.1017
vn -0.5421 0.8223 -0.1729
vn 0.5421 -0.8223 -0.1729
vn 0.4726 0.8754 -0.1017
vn 0.2008 0.9502 -0.2385
vn 0.5491 -0.8330 -0.0685
vt 0.158486 0.500000
vt 0.125000 0.750000
vt 0.125000 0.500000
vt 0.625000 0.266743
vt 0.591514 0.000000
vt 0.625000 0.000000
vt 0.352676 0.488838
vt 0.408486 0.750000
vt 0.352676 0.761162
vt 0.647324 0.488838
vt 0.591514 0.750000
vt 0.591514 0.500000
vt 0.158486 0.750000
vt 0.408486 0.250000
vt 0.408486 0.000000
vt 0.647324 0.761162
vt 0.591514 1.000000
vt 0.375000 0.966514
vt 0.841514 0.500000
vt 0.606720 0.282708
vt 0.577420 0.495899
vt 0.376455 0.473435
vt 0.408486 0.500000
vt 0.423922 0.255889
vt 0.576077 0.254916
vt 0.393280 0.295854
vt 0.623546 0.472908
vt 0.422580 0.495864
vt 0.591514 0.250000
vt 0.375000 0.283486
vt 0.625000 0.966514
vt 0.408486 1.000000
vt 0.841514 0.750000
s 0
usemtl no_texture
f 18/1/1 1/2/1 17/3/1
f 19/4/2 4/5/2 3/6/2
f 21/7/3 10/8/3 9/9/3
f 24/10/4 11/11/4 23/12/4
f 21/7/5 2/13/5 18/1/5
f 4/5/6 17/14/6 1/15/6
f 12/16/7 4/17/7 2/18/7
f 19/19/8 12/16/8 24/10/8
f 8/20/9 16/21/9 14/22/9
f 23/12/10 10/8/10 22/23/10
f 6/24/11 28/25/11 7/25/11
f 14/22/12 26/26/12 5/26/12
f 16/21/13 32/27/13 31/21/13
f 13/28/14 29/22/14 14/22/14
f 26/26/15 17/14/15 25/24/15
f 27/20/16 20/29/16 19/4/16
f 29/22/17 22/23/17 21/7/17
f 32/27/18 23/12/18 31/21/18
f 29/22/19 18/30/19 26/26/19
f 25/24/20 20/29/20 28/25/20
f 27/20/21 24/10/21 32/27/21
f 31/21/22 22/23/22 30/28/22
f 8/20/23 32/27/23 15/27/23
f 16/21/24 30/28/24 13/28/24
f 6/24/25 26/26/25 25/24/25
f 7/25/26 27/20/26 8/20/26
f 18/1/27 2/13/27 1/2/27
f 19/4/28 20/29/28 4/5/28
f 21/7/29 22/23/29 10/8/29
f 24/10/30 12/16/30 11/11/30
f 21/7/5 9/9/5 2/13/5
f 4/5/6 20/29/6 17/14/6
f 2/18/7 9/9/7 10/8/7
f 10/8/7 11/11/7 12/16/7
f 12/16/7 3/31/7 4/17/7
f 4/17/7 1/32/7 2/18/7
f 2/18/7 10/8/7 12/16/7
f 19/19/8 3/33/8 12/16/8
f 14/22/9 5/26/9 6/24/9
f 6/24/9 7/25/9 8/20/9
f 8/20/9 15/27/9 16/21/9
f 16/21/9 13/28/9 14/22/9
f 14/22/9 6/24/9 8/20/9
f 23/12/10 11/11/10 10/8/10
f 6/24/11 25/24/11 28/25/11
f 14/22/12 29/22/12 26/26/12
f 16/21/31 15/27/31 32/27/31
f 13/28/32 30/28/32 29/22/32
f 26/26/33 18/30/33 17/14/33
f 27/20/34 28/25/34 20/29/34
f 29/22/35 30/28/35 22/23/35
f 32/27/36 24/10/36 23/12/36
f 29/22/19 21/7/19 18/30/19
f 25/24/20 17/14/20 20/29/20
f 27/20/21 19/4/21 24/10/21
f 31/21/22 23/12/22 22/23/22
f 8/20/23 27/20/23 32/27/23
f 16/21/24 31/21/24 30/28/24
f 6/24/37 5/26/37 26/26/37
f 7/25/38 28/25/38 27/20/38
