# Blender 5.1.1
# www.blender.org
mtllib basic_1_2wide_cone_0.mtl
o basic_1_2wide_cone_0
v -0.625984 -0.226964 2.000000
v -0.368886 -1.000000 0.010023
v -0.368886 1.000000 0.010023
v -0.625984 0.226964 2.000000
v -0.732116 -1.000000 -2.000000
v -2.000000 -0.732116 -2.000000
v -2.000000 0.732116 -2.000000
v -0.732116 1.000000 -2.000000
v 0.368886 -1.000000 0.010023
v 0.625984 -0.226964 2.000000
v 0.625984 0.226964 2.000000
v 0.368886 1.000000 0.010023
v 2.000000 -0.732116 -2.000000
v 0.732116 -1.000000 -2.000000
v 0.732116 1.000000 -2.000000
v 2.000000 0.732116 -2.000000
vn -0.2066 -0.9777 0.0373
vn -0.4674 0.8428 0.2670
vn 0.4674 -0.8428 0.2670
vn 0.2066 0.9777 0.0373
vn -0.0000 -1.0000 -0.0000
vn -0.9458 -0.0000 0.3249
vn -0.0000 -0.0000 1.0000
vn -0.0000 1.0000 -0.0000
vn -0.0000 -0.0000 -1.0000
vn 0.9458 -0.0000 0.3249
vn -0.0000 0.9321 0.3621
vn -0.0000 -0.9321 0.3621
vn -0.4674 -0.8428 0.2670
vn -0.2066 0.9777 0.0373
vn 0.2066 -0.9777 0.0373
vn 0.4674 0.8428 0.2670
vt 0.158486 0.750000
vt 0.125000 0.500000
vt 0.158486 0.500000
vt 0.625000 0.000000
vt 0.591514 0.250000
vt 0.591514 0.000000
vt 0.352676 0.761162
vt 0.408486 0.500000
vt 0.408486 0.750000
vt 0.647324 0.761162
vt 0.591514 0.500000
vt 0.647324 0.488838
vt 0.352676 0.488838
vt 0.408486 0.250000
vt 0.408486 0.000000
vt 0.591514 0.750000
vt 0.841514 0.500000
vt 0.625000 0.266743
vt 0.841514 0.750000
vt 0.125000 0.750000
vt 0.375000 0.283486
s 0
usemtl no_texture
f 2/1/1 6/2/1 5/3/1
f 3/4/2 7/5/2 4/6/2
f 9/7/3 13/8/3 10/9/3
f 12/10/4 16/11/4 15/12/4
f 14/13/5 2/1/5 5/3/5
f 4/6/6 6/14/6 1/15/6
f 1/15/7 11/16/7 4/6/7
f 8/17/8 12/10/8 15/12/8
f 8/18/9 16/11/9 14/13/9
f 16/11/10 10/9/10 13/8/10
f 11/16/11 3/19/11 4/6/11
f 9/7/12 1/15/12 2/1/12
f 2/1/13 1/20/13 6/2/13
f 3/4/14 8/18/14 7/5/14
f 9/7/15 14/13/15 13/8/15
f 12/10/16 11/16/16 16/11/16
f 14/13/5 9/7/5 2/1/5
f 4/6/6 7/5/6 6/14/6
f 1/15/7 10/9/7 11/16/7
f 8/17/8 3/19/8 12/10/8
f 14/13/9 5/21/9 6/14/9
f 6/14/9 7/5/9 8/18/9
f 8/18/9 15/12/9 16/11/9
f 16/11/9 13/8/9 14/13/9
f 14/13/9 6/14/9 8/18/9
f 16/11/10 11/16/10 10/9/10
f 11/16/11 12/10/11 3/19/11
f 9/7/12 10/9/12 1/15/12
