# Blender 5.1.1
# www.blender.org
mtllib container.mtl
o container
v -1.159000 -1.195000 1.936826
v -1.159000 1.195000 1.936826
v -1.159000 -1.195000 -3.923174
v -1.159000 1.195000 -3.923174
v 1.159000 -1.195000 1.936826
v 1.159000 1.195000 1.936826
v 1.159000 -1.195000 -3.923174
v 1.159000 1.195000 -3.923174
v 1.120000 1.230250 -3.923174
v 1.120000 -1.230250 -3.923174
v 1.120000 -1.230250 1.936826
v 1.120000 1.230250 1.936826
v -1.120000 -1.230250 -3.923174
v -1.120000 -1.230250 1.936826
v -1.120000 1.230250 1.936826
v -1.120000 1.230250 -3.923174
v -1.120000 1.195000 1.961711
v -1.120000 1.195000 -3.948060
v 1.120000 1.195000 -3.948060
v 1.120000 1.195000 1.961711
v -1.120000 -1.195000 -3.948060
v -1.120000 -1.195000 1.961711
v 1.120000 -1.195000 -3.948060
v 1.120000 -1.195000 1.961711
v -1.220000 -1.295000 2.036826
v -1.220000 1.295000 2.036826
v -1.220000 1.295000 -4.023174
v -1.220000 -1.295000 -4.023174
v 1.220000 -1.295000 -4.023174
v 1.220000 1.295000 -4.023174
v 1.220000 1.295000 2.036826
v 1.220000 -1.295000 2.036826
vn -1.0000 -0.0000 -0.0000
vn -0.0000 -0.0000 -1.0000
vn 1.0000 -0.0000 -0.0000
vn -0.0000 -0.0000 1.0000
vn -0.0000 -1.0000 -0.0000
vn -0.0000 1.0000 -0.0000
vn 0.8537 -0.0000 0.5208
vn 0.8537 0.5208 -0.0000
vn 0.8537 -0.5208 -0.0000
vn 0.8537 -0.0000 -0.5208
vn -0.8537 0.5208 -0.0000
vn -0.8537 -0.0000 -0.5208
vn -0.8537 -0.5208 -0.0000
vn -0.8537 -0.0000 0.5208
vn 0.5435 0.8394 -0.0000
vn -0.0000 0.8394 0.5435
vn -0.5435 0.8394 -0.0000
vn -0.0000 0.8394 -0.5435
vn 0.5435 -0.8394 -0.0000
vn -0.0000 -0.8394 0.5435
vn -0.5435 -0.8394 -0.0000
vn -0.0000 -0.8394 -0.5435
vn 0.6006 -0.0000 0.7996
vn 0.6006 -0.0000 -0.7996
vn -0.0000 0.6006 -0.7996
vn -0.0000 -0.6006 -0.7996
vn -0.6006 -0.0000 -0.7996
vn -0.6006 -0.0000 0.7996
vn -0.0000 0.6006 0.7996
vn -0.0000 -0.6006 0.7996
vt 1.490214 1.386121
vt -0.595196 0.535587
vt 1.490214 0.535587
vt 0.366629 0.266741
vt 0.633371 0.016741
vt 0.633371 0.266741
vt -0.595196 -1.254449
vt 1.490213 -0.403915
vt -0.595196 -0.403914
vt 0.366630 0.516741
vt 0.633371 0.516741
vt -0.595196 -0.332740
vt 1.490213 0.464413
vt -0.595196 0.464413
vt -0.595196 1.457296
vt 1.490213 2.254448
vt -0.595196 2.254449
vt -0.630783 -1.290035
vt -0.630783 -0.368327
vt 1.525801 -1.290036
vt 1.490213 -1.254449
vt 1.525801 -0.368327
vt 1.525801 0.500000
vt 1.525801 1.421708
vt -0.630783 1.421709
vt -0.595196 1.386121
vt -0.630783 0.500000
vt 1.490213 1.457295
vt -0.630783 2.290036
vt 1.525801 2.290035
vt 1.490213 -0.332740
vt 1.561388 1.457296
vt 2.447509 1.421708
vt 2.411922 1.457296
vt -1.516904 1.457296
vt -0.666370 1.457296
vt -1.516904 2.254449
vt -1.552491 1.421708
vt -0.666371 2.254448
vt -1.552491 2.290036
vt 2.411922 2.254449
vt 1.561388 2.254448
vt 2.447509 2.290036
vt 0.366630 0.016741
vt 0.366630 0.266741
s 0
usemtl corrugated_wall
f 2/1/1 3/2/1 1/3/1
f 18/4/2 23/5/2 21/6/2
f 8/7/3 5/8/3 7/9/3
f 20/10/4 22/6/4 24/11/4
f 10/12/5 14/13/5 13/14/5
f 16/15/6 12/16/6 9/17/6
f 2/1/1 4/26/1 3/2/1
f 18/4/2 19/44/2 23/5/2
f 8/7/3 6/21/3 5/8/3
f 20/10/4 17/45/4 22/6/4
f 10/12/5 11/31/5 14/13/5
f 16/15/6 15/28/6 12/16/6
usemtl no_texture
f 7/9/7 30/18/7 8/7/7
f 5/8/8 29/19/8 7/9/8
f 8/7/9 31/20/9 6/21/9
f 6/21/10 32/22/10 5/8/10
f 3/2/11 25/23/11 1/3/11
f 1/3/12 26/24/12 2/1/12
f 2/1/13 27/25/13 4/26/13
f 4/26/14 28/27/14 3/2/14
f 16/15/15 26/24/15 15/28/15
f 9/17/16 27/25/16 16/15/16
f 12/16/17 30/29/17 9/17/17
f 15/28/18 31/30/18 12/16/18
f 14/13/19 28/27/19 13/14/19
f 13/14/20 29/19/20 10/12/20
f 10/12/21 32/22/21 11/31/21
f 11/31/22 25/23/22 14/13/22
f 17/32/23 25/33/23 22/34/23
f 21/35/24 27/25/24 18/36/24
f 23/37/25 28/38/25 21/35/25
f 18/36/26 30/29/26 19/39/26
f 19/39/27 29/40/27 23/37/27
f 24/41/28 31/30/28 20/42/28
f 22/34/29 32/43/29 24/41/29
f 20/42/30 26/24/30 17/32/30
f 7/9/7 29/19/7 30/18/7
f 5/8/8 32/22/8 29/19/8
f 8/7/9 30/18/9 31/20/9
f 6/21/10 31/20/10 32/22/10
f 3/2/11 28/27/11 25/23/11
f 1/3/12 25/23/12 26/24/12
f 2/1/13 26/24/13 27/25/13
f 4/26/14 27/25/14 28/27/14
f 16/15/15 27/25/15 26/24/15
f 9/17/16 30/29/16 27/25/16
f 12/16/17 31/30/17 30/29/17
f 15/28/18 26/24/18 31/30/18
f 14/13/19 25/23/19 28/27/19
f 13/14/20 28/27/20 29/19/20
f 10/12/21 29/19/21 32/22/21
f 11/31/22 32/22/22 25/23/22
f 17/32/23 26/24/23 25/33/23
f 21/35/24 28/38/24 27/25/24
f 23/37/25 29/40/25 28/38/25
f 18/36/26 27/25/26 30/29/26
f 19/39/27 30/29/27 29/40/27
f 24/41/28 32/43/28 31/30/28
f 22/34/29 25/33/29 32/43/29
f 20/42/30 31/30/30 26/24/30
