# Blender 5.1.1
# www.blender.org
mtllib engine_alien_0_trail.mtl
o engine_alien_0_trail
v -0.000000 -0.500327 -3.937188
v 0.353784 -0.353784 -3.937188
v 0.500326 0.000000 -3.937188
v 0.353784 0.353784 -3.937188
v -0.000000 0.500327 -3.937188
v -0.353784 0.353784 -3.937188
v -0.500326 0.000000 -3.937188
v -0.353784 -0.353784 -3.937188
v -0.000000 0.000000 -19.823753
v -0.505619 -1.220673 -5.435521
v 0.505619 -1.220673 -5.435521
v 1.220673 -0.505619 -5.435521
v 1.220673 0.505619 -5.435521
v 0.505619 1.220673 -5.435521
v -0.505619 1.220673 -5.435521
v -1.220673 0.505620 -5.435521
v -1.220673 -0.505619 -5.435521
v -0.265342 -0.640591 -1.930853
v 0.265341 -0.640591 -1.930853
v 0.640591 -0.265342 -1.930853
v 0.640591 0.265342 -1.930853
v 0.265342 0.640591 -1.930853
v -0.265341 0.640591 -1.930853
v -0.640591 0.265342 -1.930853
v -0.640591 -0.265342 -1.930853
v -0.000000 -0.802995 -2.870313
v 0.567803 -0.567803 -2.870313
v 0.802995 -0.000000 -2.870313
v 0.567803 0.567803 -2.870313
v 0.000000 0.802994 -2.870313
v -0.567803 0.567803 -2.870313
v -0.802995 0.000000 -2.870313
v -0.567803 -0.567803 -2.870313
vn 0.3825 -0.9235 -0.0291
vn 0.9235 -0.3825 -0.0291
vn 0.9235 0.3825 -0.0291
vn 0.3825 0.9235 -0.0291
vn -0.3825 0.9235 -0.0291
vn -0.9235 0.3825 -0.0291
vn -0.9235 -0.3825 -0.0291
vn -0.3825 -0.9235 -0.0291
vn -0.9854 -0.0000 0.1703
vn -0.0000 0.9854 0.1703
vn 0.9854 -0.0000 0.1703
vn -0.0000 -0.9854 0.1703
vn -0.6968 -0.6968 0.1703
vn -0.6968 0.6968 0.1703
vn 0.6968 0.6968 0.1703
vn 0.6968 -0.6968 0.1703
vn -0.9861 0.0207 0.1646
vn -0.9861 -0.0207 0.1646
vn 0.0207 0.9861 0.1646
vn -0.0207 0.9861 0.1646
vn 0.9861 -0.0207 0.1646
vn 0.9861 0.0207 0.1646
vn -0.0207 -0.9861 0.1646
vn 0.0207 -0.9861 0.1646
vn -0.7119 -0.6827 0.1646
vn -0.6827 -0.7119 0.1646
vn -0.6827 0.7119 0.1646
vn -0.7119 0.6827 0.1646
vn 0.7119 0.6827 0.1646
vn 0.6827 0.7119 0.1646
vn 0.6827 -0.7119 0.1646
vn 0.7119 -0.6827 0.1646
vt 0.250000 0.490000
vt 0.250000 0.250000
vt 0.419706 0.419706
vt 0.490000 0.250000
vt 0.419706 0.080294
vt 0.250000 0.010000
vt 0.080294 0.080294
vt 0.010000 0.250000
vt 0.080294 0.419706
vt 0.545147 0.334853
vt 0.580294 0.419706
vt 0.510000 0.250000
vt 0.665147 0.045147
vt 0.580294 0.080294
vt 0.750000 0.010000
vt 0.954853 0.165147
vt 0.919706 0.080294
vt 0.990000 0.250000
vt 0.834853 0.454853
vt 0.919706 0.419706
vt 0.750000 0.490000
vt 0.665147 0.454853
vt 0.545147 0.165147
vt 0.834853 0.045147
vt 0.954853 0.334853
s 0
usemtl burn_0
f 1/1/1 9/2/1 2/3/1
f 2/3/2 9/2/2 3/4/2
f 3/4/3 9/2/3 4/5/3
f 4/5/4 9/2/4 5/6/4
f 5/6/5 9/2/5 6/7/5
f 6/7/6 9/2/6 7/8/6
f 7/8/7 9/2/7 8/9/7
f 8/9/8 9/2/8 1/1/8
f 32/10/9 25/11/9 24/12/9
f 30/13/10 23/14/10 22/15/10
f 28/16/11 21/17/11 20/18/11
f 26/19/12 19/20/12 18/21/12
f 33/22/13 18/21/13 25/11/13
f 31/23/14 24/12/14 23/14/14
f 29/24/15 22/15/15 21/17/15
f 27/25/16 20/18/16 19/20/16
f 24/12/17 16/12/17 32/10/17
f 32/10/18 17/11/18 25/11/18
f 22/15/19 14/15/19 30/13/19
f 30/13/20 15/14/20 23/14/20
f 20/18/21 12/18/21 28/16/21
f 28/16/22 13/17/22 21/17/22
f 18/21/23 10/21/23 26/19/23
f 26/19/24 11/20/24 19/20/24
f 25/11/25 17/11/25 33/22/25
f 33/22/26 10/21/26 18/21/26
f 23/14/27 15/14/27 31/23/27
f 31/23/28 16/12/28 24/12/28
f 21/17/29 13/17/29 29/24/29
f 29/24/30 14/15/30 22/15/30
f 19/20/31 11/20/31 27/25/31
f 27/25/32 12/18/32 20/18/32
