# Blender 5.1.1
# www.blender.org
mtllib engine_chemical_0.mtl
o engine_chemical_0
v -0.650044 -0.649515 0.000000
v -0.650044 0.650572 0.000000
v -0.302749 -0.419514 -0.623486
v -0.420042 0.303277 -0.623486
v 0.650044 -0.649515 0.000000
v 0.650044 0.650572 0.000000
v 0.420042 -0.302221 -0.623486
v 0.302749 0.420570 -0.623486
v -0.527520 0.528048 -0.623486
v -0.527520 -0.526992 -0.623486
v 0.527520 -0.526992 -0.623486
v 0.527520 0.528048 -0.623486
v -0.496860 -0.116765 -0.623486
v 0.117293 -0.496332 -0.623486
v -0.117293 0.497389 -0.623486
v 0.496860 0.117821 -0.623486
v 0.227176 -0.163211 -1.078002
v 0.163739 0.227704 -1.078002
v 0.268723 0.063965 -1.078002
v 0.063437 -0.268195 -1.078002
v -0.227176 0.164267 -1.078002
v -0.268723 -0.062909 -1.078002
v -0.163739 -0.226648 -1.078002
v -0.063437 0.269251 -1.078002
v -0.163739 -0.226648 -0.868286
v -0.227176 0.164267 -0.868286
v 0.227176 -0.163211 -0.868286
v 0.163739 0.227704 -0.868286
v -0.268723 -0.062909 -0.868286
v 0.063437 -0.268195 -0.868286
v -0.063437 0.269251 -0.868286
v 0.268723 0.063965 -0.868286
v -0.152880 -0.152352 -2.542623
v -0.152880 0.153409 -2.542623
v 0.152880 -0.152352 -2.542623
v 0.152880 0.153409 -2.542623
v -0.216206 0.000528 -2.542623
v 0.000000 -0.215677 -2.542623
v 0.000000 0.216734 -2.542623
v 0.216206 0.000528 -2.542623
v -0.193380 -0.096162 -2.542623
v -0.096690 -0.192852 -2.542623
v 0.096690 0.193908 -2.542623
v 0.193380 -0.096162 -2.542623
v -0.193380 0.097218 -2.542623
v 0.096690 -0.192852 -2.542623
v -0.096690 0.193908 -2.542623
v 0.193380 0.097218 -2.542623
v -0.250005 -0.249476 -2.992507
v -0.250005 0.250533 -2.992507
v 0.250005 -0.249476 -2.992507
v 0.250005 0.250533 -2.992507
v -0.353560 0.000528 -2.992507
v 0.000000 -0.353032 -2.992507
v 0.000000 0.354088 -2.992507
v 0.353560 0.000528 -2.992507
v -0.316233 -0.157589 -2.992507
v -0.158117 -0.315705 -2.992507
v 0.158117 0.316762 -2.992507
v 0.316233 -0.157589 -2.992507
v -0.316233 0.158645 -2.992507
v 0.158117 -0.315705 -2.992507
v -0.158117 0.316762 -2.992507
v 0.316233 0.158645 -2.992507
v -0.337284 -0.336755 -3.509140
v -0.337284 0.337812 -3.509140
v 0.337284 -0.336755 -3.509140
v 0.337284 0.337812 -3.509140
v -0.476991 0.000528 -3.509140
v 0.000000 -0.476463 -3.509140
v 0.000000 0.477519 -3.509140
v 0.476991 0.000528 -3.509140
v -0.426634 -0.212789 -3.509140
v -0.213317 -0.426106 -3.509140
v 0.213317 0.427162 -3.509140
v 0.426634 -0.212789 -3.509140
v -0.426634 0.213845 -3.509140
v 0.213317 -0.426106 -3.509140
v -0.213317 0.427162 -3.509140
v 0.426634 0.213845 -3.509140
v -0.392917 -0.392388 -4.000001
v -0.392917 0.393445 -4.000001
v 0.392917 -0.392388 -4.000001
v 0.392917 0.393445 -4.000001
v -0.555668 0.000528 -4.000001
v 0.000000 -0.555140 -4.000001
v 0.000000 0.556196 -4.000001
v 0.555668 0.000528 -4.000001
v -0.497004 -0.247974 -4.000001
v -0.248502 -0.496476 -4.000001
v 0.248502 0.497533 -4.000001
v 0.497004 -0.247974 -4.000001
v -0.497004 0.249030 -4.000001
v 0.248502 -0.496476 -4.000001
v -0.248502 0.497533 -4.000001
v 0.497004 0.249030 -4.000001
v 0.176906 0.000528 -2.575953
v 0.000000 0.177434 -2.575953
v 0.000000 -0.176377 -2.575953
v -0.176906 0.000528 -2.575953
v 0.125091 0.125619 -2.575953
v 0.125091 -0.124563 -2.575953
v -0.125091 0.125619 -2.575953
v -0.125091 -0.124563 -2.575953
v -0.158229 -0.078586 -2.575953
v -0.079115 -0.157701 -2.575953
v 0.079115 0.158757 -2.575953
v 0.158229 -0.078586 -2.575953
v -0.158229 0.079642 -2.575953
v 0.079115 -0.157701 -2.575953
v -0.079115 0.158757 -2.575953
v 0.158229 0.079642 -2.575953
v 0.107240 0.054148 -2.406711
v -0.053620 0.107768 -2.406711
v 0.053620 -0.106712 -2.406711
v -0.107240 0.054148 -2.406711
v 0.107240 -0.053092 -2.406711
v 0.053620 0.107768 -2.406711
v -0.053620 -0.106712 -2.406711
v -0.107240 -0.053092 -2.406711
v 0.119898 0.000528 -2.406711
v 0.000000 0.120426 -2.406711
v 0.000000 -0.119370 -2.406711
v -0.119898 0.000528 -2.406711
v 0.084780 0.085309 -2.406711
v 0.084780 -0.084252 -2.406711
v -0.084780 0.085309 -2.406711
v -0.084780 -0.084252 -2.406711
v 0.351864 -0.253081 -1.078002
v 0.253609 0.352392 -1.078002
v 0.416214 0.098783 -1.078002
v 0.098255 -0.415686 -1.078002
v -0.351864 0.254137 -1.078002
v -0.416214 -0.097727 -1.078002
v -0.253609 -0.351336 -1.078002
v -0.098255 0.416742 -1.078002
v 0.351864 -0.253081 -1.239157
v 0.253609 0.352392 -1.239157
v 0.416214 0.098783 -1.239157
v 0.098255 -0.415686 -1.239157
v -0.351864 0.254137 -1.239157
v -0.416214 -0.097727 -1.239157
v -0.253609 -0.351336 -1.239157
v -0.098255 0.416742 -1.239157
v 0.247131 -0.177594 -1.239157
v 0.178122 0.247659 -1.239157
v 0.292328 0.069537 -1.239157
v 0.069009 -0.291799 -1.239157
v -0.247131 0.178650 -1.239157
v -0.292328 -0.068481 -1.239157
v -0.178122 -0.246603 -1.239157
v -0.069009 0.292856 -1.239157
v 0.163495 -0.117312 -1.621374
v 0.117840 0.164023 -1.621374
v 0.193395 0.046182 -1.621374
v 0.045654 -0.192867 -1.621374
v -0.163495 0.118368 -1.621374
v -0.193395 -0.045126 -1.621374
v -0.117840 -0.162966 -1.621374
v -0.045654 0.193923 -1.621374
v 0.199032 -0.116831 -1.689900
v 0.143454 0.199561 -1.659360
v 0.235432 0.056106 -1.698547
v 0.055578 -0.234904 -1.659360
v -0.199032 0.143983 -1.659360
v -0.235432 -0.055050 -1.659360
v -0.143454 -0.198504 -1.659360
v -0.055578 0.235960 -1.659360
v 0.199032 -0.142926 -1.742636
v 0.143454 0.199561 -1.742636
v 0.235432 0.056106 -1.742636
v 0.055578 -0.234904 -1.742636
v -0.199032 0.143983 -1.742636
v -0.235432 -0.055050 -1.742636
v -0.143454 -0.198504 -1.742636
v -0.055578 0.235960 -1.742636
v 0.154262 -0.110658 -1.776435
v 0.111186 0.154791 -1.776435
v 0.182474 0.043604 -1.776435
v 0.043076 -0.181946 -1.776435
v -0.154262 0.111714 -1.776435
v -0.182474 -0.042548 -1.776435
v -0.111186 -0.153734 -1.776435
v -0.043076 0.183003 -1.776435
v 0.104086 -0.074493 -2.223755
v 0.051132 0.116198 -2.226498
v 0.123121 0.029593 -2.223755
v 0.003074 -0.124609 -2.226498
v -0.104086 0.075549 -2.223755
v -0.123121 -0.028537 -2.223755
v -0.051132 -0.115142 -2.226498
v -0.003074 0.125665 -2.226498
v 0.129749 -0.092990 -2.235158
v 0.056441 0.130318 -2.232415
v 0.153478 0.036759 -2.235158
v 0.002837 -0.139614 -2.232415
v -0.129749 0.094046 -2.235158
v -0.153478 -0.035703 -2.235158
v -0.056441 -0.129261 -2.232415
v -0.002837 0.140671 -2.232415
v 0.129749 -0.092990 -2.267330
v 0.093518 0.130277 -2.267330
v 0.153478 0.036759 -2.267330
v 0.036231 -0.152950 -2.267330
v -0.129749 0.094046 -2.267330
v -0.153478 -0.035703 -2.267330
v -0.093518 -0.129221 -2.267330
v -0.036231 0.154006 -2.267330
v 0.106606 -0.076309 -2.291149
v 0.076837 0.107134 -2.291149
v 0.126103 0.030297 -2.291149
v 0.029769 -0.125575 -2.291149
v -0.106606 0.077365 -2.291149
v -0.126103 -0.029241 -2.291149
v -0.076837 -0.106078 -2.291149
v -0.029769 0.126631 -2.291149
v 0.081306 -0.058074 -2.369974
v 0.058602 0.081834 -2.369974
v 0.096175 0.023232 -2.369974
v 0.022704 -0.095647 -2.369974
v -0.081306 0.059130 -2.369974
v -0.096175 -0.022176 -2.369974
v -0.058602 -0.080777 -2.369974
v -0.022704 0.096703 -2.369974
v 0.029065 -0.122593 -2.223755
v -0.075021 -0.103558 -2.223755
v -0.029065 0.123649 -2.223755
v 0.075021 0.104614 -2.223755
v 0.036231 -0.152950 -2.235158
v -0.093518 -0.129221 -2.235158
v -0.036231 0.154006 -2.235158
v 0.093518 0.130277 -2.235158
v 0.004692 -0.190492 -1.728955
v -0.078053 -0.176041 -1.728955
v -0.004692 0.191548 -1.728955
v 0.078053 0.177097 -1.728955
v 0.004331 -0.213398 -1.737987
v -0.086157 -0.197594 -1.737987
v -0.004331 0.214454 -1.737987
v 0.086157 0.198651 -1.737987
v 0.222243 -0.011826 -1.594301
v 0.224702 -0.075060 -1.581996
v 0.262724 -0.016046 -1.655719
v 0.264461 -0.092665 -1.638891
v 0.217221 -0.043863 -1.578390
v 0.273705 -0.054947 -1.662766
v 0.248992 -0.001125 -1.638319
v 0.245985 -0.098602 -1.608858
v 0.236728 -0.030362 -1.694223
v 0.296231 -0.011826 -1.380856
v 0.290954 -0.075060 -1.369472
v 0.365160 -0.016046 -1.406542
v 0.356630 -0.092665 -1.391933
v 0.282787 -0.043863 -1.370977
v 0.378184 -0.054947 -1.405749
v 0.343805 -0.001125 -1.400602
v 0.323989 -0.098602 -1.378594
v 0.295742 -0.011826 -1.232522
v 0.286957 -0.075060 -1.223563
v 0.369293 -0.016046 -1.233638
v 0.356363 -0.092665 -1.222730
v 0.279766 -0.043863 -1.227717
v 0.381299 -0.054947 -1.228529
v 0.347182 -0.001125 -1.235193
v 0.321139 -0.098602 -1.221093
vn -0.9812 -0.0000 -0.1928
vn 0.9812 -0.0000 -0.1928
vn -0.0000 -0.9812 -0.1928
vn -0.0000 0.9812 -0.1928
vn -0.0000 -0.0000 -1.0000
vn 0.1352 0.7395 -0.6594
vn -0.6247 -0.4005 -0.6703
vn 0.7395 -0.1352 -0.6594
vn -0.7395 0.1352 -0.6594
vn -0.5397 0.8418 -0.0000
vn 0.9837 -0.1799 -0.0000
vn -0.1799 -0.9837 -0.0000
vn -0.9837 0.1799 -0.0000
vn 0.4005 -0.6247 -0.6703
vn 0.8418 0.5397 -0.0000
vn 0.5397 -0.8418 -0.0000
vn -0.4005 0.6247 -0.6703
vn 0.1799 0.9837 -0.0000
vn 0.6247 0.4005 -0.6703
vn -0.8418 -0.5397 -0.0000
vn -0.1352 -0.7395 -0.6594
vn 0.7767 0.5598 0.2885
vn -0.9329 -0.2202 0.2848
vn -0.5598 -0.7767 0.2885
vn -0.2202 -0.9329 0.2848
vn 0.5598 0.7767 0.2885
vn 0.2202 0.9329 0.2848
vn 0.7767 -0.5598 0.2885
vn 0.9329 -0.2202 0.2848
vn -0.9329 0.2202 0.2848
vn -0.7767 0.5598 0.2885
vn 0.2202 -0.9329 0.2848
vn 0.5598 -0.7767 0.2885
vn -0.2202 0.9329 0.2848
vn -0.5598 0.7767 0.2885
vn 0.9329 0.2202 0.2848
vn -0.7767 -0.5598 0.2885
vn 0.5691 -0.7896 0.2295
vn -0.2238 0.9480 0.2265
vn -0.5691 0.7896 0.2295
vn 0.9480 0.2238 0.2265
vn -0.7896 -0.5691 0.2295
vn 0.7896 0.5691 0.2295
vn -0.9480 -0.2238 0.2265
vn -0.5691 -0.7896 0.2295
vn -0.2238 -0.9480 0.2265
vn 0.5691 0.7896 0.2295
vn 0.2238 0.9480 0.2265
vn 0.7896 -0.5691 0.2295
vn 0.9480 -0.2238 0.2265
vn -0.9480 0.2238 0.2265
vn -0.7896 0.5691 0.2295
vn 0.2238 -0.9480 0.2265
vn 0.8013 -0.5775 0.1563
vn 0.9616 -0.2270 0.1541
vn -0.9616 0.2270 0.1541
vn -0.8013 0.5775 0.1563
vn 0.2270 -0.9616 0.1541
vn 0.5775 -0.8013 0.1563
vn -0.2270 0.9616 0.1541
vn -0.5775 0.8013 0.1563
vn 0.9616 0.2270 0.1541
vn -0.8013 -0.5775 0.1563
vn 0.8013 0.5775 0.1563
vn -0.9616 -0.2270 0.1541
vn -0.5775 -0.8013 0.1563
vn -0.2270 -0.9616 0.1541
vn 0.5775 0.8013 0.1563
vn 0.2270 0.9616 0.1541
vn 0.9422 -0.2224 -0.2506
vn -0.9422 0.2224 -0.2506
vn -0.7846 0.5655 -0.2539
vn -0.2224 -0.9422 -0.2506
vn -0.5655 -0.7847 -0.2539
vn 0.2224 0.9422 -0.2506
vn 0.5655 0.7846 -0.2539
vn 0.9422 0.2224 -0.2506
vn 0.7847 -0.5655 -0.2539
vn -0.2224 0.9422 -0.2506
vn -0.5655 0.7846 -0.2539
vn 0.2224 -0.9422 -0.2506
vn 0.5655 -0.7847 -0.2539
vn -0.9422 -0.2224 -0.2506
vn 0.7847 0.5655 -0.2539
vn -0.7847 -0.5655 -0.2539
vn -0.1891 -0.8012 0.5677
vn 0.1891 -0.8012 0.5677
vn 0.4791 -0.6648 0.5732
vn 0.6648 -0.4791 0.5732
vn 0.8012 -0.1891 0.5677
vn 0.8012 0.1891 0.5677
vn 0.6648 0.4791 0.5732
vn 0.4791 0.6648 0.5732
vn 0.1891 0.8012 0.5677
vn -0.1891 0.8012 0.5677
vn -0.4791 0.6648 0.5732
vn -0.6648 0.4791 0.5732
vn -0.8012 0.1891 0.5677
vn -0.8012 -0.1891 0.5677
vn -0.6648 -0.4791 0.5732
vn -0.4791 -0.6648 0.5732
vn -0.0000 -0.0000 1.0000
vn -0.8165 -0.5235 -0.2433
vn -0.5235 0.8165 -0.2433
vn -0.1748 -0.9557 -0.2367
vn -0.9557 0.1748 -0.2367
vn 0.8165 0.5235 -0.2433
vn 0.1748 0.9557 -0.2367
vn 0.9557 -0.1748 -0.2367
vn 0.5235 -0.8165 -0.2433
vn -0.6813 0.1246 0.7214
vn 0.5741 0.3681 0.7314
vn 0.1246 0.6813 0.7214
vn 0.6020 0.7755 -0.1899
vn 0.6410 -0.6941 0.3276
vn -0.5741 -0.3681 0.7314
vn -0.3681 0.5741 0.7314
vn -0.1246 -0.6813 0.7214
vn 0.9291 -0.1699 -0.3284
vn 0.6396 -0.6889 0.3409
vn 0.2968 -0.4630 -0.8352
vn -0.4630 -0.2968 -0.8352
vn -0.2968 0.4630 -0.8352
vn -0.1010 -0.5521 -0.8277
vn -0.5521 0.1010 -0.8277
vn 0.4630 0.2968 -0.8352
vn 0.1010 0.5521 -0.8277
vn 0.5521 -0.1010 -0.8277
vn 0.8350 0.5353 -0.1276
vn 0.1785 0.9761 -0.1239
vn 0.9761 -0.1785 -0.1239
vn 0.5353 -0.8350 -0.1276
vn -0.8350 -0.5353 -0.1276
vn -0.5353 0.8350 -0.1276
vn -0.1785 -0.9761 -0.1239
vn -0.9761 0.1785 -0.1239
vn 0.9999 -0.0138 -0.0051
vn -0.3646 0.0667 0.9288
vn 0.3042 0.1950 0.9324
vn 0.9350 -0.3546 -0.0072
vn 0.3646 -0.0667 0.9288
vn 0.1951 -0.3042 0.9324
vn -0.3042 -0.1950 0.9324
vn -0.1951 0.3042 0.9324
vn 0.6677 -0.1221 -0.7343
vn 0.3606 -0.5624 -0.7441
vn -0.5624 -0.3606 -0.7441
vn -0.3606 0.5624 -0.7441
vn -0.1221 -0.6678 -0.7343
vn -0.6677 0.1221 -0.7343
vn 0.5624 0.3606 -0.7441
vn 0.1221 0.6678 -0.7343
vn -0.9263 0.1694 -0.3365
vn 0.7900 0.5065 -0.3454
vn 0.1694 0.9263 -0.3365
vn 0.9263 -0.1694 -0.3365
vn 0.5065 -0.7900 -0.3454
vn -0.7900 -0.5065 -0.3454
vn -0.5065 0.7900 -0.3454
vn -0.1694 -0.9263 -0.3365
vn 0.8752 0.2066 0.4375
vn 0.2066 -0.8752 0.4375
vn -0.5244 -0.7275 0.4425
vn 0.7275 -0.5244 0.4425
vn 0.5244 0.7275 0.4425
vn -0.7275 0.5244 0.4425
vn -0.2066 0.8752 0.4375
vn -0.8752 -0.2066 0.4375
vn -0.8138 0.1921 0.5485
vn -0.4406 0.6871 0.5777
vn -0.6853 -0.4940 0.5351
vn -0.1921 -0.8138 0.5485
vn 0.4406 -0.6871 0.5777
vn 0.8138 -0.1921 0.5485
vn 0.6871 0.4406 0.5777
vn 0.1921 0.8138 0.5485
vn -0.0605 -0.3465 0.9361
vn 0.0605 0.3464 0.9361
vn -0.0599 -0.3428 0.9375
vn 0.0599 0.3428 0.9375
vn -0.0697 -0.3650 0.9284
vn -0.0691 -0.3631 0.9292
vn 0.0691 0.3630 0.9292
vn 0.0697 0.3650 0.9284
vn -0.8279 0.3482 0.4398
vn -0.1702 -0.9747 -0.1449
vn 0.1706 0.9769 0.1288
vn -0.9999 0.0138 -0.0051
vn -0.9350 0.3546 -0.0072
vn 0.1702 0.9747 -0.1449
vn -0.1706 -0.9769 0.1288
vn -0.3910 -0.8232 0.4117
vn 0.6367 -0.5177 -0.5714
vn 0.8313 -0.0153 -0.5556
vn 0.8867 0.2895 -0.3605
vn 0.1575 -0.9861 -0.0534
vn 0.7807 -0.5528 -0.2914
vn -0.2338 0.9678 0.0932
vn -0.9023 0.2968 0.3128
vn 0.5654 0.7914 -0.2324
vn -0.5407 -0.8241 0.1686
vn -0.9220 -0.2548 0.2915
vn -0.2177 0.9760 0.0044
vn -0.9224 0.3862 -0.0030
vn 0.5701 0.8214 -0.0136
vn -0.9670 -0.2541 -0.0204
vn -0.5664 -0.8240 -0.0155
vn 0.9560 0.2928 -0.0168
vn 0.1663 -0.9861 0.0030
vn 0.8343 -0.5513 0.0013
vn -0.7847 0.5655 -0.2539
vn 0.7846 0.5655 -0.2539
vn 0.7922 0.3768 0.4800
vn 0.7090 0.5385 0.4554
vn 0.6387 0.5626 0.5249
vn 0.3681 -0.5741 0.7314
vn 0.9999 0.0150 -0.0000
vn 0.9034 -0.3843 0.1902
vn -0.5353 0.8349 -0.1276
vn 0.3042 0.1951 0.9324
vn -0.3042 -0.1951 0.9324
vn -0.1221 -0.6677 -0.7343
vn 0.1221 0.6677 -0.7343
vn -0.7883 0.1442 0.5981
vn -0.4940 0.6853 0.5351
vn -0.6871 -0.4406 0.5777
vn -0.1442 -0.7883 0.5981
vn 0.4940 -0.6853 0.5351
vn 0.7883 -0.1442 0.5981
vn 0.6853 0.4940 0.5351
vn 0.1442 0.7883 0.5981
vn -0.0685 -0.3747 0.9246
vn 0.0685 0.3747 0.9246
vn -0.0688 -0.3760 0.9241
vn 0.0688 0.3760 0.9240
vn -0.0696 -0.3651 0.9283
vn -0.0694 -0.3632 0.9291
vn 0.0694 0.3632 0.9291
vn 0.0696 0.3651 0.9284
vn -0.5628 0.1029 0.8202
vn -0.4261 -0.2041 0.8813
vn 0.4500 -0.8636 0.2273
vn 0.3335 -0.9426 0.0188
vn 0.5161 -0.2657 -0.8143
vn 0.7278 0.3157 -0.6088
vn 0.8783 0.3133 -0.3611
vn 0.1956 -0.9780 -0.0730
vn 0.8399 -0.4219 -0.3414
vn -0.1925 0.9790 0.0667
vn -0.8552 0.4422 0.2703
vn 0.5208 0.8280 -0.2077
vn -0.5997 -0.7740 0.2032
vn -0.9293 -0.2293 0.2897
vn -0.2037 0.9790 -0.0007
vn -0.8959 0.4439 -0.0189
vn 0.5599 0.8285 -0.0114
vn -0.9733 -0.2279 -0.0267
vn -0.5822 -0.8129 -0.0105
vn 0.9482 0.3170 -0.0227
vn 0.1791 -0.9838 0.0003
vn 0.8657 -0.5003 -0.0152
vt 0.625000 0.000000
vt 0.375000 0.250000
vt 0.375000 0.000000
vt 0.625000 0.500000
vt 0.375000 0.750000
vt 0.375000 0.500000
vt 0.125000 0.750000
vt 0.125000 0.500000
vt 0.875000 0.500000
vt 0.625000 0.750000
vt 0.462400 0.299801
vt 0.625000 0.250000
vt 0.424801 0.412600
vt 0.575199 0.337400
vt 0.537600 0.450199
vt 0.575199 0.375000
vt 0.575199 0.412600
vt 0.424801 0.299801
vt 0.500000 0.450199
vt 0.462400 0.450199
vt 0.500000 0.299801
vt 0.537600 0.299801
vt 0.575199 0.299801
vt 0.424801 0.337400
vt 0.424801 0.375000
vt 0.424801 0.450199
vt 0.575199 0.450199
vt 0.481200 0.450199
vt 0.424801 0.371476
vt 0.424801 0.371639
vt 0.575199 0.409040
vt 0.575199 0.409204
vt 0.000000 0.000000
vt 0.424801 0.340960
vt 0.575199 0.378524
vt 0.424801 0.340796
vt 0.575199 0.378361
vt 0.875000 0.750000
s 0
usemtl no_texture
f 2/1/1 10/2/1 1/3/1
f 12/4/2 5/5/2 11/6/2
f 11/6/3 1/7/3 10/8/3
f 9/9/4 6/10/4 12/4/4
f 13/11/5 10/2/5 9/12/5
f 14/13/5 11/6/5 10/2/5
f 15/14/5 9/12/5 12/4/5
f 16/15/5 12/4/5 11/6/5
f 15/16/6 28/17/6 31/16/6
f 13/11/7 25/18/7 3/18/7
f 16/19/8 27/20/8 32/19/8
f 13/21/9 26/22/9 29/21/9
f 31/14/10 21/23/10 26/23/10
f 27/20/11 19/19/11 32/19/11
f 25/24/12 20/25/12 30/25/12
f 26/22/13 22/21/13 29/21/13
f 14/13/14 27/26/14 7/26/14
f 32/15/15 18/27/15 28/27/15
f 30/13/16 17/26/16 27/26/16
f 15/14/17 26/23/17 4/23/17
f 28/17/18 24/16/18 31/16/18
f 16/15/19 28/27/19 8/27/19
f 29/11/20 23/18/20 25/18/20
f 14/25/21 25/24/21 30/25/21
f 36/27/22 64/15/22 52/27/22
f 37/21/23 57/11/23 41/11/23
f 42/24/24 49/18/24 58/24/24
f 42/24/25 54/25/25 38/25/25
f 43/17/26 52/27/26 59/17/26
f 39/16/27 59/17/27 55/16/27
f 44/20/28 51/26/28 60/20/28
f 40/19/29 60/20/29 56/19/29
f 37/21/30 61/22/30 53/21/30
f 34/23/31 61/22/31 45/22/31
f 38/25/32 62/13/32 46/13/32
f 46/13/33 51/26/33 35/26/33
f 39/16/34 63/14/34 47/14/34
f 47/14/35 50/23/35 34/23/35
f 40/19/36 64/15/36 48/15/36
f 41/11/37 49/18/37 33/18/37
f 62/13/38 67/26/38 51/26/38
f 63/14/39 71/16/39 79/14/39
f 63/14/40 66/23/40 50/23/40
f 56/19/41 80/15/41 64/15/41
f 49/18/42 73/11/42 65/18/42
f 64/15/43 68/27/43 52/27/43
f 57/11/44 69/21/44 73/11/44
f 58/24/45 65/18/45 74/24/45
f 58/24/46 70/25/46 54/25/46
f 59/17/47 68/27/47 75/17/47
f 59/17/48 71/16/48 55/16/48
f 51/26/49 76/20/49 60/20/49
f 60/20/50 72/19/50 56/19/50
f 53/21/51 77/22/51 69/21/51
f 50/23/52 77/22/52 61/22/52
f 54/25/53 78/13/53 62/13/53
f 67/26/54 92/20/54 76/20/54
f 76/20/55 88/19/55 72/19/55
f 69/21/56 93/22/56 85/21/56
f 66/23/57 93/22/57 77/22/57
f 70/25/58 94/13/58 78/13/58
f 78/13/59 83/26/59 67/26/59
f 71/16/60 95/14/60 79/14/60
f 79/14/61 82/23/61 66/23/61
f 72/19/62 96/15/62 80/15/62
f 73/11/63 81/18/63 65/18/63
f 80/15/64 84/27/64 68/27/64
f 73/11/65 85/21/65 89/11/65
f 74/24/66 81/18/66 90/24/66
f 70/25/67 90/24/67 86/25/67
f 68/27/68 91/17/68 75/17/68
f 75/17/69 87/16/69 71/16/69
f 93/22/70 100/21/70 85/21/70
f 92/20/71 97/19/71 88/19/71
f 92/20/72 102/26/72 108/20/72
f 91/17/73 98/16/73 87/16/73
f 84/27/74 107/17/74 91/17/74
f 86/25/75 106/24/75 99/25/75
f 90/24/76 104/18/76 106/24/76
f 85/21/77 105/11/77 89/11/77
f 93/22/78 103/23/78 109/22/78
f 86/25/79 110/13/79 94/13/79
f 94/13/80 102/26/80 83/26/80
f 87/16/81 111/14/81 95/14/81
f 95/14/82 103/23/82 82/23/82
f 88/19/83 112/15/83 96/15/83
f 89/11/84 104/18/84 81/18/84
f 84/27/85 112/15/85 101/27/85
f 38/25/86 119/24/86 42/24/86
f 38/25/87 115/13/87 123/25/87
f 35/26/88 115/13/88 46/13/88
f 44/20/89 126/26/89 35/26/89
f 44/20/90 121/19/90 117/20/90
f 48/15/91 121/19/91 40/19/91
f 36/27/92 113/15/92 48/15/92
f 36/27/93 118/17/93 125/27/93
f 43/17/94 122/16/94 118/17/94
f 47/14/95 122/16/95 39/16/95
f 34/23/96 114/14/96 47/14/96
f 45/22/97 127/23/97 34/23/97
f 124/21/98 45/22/98 37/21/98
f 120/11/99 37/21/99 41/11/99
f 128/18/100 41/11/100 33/18/100
f 42/24/101 128/18/101 33/18/101
f 18/17/102 136/16/102 24/16/102
f 21/23/102 136/14/102 133/23/102
f 17/20/102 131/19/102 19/19/102
f 23/18/102 134/11/102 135/18/102
f 21/22/102 134/21/102 22/21/102
f 23/24/102 132/25/102 20/25/102
f 17/26/102 132/13/102 129/26/102
f 18/27/102 131/15/102 130/27/102
f 130/17/18 144/16/18 136/16/18
f 129/20/11 139/19/11 131/19/11
f 132/13/16 137/26/16 129/26/16
f 134/11/20 143/18/20 135/18/20
f 135/24/12 140/25/12 132/25/12
f 136/14/10 141/23/10 133/23/10
f 133/22/13 142/21/13 134/21/13
f 131/15/15 138/27/15 130/27/15
f 142/21/5 149/22/5 150/21/5
f 139/15/5 146/27/5 138/27/5
f 144/16/5 146/17/5 152/16/5
f 139/19/5 145/20/5 147/19/5
f 140/13/5 145/26/5 137/26/5
f 142/11/5 151/18/5 143/18/5
f 144/14/5 149/23/5 141/23/5
f 140/25/5 151/24/5 148/25/5
f 150/11/103 159/18/103 151/18/103
f 152/14/104 157/23/104 149/23/104
f 148/25/105 159/24/105 156/25/105
f 150/21/106 157/22/106 158/21/106
f 147/15/107 154/27/107 146/27/107
f 152/16/108 154/17/108 160/16/108
f 147/19/109 153/20/109 155/19/109
f 148/13/110 153/26/110 145/26/110
f 157/22/111 166/21/111 158/21/111
f 155/15/112 162/27/112 154/27/112
f 154/17/113 168/16/113 160/16/113
f 155/15/114 247/15/114 243/15/114
f 153/26/115 164/13/115 161/26/115
f 159/18/116 166/11/116 167/18/116
f 157/23/117 168/14/117 165/23/117
f 159/24/118 164/25/118 156/25/118
f 166/11/20 175/18/20 167/18/20
f 168/14/10 173/23/10 165/23/10
f 167/24/12 172/25/12 164/25/12
f 165/22/13 174/21/13 166/21/13
f 163/15/15 170/27/15 162/27/15
f 162/17/18 176/16/18 168/16/18
f 249/28/119 169/20/119 171/19/119
f 164/13/120 169/26/120 161/26/120
f 172/13/121 177/26/121 169/26/121
f 174/11/122 183/18/122 175/18/122
f 176/14/123 181/23/123 173/23/123
f 172/25/124 183/24/124 180/25/124
f 174/21/125 181/22/125 182/21/125
f 171/15/126 178/27/126 170/27/126
f 176/16/127 178/17/127 184/16/127
f 171/19/128 177/20/128 179/19/128
f 179/15/129 228/27/129 178/27/129
f 184/16/130 228/17/130 227/16/130
f 179/19/131 185/20/131 187/19/131
f 180/13/132 185/26/132 177/26/132
f 182/11/133 226/18/133 183/18/133
f 184/14/134 189/23/134 181/23/134
f 180/25/135 226/24/135 225/25/135
f 182/21/136 189/22/136 190/21/136
f 188/29/137 237/30/137 196/30/137
f 189/22/138 198/21/138 190/21/138
f 228/27/139 195/15/139 232/27/139
f 186/31/140 240/32/140 236/31/140
f 185/20/141 195/19/141 187/19/141
f 185/26/142 229/13/142 193/26/142
f 226/18/143 198/11/143 230/18/143
f 189/23/144 231/14/144 197/23/144
f 229/13/16 201/26/16 193/26/16
f 198/11/20 207/18/20 230/18/20
f 231/14/10 205/23/10 197/23/10
f 230/24/12 204/25/12 229/25/12
f 197/22/13 206/21/13 198/21/13
f 195/15/15 202/27/15 232/27/15
f 232/17/18 208/16/18 231/16/18
f 193/20/11 203/19/11 195/19/11
f 203/19/145 209/20/145 211/19/145
f 204/13/146 209/26/146 201/26/146
f 206/11/147 215/18/147 207/18/147
f 208/14/148 213/23/148 205/23/148
f 204/25/149 215/24/149 212/25/149
f 206/21/150 213/22/150 214/21/150
f 203/15/151 210/27/151 202/27/151
f 208/16/152 210/17/152 216/16/152
f 214/21/153 221/22/153 222/21/153
f 211/15/154 218/27/154 210/27/154
f 216/16/155 218/17/155 224/16/155
f 211/19/156 217/20/156 219/19/156
f 212/13/157 217/26/157 209/26/157
f 214/11/158 223/18/158 215/18/158
f 216/14/159 221/23/159 213/23/159
f 212/25/160 223/24/160 220/25/160
f 113/15/161 219/33/161 121/19/161
f 115/13/162 220/33/162 123/25/162
f 119/24/163 223/33/163 128/18/163
f 117/20/164 217/33/164 126/26/164
f 118/17/165 218/33/165 125/27/165
f 116/22/166 221/33/166 127/23/166
f 114/14/167 224/33/167 122/16/167
f 120/11/168 222/33/168 124/21/168
f 124/21/169 221/22/169 116/22/169
f 114/14/170 221/23/170 224/33/170
f 223/33/171 120/11/171 128/18/171
f 123/25/172 223/33/172 119/24/172
f 115/13/173 217/26/173 220/33/173
f 121/19/174 217/33/174 117/20/174
f 113/15/175 218/27/175 219/33/175
f 122/16/176 218/33/176 118/17/176
f 188/29/177 226/24/177 191/34/177
f 192/35/178 228/17/178 186/31/178
f 199/36/179 229/25/179 196/30/179
f 194/32/180 231/16/180 200/37/180
f 196/30/181 225/25/181 188/29/181
f 199/36/182 226/24/182 230/24/182
f 194/32/183 228/17/183 232/17/183
f 200/37/184 227/16/184 192/35/184
f 153/20/185 245/28/185 241/19/185
f 199/36/186 237/30/186 238/36/186
f 191/34/187 233/29/187 188/29/187
f 192/35/188 239/37/188 200/37/188
f 191/34/189 238/36/189 234/34/189
f 194/32/190 239/37/190 240/32/190
f 186/31/191 235/35/191 192/35/191
f 161/26/192 248/26/192 242/26/192
f 161/26/193 246/33/193 244/26/193
f 243/15/194 249/28/194 163/19/194
f 246/33/195 252/15/195 255/33/195
f 248/26/196 253/26/196 257/26/196
f 244/26/197 255/33/197 253/26/197
f 241/15/198 256/15/198 247/15/198
f 245/28/199 250/19/199 241/19/199
f 247/15/200 252/15/200 243/15/200
f 242/26/201 257/26/201 251/26/201
f 242/20/202 254/28/202 245/28/202
f 250/15/203 264/15/203 256/15/203
f 254/28/204 258/19/204 250/19/204
f 256/15/205 260/15/205 252/15/205
f 251/20/206 262/28/206 254/28/206
f 251/26/207 265/26/207 259/26/207
f 255/33/208 260/15/208 263/33/208
f 257/26/209 261/26/209 265/26/209
f 253/26/210 263/33/210 261/26/210
f 2/1/1 9/12/1 10/2/1
f 12/4/2 6/10/2 5/5/2
f 11/6/3 5/5/3 1/7/3
f 9/9/4 2/38/4 6/10/4
f 9/12/5 4/22/5 13/11/5
f 13/11/5 3/18/5 10/2/5
f 10/2/5 3/24/5 14/13/5
f 14/13/5 7/26/5 11/6/5
f 12/4/5 8/17/5 15/14/5
f 15/14/5 4/23/5 9/12/5
f 11/6/5 7/20/5 16/15/5
f 16/15/5 8/27/5 12/4/5
f 15/16/6 8/17/6 28/17/6
f 13/11/7 29/11/7 25/18/7
f 16/19/8 7/20/8 27/20/8
f 13/21/9 4/22/9 26/22/9
f 31/14/10 24/14/10 21/23/10
f 27/20/11 17/20/11 19/19/11
f 25/24/12 23/24/12 20/25/12
f 26/22/13 21/22/13 22/21/13
f 14/13/14 30/13/14 27/26/14
f 32/15/15 19/15/15 18/27/15
f 30/13/16 20/13/16 17/26/16
f 15/14/17 31/14/17 26/23/17
f 28/17/18 18/17/18 24/16/18
f 16/15/19 32/15/19 28/27/19
f 29/11/20 22/11/20 23/18/20
f 14/25/21 3/24/21 25/24/21
f 36/27/22 48/15/22 64/15/22
f 37/21/23 53/21/23 57/11/23
f 42/24/24 33/18/24 49/18/24
f 42/24/25 58/24/25 54/25/25
f 43/17/26 36/27/26 52/27/26
f 39/16/27 43/17/27 59/17/27
f 44/20/28 35/26/28 51/26/28
f 40/19/29 44/20/29 60/20/29
f 37/21/30 45/22/30 61/22/30
f 34/23/31 50/23/31 61/22/31
f 38/25/32 54/25/32 62/13/32
f 46/13/33 62/13/33 51/26/33
f 39/16/34 55/16/34 63/14/34
f 47/14/35 63/14/35 50/23/35
f 40/19/36 56/19/36 64/15/36
f 41/11/37 57/11/37 49/18/37
f 62/13/38 78/13/38 67/26/38
f 63/14/39 55/16/39 71/16/39
f 63/14/40 79/14/40 66/23/40
f 56/19/41 72/19/41 80/15/41
f 49/18/42 57/11/42 73/11/42
f 64/15/43 80/15/43 68/27/43
f 57/11/44 53/21/44 69/21/44
f 58/24/45 49/18/45 65/18/45
f 58/24/46 74/24/46 70/25/46
f 59/17/47 52/27/47 68/27/47
f 59/17/48 75/17/48 71/16/48
f 51/26/49 67/26/49 76/20/49
f 60/20/50 76/20/50 72/19/50
f 53/21/51 61/22/51 77/22/51
f 50/23/52 66/23/52 77/22/52
f 54/25/53 70/25/53 78/13/53
f 67/26/54 83/26/54 92/20/54
f 76/20/55 92/20/55 88/19/55
f 69/21/56 77/22/56 93/22/56
f 66/23/57 82/23/57 93/22/57
f 70/25/58 86/25/58 94/13/58
f 78/13/59 94/13/59 83/26/59
f 71/16/60 87/16/60 95/14/60
f 79/14/61 95/14/61 82/23/61
f 72/19/62 88/19/62 96/15/62
f 73/11/63 89/11/63 81/18/63
f 80/15/64 96/15/64 84/27/64
f 73/11/65 69/21/65 85/21/65
f 74/24/66 65/18/66 81/18/66
f 70/25/67 74/24/67 90/24/67
f 68/27/68 84/27/68 91/17/68
f 75/17/69 91/17/69 87/16/69
f 93/22/70 109/22/70 100/21/70
f 92/20/71 108/20/71 97/19/71
f 92/20/211 83/26/211 102/26/211
f 91/17/73 107/17/73 98/16/73
f 84/27/74 101/27/74 107/17/74
f 86/25/75 90/24/75 106/24/75
f 90/24/76 81/18/76 104/18/76
f 85/21/77 100/21/77 105/11/77
f 93/22/78 82/23/78 103/23/78
f 86/25/79 99/25/79 110/13/79
f 94/13/80 110/13/80 102/26/80
f 87/16/81 98/16/81 111/14/81
f 95/14/82 111/14/82 103/23/82
f 88/19/83 97/19/83 112/15/83
f 89/11/212 105/11/212 104/18/212
f 84/27/85 96/15/85 112/15/85
f 38/25/86 123/25/86 119/24/86
f 38/25/87 46/13/87 115/13/87
f 35/26/88 126/26/88 115/13/88
f 44/20/89 117/20/89 126/26/89
f 44/20/90 40/19/90 121/19/90
f 48/15/91 113/15/91 121/19/91
f 36/27/92 125/27/92 113/15/92
f 36/27/93 43/17/93 118/17/93
f 43/17/94 39/16/94 122/16/94
f 47/14/95 114/14/95 122/16/95
f 34/23/96 127/23/96 114/14/96
f 45/22/97 116/22/97 127/23/97
f 124/21/98 116/22/98 45/22/98
f 120/11/99 124/21/99 37/21/99
f 128/18/100 120/11/100 41/11/100
f 42/24/101 119/24/101 128/18/101
f 18/17/102 130/17/102 136/16/102
f 21/23/102 24/14/102 136/14/102
f 17/20/102 129/20/102 131/19/102
f 23/18/102 22/11/102 134/11/102
f 21/22/102 133/22/102 134/21/102
f 23/24/102 135/24/102 132/25/102
f 17/26/102 20/13/102 132/13/102
f 18/27/102 19/15/102 131/15/102
f 130/17/18 138/17/18 144/16/18
f 129/20/11 137/20/11 139/19/11
f 132/13/16 140/13/16 137/26/16
f 134/11/20 142/11/20 143/18/20
f 135/24/12 143/24/12 140/25/12
f 136/14/10 144/14/10 141/23/10
f 133/22/13 141/22/13 142/21/13
f 131/15/15 139/15/15 138/27/15
f 142/21/5 141/22/5 149/22/5
f 139/15/5 147/15/5 146/27/5
f 144/16/5 138/17/5 146/17/5
f 139/19/5 137/20/5 145/20/5
f 140/13/5 148/13/5 145/26/5
f 142/11/5 150/11/5 151/18/5
f 144/14/5 152/14/5 149/23/5
f 140/25/5 143/24/5 151/24/5
f 150/11/103 158/11/103 159/18/103
f 152/14/104 160/14/104 157/23/104
f 148/25/105 151/24/105 159/24/105
f 150/21/106 149/22/106 157/22/106
f 147/15/107 155/15/107 154/27/107
f 152/16/108 146/17/108 154/17/108
f 147/19/109 145/20/109 153/20/109
f 148/13/110 156/13/110 153/26/110
f 157/22/111 165/22/111 166/21/111
f 155/15/213 163/15/213 162/27/213
f 154/17/113 162/17/113 168/16/113
f 243/15/214 163/15/214 155/15/214
f 155/15/215 241/15/215 247/15/215
f 153/26/216 156/13/216 164/13/216
f 159/18/116 158/11/116 166/11/116
f 157/23/117 160/14/117 168/14/117
f 159/24/118 167/24/118 164/25/118
f 166/11/20 174/11/20 175/18/20
f 168/14/10 176/14/10 173/23/10
f 167/24/12 175/24/12 172/25/12
f 165/22/13 173/22/13 174/21/13
f 163/15/15 171/15/15 170/27/15
f 162/17/18 170/17/18 176/16/18
f 171/19/217 163/19/217 249/28/217
f 249/28/218 161/20/218 169/20/218
f 164/13/16 172/13/16 169/26/16
f 172/13/121 180/13/121 177/26/121
f 174/11/122 182/11/122 183/18/122
f 176/14/123 184/14/123 181/23/123
f 172/25/124 175/24/124 183/24/124
f 174/21/125 173/22/125 181/22/125
f 171/15/126 179/15/126 178/27/126
f 176/16/127 170/17/127 178/17/127
f 171/19/128 169/20/128 177/20/128
f 179/15/129 187/15/129 228/27/129
f 184/16/130 178/17/130 228/17/130
f 179/19/131 177/20/131 185/20/131
f 180/13/132 225/13/132 185/26/132
f 182/11/133 190/11/133 226/18/133
f 184/14/219 227/14/219 189/23/219
f 180/25/135 183/24/135 226/24/135
f 182/21/136 181/22/136 189/22/136
f 188/29/137 233/29/137 237/30/137
f 189/22/138 197/22/138 198/21/138
f 228/27/220 187/15/220 195/15/220
f 186/31/140 194/32/140 240/32/140
f 185/20/141 193/20/141 195/19/141
f 185/26/142 225/13/142 229/13/142
f 226/18/221 190/11/221 198/11/221
f 189/23/144 227/14/144 231/14/144
f 229/13/16 204/13/16 201/26/16
f 198/11/20 206/11/20 207/18/20
f 231/14/10 208/14/10 205/23/10
f 230/24/12 207/24/12 204/25/12
f 197/22/13 205/22/13 206/21/13
f 195/15/15 203/15/15 202/27/15
f 232/17/18 202/17/18 208/16/18
f 193/20/11 201/20/11 203/19/11
f 203/19/145 201/20/145 209/20/145
f 204/13/146 212/13/146 209/26/146
f 206/11/147 214/11/147 215/18/147
f 208/14/148 216/14/148 213/23/148
f 204/25/222 207/24/222 215/24/222
f 206/21/150 205/22/150 213/22/150
f 203/15/151 211/15/151 210/27/151
f 208/16/223 202/17/223 210/17/223
f 214/21/153 213/22/153 221/22/153
f 211/15/154 219/15/154 218/27/154
f 216/16/155 210/17/155 218/17/155
f 211/19/156 209/20/156 217/20/156
f 212/13/157 220/13/157 217/26/157
f 214/11/158 222/11/158 223/18/158
f 216/14/159 224/14/159 221/23/159
f 212/25/160 215/24/160 223/24/160
f 124/21/224 222/33/224 221/22/224
f 114/14/225 127/23/225 221/23/225
f 223/33/226 222/11/226 120/11/226
f 123/25/227 220/25/227 223/33/227
f 115/13/228 126/26/228 217/26/228
f 121/19/229 219/19/229 217/33/229
f 113/15/230 125/27/230 218/27/230
f 122/16/231 224/16/231 218/33/231
f 188/29/232 225/25/232 226/24/232
f 192/35/233 227/16/233 228/17/233
f 199/36/234 230/24/234 229/25/234
f 194/32/235 232/17/235 231/16/235
f 196/30/236 229/25/236 225/25/236
f 199/36/237 191/34/237 226/24/237
f 194/32/238 186/31/238 228/17/238
f 200/37/239 231/16/239 227/16/239
f 241/19/240 155/19/240 153/20/240
f 153/20/241 242/20/241 245/28/241
f 199/36/186 196/30/186 237/30/186
f 191/34/187 234/34/187 233/29/187
f 192/35/188 235/35/188 239/37/188
f 191/34/189 199/36/189 238/36/189
f 194/32/190 200/37/190 239/37/190
f 186/31/191 236/31/191 235/35/191
f 242/26/242 153/26/242 161/26/242
f 161/26/243 244/26/243 248/26/243
f 161/26/244 249/28/244 246/33/244
f 243/15/245 246/33/245 249/28/245
f 246/33/246 243/15/246 252/15/246
f 248/26/247 244/26/247 253/26/247
f 244/26/248 246/33/248 255/33/248
f 241/15/249 250/15/249 256/15/249
f 245/28/250 254/28/250 250/19/250
f 247/15/251 256/15/251 252/15/251
f 242/26/252 248/26/252 257/26/252
f 242/20/253 251/20/253 254/28/253
f 250/15/254 258/15/254 264/15/254
f 254/28/255 262/28/255 258/19/255
f 256/15/256 264/15/256 260/15/256
f 251/20/257 259/20/257 262/28/257
f 251/26/258 257/26/258 265/26/258
f 255/33/259 252/15/259 260/15/259
f 257/26/260 253/26/260 261/26/260
f 253/26/261 255/33/261 263/33/261
