# Blender 5.1.1
# www.blender.org
mtllib engine_alien_0.mtl
o engine_alien_0
v -0.123137 0.051005 -3.363973
v -0.051005 0.123137 -3.363973
v -0.123137 -0.051005 -3.363973
v -0.051005 -0.123137 -3.363973
v 0.051005 -0.123137 -3.363973
v 0.123137 -0.051005 -3.363973
v 0.123137 0.051005 -3.363973
v 0.051005 0.123137 -3.363973
v 0.052145 0.125888 -1.870676
v 0.125888 0.052145 -1.870676
v 0.125888 -0.052144 -1.870676
v 0.052145 -0.125888 -1.870676
v -0.052145 -0.125888 -1.870676
v -0.125888 -0.052144 -1.870676
v -0.052145 0.125888 -1.870676
v -0.125888 0.052145 -1.870676
v -0.634176 0.262684 -1.870676
v -0.262684 0.634176 -1.870676
v -0.634176 -0.262684 -1.870676
v -0.262684 -0.634176 -1.870676
v 0.262684 -0.634176 -1.870676
v 0.634176 -0.262684 -1.870676
v 0.634176 0.262684 -1.870676
v 0.262684 0.634176 -1.870676
v 0.262684 0.634176 -1.465552
v 0.634176 0.262684 -1.465552
v 0.634176 -0.262684 -1.465552
v 0.262684 -0.634176 -1.465552
v -0.262684 -0.634176 -1.465552
v -0.634176 -0.262684 -1.465552
v -0.382683 0.923879 0.000000
v -0.382683 0.923880 -1.465552
v -0.872036 0.225114 -0.643287
v -0.872036 0.225114 -1.307982
v -0.872036 -0.225114 -0.643288
v -0.872036 -0.225114 -1.307982
v -0.382683 -0.923880 -0.000000
v -0.382683 -0.923879 -1.465552
v 0.382683 -0.923880 -0.000000
v 0.382683 -0.923879 -1.465552
v 0.872036 -0.225114 -0.643287
v 0.872036 -0.225114 -1.307982
v 0.872036 0.225114 -0.643287
v 0.872036 0.225114 -1.307982
v 0.382683 0.923880 0.000000
v 0.382683 0.923880 -1.465552
v -0.262684 0.634176 -1.465552
v -0.634176 0.262684 -1.465552
v -0.926360 0.312731 -2.413932
v -0.312731 0.926360 -2.413932
v -0.926360 -0.312731 -2.413932
v -0.312732 -0.926360 -2.413932
v 0.312731 -0.926360 -2.413932
v 0.926360 -0.312732 -2.413932
v 0.926360 0.312732 -2.413932
v 0.312732 0.926360 -2.413932
v 0.000000 0.926360 -2.476138
v -0.926360 -0.000000 -2.476138
v -0.000000 -0.926360 -2.476138
v 0.926360 0.000000 -2.476138
v 0.000000 0.836648 -2.476138
v 0.312732 0.836648 -2.413932
v -0.836648 -0.000000 -2.476138
v -0.836648 0.312731 -2.413932
v -0.000000 -0.836648 -2.476138
v -0.312732 -0.836648 -2.413932
v 0.836648 0.000000 -2.476138
v 0.836648 -0.312732 -2.413932
v -0.836648 -0.312731 -2.413932
v 0.312731 -0.836648 -2.413932
v -0.312731 0.836648 -2.413932
v 0.836648 0.312732 -2.413932
v 0.923879 -0.382683 0.000000
v 0.923879 -0.382683 -1.465552
v 0.923880 0.382684 -1.465552
v 0.923879 0.382683 0.000000
v -0.923879 0.382683 0.000000
v -0.923879 0.382683 -1.465552
v -0.923880 -0.382683 -0.000000
v -0.923879 -0.382683 -1.465552
v 0.784243 -0.225114 -0.643287
v 0.784243 -0.225114 -1.307982
v 0.784243 0.225114 -1.307982
v 0.784243 0.225114 -0.643287
v -0.784243 0.225114 -0.643287
v -0.784243 0.225114 -1.307982
v -0.784243 -0.225114 -0.643288
v -0.784243 -0.225114 -1.307982
v -0.079919 -0.192942 -3.581546
v -0.192942 -0.079919 -3.581546
v 0.192942 0.079919 -3.581546
v 0.192942 -0.079919 -3.581546
v 0.079919 -0.192942 -3.581546
v -0.192942 0.079919 -3.581546
v -0.079919 0.192943 -3.581546
v 0.079919 0.192943 -3.581546
v -0.079919 -0.192942 -3.837226
v -0.192942 -0.079919 -3.837226
v 0.192942 0.079919 -3.837226
v 0.192942 -0.079919 -3.837226
v 0.079919 -0.192942 -3.837226
v -0.192942 0.079919 -3.837226
v -0.079919 0.192943 -3.837226
v 0.079919 0.192943 -3.837226
v 0.000000 0.660186 -3.038811
v 0.000000 0.335964 -1.870700
v 0.466822 0.466822 -3.038811
v 0.237562 0.237562 -1.870700
v 0.660186 0.000000 -3.038811
v 0.335964 0.000000 -1.870700
v 0.466822 -0.466822 -3.038811
v 0.237562 -0.237562 -1.870700
v 0.000000 -0.660186 -3.038811
v 0.000000 -0.335964 -1.870700
v -0.466822 -0.466822 -3.038811
v -0.237562 -0.237562 -1.870700
v -0.660186 0.000000 -3.038811
v -0.335964 0.000000 -1.870700
v -0.466822 0.466822 -3.038811
v -0.237562 0.237562 -1.870700
v 0.000000 0.528082 -3.038811
v 0.373411 0.373411 -3.038811
v 0.190026 0.190026 -1.957526
v 0.000000 0.268737 -1.957526
v 0.528082 0.000000 -3.038811
v 0.268737 0.000000 -1.957526
v 0.373411 -0.373411 -3.038811
v 0.190026 -0.190026 -1.957526
v 0.000000 -0.528082 -3.038811
v 0.000000 -0.268737 -1.957526
v -0.373410 -0.373411 -3.038811
v -0.190026 -0.190026 -1.957526
v -0.528082 0.000000 -3.038811
v -0.268737 0.000000 -1.957526
v -0.373410 0.373411 -3.038811
v -0.190026 0.190026 -1.957526
vn 0.7071 0.7071 -0.0018
vn 1.0000 -0.0000 -0.0018
vn -1.0000 -0.0000 -0.0018
vn -0.0000 1.0000 -0.0018
vn 0.7071 -0.7071 -0.0018
vn -0.7071 0.7071 -0.0018
vn -0.7071 -0.7071 -0.0018
vn -0.6733 0.6733 0.3055
vn -0.0000 -0.0000 -1.0000
vn -0.0000 -1.0000 -0.0018
vn 1.0000 -0.0000 -0.0000
vn -0.0000 1.0000 -0.0000
vn -0.7071 0.7071 -0.0000
vn 0.7071 0.7071 -0.0000
vn -0.7071 -0.7071 -0.0000
vn 0.7071 -0.7071 -0.0000
vn -0.0000 -1.0000 -0.0000
vn -1.0000 -0.0000 -0.0000
vn -0.9958 -0.0000 0.0917
vn 0.9958 -0.0000 0.0917
vn 0.9370 -0.0000 -0.3492
vn -0.0000 0.9370 -0.3492
vn -0.0000 -0.9370 -0.3492
vn -0.9541 -0.0584 -0.2937
vn -0.0000 0.9958 -0.0917
vn -0.0000 -0.9958 -0.0917
vn -0.1951 -0.0000 -0.9808
vn -0.0000 -0.1951 -0.9808
vn 0.1951 -0.0000 -0.9808
vn -0.0000 0.1951 -0.9808
vn -0.0000 -0.9958 0.0917
vn -0.0000 0.9958 0.0917
vn -0.9109 -0.0805 0.4047
vn -0.0805 0.9109 0.4047
vn 0.9109 -0.0805 0.4047
vn 0.0805 -0.9109 0.4047
vn 0.9499 0.3125 -0.0000
vn 0.9499 -0.0000 0.3125
vn 0.9968 -0.0000 -0.0803
vn 0.9499 -0.3125 -0.0000
vn -0.9499 -0.3125 -0.0000
vn -0.9968 -0.0000 -0.0803
vn -0.9499 -0.0000 0.3125
vn -0.9499 0.3125 -0.0000
vn -0.0000 -0.0000 1.0000
vn 0.9522 -0.0000 0.3055
vn -0.0000 0.9522 0.3055
vn -0.6733 -0.6733 0.3055
vn -0.9522 -0.0000 0.3055
vn 0.6733 0.6733 0.3055
vn -0.0000 -0.9522 0.3055
vn 0.6733 -0.6733 0.3055
vn 0.3707 0.8949 0.2484
vn 0.8949 0.3707 0.2484
vn 0.8949 -0.3707 0.2484
vn 0.3707 -0.8949 0.2484
vn -0.3707 -0.8949 0.2484
vn -0.8949 -0.3707 0.2484
vn -0.8949 0.3707 0.2484
vn -0.3707 0.8949 0.2484
vn -0.3736 -0.9020 -0.2163
vn -0.9020 -0.3736 -0.2163
vn -0.9020 0.3736 -0.2163
vn -0.3736 0.9020 -0.2163
vn 0.3736 0.9020 -0.2163
vn 0.9020 0.3736 -0.2163
vn 0.9020 -0.3736 -0.2163
vn 0.3736 -0.9020 -0.2163
vn -0.9370 -0.0000 -0.3492
vn -0.9369 0.0682 -0.3429
vn -0.8805 0.0925 0.4650
vn -0.8807 -0.0000 0.4737
vn 0.0925 0.8805 0.4650
vn -0.0000 0.8807 0.4737
vn 0.8807 -0.0000 0.4737
vn 0.8805 0.0925 0.4650
vn -0.0925 -0.8805 0.4650
vn -0.0000 -0.8807 0.4737
vt 0.125000 0.500000
vt 0.250000 0.500000
vt 0.500000 0.500000
vt 0.625000 0.500000
vt 0.750000 0.500000
vt 0.875000 0.500000
vt 1.000000 0.500000
vt 0.375000 0.500000
vt 0.000000 0.500000
vt 10.497997 -3.641307
vt 1.322075 -1.484666
vt 4.641304 -9.498000
vt 10.497999 4.641309
vt 2.484667 -0.322073
vt 4.641306 10.498001
vt 2.484667 1.322080
vt -9.497999 -3.641302
vt -1.484668 1.322080
vt -9.497998 4.641311
vt -0.322078 -1.484664
vt -1.484669 -0.322073
vt -0.322079 -1.484666
vt -3.641312 -9.497998
vt 1.000000 1.000000
vt 0.525734 0.580406
vt 0.525734 0.919594
vt -3.641304 10.498001
vt 1.322077 2.484671
vt 0.625000 1.000000
vt 0.599266 0.919594
vt 0.500000 1.000000
vt 0.375000 1.000000
vt -0.322076 2.484673
vt 0.125000 1.000000
vt 0.000000 0.000000
vt 0.562500 0.500000
vt 0.599266 0.580406
vt 0.775734 0.919594
vt 0.775734 0.580406
vt 0.849266 0.919594
vt 0.750000 1.000000
vt 0.849266 0.580406
vt 0.875000 1.000000
vt 1.000000 0.000000
vt 0.000000 1.000000
vt 0.250000 1.000000
vt 3.953399 5.499999
vt 0.500001 -4.500001
vt 0.500001 5.499999
vt 0.500000 5.500001
vt -1.257409 -4.499999
vt -2.953399 5.500001
vt 3.953397 5.500001
vt 0.500000 -4.499999
vt 2.257411 -4.500001
vt -1.257408 -4.500001
vt 2.257410 -4.499999
vt -2.953396 5.499999
vt -3.641311 -9.497993
vt 0.812500 0.500000
vt 0.312500 0.500000
vt 0.937500 0.500000
s 0
usemtl no_texture
f 10/1/1 8/2/1 9/2/1
f 11/3/2 7/4/2 10/4/2
f 16/5/3 3/6/3 14/6/3
f 9/6/4 2/7/4 15/7/4
f 12/8/5 6/3/5 11/3/5
f 15/4/6 1/5/6 16/5/6
f 13/1/7 3/9/7 4/1/7
f 2/4/8 94/5/8 1/5/8
f 13/2/10 5/8/10 12/8/10
f 75/1/9 25/2/9 46/2/9
f 80/6/9 48/5/9 30/6/9
f 80/9/9 29/1/9 38/1/9
f 27/3/11 23/4/11 26/4/11
f 31/24/12 46/6/12 32/7/12
f 42/25/12 81/26/12 41/26/12
f 47/4/13 17/5/13 48/5/13
f 78/5/13 31/29/13 32/4/13
f 26/1/14 24/2/14 25/2/14
f 41/26/9 84/30/9 43/30/9
f 30/9/15 20/1/15 29/1/15
f 28/8/16 22/3/16 27/3/16
f 73/31/16 40/8/16 74/3/16
f 78/5/9 47/4/9 48/5/9
f 46/6/9 47/7/9 32/7/9
f 39/32/17 38/2/17 40/8/17
f 29/2/17 21/8/17 28/8/17
f 40/8/9 27/3/9 74/3/9
f 40/8/9 29/2/9 28/8/9
f 46/2/14 76/34/14 75/1/14
f 37/34/15 80/9/15 38/1/15
f 48/5/18 19/6/18 30/6/18
f 25/6/12 18/7/12 47/7/12
f 74/3/9 26/4/9 75/4/9
f 18/35/19 50/35/19 71/35/19
f 52/35/19 20/35/19 66/35/19
f 21/35/20 53/35/20 70/35/20
f 69/6/21 64/5/21 17/5/21
f 70/8/22 66/2/22 20/2/22
f 71/7/23 62/6/23 24/6/23
f 23/4/24 67/36/24 68/3/24
f 56/35/20 24/35/20 62/35/20
f 22/35/25 54/35/25 68/35/25
f 55/35/26 23/35/26 72/35/26
f 57/35/27 71/35/27 50/35/27
f 51/35/28 63/35/28 69/35/28
f 56/35/29 61/35/29 57/35/29
f 59/35/29 70/35/29 53/35/29
f 49/35/30 63/35/30 58/35/30
f 60/35/30 72/35/30 55/35/30
f 52/35/27 65/35/27 59/35/27
f 68/35/28 60/35/28 54/35/28
f 19/35/31 51/35/31 69/35/31
f 49/35/32 17/35/32 64/35/32
f 19/35/33 49/35/33 58/35/33
f 18/35/34 56/35/34 57/35/34
f 22/35/35 60/35/35 55/35/35
f 21/35/36 52/35/36 59/35/36
f 41/26/37 74/3/37 42/25/37
f 44/37/38 74/3/38 75/4/38
f 43/30/39 73/31/39 41/26/39
f 43/30/40 75/4/40 76/29/40
f 33/38/41 78/5/41 34/39/41
f 35/40/42 77/41/42 33/38/42
f 36/42/43 78/5/43 80/6/43
f 35/40/44 80/6/44 79/43/44
f 35/40/12 88/42/12 36/42/12
f 33/38/9 87/40/9 35/40/9
f 43/30/17 83/37/17 44/37/17
f 44/37/45 82/25/45 42/25/45
f 36/42/45 86/39/45 34/39/45
f 34/39/17 85/38/17 33/38/17
f 95/4/13 102/5/13 94/5/13
f 6/3/46 91/4/46 7/4/46
f 8/6/47 95/7/47 2/7/47
f 4/1/48 90/9/48 89/1/48
f 3/6/49 94/5/49 90/6/49
f 8/2/50 91/1/50 96/2/50
f 4/2/51 93/8/51 5/8/51
f 5/8/52 92/3/52 6/3/52
f 103/7/9 99/4/9 101/8/9
f 96/6/12 103/7/12 95/7/12
f 93/8/16 100/3/16 92/3/16
f 92/3/11 99/4/11 91/4/11
f 91/1/14 104/2/14 96/2/14
f 94/5/18 98/6/18 90/6/18
f 89/2/17 101/8/17 93/8/17
f 90/9/15 97/1/15 89/1/15
f 106/24/53 107/6/53 105/7/53
f 108/43/54 109/5/54 107/6/54
f 110/41/55 111/4/55 109/5/55
f 112/29/56 113/3/56 111/4/56
f 114/31/57 115/8/57 113/3/57
f 115/8/58 118/46/58 117/2/58
f 117/2/59 120/34/59 119/1/59
f 120/34/60 105/9/60 119/1/60
f 113/3/9 127/4/9 111/4/9
f 107/6/9 125/5/9 122/6/9
f 119/1/9 133/2/9 117/2/9
f 115/8/9 129/3/9 113/3/9
f 111/4/9 125/5/9 109/5/9
f 119/1/9 121/9/9 135/1/9
f 107/6/9 121/7/9 105/7/9
f 115/8/9 133/2/9 131/8/9
f 10/1/1 7/1/1 8/2/1
f 11/3/2 6/3/2 7/4/2
f 16/5/3 1/5/3 3/6/3
f 9/6/4 8/6/4 2/7/4
f 12/8/5 5/8/5 6/3/5
f 15/4/6 2/4/6 1/5/6
f 13/1/7 14/9/7 3/9/7
f 2/4/8 95/4/8 94/5/8
f 13/2/10 4/2/10 5/8/10
f 75/1/9 26/1/9 25/2/9
f 80/6/9 78/5/9 48/5/9
f 80/9/9 30/9/9 29/1/9
f 27/3/11 22/3/11 23/4/11
f 31/24/12 45/43/12 46/6/12
f 42/25/12 82/25/12 81/26/12
f 47/4/13 18/4/13 17/5/13
f 78/5/13 77/41/13 31/29/13
f 26/1/14 23/1/14 24/2/14
f 41/26/9 81/26/9 84/30/9
f 30/9/15 19/9/15 20/1/15
f 28/8/16 21/8/16 22/3/16
f 73/31/16 39/32/16 40/8/16
f 78/5/9 32/4/9 47/4/9
f 46/6/9 25/6/9 47/7/9
f 39/32/17 37/46/17 38/2/17
f 29/2/17 20/2/17 21/8/17
f 40/8/9 28/8/9 27/3/9
f 40/8/9 38/2/9 29/2/9
f 46/2/14 45/46/14 76/34/14
f 37/34/15 79/45/15 80/9/15
f 48/5/18 17/5/18 19/6/18
f 25/6/12 24/6/12 18/7/12
f 74/3/9 27/3/9 26/4/9
f 17/5/21 19/6/21 69/6/21
f 69/6/11 63/60/11 64/5/11
f 20/2/22 21/8/22 70/8/22
f 70/8/12 65/61/12 66/2/12
f 24/6/23 18/7/23 71/7/23
f 71/7/17 61/62/17 62/6/17
f 68/3/69 22/3/69 23/4/69
f 23/4/70 72/4/70 67/36/70
f 57/35/27 61/35/27 71/35/27
f 51/35/28 58/35/28 63/35/28
f 56/35/29 62/35/29 61/35/29
f 59/35/29 65/35/29 70/35/29
f 49/35/30 64/35/30 63/35/30
f 60/35/30 67/35/30 72/35/30
f 52/35/27 66/35/27 65/35/27
f 68/35/28 67/35/28 60/35/28
f 58/35/71 51/35/71 19/35/71
f 19/35/72 17/35/72 49/35/72
f 57/35/73 50/35/73 18/35/73
f 18/35/74 24/35/74 56/35/74
f 55/35/75 23/35/75 22/35/75
f 22/35/76 54/35/76 60/35/76
f 59/35/77 53/35/77 21/35/77
f 21/35/78 20/35/78 52/35/78
f 41/26/37 73/31/37 74/3/37
f 44/37/38 42/25/38 74/3/38
f 43/30/39 76/29/39 73/31/39
f 43/30/40 44/37/40 75/4/40
f 33/38/41 77/41/41 78/5/41
f 35/40/42 79/43/42 77/41/42
f 36/42/43 34/39/43 78/5/43
f 35/40/44 36/42/44 80/6/44
f 35/40/12 87/40/12 88/42/12
f 33/38/9 85/38/9 87/40/9
f 43/30/17 84/30/17 83/37/17
f 44/37/45 83/37/45 82/25/45
f 36/42/45 88/42/45 86/39/45
f 34/39/17 86/39/17 85/38/17
f 95/4/13 103/4/13 102/5/13
f 6/3/46 92/3/46 91/4/46
f 8/6/47 96/6/47 95/7/47
f 4/1/48 3/9/48 90/9/48
f 3/6/49 1/5/49 94/5/49
f 8/2/50 7/1/50 91/1/50
f 4/2/51 89/2/51 93/8/51
f 5/8/52 93/8/52 92/3/52
f 101/8/9 97/2/9 98/6/9
f 98/6/9 102/5/9 103/7/9
f 103/7/9 104/2/9 99/4/9
f 99/4/9 100/3/9 101/8/9
f 101/8/9 98/6/9 103/7/9
f 96/6/12 104/6/12 103/7/12
f 93/8/16 101/8/16 100/3/16
f 92/3/11 100/3/11 99/4/11
f 91/1/14 99/1/14 104/2/14
f 94/5/18 102/5/18 98/6/18
f 89/2/17 97/2/17 101/8/17
f 90/9/15 98/9/15 97/1/15
f 106/24/53 108/43/53 107/6/53
f 108/43/54 110/41/54 109/5/54
f 110/41/55 112/29/55 111/4/55
f 112/29/56 114/31/56 113/3/56
f 114/31/57 116/32/57 115/8/57
f 115/8/58 116/32/58 118/46/58
f 117/2/59 118/46/59 120/34/59
f 120/34/60 106/45/60 105/9/60
f 113/3/9 129/3/9 127/4/9
f 107/6/9 109/5/9 125/5/9
f 119/1/9 135/1/9 133/2/9
f 115/8/9 131/8/9 129/3/9
f 111/4/9 127/4/9 125/5/9
f 119/1/9 105/9/9 121/9/9
f 107/6/9 122/6/9 121/7/9
f 115/8/9 117/2/9 133/2/9
usemtl basic_grid
f 17/10/9 14/11/9 19/12/9
f 18/13/9 16/14/9 17/10/9
f 24/15/9 15/16/9 18/13/9
f 21/17/9 11/18/9 22/19/9
f 21/17/9 13/20/9 12/21/9
f 19/12/9 13/22/9 20/23/9
f 23/27/9 9/28/9 24/15/9
f 23/27/9 11/18/9 10/33/9
f 122/47/61 124/48/61 121/49/61
f 125/50/62 123/51/62 122/52/62
f 127/53/63 126/54/63 125/50/63
f 129/49/64 128/55/64 127/47/64
f 129/49/65 132/56/65 130/48/65
f 131/53/66 134/54/66 132/57/66
f 135/52/67 134/54/67 133/50/67
f 121/49/68 136/56/68 135/58/68
f 17/10/9 16/14/9 14/11/9
f 18/13/9 15/16/9 16/14/9
f 24/15/9 9/28/9 15/16/9
f 21/17/9 12/21/9 11/18/9
f 21/17/9 20/59/9 13/20/9
f 19/12/9 14/11/9 13/22/9
f 23/27/9 10/33/9 9/28/9
f 23/27/9 22/19/9 11/18/9
f 122/47/61 123/55/61 124/48/61
f 125/50/62 126/54/62 123/51/62
f 127/53/63 128/57/63 126/54/63
f 129/49/64 130/48/64 128/55/64
f 129/49/65 131/58/65 132/56/65
f 131/53/66 133/50/66 134/54/66
f 135/52/67 136/51/67 134/54/67
f 121/49/68 124/48/68 136/56/68
usemtl hole_gribblies
f 87/35/18 86/24/18 88/44/18
f 84/44/11 82/45/11 83/35/11
f 87/35/18 85/45/18 86/24/18
f 84/44/11 81/24/11 82/45/11
