# Blender 5.1.1
# www.blender.org
mtllib engine_alien_1_trail.mtl
o engine_alien_1_trail
v -0.000000 -1.000653 -8.344777
v 0.707568 -0.707569 -8.344777
v 1.000653 -0.000000 -8.344777
v 0.707568 0.707569 -8.344777
v -0.000000 1.000653 -8.344777
v -0.707569 0.707569 -8.344777
v -1.000653 -0.000000 -8.344777
v -0.707569 -0.707569 -8.344777
v -0.000000 -0.000000 -53.792786
v -1.011239 -2.441347 -14.443584
v 1.011239 -2.441346 -14.443584
v 2.441346 -1.011239 -14.443584
v 2.441346 1.011238 -14.443584
v 1.011239 2.441346 -14.443584
v -1.011239 2.441346 -14.443584
v -2.441346 1.011239 -14.443584
v -2.441346 -1.011239 -14.443584
v -0.530683 -1.281182 -4.332106
v 0.530683 -1.281182 -4.332106
v 1.281182 -0.530683 -4.332106
v 1.281182 0.530684 -4.332106
v 0.530683 1.281182 -4.332106
v -0.530683 1.281183 -4.332106
v -1.281182 0.530683 -4.332106
v -1.281182 -0.530683 -4.332106
v -0.000000 -1.605990 -5.304442
v 1.135606 -1.135606 -5.304442
v 1.605989 -0.000000 -5.304442
v 1.135606 1.135606 -5.304442
v 0.000000 1.605989 -5.304442
v -1.135606 1.135606 -5.304442
v -1.605989 0.000000 -5.304442
v -1.135606 -1.135606 -5.304442
v -0.500326 -0.000000 -31.068781
v 0.353784 0.353784 -31.068781
v -0.353784 0.353784 -31.068781
v 0.500326 -0.000000 -31.068781
v -0.000000 -0.500327 -31.068783
v -0.353784 -0.353784 -31.068781
v -0.000000 0.500326 -31.068781
v 0.353784 -0.353784 -31.068781
vn 0.3826 -0.9237 -0.0203
vn 0.9237 -0.3826 -0.0203
vn 0.9237 0.3826 -0.0203
vn 0.3826 0.9237 -0.0203
vn -0.3826 0.9237 -0.0203
vn -0.9237 0.3826 -0.0203
vn -0.9237 -0.3826 -0.0203
vn -0.3826 -0.9237 -0.0203
vn -0.9485 -0.0000 0.3168
vn -0.0000 0.9485 0.3168
vn 0.9485 -0.0000 0.3168
vn -0.0000 -0.9485 0.3168
vn -0.6707 -0.6707 0.3168
vn -0.6707 0.6707 0.3168
vn 0.6707 0.6707 0.3168
vn 0.6707 -0.6707 0.3168
vn -0.9308 0.3441 0.1232
vn -0.9308 -0.3441 0.1232
vn 0.3441 0.9308 0.1232
vn -0.3441 0.9308 0.1232
vn 0.9308 -0.3441 0.1232
vn 0.9308 0.3441 0.1232
vn -0.3441 -0.9308 0.1232
vn 0.3441 -0.9308 0.1232
vn -0.9015 -0.4149 0.1232
vn -0.4149 -0.9015 0.1232
vn -0.4149 0.9015 0.1232
vn -0.9015 0.4149 0.1232
vn 0.9015 0.4149 0.1232
vn 0.4149 0.9015 0.1232
vn 0.4149 -0.9015 0.1232
vn 0.9015 -0.4149 0.1232
vt 0.250000 0.370000
vt 0.419706 0.419706
vt 0.250000 0.490000
vt 0.334853 0.334853
vt 0.490000 0.250000
vt 0.334853 0.165147
vt 0.419706 0.080294
vt 0.250000 0.010000
vt 0.165147 0.165147
vt 0.080294 0.080294
vt 0.010000 0.250000
vt 0.130000 0.250000
vt 0.080294 0.419706
vt 0.165147 0.334853
vt 0.545147 0.334853
vt 0.580294 0.419706
vt 0.510000 0.250000
vt 0.665147 0.045147
vt 0.580294 0.080294
vt 0.750000 0.010000
vt 0.954853 0.165147
vt 0.919706 0.080294
vt 0.990000 0.250000
vt 0.834853 0.454853
vt 0.919706 0.419706
vt 0.750000 0.490000
vt 0.665147 0.454853
vt 0.545147 0.165147
vt 0.834853 0.045147
vt 0.954853 0.334853
vt 0.370000 0.250000
vt 0.250000 0.250000
vt 0.250000 0.130000
s 0
usemtl burn_0
f 38/1/1 2/2/1 1/3/1
f 41/4/2 3/5/2 2/2/2
f 3/5/3 35/6/3 4/7/3
f 35/6/4 5/8/4 4/7/4
f 5/8/5 36/9/5 6/10/5
f 36/9/6 7/11/6 6/10/6
f 34/12/7 8/13/7 7/11/7
f 39/14/8 1/3/8 8/13/8
f 32/15/9 25/16/9 24/17/9
f 30/18/10 23/19/10 22/20/10
f 28/21/11 21/22/11 20/23/11
f 26/24/12 19/25/12 18/26/12
f 33/27/13 18/26/13 25/16/13
f 31/28/14 24/17/14 23/19/14
f 29/29/15 22/20/15 21/22/15
f 27/30/16 20/23/16 19/25/16
f 37/31/2 41/4/2 9/32/2
f 39/14/7 34/12/7 9/32/7
f 35/6/3 37/31/3 9/32/3
f 38/1/8 39/14/8 9/32/8
f 40/33/4 35/6/4 9/32/4
f 36/9/5 40/33/5 9/32/5
f 41/4/1 38/1/1 9/32/1
f 34/12/6 36/9/6 9/32/6
f 38/1/1 41/4/1 2/2/1
f 41/4/2 37/31/2 3/5/2
f 3/5/3 37/31/3 35/6/3
f 35/6/4 40/33/4 5/8/4
f 5/8/5 40/33/5 36/9/5
f 36/9/6 34/12/6 7/11/6
f 34/12/7 39/14/7 8/13/7
f 39/14/8 38/1/8 1/3/8
f 24/17/17 16/17/17 32/15/17
f 32/15/18 17/16/18 25/16/18
f 22/20/19 14/20/19 30/18/19
f 30/18/20 15/19/20 23/19/20
f 20/23/21 12/23/21 28/21/21
f 28/21/22 13/22/22 21/22/22
f 18/26/23 10/26/23 26/24/23
f 26/24/24 11/25/24 19/25/24
f 25/16/25 17/16/25 33/27/25
f 33/27/26 10/26/26 18/26/26
f 23/19/27 15/19/27 31/28/27
f 31/28/28 16/17/28 24/17/28
f 21/22/29 13/22/29 29/29/29
f 29/29/30 14/20/30 22/20/30
f 19/25/31 11/25/31 27/30/31
f 27/30/32 12/23/32 20/23/32
