# Blender 5.1.1
# www.blender.org
mtllib engine_alien_1.mtl
o engine_alien_1
v -0.106781 0.059000 -6.852442
v -0.044230 0.142402 -6.852442
v -0.106781 -0.058947 -6.852442
v -0.044230 -0.142348 -6.852442
v 0.044230 -0.142348 -6.852442
v 0.106781 -0.058947 -6.852442
v 0.106781 0.059000 -6.852442
v 0.044230 0.142402 -6.852442
v 0.045218 0.145582 -3.790000
v 0.109167 0.060318 -3.790000
v 0.109167 -0.060264 -3.790000
v 0.045218 -0.145528 -3.790000
v -0.045218 -0.145528 -3.790000
v -0.109167 -0.060264 -3.790000
v -0.045218 0.145582 -3.790000
v -0.109167 0.060318 -3.790000
v -1.268351 0.525395 -3.790644
v -0.525368 1.268378 -3.790644
v -1.268351 -0.525341 -3.790644
v -0.525368 -1.268324 -3.790644
v 0.525368 -1.268324 -3.790644
v 1.268351 -0.525341 -3.790644
v 1.268351 0.525395 -3.790644
v 0.525368 1.268378 -3.790644
v 0.525368 1.514917 -2.980396
v 1.268351 0.525395 -2.980396
v 1.268351 -0.525341 -2.980396
v 0.525368 -1.514863 -2.980396
v -0.525368 -1.514863 -2.980396
v -1.268351 -0.525341 -2.980396
v -0.765367 1.847786 0.000000
v -0.765367 1.847786 -2.604594
v -1.847760 0.225141 -1.668214
v -1.847760 0.225141 -2.332909
v -1.847760 -0.225087 -1.668214
v -1.847760 -0.225087 -2.332909
v -0.765367 -1.847732 -0.000000
v -0.765367 -1.847732 -2.604594
v 0.765367 -1.847732 -0.000000
v 0.765367 -1.847732 -2.604594
v 1.847760 -0.225087 -1.668214
v 1.847760 -0.225087 -2.332909
v 1.847760 0.225140 -1.668214
v 1.847760 0.225141 -2.332909
v 0.765367 1.847786 0.000000
v 0.765367 1.847786 -2.604594
v -0.525368 1.514917 -2.980396
v -1.268351 0.525395 -2.980396
v -1.852720 0.625489 -4.877155
v -0.625463 1.852748 -4.877155
v -1.852720 -0.625436 -4.877155
v -0.625463 -1.852694 -4.877155
v 0.625463 -1.852694 -4.877155
v 1.852720 -0.625436 -4.877155
v 1.852720 0.625490 -4.877155
v 0.625463 1.852748 -4.877155
v 0.000000 1.852748 -5.001568
v -1.852720 0.000027 -5.001568
v -0.000000 -1.852694 -5.001568
v 1.852720 0.000027 -5.001568
v 0.000000 1.673322 -5.001567
v 0.625463 1.673322 -4.877155
v -1.673295 0.000027 -5.001567
v -1.673295 0.625489 -4.877155
v -0.000000 -1.673268 -5.001567
v -0.625463 -1.673268 -4.877155
v 1.673295 0.000027 -5.001567
v 1.673295 -0.625436 -4.877155
v -1.673295 -0.625436 -4.877155
v 0.625463 -1.673268 -4.877155
v -0.625463 1.673322 -4.877155
v 1.673295 0.625490 -4.877155
v 1.847759 -0.765340 0.000000
v 1.847759 -0.765340 -2.604594
v 1.847759 0.765394 -2.604594
v 1.847759 0.765393 0.000000
v -1.847759 0.765393 0.000000
v -1.847759 0.765393 -2.604594
v -1.847759 -0.765340 -0.000000
v -1.847759 -0.765340 -2.604594
v 1.688854 -0.225087 -1.668214
v 1.688854 -0.225087 -2.332909
v 1.688854 0.225141 -2.332909
v 1.688854 0.225140 -1.668214
v -1.688854 0.225141 -1.668214
v -1.688854 0.225141 -2.332909
v -1.688854 -0.225087 -1.668214
v -1.688854 -0.225087 -2.332909
v -0.069304 -0.223059 -7.061651
v -0.167314 -0.092378 -7.061651
v 0.167314 0.092432 -7.061651
v 0.167314 -0.092378 -7.061651
v 0.069304 -0.223059 -7.061651
v -0.167314 0.092432 -7.061651
v -0.069304 0.223113 -7.061651
v 0.069304 0.223113 -7.061651
v -0.069304 -0.223059 -7.339833
v -0.167314 -0.092378 -7.339833
v 0.167314 0.092432 -7.339833
v 0.167314 -0.092378 -7.339833
v 0.069304 -0.223059 -7.339833
v -0.167314 0.092432 -7.339833
v -0.069304 0.223113 -7.339833
v 0.069304 0.223113 -7.339833
v 0.000000 1.172071 -5.995691
v 0.015233 0.596472 -3.790900
v 0.828761 0.828788 -5.995691
v 0.436983 0.421777 -3.790900
v 1.172045 0.000027 -5.995691
v 0.611678 0.000027 -3.790900
v 0.828761 -0.828734 -5.995691
v 0.436983 -0.421724 -3.790900
v 0.000000 -1.172018 -5.995691
v 0.015233 -0.596418 -3.790900
v -0.828760 -0.828734 -5.995691
v -0.406517 -0.421724 -3.790900
v -1.172044 0.000027 -5.995691
v -0.581212 0.000027 -3.790900
v -0.828760 0.828788 -5.995691
v -0.406517 0.421777 -3.790900
v 0.000000 1.056192 -6.126913
v 0.746821 0.746848 -6.126913
v 0.380052 0.380079 -3.964345
v 0.000000 0.537502 -3.964345
v 1.056164 0.000027 -6.126913
v 0.537475 0.000027 -3.964345
v 0.746821 -0.746794 -6.126913
v 0.380052 -0.380025 -3.964345
v 0.000000 -1.056138 -6.126913
v 0.000000 -0.537448 -3.964345
v -0.746821 -0.746794 -6.126913
v -0.380052 -0.380025 -3.964345
v -1.056164 0.000027 -6.126913
v -0.537475 0.000027 -3.964345
v -0.746821 0.746848 -6.126913
v -0.380052 0.380079 -3.964345
v -1.789073 -0.071515 -2.663319
v -1.789073 0.028279 -2.663319
v -1.789073 -0.071515 -4.842062
v -1.789073 0.028279 -4.842062
v -1.689279 -0.071515 -2.733390
v -1.689279 0.028279 -2.733390
v -1.689279 -0.071515 -4.605246
v -1.689279 0.028279 -4.605246
v 1.789077 -0.071515 -2.663319
v 1.789077 0.028279 -2.663319
v 1.789077 -0.071515 -4.842062
v 1.789077 0.028279 -4.842062
v 1.689283 -0.071515 -2.733390
v 1.689283 0.028279 -2.733390
v 1.689283 -0.071515 -4.605246
v 1.689283 0.028279 -4.605246
v -0.049895 1.767457 -2.663319
v 0.049899 1.767457 -2.663319
v -0.049895 1.767457 -4.842062
v 0.049899 1.767457 -4.842062
v -0.049895 1.667664 -2.794269
v 0.049899 1.667664 -2.794269
v -0.049895 1.667664 -4.605246
v 0.049899 1.667664 -4.605246
v -0.049895 -1.810693 -2.663319
v 0.049899 -1.810693 -2.663319
v -0.049895 -1.810693 -4.842062
v 0.049899 -1.810693 -4.842062
v -0.049895 -1.710899 -2.794269
v 0.049899 -1.710899 -2.794269
v -0.049895 -1.710899 -4.605246
v 0.049899 -1.710899 -4.605246
vn 0.8000 0.6000 -0.0009
vn 1.0000 -0.0000 -0.0008
vn -1.0000 -0.0000 -0.0008
vn -0.0000 1.0000 -0.0010
vn 0.8000 -0.6000 -0.0009
vn -0.8000 0.6000 -0.0009
vn -0.8000 -0.6000 -0.0009
vn -0.7603 0.5702 0.3111
vn 0.0006 -0.0000 -1.0000
vn -0.0000 -1.0000 -0.0010
vn 0.5536 0.4156 -0.7217
vn -0.5442 -0.0000 -0.8390
vn 0.0004 -0.0003 -1.0000
vn -0.5536 -0.4156 -0.7217
vn -0.0000 -0.0006 -1.0000
vn -0.0004 0.0003 -1.0000
vn 1.0000 -0.0000 -0.0000
vn -0.0000 0.0006 -1.0000
vn 0.0004 0.0004 -1.0000
vn -0.0000 1.0000 -0.0000
vn -0.7071 0.7071 -0.0000
vn -0.0004 -0.0004 -1.0000
vn 0.7867 0.5907 -0.1797
vn -0.0000 -0.0000 -1.0000
vn -0.7867 -0.5907 -0.1797
vn 0.7071 -0.7071 -0.0000
vn -0.3848 0.3848 -0.8390
vn -0.0000 0.7486 -0.6631
vn -0.0000 -1.0000 -0.0000
vn -0.0000 -0.9567 -0.2911
vn -0.0006 -0.0000 -1.0000
vn 0.3848 -0.3848 -0.8390
vn -0.0000 -0.7486 -0.6631
vn 0.7071 0.7071 -0.0000
vn -0.7071 -0.7071 -0.0000
vn -1.0000 -0.0000 -0.0000
vn -0.0000 0.9567 -0.2911
vn 0.5442 -0.0000 -0.8390
vn -0.9958 -0.0000 0.0917
vn 0.9958 -0.0000 0.0917
vn 0.9370 -0.0000 -0.3492
vn -0.0000 0.9370 -0.3492
vn -0.0000 -0.9370 -0.3492
vn -0.9541 -0.0584 -0.2937
vn -0.0000 0.9958 -0.0917
vn -0.0000 -0.9958 -0.0917
vn -0.1951 -0.0000 -0.9808
vn -0.0000 -0.1951 -0.9808
vn 0.1951 -0.0000 -0.9808
vn -0.0000 0.1951 -0.9808
vn -0.0000 -0.9958 0.0917
vn -0.0000 0.9958 0.0917
vn -0.9109 -0.0805 0.4047
vn -0.0805 0.9109 0.4047
vn 0.9109 -0.0805 0.4047
vn 0.0805 -0.9109 0.4047
vn -0.0000 -0.0000 1.0000
vn -0.8000 0.6000 -0.0000
vn 0.9606 -0.0000 0.2779
vn -0.0000 0.9330 0.3599
vn -0.7603 -0.5702 0.3111
vn -0.9606 -0.0000 0.2779
vn 0.7603 0.5702 0.3111
vn -0.0000 -0.9330 0.3599
vn 0.7603 -0.5702 0.3111
vn 0.8000 -0.6000 -0.0000
vn 0.8000 0.6000 -0.0000
vn -0.8000 -0.6000 -0.0000
vn 0.3722 0.8987 0.2320
vn 0.8994 0.3726 0.2286
vn 0.8994 -0.3726 0.2286
vn 0.3722 -0.8987 0.2320
vn -0.3718 -0.8976 0.2369
vn -0.8968 -0.3715 0.2403
vn -0.8968 0.3715 0.2403
vn -0.3718 0.8976 0.2369
vn -0.3736 -0.9020 -0.2163
vn -0.9020 -0.3736 -0.2163
vn -0.9020 0.3736 -0.2163
vn -0.3736 0.9020 -0.2163
vn 0.3736 0.9020 -0.2163
vn 0.9020 0.3736 -0.2163
vn 0.9020 -0.3736 -0.2163
vn 0.3736 -0.9020 -0.2163
vn 0.2965 -0.7159 -0.6322
vn 0.7159 0.2965 -0.6322
vn -0.7159 0.2965 -0.6322
vn -0.2965 -0.7159 -0.6322
vn 0.7159 -0.2965 -0.6322
vn -0.2965 0.7159 -0.6322
vn 0.2965 0.7159 -0.6322
vn -0.7159 -0.2965 -0.6322
vn 0.3848 0.3848 -0.8390
vn 0.0004 -0.0004 -1.0000
vn -0.3848 -0.3848 -0.8390
vn -0.0004 0.0004 -1.0000
vn 0.0004 0.0003 -1.0000
vn -0.7867 0.5907 -0.1797
vn -0.0004 -0.0003 -1.0000
vn 0.7867 -0.5907 -0.1797
vn -0.5536 0.4156 -0.7217
vn 0.5536 -0.4156 -0.7217
vn -0.9370 -0.0000 -0.3492
vn -0.9369 0.0682 -0.3429
vn -0.8805 0.0925 0.4650
vn -0.8807 -0.0000 0.4737
vn 0.0925 0.8805 0.4650
vn -0.0000 0.8807 0.4737
vn 0.8807 -0.0000 0.4737
vn 0.8805 0.0925 0.4650
vn -0.0925 -0.8805 0.4650
vn -0.0000 -0.8807 0.4737
vt 0.125000 0.500000
vt 0.250000 0.500000
vt 0.500000 0.500000
vt 0.625000 0.500000
vt 0.750000 0.500000
vt 0.875000 0.500000
vt 1.000000 0.500000
vt 0.375000 0.500000
vt 0.000000 0.500000
vt 10.497997 -3.641307
vt 1.322075 -1.484666
vt 4.641304 -9.498000
vt 2.484667 1.322080
vt 2.484667 -0.322073
vt 4.641306 10.498001
vt 10.497999 4.641309
vt -9.497998 4.641311
vt -1.484669 -0.322073
vt -1.484668 1.322080
vt -3.641311 -9.497993
vt -9.497999 -3.641302
vt -0.322079 -1.484666
vt -3.641312 -9.497998
vt 0.875000 1.000000
vt 0.525734 0.580406
vt 0.525734 0.919594
vt -3.641304 10.498001
vt 1.322077 2.484671
vt 0.750000 1.000000
vt 0.599266 0.919594
vt 0.500000 1.000000
vt 0.375000 1.000000
vt -0.322076 2.484673
vt 0.250000 1.000000
vt 0.125000 1.000000
vt 0.000000 0.000000
vt 0.562500 0.500000
vt 0.599266 0.580406
vt 0.625000 1.000000
vt 0.775734 0.919594
vt 0.775734 0.580406
vt 0.849266 0.919594
vt 0.849266 0.580406
vt 1.000000 1.000000
vt 1.000000 0.000000
vt 0.000000 1.000000
vt 0.500001 5.499999
vt 2.257411 -4.500001
vt 0.500001 -4.500001
vt 0.500000 5.500001
vt -1.257409 -4.499999
vt -2.953399 5.500001
vt 3.953397 5.500001
vt 0.500000 -4.499999
vt 3.953399 5.499999
vt -2.953396 5.499999
vt 2.257410 -4.499999
vt -1.257408 -4.500001
vt 0.625000 0.000000
vt 0.375000 0.250000
vt 0.375000 0.000000
vt 0.375000 0.750000
vt 0.125000 0.750000
vt 0.875000 0.750000
vt 0.625000 0.750000
vt -0.322078 -1.484664
vt 0.812500 0.500000
vt 0.312500 0.500000
vt 0.937500 0.500000
vt 0.625000 0.250000
s 0
usemtl no_texture
f 10/1/1 8/2/1 9/2/1
f 11/3/2 7/4/2 10/4/2
f 16/5/3 3/6/3 14/6/3
f 9/6/4 2/7/4 15/7/4
f 11/3/5 5/8/5 6/3/5
f 16/5/6 2/4/6 1/5/6
f 14/9/7 4/1/7 13/1/7
f 2/4/8 94/5/8 1/5/8
f 13/2/10 5/8/10 12/8/10
f 46/2/11 26/1/11 25/2/11
f 78/5/12 30/6/12 80/6/12
f 38/1/14 30/9/14 29/1/14
f 27/3/17 23/4/17 26/4/17
f 32/7/20 45/24/20 46/6/20
f 42/25/20 81/26/20 41/26/20
f 48/5/21 18/4/21 17/5/21
f 77/29/21 32/4/21 78/5/21
f 26/1/23 24/2/23 25/2/23
f 41/26/24 84/30/24 43/30/24
f 30/9/25 20/1/25 29/1/25
f 27/3/26 21/8/26 22/3/26
f 73/31/26 40/8/26 74/3/26
f 32/4/27 48/5/27 78/5/27
f 32/7/28 25/6/28 47/7/28
f 39/32/29 38/2/29 40/8/29
f 29/2/30 21/8/30 28/8/30
f 40/8/32 27/3/32 74/3/32
f 40/8/33 29/2/33 28/8/33
f 45/34/34 75/1/34 46/2/34
f 37/35/35 80/9/35 38/1/35
f 48/5/36 19/6/36 30/6/36
f 25/6/37 18/7/37 47/7/37
f 74/3/38 26/4/38 75/4/38
f 18/36/39 50/36/39 71/36/39
f 52/36/39 20/36/39 66/36/39
f 21/36/40 53/36/40 70/36/40
f 69/6/41 64/5/41 17/5/41
f 70/8/42 66/2/42 20/2/42
f 71/7/43 62/6/43 24/6/43
f 23/4/44 67/37/44 68/3/44
f 56/36/40 24/36/40 62/36/40
f 22/36/45 54/36/45 68/36/45
f 55/36/46 23/36/46 72/36/46
f 57/36/47 71/36/47 50/36/47
f 51/36/48 63/36/48 69/36/48
f 56/36/49 61/36/49 57/36/49
f 53/36/49 65/36/49 70/36/49
f 49/36/50 63/36/50 58/36/50
f 67/36/50 55/36/50 60/36/50
f 52/36/47 65/36/47 59/36/47
f 54/36/48 67/36/48 60/36/48
f 19/36/51 51/36/51 69/36/51
f 49/36/52 17/36/52 64/36/52
f 19/36/53 49/36/53 58/36/53
f 18/36/54 56/36/54 57/36/54
f 22/36/55 60/36/55 55/36/55
f 21/36/56 52/36/56 59/36/56
f 41/26/17 74/3/17 42/25/17
f 44/38/17 74/3/17 75/4/17
f 43/30/17 73/31/17 41/26/17
f 43/30/17 75/4/17 76/39/17
f 33/40/36 78/5/36 34/41/36
f 35/42/36 77/29/36 33/40/36
f 34/41/36 80/6/36 36/43/36
f 35/42/36 80/6/36 79/24/36
f 36/43/20 87/42/20 88/43/20
f 33/40/24 87/42/24 35/42/24
f 43/30/29 83/38/29 44/38/29
f 44/38/57 82/25/57 42/25/57
f 36/43/57 86/41/57 34/41/57
f 34/41/29 85/40/29 33/40/29
f 95/4/58 102/5/58 94/5/58
f 6/3/59 91/4/59 7/4/59
f 8/6/60 95/7/60 2/7/60
f 4/1/61 90/9/61 89/1/61
f 1/5/62 90/6/62 3/6/62
f 8/2/63 91/1/63 96/2/63
f 4/2/64 93/8/64 5/8/64
f 5/8/65 92/3/65 6/3/65
f 103/7/24 99/4/24 101/8/24
f 96/6/20 103/7/20 95/7/20
f 93/8/66 100/3/66 92/3/66
f 92/3/17 99/4/17 91/4/17
f 91/1/67 104/2/67 96/2/67
f 94/5/36 98/6/36 90/6/36
f 89/2/29 101/8/29 93/8/29
f 90/9/68 97/1/68 89/1/68
f 106/44/69 107/6/69 105/7/69
f 108/24/70 109/5/70 107/6/70
f 109/5/71 112/39/71 111/4/71
f 111/4/72 114/31/72 113/3/72
f 113/3/73 116/32/73 115/8/73
f 115/8/74 118/34/74 117/2/74
f 118/34/75 119/1/75 117/2/75
f 120/35/76 105/9/76 119/1/76
f 113/3/85 127/4/85 111/4/85
f 109/5/86 122/6/86 107/6/86
f 117/2/87 135/1/87 133/2/87
f 115/8/88 129/3/88 113/3/88
f 111/4/89 125/5/89 109/5/89
f 105/9/90 135/1/90 119/1/90
f 107/6/91 121/7/91 105/7/91
f 117/2/92 131/8/92 115/8/92
f 138/59/36 139/60/36 137/61/36
f 146/59/36 147/60/36 145/61/36
f 144/4/17 141/62/17 143/8/17
f 152/4/17 149/62/17 151/8/17
f 143/8/29 137/63/29 139/1/29
f 144/4/20 138/64/20 142/65/20
f 151/8/20 145/63/20 147/1/20
f 152/4/29 146/64/29 150/65/29
f 154/59/20 155/60/20 153/61/20
f 162/59/20 163/60/20 161/61/20
f 160/4/29 157/62/29 159/8/29
f 168/4/29 165/62/29 167/8/29
f 159/8/36 153/63/36 155/1/36
f 160/4/17 154/64/17 158/65/17
f 167/8/17 161/63/17 163/1/17
f 168/4/36 162/64/36 166/65/36
f 10/1/1 7/1/1 8/2/1
f 11/3/2 6/3/2 7/4/2
f 16/5/3 1/5/3 3/6/3
f 9/6/4 8/6/4 2/7/4
f 11/3/5 12/8/5 5/8/5
f 16/5/6 15/4/6 2/4/6
f 14/9/7 3/9/7 4/1/7
f 2/4/8 95/4/8 94/5/8
f 13/2/10 4/2/10 5/8/10
f 46/2/93 75/1/93 26/1/93
f 78/5/12 48/5/12 30/6/12
f 38/1/95 80/9/95 30/9/95
f 27/3/17 22/3/17 23/4/17
f 32/7/20 31/44/20 45/24/20
f 42/25/20 82/25/20 81/26/20
f 48/5/98 47/4/98 18/4/98
f 77/29/21 31/39/21 32/4/21
f 26/1/34 23/1/34 24/2/34
f 41/26/24 81/26/24 84/30/24
f 30/9/35 19/9/35 20/1/35
f 27/3/100 28/8/100 21/8/100
f 73/31/26 39/32/26 40/8/26
f 32/4/101 47/4/101 48/5/101
f 32/7/28 46/6/28 25/6/28
f 39/32/29 37/34/29 38/2/29
f 29/2/30 20/2/30 21/8/30
f 40/8/102 28/8/102 27/3/102
f 40/8/33 38/2/33 29/2/33
f 45/34/34 76/35/34 75/1/34
f 37/35/35 79/46/35 80/9/35
f 48/5/36 17/5/36 19/6/36
f 25/6/37 24/6/37 18/7/37
f 74/3/38 27/3/38 26/4/38
f 17/5/41 19/6/41 69/6/41
f 69/6/17 63/67/17 64/5/17
f 20/2/42 21/8/42 70/8/42
f 70/8/20 65/68/20 66/2/20
f 24/6/43 18/7/43 71/7/43
f 71/7/29 61/69/29 62/6/29
f 68/3/103 22/3/103 23/4/103
f 23/4/104 72/4/104 67/37/104
f 57/36/47 61/36/47 71/36/47
f 51/36/48 58/36/48 63/36/48
f 56/36/49 62/36/49 61/36/49
f 53/36/49 59/36/49 65/36/49
f 49/36/50 64/36/50 63/36/50
f 67/36/50 72/36/50 55/36/50
f 52/36/47 66/36/47 65/36/47
f 54/36/48 68/36/48 67/36/48
f 58/36/105 51/36/105 19/36/105
f 19/36/106 17/36/106 49/36/106
f 57/36/107 50/36/107 18/36/107
f 18/36/108 24/36/108 56/36/108
f 55/36/109 23/36/109 22/36/109
f 22/36/110 54/36/110 60/36/110
f 59/36/111 53/36/111 21/36/111
f 21/36/112 20/36/112 52/36/112
f 41/26/17 73/31/17 74/3/17
f 44/38/17 42/25/17 74/3/17
f 43/30/17 76/39/17 73/31/17
f 43/30/17 44/38/17 75/4/17
f 33/40/36 77/29/36 78/5/36
f 35/42/36 79/24/36 77/29/36
f 34/41/36 78/5/36 80/6/36
f 35/42/36 36/43/36 80/6/36
f 36/43/20 35/42/20 87/42/20
f 33/40/24 85/40/24 87/42/24
f 43/30/29 84/30/29 83/38/29
f 44/38/57 83/38/57 82/25/57
f 36/43/57 88/43/57 86/41/57
f 34/41/29 86/41/29 85/40/29
f 95/4/58 103/4/58 102/5/58
f 6/3/59 92/3/59 91/4/59
f 8/6/60 96/6/60 95/7/60
f 4/1/61 3/9/61 90/9/61
f 1/5/62 94/5/62 90/6/62
f 8/2/63 7/1/63 91/1/63
f 4/2/64 89/2/64 93/8/64
f 5/8/65 93/8/65 92/3/65
f 101/8/24 97/2/24 98/6/24
f 98/6/24 102/5/24 103/7/24
f 103/7/24 104/2/24 99/4/24
f 99/4/24 100/3/24 101/8/24
f 101/8/24 98/6/24 103/7/24
f 96/6/20 104/6/20 103/7/20
f 93/8/66 101/8/66 100/3/66
f 92/3/17 100/3/17 99/4/17
f 91/1/67 99/1/67 104/2/67
f 94/5/36 102/5/36 98/6/36
f 89/2/29 97/2/29 101/8/29
f 90/9/68 98/9/68 97/1/68
f 106/44/69 108/24/69 107/6/69
f 108/24/70 110/29/70 109/5/70
f 109/5/71 110/29/71 112/39/71
f 111/4/72 112/39/72 114/31/72
f 113/3/73 114/31/73 116/32/73
f 115/8/74 116/32/74 118/34/74
f 118/34/75 120/35/75 119/1/75
f 120/35/76 106/46/76 105/9/76
f 113/3/85 129/3/85 127/4/85
f 109/5/86 125/5/86 122/6/86
f 117/2/87 119/1/87 135/1/87
f 115/8/88 131/8/88 129/3/88
f 111/4/89 127/4/89 125/5/89
f 105/9/90 121/9/90 135/1/90
f 107/6/91 122/6/91 121/7/91
f 117/2/92 133/2/92 131/8/92
f 138/59/36 140/70/36 139/60/36
f 146/59/36 148/70/36 147/60/36
f 144/4/17 142/65/17 141/62/17
f 152/4/17 150/65/17 149/62/17
f 143/8/29 141/62/29 137/63/29
f 144/4/20 140/6/20 138/64/20
f 151/8/20 149/62/20 145/63/20
f 152/4/29 148/6/29 146/64/29
f 154/59/20 156/70/20 155/60/20
f 162/59/20 164/70/20 163/60/20
f 160/4/29 158/65/29 157/62/29
f 168/4/29 166/65/29 165/62/29
f 159/8/36 157/62/36 153/63/36
f 160/4/17 156/6/17 154/64/17
f 167/8/17 165/62/17 161/63/17
f 168/4/36 164/6/36 162/64/36
usemtl basic_grid
f 17/10/9 14/11/9 19/12/9
f 17/10/13 15/13/13 16/14/13
f 24/15/15 15/13/15 18/16/15
f 22/17/16 12/18/16 11/19/16
f 20/20/18 12/18/18 21/21/18
f 19/12/19 13/22/19 20/23/19
f 23/27/22 9/28/22 24/15/22
f 22/17/31 10/33/31 23/27/31
f 121/47/77 123/48/77 124/49/77
f 125/50/78 123/51/78 122/52/78
f 127/53/79 126/54/79 125/50/79
f 129/47/80 128/48/80 127/55/80
f 131/56/81 130/49/81 129/47/81
f 133/50/82 132/57/82 131/53/82
f 133/50/83 136/51/83 134/54/83
f 121/47/84 136/58/84 135/56/84
f 17/10/9 16/14/9 14/11/9
f 17/10/94 18/16/94 15/13/94
f 24/15/15 9/28/15 15/13/15
f 22/17/96 21/21/96 12/18/96
f 20/20/18 13/66/18 12/18/18
f 19/12/97 14/11/97 13/22/97
f 23/27/99 10/33/99 9/28/99
f 22/17/31 11/19/31 10/33/31
f 121/47/77 122/55/77 123/48/77
f 125/50/78 126/54/78 123/51/78
f 127/53/79 128/57/79 126/54/79
f 129/47/80 130/49/80 128/48/80
f 131/56/81 132/58/81 130/49/81
f 133/50/82 134/54/82 132/57/82
f 133/50/83 135/52/83 136/51/83
f 121/47/84 124/49/84 136/58/84
usemtl hole_gribblies
f 87/36/36 86/44/36 88/45/36
f 84/45/17 82/46/17 83/36/17
f 87/36/36 85/46/36 86/44/36
f 84/45/17 81/44/17 82/46/17
