# Blender 5.1.1
# www.blender.org
mtllib engine_chemical_1.mtl
o engine_chemical_1
v -1.336360 -1.296022 0.000000
v -1.336360 1.320304 0.000000
v -0.633695 -0.827943 -0.750129
v -0.868281 0.617639 -0.750129
v 1.279967 -1.296022 0.000000
v 1.279967 1.320304 0.000000
v 0.811886 -0.593357 -0.750129
v 0.577301 0.852225 -0.750129
v -1.047033 1.030977 -0.750129
v -1.047033 -1.006695 -0.750129
v 0.990639 -1.006695 -0.750129
v 0.990639 1.030977 -0.750129
v -1.021918 -0.222445 -0.750129
v 0.206388 -0.981580 -0.750129
v -0.262783 1.005862 -0.750129
v 0.965523 0.246727 -0.750129
v 0.098676 -0.525304 -0.958717
v -0.355676 -0.442211 -0.958717
v -0.482549 0.339619 -0.958717
v 0.426155 -0.315337 -0.958717
v 0.299281 0.466493 -0.958717
v -0.565642 -0.114733 -0.958717
v -0.155071 0.549586 -0.958717
v 0.509248 0.139014 -0.958717
v -0.469330 -0.428991 -3.510043
v -0.469330 0.453274 -3.510043
v 0.412936 -0.428991 -3.510043
v 0.412936 0.453274 -3.510043
v -0.652053 0.012141 -3.510043
v -0.028197 -0.611715 -3.510043
v -0.028197 0.635997 -3.510043
v 0.595659 0.012141 -3.510043
v -0.586191 -0.266856 -3.510043
v -0.307194 -0.545853 -3.510043
v 0.250800 0.570135 -3.510043
v 0.529796 -0.266856 -3.510043
v -0.586191 0.291137 -3.510043
v 0.250800 -0.545853 -3.510043
v -0.307194 0.570135 -3.510043
v 0.529796 0.291137 -3.510043
v -0.749579 -0.709240 -4.808171
v -0.749579 0.733524 -4.808171
v 0.693185 -0.709240 -4.808171
v 0.693185 0.733524 -4.808171
v -1.048386 0.012141 -4.808171
v -0.028197 -1.008047 -4.808171
v -0.028197 1.032329 -4.808171
v 0.991991 0.012141 -4.808171
v -0.940681 -0.444101 -4.808171
v -0.484439 -0.900343 -4.808171
v 0.428045 0.924625 -4.808171
v 0.884287 -0.444101 -4.808171
v -0.940681 0.468383 -4.808171
v 0.428045 -0.900343 -4.808171
v -0.484439 0.924625 -4.808171
v 0.884287 0.468383 -4.808171
v -1.001421 -0.961082 -6.298905
v -1.001421 0.985365 -6.298905
v 0.945026 -0.961082 -6.298905
v 0.945026 0.985365 -6.298905
v -1.404543 0.012141 -6.298905
v -0.028197 -1.364205 -6.298905
v -0.028197 1.388487 -6.298905
v 1.348149 0.012141 -6.298905
v -1.259238 -0.603380 -6.298905
v -0.643718 -1.218901 -6.298905
v 0.587323 1.243182 -6.298905
v 1.202844 -0.603380 -6.298905
v -1.259238 0.627661 -6.298905
v 0.587323 -1.218901 -6.298905
v -0.643718 1.243182 -6.298905
v 1.202844 0.627661 -6.298905
v -1.161948 -1.121609 -7.715271
v -1.161948 1.145893 -7.715271
v 1.105554 -1.121609 -7.715271
v 1.105554 1.145893 -7.715271
v -1.631563 0.012141 -7.715271
v -0.028197 -1.591225 -7.715271
v -0.028197 1.615506 -7.715271
v 1.575169 0.012141 -7.715271
v -1.462291 -0.704906 -7.715271
v -0.745244 -1.421953 -7.715271
v 0.688850 1.446235 -7.715271
v 1.405897 -0.704906 -7.715271
v -1.462291 0.729187 -7.715271
v 0.688850 -1.421953 -7.715271
v -0.745244 1.446235 -7.715271
v 1.405897 0.729187 -7.715271
v 0.482259 0.012141 -3.606217
v -0.028197 0.522597 -3.606217
v -0.028197 -0.498316 -3.606217
v -0.538654 0.012141 -3.606217
v 0.332750 0.373088 -3.606217
v 0.332750 -0.348806 -3.606217
v -0.389144 0.373088 -3.606217
v -0.389144 -0.348806 -3.606217
v -0.484763 -0.216142 -3.606217
v -0.256480 -0.444425 -3.606217
v 0.200086 0.468707 -3.606217
v 0.428369 -0.216142 -3.606217
v -0.484763 0.240423 -3.606217
v 0.200086 -0.444425 -3.606217
v -0.256480 0.468707 -3.606217
v 0.428369 0.240423 -3.606217
v 0.281240 0.166860 -3.117874
v -0.182916 0.321579 -3.117874
v 0.126522 -0.297297 -3.117874
v -0.337635 0.166860 -3.117874
v 0.281240 -0.142578 -3.117874
v 0.126522 0.321579 -3.117874
v -0.182916 -0.297297 -3.117874
v -0.337635 -0.142578 -3.117874
v 0.317765 0.012141 -3.117874
v -0.028197 0.358103 -3.117874
v -0.028197 -0.333821 -3.117874
v -0.374159 0.012141 -3.117874
v 0.216435 0.256773 -3.117874
v 0.216435 -0.232491 -3.117874
v -0.272829 0.256773 -3.117874
v -0.272829 -0.232491 -3.117874
v 0.675531 -0.495077 -1.099630
v 0.479021 0.715869 -1.099630
v 0.804231 0.208650 -1.099630
v 0.168312 -0.820287 -1.099630
v -0.731925 0.519360 -1.099630
v -0.860625 -0.184368 -0.960021
v -0.535416 -0.691587 -1.099630
v -0.224707 0.844569 -1.099630
v 0.675531 -0.495077 -1.347667
v 0.479021 0.715869 -1.347667
v 0.804231 0.208650 -1.347667
v 0.168312 -0.820287 -1.347667
v -0.731925 0.519360 -1.347667
v -0.535416 -0.691587 -1.347667
v -0.224707 0.844569 -1.347667
v 0.466066 -0.344103 -1.457283
v 0.328047 0.506404 -1.457283
v 0.556458 0.150159 -1.457283
v 0.109821 -0.572514 -1.457283
v -0.522460 0.368386 -1.457283
v -0.384442 -0.482122 -1.457283
v -0.166215 0.596796 -1.457283
v 0.331270 -0.253540 -1.920721
v 0.227465 0.386130 -1.920721
v 0.399254 0.118197 -1.920721
v 0.063337 -0.425329 -1.920721
v -0.412205 0.282326 -1.920721
v -0.308401 -0.357344 -1.920721
v -0.144272 0.454115 -1.920721
v 0.412072 -0.252445 -2.040626
v 0.285705 0.466933 -1.987188
v 0.494834 0.140760 -2.055755
v 0.085900 -0.520909 -1.987188
v -0.493007 0.340565 -1.987188
v -0.575769 -0.111975 -1.987188
v -0.366640 -0.438147 -1.987188
v -0.166835 0.549695 -1.987188
v 0.412072 -0.311779 -2.132901
v 0.285705 0.466933 -2.132901
v 0.494834 0.140760 -2.132901
v 0.085900 -0.520909 -2.132901
v -0.493007 0.340565 -2.132901
v -0.575769 -0.111975 -2.132901
v -0.366640 -0.438147 -2.132901
v -0.166835 0.549695 -2.132901
v 0.310279 -0.238411 -2.192041
v 0.212336 0.365139 -2.192041
v 0.374424 0.112335 -2.192041
v 0.057475 -0.400499 -2.192041
v -0.391214 0.267196 -2.192041
v -0.455359 -0.083550 -2.192041
v -0.293271 -0.336353 -2.192041
v -0.138410 0.429285 -2.192041
v 0.206940 -0.157337 -2.371485
v 0.087315 0.273448 -2.378506
v 0.249943 0.077801 -2.371485
v -0.021253 -0.270553 -2.378506
v -0.263335 0.181618 -2.371485
v -0.306337 -0.053519 -2.371485
v -0.143709 -0.249166 -2.378506
v -0.035141 0.294835 -2.378506
v 0.264916 -0.199123 -2.400670
v 0.099308 0.305345 -2.393649
v 0.318521 0.093990 -2.400670
v -0.021788 -0.304451 -2.393649
v -0.321310 0.223405 -2.400670
v -0.374915 -0.069708 -2.400670
v -0.155702 -0.281063 -2.393649
v -0.034607 0.328734 -2.393649
v 0.264916 -0.199123 -2.483008
v 0.183067 0.305254 -2.483008
v 0.318521 0.093990 -2.483008
v 0.053652 -0.334577 -2.483008
v -0.321310 0.223405 -2.483008
v -0.374915 -0.069708 -2.483008
v -0.239461 -0.280972 -2.483008
v -0.110046 0.358859 -2.483008
v 0.212634 -0.161440 -2.543969
v 0.145384 0.252972 -2.543969
v 0.256678 0.079391 -2.543969
v 0.039053 -0.272735 -2.543969
v -0.269029 0.185722 -2.543969
v -0.313073 -0.055109 -2.543969
v -0.201779 -0.228691 -2.543969
v -0.095447 0.297017 -2.543969
v 0.155478 -0.120245 -2.745707
v 0.104189 0.195816 -2.745707
v 0.189070 0.063431 -2.745707
v 0.023093 -0.205126 -2.745707
v -0.211873 0.144526 -2.745707
v -0.245464 -0.039149 -2.745707
v -0.160583 -0.171535 -2.745707
v -0.079487 0.229408 -2.745707
v 0.037463 -0.265999 -2.371485
v -0.197675 -0.222996 -2.371485
v -0.093857 0.290281 -2.371485
v 0.141280 0.247278 -2.371485
v 0.053652 -0.334577 -2.400670
v -0.239461 -0.280972 -2.400670
v -0.110046 0.358859 -2.400670
v 0.183067 0.305254 -2.400670
v -0.029799 -0.419930 -2.108962
v -0.217937 -0.387072 -2.108962
v -0.051136 0.448715 -2.108962
v 0.137002 0.415857 -2.108962
v -0.030620 -0.472011 -2.124766
v -0.236362 -0.436078 -2.124766
v -0.050315 0.500797 -2.124766
v 0.155427 0.464864 -2.124766
v 0.464845 -0.013697 -1.873350
v 0.470437 -0.157472 -1.851820
v 0.556887 -0.023291 -1.980816
v 0.560837 -0.197501 -1.951373
v 0.453426 -0.086539 -1.845511
v 0.581855 -0.111740 -1.993147
v 0.525665 0.010633 -1.950372
v 0.518828 -0.210999 -1.898821
v 0.497780 -0.055843 -2.048190
v 0.519689 0.005540 -1.592836
v 0.506582 -0.151510 -1.571078
v 0.690882 -0.004940 -1.641930
v 0.669698 -0.195235 -1.614007
v 0.486298 -0.074028 -1.573954
v 0.723229 -0.101556 -1.640414
v 0.637846 0.032117 -1.630576
v 0.588629 -0.209980 -1.588512
v 0.518475 0.005540 -1.309324
v 0.496655 -0.151510 -1.292200
v 0.701147 -0.004940 -1.311457
v 0.669034 -0.195235 -1.290607
v 0.478794 -0.074028 -1.300139
v 0.730966 -0.101556 -1.301692
v 0.646232 0.032117 -1.314429
v 0.581551 -0.209980 -1.287480
v -0.987567 0.346382 -2.420098
v -0.701608 0.156643 -2.420098
v -0.633571 -0.179727 -2.420098
v -0.823311 -0.465685 -2.420098
v -1.159681 -0.533723 -2.420098
v -1.035241 -0.742845 -1.097154
v -1.445639 -0.343983 -2.420098
v -1.457094 -0.462937 -1.097154
v -1.513676 -0.007613 -2.420098
v -1.557463 0.033283 -1.097154
v -1.323936 0.278345 -2.420098
v -1.277555 0.455135 -1.097154
v -1.031932 0.119522 -2.637299
v -0.893393 0.027599 -2.637299
v -0.860432 -0.135362 -2.637299
v -0.952355 -0.273900 -2.637299
v -1.115316 -0.306862 -2.637299
v -1.253854 -0.214939 -2.637299
v -1.286816 -0.051978 -2.637299
v -1.194893 0.086560 -2.637299
vn -0.9330 -0.0000 -0.3599
vn 0.9330 -0.0000 -0.3599
vn -0.0000 -0.9330 -0.3599
vn -0.0000 0.9330 -0.3599
vn -0.0000 -0.0000 -1.0000
vn 0.0786 0.4298 -0.8995
vn -0.3591 -0.2303 -0.9044
vn 0.4298 -0.0786 -0.8995
vn -0.4298 0.0786 -0.8995
vn 0.2303 -0.3591 -0.9044
vn -0.2303 0.3591 -0.9044
vn 0.3591 0.2303 -0.9044
vn -0.0786 -0.4298 -0.8995
vn 0.7767 0.5598 0.2885
vn -0.9329 -0.2202 0.2848
vn -0.5598 -0.7767 0.2885
vn -0.2202 -0.9329 0.2848
vn 0.5598 0.7767 0.2885
vn 0.2202 0.9329 0.2848
vn 0.7767 -0.5598 0.2885
vn 0.9329 -0.2202 0.2848
vn -0.9329 0.2202 0.2848
vn -0.7767 0.5598 0.2885
vn 0.2202 -0.9329 0.2848
vn 0.5598 -0.7767 0.2885
vn -0.2202 0.9329 0.2848
vn -0.5598 0.7767 0.2885
vn 0.9329 0.2202 0.2848
vn -0.7767 -0.5598 0.2885
vn 0.5691 -0.7896 0.2295
vn -0.2238 0.9480 0.2265
vn -0.5691 0.7896 0.2295
vn 0.9480 0.2238 0.2265
vn -0.7896 -0.5691 0.2295
vn 0.7896 0.5691 0.2295
vn -0.9480 -0.2238 0.2265
vn -0.5691 -0.7896 0.2295
vn -0.2238 -0.9480 0.2265
vn 0.5691 0.7896 0.2295
vn 0.2238 0.9480 0.2265
vn 0.7896 -0.5691 0.2295
vn 0.9480 -0.2238 0.2265
vn -0.9480 0.2238 0.2265
vn -0.7896 0.5691 0.2295
vn 0.2238 -0.9480 0.2265
vn 0.8013 -0.5775 0.1563
vn 0.9616 -0.2270 0.1541
vn -0.9616 0.2270 0.1541
vn -0.8013 0.5775 0.1563
vn 0.2270 -0.9616 0.1541
vn 0.5775 -0.8013 0.1563
vn -0.2270 0.9616 0.1541
vn -0.5775 0.8013 0.1563
vn 0.9616 0.2270 0.1541
vn -0.8013 -0.5775 0.1563
vn 0.8013 0.5775 0.1563
vn -0.9616 -0.2270 0.1541
vn -0.5775 -0.8013 0.1563
vn -0.2270 -0.9616 0.1541
vn 0.5775 0.8013 0.1563
vn 0.2270 0.9616 0.1541
vn 0.9422 -0.2224 -0.2506
vn -0.9422 0.2224 -0.2506
vn -0.7847 0.5655 -0.2539
vn -0.2224 -0.9422 -0.2506
vn -0.5655 -0.7846 -0.2539
vn 0.2224 0.9422 -0.2506
vn 0.5655 0.7846 -0.2539
vn 0.9422 0.2224 -0.2506
vn 0.7847 -0.5655 -0.2539
vn -0.2224 0.9422 -0.2506
vn -0.5655 0.7846 -0.2539
vn 0.2224 -0.9422 -0.2506
vn 0.5655 -0.7847 -0.2539
vn -0.9422 -0.2224 -0.2506
vn 0.7847 0.5655 -0.2539
vn -0.7847 -0.5655 -0.2539
vn -0.1891 -0.8012 0.5677
vn 0.1891 -0.8012 0.5677
vn 0.4791 -0.6648 0.5732
vn 0.6648 -0.4791 0.5732
vn 0.8012 -0.1891 0.5677
vn 0.8012 0.1891 0.5677
vn 0.6648 0.4791 0.5732
vn 0.4791 0.6648 0.5732
vn 0.1891 0.8012 0.5677
vn -0.1891 0.8012 0.5677
vn -0.4791 0.6648 0.5732
vn -0.6648 0.4791 0.5732
vn -0.8012 0.1891 0.5677
vn -0.8012 -0.1891 0.5677
vn -0.6648 -0.4791 0.5732
vn -0.4791 -0.6648 0.5732
vn 0.0814 0.4452 0.8917
vn -0.2386 0.3722 0.8970
vn 0.4452 -0.0814 0.8917
vn -0.1931 -0.3735 0.9073
vn -0.0046 0.0008 1.0000
vn -0.0814 -0.4452 0.8917
vn 0.2386 -0.3722 0.8970
vn 0.3722 0.2386 0.8970
vn 0.1799 0.9837 -0.0000
vn 0.9837 -0.1799 -0.0000
vn 0.5397 -0.8418 -0.0000
vn -0.1799 -0.9837 -0.0000
vn -0.5397 0.8418 -0.0000
vn 0.8418 0.5397 -0.0000
vn 0.3496 0.2241 -0.9097
vn 0.0765 0.4184 -0.9050
vn 0.4184 -0.0765 -0.9050
vn 0.2241 -0.3496 -0.9097
vn -0.2241 0.3496 -0.9097
vn -0.0765 -0.4184 -0.9050
vn -0.5191 0.8096 -0.2739
vn -0.1726 -0.9436 -0.2824
vn 0.8011 0.5137 -0.3072
vn 0.1726 0.9437 -0.2824
vn 0.9365 -0.1713 -0.3059
vn 0.5138 -0.8014 -0.3061
vn -0.6041 -0.7390 -0.2981
vn 0.4907 0.3146 0.8125
vn 0.1069 0.5845 0.8043
vn 0.5947 0.7661 -0.2438
vn 0.6186 -0.6698 0.4107
vn -0.4907 -0.3146 0.8125
vn -0.3146 0.4907 0.8125
vn -0.1069 -0.5845 0.8043
vn -0.8418 -0.5397 -0.0000
vn 0.8965 -0.1639 -0.4117
vn 0.6155 -0.6629 0.4263
vn 0.2440 -0.3805 -0.8920
vn -0.3805 -0.2440 -0.8920
vn -0.2440 0.3805 -0.8920
vn -0.0832 -0.4551 -0.8866
vn -0.4551 0.0832 -0.8866
vn 0.3805 0.2440 -0.8920
vn 0.0832 0.4551 -0.8866
vn 0.4551 -0.0832 -0.8866
vn 0.6936 0.4447 -0.5667
vn 0.1462 0.7993 -0.5829
vn 0.8256 -0.1510 -0.5437
vn 0.4440 -0.6925 -0.5686
vn -0.6607 -0.4236 -0.6196
vn -0.4243 0.6618 -0.6180
vn -0.1462 -0.7993 -0.5828
vn -0.7731 0.1414 -0.6184
vn 0.9996 -0.0216 0.0194
vn -0.4053 0.0741 0.9112
vn 0.3384 0.2170 0.9156
vn 0.9376 -0.3474 0.0107
vn 0.4053 -0.0741 0.9112
vn 0.2170 -0.3384 0.9156
vn -0.3384 -0.2170 0.9156
vn -0.2170 0.3384 0.9156
vn -0.9837 0.1799 -0.0000
vn 0.7115 -0.1301 -0.6906
vn 0.3849 -0.6003 -0.7011
vn -0.6003 -0.3849 -0.7011
vn -0.3849 0.6003 -0.7011
vn -0.1301 -0.7115 -0.6906
vn -0.7115 0.1301 -0.6906
vn 0.6003 0.3849 -0.7011
vn 0.1301 0.7115 -0.6906
vn -0.9381 0.1716 -0.3008
vn 0.8006 0.5133 -0.3089
vn 0.1716 0.9381 -0.3008
vn 0.9381 -0.1716 -0.3008
vn 0.5133 -0.8006 -0.3089
vn -0.8006 -0.5133 -0.3089
vn -0.5133 0.8006 -0.3089
vn -0.1716 -0.9381 -0.3008
vn 0.9309 0.2198 0.2916
vn 0.2198 -0.9309 0.2916
vn -0.5586 -0.7750 0.2954
vn 0.7750 -0.5586 0.2954
vn 0.5586 0.7750 0.2954
vn -0.7750 0.5586 0.2954
vn -0.2198 0.9309 0.2916
vn -0.9309 -0.2198 0.2916
vn -0.9207 0.2173 0.3242
vn -0.5081 0.7924 0.3375
vn -0.7680 -0.5535 0.3223
vn -0.2173 -0.9207 0.3242
vn 0.5081 -0.7924 0.3375
vn 0.9207 -0.2173 0.3242
vn 0.7924 0.5081 0.3375
vn 0.2173 0.9207 0.3242
vn -0.0674 -0.3858 0.9201
vn 0.0674 0.3858 0.9201
vn -0.0667 -0.3818 0.9218
vn 0.0667 0.3819 0.9218
vn -0.0774 -0.4056 0.9108
vn -0.0769 -0.4036 0.9117
vn 0.0769 0.4036 0.9117
vn 0.0774 0.4056 0.9108
vn -0.7777 0.3271 0.5369
vn -0.1463 -0.8374 -0.5266
vn 0.1507 0.8626 0.4828
vn -0.9984 -0.0016 -0.0573
vn -0.9242 0.3768 -0.0617
vn 0.1462 0.8371 -0.5271
vn -0.1506 -0.8624 0.4834
vn -0.3700 -0.7790 0.5062
vn 0.5675 -0.2772 -0.7753
vn 0.7550 -0.0139 -0.6556
vn 0.8852 0.2907 -0.3632
vn 0.1683 -0.9851 -0.0346
vn 0.8062 -0.5330 -0.2566
vn -0.3181 0.9469 0.0480
vn -0.9608 0.2167 0.1730
vn 0.5759 0.7719 -0.2695
vn -0.5652 -0.8200 0.0902
vn -0.9606 -0.2468 0.1277
vn -0.2177 0.9760 0.0058
vn -0.9224 0.3862 -0.0040
vn 0.5701 0.8214 -0.0177
vn -0.9668 -0.2541 -0.0265
vn -0.5663 -0.8239 -0.0202
vn 0.9559 0.2928 -0.0218
vn 0.1663 -0.9861 0.0039
vn 0.8343 -0.5513 0.0017
vn -0.5511 -0.8306 -0.0795
vn -0.9798 -0.1982 -0.0263
vn -0.8324 0.5523 -0.0446
vn -0.3942 -0.5942 -0.7011
vn -0.1970 0.9742 -0.1102
vn -0.1169 0.9931 -0.0000
vn 0.0220 -0.9872 -0.1581
vn 0.1020 -0.9948 -0.0000
vn 0.1919 -0.9487 -0.2513
vn 0.4768 0.8428 -0.2496
vn 0.6804 -0.6586 -0.3214
vn 0.5899 0.8074 -0.0096
vn -0.5679 0.8197 -0.0746
vn -0.6613 0.7501 -0.0000
vn 0.8438 -0.1543 -0.5140
vn 0.9522 0.1926 -0.2371
vn 0.9528 0.2536 -0.1669
vn 0.7608 -0.6490 -0.0000
vn -0.0188 0.1979 0.9800
vn -0.1600 0.1061 0.9814
vn -0.2054 -0.0415 0.9778
vn 0.0302 -0.2472 0.9685
vn -0.1414 0.6989 -0.7011
vn 0.1414 -0.6989 -0.7011
vn 0.6989 0.1414 -0.7011
vn -0.6989 -0.1414 -0.7011
vn 0.5942 -0.3942 -0.7011
vn -0.5942 0.3942 -0.7011
vn 0.3942 0.5942 -0.7011
vn -0.5655 -0.7847 -0.2539
vn 0.5655 0.7847 -0.2539
vn -0.5655 0.7847 -0.2539
vn -0.0038 -0.0025 1.0000
vn -0.3390 0.2423 0.9090
vn 0.7360 0.3501 0.5794
vn 0.6632 0.5037 0.5536
vn 0.5856 0.5158 0.6253
vn 0.3146 -0.4907 0.8125
vn 0.9999 0.0150 -0.0000
vn 0.8924 -0.3796 0.2441
vn 0.9995 -0.0240 0.0184
vn 0.9372 -0.3487 0.0113
vn 0.1301 0.7114 -0.6906
vn -0.9241 0.1690 0.3428
vn -0.5535 0.7680 0.3223
vn -0.7924 -0.5081 0.3375
vn -0.1690 -0.9241 0.3428
vn 0.5535 -0.7680 0.3223
vn 0.9241 -0.1690 0.3428
vn 0.7680 0.5535 0.3223
vn 0.1690 0.9241 0.3428
vn -0.0761 -0.4161 0.9062
vn 0.0761 0.4161 0.9061
vn -0.0764 -0.4175 0.9055
vn 0.0764 0.4175 0.9055
vn -0.0773 -0.4058 0.9107
vn -0.0772 -0.4037 0.9116
vn 0.0772 0.4038 0.9116
vn 0.0773 0.4058 0.9107
vn -0.4652 0.0851 0.8811
vn -0.3440 -0.1647 0.9244
vn -0.9985 -0.0086 -0.0544
vn -0.9270 0.3695 -0.0651
vn 0.4422 -0.8487 0.2902
vn 0.3334 -0.9425 0.0244
vn 0.2412 -0.4721 -0.8479
vn 0.6496 0.2818 -0.7061
vn 0.8815 0.2997 -0.3648
vn 0.2282 -0.9713 -0.0671
vn 0.8641 -0.3752 -0.3355
vn -0.2262 0.9738 -0.0225
vn -0.9103 0.4037 0.0916
vn 0.5215 0.8194 -0.2380
vn -0.6633 -0.7328 0.1516
vn -0.9616 -0.2421 0.1290
vn -0.2037 0.9790 -0.0009
vn -0.8958 0.4439 -0.0245
vn 0.5598 0.8285 -0.0149
vn -0.9731 -0.2279 -0.0346
vn -0.5822 -0.8129 -0.0137
vn 0.9480 0.3169 -0.0294
vn 0.1791 -0.9838 0.0004
vn 0.8657 -0.5002 -0.0198
vn -0.1722 0.9772 -0.1245
vn 0.5316 0.8011 -0.2751
vn 0.7765 -0.5152 -0.3627
vn -0.1311 -0.1976 0.9715
vt 0.625000 0.000000
vt 0.375000 0.250000
vt 0.375000 0.000000
vt 0.625000 0.500000
vt 0.375000 0.750000
vt 0.375000 0.500000
vt 0.125000 0.750000
vt 0.125000 0.500000
vt 0.875000 0.750000
vt 0.625000 0.750000
vt 0.462400 0.299801
vt 0.625000 0.250000
vt 0.424801 0.412600
vt 0.575199 0.337400
vt 0.537600 0.450199
vt 0.575199 0.375000
vt 0.575199 0.412600
vt 0.424801 0.299801
vt 0.500000 0.450199
vt 0.462400 0.450199
vt 0.500000 0.299801
vt 0.537600 0.299801
vt 0.424801 0.450199
vt 0.575199 0.299801
vt 0.575199 0.450199
vt 0.424801 0.375000
vt 0.424801 0.337400
vt 0.481200 0.450199
vt 0.424801 0.371639
vt 0.424801 0.371476
vt 0.575199 0.409204
vt 0.575199 0.409040
vt 0.000000 0.000000
vt 0.424801 0.340960
vt 0.575199 0.378524
vt 0.424801 0.340796
vt 0.575199 0.378361
vt 0.500000 0.500000
vt 0.375000 1.000000
vt 0.250000 1.000000
vt 0.250000 0.500000
vt 0.750000 0.490000
vt 0.580294 0.419706
vt 0.125000 1.000000
vt 0.500000 1.000000
vt 0.919706 0.080294
vt 0.919706 0.419706
vt 0.990000 0.250000
vt 0.580294 0.080294
vt 0.875000 0.500000
vt 0.750000 0.010000
vt 0.510000 0.250000
s 0
usemtl no_texture
f 2/1/1 10/2/1 1/3/1
f 12/4/2 5/5/2 11/6/2
f 11/6/3 1/7/3 10/8/3
f 12/4/4 2/9/4 6/10/4
f 13/11/5 10/2/5 9/12/5
f 14/13/5 11/6/5 10/2/5
f 15/14/5 9/12/5 12/4/5
f 16/15/5 12/4/5 11/6/5
f 15/16/6 21/17/6 23/16/6
f 13/11/7 18/18/7 3/18/7
f 16/19/8 20/20/8 24/19/8
f 13/21/9 19/22/9 22/21/9
f 14/13/10 20/23/10 7/23/10
f 15/14/11 19/24/11 4/24/11
f 16/15/12 21/25/12 8/25/12
f 14/26/13 18/27/13 17/26/13
f 40/15/14 44/25/14 28/25/14
f 29/21/15 49/11/15 33/11/15
f 25/18/16 50/27/16 34/27/16
f 34/27/17 46/26/17 30/26/17
f 28/25/18 51/17/18 35/17/18
f 35/17/19 47/16/19 31/16/19
f 27/23/20 52/20/20 36/20/20
f 36/20/21 48/19/21 32/19/21
f 37/22/22 45/21/22 29/21/22
f 26/24/23 53/22/23 37/22/23
f 38/13/24 46/26/24 54/13/24
f 27/23/25 54/13/25 43/23/25
f 39/14/26 47/16/26 55/14/26
f 39/14/27 42/24/27 26/24/27
f 32/19/28 56/15/28 40/15/28
f 33/11/29 41/18/29 25/18/29
f 54/13/30 59/23/30 43/23/30
f 55/14/31 63/16/31 71/14/31
f 55/14/32 58/24/32 42/24/32
f 48/19/33 72/15/33 56/15/33
f 41/18/34 65/11/34 57/18/34
f 44/25/35 72/15/35 60/25/35
f 49/11/36 61/21/36 65/11/36
f 50/27/37 57/18/37 66/27/37
f 50/27/38 62/26/38 46/26/38
f 44/25/39 67/17/39 51/17/39
f 51/17/40 63/16/40 47/16/40
f 43/23/41 68/20/41 52/20/41
f 52/20/42 64/19/42 48/19/42
f 45/21/43 69/22/43 61/21/43
f 42/24/44 69/22/44 53/22/44
f 46/26/45 70/13/45 54/13/45
f 59/23/46 84/20/46 68/20/46
f 68/20/47 80/19/47 64/19/47
f 61/21/48 85/22/48 77/21/48
f 58/24/49 85/22/49 69/22/49
f 62/26/50 86/13/50 70/13/50
f 70/13/51 75/23/51 59/23/51
f 63/16/52 87/14/52 71/14/52
f 58/24/53 87/14/53 74/24/53
f 64/19/54 88/15/54 72/15/54
f 65/11/55 73/18/55 57/18/55
f 60/25/56 88/15/56 76/25/56
f 61/21/57 81/11/57 65/11/57
f 66/27/58 73/18/58 82/27/58
f 66/27/59 78/26/59 62/26/59
f 60/25/60 83/17/60 67/17/60
f 63/16/61 83/17/61 79/16/61
f 77/21/62 101/22/62 92/21/62
f 84/20/63 89/19/63 80/19/63
f 75/23/64 100/20/64 84/20/64
f 83/17/65 90/16/65 79/16/65
f 83/17/66 93/25/66 99/17/66
f 82/27/67 91/26/67 78/26/67
f 73/18/68 98/27/68 82/27/68
f 77/21/69 97/11/69 81/11/69
f 74/24/70 101/22/70 85/22/70
f 78/26/71 102/13/71 86/13/71
f 86/13/72 94/23/72 75/23/72
f 87/14/73 90/16/73 103/14/73
f 74/24/74 103/14/74 95/24/74
f 80/19/75 104/15/75 88/15/75
f 81/11/76 96/18/76 73/18/76
f 88/15/77 93/25/77 76/25/77
f 30/26/78 111/27/78 34/27/78
f 38/13/79 115/26/79 30/26/79
f 27/23/80 107/13/80 38/13/80
f 27/23/81 109/20/81 118/23/81
f 32/19/82 109/20/82 36/20/82
f 40/15/83 113/19/83 32/19/83
f 28/25/84 105/15/84 40/15/84
f 35/17/85 117/25/85 28/25/85
f 35/17/86 114/16/86 110/17/86
f 31/16/87 106/14/87 114/16/87
f 26/24/88 106/14/88 39/14/88
f 37/22/89 119/24/89 26/24/89
f 116/21/90 37/22/90 29/21/90
f 33/11/91 116/21/91 29/21/91
f 25/18/92 112/11/92 33/11/92
f 25/18/93 111/27/93 120/18/93
f 21/17/94 128/16/94 23/16/94
f 19/24/95 128/14/95 125/24/95
f 20/20/96 123/19/96 24/19/96
f 18/18/97 126/11/97 127/18/97
f 19/22/98 126/21/98 22/21/98
f 18/27/99 124/26/99 17/26/99
f 20/23/100 124/13/100 121/23/100
f 21/25/101 123/15/101 122/25/101
f 122/17/102 135/16/102 128/16/102
f 121/20/103 131/19/103 123/19/103
f 124/13/104 129/23/104 121/23/104
f 127/27/105 132/26/105 124/26/105
f 128/14/106 133/24/106 125/24/106
f 123/15/107 130/25/107 122/25/107
f 131/15/108 137/25/108 130/25/108
f 135/16/109 137/17/109 142/16/109
f 131/19/110 136/20/110 138/19/110
f 132/13/111 136/23/111 129/23/111
f 135/14/112 140/24/112 133/24/112
f 132/26/113 141/27/113 139/26/113
f 140/24/114 149/14/114 147/24/114
f 141/27/115 146/26/115 139/26/115
f 137/25/116 145/15/116 144/25/116
f 142/16/117 144/17/117 149/16/117
f 138/19/118 143/20/118 145/19/118
f 139/13/119 143/23/119 136/23/119
f 141/27/120 155/11/120 148/27/120
f 145/15/121 151/25/121 144/25/121
f 144/17/122 157/16/122 149/16/122
f 145/15/123 236/15/123 232/15/123
f 143/23/124 153/13/124 150/23/124
f 156/27/125 148/27/125 155/11/125
f 147/24/126 157/14/126 154/24/126
f 148/27/127 153/26/127 146/26/127
f 155/11/128 164/18/128 156/18/128
f 157/14/106 162/24/106 154/24/106
f 156/27/105 161/26/105 153/26/105
f 152/15/107 159/25/107 151/25/107
f 151/17/102 165/16/102 157/16/102
f 238/28/129 158/20/129 160/19/129
f 153/13/130 158/23/130 150/23/130
f 161/13/131 166/23/131 158/23/131
f 163/11/132 172/18/132 164/18/132
f 165/14/133 170/24/133 162/24/133
f 161/26/134 172/27/134 169/26/134
f 163/21/135 170/22/135 171/21/135
f 160/15/136 167/25/136 159/25/136
f 165/16/137 167/17/137 173/16/137
f 160/19/138 166/20/138 168/19/138
f 168/15/139 217/25/139 167/25/139
f 167/17/140 216/16/140 173/16/140
f 168/19/141 174/20/141 176/19/141
f 166/23/142 214/13/142 174/23/142
f 172/18/143 179/11/143 215/18/143
f 173/14/144 178/24/144 170/24/144
f 169/26/145 215/27/145 214/26/145
f 171/21/146 178/22/146 179/21/146
f 185/29/147 222/30/147 226/29/147
f 178/22/148 187/21/148 179/21/148
f 217/25/149 184/15/149 221/25/149
f 183/31/150 225/32/150 175/32/150
f 174/20/151 184/19/151 176/19/151
f 174/23/152 218/13/152 182/23/152
f 215/18/153 187/11/153 219/18/153
f 178/24/154 220/14/154 186/24/154
f 218/13/104 190/23/104 182/23/104
f 187/11/128 196/18/128 219/18/128
f 220/14/106 194/24/106 186/24/106
f 219/27/105 193/26/105 218/26/105
f 186/22/155 195/21/155 187/21/155
f 184/15/107 191/25/107 221/25/107
f 221/17/102 197/16/102 220/16/102
f 182/20/103 192/19/103 184/19/103
f 192/19/156 198/20/156 200/19/156
f 193/13/157 198/23/157 190/23/157
f 195/11/158 204/18/158 196/18/158
f 197/14/159 202/24/159 194/24/159
f 193/26/160 204/27/160 201/26/160
f 195/21/161 202/22/161 203/21/161
f 192/15/162 199/25/162 191/25/162
f 197/16/163 199/17/163 205/16/163
f 203/21/164 210/22/164 211/21/164
f 200/15/165 207/25/165 199/25/165
f 205/16/166 207/17/166 213/16/166
f 200/19/167 206/20/167 208/19/167
f 201/13/168 206/23/168 198/23/168
f 203/11/169 212/18/169 204/18/169
f 205/14/170 210/24/170 202/24/170
f 201/26/171 212/27/171 209/26/171
f 105/15/172 208/33/172 113/19/172
f 107/13/173 209/33/173 115/26/173
f 111/27/174 212/33/174 120/18/174
f 109/20/175 206/33/175 118/23/175
f 110/17/176 207/33/176 117/25/176
f 108/22/177 210/33/177 119/24/177
f 106/14/178 213/33/178 114/16/178
f 112/11/179 211/33/179 116/21/179
f 116/21/180 210/22/180 108/22/180
f 106/14/181 210/24/181 213/33/181
f 212/33/182 112/11/182 120/18/182
f 115/26/183 212/33/183 111/27/183
f 107/13/184 206/23/184 209/33/184
f 113/19/185 206/33/185 109/20/185
f 105/15/186 207/25/186 208/33/186
f 114/16/187 207/33/187 110/17/187
f 177/30/188 215/27/188 180/34/188
f 181/35/189 217/17/189 175/32/189
f 188/36/190 218/26/190 185/29/190
f 183/31/191 220/16/191 189/37/191
f 185/29/192 214/26/192 177/30/192
f 188/36/193 215/27/193 219/27/193
f 183/31/194 217/17/194 221/17/194
f 189/37/195 216/16/195 181/35/195
f 143/20/196 234/28/196 230/19/196
f 188/36/197 226/29/197 227/36/197
f 180/34/198 222/30/198 177/30/198
f 189/37/199 224/35/199 228/37/199
f 188/36/200 223/34/200 180/34/200
f 189/37/201 229/31/201 183/31/201
f 181/35/202 225/32/202 224/35/202
f 150/23/203 237/23/203 231/23/203
f 238/28/204 233/23/204 150/23/204
f 232/15/205 238/28/205 152/19/205
f 235/33/206 241/15/206 244/33/206
f 237/23/207 242/23/207 246/23/207
f 233/23/208 244/33/208 242/23/208
f 230/15/209 245/15/209 236/15/209
f 234/28/210 239/19/210 230/19/210
f 236/15/211 241/15/211 232/15/211
f 231/23/212 246/23/212 240/23/212
f 234/28/213 240/20/213 243/28/213
f 239/15/214 253/15/214 245/15/214
f 243/28/215 247/19/215 239/19/215
f 245/15/216 249/15/216 241/15/216
f 240/20/217 251/28/217 243/28/217
f 240/23/218 254/23/218 248/23/218
f 244/33/219 249/15/219 252/33/219
f 246/23/220 250/23/220 254/23/220
f 242/23/221 252/33/221 250/23/221
f 259/38/222 262/39/222 261/6/222
f 261/6/223 264/40/223 263/41/223
f 264/40/224 265/8/224 263/41/224
f 261/6/225 271/38/225 259/38/225
f 133/33/226 255/42/226 265/43/226
f 133/33/227 266/44/227 125/24/227
f 259/38/228 134/33/228 260/45/228
f 134/33/229 127/27/229 260/45/229
f 259/38/230 258/46/230 134/33/230
f 140/24/231 255/42/231 133/33/231
f 258/46/232 141/27/232 134/33/232
f 140/24/233 147/24/233 154/22/233
f 256/47/234 140/24/234 154/22/234
f 154/22/235 162/24/235 256/47/235
f 163/21/236 256/47/236 162/24/236
f 256/47/237 163/21/237 257/48/237
f 155/11/238 141/27/238 257/48/238
f 163/21/239 155/11/239 257/48/239
f 126/21/240 125/24/240 266/44/240
f 266/44/241 264/40/241 126/21/241
f 262/39/242 126/21/242 264/40/242
f 126/21/243 260/45/243 127/27/243
f 270/46/5 272/49/5 274/43/5
f 265/43/244 267/42/244 274/43/244
f 259/38/245 270/46/245 258/46/245
f 257/48/246 268/47/246 256/47/246
f 263/41/247 272/6/247 261/6/247
f 258/46/248 269/48/248 257/48/248
f 263/41/249 274/8/249 273/41/249
f 255/42/250 268/47/250 267/42/250
f 2/1/1 9/12/1 10/2/1
f 12/4/2 6/10/2 5/5/2
f 11/6/3 5/5/3 1/7/3
f 12/4/4 9/50/4 2/9/4
f 9/12/5 4/22/5 13/11/5
f 13/11/5 3/18/5 10/2/5
f 10/2/5 3/27/5 14/13/5
f 14/13/5 7/23/5 11/6/5
f 12/4/5 8/17/5 15/14/5
f 15/14/5 4/24/5 9/12/5
f 11/6/5 7/20/5 16/15/5
f 16/15/5 8/25/5 12/4/5
f 15/16/6 8/17/6 21/17/6
f 13/11/7 22/11/7 18/18/7
f 16/19/8 7/20/8 20/20/8
f 13/21/9 4/22/9 19/22/9
f 14/13/10 17/13/10 20/23/10
f 15/14/11 23/14/11 19/24/11
f 16/15/12 24/15/12 21/25/12
f 14/26/13 3/27/13 18/27/13
f 40/15/14 56/15/14 44/25/14
f 29/21/15 45/21/15 49/11/15
f 25/18/16 41/18/16 50/27/16
f 34/27/17 50/27/17 46/26/17
f 28/25/18 44/25/18 51/17/18
f 35/17/19 51/17/19 47/16/19
f 27/23/20 43/23/20 52/20/20
f 36/20/21 52/20/21 48/19/21
f 37/22/22 53/22/22 45/21/22
f 26/24/23 42/24/23 53/22/23
f 38/13/24 30/26/24 46/26/24
f 27/23/25 38/13/25 54/13/25
f 39/14/26 31/16/26 47/16/26
f 39/14/27 55/14/27 42/24/27
f 32/19/28 48/19/28 56/15/28
f 33/11/29 49/11/29 41/18/29
f 54/13/30 70/13/30 59/23/30
f 55/14/31 47/16/31 63/16/31
f 55/14/32 71/14/32 58/24/32
f 48/19/33 64/19/33 72/15/33
f 41/18/34 49/11/34 65/11/34
f 44/25/35 56/15/35 72/15/35
f 49/11/36 45/21/36 61/21/36
f 50/27/37 41/18/37 57/18/37
f 50/27/38 66/27/38 62/26/38
f 44/25/39 60/25/39 67/17/39
f 51/17/40 67/17/40 63/16/40
f 43/23/41 59/23/41 68/20/41
f 52/20/42 68/20/42 64/19/42
f 45/21/43 53/22/43 69/22/43
f 42/24/44 58/24/44 69/22/44
f 46/26/45 62/26/45 70/13/45
f 59/23/46 75/23/46 84/20/46
f 68/20/47 84/20/47 80/19/47
f 61/21/48 69/22/48 85/22/48
f 58/24/49 74/24/49 85/22/49
f 62/26/50 78/26/50 86/13/50
f 70/13/51 86/13/51 75/23/51
f 63/16/52 79/16/52 87/14/52
f 58/24/53 71/14/53 87/14/53
f 64/19/54 80/19/54 88/15/54
f 65/11/55 81/11/55 73/18/55
f 60/25/56 72/15/56 88/15/56
f 61/21/57 77/21/57 81/11/57
f 66/27/58 57/18/58 73/18/58
f 66/27/59 82/27/59 78/26/59
f 60/25/60 76/25/60 83/17/60
f 63/16/61 67/17/61 83/17/61
f 77/21/62 85/22/62 101/22/62
f 84/20/63 100/20/63 89/19/63
f 75/23/64 94/23/64 100/20/64
f 83/17/65 99/17/65 90/16/65
f 83/17/251 76/25/251 93/25/251
f 82/27/67 98/27/67 91/26/67
f 73/18/252 96/18/252 98/27/252
f 77/21/69 92/21/69 97/11/69
f 74/24/70 95/24/70 101/22/70
f 78/26/71 91/26/71 102/13/71
f 86/13/253 102/13/253 94/23/253
f 87/14/73 79/16/73 90/16/73
f 74/24/74 87/14/74 103/14/74
f 80/19/75 89/19/75 104/15/75
f 81/11/76 97/11/76 96/18/76
f 88/15/77 104/15/77 93/25/77
f 30/26/78 115/26/78 111/27/78
f 38/13/79 107/13/79 115/26/79
f 27/23/80 118/23/80 107/13/80
f 27/23/81 36/20/81 109/20/81
f 32/19/82 113/19/82 109/20/82
f 40/15/83 105/15/83 113/19/83
f 28/25/84 117/25/84 105/15/84
f 35/17/85 110/17/85 117/25/85
f 35/17/86 31/16/86 114/16/86
f 31/16/87 39/14/87 106/14/87
f 26/24/88 119/24/88 106/14/88
f 37/22/89 108/22/89 119/24/89
f 116/21/90 108/22/90 37/22/90
f 33/11/91 112/11/91 116/21/91
f 25/18/92 120/18/92 112/11/92
f 25/18/93 34/27/93 111/27/93
f 21/17/94 122/17/94 128/16/94
f 19/24/95 23/14/95 128/14/95
f 20/20/96 121/20/96 123/19/96
f 18/18/254 22/11/254 126/11/254
f 19/22/255 125/22/255 126/21/255
f 18/27/99 127/27/99 124/26/99
f 20/23/100 17/13/100 124/13/100
f 21/25/101 24/15/101 123/15/101
f 122/17/102 130/17/102 135/16/102
f 121/20/103 129/20/103 131/19/103
f 124/13/104 132/13/104 129/23/104
f 127/27/105 134/27/105 132/26/105
f 128/14/106 135/14/106 133/24/106
f 123/15/107 131/15/107 130/25/107
f 131/15/108 138/15/108 137/25/108
f 135/16/109 130/17/109 137/17/109
f 131/19/110 129/20/110 136/20/110
f 132/13/111 139/13/111 136/23/111
f 135/14/112 142/14/112 140/24/112
f 132/26/113 134/27/113 141/27/113
f 140/24/114 142/14/114 149/14/114
f 141/27/115 148/27/115 146/26/115
f 137/25/116 138/15/116 145/15/116
f 142/16/117 137/17/117 144/17/117
f 138/19/118 136/20/118 143/20/118
f 139/13/119 146/13/119 143/23/119
f 145/15/256 152/15/256 151/25/256
f 144/17/122 151/17/122 157/16/122
f 232/15/257 152/15/257 145/15/257
f 145/15/258 230/15/258 236/15/258
f 143/23/259 146/13/259 153/13/259
f 147/24/126 149/14/126 157/14/126
f 148/27/127 156/27/127 153/26/127
f 155/11/128 163/11/128 164/18/128
f 157/14/106 165/14/106 162/24/106
f 156/27/105 164/27/105 161/26/105
f 152/15/107 160/15/107 159/25/107
f 151/17/102 159/17/102 165/16/102
f 160/19/260 152/19/260 238/28/260
f 238/28/261 150/20/261 158/20/261
f 153/13/104 161/13/104 158/23/104
f 161/13/131 169/13/131 166/23/131
f 163/11/132 171/11/132 172/18/132
f 165/14/133 173/14/133 170/24/133
f 161/26/134 164/27/134 172/27/134
f 163/21/135 162/22/135 170/22/135
f 160/15/136 168/15/136 167/25/136
f 165/16/137 159/17/137 167/17/137
f 160/19/138 158/20/138 166/20/138
f 168/15/139 176/15/139 217/25/139
f 167/17/140 217/17/140 216/16/140
f 168/19/141 166/20/141 174/20/141
f 166/23/142 169/13/142 214/13/142
f 172/18/143 171/11/143 179/11/143
f 173/14/144 216/14/144 178/24/144
f 169/26/145 172/27/145 215/27/145
f 171/21/146 170/22/146 178/22/146
f 185/29/262 177/30/262 222/30/262
f 178/22/148 186/22/148 187/21/148
f 217/25/149 176/15/149 184/15/149
f 183/31/263 229/31/263 225/32/263
f 174/20/151 182/20/151 184/19/151
f 174/23/152 214/13/152 218/13/152
f 215/18/153 179/11/153 187/11/153
f 178/24/154 216/14/154 220/14/154
f 218/13/104 193/13/104 190/23/104
f 187/11/128 195/11/128 196/18/128
f 220/14/106 197/14/106 194/24/106
f 219/27/105 196/27/105 193/26/105
f 186/22/155 194/22/155 195/21/155
f 184/15/107 192/15/107 191/25/107
f 221/17/102 191/17/102 197/16/102
f 182/20/103 190/20/103 192/19/103
f 192/19/156 190/20/156 198/20/156
f 193/13/157 201/13/157 198/23/157
f 195/11/158 203/11/158 204/18/158
f 197/14/159 205/14/159 202/24/159
f 193/26/160 196/27/160 204/27/160
f 195/21/161 194/22/161 202/22/161
f 192/15/162 200/15/162 199/25/162
f 197/16/264 191/17/264 199/17/264
f 203/21/164 202/22/164 210/22/164
f 200/15/165 208/15/165 207/25/165
f 205/16/166 199/17/166 207/17/166
f 200/19/167 198/20/167 206/20/167
f 201/13/168 209/13/168 206/23/168
f 203/11/169 211/11/169 212/18/169
f 205/14/170 213/14/170 210/24/170
f 201/26/171 204/27/171 212/27/171
f 116/21/265 211/33/265 210/22/265
f 106/14/266 119/24/266 210/24/266
f 212/33/267 211/11/267 112/11/267
f 115/26/268 209/26/268 212/33/268
f 107/13/269 118/23/269 206/23/269
f 113/19/270 208/19/270 206/33/270
f 105/15/271 117/25/271 207/25/271
f 114/16/272 213/16/272 207/33/272
f 177/30/273 214/26/273 215/27/273
f 181/35/274 216/16/274 217/17/274
f 188/36/275 219/27/275 218/26/275
f 183/31/276 221/17/276 220/16/276
f 185/29/277 218/26/277 214/26/277
f 188/36/278 180/34/278 215/27/278
f 183/31/279 175/32/279 217/17/279
f 189/37/280 220/16/280 216/16/280
f 230/19/281 145/19/281 143/20/281
f 143/20/282 231/20/282 234/28/282
f 188/36/197 185/29/197 226/29/197
f 180/34/198 223/34/198 222/30/198
f 189/37/283 181/35/283 224/35/283
f 188/36/284 227/36/284 223/34/284
f 189/37/201 228/37/201 229/31/201
f 181/35/202 175/32/202 225/32/202
f 231/23/285 143/23/285 150/23/285
f 150/23/286 233/23/286 237/23/286
f 238/28/287 235/33/287 233/23/287
f 232/15/288 235/33/288 238/28/288
f 235/33/289 232/15/289 241/15/289
f 237/23/290 233/23/290 242/23/290
f 233/23/291 235/33/291 244/33/291
f 230/15/292 239/15/292 245/15/292
f 234/28/293 243/28/293 239/19/293
f 236/15/294 245/15/294 241/15/294
f 231/23/295 237/23/295 246/23/295
f 234/28/296 231/20/296 240/20/296
f 239/15/297 247/15/297 253/15/297
f 243/28/298 251/28/298 247/19/298
f 245/15/299 253/15/299 249/15/299
f 240/20/300 248/20/300 251/28/300
f 240/23/301 246/23/301 254/23/301
f 244/33/302 241/15/302 249/15/302
f 246/23/303 242/23/303 250/23/303
f 242/23/304 244/33/304 252/33/304
f 259/38/222 260/45/222 262/39/222
f 261/6/223 262/39/223 264/40/223
f 264/40/224 266/44/224 265/8/224
f 261/6/225 272/6/225 271/38/225
f 133/33/305 265/43/305 266/44/305
f 140/24/306 256/47/306 255/42/306
f 258/46/307 257/48/307 141/27/307
f 126/21/308 262/39/308 260/45/308
f 274/43/5 267/42/5 268/47/5
f 268/47/5 269/48/5 270/46/5
f 270/46/5 271/51/5 272/49/5
f 272/49/5 273/52/5 274/43/5
f 274/43/5 268/47/5 270/46/5
f 265/43/244 255/42/244 267/42/244
f 259/38/245 271/38/245 270/46/245
f 257/48/246 269/48/246 268/47/246
f 263/41/247 273/41/247 272/6/247
f 258/46/248 270/46/248 269/48/248
f 263/41/249 265/8/249 274/8/249
f 255/42/250 256/47/250 268/47/250
