# Blender 5.1.1
# www.blender.org
mtllib engine_chemical_1_trail.mtl
o engine_chemical_1_trail
v 0.000000 -1.279663 -10.362733
v 0.904858 -0.904858 -10.362733
v 1.279662 0.000000 -10.362733
v 0.904858 0.904858 -10.362733
v 0.000000 1.279663 -10.362733
v -0.904858 0.904858 -10.362733
v -1.279663 0.000000 -10.362733
v -0.904858 -0.904858 -10.362733
v 0.000000 0.000000 -35.955990
v -0.000000 0.000000 -8.155169
vn 0.3823 -0.9229 -0.0461
vn 0.9229 -0.3823 -0.0461
vn 0.9229 0.3823 -0.0461
vn 0.3823 0.9229 -0.0461
vn -0.3823 0.9229 -0.0461
vn -0.9229 0.3823 -0.0461
vn -0.8144 -0.3374 0.4721
vn -0.9229 -0.3823 -0.0461
vn -0.3823 -0.9229 -0.0461
vn -0.8144 0.3374 0.4721
vn 0.3374 -0.8144 0.4721
vn -0.3374 0.8144 0.4721
vn 0.3374 0.8144 0.4721
vn 0.8144 0.3374 0.4721
vn 0.8144 -0.3374 0.4721
vn -0.3374 -0.8144 0.4721
vt 0.250000 0.490000
vt 0.250000 0.250000
vt 0.419706 0.419706
vt 0.490000 0.250000
vt 0.419706 0.080294
vt 0.250000 0.010000
vt 0.080294 0.080294
vt 0.010000 0.250000
vt 0.080294 0.419706
s 0
usemtl burn_1
f 1/1/1 9/2/1 2/3/1
f 2/3/2 9/2/2 3/4/2
f 3/4/3 9/2/3 4/5/3
f 4/5/4 9/2/4 5/6/4
f 5/6/5 9/2/5 6/7/5
f 6/7/6 9/2/6 7/8/6
f 7/8/7 8/9/7 10/8/7
f 7/8/8 9/2/8 8/9/8
f 8/9/9 9/2/9 1/1/9
f 6/7/10 7/8/10 10/7/10
f 1/1/11 2/3/11 10/1/11
f 5/6/12 6/7/12 10/6/12
f 4/5/13 5/6/13 10/5/13
f 3/4/14 4/5/14 10/4/14
f 2/3/15 3/4/15 10/3/15
f 8/9/16 1/1/16 10/9/16
