# Blender 5.1.1
# www.blender.org
mtllib external_tank_0.mtl
o external_tank_0
v 0.260475 0.965926 -3.000000
v 0.260475 0.965926 3.000000
v 0.708763 0.707107 -3.000000
v 0.708763 0.707107 3.000000
v 0.967582 0.258819 -3.000000
v 0.967582 0.258819 3.000000
v 0.967582 -0.258819 -3.000000
v 0.967582 -0.258819 3.000000
v 0.708763 -0.707107 -3.000000
v 0.708763 -0.707107 3.000000
v 0.260475 -0.965926 -3.000000
v 0.260475 -0.965926 3.000000
v -0.386006 -0.891538 -0.285122
v -0.386006 -0.891538 0.285122
v -0.706139 -0.542036 -3.050521
v -0.706139 -0.542036 3.050521
v -0.882285 -0.281324 -3.050521
v -0.882285 -0.281324 3.050521
v -0.882285 0.281324 -3.050521
v -0.882285 0.281324 3.050521
v -0.706139 0.542036 -3.050521
v -0.706139 0.542036 3.050521
v -0.386006 0.891538 -0.285122
v -0.386006 0.891538 0.285122
v 0.184074 0.680794 -3.306915
v 0.500032 0.498376 -3.306915
v 0.500032 0.498376 3.306915
v 0.184075 0.680794 3.306915
v 0.682450 0.182418 -3.306915
v 0.682450 0.182418 3.306915
v 0.682450 -0.182418 -3.306915
v 0.682450 -0.182418 3.306915
v 0.500032 -0.498376 -3.306915
v 0.500032 -0.498376 3.306915
v 0.184074 -0.680794 -3.306915
v 0.184074 -0.680794 3.306915
v -0.180762 -0.680794 -3.306915
v -0.180762 -0.680794 3.306915
v -0.566127 -0.542036 -3.256393
v -0.566127 -0.542036 3.256393
v -0.691025 -0.281324 -3.256393
v -0.691025 -0.281324 3.256393
v -0.691025 0.281324 -3.256393
v -0.691025 0.281324 3.256393
v -0.566127 0.542036 -3.256393
v -0.566127 0.542036 3.256393
v -0.180762 0.680794 -3.306915
v -0.180762 0.680794 3.306915
v -0.576607 -0.781494 -0.285122
v -0.964269 -0.258819 -3.000000
v -0.964269 -0.258819 3.000000
v -0.576607 -0.781495 0.285122
v -0.964269 0.258819 -3.000000
v -0.576607 0.781494 -0.285122
v -0.576607 0.781494 0.285122
v -0.964269 0.258819 3.000000
v -0.496719 -0.498376 -3.306915
v -0.679137 -0.182418 -3.306915
v -0.679137 -0.182418 3.306915
v -0.496719 -0.498376 3.306915
v -0.679137 0.182418 -3.306915
v -0.496719 0.498376 -3.306915
v -0.496719 0.498376 3.306915
v -0.679137 0.182418 3.306915
v -1.000000 -0.542036 -3.050521
v -1.000000 -0.281324 -3.050521
v -1.000000 -0.281324 3.050521
v -1.000000 -0.542036 3.050521
v -1.000000 0.281324 -3.050521
v -1.000000 0.542036 -3.050521
v -1.000000 0.542036 3.050521
v -1.000000 0.281324 3.050521
v -1.000000 -0.542036 -3.256393
v -1.000000 -0.281324 -3.256393
v -1.000000 -0.281324 3.256393
v -1.000000 -0.542036 3.256393
v -1.000000 0.281324 -3.256393
v -1.000000 0.542036 -3.256393
v -1.000000 0.542036 3.256393
v -1.000000 0.281324 3.256393
v -0.257163 -0.965926 3.000000
v -0.257163 -0.965926 -3.000000
v -0.705450 -0.707107 -3.000000
v -0.705450 -0.707107 3.000000
v -0.705450 0.707107 3.000000
v -0.705450 0.707107 -3.000000
v -0.257163 0.965926 -3.000000
v -0.257163 0.965926 3.000000
v -1.000000 -0.891538 0.285122
v -1.000000 -0.891538 -0.285122
v -1.000000 -0.781494 -0.285122
v -1.000000 -0.781495 0.285122
v -1.000000 0.781494 0.285122
v -1.000000 0.781494 -0.285122
v -1.000000 0.891538 -0.285122
v -1.000000 0.891538 0.285122
vn 0.5000 0.8660 -0.0000
vn 0.8660 0.5000 -0.0000
vn 1.0000 -0.0000 -0.0000
vn 0.8660 -0.5000 -0.0000
vn 0.5000 -0.8660 -0.0000
vn -0.0000 -1.0000 -0.0000
vn -0.8660 -0.5000 -0.0000
vn -1.0000 -0.0000 -0.0000
vn -0.8660 0.5000 -0.0000
vn 0.3663 0.6345 -0.6806
vn -0.0000 -0.0000 1.0000
vn -0.0000 1.0000 -0.0000
vn -0.0000 -0.0000 -1.0000
vn 0.7326 -0.0000 0.6806
vn 0.3663 0.6345 0.6806
vn -0.0000 -0.7326 -0.6806
vn -0.3663 0.6345 -0.6806
vn -0.0000 -0.7326 0.6806
vn -0.3663 0.6345 0.6806
vn 0.6345 -0.3663 -0.6806
vn -0.7326 -0.0000 -0.6806
vn 0.6345 -0.3663 0.6806
vn -0.7326 -0.0000 0.6806
vn 0.6345 0.3663 -0.6806
vn -0.3663 -0.6345 -0.6806
vn -0.0000 0.7326 -0.6806
vn 0.6345 0.3663 0.6806
vn -0.3663 -0.6345 0.6806
vn -0.0000 0.7326 0.6806
vn 0.3663 -0.6345 -0.6806
vn 0.3663 -0.6345 0.6806
vn 0.7326 -0.0000 -0.6806
vn -0.5587 -0.3775 -0.7385
vn -0.4545 -0.2624 0.8512
vn -0.4545 0.2624 -0.8512
vn -0.5587 0.3775 0.7385
vn -0.4753 -0.2277 -0.8498
vn -0.5592 -0.3228 0.7636
vn -0.5592 0.3228 -0.7636
vn -0.4753 0.2277 0.8498
vn -0.7091 -0.2513 -0.6588
vn -0.8144 -0.1729 -0.5539
vn 0.2310 -0.8704 0.4349
vn -0.5435 -0.5430 0.6401
vn 0.2310 0.8704 -0.4349
vn -0.8144 0.1729 0.5539
vn -0.5435 0.5430 -0.6401
vn -0.7091 0.2513 0.6588
vn -0.5000 -0.8660 -0.0000
vn -0.5000 0.8660 -0.0000
vn -0.4545 -0.2624 -0.8512
vn -0.5587 -0.3775 0.7385
vn -0.5587 0.3775 -0.7385
vn -0.4545 0.2624 0.8512
vn -0.5592 -0.3228 -0.7636
vn -0.4753 -0.2277 0.8498
vn -0.4753 0.2277 -0.8498
vn -0.5592 0.3228 0.7636
vn -0.5435 -0.5430 -0.6401
vn 0.2310 -0.8704 -0.4349
vn -0.8144 -0.1729 0.5539
vn -0.7091 -0.2513 0.6588
vn -0.8144 0.1729 -0.5539
vn 0.2310 0.8704 0.4349
vn -0.7091 0.2513 -0.6588
vn -0.5435 0.5430 0.6401
vt 1.000000 1.000000
vt 0.916667 0.500000
vt 1.000000 0.500000
vt 0.916667 1.000000
vt 0.833333 0.500000
vt 0.833333 1.000000
vt 0.750000 0.500000
vt 0.750000 1.000000
vt 0.666667 0.500000
vt 0.666667 1.000000
vt 0.583333 0.500000
vt 0.583333 1.000000
vt 0.500000 0.500000
vt 0.142716 0.987602
vt 0.142716 0.512398
vt 0.416667 1.000000
vt 0.333333 0.500000
vt 0.416667 0.500000
vt 0.333333 1.000000
vt 0.250000 0.500000
vt 0.250000 1.000000
vt 0.166667 0.500000
vt 0.107284 0.987602
vt 0.083333 1.000000
vt 0.000000 0.500000
vt 0.083333 0.500000
vt 0.042154 0.370000
vt 0.250000 0.010000
vt 0.457846 0.370000
vt 0.990000 0.250000
vt 0.630000 0.042154
vt 0.630000 0.457846
vt 0.500000 1.000000
vt 0.166667 1.000000
vt 0.000000 1.000000
vt 0.233666 0.978668
vt 0.162504 0.917627
vt 0.394690 0.970542
vt 0.364371 0.887011
vt 0.271878 0.467312
vt 0.187588 0.491535
vt 0.432442 0.440137
vt 0.552697 0.176982
vt 0.352675 0.484497
vt 0.375519 0.440538
vt 0.142381 0.386201
vt 0.042154 0.130000
vt 0.418955 0.323621
vt 0.510000 0.250000
vt 0.219350 0.918180
vt 0.093300 0.555525
vt 0.307379 0.886247
vt 0.214913 0.467532
vt 0.476049 0.512398
vt 0.476049 0.987602
vt 0.440618 0.512398
vt 0.440618 0.987602
vt 0.107284 0.512398
vt 0.370000 0.457846
vt 0.250000 0.490000
vt 0.130000 0.457846
vt 0.010000 0.250000
vt 0.130000 0.042154
vt 0.370000 0.042154
vt 0.457846 0.130000
vt 0.490000 0.250000
vt 0.750000 0.490000
vt 0.870000 0.457846
vt 0.957846 0.370000
vt 0.957846 0.130000
vt 0.870000 0.042154
vt 0.750000 0.010000
vt 0.542154 0.130000
vt 0.542154 0.370000
s 0
usemtl no_texture
f 2/1/1 3/2/1 1/3/1
f 4/4/2 5/5/2 3/2/2
f 6/6/3 7/7/3 5/5/3
f 8/8/4 9/9/4 7/7/4
f 10/10/5 11/11/5 9/9/5
f 12/12/6 82/13/6 11/11/6
f 55/14/6 94/15/6 54/15/6
f 84/16/7 50/17/7 83/18/7
f 51/19/8 53/20/8 50/17/8
f 56/21/9 86/22/9 53/20/9
f 1/3/10 26/2/10 25/3/10
f 55/14/11 96/23/11 93/14/11
f 88/24/12 1/25/12 87/26/12
f 63/27/11 38/28/11 30/29/11
f 31/30/13 57/31/13 47/32/13
f 8/8/14 30/6/14 32/8/14
f 4/4/15 28/1/15 27/4/15
f 82/13/16 35/11/16 11/11/16
f 86/22/17 47/26/17 62/22/17
f 12/12/18 38/33/18 81/33/18
f 85/34/19 48/24/19 88/24/19
f 9/9/20 31/7/20 7/7/20
f 50/17/21 61/20/21 58/17/21
f 10/10/22 32/8/22 34/10/22
f 56/21/23 59/19/23 64/21/23
f 5/5/24 26/2/24 3/2/24
f 83/18/25 37/13/25 82/13/25
f 87/26/26 25/25/26 47/26/26
f 6/6/27 27/4/27 30/6/27
f 84/16/28 38/33/28 60/16/28
f 88/24/29 28/35/29 2/35/29
f 11/11/30 33/9/30 9/9/30
f 10/10/31 36/12/31 12/12/31
f 5/5/32 31/7/32 29/5/32
f 20/36/13 71/37/13 22/37/13
f 16/38/6 76/39/6 68/38/6
f 19/40/11 70/41/11 69/40/11
f 15/42/6 73/43/6 39/43/6
f 15/42/33 50/17/33 17/44/33
f 16/38/34 51/19/34 84/16/34
f 21/41/35 53/20/35 86/22/35
f 22/37/36 56/21/36 20/36/36
f 41/45/37 57/31/37 39/43/37
f 42/46/38 60/16/38 59/47/38
f 43/48/39 62/22/39 61/49/39
f 44/50/40 63/27/40 46/51/40
f 17/44/41 58/17/41 41/45/41
f 39/43/42 83/18/42 15/42/42
f 40/39/43 84/16/43 60/16/43
f 18/52/44 59/47/44 51/19/44
f 45/53/45 86/22/45 62/22/45
f 46/51/46 85/34/46 22/37/46
f 19/40/47 61/49/47 53/20/47
f 20/36/48 64/21/48 44/50/48
f 18/52/12 75/46/12 42/46/12
f 41/45/13 73/43/13 74/45/13
f 21/41/12 78/53/12 70/41/12
f 42/46/11 76/39/11 40/39/11
f 22/37/12 79/51/12 46/51/12
f 43/48/13 78/53/13 45/53/13
f 19/40/6 77/48/6 43/48/6
f 44/50/11 79/51/11 80/50/11
f 17/44/11 65/42/11 15/42/11
f 20/36/6 80/50/6 72/36/6
f 17/44/12 74/45/12 66/44/12
f 18/52/13 68/38/13 67/52/13
f 13/54/49 81/33/49 14/55/49
f 49/56/49 82/13/49 13/54/49
f 14/55/49 84/16/49 52/57/49
f 52/57/49 83/18/49 49/56/49
f 54/15/50 85/34/50 55/14/50
f 54/15/50 87/26/50 86/22/50
f 55/14/50 88/24/50 24/23/50
f 23/58/50 88/24/50 87/26/50
f 52/57/11 89/55/11 14/55/11
f 13/54/6 89/55/6 90/54/6
f 23/58/12 96/23/12 24/23/12
f 54/15/13 95/58/13 23/58/13
f 49/56/12 92/57/12 52/57/12
f 49/56/13 90/54/13 91/56/13
f 2/1/1 4/4/1 3/2/1
f 4/4/2 6/6/2 5/5/2
f 6/6/3 8/8/3 7/7/3
f 8/8/4 10/10/4 9/9/4
f 10/10/5 12/12/5 11/11/5
f 12/12/6 81/33/6 82/13/6
f 55/14/6 93/14/6 94/15/6
f 84/16/7 51/19/7 50/17/7
f 51/19/8 56/21/8 53/20/8
f 56/21/9 85/34/9 86/22/9
f 1/3/10 3/2/10 26/2/10
f 55/14/11 24/23/11 96/23/11
f 88/24/12 2/35/12 1/25/12
f 30/29/11 27/59/11 28/60/11
f 28/60/11 48/61/11 63/27/11
f 63/27/11 64/62/11 59/47/11
f 59/47/11 60/63/11 38/28/11
f 38/28/11 36/64/11 34/65/11
f 34/65/11 32/66/11 30/29/11
f 30/29/11 28/60/11 63/27/11
f 63/27/11 59/47/11 38/28/11
f 38/28/11 34/65/11 30/29/11
f 47/32/13 25/67/13 26/68/13
f 26/68/13 29/69/13 31/30/13
f 31/30/13 33/70/13 35/71/13
f 35/71/13 37/72/13 57/31/13
f 57/31/13 58/73/13 61/49/13
f 61/49/13 62/74/13 47/32/13
f 47/32/13 26/68/13 31/30/13
f 31/30/13 35/71/13 57/31/13
f 57/31/13 61/49/13 47/32/13
f 8/8/14 6/6/14 30/6/14
f 4/4/15 2/1/15 28/1/15
f 82/13/16 37/13/16 35/11/16
f 86/22/17 87/26/17 47/26/17
f 12/12/18 36/12/18 38/33/18
f 85/34/19 63/34/19 48/24/19
f 9/9/20 33/9/20 31/7/20
f 50/17/21 53/20/21 61/20/21
f 10/10/22 8/8/22 32/8/22
f 56/21/23 51/19/23 59/19/23
f 5/5/24 29/5/24 26/2/24
f 83/18/25 57/18/25 37/13/25
f 87/26/26 1/25/26 25/25/26
f 6/6/27 4/4/27 27/4/27
f 84/16/28 81/33/28 38/33/28
f 88/24/29 48/24/29 28/35/29
f 11/11/30 35/11/30 33/9/30
f 10/10/31 34/10/31 36/12/31
f 5/5/32 7/7/32 31/7/32
f 20/36/13 72/36/13 71/37/13
f 16/38/6 40/39/6 76/39/6
f 19/40/11 21/41/11 70/41/11
f 15/42/6 65/42/6 73/43/6
f 15/42/51 83/18/51 50/17/51
f 16/38/52 18/52/52 51/19/52
f 21/41/53 19/40/53 53/20/53
f 22/37/54 85/34/54 56/21/54
f 41/45/55 58/17/55 57/31/55
f 42/46/56 40/39/56 60/16/56
f 43/48/57 45/53/57 62/22/57
f 44/50/58 64/21/58 63/27/58
f 17/44/59 50/17/59 58/17/59
f 39/43/60 57/31/60 83/18/60
f 40/39/61 16/38/61 84/16/61
f 18/52/62 42/46/62 59/47/62
f 45/53/63 21/41/63 86/22/63
f 46/51/64 63/27/64 85/34/64
f 19/40/65 43/48/65 61/49/65
f 20/36/66 56/21/66 64/21/66
f 18/52/12 67/52/12 75/46/12
f 41/45/13 39/43/13 73/43/13
f 21/41/12 45/53/12 78/53/12
f 42/46/11 75/46/11 76/39/11
f 22/37/12 71/37/12 79/51/12
f 43/48/13 77/48/13 78/53/13
f 19/40/6 69/40/6 77/48/6
f 44/50/11 46/51/11 79/51/11
f 17/44/11 66/44/11 65/42/11
f 20/36/6 44/50/6 80/50/6
f 17/44/12 41/45/12 74/45/12
f 18/52/13 16/38/13 68/38/13
f 13/54/49 82/13/49 81/33/49
f 49/56/49 83/18/49 82/13/49
f 14/55/49 81/33/49 84/16/49
f 52/57/49 84/16/49 83/18/49
f 54/15/50 86/22/50 85/34/50
f 54/15/50 23/58/50 87/26/50
f 55/14/50 85/34/50 88/24/50
f 23/58/50 24/23/50 88/24/50
f 52/57/11 92/57/11 89/55/11
f 13/54/6 14/55/6 89/55/6
f 23/58/12 95/58/12 96/23/12
f 54/15/13 94/15/13 95/58/13
f 49/56/12 91/56/12 92/57/12
f 49/56/13 13/54/13 90/54/13
