# Blender 5.1.1
# www.blender.org
mtllib four_containers.mtl
o four_containers
v -2.659000 -2.695000 1.936826
v -2.659000 -0.305000 1.936826
v -2.659000 -2.695000 -3.923174
v -2.659000 -0.305000 -3.923174
v -0.341000 -2.695000 1.936826
v -0.341000 -0.305000 1.936826
v -0.341000 -2.695000 -3.923174
v -0.341000 -0.305000 -3.923174
v -0.380000 -0.269750 -3.923174
v -0.380000 -2.730250 -3.923174
v -0.380000 -2.730250 1.936826
v -0.380000 -0.269750 1.936826
v -2.620000 -2.730250 -3.923174
v -2.620000 -2.730250 1.936826
v -2.620000 -0.269750 1.936826
v -2.620000 -0.269750 -3.923174
v -2.620000 -0.305000 1.961711
v -2.620000 -0.305000 -3.948060
v -0.380000 -0.305000 -3.948060
v -0.380000 -0.305000 1.961711
v -2.620000 -2.695000 -3.948060
v -2.620000 -2.695000 1.961711
v -0.380000 -2.695000 -3.948060
v -0.380000 -2.695000 1.961711
v -2.720000 -2.795000 2.036826
v -2.720000 -0.205000 2.036826
v -2.720000 -0.205000 -4.023174
v -2.720000 -2.795000 -4.023174
v -0.280000 -2.795000 -4.023174
v -0.280000 -0.205000 -4.023174
v -0.280000 -0.205000 2.036826
v -0.280000 -2.795000 2.036826
v 0.341000 -2.695000 1.936826
v 0.341000 -0.305000 1.936826
v 0.341000 -2.695000 -3.923174
v 0.341000 -0.305000 -3.923174
v 2.659000 -2.695000 1.936826
v 2.659000 -0.305000 1.936826
v 2.659000 -2.695000 -3.923174
v 2.659000 -0.305000 -3.923174
v 2.620000 -0.269750 -3.923174
v 2.620000 -2.730250 -3.923174
v 2.620000 -2.730250 1.936826
v 2.620000 -0.269750 1.936826
v 0.380000 -2.730250 -3.923174
v 0.380000 -2.730250 1.936826
v 0.380000 -0.269750 1.936826
v 0.380000 -0.269750 -3.923174
v 0.380000 -0.305000 1.961711
v 0.380000 -0.305000 -3.948060
v 2.620000 -0.305000 -3.948060
v 2.620000 -0.305000 1.961711
v 0.380000 -2.695000 -3.948060
v 0.380000 -2.695000 1.961711
v 2.620000 -2.695000 -3.948060
v 2.620000 -2.695000 1.961711
v 0.280000 -2.795000 2.036826
v 0.280000 -0.205000 2.036826
v 0.280000 -0.205000 -4.023174
v 0.280000 -2.795000 -4.023174
v 2.720000 -2.795000 -4.023174
v 2.720000 -0.205000 -4.023174
v 2.720000 -0.205000 2.036826
v 2.720000 -2.795000 2.036826
v 0.341000 0.305000 1.936826
v 0.341000 2.695000 1.936826
v 0.341000 0.305000 -3.923174
v 0.341000 2.695000 -3.923174
v 2.659000 0.305000 1.936826
v 2.659000 2.695000 1.936826
v 2.659000 0.305000 -3.923174
v 2.659000 2.695000 -3.923174
v 2.620000 2.730250 -3.923174
v 2.620000 0.269750 -3.923174
v 2.620000 0.269750 1.936826
v 2.620000 2.730250 1.936826
v 0.380000 0.269750 -3.923174
v 0.380000 0.269750 1.936826
v 0.380000 2.730250 1.936826
v 0.380000 2.730250 -3.923174
v 0.380000 2.695000 1.961711
v 0.380000 2.695000 -3.948060
v 2.620000 2.695000 -3.948060
v 2.620000 2.695000 1.961711
v 0.380000 0.305000 -3.948060
v 0.380000 0.305000 1.961711
v 2.620000 0.305000 -3.948060
v 2.620000 0.305000 1.961711
v 0.280000 0.205000 2.036826
v 0.280000 2.795000 2.036826
v 0.280000 2.795000 -4.023174
v 0.280000 0.205000 -4.023174
v 2.720000 0.205000 -4.023174
v 2.720000 2.795000 -4.023174
v 2.720000 2.795000 2.036826
v 2.720000 0.205000 2.036826
v -2.659000 0.305000 1.936826
v -2.659000 2.695000 1.936826
v -2.659000 0.305000 -3.923174
v -2.659000 2.695000 -3.923174
v -0.341000 0.305000 1.936826
v -0.341000 2.695000 1.936826
v -0.341000 0.305000 -3.923174
v -0.341000 2.695000 -3.923174
v -0.380001 2.730250 -3.923174
v -0.380001 0.269750 -3.923174
v -0.380001 0.269750 1.936826
v -0.380001 2.730250 1.936826
v -2.620000 0.269750 -3.923174
v -2.620000 0.269750 1.936826
v -2.620000 2.730250 1.936826
v -2.620000 2.730250 -3.923174
v -2.620000 2.695000 1.961711
v -2.620000 2.695000 -3.948060
v -0.380001 2.695000 -3.948060
v -0.380001 2.695000 1.961711
v -2.620000 0.305000 -3.948060
v -2.620000 0.305000 1.961711
v -0.380001 0.305000 -3.948060
v -0.380001 0.305000 1.961711
v -2.720000 0.205000 2.036826
v -2.720000 2.795000 2.036826
v -2.720000 2.795000 -4.023174
v -2.720000 0.205000 -4.023174
v -0.280000 0.205000 -4.023174
v -0.280000 2.795000 -4.023174
v -0.280000 2.795000 2.036826
v -0.280000 0.205000 2.036826
v 2.655799 -1.146791 1.716694
v 2.655799 1.146791 1.716694
v 2.655799 -1.146791 1.483306
v 2.655799 1.146791 1.483306
v 2.947607 -1.000000 1.716694
v 2.947607 1.000000 1.716694
v 2.947607 -1.000000 1.483306
v 2.947607 1.000000 1.483306
v 2.655799 -1.146791 -3.483306
v 2.655799 1.146791 -3.483306
v 2.655799 -1.146791 -3.716694
v 2.655799 1.146791 -3.716694
v 2.947607 -1.000000 -3.483306
v 2.947607 1.000000 -3.483306
v 2.947607 -1.000000 -3.716694
v 2.947607 1.000000 -3.716694
v -2.655796 -1.146791 1.716694
v -2.655796 1.146791 1.716694
v -2.655796 -1.146791 1.483306
v -2.655796 1.146791 1.483306
v -2.947604 -1.000000 1.716694
v -2.947604 1.000000 1.716694
v -2.947604 -1.000000 1.483306
v -2.947604 1.000000 1.483306
v -2.655796 -1.146791 -3.483306
v -2.655796 1.146791 -3.483306
v -2.655796 -1.146791 -3.716694
v -2.655796 1.146791 -3.716694
v -2.947604 -1.000000 -3.483306
v -2.947604 1.000000 -3.483306
v -2.947604 -1.000000 -3.716694
v -2.947604 1.000000 -3.716694
v -1.146790 -2.655797 1.716694
v 1.146792 -2.655797 1.716694
v -1.146790 -2.655797 1.483306
v 1.146792 -2.655797 1.483306
v -0.999999 -2.947606 1.716694
v 1.000001 -2.947606 1.716694
v -0.999999 -2.947606 1.483306
v 1.000001 -2.947606 1.483306
v -1.146790 -2.655797 -3.483306
v 1.146792 -2.655797 -3.483306
v -1.146790 -2.655797 -3.716694
v 1.146792 -2.655797 -3.716694
v -0.999999 -2.947606 -3.483306
v 1.000001 -2.947606 -3.483306
v -0.999999 -2.947606 -3.716694
v 1.000001 -2.947606 -3.716694
v -1.146789 2.655798 1.716694
v 1.146793 2.655798 1.716694
v -1.146789 2.655798 1.483306
v 1.146793 2.655798 1.483306
v -0.999998 2.947606 1.716694
v 1.000002 2.947606 1.716694
v -0.999998 2.947606 1.483306
v 1.000002 2.947606 1.483306
v -1.146789 2.655798 -3.483306
v 1.146793 2.655798 -3.483306
v -1.146789 2.655798 -3.716694
v 1.146793 2.655798 -3.716694
v -0.999998 2.947606 -3.483306
v 1.000002 2.947606 -3.483306
v -0.999998 2.947606 -3.716694
v 1.000002 2.947606 -3.716694
v -0.661208 -0.227184 -3.772816
v -0.661208 0.227184 -3.772816
v -0.908734 -0.227184 -4.000000
v -0.908734 0.227184 -4.000000
v 0.661208 -0.227184 -3.772816
v 0.661208 0.227184 -3.772816
v 0.908735 -0.227184 -4.000000
v 0.908735 0.227184 -4.000000
v -0.165519 -0.227184 -2.135010
v -0.165519 0.227184 -2.135010
v 0.165519 0.227184 -2.135010
v 0.165519 -0.227184 -2.135010
v -0.661208 -0.227184 1.772818
v -0.661208 0.227184 1.772818
v -0.908734 -0.227184 2.000002
v -0.908734 0.227184 2.000002
v 0.661208 -0.227184 1.772818
v 0.661208 0.227184 1.772818
v 0.908734 -0.227184 2.000002
v 0.908734 0.227184 2.000002
v -0.165519 -0.227184 0.135012
v -0.165519 0.227184 0.135012
v 0.165519 0.227184 0.135012
v 0.165519 -0.227184 0.135012
vn -1.0000 -0.0000 -0.0000
vn -0.0000 -0.0000 -1.0000
vn 1.0000 -0.0000 -0.0000
vn -0.0000 -0.0000 1.0000
vn -0.0000 -1.0000 -0.0000
vn -0.0000 1.0000 -0.0000
vn 0.8537 -0.0000 0.5208
vn 0.8537 0.5208 -0.0000
vn 0.8537 -0.5208 -0.0000
vn 0.8537 -0.0000 -0.5208
vn -0.8537 0.5208 -0.0000
vn -0.8537 -0.0000 -0.5208
vn -0.8537 -0.5208 -0.0000
vn -0.8537 -0.0000 0.5208
vn 0.5435 0.8394 -0.0000
vn -0.0000 0.8394 0.5435
vn -0.5435 0.8394 -0.0000
vn -0.0000 0.8394 -0.5435
vn 0.5435 -0.8394 -0.0000
vn -0.0000 -0.8394 0.5435
vn -0.5435 -0.8394 -0.0000
vn -0.0000 -0.8394 -0.5435
vn 0.6006 -0.0000 0.7996
vn 0.6006 -0.0000 -0.7996
vn -0.0000 0.6006 -0.7996
vn -0.0000 -0.6006 -0.7996
vn -0.6006 -0.0000 -0.7996
vn -0.6006 -0.0000 0.7996
vn -0.0000 0.6006 0.7996
vn -0.0000 -0.6006 0.7996
vn 0.4494 -0.8933 -0.0000
vn 0.4494 0.8933 -0.0000
vn -0.4494 -0.8933 -0.0000
vn -0.4494 0.8933 -0.0000
vn -0.8933 -0.4494 -0.0000
vn 0.8933 -0.4494 -0.0000
vn -0.8933 0.4494 -0.0000
vn 0.8933 0.4494 -0.0000
vn -0.6762 -0.0000 0.7367
vn 0.6762 -0.0000 0.7367
vn 0.9571 -0.0000 0.2897
vn -0.9571 -0.0000 0.2897
vn -0.6762 -0.0000 -0.7367
vn 0.6762 -0.0000 -0.7367
vn 0.9571 -0.0000 -0.2897
vn -0.9571 -0.0000 -0.2897
vt 1.490214 1.386121
vt -0.595196 0.535587
vt 1.490214 0.535587
vt 0.366629 0.266741
vt 0.633371 0.016741
vt 0.633371 0.266741
vt -0.595196 -1.254449
vt 1.490213 -0.403915
vt -0.595196 -0.403914
vt 0.366630 0.516741
vt 0.633371 0.516741
vt -0.595196 -0.332740
vt 1.490213 0.464413
vt -0.595196 0.464413
vt -0.595196 1.457296
vt 1.490213 2.254448
vt -0.595196 2.254449
vt -0.630783 -1.290035
vt -0.630783 -0.368327
vt 1.525801 -1.290036
vt 1.490213 -1.254449
vt 1.525801 -0.368327
vt 1.525801 0.500000
vt 1.525801 1.421708
vt -0.630783 1.421709
vt -0.595196 1.386121
vt -0.630783 0.500000
vt 1.490213 1.457295
vt -0.630783 2.290036
vt 1.525801 2.290035
vt 1.490213 -0.332740
vt 1.561388 1.457296
vt 2.447509 1.421708
vt 2.411922 1.457296
vt -1.516904 1.457296
vt -0.666370 1.457296
vt -1.516904 2.254449
vt -1.552491 1.421708
vt -0.666371 2.254448
vt -1.552491 2.290036
vt 2.411922 2.254449
vt 1.561388 2.254448
vt 2.447509 2.290036
vt 0.625000 0.250000
vt 0.375000 0.500000
vt 0.375000 0.250000
vt 0.625000 0.500000
vt 0.375000 0.750000
vt 0.625000 0.750000
vt 0.375000 1.000000
vt 0.125000 0.750000
vt 0.125000 0.500000
vt 0.875000 0.500000
vt 0.625000 1.000000
vt 0.625000 0.000000
vt 0.375000 0.000000
vt 0.875000 0.750000
vt 0.366630 0.016741
vt 0.366630 0.266741
s 0
usemtl corrugated_wall
f 2/1/1 3/2/1 1/3/1
f 18/4/2 23/5/2 21/6/2
f 8/7/3 5/8/3 7/9/3
f 20/10/4 22/6/4 24/11/4
f 10/12/5 14/13/5 13/14/5
f 16/15/6 12/16/6 9/17/6
f 34/1/1 35/2/1 33/3/1
f 50/4/2 55/5/2 53/6/2
f 40/7/3 37/8/3 39/9/3
f 52/10/4 54/6/4 56/11/4
f 42/12/5 46/13/5 45/14/5
f 48/15/6 44/16/6 41/17/6
f 66/1/1 67/2/1 65/3/1
f 82/4/2 87/5/2 85/6/2
f 72/7/3 69/8/3 71/9/3
f 84/10/4 86/6/4 88/11/4
f 74/12/5 78/13/5 77/14/5
f 80/15/6 76/16/6 73/17/6
f 98/1/1 99/2/1 97/3/1
f 114/4/2 119/5/2 117/6/2
f 104/7/3 101/8/3 103/9/3
f 116/10/4 118/6/4 120/11/4
f 106/12/5 110/13/5 109/14/5
f 112/15/6 108/16/6 105/17/6
f 2/1/1 4/26/1 3/2/1
f 18/4/2 19/58/2 23/5/2
f 8/7/3 6/21/3 5/8/3
f 20/10/4 17/59/4 22/6/4
f 10/12/5 11/31/5 14/13/5
f 16/15/6 15/28/6 12/16/6
f 34/1/1 36/26/1 35/2/1
f 50/4/2 51/58/2 55/5/2
f 40/7/3 38/21/3 37/8/3
f 52/10/4 49/59/4 54/6/4
f 42/12/5 43/31/5 46/13/5
f 48/15/6 47/28/6 44/16/6
f 66/1/1 68/26/1 67/2/1
f 82/4/2 83/58/2 87/5/2
f 72/7/3 70/21/3 69/8/3
f 84/10/4 81/59/4 86/6/4
f 74/12/5 75/31/5 78/13/5
f 80/15/6 79/28/6 76/16/6
f 98/1/1 100/26/1 99/2/1
f 114/4/2 115/58/2 119/5/2
f 104/7/3 102/21/3 101/8/3
f 116/10/4 113/59/4 118/6/4
f 106/12/5 107/31/5 110/13/5
f 112/15/6 111/28/6 108/16/6
usemtl no_texture
f 7/9/7 30/18/7 8/7/7
f 5/8/8 29/19/8 7/9/8
f 8/7/9 31/20/9 6/21/9
f 5/8/10 31/20/10 32/22/10
f 3/2/11 25/23/11 1/3/11
f 1/3/12 26/24/12 2/1/12
f 2/1/13 27/25/13 4/26/13
f 4/26/14 28/27/14 3/2/14
f 16/15/15 26/24/15 15/28/15
f 9/17/16 27/25/16 16/15/16
f 12/16/17 30/29/17 9/17/17
f 15/28/18 31/30/18 12/16/18
f 14/13/19 28/27/19 13/14/19
f 13/14/20 29/19/20 10/12/20
f 10/12/21 32/22/21 11/31/21
f 11/31/22 25/23/22 14/13/22
f 17/32/23 25/33/23 22/34/23
f 21/35/24 27/25/24 18/36/24
f 23/37/25 28/38/25 21/35/25
f 18/36/26 30/29/26 19/39/26
f 19/39/27 29/40/27 23/37/27
f 24/41/28 31/30/28 20/42/28
f 22/34/29 32/43/29 24/41/29
f 20/42/30 26/24/30 17/32/30
f 39/9/7 62/18/7 40/7/7
f 37/8/8 61/19/8 39/9/8
f 40/7/9 63/20/9 38/21/9
f 38/21/10 64/22/10 37/8/10
f 35/2/11 57/23/11 33/3/11
f 34/1/12 57/23/12 58/24/12
f 34/1/13 59/25/13 36/26/13
f 36/26/14 60/27/14 35/2/14
f 48/15/15 58/24/15 47/28/15
f 41/17/16 59/25/16 48/15/16
f 44/16/17 62/29/17 41/17/17
f 44/16/18 58/24/18 63/30/18
f 46/13/19 60/27/19 45/14/19
f 42/12/20 60/27/20 61/19/20
f 42/12/21 64/22/21 43/31/21
f 43/31/22 57/23/22 46/13/22
f 49/32/23 57/33/23 54/34/23
f 53/35/24 59/25/24 50/36/24
f 55/37/25 60/38/25 53/35/25
f 51/39/26 59/25/26 62/29/26
f 51/39/27 61/40/27 55/37/27
f 56/41/28 63/30/28 52/42/28
f 56/41/29 57/33/29 64/43/29
f 52/42/30 58/24/30 49/32/30
f 71/9/7 94/18/7 72/7/7
f 69/8/8 93/19/8 71/9/8
f 72/7/9 95/20/9 70/21/9
f 70/21/10 96/22/10 69/8/10
f 67/2/11 89/23/11 65/3/11
f 66/1/12 89/23/12 90/24/12
f 66/1/13 91/25/13 68/26/13
f 68/26/14 92/27/14 67/2/14
f 80/15/15 90/24/15 79/28/15
f 73/17/16 91/25/16 80/15/16
f 76/16/17 94/29/17 73/17/17
f 76/16/18 90/24/18 95/30/18
f 78/13/19 92/27/19 77/14/19
f 74/12/20 92/27/20 93/19/20
f 74/12/21 96/22/21 75/31/21
f 75/31/22 89/23/22 78/13/22
f 81/32/23 89/33/23 86/34/23
f 85/35/24 91/25/24 82/36/24
f 87/37/25 92/38/25 85/35/25
f 83/39/26 91/25/26 94/29/26
f 83/39/27 93/40/27 87/37/27
f 88/41/28 95/30/28 84/42/28
f 88/41/29 89/33/29 96/43/29
f 84/42/30 90/24/30 81/32/30
f 103/9/7 126/18/7 104/7/7
f 101/8/8 125/19/8 103/9/8
f 104/7/9 127/20/9 102/21/9
f 102/21/10 128/22/10 101/8/10
f 99/2/11 121/23/11 97/3/11
f 97/3/12 122/24/12 98/1/12
f 98/1/13 123/25/13 100/26/13
f 100/26/14 124/27/14 99/2/14
f 112/15/15 122/24/15 111/28/15
f 105/17/16 123/25/16 112/15/16
f 108/16/17 126/29/17 105/17/17
f 108/16/18 122/24/18 127/30/18
f 110/13/19 124/27/19 109/14/19
f 106/12/20 124/27/20 125/19/20
f 106/12/21 128/22/21 107/31/21
f 107/31/22 121/23/22 110/13/22
f 113/32/23 121/33/23 118/34/23
f 117/35/24 123/25/24 114/36/24
f 119/37/25 124/38/25 117/35/25
f 115/39/26 123/25/26 126/29/26
f 115/39/27 125/40/27 119/37/27
f 120/41/28 127/30/28 116/42/28
f 120/41/29 121/33/29 128/43/29
f 116/42/30 122/24/30 113/32/30
f 140/44/2 143/45/2 139/46/2
f 132/44/2 135/45/2 131/46/2
f 136/47/3 133/48/3 135/45/3
f 134/49/4 129/50/4 133/48/4
f 135/45/31 129/51/31 131/52/31
f 132/53/32 134/49/32 136/47/32
f 144/47/3 141/48/3 143/45/3
f 142/49/4 137/50/4 141/48/4
f 143/45/31 137/51/31 139/52/31
f 140/53/32 142/49/32 144/47/32
f 159/45/2 156/44/2 155/46/2
f 151/45/2 148/44/2 147/46/2
f 149/48/1 152/47/1 151/45/1
f 145/50/4 150/49/4 149/48/4
f 145/51/33 151/45/33 147/52/33
f 150/49/34 148/53/34 152/47/34
f 157/48/1 160/47/1 159/45/1
f 153/50/4 158/49/4 157/48/4
f 153/51/33 159/45/33 155/52/33
f 158/49/34 156/53/34 160/47/34
f 172/44/2 175/45/2 171/46/2
f 164/44/2 167/45/2 163/46/2
f 168/47/5 165/48/5 167/45/5
f 165/48/4 162/54/4 161/50/4
f 167/45/35 161/51/35 163/52/35
f 164/53/36 166/49/36 168/47/36
f 176/47/5 173/48/5 175/45/5
f 173/48/4 170/54/4 169/50/4
f 175/45/35 169/51/35 171/52/35
f 172/53/36 174/49/36 176/47/36
f 191/45/2 188/44/2 187/46/2
f 183/45/2 180/44/2 179/46/2
f 181/48/6 184/47/6 183/45/6
f 181/48/4 178/54/4 182/49/4
f 177/51/37 183/45/37 179/52/37
f 182/49/38 180/53/38 184/47/38
f 189/48/6 192/47/6 191/45/6
f 189/48/4 186/54/4 190/49/4
f 185/51/37 191/45/37 187/52/37
f 190/49/38 188/53/38 192/47/38
f 194/55/39 195/46/39 193/56/39
f 196/44/2 199/45/2 195/46/2
f 200/47/40 197/48/40 199/45/40
f 194/57/6 203/49/6 198/49/6
f 199/45/5 193/51/5 195/52/5
f 196/53/6 198/49/6 200/47/6
f 201/56/1 214/57/1 202/57/1
f 198/49/41 204/48/41 197/48/41
f 193/56/42 202/55/42 194/55/42
f 197/48/5 201/51/5 193/51/5
f 207/46/43 206/55/43 205/56/43
f 211/45/4 208/44/4 207/46/4
f 209/48/44 212/47/44 211/45/44
f 210/49/6 214/57/6 206/57/6
f 205/51/5 211/45/5 207/52/5
f 210/49/6 208/53/6 212/47/6
f 214/57/6 203/49/6 202/57/6
f 216/48/45 210/49/45 209/48/45
f 214/55/46 205/56/46 206/55/46
f 213/51/5 209/48/5 205/51/5
f 216/48/5 201/56/5 204/48/5
f 203/49/3 216/48/3 204/48/3
f 7/9/7 29/19/7 30/18/7
f 5/8/8 32/22/8 29/19/8
f 8/7/9 30/18/9 31/20/9
f 5/8/10 6/21/10 31/20/10
f 3/2/11 28/27/11 25/23/11
f 1/3/12 25/23/12 26/24/12
f 2/1/13 26/24/13 27/25/13
f 4/26/14 27/25/14 28/27/14
f 16/15/15 27/25/15 26/24/15
f 9/17/16 30/29/16 27/25/16
f 12/16/17 31/30/17 30/29/17
f 15/28/18 26/24/18 31/30/18
f 14/13/19 25/23/19 28/27/19
f 13/14/20 28/27/20 29/19/20
f 10/12/21 29/19/21 32/22/21
f 11/31/22 32/22/22 25/23/22
f 17/32/23 26/24/23 25/33/23
f 21/35/24 28/38/24 27/25/24
f 23/37/25 29/40/25 28/38/25
f 18/36/26 27/25/26 30/29/26
f 19/39/27 30/29/27 29/40/27
f 24/41/28 32/43/28 31/30/28
f 22/34/29 25/33/29 32/43/29
f 20/42/30 31/30/30 26/24/30
f 39/9/7 61/19/7 62/18/7
f 37/8/8 64/22/8 61/19/8
f 40/7/9 62/18/9 63/20/9
f 38/21/10 63/20/10 64/22/10
f 35/2/11 60/27/11 57/23/11
f 34/1/12 33/3/12 57/23/12
f 34/1/13 58/24/13 59/25/13
f 36/26/14 59/25/14 60/27/14
f 48/15/15 59/25/15 58/24/15
f 41/17/16 62/29/16 59/25/16
f 44/16/17 63/30/17 62/29/17
f 44/16/18 47/28/18 58/24/18
f 46/13/19 57/23/19 60/27/19
f 42/12/20 45/14/20 60/27/20
f 42/12/21 61/19/21 64/22/21
f 43/31/22 64/22/22 57/23/22
f 49/32/23 58/24/23 57/33/23
f 53/35/24 60/38/24 59/25/24
f 55/37/25 61/40/25 60/38/25
f 51/39/26 50/36/26 59/25/26
f 51/39/27 62/29/27 61/40/27
f 56/41/28 64/43/28 63/30/28
f 56/41/29 54/34/29 57/33/29
f 52/42/30 63/30/30 58/24/30
f 71/9/7 93/19/7 94/18/7
f 69/8/8 96/22/8 93/19/8
f 72/7/9 94/18/9 95/20/9
f 70/21/10 95/20/10 96/22/10
f 67/2/11 92/27/11 89/23/11
f 66/1/12 65/3/12 89/23/12
f 66/1/13 90/24/13 91/25/13
f 68/26/14 91/25/14 92/27/14
f 80/15/15 91/25/15 90/24/15
f 73/17/16 94/29/16 91/25/16
f 76/16/17 95/30/17 94/29/17
f 76/16/18 79/28/18 90/24/18
f 78/13/19 89/23/19 92/27/19
f 74/12/20 77/14/20 92/27/20
f 74/12/21 93/19/21 96/22/21
f 75/31/22 96/22/22 89/23/22
f 81/32/23 90/24/23 89/33/23
f 85/35/24 92/38/24 91/25/24
f 87/37/25 93/40/25 92/38/25
f 83/39/26 82/36/26 91/25/26
f 83/39/27 94/29/27 93/40/27
f 88/41/28 96/43/28 95/30/28
f 88/41/29 86/34/29 89/33/29
f 84/42/30 95/30/30 90/24/30
f 103/9/7 125/19/7 126/18/7
f 101/8/8 128/22/8 125/19/8
f 104/7/9 126/18/9 127/20/9
f 102/21/10 127/20/10 128/22/10
f 99/2/11 124/27/11 121/23/11
f 97/3/12 121/23/12 122/24/12
f 98/1/13 122/24/13 123/25/13
f 100/26/14 123/25/14 124/27/14
f 112/15/15 123/25/15 122/24/15
f 105/17/16 126/29/16 123/25/16
f 108/16/17 127/30/17 126/29/17
f 108/16/18 111/28/18 122/24/18
f 110/13/19 121/23/19 124/27/19
f 106/12/20 109/14/20 124/27/20
f 106/12/21 125/19/21 128/22/21
f 107/31/22 128/22/22 121/23/22
f 113/32/23 122/24/23 121/33/23
f 117/35/24 124/38/24 123/25/24
f 119/37/25 125/40/25 124/38/25
f 115/39/26 114/36/26 123/25/26
f 115/39/27 126/29/27 125/40/27
f 120/41/28 128/43/28 127/30/28
f 120/41/29 118/34/29 121/33/29
f 116/42/30 127/30/30 122/24/30
f 140/44/2 144/47/2 143/45/2
f 132/44/2 136/47/2 135/45/2
f 136/47/3 134/49/3 133/48/3
f 134/49/4 130/54/4 129/50/4
f 135/45/31 133/48/31 129/51/31
f 132/53/32 130/57/32 134/49/32
f 144/47/3 142/49/3 141/48/3
f 142/49/4 138/54/4 137/50/4
f 143/45/31 141/48/31 137/51/31
f 140/53/32 138/57/32 142/49/32
f 159/45/2 160/47/2 156/44/2
f 151/45/2 152/47/2 148/44/2
f 149/48/1 150/49/1 152/47/1
f 145/50/4 146/54/4 150/49/4
f 145/51/33 149/48/33 151/45/33
f 150/49/34 146/57/34 148/53/34
f 157/48/1 158/49/1 160/47/1
f 153/50/4 154/54/4 158/49/4
f 153/51/33 157/48/33 159/45/33
f 158/49/34 154/57/34 156/53/34
f 172/44/2 176/47/2 175/45/2
f 164/44/2 168/47/2 167/45/2
f 168/47/5 166/49/5 165/48/5
f 165/48/4 166/49/4 162/54/4
f 167/45/35 165/48/35 161/51/35
f 164/53/36 162/57/36 166/49/36
f 176/47/5 174/49/5 173/48/5
f 173/48/4 174/49/4 170/54/4
f 175/45/35 173/48/35 169/51/35
f 172/53/36 170/57/36 174/49/36
f 191/45/2 192/47/2 188/44/2
f 183/45/2 184/47/2 180/44/2
f 181/48/6 182/49/6 184/47/6
f 181/48/4 177/50/4 178/54/4
f 177/51/37 181/48/37 183/45/37
f 182/49/38 178/57/38 180/53/38
f 189/48/6 190/49/6 192/47/6
f 189/48/4 185/50/4 186/54/4
f 185/51/37 189/48/37 191/45/37
f 190/49/38 186/57/38 188/53/38
f 194/55/39 196/44/39 195/46/39
f 196/44/2 200/47/2 199/45/2
f 200/47/40 198/49/40 197/48/40
f 194/57/6 202/57/6 203/49/6
f 199/45/5 197/48/5 193/51/5
f 196/53/6 194/57/6 198/49/6
f 201/56/1 213/56/1 214/57/1
f 198/49/41 203/49/41 204/48/41
f 193/56/42 201/56/42 202/55/42
f 197/48/5 204/48/5 201/51/5
f 207/46/43 208/44/43 206/55/43
f 211/45/4 212/47/4 208/44/4
f 209/48/44 210/49/44 212/47/44
f 210/49/6 215/49/6 214/57/6
f 205/51/5 209/48/5 211/45/5
f 210/49/6 206/57/6 208/53/6
f 214/57/6 215/49/6 203/49/6
f 216/48/45 215/49/45 210/49/45
f 214/55/46 213/56/46 205/56/46
f 213/51/5 216/48/5 209/48/5
f 216/48/5 213/51/5 201/56/5
f 203/49/3 215/49/3 216/48/3
