# Blender 5.1.1
# www.blender.org
mtllib fuel_chemical_classic_0.mtl
o fuel_chemical_classic_0
v 0.309017 0.951057 -4.000000
v 0.309017 0.951057 4.000000
v 0.809017 0.587785 -4.000000
v 0.809017 0.587785 4.000000
v 1.000000 0.000000 -4.000000
v 1.000000 -0.000000 4.000000
v 0.809017 -0.587785 -4.000000
v 0.809017 -0.587785 4.000000
v 0.309017 -0.951056 -4.000000
v 0.309017 -0.951057 4.000000
v -0.309017 -0.951056 -4.000000
v -0.309017 -0.951057 4.000000
v -0.809017 -0.587785 -4.000000
v -0.809017 -0.587785 4.000000
v -1.000000 0.000000 -4.000000
v -1.000000 -0.000000 4.000000
v -0.809017 0.587785 -4.000000
v -0.809017 0.587785 4.000000
v -0.309017 0.951057 -4.000000
v -0.309017 0.951056 4.000000
vn 0.5878 0.8090 -0.0000
vn 0.9511 0.3090 -0.0000
vn 0.9511 -0.3090 -0.0000
vn 0.5878 -0.8090 -0.0000
vn -0.0000 -1.0000 -0.0000
vn -0.5878 -0.8090 -0.0000
vn -0.9511 -0.3090 -0.0000
vn -0.9511 0.3090 -0.0000
vn -0.0000 -0.0000 1.0000
vn -0.5878 0.8090 -0.0000
vn -0.0000 1.0000 -0.0000
vn -0.0000 -0.0000 -1.0000
vt 1.000000 1.000000
vt 0.900000 0.500000
vt 1.000000 0.500000
vt 0.900000 1.000000
vt 0.800000 0.500000
vt 0.700000 1.000000
vt 0.700000 0.500000
vt 0.600000 0.500000
vt 0.600000 1.000000
vt 0.500000 0.500000
vt 0.400000 1.000000
vt 0.400000 0.500000
vt 0.300000 0.500000
vt 0.300000 1.000000
vt 0.200000 0.500000
vt 0.021746 0.324164
vt 0.391068 0.055836
vt 0.478254 0.324164
vt 0.100000 1.000000
vt 0.100000 0.500000
vt -0.000000 0.500000
vt 0.978254 0.175836
vt 0.521746 0.175836
vt 0.608932 0.444164
vt 0.800000 1.000000
vt 0.500000 1.000000
vt 0.200000 1.000000
vt 0.391068 0.444164
vt 0.250000 0.490000
vt 0.108932 0.444164
vt 0.021746 0.175836
vt 0.108932 0.055836
vt 0.250000 0.010000
vt 0.478254 0.175836
vt -0.000000 1.000000
vt 0.750000 0.490000
vt 0.891068 0.444164
vt 0.978254 0.324164
vt 0.891068 0.055836
vt 0.750000 0.010000
vt 0.608932 0.055836
vt 0.521746 0.324164
s 0
usemtl no_texture
f 2/1/1 3/2/1 1/3/1
f 4/4/2 5/5/2 3/2/2
f 5/5/3 8/6/3 7/7/3
f 8/6/4 9/8/4 7/7/4
f 10/9/5 11/10/5 9/8/5
f 11/10/6 14/11/6 13/12/6
f 14/11/7 15/13/7 13/12/7
f 16/14/8 17/15/8 15/13/8
f 18/16/9 10/17/9 6/18/9
f 17/15/10 20/19/10 19/20/10
f 20/19/11 1/21/11 19/20/11
f 7/22/12 15/23/12 19/24/12
f 2/1/1 4/4/1 3/2/1
f 4/4/2 6/25/2 5/5/2
f 5/5/3 6/25/3 8/6/3
f 8/6/4 10/9/4 9/8/4
f 10/9/5 12/26/5 11/10/5
f 11/10/6 12/26/6 14/11/6
f 14/11/7 16/14/7 15/13/7
f 16/14/8 18/27/8 17/15/8
f 6/18/9 4/28/9 2/29/9
f 2/29/9 20/30/9 18/16/9
f 18/16/9 16/31/9 14/32/9
f 14/32/9 12/33/9 10/17/9
f 10/17/9 8/34/9 6/18/9
f 6/18/9 2/29/9 18/16/9
f 18/16/9 14/32/9 10/17/9
f 17/15/10 18/27/10 20/19/10
f 20/19/11 2/35/11 1/21/11
f 19/24/12 1/36/12 3/37/12
f 3/37/12 5/38/12 7/22/12
f 7/22/12 9/39/12 11/40/12
f 11/40/12 13/41/12 15/23/12
f 15/23/12 17/42/12 19/24/12
f 19/24/12 3/37/12 7/22/12
f 7/22/12 11/40/12 15/23/12
